<?xml version="1.0" encoding="utf-8"?>
<!-- Generator: Adobe Illustrator 23.0.0, SVG Export Plug-In . SVG Version: 6.00 Build 0)  -->
<svg version="1.1" id="Layer_1" xmlns="http://www.w3.org/2000/svg" xmlns:xlink="http://www.w3.org/1999/xlink" x="0px" y="0px"
	 viewBox="0 0 40 40" style="enable-background:new 0 0 40 40;" xml:space="preserve">
<style type="text/css">
	.st0{fill:#FFFFFF;}
	.st1{fill:none;stroke:#FFFFFF;stroke-width:0.75;stroke-miterlimit:10;}
</style>
<g>
	<path class="st0" d="M21.6,18.9L21.6,18.9L21.6,18.9h-9.5c-0.3,0-0.5-0.4-0.2-0.6l4-4c0.2-0.2,0.1-0.6-0.2-0.6h-2.1
		c-0.1,0-0.2,0-0.2,0.1l-6,5.9c-0.1,0.1-0.1,0.4,0,0.5l6.1,6.1l0,0l0,0H21h2.8h3c0.1,0,0.2,0,0.2-0.1l0.7-0.7c0.1-0.1,0.1-0.4,0-0.5
		L21.6,18.9z M14.1,24l-2.3-2.3c-0.2-0.2-0.1-0.6,0.2-0.6h8.5c0.1,0,0.2,0,0.2,0.1l2.3,2.3c0.2,0.2,0.1,0.6-0.2,0.6h-8.5
		C14.3,24.1,14.2,24.1,14.1,24z"/>
	<path class="st0" d="M30.8,18.9h-6.4c-0.3,0-0.5,0.4-0.2,0.6l1.5,1.5c0.1,0.1,0.2,0.1,0.2,0.1h6.4c0.3,0,0.5-0.4,0.2-0.6L31,19
		C30.9,18.9,30.8,18.9,30.8,18.9z"/>
	<path class="st0" d="M30.7,18.4h-6.4c-0.3,0-0.5-0.4-0.3-0.6l1.5-1.6c0.1-0.1,0.2-0.1,0.3-0.1h6.4c0.3,0,0.5,0.4,0.3,0.6L31,18.3
		C30.9,18.4,30.8,18.4,30.7,18.4z"/>
</g>
<circle class="st1" cx="20" cy="20" r="17.2"/>
</svg>
