<?xml version="1.0" encoding="utf-8"?>
<!-- Generator: Adobe Illustrator 23.0.0, SVG Export Plug-In . SVG Version: 6.00 Build 0)  -->
<svg version="1.1" id="Layer_1" xmlns="http://www.w3.org/2000/svg" xmlns:xlink="http://www.w3.org/1999/xlink" x="0px" y="0px"
	 viewBox="0 0 40 20" style="enable-background:new 0 0 40 20;" xml:space="preserve">
<style type="text/css">
	.st0{fill:#FFFFFF;}
</style>
<g>
	<path class="st0" d="M22.8,8.2L22.8,8.2L22.8,8.2H7.8c-0.5,0-0.7-0.6-0.4-0.9L13.7,1c0.3-0.3,0.1-0.9-0.4-0.9H10
		c-0.1,0-0.3,0.1-0.4,0.2L0.2,9.5c-0.2,0.2-0.2,0.6,0,0.8l9.6,9.6l0,0l0,0h12h4.4h4.6c0.1,0,0.3-0.1,0.4-0.2l1.2-1.2
		c0.2-0.2,0.2-0.6,0-0.8L22.8,8.2z M11,16.2l-3.6-3.6c-0.3-0.3-0.1-0.9,0.4-0.9h13.3c0.1,0,0.3,0.1,0.4,0.2l3.6,3.6
		c0.3,0.3,0.1,0.9-0.4,0.9H11.4C11.3,16.3,11.1,16.3,11,16.2z"/>
	<path class="st0" d="M37.1,8.2h-10c-0.5,0-0.7,0.6-0.4,0.9l2.3,2.3c0.1,0.1,0.2,0.2,0.4,0.2h10c0.5,0,0.7-0.6,0.4-0.9l-2.3-2.3
		C37.4,8.3,37.2,8.2,37.1,8.2z"/>
	<path class="st0" d="M37.1,7.4H27c-0.5,0-0.7-0.6-0.4-0.9L29,4c0.1-0.1,0.2-0.2,0.4-0.2h10c0.5,0,0.7,0.6,0.4,0.9l-2.4,2.5
		C37.4,7.4,37.2,7.4,37.1,7.4z"/>
</g>
</svg>
