<?xml version="1.0" encoding="utf-8"?>
<!-- Generator: Adobe Illustrator 23.0.0, SVG Export Plug-In . SVG Version: 6.00 Build 0)  -->
<svg version="1.1" id="Layer_1" xmlns="http://www.w3.org/2000/svg" xmlns:xlink="http://www.w3.org/1999/xlink" x="0px" y="0px"
	 viewBox="0 0 1000 1000" style="enable-background:new 0 0 1000 1000;" xml:space="preserve">
<style type="text/css">
	.st0{fill:#FFFFFF;}
	.st1{font-family:'NHaasGroteskDSPro-65Md';}
	.st2{font-size:34.2192px;}
	.st3{font-family:'NHaasGroteskDSPro-75Bd';}
	.st4{font-size:78.6979px;}
</style>
<path class="st0" d="M224.6,313.9h-53.8c-11.8,0-21.6,9.8-21.6,21.6l0,0c0,11.8,9.8,21.6,21.6,21.6h53.8c11.8,0,21.6-9.8,21.6-21.6
	l0,0C246.2,323.8,236.4,313.9,224.6,313.9z M224.6,346.7c-5.9,0-11.1-4.6-11.1-11.1c0-5.9,4.6-11.1,11.1-11.1
	c6.6,0,11.1,4.6,11.1,11.1C235.1,342.1,230.5,346.7,224.6,346.7z"/>
<circle class="st0" cx="560.3" cy="189.3" r="48.5"/>
<path class="st0" d="M972.8,794L972.8,794c0-26.9-21.6-49.2-49.2-49.2c-26.9,0-49.2,21.6-49.2,49.2l0,0c0,26.9,21.6,49.2,49.2,49.2
	S972.8,820.9,972.8,794z M900,794L900,794c0-13.8,11.1-24.3,24.3-24.3s24.3,11.1,24.3,24.3l0,0c0,13.8-11.1,24.3-24.3,24.3
	S900,807.8,900,794z"/>
<circle class="st0" cx="924.3" cy="914.7" r="48.5"/>
<path class="st0" d="M511.8,901.5v63h97.7v-63H511.8z M561,948.8c-8.5,0-15.7-7.2-15.7-15.7s7.2-15.7,15.7-15.7s15.7,7.2,15.7,15.7
	S569.5,948.8,561,948.8z"/>
<path class="st0" d="M170.1,304.7h54.4c11.8,0,21.6-9.8,21.6-21.6l0,0c0-11.8-9.8-21.6-21.6-21.6h-53.8c-11.8,0-21.6,9.8-21.6,21.6
	l0,0C148.5,294.9,158.3,304.7,170.1,304.7z M170.1,272c5.9,0,11.1,4.6,11.1,11.1c0,5.9-4.6,11.1-11.1,11.1
	c-5.9,0-11.1-4.6-11.1-11.1C159.6,277.2,164.2,272,170.1,272z"/>
<path class="st0" d="M427.2,377.5l-36.1,36.1l13.1,49.2l49.2,13.1l36.1-36.1l-13.1-49.2L427.2,377.5z M464.6,433.3L446.9,451
	l-24.3-6.6l-6.6-24.3l17.7-17.7L458,409L464.6,433.3z"/>
<rect x="513.8" y="50.3" class="st0" width="95.7" height="26.9"/>
<rect x="513.8" y="17.5" class="st0" width="95.7" height="26.9"/>
<circle class="st0" cx="38.3" cy="780.9" r="9.2"/>
<circle class="st0" cx="63.9" cy="780.9" r="9.2"/>
<circle class="st0" cx="90.1" cy="780.9" r="9.2"/>
<circle class="st0" cx="38.3" cy="807.1" r="9.2"/>
<circle class="st0" cx="90.1" cy="807.1" r="9.2"/>
<circle class="st0" cx="38.3" cy="833.3" r="9.2"/>
<circle class="st0" cx="63.9" cy="833.3" r="9.2"/>
<circle class="st0" cx="90.1" cy="833.3" r="9.2"/>
<circle class="st0" cx="38.3" cy="876" r="9.2"/>
<circle class="st0" cx="63.9" cy="876" r="9.2"/>
<circle class="st0" cx="90.1" cy="876" r="9.2"/>
<circle class="st0" cx="38.3" cy="902.2" r="9.2"/>
<circle class="st0" cx="90.1" cy="902.2" r="9.2"/>
<circle class="st0" cx="38.3" cy="928.4" r="9.2"/>
<circle class="st0" cx="90.1" cy="928.4" r="9.2"/>
<circle class="st0" cx="116.3" cy="780.9" r="9.2"/>
<circle class="st0" cx="116.3" cy="833.3" r="9.2"/>
<circle class="st0" cx="116.3" cy="902.2" r="9.2"/>
<circle class="st0" cx="116.3" cy="928.4" r="9.2"/>
<circle class="st0" cx="38.3" cy="954.7" r="9.2"/>
<circle class="st0" cx="63.9" cy="954.7" r="9.2"/>
<circle class="st0" cx="116.3" cy="954.7" r="9.2"/>
<circle class="st0" cx="63.9" cy="754.6" r="9.2"/>
<circle class="st0" cx="116.3" cy="754.6" r="9.2"/>
<polygon class="st0" points="917.1,401.2 935.5,401.2 973.5,439.2 935.5,476.6 917.1,476.6 955.1,438.5 "/>
<polygon class="st0" points="879.1,401.2 898.1,401.2 935.5,439.2 898.1,476.6 879.1,476.6 917.1,438.5 "/>
<g>
	<path class="st0" d="M591.8,547.4h-61.6c-7.2,0-13.1,5.9-13.1,13.1v61.6c0,7.2,5.9,13.1,13.1,13.1h9.2v77.4c0,5.9,4.6,9.8,9.8,9.8
		h23.6c5.9,0,9.8-4.6,9.8-9.8v-77.4h9.2c7.2,0,13.1-5.9,13.1-13.1v-61.6C604.3,553.3,598.4,547.4,591.8,547.4z"/>
	<circle class="st0" cx="561" cy="522.5" r="21"/>
</g>
<g>
	<rect x="637.7" y="438.5" class="st0" width="43.9" height="3.9"/>
</g>
<g>
	<rect x="684.9" y="437.2" class="st0" width="43.9" height="7.2"/>
</g>
<g>
	<rect x="730.8" y="433.3" class="st0" width="43.9" height="14.4"/>
</g>
<g>
	<rect x="777.4" y="424.8" class="st0" width="37.4" height="29.5"/>
</g>
<g>
	<g>
		<polyline class="st0" points="818.1,453.6 847.6,483.1 847.6,395.3 818.1,424.1 		"/>
	</g>
	<g>
		<polyline class="st0" points="857.4,435.9 851.5,430 851.5,447.7 857.4,441.8 		"/>
	</g>
</g>
<polygon class="st0" points="26.5,139.5 26.5,113.2 105.9,67.3 105.9,93.6 "/>
<polygon class="st0" points="26.5,187.4 26.5,161.1 105.9,115.2 105.9,142.1 "/>
<polygon class="st0" points="26.5,239.2 26.5,212.9 105.9,167 105.9,193.9 "/>
<polygon class="st0" points="26.5,287.7 26.5,260.8 105.9,215.6 105.9,241.8 "/>
<polygon class="st0" points="26.5,335.6 26.5,309.3 105.9,263.4 105.9,289.7 "/>
<polygon class="st0" points="26.5,383.4 26.5,357.2 105.9,311.3 105.9,337.5 "/>
<polygon class="st0" points="26.5,431.3 26.5,405.1 105.9,359.2 105.9,386.1 "/>
<polygon class="st0" points="26.5,479.9 26.5,453 105.9,407.7 105.9,433.9 "/>
<path class="st0" d="M117.7,45.7"/>
<polygon class="st0" points="26.5,91.6 105.9,45.7 105.9,45 61.3,45 26.5,65.4 "/>
<polyline class="st0" points="61.3,45 105.9,45 105.9,19.5 "/>
<path class="st0" d="M971.5,141.4c-66.9,0-121.3-54.4-121.3-121.3c0-0.7,0-1.3,0-1.3H732.8c0,0.7,0,1.3,0,1.3
	c0,131.8,106.9,238.1,238.1,238.1c0.7,0,1.3,0,1.3,0V141.4C972.2,141.4,972.2,141.4,971.5,141.4z"/>
<path class="st0" d="M719,261.5h-72.1c-5.2,0-9.2,3.9-9.2,9.2l0,0c0,5.2,3.9,9.2,9.2,9.2h28.2c7.9,0,11.8,9.8,6.6,15.1l-43.9,43.9
	c-3.3,3.3-3.3,9.2,0,12.5l0,0c3.3,3.3,9.2,3.3,12.5,0l25.6-25.6c3.3-3.3,9.2-3.3,12.5,0l28.9,28.9c3.3,3.3,9.2,3.3,12.5,0l0,0
	c3.3-3.3,3.3-9.2,0-12.5l-28.9-28.9c-3.3-3.3-3.3-9.2,0-12.5l23-23C730.8,271.3,726.9,261.5,719,261.5z"/>
<g>
	<rect x="153.1" y="746.8" class="st0" width="210.5" height="6.6"/>
</g>
<g>
	<rect x="153.1" y="763.8" class="st0" width="158.1" height="6.6"/>
</g>
<g>
	<rect x="153.1" y="781.5" class="st0" width="52.5" height="6.6"/>
</g>
<g>
	<rect x="153.1" y="799.2" class="st0" width="105.6" height="6.6"/>
</g>
<g>
	<rect x="153.1" y="816.9" class="st0" width="210.5" height="6.6"/>
</g>
<g>
	<rect x="153.1" y="834" class="st0" width="105.6" height="6.6"/>
</g>
<g>
	<rect x="153.1" y="851.7" class="st0" width="52.5" height="6.6"/>
</g>
<g>
	<rect x="153.1" y="869.4" class="st0" width="158.1" height="6.6"/>
</g>
<g>
	<rect x="153.1" y="887.1" class="st0" width="210.5" height="6.6"/>
</g>
<g>
	<rect x="153.1" y="904.2" class="st0" width="105.6" height="6.6"/>
</g>
<g>
	<rect x="153.1" y="921.9" class="st0" width="52.5" height="6.6"/>
</g>
<g>
	<rect x="153.1" y="939.6" class="st0" width="158.1" height="6.6"/>
</g>
<g>
	<rect x="153.1" y="957.3" class="st0" width="210.5" height="6.6"/>
</g>
<g>
	<path class="st0" d="M709.9,547.4h-61.6c-7.2,0-13.1,5.9-13.1,13.1v61.6c0,7.2,5.9,13.1,13.1,13.1h9.2v77.4c0,5.9,4.6,9.8,9.8,9.8
		h23.6c5.9,0,9.8-4.6,9.8-9.8v-77.4h9.2c7.2,0,13.1-5.9,13.1-13.1v-61.6C722.3,553.3,716.4,547.4,709.9,547.4z"/>
	<circle class="st0" cx="679" cy="522.5" r="21"/>
</g>
<g>
	<rect x="512.5" y="477.2" class="st0" width="98.4" height="2.6"/>
</g>
<g>
	<rect x="512.5" y="458.2" class="st0" width="98.4" height="8.5"/>
</g>
<g>
	<rect x="512.5" y="445.1" class="st0" width="98.4" height="2"/>
</g>
<g>
	<rect x="512.5" y="420.8" class="st0" width="98.4" height="16.4"/>
</g>
<g>
	<rect x="512.5" y="411" class="st0" width="98.4" height="3.9"/>
</g>
<g>
	<rect x="512.5" y="391.3" class="st0" width="98.4" height="9.8"/>
</g>
<g>
	<rect x="512.5" y="376.9" class="st0" width="98.4" height="6.6"/>
</g>
<g>
	<rect x="512.5" y="353.3" class="st0" width="98.4" height="20.3"/>
</g>
<g>
	<rect x="512.5" y="346.1" class="st0" width="98.4" height="2"/>
</g>
<g>
	<rect x="512.5" y="326.4" class="st0" width="98.4" height="8.5"/>
</g>
<g>
	<rect x="512.5" y="308" class="st0" width="98.4" height="13.1"/>
</g>
<g>
	<rect x="512.5" y="291.6" class="st0" width="98.4" height="13.1"/>
</g>
<g>
	<rect x="512.5" y="280.5" class="st0" width="98.4" height="2.6"/>
</g>
<g>
	<rect x="512.5" y="261.5" class="st0" width="98.4" height="10.5"/>
</g>
<path class="st0" d="M334.1,139.5h59c-0.7-65.6-53.1-118-118.7-118.7v59C306.5,79.8,333.4,106.7,334.1,139.5z"/>
<g>
	<path class="st0" d="M391.8,235.9c0,3.9-0.7,7.2-2,9.8c-1.3,3.3-3.3,5.9-5.9,7.9c-2.6,2-5.9,3.9-9.2,5.2c-3.3,1.3-7.9,2-11.8,2
		c-4.6,0-8.5-0.7-11.8-2c-3.3-1.3-6.6-2.6-9.2-5.2c-2.6-2-4.6-4.6-5.9-7.9c-1.3-3.3-2-6.6-2-9.8c0-3.9,0.7-7.2,2-10.5
		c1.3-3.3,3.3-5.9,5.9-7.9c2.6-2,5.9-3.9,9.2-5.2c3.3-1.3,7.9-2,11.8-2c4.6,0,8.5,0.7,11.8,2c3.3,1.3,6.6,2.6,9.2,5.2
		c2.6,2,4.6,4.6,5.9,7.9C391.1,228.7,391.8,232.6,391.8,235.9z M380.6,235.9c0-2-0.7-3.3-1.3-4.6c-0.7-1.3-2-2.6-3.9-3.3
		c-1.3-0.7-3.3-1.3-5.9-2c-2-0.7-4.6-0.7-7.2-0.7c-2.6,0-5.2,0-7.2,0.7c-2,0.7-3.9,1.3-5.9,2c-1.3,0.7-2.6,2-3.9,3.3
		c-0.7,1.3-1.3,2.6-1.3,4.6c0,2,0.7,3.3,1.3,4.6c0.7,1.3,2,2.6,3.9,3.3c1.3,0.7,3.3,1.3,5.9,2c2,0.7,4.6,0.7,7.2,0.7
		c2.6,0,5.2,0,7.2-0.7c2-0.7,3.9-1.3,5.9-2c1.3-0.7,2.6-2,3.9-3.3S380.6,237.9,380.6,235.9z"/>
	<path class="st0" d="M391.8,185.4c0,3.3-0.7,5.9-1.3,9.2c-0.7,2.6-2,5.2-3.3,7.2c-1.3,2-3.3,3.9-5.9,5.2c-2,1.3-4.6,2-7.9,2.6
		v-13.8c2.6-0.7,3.9-1.3,5.2-3.3c1.3-2,2-3.9,2-6.6s-0.7-5.2-2.6-6.6c-2-1.3-3.9-2.6-7.2-2.6c-2.6,0-5.2,0.7-6.6,2.6
		c-1.3,2-2.6,3.9-2.6,6.6c0,2,0.7,3.3,1.3,4.6c0.7,1.3,1.3,2.6,2.6,3.3V207l-30.8-5.9v-34.8h11.1v24.9l9.8,2l0,0
		c-0.7-1.3-2-2.6-2.6-4.6c-0.7-2-0.7-3.9-0.7-6.6c0-2.6,0.7-5.2,1.3-7.2c0.7-2.6,2-4.6,3.9-5.9c2-2,3.9-3.3,5.9-3.9
		c2.6-1.3,5.2-1.3,7.9-1.3c3.3,0,5.9,0.7,8.5,1.3c2.6,1.3,4.6,2.6,6.6,4.6c2,2,3.3,4.6,3.9,7.2C391.1,178.8,391.8,182.1,391.8,185.4
		z"/>
</g>
<path class="st0" d="M149.8,505.4v98.4h97.7v-98.4H149.8z M224.6,563.8h-16.4v18.4h-19.7v-18.4h-16.4v-18.4h16.4v-18.4h19.7v18.4
	h16.4V563.8z"/>
<polygon class="st0" points="383.9,660.2 380.6,660.2 329.5,660.2 329.5,670 373.4,670 332.8,711.4 149.8,711.4 149.8,721.8 
	336.7,721.8 380.6,677.9 380.6,721.8 391.1,721.8 391.1,670 391.1,667.4 391.1,660.2 "/>
<circle class="st0" cx="515.7" cy="748.7" r="3.3"/>
<circle class="st0" cx="515.7" cy="769.7" r="3.3"/>
<circle class="st0" cx="526.2" cy="748.7" r="3.3"/>
<circle class="st0" cx="526.2" cy="769.7" r="3.3"/>
<circle class="st0" cx="526.2" cy="780.2" r="3.3"/>
<circle class="st0" cx="536.7" cy="748.7" r="3.3"/>
<circle class="st0" cx="536.7" cy="759.2" r="3.3"/>
<circle class="st0" cx="536.7" cy="769.7" r="3.3"/>
<circle class="st0" cx="547.2" cy="759.2" r="3.3"/>
<circle class="st0" cx="569.5" cy="759.2" r="3.3"/>
<circle class="st0" cx="569.5" cy="780.2" r="3.3"/>
<circle class="st0" cx="580" cy="748.7" r="3.3"/>
<circle class="st0" cx="580" cy="759.2" r="3.3"/>
<circle class="st0" cx="580" cy="769.7" r="3.3"/>
<circle class="st0" cx="590.5" cy="769.7" r="3.3"/>
<circle class="st0" cx="590.5" cy="780.2" r="3.3"/>
<circle class="st0" cx="601" cy="748.7" r="3.3"/>
<circle class="st0" cx="601" cy="759.2" r="3.3"/>
<circle class="st0" cx="601" cy="780.2" r="3.3"/>
<circle class="st0" cx="611.5" cy="748.7" r="3.3"/>
<circle class="st0" cx="611.5" cy="759.2" r="3.3"/>
<circle class="st0" cx="611.5" cy="769.7" r="3.3"/>
<circle class="st0" cx="664.6" cy="748.7" r="3.3"/>
<circle class="st0" cx="664.6" cy="769.7" r="3.3"/>
<circle class="st0" cx="654.1" cy="748.7" r="3.3"/>
<circle class="st0" cx="654.1" cy="769.7" r="3.3"/>
<circle class="st0" cx="654.1" cy="780.2" r="3.3"/>
<circle class="st0" cx="643.6" cy="748.7" r="3.3"/>
<circle class="st0" cx="643.6" cy="759.2" r="3.3"/>
<circle class="st0" cx="643.6" cy="769.7" r="3.3"/>
<circle class="st0" cx="633.1" cy="759.2" r="3.3"/>
<circle class="st0" cx="685.6" cy="759.2" r="3.3"/>
<circle class="st0" cx="685.6" cy="780.2" r="3.3"/>
<circle class="st0" cx="696.1" cy="748.7" r="3.3"/>
<circle class="st0" cx="696.1" cy="759.2" r="3.3"/>
<circle class="st0" cx="696.1" cy="769.7" r="3.3"/>
<circle class="st0" cx="706.6" cy="769.7" r="3.3"/>
<circle class="st0" cx="706.6" cy="780.2" r="3.3"/>
<circle class="st0" cx="717.1" cy="748.7" r="3.3"/>
<circle class="st0" cx="717.1" cy="759.2" r="3.3"/>
<circle class="st0" cx="717.1" cy="780.2" r="3.3"/>
<circle class="st0" cx="727.6" cy="748.7" r="3.3"/>
<circle class="st0" cx="727.6" cy="759.2" r="3.3"/>
<circle class="st0" cx="727.6" cy="769.7" r="3.3"/>
<circle class="st0" cx="727.6" cy="832" r="3.3"/>
<circle class="st0" cx="727.6" cy="811" r="3.3"/>
<circle class="st0" cx="717.1" cy="832" r="3.3"/>
<circle class="st0" cx="717.1" cy="811" r="3.3"/>
<circle class="st0" cx="717.1" cy="800.5" r="3.3"/>
<circle class="st0" cx="706.6" cy="832" r="3.3"/>
<circle class="st0" cx="706.6" cy="821.5" r="3.3"/>
<circle class="st0" cx="706.6" cy="811" r="3.3"/>
<circle class="st0" cx="696.1" cy="821.5" r="3.3"/>
<circle class="st0" cx="673.8" cy="821.5" r="3.3"/>
<circle class="st0" cx="673.8" cy="800.5" r="3.3"/>
<circle class="st0" cx="663.3" cy="832" r="3.3"/>
<circle class="st0" cx="663.3" cy="821.5" r="3.3"/>
<circle class="st0" cx="663.3" cy="811" r="3.3"/>
<circle class="st0" cx="652.8" cy="811" r="3.3"/>
<circle class="st0" cx="652.8" cy="800.5" r="3.3"/>
<circle class="st0" cx="642.3" cy="832" r="3.3"/>
<circle class="st0" cx="642.3" cy="821.5" r="3.3"/>
<circle class="st0" cx="642.3" cy="800.5" r="3.3"/>
<circle class="st0" cx="631.8" cy="832" r="3.3"/>
<circle class="st0" cx="631.8" cy="821.5" r="3.3"/>
<circle class="st0" cx="631.8" cy="811" r="3.3"/>
<circle class="st0" cx="578.7" cy="832" r="3.3"/>
<circle class="st0" cx="578.7" cy="811" r="3.3"/>
<circle class="st0" cx="589.2" cy="832" r="3.3"/>
<circle class="st0" cx="589.2" cy="811" r="3.3"/>
<circle class="st0" cx="589.2" cy="800.5" r="3.3"/>
<circle class="st0" cx="599.7" cy="832" r="3.3"/>
<circle class="st0" cx="599.7" cy="821.5" r="3.3"/>
<circle class="st0" cx="599.7" cy="811" r="3.3"/>
<circle class="st0" cx="610.2" cy="821.5" r="3.3"/>
<circle class="st0" cx="557.7" cy="821.5" r="3.3"/>
<circle class="st0" cx="557.7" cy="800.5" r="3.3"/>
<circle class="st0" cx="547.2" cy="832" r="3.3"/>
<circle class="st0" cx="547.2" cy="821.5" r="3.3"/>
<circle class="st0" cx="547.2" cy="811" r="3.3"/>
<circle class="st0" cx="536.7" cy="811" r="3.3"/>
<circle class="st0" cx="536.7" cy="800.5" r="3.3"/>
<circle class="st0" cx="526.2" cy="832" r="3.3"/>
<circle class="st0" cx="526.2" cy="821.5" r="3.3"/>
<circle class="st0" cx="526.2" cy="800.5" r="3.3"/>
<circle class="st0" cx="515.7" cy="832" r="3.3"/>
<circle class="st0" cx="515.7" cy="821.5" r="3.3"/>
<circle class="st0" cx="515.7" cy="811" r="3.3"/>
<text transform="matrix(-6.123234e-17 -1 1 -6.123234e-17 780.572 357.9097)" class="st0 st1 st2">5Con™</text>
<text transform="matrix(1 0 0 1 762.4186 961.8027)" class="st0 st3 st4">1</text>
<text transform="matrix(1 0 0 1 795.8649 961.8027)" class="st0 st3 st4">9</text>
</svg>
