<?xml version="1.0" encoding="utf-8"?>
<!-- Generator: Adobe Illustrator 23.0.0, SVG Export Plug-In . SVG Version: 6.00 Build 0)  -->
<svg version="1.1" id="Layer_1" xmlns="http://www.w3.org/2000/svg" xmlns:xlink="http://www.w3.org/1999/xlink" x="0px" y="0px"
	 viewBox="0 0 1000 1000" style="enable-background:new 0 0 1000 1000;" xml:space="preserve">
<style type="text/css">
	.st0{fill:#FFFFFF;}
	.st1{font-family:'NHaasGroteskDSPro-65Md';}
	.st2{font-size:30.7973px;}
	.st3{font-family:'NHaasGroteskDSPro-75Bd';}
	.st4{font-size:70.8281px;}
</style>
<path class="st0" d="M252.1,331.6h-48.4c-10.6,0-19.4,8.8-19.4,19.4l0,0c0,10.6,8.8,19.4,19.4,19.4h48.4c10.6,0,19.4-8.8,19.4-19.4
	l0,0C271.6,340.5,262.8,331.6,252.1,331.6z M252.1,361.1c-5.3,0-10-4.1-10-10c0-5.3,4.1-10,10-10c5.9,0,10,4.1,10,10
	C261.6,357,257.5,361.1,252.1,361.1z"/>
<circle class="st0" cx="554.3" cy="219.5" r="43.7"/>
<path class="st0" d="M925.5,763.7L925.5,763.7c0-24.2-19.4-44.3-44.3-44.3c-24.2,0-44.3,19.4-44.3,44.3l0,0
	c0,24.2,19.4,44.3,44.3,44.3S925.5,787.9,925.5,763.7z M860,763.7L860,763.7c0-12.4,10-21.9,21.9-21.9s21.9,10,21.9,21.9l0,0
	c0,12.4-10,21.9-21.9,21.9S860,776.1,860,763.7z"/>
<circle class="st0" cx="881.9" cy="872.3" r="43.7"/>
<path class="st0" d="M510.6,860.5v56.7h87.9v-56.7H510.6z M554.9,903c-7.7,0-14.1-6.5-14.1-14.1c0-7.6,6.5-14.1,14.1-14.1
	c7.6,0,14.1,6.5,14.1,14.1C569,896.5,562.5,903,554.9,903z"/>
<path class="st0" d="M203.1,323.3h49c10.6,0,19.4-8.8,19.4-19.4l0,0c0-10.6-8.8-19.4-19.4-19.4h-48.4c-10.6,0-19.4,8.8-19.4,19.4
	l0,0C183.6,314.5,192.5,323.3,203.1,323.3z M203.1,293.9c5.3,0,10,4.1,10,10c0,5.3-4.1,10-10,10c-5.3,0-10-4.1-10-10
	C193.6,298.6,197.8,293.9,203.1,293.9z"/>
<path class="st0" d="M434.5,388.9L402,421.3l11.8,44.3l44.3,11.8l32.5-32.5l-11.8-44.3L434.5,388.9z M468.1,439.1L452.2,455
	l-21.9-5.9l-5.9-21.9l15.9-15.9l21.9,5.9L468.1,439.1z"/>
<rect x="512.4" y="94.4" class="st0" width="86.1" height="24.2"/>
<rect x="512.4" y="64.8" class="st0" width="86.1" height="24.2"/>
<circle class="st0" cx="84.5" cy="751.9" r="8.3"/>
<ellipse transform="matrix(3.327796e-02 -0.9994 0.9994 3.327796e-02 -647.5613 834.3384)" class="st0" cx="107.5" cy="751.9" rx="8.3" ry="8.3"/>
<circle class="st0" cx="131.1" cy="751.9" r="8.3"/>
<circle class="st0" cx="84.5" cy="775.5" r="8.3"/>
<circle class="st0" cx="131.1" cy="775.5" r="8.3"/>
<circle class="st0" cx="84.5" cy="799.1" r="8.3"/>
<ellipse transform="matrix(3.327795e-02 -0.9994 0.9994 3.327795e-02 -694.6951 879.929)" class="st0" cx="107.5" cy="799.1" rx="8.3" ry="8.3"/>
<circle class="st0" cx="131.1" cy="799.1" r="8.3"/>
<circle class="st0" cx="84.5" cy="837.5" r="8.3"/>
<ellipse transform="matrix(3.327796e-02 -0.9994 0.9994 3.327796e-02 -733.1038 917.0801)" class="st0" cx="107.5" cy="837.5" rx="8.3" ry="8.3"/>
<circle class="st0" cx="131.1" cy="837.5" r="8.3"/>
<circle class="st0" cx="84.5" cy="861.1" r="8.3"/>
<circle class="st0" cx="131.1" cy="861.1" r="8.3"/>
<circle class="st0" cx="84.5" cy="884.7" r="8.3"/>
<circle class="st0" cx="131.1" cy="884.7" r="8.3"/>
<circle class="st0" cx="154.7" cy="751.9" r="8.3"/>
<circle class="st0" cx="154.7" cy="799.1" r="8.3"/>
<circle class="st0" cx="154.7" cy="861.1" r="8.3"/>
<circle class="st0" cx="154.7" cy="884.7" r="8.3"/>
<circle class="st0" cx="84.5" cy="908.3" r="8.3"/>
<ellipse transform="matrix(3.327795e-02 -0.9994 0.9994 3.327795e-02 -803.8947 985.5531)" class="st0" cx="107.5" cy="908.3" rx="8.3" ry="8.3"/>
<circle class="st0" cx="154.7" cy="908.3" r="8.3"/>
<ellipse transform="matrix(3.327796e-02 -0.9994 0.9994 3.327796e-02 -623.9044 811.4561)" class="st0" cx="107.5" cy="728.2" rx="8.3" ry="8.3"/>
<circle class="st0" cx="154.7" cy="728.2" r="8.3"/>
<polygon class="st0" points="875.4,410.2 892,410.2 926.2,444.4 892,478 875.4,478 909.6,443.8 "/>
<polygon class="st0" points="841.2,410.2 858.3,410.2 892,444.4 858.3,478 841.2,478 875.4,443.8 "/>
<g>
	<path class="st0" d="M582.6,541.8h-55.4c-6.5,0-11.8,5.3-11.8,11.8V609c0,6.5,5.3,11.8,11.8,11.8h8.3v69.7c0,5.3,4.1,8.8,8.8,8.8
		h21.2c5.3,0,8.8-4.1,8.8-8.8v-69.7h8.3c6.5,0,11.8-5.3,11.8-11.8v-55.4C593.9,547.1,588.6,541.8,582.6,541.8z"/>
	<circle class="st0" cx="554.9" cy="519.3" r="18.9"/>
</g>
<g>
	<rect x="623.9" y="443.8" class="st0" width="39.5" height="3.5"/>
</g>
<g>
	<rect x="666.4" y="442.6" class="st0" width="39.5" height="6.5"/>
</g>
<g>
	<rect x="707.7" y="439.1" class="st0" width="39.5" height="13"/>
</g>
<g>
	<rect x="749.7" y="431.4" class="st0" width="33.7" height="26.5"/>
</g>
<g>
	<g>
		<polyline class="st0" points="786.3,457.3 812.8,483.9 812.8,404.9 786.3,430.8 		"/>
	</g>
	<g>
		<polyline class="st0" points="821.7,441.4 816.3,436.1 816.3,452 821.7,446.7 		"/>
	</g>
</g>
<polygon class="st0" points="73.8,174.6 73.8,151 145.3,109.7 145.3,133.3 "/>
<polygon class="st0" points="73.8,217.8 73.8,194.1 145.3,152.8 145.3,177 "/>
<polygon class="st0" points="73.8,264.4 73.8,240.7 145.3,199.4 145.3,223.6 "/>
<polygon class="st0" points="73.8,308 73.8,283.8 145.3,243.1 145.3,266.7 "/>
<polygon class="st0" points="73.8,351.1 73.8,327.5 145.3,286.2 145.3,309.8 "/>
<polygon class="st0" points="73.8,394.2 73.8,370.6 145.3,329.3 145.3,352.9 "/>
<polygon class="st0" points="73.8,437.3 73.8,413.7 145.3,372.4 145.3,396.6 "/>
<polygon class="st0" points="73.8,481 73.8,456.8 145.3,416 145.3,439.6 "/>
<path class="st0" d="M155.9,90.2"/>
<polygon class="st0" points="73.8,131.5 145.3,90.2 145.3,89.6 105.2,89.6 73.8,108 "/>
<polyline class="st0" points="105.2,89.6 145.3,89.6 145.3,66.7 "/>
<path class="st0" d="M924.3,176.4c-60.2,0-109.2-49-109.2-109.2c0-0.6,0-1.2,0-1.2H709.5c0,0.6,0,1.2,0,1.2
	c0,118.6,96.2,214.3,214.3,214.3c0.6,0,1.2,0,1.2,0V176.4C925,176.4,925,176.4,924.3,176.4z"/>
<path class="st0" d="M697.1,284.5h-64.9c-4.7,0-8.3,3.5-8.3,8.3l0,0c0,4.7,3.5,8.3,8.3,8.3h25.4c7.1,0,10.6,8.8,5.9,13.6L624,354.1
	c-3,3-3,8.3,0,11.2l0,0c3,3,8.3,3,11.2,0l23-23c3-3,8.3-3,11.2,0l26,26c3,3,8.3,3,11.2,0l0,0c3-3,3-8.3,0-11.2l-26-26
	c-3-3-3-8.3,0-11.2l20.7-20.7C707.7,293.3,704.2,284.5,697.1,284.5z"/>
<g>
	<rect x="187.8" y="721.2" class="st0" width="189.4" height="5.9"/>
</g>
<g>
	<rect x="187.8" y="736.5" class="st0" width="142.3" height="5.9"/>
</g>
<g>
	<rect x="187.8" y="752.5" class="st0" width="47.2" height="5.9"/>
</g>
<g>
	<rect x="187.8" y="768.4" class="st0" width="95" height="5.9"/>
</g>
<g>
	<rect x="187.8" y="784.3" class="st0" width="189.4" height="5.9"/>
</g>
<g>
	<rect x="187.8" y="799.7" class="st0" width="95" height="5.9"/>
</g>
<g>
	<rect x="187.8" y="815.6" class="st0" width="47.2" height="5.9"/>
</g>
<g>
	<rect x="187.8" y="831.6" class="st0" width="142.3" height="5.9"/>
</g>
<g>
	<rect x="187.8" y="847.5" class="st0" width="189.4" height="5.9"/>
</g>
<g>
	<rect x="187.8" y="862.9" class="st0" width="95" height="5.9"/>
</g>
<g>
	<rect x="187.8" y="878.8" class="st0" width="47.2" height="5.9"/>
</g>
<g>
	<rect x="187.8" y="894.7" class="st0" width="142.3" height="5.9"/>
</g>
<g>
	<rect x="187.8" y="910.7" class="st0" width="189.4" height="5.9"/>
</g>
<g>
	<path class="st0" d="M688.9,541.8h-55.4c-6.5,0-11.8,5.3-11.8,11.8V609c0,6.5,5.3,11.8,11.8,11.8h8.3v69.7c0,5.3,4.1,8.8,8.8,8.8
		h21.2c5.3,0,8.8-4.1,8.8-8.8v-69.7h8.3c6.5,0,11.8-5.3,11.8-11.8v-55.4C700.1,547.1,694.8,541.8,688.9,541.8z"/>
	<circle class="st0" cx="661.1" cy="519.3" r="18.9"/>
</g>
<g>
	<rect x="511.2" y="478.6" class="st0" width="88.6" height="2.3"/>
</g>
<g>
	<rect x="511.2" y="461.5" class="st0" width="88.6" height="7.7"/>
</g>
<g>
	<rect x="511.2" y="449.7" class="st0" width="88.6" height="1.8"/>
</g>
<g>
	<rect x="511.2" y="427.8" class="st0" width="88.6" height="14.8"/>
</g>
<g>
	<rect x="511.2" y="419" class="st0" width="88.6" height="3.5"/>
</g>
<g>
	<rect x="511.2" y="401.3" class="st0" width="88.6" height="8.8"/>
</g>
<g>
	<rect x="511.2" y="388.3" class="st0" width="88.6" height="5.9"/>
</g>
<g>
	<rect x="511.2" y="367.1" class="st0" width="88.6" height="18.3"/>
</g>
<g>
	<rect x="511.2" y="360.6" class="st0" width="88.6" height="1.8"/>
</g>
<g>
	<rect x="511.2" y="342.9" class="st0" width="88.6" height="7.7"/>
</g>
<g>
	<rect x="511.2" y="326.3" class="st0" width="88.6" height="11.8"/>
</g>
<g>
	<rect x="511.2" y="311.5" class="st0" width="88.6" height="11.8"/>
</g>
<g>
	<rect x="511.2" y="301.5" class="st0" width="88.6" height="2.3"/>
</g>
<g>
	<rect x="511.2" y="284.5" class="st0" width="88.6" height="9.4"/>
</g>
<path class="st0" d="M350.7,174.6h53.1C403.2,115.6,356,68.4,297,67.8v53.1C325.9,120.9,350.1,145.1,350.7,174.6z"/>
<g>
	<path class="st0" d="M402.6,261.4c0,3.5-0.6,6.5-1.8,8.8c-1.2,3-3,5.3-5.3,7.1c-2.3,1.8-5.3,3.5-8.3,4.7c-3,1.2-7.1,1.8-10.6,1.8
		c-4.1,0-7.6-0.6-10.6-1.8c-3-1.2-5.9-2.3-8.3-4.7c-2.3-1.8-4.1-4.1-5.3-7.1c-1.2-3-1.8-5.9-1.8-8.8c0-3.5,0.6-6.5,1.8-9.5
		s3-5.3,5.3-7.1c2.3-1.8,5.3-3.5,8.3-4.7c3-1.2,7.1-1.8,10.6-1.8c4.1,0,7.7,0.6,10.6,1.8c3,1.2,5.9,2.3,8.3,4.7
		c2.3,1.8,4.1,4.1,5.3,7.1C402,254.9,402.6,258.4,402.6,261.4z M392.5,261.4c0-1.8-0.6-3-1.2-4.1c-0.6-1.2-1.8-2.3-3.5-3
		c-1.2-0.6-3-1.2-5.3-1.8c-1.8-0.6-4.1-0.6-6.5-0.6c-2.3,0-4.7,0-6.5,0.6c-1.8,0.6-3.5,1.2-5.3,1.8c-1.2,0.6-2.3,1.8-3.5,3
		c-0.6,1.2-1.2,2.3-1.2,4.1c0,1.8,0.6,3,1.2,4.1c0.6,1.2,1.8,2.3,3.5,3c1.2,0.6,3,1.2,5.3,1.8c1.8,0.6,4.1,0.6,6.5,0.6
		c2.3,0,4.7,0,6.5-0.6c1.8-0.6,3.5-1.2,5.3-1.8c1.2-0.6,2.3-1.8,3.5-3C392.5,264.4,392.5,263.2,392.5,261.4z"/>
	<path class="st0" d="M402.6,216c0,3-0.6,5.3-1.2,8.3c-0.6,2.3-1.8,4.7-3,6.5s-3,3.5-5.3,4.7c-1.8,1.2-4.1,1.8-7.1,2.3v-12.4
		c2.3-0.6,3.5-1.2,4.7-3s1.8-3.5,1.8-5.9c0-2.4-0.6-4.7-2.3-5.9c-1.8-1.2-3.5-2.3-6.5-2.3c-2.3,0-4.7,0.6-5.9,2.3
		c-1.2,1.8-2.3,3.5-2.3,5.9c0,1.8,0.6,3,1.2,4.1c0.6,1.2,1.2,2.3,2.3,3v11.9l-27.7-5.3v-31.3h10v22.4l8.8,1.8l0,0
		c-0.6-1.2-1.8-2.3-2.3-4.1c-0.6-1.8-0.6-3.5-0.6-5.9c0-2.3,0.6-4.7,1.2-6.5c0.6-2.3,1.8-4.1,3.5-5.3c1.8-1.8,3.5-3,5.3-3.5
		c2.3-1.2,4.7-1.2,7.1-1.2c3,0,5.3,0.6,7.6,1.2c2.3,1.2,4.1,2.3,5.9,4.1c1.8,1.8,3,4.1,3.5,6.5C402,210,402.6,213,402.6,216z"/>
</g>
<path class="st0" d="M184.8,504v88.6h87.9V504H184.8z M252.1,556.5h-14.8v16.6h-17.7v-16.6h-14.8V540h14.8v-16.6h17.7V540h14.8
	V556.5z"/>
<polygon class="st0" points="395.5,643.3 392.5,643.3 346.5,643.3 346.5,652.1 386.1,652.1 349.5,689.4 184.8,689.4 184.8,698.7 
	353,698.7 392.5,659.2 392.5,698.7 402,698.7 402,652.1 402,649.8 402,643.3 "/>
<circle class="st0" cx="514.1" cy="722.9" r="3"/>
<circle class="st0" cx="514.1" cy="741.8" r="3"/>
<circle class="st0" cx="523.6" cy="722.9" r="3"/>
<circle class="st0" cx="523.6" cy="741.8" r="3"/>
<circle class="st0" cx="523.6" cy="751.3" r="3"/>
<circle class="st0" cx="533" cy="722.9" r="3"/>
<circle class="st0" cx="533" cy="732.4" r="3"/>
<circle class="st0" cx="533" cy="741.8" r="3"/>
<circle class="st0" cx="542.5" cy="732.4" r="3"/>
<circle class="st0" cx="562.5" cy="732.4" r="3"/>
<circle class="st0" cx="562.5" cy="751.3" r="3"/>
<circle class="st0" cx="572" cy="722.9" r="3"/>
<circle class="st0" cx="572" cy="732.4" r="3"/>
<circle class="st0" cx="572" cy="741.8" r="3"/>
<circle class="st0" cx="581.5" cy="741.8" r="3"/>
<circle class="st0" cx="581.5" cy="751.3" r="3"/>
<circle class="st0" cx="590.9" cy="722.9" r="3"/>
<circle class="st0" cx="590.9" cy="732.4" r="3"/>
<circle class="st0" cx="590.9" cy="751.3" r="3"/>
<circle class="st0" cx="600.3" cy="722.9" r="3"/>
<circle class="st0" cx="600.3" cy="732.4" r="3"/>
<circle class="st0" cx="600.3" cy="741.8" r="3"/>
<circle class="st0" cx="648.1" cy="722.9" r="3"/>
<circle class="st0" cx="648.1" cy="741.8" r="3"/>
<circle class="st0" cx="638.7" cy="722.9" r="3"/>
<circle class="st0" cx="638.7" cy="741.8" r="3"/>
<circle class="st0" cx="638.7" cy="751.3" r="3"/>
<circle class="st0" cx="629.2" cy="722.9" r="3"/>
<circle class="st0" cx="629.2" cy="732.4" r="3"/>
<circle class="st0" cx="629.2" cy="741.8" r="3"/>
<circle class="st0" cx="619.8" cy="732.4" r="3"/>
<circle class="st0" cx="667" cy="732.4" r="3"/>
<circle class="st0" cx="667" cy="751.3" r="3"/>
<circle class="st0" cx="676.5" cy="722.9" r="3"/>
<circle class="st0" cx="676.5" cy="732.4" r="3"/>
<circle class="st0" cx="676.5" cy="741.8" r="3"/>
<circle class="st0" cx="685.9" cy="741.8" r="3"/>
<circle class="st0" cx="685.9" cy="751.3" r="3"/>
<circle class="st0" cx="695.4" cy="722.9" r="3"/>
<circle class="st0" cx="695.4" cy="732.4" r="3"/>
<circle class="st0" cx="695.4" cy="751.3" r="3"/>
<circle class="st0" cx="704.8" cy="722.9" r="3"/>
<circle class="st0" cx="704.8" cy="732.4" r="3"/>
<circle class="st0" cx="704.8" cy="741.8" r="3"/>
<circle class="st0" cx="704.8" cy="797.9" r="3"/>
<circle class="st0" cx="704.8" cy="779" r="3"/>
<circle class="st0" cx="695.4" cy="797.9" r="3"/>
<circle class="st0" cx="695.4" cy="779" r="3"/>
<circle class="st0" cx="695.4" cy="769.5" r="3"/>
<circle class="st0" cx="685.9" cy="797.9" r="3"/>
<circle class="st0" cx="685.9" cy="788.5" r="3"/>
<circle class="st0" cx="685.9" cy="779" r="3"/>
<circle class="st0" cx="676.5" cy="788.5" r="3"/>
<circle class="st0" cx="656.4" cy="788.5" r="3"/>
<circle class="st0" cx="656.4" cy="769.5" r="3"/>
<circle class="st0" cx="647" cy="797.9" r="3"/>
<circle class="st0" cx="647" cy="788.5" r="3"/>
<circle class="st0" cx="647" cy="779" r="3"/>
<circle class="st0" cx="637.5" cy="779" r="3"/>
<circle class="st0" cx="637.5" cy="769.5" r="3"/>
<circle class="st0" cx="628.1" cy="797.9" r="3"/>
<circle class="st0" cx="628.1" cy="788.5" r="3"/>
<circle class="st0" cx="628.1" cy="769.5" r="3"/>
<circle class="st0" cx="618.6" cy="797.9" r="3"/>
<circle class="st0" cx="618.6" cy="788.5" r="3"/>
<circle class="st0" cx="618.6" cy="779" r="3"/>
<circle class="st0" cx="570.8" cy="797.9" r="3"/>
<circle class="st0" cx="570.8" cy="779" r="3"/>
<circle class="st0" cx="580.3" cy="797.9" r="3"/>
<circle class="st0" cx="580.3" cy="779" r="3"/>
<circle class="st0" cx="580.3" cy="769.5" r="3"/>
<circle class="st0" cx="589.7" cy="797.9" r="3"/>
<circle class="st0" cx="589.7" cy="788.5" r="3"/>
<circle class="st0" cx="589.7" cy="779" r="3"/>
<circle class="st0" cx="599.2" cy="788.5" r="3"/>
<circle class="st0" cx="551.9" cy="788.5" r="3"/>
<circle class="st0" cx="551.9" cy="769.5" r="3"/>
<circle class="st0" cx="542.5" cy="797.9" r="3"/>
<circle class="st0" cx="542.5" cy="788.5" r="3"/>
<circle class="st0" cx="542.5" cy="779" r="3"/>
<circle class="st0" cx="533" cy="779" r="3"/>
<circle class="st0" cx="533" cy="769.5" r="3"/>
<circle class="st0" cx="523.6" cy="797.9" r="3"/>
<circle class="st0" cx="523.6" cy="788.5" r="3"/>
<circle class="st0" cx="523.6" cy="769.5" r="3"/>
<circle class="st0" cx="514.1" cy="797.9" r="3"/>
<circle class="st0" cx="514.1" cy="788.5" r="3"/>
<circle class="st0" cx="514.1" cy="779" r="3"/>
<text transform="matrix(-6.123234e-17 -1 1 -6.123234e-17 752.5146 371.2197)" class="st0 st1 st2">5Con™</text>
<text transform="matrix(1 0 0 1 736.1768 914.7227)" class="st0 st3 st4">1</text>
<text transform="matrix(1 0 0 1 766.2783 914.7227)" class="st0 st3 st4">9</text>
</svg>
