<?xml version="1.0" encoding="utf-8"?>
<!-- Generator: Adobe Illustrator 23.0.0, SVG Export Plug-In . SVG Version: 6.00 Build 0)  -->
<svg version="1.1" id="Layer_1" xmlns="http://www.w3.org/2000/svg" xmlns:xlink="http://www.w3.org/1999/xlink" x="0px" y="0px"
	 viewBox="0 0 1000 1000" style="enable-background:new 0 0 1000 1000;" xml:space="preserve">
<style type="text/css">
	.st0{fill:#FFFFFF;}
</style>
<g>
	<circle class="st0" cx="38.3" cy="780.9" r="9.2"/>
	<circle class="st0" cx="63.9" cy="780.9" r="9.2"/>
	<circle class="st0" cx="90.1" cy="780.9" r="9.2"/>
	<circle class="st0" cx="38.3" cy="807.1" r="9.2"/>
	<circle class="st0" cx="90.1" cy="807.1" r="9.2"/>
	<circle class="st0" cx="38.3" cy="833.3" r="9.2"/>
	<circle class="st0" cx="63.9" cy="833.3" r="9.2"/>
	<circle class="st0" cx="90.1" cy="833.3" r="9.2"/>
	<circle class="st0" cx="38.3" cy="876" r="9.2"/>
	<circle class="st0" cx="63.9" cy="876" r="9.2"/>
	<circle class="st0" cx="90.1" cy="876" r="9.2"/>
	<circle class="st0" cx="38.3" cy="902.2" r="9.2"/>
	<circle class="st0" cx="90.1" cy="902.2" r="9.2"/>
	<circle class="st0" cx="38.3" cy="928.4" r="9.2"/>
	<circle class="st0" cx="90.1" cy="928.4" r="9.2"/>
	<circle class="st0" cx="116.3" cy="780.9" r="9.2"/>
	<circle class="st0" cx="116.3" cy="833.3" r="9.2"/>
	<circle class="st0" cx="116.3" cy="902.2" r="9.2"/>
	<circle class="st0" cx="116.3" cy="928.4" r="9.2"/>
	<circle class="st0" cx="38.3" cy="954.7" r="9.2"/>
	<circle class="st0" cx="63.9" cy="954.7" r="9.2"/>
	<circle class="st0" cx="116.3" cy="954.7" r="9.2"/>
	<circle class="st0" cx="63.9" cy="754.6" r="9.2"/>
	<circle class="st0" cx="116.3" cy="754.6" r="9.2"/>
</g>
</svg>
