<?xml version="1.0" encoding="utf-8"?>
<!-- Generator: Adobe Illustrator 23.0.0, SVG Export Plug-In . SVG Version: 6.00 Build 0)  -->
<svg version="1.1" id="Layer_1" xmlns="http://www.w3.org/2000/svg" xmlns:xlink="http://www.w3.org/1999/xlink" x="0px" y="0px"
	 viewBox="0 0 1000 1000" style="enable-background:new 0 0 1000 1000;" xml:space="preserve">
<style type="text/css">
	.st0{fill:#FFFFFF;}
</style>
<path class="st0" d="M719,261.5h-72.1c-5.2,0-9.2,3.9-9.2,9.2l0,0c0,5.2,3.9,9.2,9.2,9.2h28.2c7.9,0,11.8,9.8,6.6,15.1l-43.9,43.9
	c-3.3,3.3-3.3,9.2,0,12.5l0,0c3.3,3.3,9.2,3.3,12.5,0l25.6-25.6c3.3-3.3,9.2-3.3,12.5,0l28.9,28.9c3.3,3.3,9.2,3.3,12.5,0l0,0
	c3.3-3.3,3.3-9.2,0-12.5l-28.9-28.9c-3.3-3.3-3.3-9.2,0-12.5l23-23C730.8,271.3,726.9,261.5,719,261.5z"/>
</svg>
