<?xml version="1.0" encoding="utf-8"?>
<!-- Generator: Adobe Illustrator 23.0.0, SVG Export Plug-In . SVG Version: 6.00 Build 0)  -->
<svg version="1.1" id="Layer_1" xmlns="http://www.w3.org/2000/svg" xmlns:xlink="http://www.w3.org/1999/xlink" x="0px" y="0px"
	 viewBox="0 0 1000 1000" style="enable-background:new 0 0 1000 1000;" xml:space="preserve">
<style type="text/css">
	.st0{fill:#FFFFFF;}
</style>
<path class="st0" d="M170.1,304.7h54.4c11.8,0,21.6-9.8,21.6-21.6l0,0c0-11.8-9.8-21.6-21.6-21.6h-53.8c-11.8,0-21.6,9.8-21.6,21.6
	l0,0C148.5,294.9,158.3,304.7,170.1,304.7z M170.1,272c5.9,0,11.1,4.6,11.1,11.1c0,5.9-4.6,11.1-11.1,11.1
	c-5.9,0-11.1-4.6-11.1-11.1C159.6,277.2,164.2,272,170.1,272z"/>
</svg>
