<?xml version="1.0" encoding="utf-8"?>
<!-- Generator: Adobe Illustrator 23.0.0, SVG Export Plug-In . SVG Version: 6.00 Build 0)  -->
<svg version="1.1" id="Layer_1" xmlns="http://www.w3.org/2000/svg" xmlns:xlink="http://www.w3.org/1999/xlink" x="0px" y="0px"
	 viewBox="0 0 1000 1000" style="enable-background:new 0 0 1000 1000;" xml:space="preserve">
<style type="text/css">
	.st0{fill:#FFFFFF;}
</style>
<path class="st0" d="M224.6,313.9h-53.8c-11.8,0-21.6,9.8-21.6,21.6l0,0c0,11.8,9.8,21.6,21.6,21.6h53.8c11.8,0,21.6-9.8,21.6-21.6
	l0,0C246.2,323.8,236.4,313.9,224.6,313.9z M224.6,346.7c-5.9,0-11.1-4.6-11.1-11.1c0-5.9,4.6-11.1,11.1-11.1
	c6.6,0,11.1,4.6,11.1,11.1C235.1,342.1,230.5,346.7,224.6,346.7z"/>
</svg>
