<?xml version="1.0" encoding="utf-8"?>
<!-- Generator: Adobe Illustrator 23.0.0, SVG Export Plug-In . SVG Version: 6.00 Build 0)  -->
<svg version="1.1" id="Layer_1" xmlns="http://www.w3.org/2000/svg" xmlns:xlink="http://www.w3.org/1999/xlink" x="0px" y="0px"
	 viewBox="0 0 1000 1000" style="enable-background:new 0 0 1000 1000;" xml:space="preserve">
<style type="text/css">
	.st0{fill:#FFFFFF;}
</style>
<g>
	<path class="st0" d="M391.8,235.9c0,3.9-0.7,7.2-2,9.8c-1.3,3.3-3.3,5.9-5.9,7.9c-2.6,2-5.9,3.9-9.2,5.2c-3.3,1.3-7.9,2-11.8,2
		c-4.6,0-8.5-0.7-11.8-2c-3.3-1.3-6.6-2.6-9.2-5.2c-2.6-2-4.6-4.6-5.9-7.9c-1.3-3.3-2-6.6-2-9.8c0-3.9,0.7-7.2,2-10.5
		c1.3-3.3,3.3-5.9,5.9-7.9c2.6-2,5.9-3.9,9.2-5.2c3.3-1.3,7.9-2,11.8-2c4.6,0,8.5,0.7,11.8,2c3.3,1.3,6.6,2.6,9.2,5.2
		c2.6,2,4.6,4.6,5.9,7.9C391.1,228.7,391.8,232.6,391.8,235.9z M380.6,235.9c0-2-0.7-3.3-1.3-4.6c-0.7-1.3-2-2.6-3.9-3.3
		c-1.3-0.7-3.3-1.3-5.9-2c-2-0.7-4.6-0.7-7.2-0.7c-2.6,0-5.2,0-7.2,0.7c-2,0.7-3.9,1.3-5.9,2c-1.3,0.7-2.6,2-3.9,3.3
		c-0.7,1.3-1.3,2.6-1.3,4.6c0,2,0.7,3.3,1.3,4.6c0.7,1.3,2,2.6,3.9,3.3c1.3,0.7,3.3,1.3,5.9,2c2,0.7,4.6,0.7,7.2,0.7
		c2.6,0,5.2,0,7.2-0.7c2-0.7,3.9-1.3,5.9-2c1.3-0.7,2.6-2,3.9-3.3S380.6,237.9,380.6,235.9z"/>
	<path class="st0" d="M391.8,185.4c0,3.3-0.7,5.9-1.3,9.2c-0.7,2.6-2,5.2-3.3,7.2c-1.3,2-3.3,3.9-5.9,5.2c-2,1.3-4.6,2-7.9,2.6
		v-13.8c2.6-0.7,3.9-1.3,5.2-3.3c1.3-2,2-3.9,2-6.6s-0.7-5.2-2.6-6.6c-2-1.3-3.9-2.6-7.2-2.6c-2.6,0-5.2,0.7-6.6,2.6
		c-1.3,2-2.6,3.9-2.6,6.6c0,2,0.7,3.3,1.3,4.6c0.7,1.3,1.3,2.6,2.6,3.3V207l-30.8-5.9v-34.8h11.1v24.9l9.8,2l0,0
		c-0.7-1.3-2-2.6-2.6-4.6c-0.7-2-0.7-3.9-0.7-6.6c0-2.6,0.7-5.2,1.3-7.2c0.7-2.6,2-4.6,3.9-5.9c2-2,3.9-3.3,5.9-3.9
		c2.6-1.3,5.2-1.3,7.9-1.3c3.3,0,5.9,0.7,8.5,1.3c2.6,1.3,4.6,2.6,6.6,4.6c2,2,3.3,4.6,3.9,7.2C391.1,178.8,391.8,182.1,391.8,185.4
		z"/>
</g>
</svg>
