<?xml version="1.0" encoding="utf-8"?>
<!-- Generator: Adobe Illustrator 23.0.0, SVG Export Plug-In . SVG Version: 6.00 Build 0)  -->
<svg version="1.1" id="Layer_1" xmlns="http://www.w3.org/2000/svg" xmlns:xlink="http://www.w3.org/1999/xlink" x="0px" y="0px"
	 viewBox="0 0 1000 1000" style="enable-background:new 0 0 1000 1000;" xml:space="preserve">
<style type="text/css">
	.st0{fill:#FFFFFF;}
</style>
<g>
	<circle class="st0" cx="515.7" cy="748.7" r="3.3"/>
	<circle class="st0" cx="515.7" cy="769.7" r="3.3"/>
	<circle class="st0" cx="526.2" cy="748.7" r="3.3"/>
	<circle class="st0" cx="526.2" cy="769.7" r="3.3"/>
	<circle class="st0" cx="526.2" cy="780.2" r="3.3"/>
	<circle class="st0" cx="536.7" cy="748.7" r="3.3"/>
	<circle class="st0" cx="536.7" cy="759.2" r="3.3"/>
	<circle class="st0" cx="536.7" cy="769.7" r="3.3"/>
	<circle class="st0" cx="547.2" cy="759.2" r="3.3"/>
	<circle class="st0" cx="569.5" cy="759.2" r="3.3"/>
	<circle class="st0" cx="569.5" cy="780.2" r="3.3"/>
	<circle class="st0" cx="580" cy="748.7" r="3.3"/>
	<circle class="st0" cx="580" cy="759.2" r="3.3"/>
	<circle class="st0" cx="580" cy="769.7" r="3.3"/>
	<circle class="st0" cx="590.5" cy="769.7" r="3.3"/>
	<circle class="st0" cx="590.5" cy="780.2" r="3.3"/>
	<circle class="st0" cx="601" cy="748.7" r="3.3"/>
	<circle class="st0" cx="601" cy="759.2" r="3.3"/>
	<circle class="st0" cx="601" cy="780.2" r="3.3"/>
	<circle class="st0" cx="611.5" cy="748.7" r="3.3"/>
	<circle class="st0" cx="611.5" cy="759.2" r="3.3"/>
	<circle class="st0" cx="611.5" cy="769.7" r="3.3"/>
	<circle class="st0" cx="664.6" cy="748.7" r="3.3"/>
	<circle class="st0" cx="664.6" cy="769.7" r="3.3"/>
	<circle class="st0" cx="654.1" cy="748.7" r="3.3"/>
	<circle class="st0" cx="654.1" cy="769.7" r="3.3"/>
	<circle class="st0" cx="654.1" cy="780.2" r="3.3"/>
	<circle class="st0" cx="643.6" cy="748.7" r="3.3"/>
	<circle class="st0" cx="643.6" cy="759.2" r="3.3"/>
	<circle class="st0" cx="643.6" cy="769.7" r="3.3"/>
	<circle class="st0" cx="633.1" cy="759.2" r="3.3"/>
	<circle class="st0" cx="685.6" cy="759.2" r="3.3"/>
	<circle class="st0" cx="685.6" cy="780.2" r="3.3"/>
	<circle class="st0" cx="696.1" cy="748.7" r="3.3"/>
	<circle class="st0" cx="696.1" cy="759.2" r="3.3"/>
	<circle class="st0" cx="696.1" cy="769.7" r="3.3"/>
	<circle class="st0" cx="706.6" cy="769.7" r="3.3"/>
	<circle class="st0" cx="706.6" cy="780.2" r="3.3"/>
	<circle class="st0" cx="717.1" cy="748.7" r="3.3"/>
	<circle class="st0" cx="717.1" cy="759.2" r="3.3"/>
	<circle class="st0" cx="717.1" cy="780.2" r="3.3"/>
	<circle class="st0" cx="727.6" cy="748.7" r="3.3"/>
	<circle class="st0" cx="727.6" cy="759.2" r="3.3"/>
	<circle class="st0" cx="727.6" cy="769.7" r="3.3"/>
</g>
</svg>
