<?xml version="1.0" encoding="utf-8"?>
<!-- Generator: Adobe Illustrator 23.0.0, SVG Export Plug-In . SVG Version: 6.00 Build 0)  -->
<svg version="1.1" id="Layer_1" xmlns="http://www.w3.org/2000/svg" xmlns:xlink="http://www.w3.org/1999/xlink" x="0px" y="0px"
	 viewBox="0 0 1000 1000" style="enable-background:new 0 0 1000 1000;" xml:space="preserve">
<style type="text/css">
	.st0{fill:#FFFFFF;}
</style>
<g>
	<circle class="st0" cx="727.6" cy="832" r="3.3"/>
	<circle class="st0" cx="727.6" cy="811" r="3.3"/>
	<circle class="st0" cx="717.1" cy="832" r="3.3"/>
	<circle class="st0" cx="717.1" cy="811" r="3.3"/>
	<circle class="st0" cx="717.1" cy="800.5" r="3.3"/>
	<circle class="st0" cx="706.6" cy="832" r="3.3"/>
	<circle class="st0" cx="706.6" cy="821.5" r="3.3"/>
	<circle class="st0" cx="706.6" cy="811" r="3.3"/>
	<circle class="st0" cx="696.1" cy="821.5" r="3.3"/>
	<circle class="st0" cx="673.8" cy="821.5" r="3.3"/>
	<circle class="st0" cx="673.8" cy="800.5" r="3.3"/>
	<circle class="st0" cx="663.3" cy="832" r="3.3"/>
	<circle class="st0" cx="663.3" cy="821.5" r="3.3"/>
	<circle class="st0" cx="663.3" cy="811" r="3.3"/>
	<circle class="st0" cx="652.8" cy="811" r="3.3"/>
	<circle class="st0" cx="652.8" cy="800.5" r="3.3"/>
	<circle class="st0" cx="642.3" cy="832" r="3.3"/>
	<circle class="st0" cx="642.3" cy="821.5" r="3.3"/>
	<circle class="st0" cx="642.3" cy="800.5" r="3.3"/>
	<circle class="st0" cx="631.8" cy="832" r="3.3"/>
	<circle class="st0" cx="631.8" cy="821.5" r="3.3"/>
	<circle class="st0" cx="631.8" cy="811" r="3.3"/>
	<circle class="st0" cx="578.7" cy="832" r="3.3"/>
	<circle class="st0" cx="578.7" cy="811" r="3.3"/>
	<circle class="st0" cx="589.2" cy="832" r="3.3"/>
	<circle class="st0" cx="589.2" cy="811" r="3.3"/>
	<circle class="st0" cx="589.2" cy="800.5" r="3.3"/>
	<circle class="st0" cx="599.7" cy="832" r="3.3"/>
	<circle class="st0" cx="599.7" cy="821.5" r="3.3"/>
	<circle class="st0" cx="599.7" cy="811" r="3.3"/>
	<circle class="st0" cx="610.2" cy="821.5" r="3.3"/>
	<circle class="st0" cx="557.7" cy="821.5" r="3.3"/>
	<circle class="st0" cx="557.7" cy="800.5" r="3.3"/>
	<circle class="st0" cx="547.2" cy="832" r="3.3"/>
	<circle class="st0" cx="547.2" cy="821.5" r="3.3"/>
	<circle class="st0" cx="547.2" cy="811" r="3.3"/>
	<circle class="st0" cx="536.7" cy="811" r="3.3"/>
	<circle class="st0" cx="536.7" cy="800.5" r="3.3"/>
	<circle class="st0" cx="526.2" cy="832" r="3.3"/>
	<circle class="st0" cx="526.2" cy="821.5" r="3.3"/>
	<circle class="st0" cx="526.2" cy="800.5" r="3.3"/>
	<circle class="st0" cx="515.7" cy="832" r="3.3"/>
	<circle class="st0" cx="515.7" cy="821.5" r="3.3"/>
	<circle class="st0" cx="515.7" cy="811" r="3.3"/>
</g>
</svg>
