<?xml version="1.0" encoding="utf-8"?>
<!-- Generator: Adobe Illustrator 23.0.0, SVG Export Plug-In . SVG Version: 6.00 Build 0)  -->
<svg version="1.1" id="Layer_1" xmlns="http://www.w3.org/2000/svg" xmlns:xlink="http://www.w3.org/1999/xlink" x="0px" y="0px"
	 viewBox="0 0 1000 1000" style="enable-background:new 0 0 1000 1000;" xml:space="preserve">
<style type="text/css">
	.st0{fill:#FFFFFF;}
</style>
<g>
	<polygon class="st0" points="26.5,139.5 26.5,113.2 105.9,67.3 105.9,93.6 	"/>
	<polygon class="st0" points="26.5,187.4 26.5,161.1 105.9,115.2 105.9,142.1 	"/>
	<polygon class="st0" points="26.5,239.2 26.5,212.9 105.9,167 105.9,193.9 	"/>
	<polygon class="st0" points="26.5,287.7 26.5,260.8 105.9,215.6 105.9,241.8 	"/>
	<polygon class="st0" points="26.5,335.6 26.5,309.3 105.9,263.4 105.9,289.7 	"/>
	<polygon class="st0" points="26.5,383.4 26.5,357.2 105.9,311.3 105.9,337.5 	"/>
	<polygon class="st0" points="26.5,431.3 26.5,405.1 105.9,359.2 105.9,386.1 	"/>
	<polygon class="st0" points="26.5,479.9 26.5,453 105.9,407.7 105.9,433.9 	"/>
	<path class="st0" d="M117.7,45.7"/>
	<polygon class="st0" points="26.5,91.6 105.9,45.7 105.9,45 61.3,45 26.5,65.4 	"/>
	<polyline class="st0" points="61.3,45 105.9,45 105.9,19.5 	"/>
</g>
</svg>
