<?xml version="1.0" encoding="utf-8"?>
<!-- Generator: Adobe Illustrator 23.0.0, SVG Export Plug-In . SVG Version: 6.00 Build 0)  -->
<svg version="1.1" id="Layer_1" xmlns="http://www.w3.org/2000/svg" xmlns:xlink="http://www.w3.org/1999/xlink" x="0px" y="0px"
	 viewBox="0 0 1920 1080" style="enable-background:new 0 0 1920 1080;" xml:space="preserve">
<style type="text/css">
	.st0{fill:#FFFFFF;}
	.st1{font-family:'NHaasGroteskDSPro-55Rg';}
	.st2{font-size:60px;}
	.st3{letter-spacing:-1;}
	.st4{font-family:'NHaasGroteskDSPro-65Md';}
	.st5{font-size:48px;}
	.st6{fill:none;stroke:#FFFFFF;stroke-miterlimit:10;}
	.st7{fill:none;stroke:#FFFFFF;stroke-width:4;stroke-miterlimit:10;}
	.st8{fill:none;stroke:#FFFFFF;stroke-width:5;stroke-miterlimit:10;}
	.st9{fill:none;stroke:#FFFFFF;stroke-width:10;stroke-miterlimit:10;}
	.st10{fill:none;stroke:#FFFFFF;stroke-width:20;stroke-miterlimit:10;}
	.st11{fill:none;stroke:#FFFFFF;stroke-width:0.5;stroke-miterlimit:10;}
	.st12{fill:none;stroke:#FFFFFF;stroke-width:8;stroke-miterlimit:10;}
	.st13{fill:none;stroke:#FFFFFF;stroke-width:3;stroke-miterlimit:10;}
	.st14{fill:none;stroke:#FFFFFF;stroke-width:2;stroke-miterlimit:10;}
	.st15{fill:none;stroke:#FFFFFF;stroke-width:6;stroke-miterlimit:10;}
	.st16{fill:none;stroke:#FFFFFF;stroke-width:0.75;stroke-miterlimit:10;}
	.st17{fill:none;stroke:#FFFFFF;stroke-width:40;stroke-miterlimit:10;}
	.st18{font-size:25.151px;}
	.st19{fill:none;}
	.st20{font-family:'PTMono-Regular';}
	.st21{font-size:12px;}
	.st22{font-size:54.435px;}
</style>
<rect width="1920" height="1080"/>
<text transform="matrix(1 0 0 1 658.603 525.2678)" class="st0 st1 st2 st3">RISC-V and FPGAs: </text>
<text transform="matrix(1 0 0 1 658.603 585.2678)" class="st0 st1 st2 st3">Open Source Hardware Hacking</text>
<text transform="matrix(1 0 0 1 658.603 645.2678)" class="st0 st4 st2 st3">Megan Wachs</text>
<text transform="matrix(0 -1 1 0 1860 1020.501)" class="st0 st4 st5">5Con™</text>
<rect x="1260.5" y="900.5" class="st0" width="4" height="60"/>
<rect x="1280.5" y="900.5" class="st0" width="4" height="60"/>
<rect x="1300.5" y="900.5" class="st0" width="4" height="60"/>
<rect x="1320.5" y="900.5" class="st0" width="4" height="60"/>
<rect x="1340.5" y="900.5" class="st0" width="4" height="60"/>
<rect x="1360.5" y="900.5" class="st0" width="4" height="60"/>
<rect x="1380.5" y="900.5" class="st0" width="4" height="60"/>
<rect x="1400.5" y="900.5" class="st0" width="4" height="60"/>
<rect x="1420.5" y="900.5" class="st0" width="4" height="60"/>
<rect x="1440.5" y="900.5" class="st0" width="4" height="60"/>
<rect x="1460.5" y="900.5" class="st0" width="4" height="60"/>
<rect x="1480.5" y="900.5" class="st0" width="4" height="60"/>
<rect x="1500.5" y="900.5" class="st0" width="4" height="60"/>
<rect x="1261.7" y="960.5" class="st0" width="1.5" height="60"/>
<rect x="1281.7" y="960.5" class="st0" width="1.5" height="60"/>
<rect x="1301.7" y="960.5" class="st0" width="1.5" height="60"/>
<rect x="1321.7" y="960.5" class="st0" width="1.5" height="60"/>
<rect x="1341.7" y="960.5" class="st0" width="1.5" height="60"/>
<rect x="1361.7" y="960.5" class="st0" width="1.5" height="60"/>
<rect x="1381.7" y="960.5" class="st0" width="1.5" height="60"/>
<rect x="1401.7" y="960.5" class="st0" width="1.5" height="60"/>
<rect x="1421.7" y="960.5" class="st0" width="1.5" height="60"/>
<rect x="1441.7" y="960.5" class="st0" width="1.5" height="60"/>
<rect x="1461.7" y="960.5" class="st0" width="1.5" height="60"/>
<rect x="1481.7" y="960.5" class="st0" width="1.5" height="60"/>
<rect x="1501.7" y="960.5" class="st0" width="1.5" height="60"/>
<polygon class="st0" points="553,480.1 568,480.1 598.2,510.2 567.9,540.5 553,540.5 583.4,510 "/>
<polygon class="st0" points="522.8,480.1 537.9,480.1 568,510.2 537.8,540.5 522.8,540.5 553.3,510 "/>
<circle class="st0" cx="297.5" cy="62.5" r="1.5"/>
<circle class="st0" cx="292.5" cy="62.5" r="1.5"/>
<circle class="st0" cx="297.5" cy="67.5" r="1.5"/>
<circle class="st0" cx="292.5" cy="67.5" r="1.5"/>
<circle class="st0" cx="297.5" cy="72.5" r="1.5"/>
<circle class="st0" cx="292.5" cy="72.5" r="1.5"/>
<circle class="st0" cx="297.5" cy="77.5" r="1.5"/>
<circle class="st0" cx="297.5" cy="82.5" r="1.5"/>
<circle class="st0" cx="292.5" cy="82.5" r="1.5"/>
<circle class="st0" cx="292.5" cy="87.5" r="1.5"/>
<circle class="st0" cx="297.5" cy="92.5" r="1.5"/>
<circle class="st0" cx="297.5" cy="97.5" r="1.5"/>
<circle class="st0" cx="292.5" cy="97.5" r="1.5"/>
<circle class="st0" cx="292.5" cy="102.5" r="1.5"/>
<circle class="st0" cx="297.5" cy="107.5" r="1.5"/>
<circle class="st0" cx="292.5" cy="107.5" r="1.5"/>
<circle class="st0" cx="297.5" cy="112.5" r="1.5"/>
<circle class="st0" cx="292.5" cy="112.5" r="1.5"/>
<circle class="st0" cx="297.5" cy="117.5" r="1.5"/>
<circle class="st0" cx="292.5" cy="117.5" r="1.5"/>
<line class="st6" x1="301" y1="181" x2="301" y2="241"/>
<line class="st7" x1="299" y1="241" x2="299" y2="301"/>
<line class="st6" x1="1260.5" y1="726.5" x2="1320.5" y2="726.5"/>
<line class="st8" x1="1320.5" y1="726.5" x2="1380.5" y2="726.5"/>
<line class="st9" x1="1384.5" y1="726.5" x2="1444.5" y2="726.5"/>
<line class="st10" x1="1446.5" y1="726.5" x2="1506.5" y2="726.5"/>
<polyline class="st11" points="1469.5,705.5 1439,675 1380.5,675 "/>
<circle class="st0" cx="1370.5" cy="677.5" r="1.5"/>
<circle class="st0" cx="1370.5" cy="672.5" r="1.5"/>
<circle class="st0" cx="1365.5" cy="677.5" r="1.5"/>
<circle class="st0" cx="1365.5" cy="672.5" r="1.5"/>
<circle class="st0" cx="1360.5" cy="677.5" r="1.5"/>
<circle class="st0" cx="1360.5" cy="672.5" r="1.5"/>
<circle class="st0" cx="1355.5" cy="677.5" r="1.5"/>
<circle class="st0" cx="1350.5" cy="677.5" r="1.5"/>
<circle class="st0" cx="1350.5" cy="672.5" r="1.5"/>
<circle class="st0" cx="1345.5" cy="672.5" r="1.5"/>
<circle class="st0" cx="1340.5" cy="677.5" r="1.5"/>
<circle class="st0" cx="1335.5" cy="677.5" r="1.5"/>
<circle class="st0" cx="1335.5" cy="672.5" r="1.5"/>
<circle class="st0" cx="1330.5" cy="672.5" r="1.5"/>
<circle class="st0" cx="1325.5" cy="677.5" r="1.5"/>
<circle class="st0" cx="1325.5" cy="672.5" r="1.5"/>
<circle class="st6" cx="721.7" cy="839.2" r="60.2"/>
<circle class="st0" cx="877.8" cy="840.5" r="37.4"/>
<path class="st0" d="M119.1,127H62c-0.5,0-1-0.4-1-1l0,0c0-0.5,0.4-1,1-1h57.2c0.5,0,1,0.4,1,1l0,0C120.1,126.5,119.7,127,119.1,127
	z"/>
<path class="st0" d="M89.8,130.4H62c-0.5,0-1-0.4-1-1l0,0c0-0.5,0.4-1,1-1h27.8c0.5,0,1,0.4,1,1l0,0
	C90.8,129.9,90.4,130.4,89.8,130.4z"/>
<path class="st0" d="M148.5,136.7H91.3c-0.5,0-1-0.4-1-1l0,0c0-0.5,0.4-1,1-1h57.2c0.5,0,1,0.4,1,1l0,0
	C149.4,136.3,149,136.7,148.5,136.7z"/>
<path class="st0" d="M119.1,140.1H91.3c-0.5,0-1-0.4-1-1l0,0c0-0.5,0.4-1,1-1h27.8c0.5,0,1,0.4,1,1l0,0
	C120.1,139.7,119.7,140.1,119.1,140.1z"/>
<path class="st0" d="M148.5,146.5H91.3c-0.5,0-1-0.4-1-1l0,0c0-0.5,0.4-1,1-1h57.2c0.5,0,1,0.4,1,1l0,0
	C149.4,146.1,149,146.5,148.5,146.5z"/>
<path class="st0" d="M119.1,149.9H91.3c-0.5,0-1-0.4-1-1l0,0c0-0.5,0.4-1,1-1h27.8c0.5,0,1,0.4,1,1l0,0
	C120.1,149.5,119.7,149.9,119.1,149.9z"/>
<path class="st0" d="M148.5,156.3H91.3c-0.5,0-1-0.4-1-1l0,0c0-0.5,0.4-1,1-1h57.2c0.5,0,1,0.4,1,1l0,0
	C149.4,155.8,149,156.3,148.5,156.3z"/>
<path class="st0" d="M119.1,159.7H91.3c-0.5,0-1-0.4-1-1l0,0c0-0.5,0.4-1,1-1h27.8c0.5,0,1,0.4,1,1l0,0
	C120.1,159.2,119.7,159.7,119.1,159.7z"/>
<path class="st0" d="M177.8,166h-57.2c-0.5,0-1-0.4-1-1l0,0c0-0.5,0.4-1,1-1h57.2c0.5,0,1,0.4,1,1l0,0
	C178.7,165.6,178.3,166,177.8,166z"/>
<path class="st0" d="M148.5,169.5h-27.8c-0.5,0-1-0.4-1-1l0,0c0-0.5,0.4-1,1-1h27.8c0.5,0,1,0.4,1,1l0,0
	C149.4,169,149,169.5,148.5,169.5z"/>
<path class="st0" d="M177.8,175.8h-57.2c-0.5,0-1-0.4-1-1l0,0c0-0.5,0.4-1,1-1h57.2c0.5,0,1,0.4,1,1l0,0
	C178.7,175.4,178.3,175.8,177.8,175.8z"/>
<path class="st0" d="M148.5,179.2h-27.8c-0.5,0-1-0.4-1-1l0,0c0-0.5,0.4-1,1-1h27.8c0.5,0,1,0.4,1,1l0,0
	C149.4,178.8,149,179.2,148.5,179.2z"/>
<circle class="st0" cx="63.5" cy="109.5" r="1.5"/>
<circle class="st0" cx="63.5" cy="114.5" r="1.5"/>
<circle class="st0" cx="68.5" cy="109.5" r="1.5"/>
<circle class="st0" cx="68.5" cy="114.5" r="1.5"/>
<circle class="st0" cx="73.5" cy="109.5" r="1.5"/>
<circle class="st0" cx="73.5" cy="114.5" r="1.5"/>
<circle class="st0" cx="78.5" cy="109.5" r="1.5"/>
<circle class="st0" cx="83.5" cy="109.5" r="1.5"/>
<circle class="st0" cx="83.5" cy="114.5" r="1.5"/>
<circle class="st0" cx="88.5" cy="114.5" r="1.5"/>
<circle class="st0" cx="93.5" cy="109.5" r="1.5"/>
<circle class="st0" cx="98.5" cy="109.5" r="1.5"/>
<circle class="st0" cx="98.5" cy="114.5" r="1.5"/>
<circle class="st0" cx="103.5" cy="114.5" r="1.5"/>
<circle class="st0" cx="108.5" cy="109.5" r="1.5"/>
<circle class="st0" cx="108.5" cy="114.5" r="1.5"/>
<circle class="st0" cx="113.5" cy="109.5" r="1.5"/>
<circle class="st0" cx="113.5" cy="114.5" r="1.5"/>
<circle class="st0" cx="118.5" cy="109.5" r="1.5"/>
<circle class="st0" cx="118.5" cy="114.5" r="1.5"/>
<line class="st6" x1="1921.5" y1="780.5" x2="1921.5" y2="660.5"/>
<line class="st8" x1="1911.5" y1="780.5" x2="1911.5" y2="660.5"/>
<line class="st7" x1="1901.5" y1="780.5" x2="1901.5" y2="660.5"/>
<line class="st12" x1="1891.5" y1="780.5" x2="1891.5" y2="660.5"/>
<line class="st13" x1="1881.5" y1="780.5" x2="1881.5" y2="660.5"/>
<line class="st8" x1="1871.5" y1="780.5" x2="1871.5" y2="660.5"/>
<line class="st14" x1="1861.5" y1="780.5" x2="1861.5" y2="660.5"/>
<line class="st9" x1="1851.5" y1="780.5" x2="1851.5" y2="660.5"/>
<line class="st6" x1="1841.5" y1="780.5" x2="1841.5" y2="660.5"/>
<line class="st15" x1="1831.5" y1="780.5" x2="1831.5" y2="660.5"/>
<line class="st6" x1="1831.5" y1="780.5" x2="1831.5" y2="660.5"/>
<line class="st14" x1="1821.5" y1="780.5" x2="1821.5" y2="660.5"/>
<line class="st7" x1="1811.5" y1="780.5" x2="1811.5" y2="660.5"/>
<line class="st12" x1="1801.5" y1="780.5" x2="1801.5" y2="660.5"/>
<line class="st13" x1="1791.5" y1="780.5" x2="1791.5" y2="660.5"/>
<line class="st8" x1="1781.5" y1="780.5" x2="1781.5" y2="660.5"/>
<line class="st14" x1="1771.5" y1="780.5" x2="1771.5" y2="660.5"/>
<line class="st9" x1="1761.5" y1="780.5" x2="1761.5" y2="660.5"/>
<line class="st6" x1="1751.5" y1="780.5" x2="1751.5" y2="660.5"/>
<line class="st15" x1="1741.5" y1="780.5" x2="1741.5" y2="660.5"/>
<line class="st8" x1="1731.5" y1="780.5" x2="1731.5" y2="660.5"/>
<line class="st14" x1="1721.5" y1="780.5" x2="1721.5" y2="660.5"/>
<line class="st9" x1="1711.5" y1="780.5" x2="1711.5" y2="660.5"/>
<line class="st6" x1="1701.5" y1="780.5" x2="1701.5" y2="660.5"/>
<line class="st15" x1="1691.5" y1="780.5" x2="1691.5" y2="660.5"/>
<line class="st8" x1="1781.5" y1="780.5" x2="1781.5" y2="660.5"/>
<line class="st14" x1="1771.5" y1="780.5" x2="1771.5" y2="660.5"/>
<line class="st9" x1="1761.5" y1="780.5" x2="1761.5" y2="660.5"/>
<line class="st6" x1="1751.5" y1="780.5" x2="1751.5" y2="660.5"/>
<line class="st15" x1="1741.5" y1="780.5" x2="1741.5" y2="660.5"/>
<line class="st14" x1="1681.5" y1="780.5" x2="1681.5" y2="660.5"/>
<g>
	<path class="st0" d="M803.5,194.3H786c-2,0-3.7-1.6-3.7-3.7v-17.5c0-2,1.6-3.7,3.7-3.7h17.5c2,0,3.7,1.6,3.7,3.7v17.5
		C807.2,192.7,805.5,194.3,803.5,194.3z"/>
	<path class="st0" d="M798.1,175.8h-6.7c-1.6,0-2.9,1.3-2.9,2.9v37.7c0,1.6,1.3,2.9,2.9,2.9h6.7c1.6,0,2.9-1.3,2.9-2.9v-37.7
		C801,177.1,799.7,175.8,798.1,175.8z"/>
	<circle class="st0" cx="794.9" cy="162.5" r="6"/>
</g>
<g>
	<path class="st0" d="M834.5,194.3H817c-2,0-3.7-1.6-3.7-3.7v-17.5c0-2,1.6-3.7,3.7-3.7h17.5c2,0,3.7,1.6,3.7,3.7v17.5
		C838.2,192.7,836.5,194.3,834.5,194.3z"/>
	<path class="st0" d="M829.1,175.8h-6.7c-1.6,0-2.9,1.3-2.9,2.9v37.7c0,1.6,1.3,2.9,2.9,2.9h6.7c1.6,0,2.9-1.3,2.9-2.9v-37.7
		C831.9,177.1,830.7,175.8,829.1,175.8z"/>
	<circle class="st0" cx="825.8" cy="162.5" r="6"/>
</g>
<g>
	<path class="st0" d="M865.4,194.3H848c-2,0-3.7-1.6-3.7-3.7v-17.5c0-2,1.6-3.7,3.7-3.7h17.5c2,0,3.7,1.6,3.7,3.7v17.5
		C869.1,192.7,867.5,194.3,865.4,194.3z"/>
	<path class="st0" d="M860,175.8h-6.7c-1.6,0-2.9,1.3-2.9,2.9v37.7c0,1.6,1.3,2.9,2.9,2.9h6.7c1.6,0,2.9-1.3,2.9-2.9v-37.7
		C862.9,177.1,861.6,175.8,860,175.8z"/>
	<circle class="st0" cx="856.8" cy="162.5" r="6"/>
</g>
<g>
	<path class="st0" d="M896.4,194.3h-17.5c-2,0-3.7-1.6-3.7-3.7v-17.5c0-2,1.6-3.7,3.7-3.7h17.5c2,0,3.7,1.6,3.7,3.7v17.5
		C900.1,192.7,898.4,194.3,896.4,194.3z"/>
	<path class="st0" d="M891,175.8h-6.7c-1.6,0-2.9,1.3-2.9,2.9v37.7c0,1.6,1.3,2.9,2.9,2.9h6.7c1.6,0,2.9-1.3,2.9-2.9v-37.7
		C893.9,177.1,892.6,175.8,891,175.8z"/>
	<circle class="st0" cx="887.8" cy="162.5" r="6"/>
</g>
<g>
	<path class="st0" d="M878.9,88.5h17.5c2,0,3.7,1.6,3.7,3.7v17.5c0,2-1.6,3.7-3.7,3.7h-17.5c-2,0-3.7-1.6-3.7-3.7V92.2
		C875.2,90.1,876.9,88.5,878.9,88.5z"/>
	<path class="st0" d="M884.3,107h6.7c1.6,0,2.9-1.3,2.9-2.9V66.5c0-1.6-1.3-2.9-2.9-2.9h-6.7c-1.6,0-2.9,1.3-2.9,2.9v37.7
		C881.4,105.8,882.7,107,884.3,107z"/>
	<circle class="st0" cx="887.6" cy="120.3" r="6"/>
</g>
<g>
	<path class="st0" d="M848,88.5h17.5c2,0,3.7,1.6,3.7,3.7v17.5c0,2-1.6,3.7-3.7,3.7H848c-2,0-3.7-1.6-3.7-3.7V92.2
		C844.3,90.1,845.9,88.5,848,88.5z"/>
	<path class="st0" d="M853.4,107h6.7c1.6,0,2.9-1.3,2.9-2.9V66.5c0-1.6-1.3-2.9-2.9-2.9h-6.7c-1.6,0-2.9,1.3-2.9,2.9v37.7
		C850.5,105.8,851.8,107,853.4,107z"/>
	<circle class="st0" cx="856.6" cy="120.3" r="6"/>
</g>
<g>
	<path class="st0" d="M817,88.5h17.5c2,0,3.7,1.6,3.7,3.7v17.5c0,2-1.6,3.7-3.7,3.7H817c-2,0-3.7-1.6-3.7-3.7V92.2
		C813.3,90.1,815,88.5,817,88.5z"/>
	<path class="st0" d="M822.4,107h6.7c1.6,0,2.9-1.3,2.9-2.9V66.5c0-1.6-1.3-2.9-2.9-2.9h-6.7c-1.6,0-2.9,1.3-2.9,2.9v37.7
		C819.5,105.8,820.8,107,822.4,107z"/>
	<circle class="st0" cx="825.6" cy="120.3" r="6"/>
</g>
<g>
	<path class="st0" d="M786,88.5h17.5c2,0,3.7,1.6,3.7,3.7v17.5c0,2-1.6,3.7-3.7,3.7H786c-2,0-3.7-1.6-3.7-3.7V92.2
		C782.3,90.1,784,88.5,786,88.5z"/>
	<path class="st0" d="M791.4,107h6.7c1.6,0,2.9-1.3,2.9-2.9V66.5c0-1.6-1.3-2.9-2.9-2.9h-6.7c-1.6,0-2.9,1.3-2.9,2.9v37.7
		C788.6,105.8,789.8,107,791.4,107z"/>
	<circle class="st0" cx="794.7" cy="120.3" r="6"/>
</g>
<g>
	<path class="st0" d="M679.6,194.3h-17.5c-2,0-3.7-1.6-3.7-3.7v-17.5c0-2,1.6-3.7,3.7-3.7h17.5c2,0,3.7,1.6,3.7,3.7v17.5
		C683.3,192.7,681.7,194.3,679.6,194.3z"/>
	<path class="st0" d="M674.2,175.8h-6.7c-1.6,0-2.9,1.3-2.9,2.9v37.7c0,1.6,1.3,2.9,2.9,2.9h6.7c1.6,0,2.9-1.3,2.9-2.9v-37.7
		C677.1,177.1,675.8,175.8,674.2,175.8z"/>
	<circle class="st0" cx="671" cy="162.5" r="6"/>
</g>
<g>
	<path class="st0" d="M710.6,194.3h-17.5c-2,0-3.7-1.6-3.7-3.7v-17.5c0-2,1.6-3.7,3.7-3.7h17.5c2,0,3.7,1.6,3.7,3.7v17.5
		C714.3,192.7,712.6,194.3,710.6,194.3z"/>
	<path class="st0" d="M705.2,175.8h-6.7c-1.6,0-2.9,1.3-2.9,2.9v37.7c0,1.6,1.3,2.9,2.9,2.9h6.7c1.6,0,2.9-1.3,2.9-2.9v-37.7
		C708.1,177.1,706.8,175.8,705.2,175.8z"/>
	<circle class="st0" cx="702" cy="162.5" r="6"/>
</g>
<g>
	<path class="st0" d="M741.6,194.3h-17.5c-2,0-3.7-1.6-3.7-3.7v-17.5c0-2,1.6-3.7,3.7-3.7h17.5c2,0,3.7,1.6,3.7,3.7v17.5
		C745.3,192.7,743.6,194.3,741.6,194.3z"/>
	<path class="st0" d="M736.2,175.8h-6.7c-1.6,0-2.9,1.3-2.9,2.9v37.7c0,1.6,1.3,2.9,2.9,2.9h6.7c1.6,0,2.9-1.3,2.9-2.9v-37.7
		C739,177.1,737.8,175.8,736.2,175.8z"/>
	<circle class="st0" cx="732.9" cy="162.5" r="6"/>
</g>
<g>
	<path class="st0" d="M772.5,194.3H755c-2,0-3.7-1.6-3.7-3.7v-17.5c0-2,1.6-3.7,3.7-3.7h17.5c2,0,3.7,1.6,3.7,3.7v17.5
		C776.2,192.7,774.6,194.3,772.5,194.3z"/>
	<path class="st0" d="M767.1,175.8h-6.7c-1.6,0-2.9,1.3-2.9,2.9v37.7c0,1.6,1.3,2.9,2.9,2.9h6.7c1.6,0,2.9-1.3,2.9-2.9v-37.7
		C770,177.1,768.7,175.8,767.1,175.8z"/>
	<circle class="st0" cx="763.9" cy="162.5" r="6"/>
</g>
<g>
	<path class="st0" d="M755.1,88.5h17.5c2,0,3.7,1.6,3.7,3.7v17.5c0,2-1.6,3.7-3.7,3.7h-17.5c-2,0-3.7-1.6-3.7-3.7V92.2
		C751.4,90.1,753,88.5,755.1,88.5z"/>
	<path class="st0" d="M760.5,107h6.7c1.6,0,2.9-1.3,2.9-2.9V66.5c0-1.6-1.3-2.9-2.9-2.9h-6.7c-1.6,0-2.9,1.3-2.9,2.9v37.7
		C757.6,105.8,758.9,107,760.5,107z"/>
	<circle class="st0" cx="763.7" cy="120.3" r="6"/>
</g>
<g>
	<path class="st0" d="M724.1,88.5h17.5c2,0,3.7,1.6,3.7,3.7v17.5c0,2-1.6,3.7-3.7,3.7h-17.5c-2,0-3.7-1.6-3.7-3.7V92.2
		C720.4,90.1,722.1,88.5,724.1,88.5z"/>
	<path class="st0" d="M729.5,107h6.7c1.6,0,2.9-1.3,2.9-2.9V66.5c0-1.6-1.3-2.9-2.9-2.9h-6.7c-1.6,0-2.9,1.3-2.9,2.9v37.7
		C726.6,105.8,727.9,107,729.5,107z"/>
	<circle class="st0" cx="732.7" cy="120.3" r="6"/>
</g>
<g>
	<path class="st0" d="M693.1,88.5h17.5c2,0,3.7,1.6,3.7,3.7v17.5c0,2-1.6,3.7-3.7,3.7h-17.5c-2,0-3.7-1.6-3.7-3.7V92.2
		C689.4,90.1,691.1,88.5,693.1,88.5z"/>
	<path class="st0" d="M698.5,107h6.7c1.6,0,2.9-1.3,2.9-2.9V66.5c0-1.6-1.3-2.9-2.9-2.9h-6.7c-1.6,0-2.9,1.3-2.9,2.9v37.7
		C695.7,105.8,696.9,107,698.5,107z"/>
	<circle class="st0" cx="701.8" cy="120.3" r="6"/>
</g>
<g>
	<path class="st0" d="M662.2,88.5h17.5c2,0,3.7,1.6,3.7,3.7v17.5c0,2-1.6,3.7-3.7,3.7h-17.5c-2,0-3.7-1.6-3.7-3.7V92.2
		C658.5,90.1,660.1,88.5,662.2,88.5z"/>
	<path class="st0" d="M667.6,107h6.7c1.6,0,2.9-1.3,2.9-2.9V66.5c0-1.6-1.3-2.9-2.9-2.9h-6.7c-1.6,0-2.9,1.3-2.9,2.9v37.7
		C664.7,105.8,666,107,667.6,107z"/>
	<circle class="st0" cx="670.8" cy="120.3" r="6"/>
</g>
<path class="st6" d="M889.6,231l0.4,55.8c0,6.2-2.5,12.2-6.9,16.6L776.4,410.1c-4.4,4.4-10.4,6.9-16.6,6.9H501
	c-13,0-23.5,10.5-23.5,23.5v46.3c0,13,10.5,23.5,23.5,23.5h51.3"/>
<path class="st6" d="M859.6,231l0.4,55.8c0,6.2-2.5,12.2-6.9,16.6L746.4,410.1c-4.4,4.4-10.4,6.9-16.6,6.9H471
	c-13,0-23.5,10.5-23.5,23.5v46.3c0,13,10.5,23.5,23.5,23.5h51.3"/>
<path class="st6" d="M825.6,231l0.4,55.8c0,6.2-2.5,12.2-6.9,16.6L712.4,410.1c-4.4,4.4-10.4,6.9-16.6,6.9H437
	c-13,0-23.5,10.5-23.5,23.5v46.3c0,13,10.5,23.5,23.5,23.5h51.3"/>
<path class="st6" d="M794.6,231l0.4,55.8c0,6.2-2.5,12.2-6.9,16.6L681.4,410.1c-4.4,4.4-10.4,6.9-16.6,6.9H406
	c-13,0-23.5,10.5-23.5,23.5v46.3c0,13,10.5,23.5,23.5,23.5h51.3"/>
<path class="st6" d="M763.6,231l0.4,55.8c0,6.2-2.5,12.2-6.9,16.6L650.4,410.1c-4.4,4.4-10.4,6.9-16.6,6.9H375
	c-13,0-23.5,10.5-23.5,23.5v46.3c0,13,10.5,23.5,23.5,23.5h51.3"/>
<path class="st6" d="M732.6,231l0.4,55.8c0,6.2-2.5,12.2-6.9,16.6L619.4,410.1c-4.4,4.4-10.4,6.9-16.6,6.9H344
	c-13,0-23.5,10.5-23.5,23.5v46.3c0,13,10.5,23.5,23.5,23.5h51.3"/>
<path class="st6" d="M701.6,231l0.4,55.8c0,6.2-2.5,12.2-6.9,16.6L588.4,410.1c-4.4,4.4-10.4,6.9-16.6,6.9H313
	c-13,0-23.5,10.5-23.5,23.5v46.3c0,13,10.5,23.5,23.5,23.5h51.3"/>
<path class="st6" d="M669.6,231l0.4,55.8c0,6.2-2.5,12.2-6.9,16.6L556.4,410.1c-4.4,4.4-10.4,6.9-16.6,6.9H281
	c-13,0-23.5,10.5-23.5,23.5v46.3c0,13,10.5,23.5,23.5,23.5h51.3"/>
<line class="st16" x1="659.6" y1="726.4" x2="1260.5" y2="726.4"/>
<line class="st17" x1="1510.7" y1="724.5" x2="1561.5" y2="724.5"/>
<g>
	<polyline class="st0" points="1566,744.6 1605.9,784.5 1605.9,664.5 1566.1,704.4 	"/>
	<polyline class="st0" points="1619.5,720.5 1611.6,712.5 1611.6,736.5 1619.5,728.5 	"/>
</g>
<path class="st6" d="M1262.5,900.5v-10.3c0-12.6-5-24.7-13.9-33.6l-1.8-1.8c-8.9-8.9-21-13.9-33.6-13.9h-115
	c-12.6,0-24.7,5-33.6,13.9L913.4,1006c-8.9,8.9-21,13.9-33.6,13.9H498.2c-12.6,0-24.7-5-33.6-13.9L191.1,732.5
	c-8.9-8.9-21-13.9-33.6-13.9h-159"/>
<path class="st6" d="M1282.5,900.5v-10.3c0-12.6-5-24.7-13.9-33.6l-1.8-1.8c-8.9-8.9-21-13.9-33.6-13.9h-115
	c-12.6,0-24.7,5-33.6,13.9L933.4,1006c-8.9,8.9-21,13.9-33.6,13.9H518.2c-12.6,0-24.7-5-33.6-13.9L211.1,732.5
	c-8.9-8.9-21-13.9-33.6-13.9h-159"/>
<path class="st6" d="M1302.5,900.5v-10.3c0-12.6-5-24.7-13.9-33.6l-1.8-1.8c-8.9-8.9-21-13.9-33.6-13.9h-115
	c-12.6,0-24.7,5-33.6,13.9L953.4,1006c-8.9,8.9-21,13.9-33.6,13.9H538.2c-12.6,0-24.7-5-33.6-13.9L231.1,732.5
	c-8.9-8.9-21-13.9-33.6-13.9h-159"/>
<path class="st6" d="M1322.5,900.5v-10.3c0-12.6-5-24.7-13.9-33.6l-1.8-1.8c-8.9-8.9-21-13.9-33.6-13.9h-115
	c-12.6,0-24.7,5-33.6,13.9L973.4,1006c-8.9,8.9-21,13.9-33.6,13.9H558.2c-12.6,0-24.7-5-33.6-13.9L251.1,732.5
	c-8.9-8.9-21-13.9-33.6-13.9h-159"/>
<path class="st6" d="M1342.5,900.5v-10.3c0-12.6-5-24.7-13.9-33.6l-1.8-1.8c-8.9-8.9-21-13.9-33.6-13.9h-115
	c-12.6,0-24.7,5-33.6,13.9L993.4,1006c-8.9,8.9-21,13.9-33.6,13.9H578.2c-12.6,0-24.7-5-33.6-13.9L271.1,732.5
	c-8.9-8.9-21-13.9-33.6-13.9h-159"/>
<path class="st6" d="M1362.5,900.5v-10.3c0-12.6-5-24.7-13.9-33.6l-1.8-1.8c-8.9-8.9-21-13.9-33.6-13.9h-115
	c-12.6,0-24.7,5-33.6,13.9L1013.4,1006c-8.9,8.9-21,13.9-33.6,13.9H598.2c-12.6,0-24.7-5-33.6-13.9L291.1,732.5
	c-8.9-8.9-21-13.9-33.6-13.9h-159"/>
<path class="st6" d="M1382.5,900.5v-10.3c0-12.6-5-24.7-13.9-33.6l-1.8-1.8c-8.9-8.9-21-13.9-33.6-13.9h-115
	c-12.6,0-24.7,5-33.6,13.9L1033.4,1006c-8.9,8.9-21,13.9-33.6,13.9H618.2c-12.6,0-24.7-5-33.6-13.9L311.1,732.5
	c-8.9-8.9-21-13.9-33.6-13.9h-159"/>
<path class="st6" d="M1402.5,900.5v-10.3c0-12.6-5-24.7-13.9-33.6l-1.8-1.8c-8.9-8.9-21-13.9-33.6-13.9h-115
	c-12.6,0-24.7,5-33.6,13.9L1053.4,1006c-8.9,8.9-21,13.9-33.6,13.9H638.2c-12.6,0-24.7-5-33.6-13.9L331.1,732.5
	c-8.9-8.9-21-13.9-33.6-13.9h-159"/>
<path class="st6" d="M1422.5,900.5v-10.3c0-12.6-5-24.7-13.9-33.6l-1.8-1.8c-8.9-8.9-21-13.9-33.6-13.9h-115
	c-12.6,0-24.7,5-33.6,13.9L1073.4,1006c-8.9,8.9-21,13.9-33.6,13.9H658.2c-12.6,0-24.7-5-33.6-13.9L351.1,732.5
	c-8.9-8.9-21-13.9-33.6-13.9h-159"/>
<path class="st6" d="M1442.5,900.5v-10.3c0-12.6-5-24.7-13.9-33.6l-1.8-1.8c-8.9-8.9-21-13.9-33.6-13.9h-115
	c-12.6,0-24.7,5-33.6,13.9L1093.4,1006c-8.9,8.9-21,13.9-33.6,13.9H678.2c-12.6,0-24.7-5-33.6-13.9L371.1,732.5
	c-8.9-8.9-21-13.9-33.6-13.9h-159"/>
<path class="st6" d="M1462.5,900.5v-10.3c0-12.6-5-24.7-13.9-33.6l-1.8-1.8c-8.9-8.9-21-13.9-33.6-13.9h-115
	c-12.6,0-24.7,5-33.6,13.9L1113.4,1006c-8.9,8.9-21,13.9-33.6,13.9H698.2c-12.6,0-24.7-5-33.6-13.9L391.1,732.5
	c-8.9-8.9-21-13.9-33.6-13.9h-159"/>
<path class="st6" d="M1482.5,900.5v-10.3c0-12.6-5-24.7-13.9-33.6l-1.8-1.8c-8.9-8.9-21-13.9-33.6-13.9h-115
	c-12.6,0-24.7,5-33.6,13.9L1133.4,1006c-8.9,8.9-21,13.9-33.6,13.9H718.2c-12.6,0-24.7-5-33.6-13.9L411.1,732.5
	c-8.9-8.9-21-13.9-33.6-13.9h-159"/>
<path class="st6" d="M1502.5,900.5v-10.3c0-12.6-5-24.7-13.9-33.6l-1.8-1.8c-8.9-8.9-21-13.9-33.6-13.9h-115
	c-12.6,0-24.7,5-33.6,13.9L1153.4,1006c-8.9,8.9-21,13.9-33.6,13.9H738.2c-12.6,0-24.7-5-33.6-13.9L431.1,732.5
	c-8.9-8.9-21-13.9-33.6-13.9h-159"/>
<g>
	<path class="st0" d="M703.9,852.1c-1.5,0-2.9-0.3-4.1-0.9c-1.2-0.6-2.2-1.5-3-2.6s-1.4-2.5-1.9-4s-0.6-3.4-0.6-5.3
		c0-2,0.2-3.8,0.7-5.4c0.5-1.6,1.1-3,1.9-4.1c0.8-1.1,1.8-2,3-2.6s2.5-0.9,4-0.9s2.8,0.3,4,0.9c1.2,0.6,2.2,1.4,3,2.5s1.5,2.5,1.9,4
		c0.4,1.6,0.7,3.4,0.7,5.4s-0.2,3.7-0.6,5.3c-0.4,1.6-1,2.9-1.9,4c-0.8,1.1-1.8,2-3,2.6C706.8,851.8,705.5,852.1,703.9,852.1z
		 M704,849.5c2.2,0,3.8-0.9,4.8-2.7s1.6-4.3,1.6-7.5c0-1.6-0.1-3-0.4-4.2c-0.3-1.3-0.7-2.4-1.2-3.3c-0.5-0.9-1.2-1.6-2-2.1
		s-1.7-0.7-2.8-0.7c-2.2,0-3.8,0.9-4.9,2.8s-1.6,4.4-1.6,7.5c0,1.6,0.1,3,0.4,4.2c0.3,1.3,0.7,2.4,1.2,3.2c0.5,0.9,1.2,1.6,2,2.1
		C702,849.2,702.9,849.5,704,849.5z"/>
	<path class="st0" d="M720.9,841.8l-6.2-8.9h3.4l4.4,6.8h0.1l4.6-6.8h3.2l-6.1,8.5l7.3,10.1h-3.4l-5.5-8h-0.1l-5.4,8h-3.3
		L720.9,841.8z"/>
	<path class="st0" d="M740.2,852.1c-1.3,0-2.5-0.2-3.5-0.6c-1.1-0.4-2-0.9-2.8-1.6s-1.4-1.5-1.9-2.4s-0.7-2-0.8-3.1h3
		c0.2,1.5,0.8,2.8,1.9,3.7c1,0.9,2.4,1.4,4.2,1.4s3.2-0.5,4.2-1.6s1.6-2.5,1.6-4.3c0-0.9-0.2-1.8-0.5-2.5s-0.7-1.3-1.2-1.8
		s-1.1-0.9-1.8-1.2s-1.5-0.4-2.3-0.4c-1.3,0-2.5,0.2-3.4,0.7s-1.6,1.1-2.2,1.8h-2.9l2.7-13.2h13.1v2.7h-11L735,837h0.1
		c0.7-0.7,1.5-1.2,2.4-1.5c0.9-0.4,2-0.5,3.2-0.5c1.1,0,2.2,0.2,3.2,0.6c1,0.4,1.9,0.9,2.7,1.7c0.8,0.7,1.4,1.6,1.9,2.7
		c0.5,1.1,0.7,2.3,0.7,3.7c0,1.3-0.2,2.5-0.7,3.6c-0.4,1.1-1.1,2-1.9,2.7c-0.8,0.7-1.7,1.3-2.8,1.7
		C742.7,851.9,741.5,852.1,740.2,852.1z"/>
</g>
<g>
	<path class="st0" d="M913,811.6c-0.8,0-1.6-0.2-2.3-0.5s-1.4-0.7-1.9-1.3c-0.5-0.5-1-1.2-1.3-1.9s-0.5-1.6-0.5-2.4
		c0-0.9,0.2-1.7,0.5-2.4s0.7-1.4,1.3-1.9c0.5-0.5,1.2-1,1.9-1.3s1.5-0.5,2.3-0.5s1.6,0.2,2.3,0.5s1.4,0.7,1.9,1.3
		c0.5,0.5,1,1.2,1.3,1.9s0.5,1.6,0.5,2.4c0,0.9-0.2,1.7-0.5,2.4s-0.7,1.4-1.3,1.9c-0.5,0.5-1.2,1-1.9,1.3
		C914.6,811.5,913.8,811.6,913,811.6z M913,810.7c0.7,0,1.4-0.1,2-0.4c0.6-0.3,1.1-0.6,1.6-1.1c0.4-0.5,0.8-1,1-1.7
		c0.3-0.6,0.4-1.3,0.4-2.1s-0.1-1.4-0.4-2.1c-0.3-0.6-0.6-1.2-1-1.7s-1-0.8-1.6-1.1s-1.3-0.4-2-0.4s-1.4,0.1-2,0.4
		c-0.6,0.3-1.1,0.6-1.6,1.1c-0.4,0.5-0.8,1-1,1.7c-0.2,0.6-0.4,1.3-0.4,2.1s0.1,1.5,0.4,2.1c0.2,0.6,0.6,1.2,1,1.7s1,0.8,1.6,1.1
		S912.3,810.7,913,810.7z M910.7,802.2h3c0.6,0,1.1,0.2,1.5,0.5s0.6,0.8,0.6,1.3c0,0.4-0.1,0.7-0.3,1s-0.5,0.5-0.9,0.6l0,0
		c0.3,0.1,0.6,0.2,0.7,0.4c0.2,0.2,0.3,0.5,0.3,0.9c0.1,0.5,0.1,0.8,0.1,1.1s0.1,0.5,0.2,0.5v0.1h-1.2c-0.1,0-0.1-0.2-0.2-0.5
		c0-0.3-0.1-0.6-0.1-1c0-0.3-0.1-0.6-0.3-0.8s-0.5-0.3-0.9-0.3h-1.1v2.6h-1.3L910.7,802.2L910.7,802.2z M911.9,805.1h1.4
		c0.4,0,0.6-0.1,0.8-0.3s0.3-0.4,0.3-0.7s-0.1-0.5-0.3-0.7s-0.4-0.3-0.8-0.3h-1.4V805.1z"/>
</g>
<text transform="matrix(1 0 0 1 1539.501 81.8838)" class="st0 st4 st18">hackaday.io/superconference</text>
<rect x="1502" y="62.3" class="st0" width="23" height="23"/>
<polygon class="st0" points="1882.4,230 1882.4,220.1 1912,203 1912,212.9 "/>
<polygon class="st0" points="1882.4,247.9 1882.4,238.1 1912,221 1912,230.8 "/>
<polygon class="st0" points="1882.4,267.3 1882.4,257.4 1912,240.3 1912,250.2 "/>
<polygon class="st0" points="1882.4,285.3 1882.4,275.4 1912,258.3 1912,268.2 "/>
<polygon class="st0" points="1882.4,303.2 1882.4,293.3 1912,276.2 1912,286.1 "/>
<polygon class="st0" points="1882.4,321.2 1882.4,311.3 1912,294.2 1912,304.1 "/>
<polygon class="st0" points="1882.4,339.1 1882.4,329.3 1912,312.2 1912,322 "/>
<polygon class="st0" points="1882.4,357.1 1882.4,347.2 1912,330.1 1912,340 "/>
<path class="st19" d="M1879.4,190.9"/>
<path class="st19" d="M1916.3,194.9"/>
<polygon class="st0" points="1882.4,212 1912,194.9 1912,194.6 1895.4,194.6 1882.4,202.1 "/>
<polyline class="st0" points="1895.4,194.6 1912,194.6 1912,185 "/>
<rect x="960" y="62.4" class="st19" width="409" height="240.6"/>
<text transform="matrix(1 0 0 1 960 70.7603)" class="st0 st20 st21">The software world has fully embraced open source as a way </text>
<text transform="matrix(1 0 0 1 960 84.7603)" class="st0 st20 st21">to move forward together, faster. The hardware world is rap</text>
<text transform="matrix(1 0 0 1 1356.5 84.7603)" class="st0 st20 st21">-</text>
<text transform="matrix(1 0 0 1 960 98.7603)" class="st0 st20 st21">idly catching up, but until recently, one building block was </text>
<text transform="matrix(1 0 0 1 960 112.7603)" class="st0 st20 st21">still proprietary: the CPU&apos;s Instruction Set Architecture, </text>
<text transform="matrix(1 0 0 1 960 126.7603)" class="st0 st20 st21">or ISA. The ISA is the language that the computer speaks, </text>
<text transform="matrix(1 0 0 1 960 140.7603)" class="st0 st20 st21">and aligning on a common language enables both open hardware </text>
<text transform="matrix(1 0 0 1 960 154.7603)" class="st0 st20 st21">implementations and collaboration on software tools. RISC-V </text>
<text transform="matrix(1 0 0 1 960 168.7603)" class="st0 st20 st21">is a free and open ISA which is revolutionizing both academ</text>
<text transform="matrix(1 0 0 1 1356.5 168.7603)" class="st0 st20 st21">-</text>
<text transform="matrix(1 0 0 1 960 182.7603)" class="st0 st20 st21">ic research and the semiconductor industry. In my talk I </text>
<text transform="matrix(1 0 0 1 960 196.7603)" class="st0 st20 st21">will give an intro to RISC-V and explain how it is enabling </text>
<text transform="matrix(1 0 0 1 960 210.7603)" class="st0 st20 st21">a new level of hardware hacking, on FPGAs and beyond.</text>
<circle class="st0" cx="1126.1" cy="268.7" r="2.4"/>
<circle class="st0" cx="1126.1" cy="252.4" r="2.4"/>
<circle class="st0" cx="1117.9" cy="268.7" r="2.4"/>
<circle class="st0" cx="1117.9" cy="252.4" r="2.4"/>
<circle class="st0" cx="1117.9" cy="244.3" r="2.4"/>
<circle class="st0" cx="1109.8" cy="268.7" r="2.4"/>
<circle class="st0" cx="1109.8" cy="260.6" r="2.4"/>
<circle class="st0" cx="1109.8" cy="252.4" r="2.4"/>
<circle class="st0" cx="1101.7" cy="260.6" r="2.4"/>
<circle class="st0" cx="1084.4" cy="260.6" r="2.4"/>
<circle class="st0" cx="1084.4" cy="244.3" r="2.4"/>
<circle class="st0" cx="1076.3" cy="268.7" r="2.4"/>
<circle class="st0" cx="1076.3" cy="260.6" r="2.4"/>
<circle class="st0" cx="1076.3" cy="252.4" r="2.4"/>
<circle class="st0" cx="1068.2" cy="252.4" r="2.4"/>
<circle class="st0" cx="1068.2" cy="244.3" r="2.4"/>
<circle class="st0" cx="1060.1" cy="268.7" r="2.4"/>
<circle class="st0" cx="1060.1" cy="260.6" r="2.4"/>
<circle class="st0" cx="1060.1" cy="244.3" r="2.4"/>
<circle class="st0" cx="1051.9" cy="268.7" r="2.4"/>
<circle class="st0" cx="1051.9" cy="260.6" r="2.4"/>
<circle class="st0" cx="1051.9" cy="252.4" r="2.4"/>
<circle class="st0" cx="1010.7" cy="268.7" r="2.4"/>
<circle class="st0" cx="1010.7" cy="252.4" r="2.4"/>
<circle class="st0" cx="1018.8" cy="268.7" r="2.4"/>
<circle class="st0" cx="1018.8" cy="252.4" r="2.4"/>
<circle class="st0" cx="1018.8" cy="244.3" r="2.4"/>
<circle class="st0" cx="1026.9" cy="268.7" r="2.4"/>
<circle class="st0" cx="1026.9" cy="260.6" r="2.4"/>
<circle class="st0" cx="1026.9" cy="252.4" r="2.4"/>
<circle class="st0" cx="1035.1" cy="260.6" r="2.4"/>
<path class="st0" d="M992,260.6c0-1.3,1.1-2.4,2.4-2.4s2.4,1.1,2.4,2.4s-1.1,2.4-2.4,2.4S992,261.9,992,260.6z"/>
<path class="st0" d="M992,244.3c0-1.3,1.1-2.4,2.4-2.4s2.4,1.1,2.4,2.4s-1.1,2.4-2.4,2.4S992,245.7,992,244.3z"/>
<path class="st0" d="M983.9,268.7c0-1.3,1.1-2.4,2.4-2.4s2.4,1.1,2.4,2.4s-1.1,2.4-2.4,2.4S983.9,270,983.9,268.7z"/>
<path class="st0" d="M983.9,260.6c0-1.3,1.1-2.4,2.4-2.4s2.4,1.1,2.4,2.4s-1.1,2.4-2.4,2.4S983.9,261.9,983.9,260.6z"/>
<path class="st0" d="M983.9,252.4c0-1.3,1.1-2.4,2.4-2.4s2.4,1.1,2.4,2.4s-1.1,2.4-2.4,2.4S983.9,253.8,983.9,252.4z"/>
<path class="st0" d="M975.8,252.4c0-1.3,1.1-2.4,2.4-2.4s2.4,1.1,2.4,2.4s-1.1,2.4-2.4,2.4S975.8,253.8,975.8,252.4z"/>
<path class="st0" d="M975.8,244.3c0-1.3,1.1-2.4,2.4-2.4s2.4,1.1,2.4,2.4s-1.1,2.4-2.4,2.4S975.8,245.7,975.8,244.3z"/>
<path class="st0" d="M967.6,268.7c0-1.3,1.1-2.4,2.4-2.4s2.4,1.1,2.4,2.4s-1.1,2.4-2.4,2.4S967.6,270,967.6,268.7z"/>
<path class="st0" d="M967.6,260.6c0-1.3,1.1-2.4,2.4-2.4s2.4,1.1,2.4,2.4s-1.1,2.4-2.4,2.4S967.6,261.9,967.6,260.6z"/>
<path class="st0" d="M967.6,244.3c0-1.3,1.1-2.4,2.4-2.4s2.4,1.1,2.4,2.4s-1.1,2.4-2.4,2.4S967.6,245.7,967.6,244.3z"/>
<path class="st0" d="M959.5,268.7c0-1.3,1.1-2.4,2.4-2.4s2.4,1.1,2.4,2.4s-1.1,2.4-2.4,2.4S959.5,270,959.5,268.7z"/>
<path class="st0" d="M959.5,260.6c0-1.3,1.1-2.4,2.4-2.4s2.4,1.1,2.4,2.4s-1.1,2.4-2.4,2.4S959.5,261.9,959.5,260.6z"/>
<path class="st0" d="M959.5,252.4c0-1.3,1.1-2.4,2.4-2.4s2.4,1.1,2.4,2.4s-1.1,2.4-2.4,2.4S959.5,253.8,959.5,252.4z"/>
<circle class="st0" cx="1176.4" cy="260.6" r="2.4"/>
<circle class="st0" cx="1176.4" cy="244.3" r="2.4"/>
<circle class="st0" cx="1168.3" cy="268.7" r="2.4"/>
<circle class="st0" cx="1168.3" cy="260.6" r="2.4"/>
<circle class="st0" cx="1168.3" cy="252.4" r="2.4"/>
<circle class="st0" cx="1160.2" cy="252.4" r="2.4"/>
<circle class="st0" cx="1160.2" cy="244.3" r="2.4"/>
<circle class="st0" cx="1152.1" cy="268.7" r="2.4"/>
<circle class="st0" cx="1152.1" cy="260.6" r="2.4"/>
<circle class="st0" cx="1152.1" cy="244.3" r="2.4"/>
<circle class="st0" cx="1143.9" cy="268.7" r="2.4"/>
<circle class="st0" cx="1143.9" cy="260.6" r="2.4"/>
<circle class="st0" cx="1143.9" cy="252.4" r="2.4"/>
<path class="st0" d="M1739,248.8h-236c-1.1,0-2-0.9-2-2v-3.9c0-1.1,0.9-2,2-2h236c1.1,0,2,0.9,2,2v3.9
	C1741,248,1740.1,248.8,1739,248.8z"/>
<path class="st0" d="M1620,262.7h-117c-1.1,0-2-0.9-2-2v-3.9c0-1.1,0.9-2,2-2h117c1.1,0,2,0.9,2,2v3.9
	C1622,261.8,1621.1,262.7,1620,262.7z"/>
<path class="st0" d="M1511.1,271.7l-6.9,6.9c-0.6,0.6-1.6,0.6-2.3,0l0,0c-0.6-0.6-0.6-1.6,0-2.3l6.9-6.9c0.6-0.6,1.6-0.6,2.3,0l0,0
	C1511.8,270,1511.8,271.1,1511.1,271.7z"/>
<path class="st0" d="M1510,271.7h-4.8c-0.9,0-1.6-0.7-1.6-1.6l0,0c0-0.9,0.7-1.6,1.6-1.6h4.8c0.9,0,1.6,0.7,1.6,1.6l0,0
	C1511.6,271,1510.9,271.7,1510,271.7z"/>
<path class="st0" d="M1512,275.4v-4.8c0-0.9-0.7-1.6-1.6-1.6l0,0c-0.9,0-1.6,0.7-1.6,1.6v4.8c0,0.9,0.7,1.6,1.6,1.6l0,0
	C1511.3,277,1512,276.2,1512,275.4z"/>
<g>
	<text transform="matrix(1 0 0 1 1620.502 587.7832)" class="st0 st4 st22 st3">#supercon</text>
</g>
</svg>
