<?xml version="1.0" encoding="utf-8"?>
<!-- Generator: Adobe Illustrator 23.0.0, SVG Export Plug-In . SVG Version: 6.00 Build 0)  -->
<svg version="1.1" id="Layer_4" xmlns="http://www.w3.org/2000/svg" xmlns:xlink="http://www.w3.org/1999/xlink" x="0px" y="0px"
	 viewBox="0 0 1920 1080" style="enable-background:new 0 0 1920 1080;" xml:space="preserve">
<style type="text/css">
	.st0{fill:none;stroke:#FFFFFF;stroke-width:3;stroke-miterlimit:10;}
	.st1{fill:none;stroke:#FFFFFF;stroke-width:10;stroke-miterlimit:10;}
	.st2{fill:none;stroke:#FFFFFF;stroke-width:2;stroke-miterlimit:10;}
	.st3{fill:none;stroke:#FFFFFF;stroke-width:20;stroke-miterlimit:10;}
	.st4{fill:none;stroke:#FFFFFF;stroke-width:5;stroke-miterlimit:10;}
	.st5{fill:none;stroke:#FFFFFF;stroke-width:12;stroke-miterlimit:10;}
	.st6{fill:none;stroke:#FFFFFF;stroke-width:8;stroke-miterlimit:10;}
	.st7{fill:none;stroke:#FFFFFF;stroke-width:25;stroke-miterlimit:10;}
	.st8{fill:none;stroke:#FFFFFF;stroke-width:16;stroke-miterlimit:10;}
	.st9{fill:#FFFFFF;}
	.st10{font-family:'NHaasGroteskDSPro-65Md';}
	.st11{font-size:48px;}
	.st12{fill:none;stroke:#FFFFFF;stroke-miterlimit:10;}
	.st13{fill:none;stroke:#FFFFFF;stroke-width:0.75;stroke-miterlimit:10;stroke-dasharray:6;}
	.st14{fill:none;}
	.st15{fill:none;stroke:#FFFFFF;stroke-width:4;stroke-miterlimit:10;}
	.st16{fill:none;stroke:#FFFFFF;stroke-width:7.5203;stroke-miterlimit:10;}
</style>
<line class="st0" x1="60" y1="302" x2="180" y2="302"/>
<line class="st1" x1="60" y1="282" x2="180" y2="282"/>
<line class="st2" x1="60" y1="262" x2="180" y2="262"/>
<line class="st3" x1="60" y1="242" x2="180" y2="242"/>
<line class="st4" x1="60" y1="222" x2="180" y2="222"/>
<line class="st5" x1="60" y1="202" x2="180" y2="202"/>
<line class="st6" x1="60" y1="182" x2="180" y2="182"/>
<line class="st7" x1="60" y1="162" x2="180" y2="162"/>
<line class="st2" x1="60" y1="142" x2="180" y2="142"/>
<line class="st1" x1="60" y1="122" x2="180" y2="122"/>
<line class="st8" x1="60" y1="102" x2="180" y2="102"/>
<line class="st8" x1="60" y1="82" x2="180" y2="82"/>
<line class="st0" x1="60" y1="62" x2="180" y2="62"/>
<g>
	<path class="st9" d="M62.1,902.2h-1.9v-0.6h1.9v-2h0.6v2h1.9v0.6h-1.9v2h-0.6V902.2z"/>
</g>
<g>
	<path class="st9" d="M91.3,902.2h-1.9v-0.6h1.9v-2h0.6v2h1.9v0.6h-1.9v2h-0.6V902.2z"/>
</g>
<g>
	<path class="st9" d="M120.4,902.2h-1.9v-0.6h1.9v-2h0.6v2h1.9v0.6H121v2h-0.6V902.2z"/>
</g>
<g>
	<path class="st9" d="M149.6,902.2h-1.9v-0.6h1.9v-2h0.6v2h1.9v0.6h-1.9v2h-0.6V902.2z"/>
</g>
<g>
	<path class="st9" d="M178.7,902.2h-1.9v-0.6h1.9v-2h0.6v2h1.9v0.6h-1.9v2h-0.6V902.2z"/>
</g>
<g>
	<path class="st9" d="M62.1,931.3h-1.9v-0.6h1.9v-2h0.6v2h1.9v0.6h-1.9v2h-0.6V931.3z"/>
</g>
<g>
	<path class="st9" d="M91.3,931.3h-1.9v-0.6h1.9v-2h0.6v2h1.9v0.6h-1.9v2h-0.6V931.3z"/>
</g>
<g>
	<path class="st9" d="M120.4,931.3h-1.9v-0.6h1.9v-2h0.6v2h1.9v0.6H121v2h-0.6V931.3z"/>
</g>
<g>
	<path class="st9" d="M149.6,931.3h-1.9v-0.6h1.9v-2h0.6v2h1.9v0.6h-1.9v2h-0.6V931.3z"/>
</g>
<g>
	<path class="st9" d="M178.7,931.3h-1.9v-0.6h1.9v-2h0.6v2h1.9v0.6h-1.9v2h-0.6V931.3z"/>
</g>
<g>
	<path class="st9" d="M62.1,960.5h-1.9v-0.6h1.9v-2h0.6v2h1.9v0.6h-1.9v2h-0.6V960.5z"/>
</g>
<g>
	<path class="st9" d="M91.3,960.5h-1.9v-0.6h1.9v-2h0.6v2h1.9v0.6h-1.9v2h-0.6V960.5z"/>
</g>
<g>
	<path class="st9" d="M120.4,960.5h-1.9v-0.6h1.9v-2h0.6v2h1.9v0.6H121v2h-0.6V960.5z"/>
</g>
<g>
	<path class="st9" d="M149.6,960.5h-1.9v-0.6h1.9v-2h0.6v2h1.9v0.6h-1.9v2h-0.6V960.5z"/>
</g>
<g>
	<path class="st9" d="M178.7,960.5h-1.9v-0.6h1.9v-2h0.6v2h1.9v0.6h-1.9v2h-0.6V960.5z"/>
</g>
<g>
	<path class="st9" d="M62.1,989.6h-1.9V989h1.9v-2h0.6v2h1.9v0.6h-1.9v2h-0.6V989.6z"/>
</g>
<g>
	<path class="st9" d="M91.3,989.6h-1.9V989h1.9v-2h0.6v2h1.9v0.6h-1.9v2h-0.6V989.6z"/>
</g>
<g>
	<path class="st9" d="M120.4,989.6h-1.9V989h1.9v-2h0.6v2h1.9v0.6H121v2h-0.6V989.6z"/>
</g>
<g>
	<path class="st9" d="M149.6,989.6h-1.9V989h1.9v-2h0.6v2h1.9v0.6h-1.9v2h-0.6V989.6z"/>
</g>
<g>
	<path class="st9" d="M178.7,989.6h-1.9V989h1.9v-2h0.6v2h1.9v0.6h-1.9v2h-0.6V989.6z"/>
</g>
<g>
	<path class="st9" d="M62.1,1019.3h-1.9v-0.6h1.9v-2h0.6v2h1.9v0.6h-1.9v2h-0.6V1019.3z"/>
</g>
<g>
	<path class="st9" d="M91.3,1019.3h-1.9v-0.6h1.9v-2h0.6v2h1.9v0.6h-1.9v2h-0.6V1019.3z"/>
</g>
<g>
	<path class="st9" d="M120.4,1019.3h-1.9v-0.6h1.9v-2h0.6v2h1.9v0.6H121v2h-0.6V1019.3z"/>
</g>
<g>
	<path class="st9" d="M149.6,1019.3h-1.9v-0.6h1.9v-2h0.6v2h1.9v0.6h-1.9v2h-0.6V1019.3z"/>
</g>
<g>
	<path class="st9" d="M178.7,1019.3h-1.9v-0.6h1.9v-2h0.6v2h1.9v0.6h-1.9v2h-0.6V1019.3z"/>
</g>
<text transform="matrix(0 -1 1 0 1860.522 1020.5127)" class="st9 st10 st11">5Con™</text>
<circle class="st9" cx="667.6" cy="366.6" r="7.6"/>
<circle class="st9" cx="743.5" cy="366.6" r="7.6"/>
<circle class="st9" cx="819.5" cy="366.6" r="7.6"/>
<circle class="st9" cx="895.4" cy="366.6" r="7.6"/>
<circle class="st9" cx="667.6" cy="442.5" r="7.6"/>
<circle class="st9" cx="743.5" cy="442.5" r="7.6"/>
<circle class="st9" cx="819.5" cy="442.5" r="7.6"/>
<circle class="st9" cx="895.4" cy="442.5" r="7.6"/>
<circle class="st9" cx="667.6" cy="518.5" r="7.6"/>
<circle class="st9" cx="743.5" cy="518.5" r="7.6"/>
<circle class="st9" cx="819.5" cy="518.5" r="7.6"/>
<circle class="st9" cx="895.4" cy="518.5" r="7.6"/>
<circle class="st9" cx="667.6" cy="597.5" r="7.6"/>
<circle class="st9" cx="743.5" cy="594.5" r="7.6"/>
<circle class="st9" cx="819.5" cy="594.5" r="7.6"/>
<circle class="st9" cx="895.4" cy="594.5" r="7.6"/>
<polyline class="st12" points="667.7,366.7 696.5,366.7 743.4,442.4 "/>
<polyline class="st12" points="743.6,518.4 777.7,518.4 853.2,442.8 895.5,442.8 "/>
<path class="st12" d="M667.5,597.5c7.7,0,43.5-43.5,43.5-43.5v-63.8l-44-44"/>
<polyline class="st12" points="743.6,594.5 777,561.1 854.6,561.1 892.6,523.1 "/>
<polyline class="st12" points="743.6,366.5 771.2,394 866.8,394 894.9,365.9 "/>
<text transform="matrix(1 0 0 1 659.4795 784.0044)" class="st9 st10 st11">Feats of</text>
<text transform="matrix(1 0 0 1 659.4795 832.0044)" class="st9 st10 st11">Engineering</text>
<polyline class="st12" points="660,522 634.5,547.5 634.5,664 595.9,702.6 "/>
<rect x="360.5" y="695.5" class="st9" width="240" height="8"/>
<circle class="st9" cx="1853.4" cy="366.6" r="7.6"/>
<circle class="st9" cx="1853.4" cy="442.5" r="7.6"/>
<circle class="st9" cx="1853.4" cy="518.5" r="7.6"/>
<circle class="st9" cx="1853.4" cy="594.5" r="7.6"/>
<polyline class="st13" points="1853.5,366.5 1825.5,394.5 1680.5,394.5 "/>
<polyline class="st13" points="1853.5,594.5 1822,563 1680.5,563 "/>
<polyline class="st13" points="1853.5,442.5 1777.5,518.5 1680.5,518.5 "/>
<polyline class="st13" points="1680.5,446.5 1770.5,446.5 1856,520 "/>
<polygon class="st9" points="1171.4,960 1186.7,960 1217.1,990.4 1186.5,1021 1171.4,1021 1202.2,990.2 "/>
<polygon class="st9" points="1141,960 1156.2,960 1186.7,990.4 1156.1,1021 1141,1021 1171.8,990.2 "/>
<polygon class="st9" points="1231.4,960 1246.7,960 1277.1,990.4 1246.5,1021 1231.4,1021 1262.2,990.2 "/>
<polygon class="st9" points="1201,960 1216.2,960 1246.7,990.4 1216.1,1021 1201,1021 1231.8,990.2 "/>
<path class="st14" d="M1320.6,210.5v29.9h29.9C1350.3,224,1337,210.7,1320.6,210.5z"/>
<path class="st14" d="M1320.6,271c16.5-0.2,29.9-13.7,29.9-30.2c0-0.1,0-0.2,0-0.4h-29.9V271z"/>
<path class="st14" d="M1290,240.4c0,0.1,0,0.2,0,0.4c0,16.7,13.5,30.2,30.2,30.2c0.1,0,0.2,0,0.4,0v-30.6H1290z"/>
<path class="st14" d="M1320.6,210.5c-0.1,0-0.2,0-0.4,0c-16.6,0-30,13.3-30.2,29.9h30.6V210.5z"/>
<path class="st9" d="M1350.5,240.4c0,0.1,0,0.2,0,0.4c0,16.6-13.3,30-29.9,30.2v29.3c32.7-0.2,59.1-26.8,59.1-59.5
	c0-0.1,0-0.2,0-0.4H1350.5z"/>
<path class="st9" d="M1380.5,210.4h29.3c-0.2-32.6-26.6-58.9-59.1-59.1v29.3C1367,180.7,1380.3,194,1380.5,210.4z"/>
<path class="st9" d="M1320.2,210.5c0.1,0,0.2,0,0.4,0v-29.3c-0.1,0-0.2,0-0.4,0c-32.7,0-59.3,26.4-59.5,59.1h29.3
	C1290.2,223.8,1303.7,210.5,1320.2,210.5z"/>
<path class="st9" d="M1320.2,271c-16.7,0-30.2-13.5-30.2-30.2c0-0.1,0-0.2,0-0.4h-29.3c0,0.1,0,0.2,0,0.4
	c0,32.9,26.6,59.5,59.5,59.5c0.1,0,0.2,0,0.4,0V271C1320.5,271,1320.4,271,1320.2,271z"/>
<g>
	<rect x="1484.5" y="660" class="st9" width="15" height="240"/>
</g>
<text transform="matrix(1 0 0 1 1260.4795 420.0044)" class="st9 st10 st11">Mind-</text>
<text transform="matrix(1 0 0 1 1260.4795 468.0044)" class="st9 st10 st11">Expanding</text>
<text transform="matrix(1 0 0 1 1260.4795 516.0044)" class="st9 st10 st11">Workshops</text>
<path class="st9" d="M421.6,358.9H480c-0.4-65-53-117.6-118-118v58.4C394.7,299.7,421.2,326.1,421.6,358.9z"/>
<g>
	<path class="st9" d="M479,454.9c0,3.6-0.7,6.9-2.1,9.9s-3.3,5.6-5.8,7.7c-2.5,2.2-5.5,3.8-9.1,5s-7.6,1.8-12,1.8s-8.4-0.6-12-1.8
		c-3.6-1.2-6.6-2.9-9.1-5c-2.5-2.2-4.5-4.7-5.8-7.7c-1.4-3-2.1-6.3-2.1-10s0.7-7.1,2.1-10.1s3.3-5.6,5.8-7.7s5.5-3.8,9.1-4.9
		c3.6-1.2,7.6-1.7,12-1.7s8.4,0.6,12,1.8c3.6,1.2,6.6,2.9,9.1,5c2.5,2.2,4.5,4.8,5.8,7.8C478.3,447.9,479,451.2,479,454.9z
		 M468.3,454.8c0-1.9-0.4-3.5-1.3-4.8s-2.1-2.4-3.7-3.2c-1.6-0.8-3.5-1.4-5.8-1.8c-2.2-0.4-4.7-0.6-7.5-0.6c-2.7,0-5.2,0.2-7.4,0.6
		c-2.2,0.4-4.2,1-5.8,1.9c-1.6,0.9-2.9,2-3.8,3.3s-1.4,2.9-1.4,4.7c0,1.9,0.4,3.5,1.3,4.8s2.1,2.4,3.8,3.2c1.6,0.8,3.6,1.5,5.8,1.9
		c2.3,0.4,4.8,0.6,7.5,0.6s5.2-0.2,7.4-0.6c2.2-0.4,4.2-1,5.8-1.9c1.6-0.8,2.9-1.9,3.8-3.2C467.9,458.3,468.3,456.7,468.3,454.8z"/>
	<path class="st9" d="M479,404.7c0,3.2-0.4,6.1-1.1,8.9c-0.8,2.7-1.9,5.1-3.4,7.2s-3.3,3.7-5.6,5c-2.2,1.3-4.8,2.1-7.8,2.4v-13.4
		c2.4-0.4,4.1-1.6,5.3-3.4c1.2-1.8,1.7-4,1.7-6.4c0-2.8-0.9-4.9-2.6-6.6c-1.8-1.6-4-2.4-6.8-2.4c-2.9,0-5.1,0.8-6.7,2.5
		s-2.4,3.9-2.4,6.6c0,1.8,0.3,3.4,1,4.7c0.7,1.4,1.5,2.4,2.4,3.2v12.8l-30.7-5.7v-34.4h10.9v24.6l9.9,1.9V412
		c-0.9-1-1.7-2.4-2.3-4.3c-0.6-1.8-1-4-1-6.5c0-2.6,0.4-5.1,1.3-7.5c0.9-2.3,2.2-4.3,3.8-6.1c1.6-1.7,3.6-3.1,6-4.1
		c2.3-1,5-1.5,7.9-1.5c3.1,0,5.9,0.5,8.3,1.6c2.5,1.1,4.6,2.6,6.4,4.6s3.1,4.4,4.1,7.1C478.5,398.4,479,401.4,479,404.7z"/>
</g>
<polygon class="st9" points="418.2,571.2 423.2,571.2 405.8,601.2 400.8,601.2 "/>
<polygon class="st9" points="408.2,571.2 413.2,571.2 395.8,601.2 390.8,601.2 "/>
<polygon class="st9" points="398.2,571.2 403.2,571.2 385.8,601.2 380.8,601.2 "/>
<polygon class="st9" points="388.2,571.2 393.2,571.2 375.8,601.2 370.8,601.2 "/>
<polygon class="st9" points="378.2,571.2 383.2,571.2 365.8,601.2 360.8,601.2 "/>
<rect x="378" y="571.3" class="st14" width="30" height="30.5"/>
<line class="st12" x1="421" y1="601.5" x2="481" y2="601.5"/>
<line class="st12" x1="301" y1="181" x2="301" y2="241"/>
<line class="st15" x1="299" y1="241" x2="299" y2="301"/>
<circle class="st9" cx="593.5" cy="958.5" r="1.5"/>
<circle class="st9" cx="598.5" cy="958.5" r="1.5"/>
<circle class="st9" cx="593.5" cy="953.5" r="1.5"/>
<circle class="st9" cx="598.5" cy="953.5" r="1.5"/>
<circle class="st9" cx="593.5" cy="948.5" r="1.5"/>
<circle class="st9" cx="598.5" cy="948.5" r="1.5"/>
<circle class="st9" cx="593.5" cy="943.5" r="1.5"/>
<circle class="st9" cx="593.5" cy="938.5" r="1.5"/>
<circle class="st9" cx="598.5" cy="938.5" r="1.5"/>
<circle class="st9" cx="598.5" cy="933.5" r="1.5"/>
<circle class="st9" cx="593.5" cy="928.5" r="1.5"/>
<circle class="st9" cx="593.5" cy="923.5" r="1.5"/>
<circle class="st9" cx="598.5" cy="923.5" r="1.5"/>
<circle class="st9" cx="598.5" cy="918.5" r="1.5"/>
<circle class="st9" cx="593.5" cy="913.5" r="1.5"/>
<circle class="st9" cx="598.5" cy="913.5" r="1.5"/>
<circle class="st9" cx="593.5" cy="908.5" r="1.5"/>
<circle class="st9" cx="598.5" cy="908.5" r="1.5"/>
<circle class="st9" cx="593.5" cy="903.5" r="1.5"/>
<circle class="st9" cx="598.5" cy="903.5" r="1.5"/>
<line class="st12" x1="1260" y1="600" x2="1320" y2="600"/>
<path class="st9" d="M1124.2,600h-89.6c-6.2,0-11.2,5-11.2,11.2l0,0c0,6.2,5,11.2,11.2,11.2h35.5c10,0,15,12.1,7.9,19.1l-54.6,54.6
	c-4.4,4.4-4.4,11.5,0,15.8l0,0c4.4,4.4,11.5,4.4,15.8,0l32.2-32.2c4.4-4.4,11.5-4.4,15.8,0l35.6,35.6c4.4,4.4,11.5,4.4,15.8,0l0,0
	c4.4-4.4,4.4-11.5,0-15.8l-35.6-35.6c-4.4-4.4-4.4-11.5,0-15.8l29-29C1139.1,612.1,1134.1,600,1124.2,600z"/>
<g>
	<g>
		<rect x="1759" y="72" class="st9" width="91" height="1"/>
		<rect x="1749" y="62" class="st9" width="111" height="21"/>
	</g>
</g>
<g>
	<g>
		<path class="st9" d="M1850,171c-27.3,0-49.5-22.2-49.5-49.5S1822.7,72,1850,72v1c-26.7,0-48.5,21.8-48.5,48.5s21.8,48.5,48.5,48.5
			V171z"/>
		<path class="st9" d="M1860,181h-10c-32.8,0-59.5-26.7-59.5-59.5S1817.2,62,1850,62h10v21h-10c-21.2,0-38.5,17.3-38.5,38.5
			s17.3,38.5,38.5,38.5h10V181z"/>
	</g>
</g>
<polyline class="st12" points="1410,165 1456,119 1499,119 "/>
<rect x="1560.5" y="104.5" class="st9" width="29" height="29"/>
<rect x="360" y="877" class="st9" width="24" height="24"/>
<rect x="578" y="999" class="st9" width="24" height="24"/>
<polyline class="st12" points="383.8,889 420.5,889 542.2,1010.8 578.5,1010.8 "/>
<rect x="62.5" y="691.5" class="st9" width="238" height="17"/>
<rect x="62.5" y="661.5" class="st9" width="238" height="17"/>
<rect x="62.5" y="721.5" class="st9" width="238" height="17"/>
<path class="st9" d="M598,68.9H362c-1.1,0-2-0.9-2-2V63c0-1.1,0.9-2,2-2h236c1.1,0,2,0.9,2,2v3.9C600,68,599.1,68.9,598,68.9z"/>
<path class="st9" d="M479,82.8H362c-1.1,0-2-0.9-2-2v-3.9c0-1.1,0.9-2,2-2h117c1.1,0,2,0.9,2,2v3.9C481,81.9,480.1,82.8,479,82.8z"
	/>
<path class="st9" d="M370.1,91.8l-6.9,6.9c-0.6,0.6-1.6,0.6-2.3,0l0,0c-0.6-0.6-0.6-1.6,0-2.3l6.9-6.9c0.6-0.6,1.6-0.6,2.3,0l0,0
	C370.8,90.1,370.8,91.1,370.1,91.8z"/>
<path class="st9" d="M369,91.8h-4.8c-0.9,0-1.6-0.7-1.6-1.6l0,0c0-0.9,0.7-1.6,1.6-1.6h4.8c0.9,0,1.6,0.7,1.6,1.6l0,0
	C370.6,91.1,369.9,91.8,369,91.8z"/>
<path class="st9" d="M371,95.4v-4.8c0-0.9-0.7-1.6-1.6-1.6l0,0c-0.9,0-1.6,0.7-1.6,1.6v4.8c0,0.9,0.7,1.6,1.6,1.6l0,0
	C370.3,97,371,96.3,371,95.4z"/>
<rect x="660" y="881" class="st9" width="121" height="21"/>
<circle class="st9" cx="1182.5" cy="651.5" r="1.5"/>
<circle class="st9" cx="1192.5" cy="651.5" r="1.5"/>
<circle class="st9" cx="1182.5" cy="646.5" r="1.5"/>
<circle class="st9" cx="1192.5" cy="646.5" r="1.5"/>
<circle class="st9" cx="1197.5" cy="646.5" r="1.5"/>
<circle class="st9" cx="1182.5" cy="641.5" r="1.5"/>
<circle class="st9" cx="1187.5" cy="641.5" r="1.5"/>
<circle class="st9" cx="1192.5" cy="641.5" r="1.5"/>
<circle class="st9" cx="1187.5" cy="636.5" r="1.5"/>
<circle class="st9" cx="1187.5" cy="623.5" r="1.5"/>
<circle class="st9" cx="1197.5" cy="623.5" r="1.5"/>
<circle class="st9" cx="1182.5" cy="618.5" r="1.5"/>
<circle class="st9" cx="1187.5" cy="618.5" r="1.5"/>
<circle class="st9" cx="1192.5" cy="618.5" r="1.5"/>
<circle class="st9" cx="1192.5" cy="613.5" r="1.5"/>
<circle class="st9" cx="1197.5" cy="613.5" r="1.5"/>
<circle class="st9" cx="1182.5" cy="608.5" r="1.5"/>
<circle class="st9" cx="1187.5" cy="608.5" r="1.5"/>
<circle class="st9" cx="1197.5" cy="608.5" r="1.5"/>
<circle class="st9" cx="1182.5" cy="603.5" r="1.5"/>
<circle class="st9" cx="1187.5" cy="603.5" r="1.5"/>
<circle class="st9" cx="1192.5" cy="603.5" r="1.5"/>
<circle class="st9" cx="1182.5" cy="717.5" r="1.5"/>
<circle class="st9" cx="1192.5" cy="717.5" r="1.5"/>
<circle class="st9" cx="1182.5" cy="712.5" r="1.5"/>
<circle class="st9" cx="1192.5" cy="712.5" r="1.5"/>
<circle class="st9" cx="1197.5" cy="712.5" r="1.5"/>
<circle class="st9" cx="1182.5" cy="707.5" r="1.5"/>
<circle class="st9" cx="1187.5" cy="707.5" r="1.5"/>
<circle class="st9" cx="1192.5" cy="707.5" r="1.5"/>
<circle class="st9" cx="1187.5" cy="702.5" r="1.5"/>
<circle class="st9" cx="1192.5" cy="689.5" r="1.5"/>
<circle class="st9" cx="1182.5" cy="689.5" r="1.5"/>
<circle class="st9" cx="1197.5" cy="684.5" r="1.5"/>
<circle class="st9" cx="1192.5" cy="684.5" r="1.5"/>
<circle class="st9" cx="1187.5" cy="684.5" r="1.5"/>
<circle class="st9" cx="1187.5" cy="679.5" r="1.5"/>
<circle class="st9" cx="1182.5" cy="679.5" r="1.5"/>
<circle class="st9" cx="1197.5" cy="674.5" r="1.5"/>
<circle class="st9" cx="1192.5" cy="674.5" r="1.5"/>
<circle class="st9" cx="1182.5" cy="674.5" r="1.5"/>
<circle class="st9" cx="1197.5" cy="669.5" r="1.5"/>
<circle class="st9" cx="1192.5" cy="669.5" r="1.5"/>
<circle class="st9" cx="1187.5" cy="669.5" r="1.5"/>
<path class="st16" d="M1600.9,979.8L1600.9,979.8c-8.8-8.7-22.8-8.7-31.5-0.1l-0.1,0.1c-8.7,8.7-8.7,22.8-0.1,31.5l0.1,0.1
	c8.7,8.7,22.9,8.7,31.6,0l0.1-0.1C1609.7,1002.6,1609.6,988.5,1600.9,979.8z"/>
<g>
	<rect x="660" y="60.2" class="st9" width="240" height="7.5"/>
</g>
<g>
	<rect x="660" y="80.2" class="st9" width="180" height="7.5"/>
</g>
<g>
	<rect x="660" y="100.2" class="st9" width="60" height="7.5"/>
</g>
<g>
	<rect x="660" y="120.2" class="st9" width="120" height="7.5"/>
</g>
<g>
	<rect x="660" y="140.2" class="st9" width="240" height="7.5"/>
</g>
<g>
	<rect x="660" y="160.2" class="st9" width="120" height="7.5"/>
</g>
<g>
	<rect x="660" y="180.2" class="st9" width="60" height="7.5"/>
</g>
<g>
	<rect x="660" y="200.2" class="st9" width="180" height="7.5"/>
</g>
<g>
	<rect x="660" y="220.2" class="st9" width="240" height="7.5"/>
</g>
<g>
	<rect x="660" y="240.2" class="st9" width="120" height="7.5"/>
</g>
<g>
	<rect x="660" y="260.2" class="st9" width="60" height="7.5"/>
</g>
<g>
	<rect x="660" y="280.2" class="st9" width="180" height="7.5"/>
</g>
<g>
	<rect x="660" y="300.2" class="st9" width="240" height="7.5"/>
</g>
<path class="st9" d="M1020.1,79H963c-0.5,0-1-0.4-1-1l0,0c0-0.5,0.4-1,1-1h57.2c0.5,0,1,0.4,1,1l0,0
	C1021.1,78.5,1020.7,79,1020.1,79z"/>
<path class="st9" d="M990.8,82.4H963c-0.5,0-1-0.4-1-1l0,0c0-0.5,0.4-1,1-1h27.8c0.5,0,1,0.4,1,1l0,0
	C991.8,81.9,991.4,82.4,990.8,82.4z"/>
<path class="st9" d="M1049.5,88.7h-57.2c-0.5,0-1-0.4-1-1l0,0c0-0.5,0.4-1,1-1h57.2c0.5,0,1,0.4,1,1l0,0
	C1050.4,88.3,1050,88.7,1049.5,88.7z"/>
<path class="st9" d="M1020.1,92.1h-27.8c-0.5,0-1-0.4-1-1l0,0c0-0.5,0.4-1,1-1h27.8c0.5,0,1,0.4,1,1l0,0
	C1021.1,91.7,1020.7,92.1,1020.1,92.1z"/>
<path class="st9" d="M1049.5,98.5h-57.2c-0.5,0-1-0.4-1-1l0,0c0-0.5,0.4-1,1-1h57.2c0.5,0,1,0.4,1,1l0,0
	C1050.4,98.1,1050,98.5,1049.5,98.5z"/>
<path class="st9" d="M1020.1,101.9h-27.8c-0.5,0-1-0.4-1-1l0,0c0-0.5,0.4-1,1-1h27.8c0.5,0,1,0.4,1,1l0,0
	C1021.1,101.5,1020.7,101.9,1020.1,101.9z"/>
<path class="st9" d="M1049.5,108.3h-57.2c-0.5,0-1-0.4-1-1l0,0c0-0.5,0.4-1,1-1h57.2c0.5,0,1,0.4,1,1l0,0
	C1050.4,107.8,1050,108.3,1049.5,108.3z"/>
<path class="st9" d="M1020.1,111.7h-27.8c-0.5,0-1-0.4-1-1l0,0c0-0.5,0.4-1,1-1h27.8c0.5,0,1,0.4,1,1l0,0
	C1021.1,111.2,1020.7,111.7,1020.1,111.7z"/>
<path class="st9" d="M1078.8,118h-57.2c-0.5,0-1-0.4-1-1l0,0c0-0.5,0.4-1,1-1h57.2c0.5,0,1,0.4,1,1l0,0
	C1079.7,117.6,1079.3,118,1078.8,118z"/>
<path class="st9" d="M1049.5,121.5h-27.8c-0.5,0-1-0.4-1-1l0,0c0-0.5,0.4-1,1-1h27.8c0.5,0,1,0.4,1,1l0,0
	C1050.4,121,1050,121.5,1049.5,121.5z"/>
<path class="st9" d="M1078.8,127.8h-57.2c-0.5,0-1-0.4-1-1l0,0c0-0.5,0.4-1,1-1h57.2c0.5,0,1,0.4,1,1l0,0
	C1079.7,127.4,1079.3,127.8,1078.8,127.8z"/>
<path class="st9" d="M1049.5,131.2h-27.8c-0.5,0-1-0.4-1-1l0,0c0-0.5,0.4-1,1-1h27.8c0.5,0,1,0.4,1,1l0,0
	C1050.4,130.8,1050,131.2,1049.5,131.2z"/>
<circle class="st9" cx="964.5" cy="61.5" r="1.5"/>
<circle class="st9" cx="964.5" cy="66.5" r="1.5"/>
<circle class="st9" cx="969.5" cy="61.5" r="1.5"/>
<circle class="st9" cx="969.5" cy="66.5" r="1.5"/>
<circle class="st9" cx="974.5" cy="61.5" r="1.5"/>
<circle class="st9" cx="974.5" cy="66.5" r="1.5"/>
<circle class="st9" cx="979.5" cy="61.5" r="1.5"/>
<circle class="st9" cx="984.5" cy="61.5" r="1.5"/>
<circle class="st9" cx="984.5" cy="66.5" r="1.5"/>
<circle class="st9" cx="989.5" cy="66.5" r="1.5"/>
<circle class="st9" cx="994.5" cy="61.5" r="1.5"/>
<circle class="st9" cx="999.5" cy="61.5" r="1.5"/>
<circle class="st9" cx="999.5" cy="66.5" r="1.5"/>
<circle class="st9" cx="1004.5" cy="66.5" r="1.5"/>
<circle class="st9" cx="1009.5" cy="61.5" r="1.5"/>
<circle class="st9" cx="1009.5" cy="66.5" r="1.5"/>
<circle class="st9" cx="1014.5" cy="61.5" r="1.5"/>
<circle class="st9" cx="1014.5" cy="66.5" r="1.5"/>
<circle class="st9" cx="1019.5" cy="61.5" r="1.5"/>
<circle class="st9" cx="1019.5" cy="66.5" r="1.5"/>
<line class="st0" x1="60" y1="302" x2="180" y2="302"/>
<line class="st1" x1="60" y1="282" x2="180" y2="282"/>
<line class="st2" x1="60" y1="262" x2="180" y2="262"/>
<line class="st3" x1="60" y1="242" x2="180" y2="242"/>
<line class="st4" x1="60" y1="222" x2="180" y2="222"/>
<line class="st5" x1="60" y1="202" x2="180" y2="202"/>
<line class="st6" x1="60" y1="182" x2="180" y2="182"/>
<line class="st7" x1="60" y1="162" x2="180" y2="162"/>
<line class="st2" x1="60" y1="142" x2="180" y2="142"/>
<line class="st1" x1="60" y1="122" x2="180" y2="122"/>
<line class="st8" x1="60" y1="102" x2="180" y2="102"/>
<line class="st8" x1="60" y1="82" x2="180" y2="82"/>
<line class="st0" x1="60" y1="62" x2="180" y2="62"/>
<g>
	<path class="st9" d="M62.1,902.2h-1.9v-0.6h1.9v-2h0.6v2h1.9v0.6h-1.9v2h-0.6V902.2z"/>
</g>
<g>
	<path class="st9" d="M91.3,902.2h-1.9v-0.6h1.9v-2h0.6v2h1.9v0.6h-1.9v2h-0.6V902.2z"/>
</g>
<g>
	<path class="st9" d="M120.4,902.2h-1.9v-0.6h1.9v-2h0.6v2h1.9v0.6H121v2h-0.6V902.2z"/>
</g>
<g>
	<path class="st9" d="M149.6,902.2h-1.9v-0.6h1.9v-2h0.6v2h1.9v0.6h-1.9v2h-0.6V902.2z"/>
</g>
<g>
	<path class="st9" d="M178.7,902.2h-1.9v-0.6h1.9v-2h0.6v2h1.9v0.6h-1.9v2h-0.6V902.2z"/>
</g>
<g>
	<path class="st9" d="M62.1,931.3h-1.9v-0.6h1.9v-2h0.6v2h1.9v0.6h-1.9v2h-0.6V931.3z"/>
</g>
<g>
	<path class="st9" d="M91.3,931.3h-1.9v-0.6h1.9v-2h0.6v2h1.9v0.6h-1.9v2h-0.6V931.3z"/>
</g>
<g>
	<path class="st9" d="M120.4,931.3h-1.9v-0.6h1.9v-2h0.6v2h1.9v0.6H121v2h-0.6V931.3z"/>
</g>
<g>
	<path class="st9" d="M149.6,931.3h-1.9v-0.6h1.9v-2h0.6v2h1.9v0.6h-1.9v2h-0.6V931.3z"/>
</g>
<g>
	<path class="st9" d="M178.7,931.3h-1.9v-0.6h1.9v-2h0.6v2h1.9v0.6h-1.9v2h-0.6V931.3z"/>
</g>
<g>
	<path class="st9" d="M62.1,960.5h-1.9v-0.6h1.9v-2h0.6v2h1.9v0.6h-1.9v2h-0.6V960.5z"/>
</g>
<g>
	<path class="st9" d="M91.3,960.5h-1.9v-0.6h1.9v-2h0.6v2h1.9v0.6h-1.9v2h-0.6V960.5z"/>
</g>
<g>
	<path class="st9" d="M120.4,960.5h-1.9v-0.6h1.9v-2h0.6v2h1.9v0.6H121v2h-0.6V960.5z"/>
</g>
<g>
	<path class="st9" d="M149.6,960.5h-1.9v-0.6h1.9v-2h0.6v2h1.9v0.6h-1.9v2h-0.6V960.5z"/>
</g>
<g>
	<path class="st9" d="M178.7,960.5h-1.9v-0.6h1.9v-2h0.6v2h1.9v0.6h-1.9v2h-0.6V960.5z"/>
</g>
<g>
	<path class="st9" d="M62.1,989.6h-1.9V989h1.9v-2h0.6v2h1.9v0.6h-1.9v2h-0.6V989.6z"/>
</g>
<g>
	<path class="st9" d="M91.3,989.6h-1.9V989h1.9v-2h0.6v2h1.9v0.6h-1.9v2h-0.6V989.6z"/>
</g>
<g>
	<path class="st9" d="M120.4,989.6h-1.9V989h1.9v-2h0.6v2h1.9v0.6H121v2h-0.6V989.6z"/>
</g>
<g>
	<path class="st9" d="M149.6,989.6h-1.9V989h1.9v-2h0.6v2h1.9v0.6h-1.9v2h-0.6V989.6z"/>
</g>
<g>
	<path class="st9" d="M178.7,989.6h-1.9V989h1.9v-2h0.6v2h1.9v0.6h-1.9v2h-0.6V989.6z"/>
</g>
<g>
	<path class="st9" d="M62.1,1019.3h-1.9v-0.6h1.9v-2h0.6v2h1.9v0.6h-1.9v2h-0.6V1019.3z"/>
</g>
<g>
	<path class="st9" d="M91.3,1019.3h-1.9v-0.6h1.9v-2h0.6v2h1.9v0.6h-1.9v2h-0.6V1019.3z"/>
</g>
<g>
	<path class="st9" d="M120.4,1019.3h-1.9v-0.6h1.9v-2h0.6v2h1.9v0.6H121v2h-0.6V1019.3z"/>
</g>
<g>
	<path class="st9" d="M149.6,1019.3h-1.9v-0.6h1.9v-2h0.6v2h1.9v0.6h-1.9v2h-0.6V1019.3z"/>
</g>
<g>
	<path class="st9" d="M178.7,1019.3h-1.9v-0.6h1.9v-2h0.6v2h1.9v0.6h-1.9v2h-0.6V1019.3z"/>
</g>
</svg>
