<?xml version="1.0" encoding="utf-8"?>
<!-- Generator: Adobe Illustrator 23.0.0, SVG Export Plug-In . SVG Version: 6.00 Build 0)  -->
<svg version="1.1" id="Layer_2" xmlns="http://www.w3.org/2000/svg" xmlns:xlink="http://www.w3.org/1999/xlink" x="0px" y="0px"
	 viewBox="0 0 1920 1080" style="enable-background:new 0 0 1920 1080;" xml:space="preserve">
<style type="text/css">
	.st0{fill:#FFFFFF;}
	.st1{font-family:'NHaasGroteskDSPro-65Md';}
	.st2{font-size:48px;}
	.st3{letter-spacing:-1;}
	.st4{fill:none;stroke:#FFFFFF;stroke-miterlimit:10;}
	.st5{fill:#E5E5E5;}
	.st6{fill:none;}
	.st7{fill:#CBCBCB;}
	.st8{fill:none;stroke:#B2B2B2;stroke-width:10;stroke-miterlimit:10;}
	.st9{fill:none;stroke:#FFFFFF;stroke-width:10;stroke-miterlimit:10;}
	.st10{fill:none;stroke:#B2B2B2;stroke-width:3;stroke-miterlimit:10;}
	.st11{font-family:'PTMono-Regular';}
	.st12{font-size:12px;}
	.st13{font-size:24px;}
	.st14{fill:none;stroke:#FFFFFF;stroke-width:7;stroke-miterlimit:10;}
</style>
<text transform="matrix(1 0 0 1 1591.4795 243.0034)" class="st0 st1 st2 st3">Your Talk Here</text>
<path class="st4" d="M1859.5,60.5h-118.3c0,0-0.4,23.7,0,23.7s118.3,0,118.3,0v23.7h-118.3v23.7h118.3v23.7h-118.3v23.3h118.3"/>
<polygon class="st0" points="1082.1,360 1142.6,360 1263.7,481.1 1142.1,602.7 1082.1,602.7 1204.4,480.3 "/>
<polygon class="st0" points="961,360 1021.5,360 1142.6,481.1 1021,602.7 961,602.7 1083.3,480.3 "/>
<polygon class="st0" points="1320.8,360 1381.3,360 1502.4,481.1 1380.8,602.7 1320.8,602.7 1443.1,480.3 "/>
<polygon class="st0" points="1199.7,360 1260.2,360 1381.3,481.1 1259.7,602.7 1199.7,602.7 1322.1,480.3 "/>
<polygon class="st5" points="362.7,272.4 362.7,242.8 421.9,183.7 481,242.8 481,302 422.1,243.1 362,303.2 "/>
<polygon class="st5" points="480.3,91.8 480.3,121.4 421.1,180.5 362,121.4 362,62.2 420.9,121.1 481,61 "/>
<polygon class="st5" points="362.7,362.4 362.7,332.8 421.9,273.7 481,332.8 481,392 422.1,333.1 362,393.2 "/>
<path class="st5" d="M365.1,511L365.1,511c-2.2,0-4.1-1.8-4.1-4.1v-21.9c0-2.2,1.8-4.1,4.1-4.1h0c2.2,0,4.1,1.8,4.1,4.1v21.9
	C369.1,509.2,367.3,511,365.1,511z"/>
<path class="st5" d="M365.1,551.7L365.1,551.7c-2.2,0-4.1-1.8-4.1-4.1v-21.9c0-2.2,1.8-4.1,4.1-4.1h0c2.2,0,4.1,1.8,4.1,4.1v21.9
	C369.1,549.9,367.3,551.7,365.1,551.7z"/>
<path class="st5" d="M365.1,592.4L365.1,592.4c-2.2,0-4.1-1.8-4.1-4.1v-21.9c0-2.2,1.8-4.1,4.1-4.1h0c2.2,0,4.1,1.8,4.1,4.1v21.9
	C369.1,590.5,367.3,592.4,365.1,592.4z"/>
<path class="st5" d="M382.4,531.3L382.4,531.3c-2.2,0-4.1-1.8-4.1-4.1v-21.9c0-2.2,1.8-4.1,4.1-4.1l0,0c2.2,0,4.1,1.8,4.1,4.1v21.9
	C386.4,529.5,384.6,531.3,382.4,531.3z"/>
<path class="st5" d="M382.4,572L382.4,572c-2.2,0-4.1-1.8-4.1-4.1v-21.9c0-2.2,1.8-4.1,4.1-4.1l0,0c2.2,0,4.1,1.8,4.1,4.1v21.9
	C386.4,570.2,384.6,572,382.4,572z"/>
<path class="st5" d="M382.4,612.7L382.4,612.7c-2.2,0-4.1-1.8-4.1-4.1v-21.9c0-2.2,1.8-4.1,4.1-4.1l0,0c2.2,0,4.1,1.8,4.1,4.1v21.9
	C386.4,610.9,384.6,612.7,382.4,612.7z"/>
<path class="st5" d="M399.6,546.6L399.6,546.6c-2.2,0-4.1-1.8-4.1-4.1v-21.9c0-2.2,1.8-4.1,4.1-4.1l0,0c2.2,0,4.1,1.8,4.1,4.1v21.9
	C403.7,544.8,401.9,546.6,399.6,546.6z"/>
<path class="st5" d="M399.6,587.3L399.6,587.3c-2.2,0-4.1-1.8-4.1-4.1v-21.9c0-2.2,1.8-4.1,4.1-4.1l0,0c2.2,0,4.1,1.8,4.1,4.1v21.9
	C403.7,585.4,401.9,587.3,399.6,587.3z"/>
<path class="st5" d="M399.6,627.9L399.6,627.9c-2.2,0-4.1-1.8-4.1-4.1V602c0-2.2,1.8-4.1,4.1-4.1l0,0c2.2,0,4.1,1.8,4.1,4.1v21.9
	C403.7,626.1,401.9,627.9,399.6,627.9z"/>
<path class="st5" d="M416.9,526.3L416.9,526.3c-2.2,0-4.1-1.8-4.1-4.1v-21.9c0-2.2,1.8-4.1,4.1-4.1h0c2.2,0,4.1,1.8,4.1,4.1v21.9
	C421,524.4,419.2,526.3,416.9,526.3z"/>
<path class="st5" d="M416.9,566.9L416.9,566.9c-2.2,0-4.1-1.8-4.1-4.1V541c0-2.2,1.8-4.1,4.1-4.1h0c2.2,0,4.1,1.8,4.1,4.1v21.9
	C421,565.1,419.2,566.9,416.9,566.9z"/>
<path class="st5" d="M416.9,607.6L416.9,607.6c-2.2,0-4.1-1.8-4.1-4.1v-21.9c0-2.2,1.8-4.1,4.1-4.1h0c2.2,0,4.1,1.8,4.1,4.1v21.9
	C421,605.8,419.2,607.6,416.9,607.6z"/>
<path class="st5" d="M1863,840.5L1863,840.5c0,4.7-3.8,8.5-8.5,8.5h-582c-4.7,0-8.5-3.8-8.5-8.5l0,0c0-4.7,3.8-8.5,8.5-8.5h582
	C1859.2,832,1863,835.8,1863,840.5z"/>
<path class="st5" d="M1305.2,876.7L1305.2,876.7c-3.3,3.3-8.7,3.3-12,0l-30.4-30.4c-3.3-3.3-3.3-8.7,0-12l0,0c3.3-3.3,8.7-3.3,12,0
	l30.4,30.4C1308.5,868,1308.5,873.4,1305.2,876.7z"/>
<path class="st5" d="M1305.2,804.3L1305.2,804.3c-3.3-3.3-8.7-3.3-12,0l-30.4,30.4c-3.3,3.3-3.3,8.7,0,12l0,0c3.3,3.3,8.7,3.3,12,0
	l30.4-30.4C1308.5,813,1308.5,807.6,1305.2,804.3z"/>
<path class="st5" d="M1127.2,953.7L1127.2,953.7c-3.3,3.3-8.7,3.3-12,0l-30.4-30.4c-3.3-3.3-3.3-8.7,0-12l0,0c3.3-3.3,8.7-3.3,12,0
	l30.4,30.4C1130.5,945,1130.5,950.4,1127.2,953.7z"/>
<path class="st5" d="M1127.2,881.3L1127.2,881.3c-3.3-3.3-8.7-3.3-12,0l-30.4,30.4c-3.3,3.3-3.3,8.7,0,12l0,0c3.3,3.3,8.7,3.3,12,0
	l30.4-30.4C1130.5,890,1130.5,884.6,1127.2,881.3z"/>
<path class="st5" d="M1852.5,909h-176h-406h-176c-4.7,0-8.5,3.8-8.5,8.5c0,4.7,3.8,8.5,8.5,8.5h176h406h176c4.7,0,8.5-3.8,8.5-8.5
	C1861,912.8,1857.2,909,1852.5,909z"/>
<path class="st5" d="M84,991.5l24.2-24.2c3.3-3.3,3.3-8.7,0-12s-8.7-3.3-12,0L67.5,984c-0.6,0.4-1.2,0.8-1.7,1.3
	c-1.7,1.7-2.5,4-2.5,6.2c-0.1,2.2,0.8,4.5,2.5,6.2c0.5,0.5,1.1,1,1.7,1.3l28.7,28.7c3.3,3.3,8.7,3.3,12,0c3.3-3.3,3.3-8.7,0-12
	L84,991.5z"/>
<path class="st5" d="M1860,991.5L1860,991.5c0,1.8-1.5,3.3-3.3,3.3h-592.5c-1.8,0-3.3-1.5-3.3-3.3l0,0c0-1.8,1.5-3.3,3.3-3.3h592.5
	C1858.5,988.2,1860,989.7,1860,991.5z"/>
<path class="st0" d="M1792.9,778.9v5.9v4.3v3v3.1v3v4.4v5.9h29.8v-5.9v-4.4v-3v-3.1v-3v-4.3v-5.9H1792.9z M1816.9,802.5h-18.2v-4.4
	h18.2V802.5z M1816.9,795.1h-18.2v-3.1h18.2V795.1z M1816.9,789.1h-18.2v-4.3h18.2V789.1z"/>
<path class="st0" d="M1861.1,778.7h-5.9h-4.3h-3h-3.1h-3h-4.4h-5.9v29.8h5.9h4.4h3h3.1h3h4.3h5.9V778.7z M1837.4,802.6v-18.2h4.4
	v18.2H1837.4z M1844.8,802.6v-18.2h3.1v18.2H1844.8z M1850.8,802.6v-18.2h4.3v18.2H1850.8z"/>
<g>
	<path class="st0" d="M1690.2,808.5c-1.4,0-2.7-0.2-3.9-0.5c-1.2-0.4-2.2-0.9-3.1-1.6c-0.9-0.7-1.6-1.5-2.2-2.5
		c-0.6-1-0.9-2.1-1-3.3h5c0.2,1.3,0.8,2.2,1.7,2.8c0.9,0.6,2.1,0.9,3.4,0.9c1.5,0,2.6-0.5,3.4-1.4c0.8-0.9,1.3-2,1.3-3.4
		c0-1.5-0.4-2.7-1.3-3.5c-0.9-0.8-2-1.2-3.3-1.2c-1,0-1.8,0.2-2.5,0.5c-0.7,0.3-1.3,0.7-1.6,1.1h-4.8l2.4-13.8h14.9v4.2h-11.4
		l-1,5.5h0.1c0.6-0.5,1.3-0.9,2.2-1.2c0.9-0.3,1.9-0.4,3.1-0.4c1.1,0,2.2,0.2,3.2,0.6s2,1,2.8,1.8c0.8,0.8,1.4,1.7,1.9,2.8
		c0.5,1.1,0.7,2.3,0.7,3.7c0,1.3-0.3,2.5-0.8,3.6c-0.5,1.1-1.2,2-2.1,2.8c-0.9,0.8-1.9,1.4-3.1,1.8
		C1692.9,808.2,1691.6,808.5,1690.2,808.5z"/>
	<path class="st0" d="M1713,808.5c-1.8,0-3.6-0.3-5.1-1c-1.6-0.7-2.9-1.6-4-2.8c-1.1-1.2-2-2.7-2.6-4.3c-0.6-1.7-0.9-3.5-0.9-5.5
		c0-1.9,0.3-3.8,0.9-5.5c0.6-1.7,1.4-3.2,2.5-4.4c1.1-1.2,2.4-2.2,4-2.9c1.6-0.7,3.3-1.1,5.3-1.1c1.6,0,3.1,0.2,4.4,0.7
		c1.3,0.5,2.4,1.1,3.3,1.9c0.9,0.8,1.7,1.7,2.2,2.8c0.5,1.1,0.9,2.3,1,3.5h-5.3c-0.2-1.3-0.9-2.4-1.8-3.2c-1-0.8-2.2-1.2-3.8-1.2
		c-1.2,0-2.3,0.2-3.2,0.7c-0.9,0.5-1.6,1.1-2.2,2c-0.6,0.8-1,1.8-1.3,3c-0.3,1.1-0.4,2.4-0.4,3.7c0,1.4,0.2,2.6,0.5,3.7
		c0.3,1.1,0.8,2.1,1.4,2.9c0.6,0.8,1.4,1.5,2.3,1.9c0.9,0.5,1.9,0.7,3,0.7c1.6,0,2.9-0.4,3.9-1.3c1-0.8,1.6-2,1.8-3.4h5.2
		c-0.1,1.2-0.4,2.3-0.9,3.4c-0.5,1.1-1.2,2-2.1,2.9c-0.9,0.9-2,1.5-3.3,2.1C1716.4,808.2,1714.9,808.5,1713,808.5z"/>
	<path class="st0" d="M1734,808.5c-1.5,0-2.8-0.3-4-0.8c-1.2-0.5-2.2-1.2-3.1-2.1c-0.9-0.9-1.6-2-2-3.2c-0.5-1.2-0.7-2.5-0.7-3.9
		c0-1.4,0.2-2.7,0.7-3.9c0.5-1.2,1.2-2.3,2-3.2c0.9-0.9,1.9-1.6,3.1-2.1c1.2-0.5,2.6-0.8,4-0.8c1.5,0,2.8,0.3,4,0.8
		c1.2,0.5,2.2,1.2,3.1,2.1c0.9,0.9,1.6,2,2,3.2c0.5,1.2,0.7,2.5,0.7,3.9c0,1.4-0.2,2.7-0.7,3.9c-0.5,1.2-1.2,2.3-2,3.2
		c-0.9,0.9-1.9,1.6-3.1,2.1C1736.8,808.2,1735.5,808.5,1734,808.5z M1734,804.6c1.6,0,2.7-0.6,3.6-1.7c0.8-1.1,1.2-2.6,1.2-4.5
		s-0.4-3.3-1.2-4.5c-0.8-1.1-2-1.7-3.6-1.7c-1.6,0-2.7,0.6-3.6,1.7c-0.8,1.1-1.2,2.6-1.2,4.5s0.4,3.3,1.2,4.5
		C1731.3,804.1,1732.4,804.6,1734,804.6z"/>
	<path class="st0" d="M1749.7,791.5h0.1c0.6-1,1.4-1.8,2.3-2.3c0.9-0.5,2-0.8,3.3-0.8c1,0,1.9,0.2,2.7,0.5c0.8,0.4,1.5,0.8,2.1,1.5
		c0.6,0.6,1,1.4,1.3,2.2c0.3,0.9,0.5,1.8,0.5,2.8v12.4h-5v-11.6c0-1-0.3-1.9-0.9-2.5c-0.6-0.6-1.4-1-2.4-1c-1.1,0-2,0.4-2.8,1.2
		c-0.7,0.8-1.1,1.9-1.1,3.2v10.8h-5v-19h4.9V791.5z"/>
	<path class="st0" d="M1761.4,781.5h8.9v2.4h-3v7.9h-2.9v-7.9h-3V781.5z M1771.9,781.5h4l1.8,6.5h0.1l1.8-6.5h4v10.3h-2.7v-6.7h-0.1
		l-2,6.7h-2.3l-2-6.7h-0.1v6.7h-2.6V781.5z"/>
</g>
<path class="st6" d="M679.1,124c-8.9,0-16.1,7.2-16.1,16.1c0,8.9,7.2,16.1,16.1,16.1c5.3,0,10-2.5,12.9-6.5H682v-15.6h12.1
	C691.7,128.2,685.9,124,679.1,124z"/>
<path class="st0" d="M679.1,156.3c-8.9,0-16.1-7.2-16.1-16.1c0-8.9,7.2-16.1,16.1-16.1c6.8,0,12.6,4.2,15,10.2h4.3
	c-2.5-8.2-10.2-14.2-19.2-14.2c-11.1,0-20.1,9-20.1,20.1s9,20.1,20.1,20.1c7.6,0,14.3-4.2,17.7-10.5h-4.8
	C689.1,153.7,684.4,156.3,679.1,156.3z"/>
<circle class="st7" cx="679.6" cy="140.9" r="6.1"/>
<polyline class="st8" points="679.4,141 724.8,141 724.8,188.4 673.2,240 673.2,1080 "/>
<path class="st6" d="M779.1,124c-8.9,0-16.1,7.2-16.1,16.1c0,8.9,7.2,16.1,16.1,16.1c5.3,0,10-2.5,12.9-6.5H782v-15.6h12.1
	C791.7,128.2,785.9,124,779.1,124z"/>
<path class="st0" d="M779.1,156.3c-8.9,0-16.1-7.2-16.1-16.1c0-8.9,7.2-16.1,16.1-16.1c6.8,0,12.6,4.2,15,10.2h4.3
	c-2.5-8.2-10.2-14.2-19.2-14.2c-11.1,0-20.1,9-20.1,20.1s9,20.1,20.1,20.1c7.6,0,14.3-4.2,17.7-10.5h-4.8
	C789.1,153.7,784.4,156.3,779.1,156.3z"/>
<circle class="st0" cx="779.6" cy="140.9" r="6.1"/>
<polyline class="st9" points="779.4,141 824.8,141 824.8,188.4 773.2,240 "/>
<path class="st5" d="M669,991.5L669,991.5c0,4.7-3.8,8.5-8.5,8.5h-582c-4.7,0-8.5-3.8-8.5-8.5l0,0c0-4.7,3.8-8.5,8.5-8.5h582
	C665.2,983,669,986.8,669,991.5z"/>
<path class="st5" d="M1263,991.5L1263,991.5c0,2.9-2.4,5.3-5.3,5.3H669.3c-2.9,0-5.3-2.4-5.3-5.3l0,0c0-2.9,2.4-5.3,5.3-5.3h588.5
	C1260.6,986.2,1263,988.6,1263,991.5z"/>
<circle class="st10" cx="89.6" cy="869.7" r="28.3"/>
<g>
	<path class="st0" d="M78,873.9c-0.4,0-0.7-0.1-1-0.2c-0.3-0.1-0.6-0.3-0.8-0.5c-0.2-0.2-0.4-0.4-0.5-0.7c-0.1-0.3-0.2-0.6-0.2-0.9
		h0.7c0.1,0.5,0.2,0.9,0.5,1.2c0.3,0.3,0.7,0.4,1.3,0.4c0.3,0,0.5,0,0.8-0.1c0.2-0.1,0.4-0.2,0.6-0.4c0.2-0.2,0.3-0.4,0.4-0.6
		c0.1-0.2,0.1-0.5,0.1-0.8c0-0.3,0-0.6-0.1-0.8c-0.1-0.2-0.2-0.4-0.4-0.6c-0.2-0.2-0.3-0.3-0.6-0.4c-0.2-0.1-0.5-0.1-0.7-0.1
		c-0.4,0-0.8,0.1-1.1,0.2c-0.3,0.2-0.5,0.3-0.6,0.6h-0.7l0.7-4.1h3.9v0.7h-3.3l-0.4,2.6h0c0.2-0.2,0.5-0.3,0.7-0.5
		c0.3-0.1,0.6-0.2,1-0.2c0.3,0,0.6,0.1,0.9,0.2c0.3,0.1,0.5,0.3,0.8,0.5c0.2,0.2,0.4,0.5,0.5,0.8c0.1,0.3,0.2,0.7,0.2,1.1
		c0,0.4-0.1,0.8-0.2,1.1c-0.1,0.3-0.3,0.6-0.5,0.8c-0.2,0.2-0.5,0.4-0.8,0.5C78.7,873.9,78.4,873.9,78,873.9z"/>
	<path class="st0" d="M85,873.9c-0.6,0-1.1-0.1-1.5-0.3c-0.4-0.2-0.8-0.5-1.1-0.9c-0.3-0.4-0.6-0.8-0.7-1.3
		c-0.2-0.5-0.3-1.1-0.3-1.7c0-0.6,0.1-1.2,0.3-1.7c0.2-0.5,0.4-1,0.7-1.3c0.3-0.4,0.7-0.7,1.2-0.9c0.5-0.2,1-0.3,1.5-0.3
		c0.9,0,1.6,0.2,2.1,0.7c0.5,0.4,0.9,1,1,1.8h-0.7c-0.1-0.5-0.4-1-0.8-1.3c-0.4-0.3-0.9-0.5-1.6-0.5c-0.5,0-0.9,0.1-1.2,0.3
		c-0.4,0.2-0.7,0.4-0.9,0.8c-0.2,0.3-0.4,0.7-0.5,1.1c-0.1,0.4-0.2,0.9-0.2,1.4c0,0.5,0.1,1,0.2,1.4c0.1,0.4,0.3,0.8,0.5,1.1
		c0.2,0.3,0.5,0.6,0.9,0.7c0.4,0.2,0.8,0.3,1.2,0.3c0.4,0,0.7-0.1,1-0.2c0.3-0.1,0.6-0.3,0.8-0.5c0.2-0.2,0.4-0.5,0.5-0.8
		c0.1-0.3,0.2-0.6,0.2-0.9h0.7c0,0.4-0.1,0.8-0.3,1.2c-0.1,0.4-0.3,0.7-0.6,1c-0.3,0.3-0.6,0.6-1,0.7C86,873.8,85.5,873.9,85,873.9z
		"/>
	<path class="st0" d="M92.7,873.9c-0.6,0-1.1-0.1-1.5-0.3c-0.5-0.2-0.9-0.5-1.2-0.9c-0.3-0.4-0.6-0.8-0.8-1.3
		c-0.2-0.5-0.3-1.1-0.3-1.7s0.1-1.2,0.3-1.7c0.2-0.5,0.4-1,0.8-1.3c0.3-0.4,0.7-0.7,1.2-0.9c0.5-0.2,1-0.3,1.5-0.3
		c0.6,0,1.1,0.1,1.6,0.3c0.5,0.2,0.9,0.5,1.2,0.9c0.3,0.4,0.6,0.8,0.8,1.3c0.2,0.5,0.3,1.1,0.3,1.7s-0.1,1.2-0.3,1.7
		c-0.2,0.5-0.4,1-0.8,1.3c-0.3,0.4-0.7,0.7-1.2,0.9C93.8,873.8,93.3,873.9,92.7,873.9z M92.7,873.3c0.5,0,0.9-0.1,1.3-0.3
		c0.4-0.2,0.7-0.4,0.9-0.8c0.3-0.3,0.4-0.7,0.6-1.1s0.2-0.9,0.2-1.4s-0.1-1-0.2-1.4c-0.1-0.4-0.3-0.8-0.6-1.1
		c-0.3-0.3-0.6-0.6-0.9-0.8c-0.4-0.2-0.8-0.3-1.3-0.3s-0.9,0.1-1.3,0.3c-0.4,0.2-0.7,0.4-0.9,0.8c-0.2,0.3-0.4,0.7-0.6,1.1
		c-0.1,0.4-0.2,0.9-0.2,1.4s0.1,0.9,0.2,1.4c0.1,0.4,0.3,0.8,0.6,1.1c0.2,0.3,0.6,0.6,0.9,0.8C91.8,873.2,92.3,873.3,92.7,873.3z"/>
	<path class="st0" d="M97.7,865.7h0.8l3.7,5.7c0.1,0.2,0.2,0.3,0.3,0.5c0.1,0.2,0.2,0.3,0.3,0.4c0.1,0.2,0.2,0.3,0.2,0.4h0v-7h0.7
		v8.1H103l-3.7-5.6c-0.1-0.1-0.2-0.3-0.3-0.5c-0.1-0.2-0.2-0.3-0.3-0.4c-0.1-0.2-0.2-0.3-0.3-0.5h0v7h-0.7V865.7z"/>
</g>
<path class="st6" d="M82.7,199.3c5.2-5.7,7.9-13.1,7.9-22.2c0-9.3-2.7-16.5-8.1-21.8c-5.4-5.2-12.5-7.9-21.3-7.9c-0.1,0-0.1,0-0.2,0
	v60.4c0.1,0,0.3,0,0.4,0C70.4,207.8,77.5,205,82.7,199.3z"/>
<path class="st6" d="M1837.8,546.3h0.5c3.2-2.9,7.7-5.3,13.3-7.4c2.6-0.9,5.5-1.6,8.6-2.2v-21.5h-16.3L1837.8,546.3z"/>
<g>
	<rect x="61" y="59" class="st0" width="62.9" height="35.4"/>
</g>
<path class="st0" d="M1840.4,619.5c-5.7-3.6-9.2-9.2-10.5-16.6H1788c1,9.3,3.6,17.5,7.6,24.5c4.1,7,9.3,12.9,15.7,17.5
	c6.4,4.7,13.9,8.2,22.5,10.5c8.1,2.3,16.9,3.4,26.4,3.5v-34C1852.6,624.9,1846,623.1,1840.4,619.5z"/>
<path class="st7" d="M1851.6,538.9c-5.7,2-10.1,4.5-13.3,7.4h-0.5l6.1-31h16.3V481h-47.1l-17.8,96.2h40.1c2.4-2.9,5.7-5.4,10-7.5
	c4.3-2.1,9.2-3.1,14.7-3.2v-29.8C1857.1,537.3,1854.2,538,1851.6,538.9z"/>
<path class="st7" d="M130.3,151.8c-3.2-7.6-7.7-14.1-13.3-19.4c-5.6-5.3-12.2-9.4-19.7-12.3c-7.5-2.9-15.6-4.3-24.1-4.3
	c-4.4,0-8.5,0.3-12.3,0.9v30.8c0.1,0,0.1,0,0.2,0c8.7,0,15.8,2.6,21.3,7.9c5.4,5.2,8.1,12.5,8.1,21.8c0,9.1-2.6,16.5-7.9,22.2
	c-5.2,5.7-12.3,8.5-21.3,8.5c-0.1,0-0.3,0-0.4,0V243c0.5,0,1,0,1.5,0c10.7,0,20.5-1.5,29.4-4.6c8.9-3.1,16.6-7.5,23.1-13.3
	c6.5-5.8,11.5-12.7,15-20.7c3.5-8,5.2-17.1,5.2-27C135.2,167.9,133.6,159.4,130.3,151.8z"/>
<path class="st6" d="M1169.4,88.4c6.6,0,11.5-2.6,14.9-7.8c3.3-5.1,5-11.8,5-20.2h-39.6c0,8.4,1.7,15.1,4.9,20.2
	C1157.9,85.8,1162.8,88.4,1169.4,88.4z"/>
<path class="st6" d="M1189.3,60.1c0-8.5-1.7-15.4-5-20.6c-3.3-5.2-8.3-7.9-14.9-7.9c-6.6,0-11.5,2.6-14.8,7.9
	c-3.3,5.2-4.9,12.1-4.9,20.6c0,0.1,0,0.2,0,0.4h39.6C1189.3,60.3,1189.3,60.2,1189.3,60.1z"/>
<path class="st6" d="M1286.6,39.8c-2.4-3-6.1-4.6-11-4.6c-5,0-9,1.8-12,5.5c-3,3.7-4.5,8.4-4.5,14.2v5.5h31v-8.6
	C1290.2,46.8,1289,42.8,1286.6,39.8z"/>
<path class="st0" d="M1023.7,79.7c2.4,6,5.7,11.3,10,15.7c4.3,4.4,9.5,7.9,15.6,10.4c6.1,2.5,12.9,3.7,20.5,3.7c6.6,0,12.6-1,18-2.9
	c5.4-1.9,10-4.7,13.9-8.1c3.8-3.5,6.8-7.5,8.9-12.2c2.1-4.7,3.3-9.7,3.6-15.1h-28.5c-1.3,10.7-6.8,16.1-16.3,16.1
	c-6.5,0-11.3-2.4-14.4-7.3c-3.1-4.8-4.7-11.3-4.7-19.5h-30.1C1020.2,67.3,1021.4,73.8,1023.7,79.7z"/>
<path class="st0" d="M1184.2,80.6c-3.3,5.2-8.3,7.8-14.9,7.8c-6.6,0-11.5-2.6-14.8-7.8c-3.2-5.1-4.9-11.8-4.9-20.2h-30.1
	c0,6.9,1.2,13.3,3.6,19.3c2.4,6,5.8,11.3,10.1,15.7c4.4,4.4,9.6,7.9,15.8,10.4c6.1,2.5,13,3.7,20.5,3.7c7.5,0,14.4-1.2,20.5-3.7
	c6.1-2.5,11.4-6,15.7-10.4c4.3-4.4,7.7-9.7,10-15.7c2.3-5.9,3.5-12.3,3.6-19.3h-30.1C1189.2,68.8,1187.5,75.5,1184.2,80.6z"/>
<g>
	<rect x="1229.4" y="60.4" class="st0" width="29.8" height="46.2"/>
</g>
<g>
	<rect x="1290.2" y="60.4" class="st0" width="29.8" height="46.2"/>
</g>
<path class="st0" d="M581.6,865.4c-4.9-3.2-7.4-8-7.4-14.4c0-4.3,1.2-7.6,3.7-10.1c2.5-2.5,5.9-4.2,10.1-5.2V807
	c-5.2,0.7-10,2.3-14.4,4.6c-4.4,2.3-8.2,5.4-11.3,9.1c-3.2,3.8-5.6,8.2-7.4,13.4c-1.8,5.2-2.6,10.9-2.6,17.3
	c0,7.4,1.2,14.2,3.7,20.2c2.5,6,6,11.2,10.4,15.4c4.4,4.3,9.7,7.5,15.7,9.9c6,2.3,12.6,3.5,19.6,3.5c0.1,0,0.2,0,0.4,0v-30.1
	c-0.1,0-0.2,0-0.4,0C593.2,870.2,586.5,868.6,581.6,865.4z"/>
<path class="st0" d="M582.1,704.7c-6,2.4-11.3,5.7-15.7,10c-4.4,4.3-7.9,9.6-10.4,15.7c-2.5,6.1-3.7,13-3.7,20.5
	c0,7.5,1.2,14.4,3.7,20.5c2.5,6.1,6,11.4,10.4,15.8c4.4,4.4,9.7,7.8,15.7,10.1c6,2.4,12.6,3.6,19.6,3.6c0.1,0,0.2,0,0.4,0v-30.1
	c-0.1,0-0.2,0-0.4,0c-8.5,0-15.4-1.6-20.6-4.9c-5.2-3.3-7.9-8.2-7.9-14.8c0-6.6,2.6-11.5,7.9-14.9c5.2-3.3,12.1-5,20.6-5
	c0.1,0,0.2,0,0.4,0v-30.1c-0.1,0-0.2,0-0.4,0C594.7,701.1,588.1,702.3,582.1,704.7z"/>
<path class="st0" d="M587.5,600.5c-5.2,0-10,0.7-14.3,2.2c-4.3,1.5-8,3.6-11.1,6.4c-3.1,2.8-5.5,6.2-7.3,10.2
	c-1.8,4-2.6,8.6-2.6,13.7c0,6.6,1.3,12.1,3.9,16.7c2.6,4.6,6.5,8.6,11.6,12.1v0.5h-12.8v28.7h47.3v-29.8h-5.5
	c-5.8,0-10.6-1.5-14.2-4.5c-3.7-3-5.5-7-5.5-12c0-4.9,1.5-8.5,4.6-11c3-2.4,7.1-3.7,12.1-3.7h8.6v-29.8H587.5z"/>
<rect x="960.5" y="660.5" class="st6" width="540" height="84.7"/>
<text transform="matrix(1 0 0 1 960.5 668.9004)"><tspan x="0" y="0" class="st0 st11 st12">The Supplyframe DesignLab is once again opening their doors for Supercon. </tspan><tspan x="0" y="14.4" class="st0 st11 st12">This, combined with the excellent performance hall in the adjoining LA Col</tspan><tspan x="532.8" y="14.4" class="st0 st11 st12">-</tspan><tspan x="0" y="28.8" class="st0 st11 st12">lege of Music and the private outdoor venue that connects the two, and you </tspan><tspan x="0" y="43.2" class="st0 st11 st12">have the perfect scene for a hacker village to take shape.</tspan></text>
<path class="st0" d="M839.8,779.8c-33.7,0-61,27.3-61,61c0,33.7,27.3,61,61,61s61-27.3,61-61C900.8,807.1,873.4,779.8,839.8,779.8z
	 M839.8,886.5c-25.3,0-45.8-20.5-45.8-45.8s20.5-45.8,45.8-45.8s45.8,20.5,45.8,45.8S865,886.5,839.8,886.5z"/>
<g>
	<circle class="st0" cx="829.8" cy="840.8" r="8.5"/>
	<circle class="st0" cx="849.8" cy="840.8" r="8.5"/>
</g>
<text transform="matrix(1 0 0 1 889.0205 901.5)" class="st0 st11 st13">©</text>
<line class="st14" x1="850" y1="841" x2="881" y2="810"/>
<line class="st14" x1="800" y1="871" x2="831" y2="840"/>
</svg>
