<?xml version="1.0" encoding="utf-8"?>
<!-- Generator: Adobe Illustrator 23.0.0, SVG Export Plug-In . SVG Version: 6.00 Build 0)  -->
<svg version="1.1" id="Layer_3" xmlns="http://www.w3.org/2000/svg" xmlns:xlink="http://www.w3.org/1999/xlink" x="0px" y="0px"
	 viewBox="0 0 1920 1080" style="enable-background:new 0 0 1920 1080;" xml:space="preserve">
<style type="text/css">
	.st0{fill:#FFFFFF;}
	.st1{font-family:'NHaasGroteskDSPro-65Md';}
	.st2{font-size:48px;}
	.st3{font-family:'NeueHaasUnicaW1G-Light';}
	.st4{font-size:24px;}
	.st5{fill:none;stroke:#FFFFFF;stroke-miterlimit:10;}
	.st6{fill:none;stroke:#FFFFFF;stroke-width:4;stroke-miterlimit:10;}
	.st7{fill:none;stroke:#FFFFFF;stroke-width:5;stroke-miterlimit:10;}
	.st8{fill:none;stroke:#FFFFFF;stroke-width:10;stroke-miterlimit:10;}
	.st9{fill:none;stroke:#FFFFFF;stroke-width:20;stroke-miterlimit:10;}
	.st10{fill:none;stroke:#FFFFFF;stroke-width:0.5;stroke-miterlimit:10;}
	.st11{fill:none;stroke:#FFFFFF;stroke-width:8;stroke-miterlimit:10;}
	.st12{fill:none;stroke:#FFFFFF;stroke-width:3;stroke-miterlimit:10;}
	.st13{fill:none;stroke:#FFFFFF;stroke-width:2;stroke-miterlimit:10;}
	.st14{fill:none;stroke:#FFFFFF;stroke-width:6;stroke-miterlimit:10;}
	.st15{fill:none;stroke:#FFFFFF;stroke-width:0.75;stroke-miterlimit:10;}
	.st16{fill:none;stroke:#FFFFFF;stroke-width:40;stroke-miterlimit:10;}
	.st17{font-size:25.151px;}
	.st18{fill:none;}
	.st19{font-family:'PTMono-Regular';}
	.st20{font-size:12px;}
</style>
<text transform="matrix(1 0 0 1 659.603 514.2679)" class="st0 st1 st2">Hackaday </text>
<text transform="matrix(1 0 0 1 659.603 562.2679)" class="st0 st1 st2">Superconference </text>
<text transform="matrix(1 0 0 1 659.603 610.2679)" class="st0 st1 st2">2019</text>
<text transform="matrix(1 0 0 1 1258.8496 514.2681)" class="st0 st1 st2">November 15-17</text>
<text transform="matrix(1 0 0 1 1258.8496 562.2681)" class="st0 st1 st2">Pasadena, CA</text>
<text transform="matrix(0 -1 1 0 1860 1020.501)" class="st0 st1 st2">5Con™</text>
<rect x="1260.5" y="900.5" class="st0" width="4" height="60"/>
<rect x="1280.5" y="900.5" class="st0" width="4" height="60"/>
<rect x="1300.5" y="900.5" class="st0" width="4" height="60"/>
<rect x="1320.5" y="900.5" class="st0" width="4" height="60"/>
<rect x="1340.5" y="900.5" class="st0" width="4" height="60"/>
<rect x="1360.5" y="900.5" class="st0" width="4" height="60"/>
<rect x="1380.5" y="900.5" class="st0" width="4" height="60"/>
<rect x="1400.5" y="900.5" class="st0" width="4" height="60"/>
<rect x="1420.5" y="900.5" class="st0" width="4" height="60"/>
<rect x="1440.5" y="900.5" class="st0" width="4" height="60"/>
<rect x="1460.5" y="900.5" class="st0" width="4" height="60"/>
<rect x="1480.5" y="900.5" class="st0" width="4" height="60"/>
<rect x="1500.5" y="900.5" class="st0" width="4" height="60"/>
<rect x="1261.7" y="960.5" class="st0" width="1.5" height="60"/>
<rect x="1281.7" y="960.5" class="st0" width="1.5" height="60"/>
<rect x="1301.7" y="960.5" class="st0" width="1.5" height="60"/>
<rect x="1321.7" y="960.5" class="st0" width="1.5" height="60"/>
<rect x="1341.7" y="960.5" class="st0" width="1.5" height="60"/>
<rect x="1361.7" y="960.5" class="st0" width="1.5" height="60"/>
<rect x="1381.7" y="960.5" class="st0" width="1.5" height="60"/>
<rect x="1401.7" y="960.5" class="st0" width="1.5" height="60"/>
<rect x="1421.7" y="960.5" class="st0" width="1.5" height="60"/>
<rect x="1441.7" y="960.5" class="st0" width="1.5" height="60"/>
<rect x="1461.7" y="960.5" class="st0" width="1.5" height="60"/>
<rect x="1481.7" y="960.5" class="st0" width="1.5" height="60"/>
<rect x="1501.7" y="960.5" class="st0" width="1.5" height="60"/>
<text transform="matrix(1 0 0 1 660.5 660.5)" class="st0 st3 st4">The ultimate </text>
<text transform="matrix(1 0 0 1 660.5 684.5)" class="st0 st3 st4">hardware </text>
<text transform="matrix(1 0 0 1 660.5 708.5)" class="st0 st3 st4">conference</text>
<polygon class="st0" points="555,480.1 570,480.1 600.2,510.2 569.9,540.5 555,540.5 585.4,510 "/>
<polygon class="st0" points="524.8,480.1 539.9,480.1 570,510.2 539.8,540.5 524.8,540.5 555.3,510 "/>
<circle class="st0" cx="297.5" cy="62.5" r="1.5"/>
<circle class="st0" cx="292.5" cy="62.5" r="1.5"/>
<circle class="st0" cx="297.5" cy="67.5" r="1.5"/>
<circle class="st0" cx="292.5" cy="67.5" r="1.5"/>
<circle class="st0" cx="297.5" cy="72.5" r="1.5"/>
<circle class="st0" cx="292.5" cy="72.5" r="1.5"/>
<circle class="st0" cx="297.5" cy="77.5" r="1.5"/>
<circle class="st0" cx="297.5" cy="82.5" r="1.5"/>
<circle class="st0" cx="292.5" cy="82.5" r="1.5"/>
<circle class="st0" cx="292.5" cy="87.5" r="1.5"/>
<circle class="st0" cx="297.5" cy="92.5" r="1.5"/>
<circle class="st0" cx="297.5" cy="97.5" r="1.5"/>
<circle class="st0" cx="292.5" cy="97.5" r="1.5"/>
<circle class="st0" cx="292.5" cy="102.5" r="1.5"/>
<circle class="st0" cx="297.5" cy="107.5" r="1.5"/>
<circle class="st0" cx="292.5" cy="107.5" r="1.5"/>
<circle class="st0" cx="297.5" cy="112.5" r="1.5"/>
<circle class="st0" cx="292.5" cy="112.5" r="1.5"/>
<circle class="st0" cx="297.5" cy="117.5" r="1.5"/>
<circle class="st0" cx="292.5" cy="117.5" r="1.5"/>
<line class="st5" x1="301" y1="181" x2="301" y2="241"/>
<line class="st6" x1="299" y1="241" x2="299" y2="301"/>
<line class="st5" x1="1260.5" y1="726.5" x2="1320.5" y2="726.5"/>
<line class="st7" x1="1320.5" y1="726.5" x2="1380.5" y2="726.5"/>
<line class="st8" x1="1384.5" y1="726.5" x2="1444.5" y2="726.5"/>
<line class="st9" x1="1446.5" y1="726.5" x2="1506.5" y2="726.5"/>
<polyline class="st10" points="1469.5,705.5 1439,675 1380.5,675 "/>
<circle class="st0" cx="1370.5" cy="677.5" r="1.5"/>
<circle class="st0" cx="1370.5" cy="672.5" r="1.5"/>
<circle class="st0" cx="1365.5" cy="677.5" r="1.5"/>
<circle class="st0" cx="1365.5" cy="672.5" r="1.5"/>
<circle class="st0" cx="1360.5" cy="677.5" r="1.5"/>
<circle class="st0" cx="1360.5" cy="672.5" r="1.5"/>
<circle class="st0" cx="1355.5" cy="677.5" r="1.5"/>
<circle class="st0" cx="1350.5" cy="677.5" r="1.5"/>
<circle class="st0" cx="1350.5" cy="672.5" r="1.5"/>
<circle class="st0" cx="1345.5" cy="672.5" r="1.5"/>
<circle class="st0" cx="1340.5" cy="677.5" r="1.5"/>
<circle class="st0" cx="1335.5" cy="677.5" r="1.5"/>
<circle class="st0" cx="1335.5" cy="672.5" r="1.5"/>
<circle class="st0" cx="1330.5" cy="672.5" r="1.5"/>
<circle class="st0" cx="1325.5" cy="677.5" r="1.5"/>
<circle class="st0" cx="1325.5" cy="672.5" r="1.5"/>
<circle class="st5" cx="721.7" cy="839.2" r="60.2"/>
<circle class="st0" cx="877.8" cy="840.5" r="37.4"/>
<path class="st0" d="M119.1,127H62c-0.5,0-1-0.4-1-1l0,0c0-0.5,0.4-1,1-1h57.2c0.5,0,1,0.4,1,1l0,0C120.1,126.5,119.7,127,119.1,127
	z"/>
<path class="st0" d="M89.8,130.4H62c-0.5,0-1-0.4-1-1l0,0c0-0.5,0.4-1,1-1h27.8c0.5,0,1,0.4,1,1l0,0
	C90.8,129.9,90.4,130.4,89.8,130.4z"/>
<path class="st0" d="M148.5,136.7H91.3c-0.5,0-1-0.4-1-1l0,0c0-0.5,0.4-1,1-1h57.2c0.5,0,1,0.4,1,1l0,0
	C149.4,136.3,149,136.7,148.5,136.7z"/>
<path class="st0" d="M119.1,140.1H91.3c-0.5,0-1-0.4-1-1l0,0c0-0.5,0.4-1,1-1h27.8c0.5,0,1,0.4,1,1l0,0
	C120.1,139.7,119.7,140.1,119.1,140.1z"/>
<path class="st0" d="M148.5,146.5H91.3c-0.5,0-1-0.4-1-1l0,0c0-0.5,0.4-1,1-1h57.2c0.5,0,1,0.4,1,1l0,0
	C149.4,146.1,149,146.5,148.5,146.5z"/>
<path class="st0" d="M119.1,149.9H91.3c-0.5,0-1-0.4-1-1l0,0c0-0.5,0.4-1,1-1h27.8c0.5,0,1,0.4,1,1l0,0
	C120.1,149.5,119.7,149.9,119.1,149.9z"/>
<path class="st0" d="M148.5,156.3H91.3c-0.5,0-1-0.4-1-1l0,0c0-0.5,0.4-1,1-1h57.2c0.5,0,1,0.4,1,1l0,0
	C149.4,155.8,149,156.3,148.5,156.3z"/>
<path class="st0" d="M119.1,159.7H91.3c-0.5,0-1-0.4-1-1l0,0c0-0.5,0.4-1,1-1h27.8c0.5,0,1,0.4,1,1l0,0
	C120.1,159.2,119.7,159.7,119.1,159.7z"/>
<path class="st0" d="M177.8,166h-57.2c-0.5,0-1-0.4-1-1l0,0c0-0.5,0.4-1,1-1h57.2c0.5,0,1,0.4,1,1l0,0
	C178.7,165.6,178.3,166,177.8,166z"/>
<path class="st0" d="M148.5,169.5h-27.8c-0.5,0-1-0.4-1-1l0,0c0-0.5,0.4-1,1-1h27.8c0.5,0,1,0.4,1,1l0,0
	C149.4,169,149,169.5,148.5,169.5z"/>
<path class="st0" d="M177.8,175.8h-57.2c-0.5,0-1-0.4-1-1l0,0c0-0.5,0.4-1,1-1h57.2c0.5,0,1,0.4,1,1l0,0
	C178.7,175.4,178.3,175.8,177.8,175.8z"/>
<path class="st0" d="M148.5,179.2h-27.8c-0.5,0-1-0.4-1-1l0,0c0-0.5,0.4-1,1-1h27.8c0.5,0,1,0.4,1,1l0,0
	C149.4,178.8,149,179.2,148.5,179.2z"/>
<circle class="st0" cx="63.5" cy="109.5" r="1.5"/>
<circle class="st0" cx="63.5" cy="114.5" r="1.5"/>
<circle class="st0" cx="68.5" cy="109.5" r="1.5"/>
<circle class="st0" cx="68.5" cy="114.5" r="1.5"/>
<circle class="st0" cx="73.5" cy="109.5" r="1.5"/>
<circle class="st0" cx="73.5" cy="114.5" r="1.5"/>
<circle class="st0" cx="78.5" cy="109.5" r="1.5"/>
<circle class="st0" cx="83.5" cy="109.5" r="1.5"/>
<circle class="st0" cx="83.5" cy="114.5" r="1.5"/>
<circle class="st0" cx="88.5" cy="114.5" r="1.5"/>
<circle class="st0" cx="93.5" cy="109.5" r="1.5"/>
<circle class="st0" cx="98.5" cy="109.5" r="1.5"/>
<circle class="st0" cx="98.5" cy="114.5" r="1.5"/>
<circle class="st0" cx="103.5" cy="114.5" r="1.5"/>
<circle class="st0" cx="108.5" cy="109.5" r="1.5"/>
<circle class="st0" cx="108.5" cy="114.5" r="1.5"/>
<circle class="st0" cx="113.5" cy="109.5" r="1.5"/>
<circle class="st0" cx="113.5" cy="114.5" r="1.5"/>
<circle class="st0" cx="118.5" cy="109.5" r="1.5"/>
<circle class="st0" cx="118.5" cy="114.5" r="1.5"/>
<line class="st5" x1="1921.5" y1="780.5" x2="1921.5" y2="660.5"/>
<line class="st7" x1="1911.5" y1="780.5" x2="1911.5" y2="660.5"/>
<line class="st6" x1="1901.5" y1="780.5" x2="1901.5" y2="660.5"/>
<line class="st11" x1="1891.5" y1="780.5" x2="1891.5" y2="660.5"/>
<line class="st12" x1="1881.5" y1="780.5" x2="1881.5" y2="660.5"/>
<line class="st7" x1="1871.5" y1="780.5" x2="1871.5" y2="660.5"/>
<line class="st13" x1="1861.5" y1="780.5" x2="1861.5" y2="660.5"/>
<line class="st8" x1="1851.5" y1="780.5" x2="1851.5" y2="660.5"/>
<line class="st5" x1="1841.5" y1="780.5" x2="1841.5" y2="660.5"/>
<line class="st14" x1="1831.5" y1="780.5" x2="1831.5" y2="660.5"/>
<line class="st5" x1="1831.5" y1="780.5" x2="1831.5" y2="660.5"/>
<line class="st13" x1="1821.5" y1="780.5" x2="1821.5" y2="660.5"/>
<line class="st6" x1="1811.5" y1="780.5" x2="1811.5" y2="660.5"/>
<line class="st11" x1="1801.5" y1="780.5" x2="1801.5" y2="660.5"/>
<line class="st12" x1="1791.5" y1="780.5" x2="1791.5" y2="660.5"/>
<line class="st7" x1="1781.5" y1="780.5" x2="1781.5" y2="660.5"/>
<line class="st13" x1="1771.5" y1="780.5" x2="1771.5" y2="660.5"/>
<line class="st8" x1="1761.5" y1="780.5" x2="1761.5" y2="660.5"/>
<line class="st5" x1="1751.5" y1="780.5" x2="1751.5" y2="660.5"/>
<line class="st14" x1="1741.5" y1="780.5" x2="1741.5" y2="660.5"/>
<line class="st7" x1="1731.5" y1="780.5" x2="1731.5" y2="660.5"/>
<line class="st13" x1="1721.5" y1="780.5" x2="1721.5" y2="660.5"/>
<line class="st8" x1="1711.5" y1="780.5" x2="1711.5" y2="660.5"/>
<line class="st5" x1="1701.5" y1="780.5" x2="1701.5" y2="660.5"/>
<line class="st14" x1="1691.5" y1="780.5" x2="1691.5" y2="660.5"/>
<line class="st7" x1="1781.5" y1="780.5" x2="1781.5" y2="660.5"/>
<line class="st13" x1="1771.5" y1="780.5" x2="1771.5" y2="660.5"/>
<line class="st8" x1="1761.5" y1="780.5" x2="1761.5" y2="660.5"/>
<line class="st5" x1="1751.5" y1="780.5" x2="1751.5" y2="660.5"/>
<line class="st14" x1="1741.5" y1="780.5" x2="1741.5" y2="660.5"/>
<line class="st13" x1="1681.5" y1="780.5" x2="1681.5" y2="660.5"/>
<g>
	<path class="st0" d="M805.5,169.5H788c-2,0-3.7,1.6-3.7,3.7v17.5c0,2,1.6,3.7,3.7,3.7h2.5v22c0,1.6,1.3,2.9,2.9,2.9h6.7
		c1.6,0,2.9-1.3,2.9-2.9v-22h2.5c2,0,3.7-1.6,3.7-3.7v-17.5C809.2,171.1,807.5,169.5,805.5,169.5z"/>
	<circle class="st0" cx="796.9" cy="162.5" r="6"/>
</g>
<g>
	<path class="st0" d="M836.5,169.5H819c-2,0-3.7,1.6-3.7,3.7v17.5c0,2,1.6,3.7,3.7,3.7h2.5v22c0,1.6,1.3,2.9,2.9,2.9h6.7
		c1.6,0,2.9-1.3,2.9-2.9v-22h2.5c2,0,3.7-1.6,3.7-3.7v-17.5C840.2,171.1,838.5,169.5,836.5,169.5z"/>
	<circle class="st0" cx="827.8" cy="162.5" r="6"/>
</g>
<g>
	<path class="st0" d="M867.4,169.5H850c-2,0-3.7,1.6-3.7,3.7v17.5c0,2,1.6,3.7,3.7,3.7h2.5v22c0,1.6,1.3,2.9,2.9,2.9h6.7
		c1.6,0,2.9-1.3,2.9-2.9v-22h2.5c2,0,3.7-1.6,3.7-3.7v-17.5C871.1,171.1,869.5,169.5,867.4,169.5z"/>
	<circle class="st0" cx="858.8" cy="162.5" r="6"/>
</g>
<g>
	<path class="st0" d="M898.4,169.5h-17.5c-2,0-3.7,1.6-3.7,3.7v17.5c0,2,1.6,3.7,3.7,3.7h2.5v22c0,1.6,1.3,2.9,2.9,2.9h6.7
		c1.6,0,2.9-1.3,2.9-2.9v-22h2.5c2,0,3.7-1.6,3.7-3.7v-17.5C902.1,171.1,900.4,169.5,898.4,169.5z"/>
	<circle class="st0" cx="889.8" cy="162.5" r="6"/>
</g>
<g>
	<path class="st0" d="M898.4,88.5h-2.5v-22c0-1.6-1.3-2.9-2.9-2.9h-6.7c-1.6,0-2.9,1.3-2.9,2.9v22h-2.5c-2,0-3.7,1.6-3.7,3.7v17.5
		c0,2,1.6,3.7,3.7,3.7h17.5c2,0,3.7-1.6,3.7-3.7V92.2C902.1,90.1,900.4,88.5,898.4,88.5z"/>
	<circle class="st0" cx="889.6" cy="120.3" r="6"/>
</g>
<g>
	<path class="st0" d="M867.4,88.5h-2.5v-22c0-1.6-1.3-2.9-2.9-2.9h-6.7c-1.6,0-2.9,1.3-2.9,2.9v22H850c-2,0-3.7,1.6-3.7,3.7v17.5
		c0,2,1.6,3.7,3.7,3.7h17.5c2,0,3.7-1.6,3.7-3.7V92.2C871.1,90.1,869.5,88.5,867.4,88.5z"/>
	<circle class="st0" cx="858.6" cy="120.3" r="6"/>
</g>
<g>
	<path class="st0" d="M836.5,88.5H834v-22c0-1.6-1.3-2.9-2.9-2.9h-6.7c-1.6,0-2.9,1.3-2.9,2.9v22H819c-2,0-3.7,1.6-3.7,3.7v17.5
		c0,2,1.6,3.7,3.7,3.7h17.5c2,0,3.7-1.6,3.7-3.7V92.2C840.2,90.1,838.5,88.5,836.5,88.5z"/>
	<circle class="st0" cx="827.6" cy="120.3" r="6"/>
</g>
<path class="st0" d="M805.5,88.5H803v-22c0-1.6-1.3-2.9-2.9-2.9h-6.7c-1.6,0-2.9,1.3-2.9,2.9v22H788c-2,0-3.7,1.6-3.7,3.7v17.5
	c0,2,1.6,3.7,3.7,3.7h17.5c2,0,3.7-1.6,3.7-3.7V92.2C809.2,90.1,807.5,88.5,805.5,88.5z"/>
<circle class="st0" cx="796.7" cy="120.3" r="6"/>
<g>
	<path class="st0" d="M681.6,169.5h-17.5c-2,0-3.7,1.6-3.7,3.7v17.5c0,2,1.6,3.7,3.7,3.7h2.5v22c0,1.6,1.3,2.9,2.9,2.9h6.7
		c1.6,0,2.9-1.3,2.9-2.9v-22h2.5c2,0,3.7-1.6,3.7-3.7v-17.5C685.3,171.1,683.7,169.5,681.6,169.5z"/>
	<circle class="st0" cx="673" cy="162.5" r="6"/>
</g>
<g>
	<path class="st0" d="M712.6,169.5h-17.5c-2,0-3.7,1.6-3.7,3.7v17.5c0,2,1.6,3.7,3.7,3.7h2.5v22c0,1.6,1.3,2.9,2.9,2.9h6.7
		c1.6,0,2.9-1.3,2.9-2.9v-22h2.5c2,0,3.7-1.6,3.7-3.7v-17.5C716.3,171.1,714.6,169.5,712.6,169.5z"/>
	<circle class="st0" cx="704" cy="162.5" r="6"/>
</g>
<g>
	<path class="st0" d="M743.6,169.5h-17.5c-2,0-3.7,1.6-3.7,3.7v17.5c0,2,1.6,3.7,3.7,3.7h2.5v22c0,1.6,1.3,2.9,2.9,2.9h6.7
		c1.6,0,2.9-1.3,2.9-2.9v-22h2.5c2,0,3.7-1.6,3.7-3.7v-17.5C747.3,171.1,745.6,169.5,743.6,169.5z"/>
	<circle class="st0" cx="734.9" cy="162.5" r="6"/>
</g>
<g>
	<path class="st0" d="M774.5,169.5H757c-2,0-3.7,1.6-3.7,3.7v17.5c0,2,1.6,3.7,3.7,3.7h2.5v22c0,1.6,1.3,2.9,2.9,2.9h6.7
		c1.6,0,2.9-1.3,2.9-2.9v-22h2.5c2,0,3.7-1.6,3.7-3.7v-17.5C778.2,171.1,776.6,169.5,774.5,169.5z"/>
	<circle class="st0" cx="765.9" cy="162.5" r="6"/>
</g>
<g>
	<path class="st0" d="M774.5,88.5H772v-22c0-1.6-1.3-2.9-2.9-2.9h-6.7c-1.6,0-2.9,1.3-2.9,2.9v22H757c-2,0-3.7,1.6-3.7,3.7v17.5
		c0,2,1.6,3.7,3.7,3.7h17.5c2,0,3.7-1.6,3.7-3.7V92.2C778.2,90.1,776.6,88.5,774.5,88.5z"/>
	<circle class="st0" cx="765.7" cy="120.3" r="6"/>
</g>
<g>
	<path class="st0" d="M743.6,88.5H741v-22c0-1.6-1.3-2.9-2.9-2.9h-6.7c-1.6,0-2.9,1.3-2.9,2.9v22H726c-2,0-3.7,1.6-3.7,3.7v17.5
		c0,2,1.6,3.7,3.7,3.7h17.5c2,0,3.7-1.6,3.7-3.7V92.2C747.3,90.1,745.6,88.5,743.6,88.5z"/>
	<circle class="st0" cx="734.7" cy="120.3" r="6"/>
</g>
<g>
	<path class="st0" d="M712.6,88.5h-2.5v-22c0-1.6-1.3-2.9-2.9-2.9h-6.7c-1.6,0-2.9,1.3-2.9,2.9v22h-2.5c-2,0-3.7,1.6-3.7,3.7v17.5
		c0,2,1.6,3.7,3.7,3.7h17.5c2,0,3.7-1.6,3.7-3.7V92.2C716.3,90.1,714.6,88.5,712.6,88.5z"/>
	<circle class="st0" cx="703.8" cy="120.3" r="6"/>
</g>
<g>
	<path class="st0" d="M681.6,88.5h-2.5v-22c0-1.6-1.3-2.9-2.9-2.9h-6.7c-1.6,0-2.9,1.3-2.9,2.9v22h-2.5c-2,0-3.7,1.6-3.7,3.7v17.5
		c0,2,1.6,3.7,3.7,3.7h17.5c2,0,3.7-1.6,3.7-3.7V92.2C685.3,90.1,683.7,88.5,681.6,88.5z"/>
	<ellipse class="st0" cx="672.8" cy="120.3" rx="6" ry="6"/>
</g>
<path class="st5" d="M889.6,231l0.4,55.8c0,6.2-2.5,12.2-6.9,16.6L776.4,410.1c-4.4,4.4-10.4,6.9-16.6,6.9H501
	c-13,0-23.5,10.5-23.5,23.5v46.3c0,13,10.5,23.5,23.5,23.5h51.3"/>
<path class="st5" d="M859.6,231l0.4,55.8c0,6.2-2.5,12.2-6.9,16.6L746.4,410.1c-4.4,4.4-10.4,6.9-16.6,6.9H471
	c-13,0-23.5,10.5-23.5,23.5v46.3c0,13,10.5,23.5,23.5,23.5h51.3"/>
<path class="st5" d="M827.6,231l0.4,55.8c0,6.2-2.5,12.2-6.9,16.6L714.4,410.1c-4.4,4.4-10.4,6.9-16.6,6.9H439
	c-13,0-23.5,10.5-23.5,23.5v46.3c0,13,10.5,23.5,23.5,23.5h51.3"/>
<path class="st5" d="M796.6,231l0.4,55.8c0,6.2-2.5,12.2-6.9,16.6L683.4,410.1c-4.4,4.4-10.4,6.9-16.6,6.9H408
	c-13,0-23.5,10.5-23.5,23.5v46.3c0,13,10.5,23.5,23.5,23.5h51.3"/>
<path class="st5" d="M765.6,231l0.4,55.8c0,6.2-2.5,12.2-6.9,16.6L652.4,410.1c-4.4,4.4-10.4,6.9-16.6,6.9H377
	c-13,0-23.5,10.5-23.5,23.5v46.3c0,13,10.5,23.5,23.5,23.5h51.3"/>
<path class="st5" d="M734.6,231l0.4,55.8c0,6.2-2.5,12.2-6.9,16.6L621.4,410.1c-4.4,4.4-10.4,6.9-16.6,6.9H346
	c-13,0-23.5,10.5-23.5,23.5v46.3c0,13,10.5,23.5,23.5,23.5h51.3"/>
<path class="st5" d="M703.6,231l0.4,55.8c0,6.2-2.5,12.2-6.9,16.6L590.4,410.1c-4.4,4.4-10.4,6.9-16.6,6.9H315
	c-13,0-23.5,10.5-23.5,23.5v46.3c0,13,10.5,23.5,23.5,23.5h51.3"/>
<path class="st5" d="M671.6,231l0.4,55.8c0,6.2-2.5,12.2-6.9,16.6L558.4,410.1c-4.4,4.4-10.4,6.9-16.6,6.9H283
	c-13,0-23.5,10.5-23.5,23.5v46.3c0,13,10.5,23.5,23.5,23.5h51.3"/>
<line class="st15" x1="659.6" y1="726.4" x2="1260.5" y2="726.4"/>
<line class="st16" x1="1510.7" y1="724.5" x2="1561.5" y2="724.5"/>
<g>
	<polyline class="st0" points="1566,744.6 1605.9,784.5 1605.9,664.5 1566.1,704.4 	"/>
	<polyline class="st0" points="1619.5,720.5 1611.6,712.5 1611.6,736.5 1619.5,728.5 	"/>
</g>
<path class="st5" d="M1262.5,900.5v-10.3c0-12.6-5-24.7-13.9-33.6l-1.8-1.8c-8.9-8.9-21-13.9-33.6-13.9h-115
	c-12.6,0-24.7,5-33.6,13.9L913.4,1006c-8.9,8.9-21,13.9-33.6,13.9H498.2c-12.6,0-24.7-5-33.6-13.9L191.1,732.5
	c-8.9-8.9-21-13.9-33.6-13.9h-159"/>
<path class="st5" d="M1282.5,900.5v-10.3c0-12.6-5-24.7-13.9-33.6l-1.8-1.8c-8.9-8.9-21-13.9-33.6-13.9h-115
	c-12.6,0-24.7,5-33.6,13.9L933.4,1006c-8.9,8.9-21,13.9-33.6,13.9H518.2c-12.6,0-24.7-5-33.6-13.9L211.1,732.5
	c-8.9-8.9-21-13.9-33.6-13.9h-159"/>
<path class="st5" d="M1302.5,900.5v-10.3c0-12.6-5-24.7-13.9-33.6l-1.8-1.8c-8.9-8.9-21-13.9-33.6-13.9h-115
	c-12.6,0-24.7,5-33.6,13.9L953.4,1006c-8.9,8.9-21,13.9-33.6,13.9H538.2c-12.6,0-24.7-5-33.6-13.9L231.1,732.5
	c-8.9-8.9-21-13.9-33.6-13.9h-159"/>
<path class="st5" d="M1322.5,900.5v-10.3c0-12.6-5-24.7-13.9-33.6l-1.8-1.8c-8.9-8.9-21-13.9-33.6-13.9h-115
	c-12.6,0-24.7,5-33.6,13.9L973.4,1006c-8.9,8.9-21,13.9-33.6,13.9H558.2c-12.6,0-24.7-5-33.6-13.9L251.1,732.5
	c-8.9-8.9-21-13.9-33.6-13.9h-159"/>
<path class="st5" d="M1342.5,900.5v-10.3c0-12.6-5-24.7-13.9-33.6l-1.8-1.8c-8.9-8.9-21-13.9-33.6-13.9h-115
	c-12.6,0-24.7,5-33.6,13.9L993.4,1006c-8.9,8.9-21,13.9-33.6,13.9H578.2c-12.6,0-24.7-5-33.6-13.9L271.1,732.5
	c-8.9-8.9-21-13.9-33.6-13.9h-159"/>
<path class="st5" d="M1362.5,900.5v-10.3c0-12.6-5-24.7-13.9-33.6l-1.8-1.8c-8.9-8.9-21-13.9-33.6-13.9h-115
	c-12.6,0-24.7,5-33.6,13.9L1013.4,1006c-8.9,8.9-21,13.9-33.6,13.9H598.2c-12.6,0-24.7-5-33.6-13.9L291.1,732.5
	c-8.9-8.9-21-13.9-33.6-13.9h-159"/>
<path class="st5" d="M1382.5,900.5v-10.3c0-12.6-5-24.7-13.9-33.6l-1.8-1.8c-8.9-8.9-21-13.9-33.6-13.9h-115
	c-12.6,0-24.7,5-33.6,13.9L1033.4,1006c-8.9,8.9-21,13.9-33.6,13.9H618.2c-12.6,0-24.7-5-33.6-13.9L311.1,732.5
	c-8.9-8.9-21-13.9-33.6-13.9h-159"/>
<path class="st5" d="M1402.5,900.5v-10.3c0-12.6-5-24.7-13.9-33.6l-1.8-1.8c-8.9-8.9-21-13.9-33.6-13.9h-115
	c-12.6,0-24.7,5-33.6,13.9L1053.4,1006c-8.9,8.9-21,13.9-33.6,13.9H638.2c-12.6,0-24.7-5-33.6-13.9L331.1,732.5
	c-8.9-8.9-21-13.9-33.6-13.9h-159"/>
<path class="st5" d="M1422.5,900.5v-10.3c0-12.6-5-24.7-13.9-33.6l-1.8-1.8c-8.9-8.9-21-13.9-33.6-13.9h-115
	c-12.6,0-24.7,5-33.6,13.9L1073.4,1006c-8.9,8.9-21,13.9-33.6,13.9H658.2c-12.6,0-24.7-5-33.6-13.9L351.1,732.5
	c-8.9-8.9-21-13.9-33.6-13.9h-159"/>
<path class="st5" d="M1442.5,900.5v-10.3c0-12.6-5-24.7-13.9-33.6l-1.8-1.8c-8.9-8.9-21-13.9-33.6-13.9h-115
	c-12.6,0-24.7,5-33.6,13.9L1093.4,1006c-8.9,8.9-21,13.9-33.6,13.9H678.2c-12.6,0-24.7-5-33.6-13.9L371.1,732.5
	c-8.9-8.9-21-13.9-33.6-13.9h-159"/>
<path class="st5" d="M1462.5,900.5v-10.3c0-12.6-5-24.7-13.9-33.6l-1.8-1.8c-8.9-8.9-21-13.9-33.6-13.9h-115
	c-12.6,0-24.7,5-33.6,13.9L1113.4,1006c-8.9,8.9-21,13.9-33.6,13.9H698.2c-12.6,0-24.7-5-33.6-13.9L391.1,732.5
	c-8.9-8.9-21-13.9-33.6-13.9h-159"/>
<path class="st5" d="M1482.5,900.5v-10.3c0-12.6-5-24.7-13.9-33.6l-1.8-1.8c-8.9-8.9-21-13.9-33.6-13.9h-115
	c-12.6,0-24.7,5-33.6,13.9L1133.4,1006c-8.9,8.9-21,13.9-33.6,13.9H718.2c-12.6,0-24.7-5-33.6-13.9L411.1,732.5
	c-8.9-8.9-21-13.9-33.6-13.9h-159"/>
<path class="st5" d="M1502.5,900.5v-10.3c0-12.6-5-24.7-13.9-33.6l-1.8-1.8c-8.9-8.9-21-13.9-33.6-13.9h-115
	c-12.6,0-24.7,5-33.6,13.9L1153.4,1006c-8.9,8.9-21,13.9-33.6,13.9H738.2c-12.6,0-24.7-5-33.6-13.9L431.1,732.5
	c-8.9-8.9-21-13.9-33.6-13.9h-159"/>
<g>
	<path class="st0" d="M703.9,852.1c-1.5,0-2.9-0.3-4.1-0.9c-1.2-0.6-2.2-1.5-3-2.6s-1.4-2.5-1.9-4s-0.6-3.4-0.6-5.3
		c0-2,0.2-3.8,0.7-5.4c0.5-1.6,1.1-3,1.9-4.1c0.8-1.1,1.8-2,3-2.6s2.5-0.9,4-0.9s2.8,0.3,4,0.9c1.2,0.6,2.2,1.4,3,2.5s1.5,2.5,1.9,4
		c0.4,1.6,0.7,3.4,0.7,5.4s-0.2,3.7-0.6,5.3c-0.4,1.6-1,2.9-1.9,4c-0.8,1.1-1.8,2-3,2.6C706.8,851.8,705.5,852.1,703.9,852.1z
		 M704,849.5c2.2,0,3.8-0.9,4.8-2.7s1.6-4.3,1.6-7.5c0-1.6-0.1-3-0.4-4.2c-0.3-1.3-0.7-2.4-1.2-3.3c-0.5-0.9-1.2-1.6-2-2.1
		s-1.7-0.7-2.8-0.7c-2.2,0-3.8,0.9-4.9,2.8s-1.6,4.4-1.6,7.5c0,1.6,0.1,3,0.4,4.2c0.3,1.3,0.7,2.4,1.2,3.2c0.5,0.9,1.2,1.6,2,2.1
		C702,849.2,702.9,849.5,704,849.5z"/>
	<path class="st0" d="M720.9,841.8l-6.2-8.9h3.4l4.4,6.8h0.1l4.6-6.8h3.2l-6.1,8.5l7.3,10.1h-3.4l-5.5-8h-0.1l-5.4,8h-3.3
		L720.9,841.8z"/>
	<path class="st0" d="M740.2,852.1c-1.3,0-2.5-0.2-3.5-0.6c-1.1-0.4-2-0.9-2.8-1.6s-1.4-1.5-1.9-2.4s-0.7-2-0.8-3.1h3
		c0.2,1.5,0.8,2.8,1.9,3.7c1,0.9,2.4,1.4,4.2,1.4s3.2-0.5,4.2-1.6s1.6-2.5,1.6-4.3c0-0.9-0.2-1.8-0.5-2.5s-0.7-1.3-1.2-1.8
		s-1.1-0.9-1.8-1.2s-1.5-0.4-2.3-0.4c-1.3,0-2.5,0.2-3.4,0.7s-1.6,1.1-2.2,1.8h-2.9l2.7-13.2h13.1v2.7h-11L735,837h0.1
		c0.7-0.7,1.5-1.2,2.4-1.5c0.9-0.4,2-0.5,3.2-0.5c1.1,0,2.2,0.2,3.2,0.6c1,0.4,1.9,0.9,2.7,1.7c0.8,0.7,1.4,1.6,1.9,2.7
		c0.5,1.1,0.7,2.3,0.7,3.7c0,1.3-0.2,2.5-0.7,3.6c-0.4,1.1-1.1,2-1.9,2.7c-0.8,0.7-1.7,1.3-2.8,1.7
		C742.7,851.9,741.5,852.1,740.2,852.1z"/>
</g>
<g>
	<path class="st0" d="M913,811.6c-0.8,0-1.6-0.2-2.3-0.5s-1.4-0.7-1.9-1.3c-0.5-0.5-1-1.2-1.3-1.9s-0.5-1.6-0.5-2.4
		c0-0.9,0.2-1.7,0.5-2.4s0.7-1.4,1.3-1.9c0.5-0.5,1.2-1,1.9-1.3s1.5-0.5,2.3-0.5s1.6,0.2,2.3,0.5s1.4,0.7,1.9,1.3
		c0.5,0.5,1,1.2,1.3,1.9s0.5,1.6,0.5,2.4c0,0.9-0.2,1.7-0.5,2.4s-0.7,1.4-1.3,1.9c-0.5,0.5-1.2,1-1.9,1.3
		C914.6,811.5,913.8,811.6,913,811.6z M913,810.7c0.7,0,1.4-0.1,2-0.4c0.6-0.3,1.1-0.6,1.6-1.1c0.4-0.5,0.8-1,1-1.7
		c0.3-0.6,0.4-1.3,0.4-2.1s-0.1-1.4-0.4-2.1c-0.3-0.6-0.6-1.2-1-1.7s-1-0.8-1.6-1.1s-1.3-0.4-2-0.4s-1.4,0.1-2,0.4
		c-0.6,0.3-1.1,0.6-1.6,1.1c-0.4,0.5-0.8,1-1,1.7c-0.2,0.6-0.4,1.3-0.4,2.1s0.1,1.5,0.4,2.1c0.2,0.6,0.6,1.2,1,1.7s1,0.8,1.6,1.1
		S912.3,810.7,913,810.7z M910.7,802.2h3c0.6,0,1.1,0.2,1.5,0.5s0.6,0.8,0.6,1.3c0,0.4-0.1,0.7-0.3,1s-0.5,0.5-0.9,0.6l0,0
		c0.3,0.1,0.6,0.2,0.7,0.4c0.2,0.2,0.3,0.5,0.3,0.9c0.1,0.5,0.1,0.8,0.1,1.1s0.1,0.5,0.2,0.5v0.1h-1.2c-0.1,0-0.1-0.2-0.2-0.5
		c0-0.3-0.1-0.6-0.1-1c0-0.3-0.1-0.6-0.3-0.8s-0.5-0.3-0.9-0.3h-1.1v2.6h-1.3L910.7,802.2L910.7,802.2z M911.9,805.1h1.4
		c0.4,0,0.6-0.1,0.8-0.3s0.3-0.4,0.3-0.7s-0.1-0.5-0.3-0.7s-0.4-0.3-0.8-0.3h-1.4V805.1z"/>
</g>
<text transform="matrix(1 0 0 1 1559.501 81.8838)" class="st0 st1 st17">hackaday.io/superconference</text>
<g>
	<rect x="1522" y="62.3" class="st0" width="23" height="23"/>
</g>
<polygon class="st0" points="1882.4,230 1882.4,220.1 1912,203 1912,212.9 "/>
<polygon class="st0" points="1882.4,247.9 1882.4,238.1 1912,221 1912,230.8 "/>
<polygon class="st0" points="1882.4,267.3 1882.4,257.4 1912,240.3 1912,250.2 "/>
<polygon class="st0" points="1882.4,285.3 1882.4,275.4 1912,258.3 1912,268.2 "/>
<polygon class="st0" points="1882.4,303.2 1882.4,293.3 1912,276.2 1912,286.1 "/>
<polygon class="st0" points="1882.4,321.2 1882.4,311.3 1912,294.2 1912,304.1 "/>
<polygon class="st0" points="1882.4,339.1 1882.4,329.3 1912,312.2 1912,322 "/>
<polygon class="st0" points="1882.4,357.1 1882.4,347.2 1912,330.1 1912,340 "/>
<path class="st18" d="M1879.4,190.9"/>
<path class="st18" d="M1916.3,194.9"/>
<polygon class="st0" points="1882.4,212 1912,194.9 1912,194.6 1895.4,194.6 1882.4,202.1 "/>
<polyline class="st0" points="1895.4,194.6 1912,194.6 1912,185 "/>
<rect x="960" y="62.4" class="st18" width="409" height="85.6"/>
<text transform="matrix(1 0 0 1 960 70.7603)" class="st0 st19 st20">Supercon is all about hardware creation. From prototypes and </text>
<text transform="matrix(1 0 0 1 960 84.7603)" class="st0 st19 st20">manufacturable designs, to one-off hardware art and products </text>
<text transform="matrix(1 0 0 1 960 98.7603)" class="st0 st19 st20">that have sold thousands, this is where you meet the people </text>
<text transform="matrix(1 0 0 1 960 112.7603)" class="st0 st19 st20">and hear the stories behind new and interesting feats of </text>
<text transform="matrix(1 0 0 1 960 126.7603)" class="st0 st19 st20">engineering. It’s a weekend filled with fascinating talks </text>
<text transform="matrix(1 0 0 1 960 140.7603)" class="st0 st19 st20">and mind-expanding workshops, but Supercon is so much more.</text>
<circle class="st0" cx="1126.1" cy="207.7" r="2.4"/>
<circle class="st0" cx="1126.1" cy="191.4" r="2.4"/>
<circle class="st0" cx="1117.9" cy="207.7" r="2.4"/>
<circle class="st0" cx="1117.9" cy="191.4" r="2.4"/>
<circle class="st0" cx="1117.9" cy="183.3" r="2.4"/>
<circle class="st0" cx="1109.8" cy="207.7" r="2.4"/>
<circle class="st0" cx="1109.8" cy="199.6" r="2.4"/>
<circle class="st0" cx="1109.8" cy="191.4" r="2.4"/>
<circle class="st0" cx="1101.7" cy="199.6" r="2.4"/>
<circle class="st0" cx="1084.4" cy="199.6" r="2.4"/>
<circle class="st0" cx="1084.4" cy="183.3" r="2.4"/>
<circle class="st0" cx="1076.3" cy="207.7" r="2.4"/>
<circle class="st0" cx="1076.3" cy="199.6" r="2.4"/>
<circle class="st0" cx="1076.3" cy="191.4" r="2.4"/>
<circle class="st0" cx="1068.2" cy="191.4" r="2.4"/>
<circle class="st0" cx="1068.2" cy="183.3" r="2.4"/>
<circle class="st0" cx="1060.1" cy="207.7" r="2.4"/>
<circle class="st0" cx="1060.1" cy="199.6" r="2.4"/>
<circle class="st0" cx="1060.1" cy="183.3" r="2.4"/>
<circle class="st0" cx="1051.9" cy="207.7" r="2.4"/>
<circle class="st0" cx="1051.9" cy="199.6" r="2.4"/>
<circle class="st0" cx="1051.9" cy="191.4" r="2.4"/>
<circle class="st0" cx="1010.7" cy="207.7" r="2.4"/>
<circle class="st0" cx="1010.7" cy="191.4" r="2.4"/>
<circle class="st0" cx="1018.8" cy="207.7" r="2.4"/>
<circle class="st0" cx="1018.8" cy="191.4" r="2.4"/>
<circle class="st0" cx="1018.8" cy="183.3" r="2.4"/>
<circle class="st0" cx="1026.9" cy="207.7" r="2.4"/>
<circle class="st0" cx="1026.9" cy="199.6" r="2.4"/>
<circle class="st0" cx="1026.9" cy="191.4" r="2.4"/>
<circle class="st0" cx="1035.1" cy="199.6" r="2.4"/>
<path class="st0" d="M992,199.6c0-1.3,1.1-2.4,2.4-2.4s2.4,1.1,2.4,2.4s-1.1,2.4-2.4,2.4S992,200.9,992,199.6z"/>
<path class="st0" d="M992,183.3c0-1.3,1.1-2.4,2.4-2.4s2.4,1.1,2.4,2.4s-1.1,2.4-2.4,2.4S992,184.7,992,183.3z"/>
<path class="st0" d="M983.9,207.7c0-1.3,1.1-2.4,2.4-2.4s2.4,1.1,2.4,2.4s-1.1,2.4-2.4,2.4S983.9,209,983.9,207.7z"/>
<path class="st0" d="M983.9,199.6c0-1.3,1.1-2.4,2.4-2.4s2.4,1.1,2.4,2.4s-1.1,2.4-2.4,2.4S983.9,200.9,983.9,199.6z"/>
<path class="st0" d="M983.9,191.4c0-1.3,1.1-2.4,2.4-2.4s2.4,1.1,2.4,2.4s-1.1,2.4-2.4,2.4S983.9,192.8,983.9,191.4z"/>
<path class="st0" d="M975.8,191.4c0-1.3,1.1-2.4,2.4-2.4s2.4,1.1,2.4,2.4s-1.1,2.4-2.4,2.4S975.8,192.8,975.8,191.4z"/>
<path class="st0" d="M975.8,183.3c0-1.3,1.1-2.4,2.4-2.4s2.4,1.1,2.4,2.4s-1.1,2.4-2.4,2.4S975.8,184.7,975.8,183.3z"/>
<path class="st0" d="M967.6,207.7c0-1.3,1.1-2.4,2.4-2.4s2.4,1.1,2.4,2.4s-1.1,2.4-2.4,2.4S967.6,209,967.6,207.7z"/>
<path class="st0" d="M967.6,199.6c0-1.3,1.1-2.4,2.4-2.4s2.4,1.1,2.4,2.4s-1.1,2.4-2.4,2.4S967.6,200.9,967.6,199.6z"/>
<path class="st0" d="M967.6,183.3c0-1.3,1.1-2.4,2.4-2.4s2.4,1.1,2.4,2.4s-1.1,2.4-2.4,2.4S967.6,184.7,967.6,183.3z"/>
<path class="st0" d="M959.5,207.7c0-1.3,1.1-2.4,2.4-2.4s2.4,1.1,2.4,2.4s-1.1,2.4-2.4,2.4S959.5,209,959.5,207.7z"/>
<path class="st0" d="M959.5,199.6c0-1.3,1.1-2.4,2.4-2.4s2.4,1.1,2.4,2.4s-1.1,2.4-2.4,2.4S959.5,200.9,959.5,199.6z"/>
<path class="st0" d="M959.5,191.4c0-1.3,1.1-2.4,2.4-2.4s2.4,1.1,2.4,2.4s-1.1,2.4-2.4,2.4S959.5,192.8,959.5,191.4z"/>
<circle class="st0" cx="1176.4" cy="199.6" r="2.4"/>
<circle class="st0" cx="1176.4" cy="183.3" r="2.4"/>
<circle class="st0" cx="1168.3" cy="207.7" r="2.4"/>
<circle class="st0" cx="1168.3" cy="199.6" r="2.4"/>
<circle class="st0" cx="1168.3" cy="191.4" r="2.4"/>
<circle class="st0" cx="1160.2" cy="191.4" r="2.4"/>
<circle class="st0" cx="1160.2" cy="183.3" r="2.4"/>
<circle class="st0" cx="1152.1" cy="207.7" r="2.4"/>
<circle class="st0" cx="1152.1" cy="199.6" r="2.4"/>
<circle class="st0" cx="1152.1" cy="183.3" r="2.4"/>
<circle class="st0" cx="1143.9" cy="207.7" r="2.4"/>
<circle class="st0" cx="1143.9" cy="199.6" r="2.4"/>
<circle class="st0" cx="1143.9" cy="191.4" r="2.4"/>
<path class="st0" d="M1498,188.8h-236c-1.1,0-2-0.9-2-2v-3.9c0-1.1,0.9-2,2-2h236c1.1,0,2,0.9,2,2v3.9
	C1500,188,1499.1,188.8,1498,188.8z"/>
<path class="st0" d="M1379,202.7h-117c-1.1,0-2-0.9-2-2v-3.9c0-1.1,0.9-2,2-2h117c1.1,0,2,0.9,2,2v3.9
	C1381,201.8,1380.1,202.7,1379,202.7z"/>
<path class="st0" d="M1270.4,209.4c-0.3-0.5-0.8-0.9-1.4-0.9h-4.8c-0.9,0-1.6,0.7-1.6,1.6c0,0.9,0.7,1.6,1.6,1.6h1.3l-4.6,4.6
	c-0.6,0.7-0.6,1.7,0,2.3c0.7,0.6,1.7,0.6,2.3,0l4.6-4.6v1.4c0,0.9,0.7,1.6,1.6,1.6s1.6-0.8,1.6-1.6v-4.8
	C1271,210.1,1270.8,209.7,1270.4,209.4z"/>
</svg>
