<?xml version="1.0" encoding="utf-8"?>
<!-- Generator: Adobe Illustrator 23.0.0, SVG Export Plug-In . SVG Version: 6.00 Build 0)  -->
<svg version="1.1" id="Layer_2" xmlns="http://www.w3.org/2000/svg" xmlns:xlink="http://www.w3.org/1999/xlink" x="0px" y="0px"
	 viewBox="0 0 1920 1080" style="enable-background:new 0 0 1920 1080;" xml:space="preserve">
<style type="text/css">
	.st0{fill:#FFFFFF;}
	.st1{font-family:'NHaasGroteskDSPro-65Md';}
	.st2{font-size:48px;}
	.st3{letter-spacing:-1;}
	.st4{fill:none;}
	.st5{fill:#E5E5E5;}
	.st6{fill:none;stroke:#FFFFFF;stroke-miterlimit:10;}
	.st7{fill:none;stroke:#FFFFFF;stroke-width:10;stroke-miterlimit:10;}
	.st8{fill:none;stroke:#FFFFFF;stroke-width:3;stroke-miterlimit:10;}
	.st9{fill:none;stroke:#FFFFFF;stroke-width:8;stroke-miterlimit:10;}
	.st10{fill:none;stroke:#FFFFFF;stroke-width:15;stroke-miterlimit:10;}
	.st11{fill:none;stroke:#FFFFFF;stroke-width:4;stroke-miterlimit:10;}
	.st12{fill:none;stroke:#FFFFFF;stroke-width:2;stroke-miterlimit:10;}
	.st13{fill:none;stroke:#FFFFFF;stroke-width:12;stroke-miterlimit:10;}
	.st14{fill:none;stroke:#FFFFFF;stroke-width:5;stroke-miterlimit:10;}
	.st15{font-family:'NHaasGroteskDSPro-45Lt';}
	.st16{font-size:12px;}
	.st17{fill:#FFFFFF;stroke:#FFFFFF;stroke-miterlimit:10;}
	.st18{font-size:21.8194px;}
	.st19{font-size:10.7587px;}
	.st20{font-family:'PTMono-Regular';}
	.st21{font-size:7px;}
	.st22{fill:#CBCBCB;}
	.st23{font-family:'NHaasGroteskDSPro-55Rg';}
	.st24{fill:none;stroke:#FFFFFF;stroke-width:0.7793;stroke-miterlimit:10;}
	.st25{fill:none;stroke:#FFFFFF;stroke-width:3.8967;stroke-miterlimit:10;}
	.st26{fill:none;stroke:#FFFFFF;stroke-width:3.1174;stroke-miterlimit:10;}
	.st27{fill:none;stroke:#FFFFFF;stroke-width:6.2348;stroke-miterlimit:10;}
	.st28{fill:none;stroke:#FFFFFF;stroke-width:2.338;stroke-miterlimit:10;}
	.st29{fill:none;stroke:#FFFFFF;stroke-width:1.5587;stroke-miterlimit:10;}
	.st30{fill:none;stroke:#FFFFFF;stroke-width:7.7935;stroke-miterlimit:10;}
	.st31{fill:none;stroke:#FFFFFF;stroke-width:4.6761;stroke-miterlimit:10;}
	.st32{font-size:10px;}
</style>
<g>
	<circle class="st0" cx="68.7" cy="171.3" r="8.7"/>
</g>
<g>
	<circle class="st0" cx="68.7" cy="137.3" r="4.4"/>
</g>
<g>
	<circle class="st0" cx="68.7" cy="103" r="2.2"/>
</g>
<g>
	<circle class="st0" cx="68.7" cy="68.7" r="8.7"/>
</g>
<g>
	<circle class="st0" cx="102.7" cy="171.3" r="6.5"/>
</g>
<g>
	<circle class="st0" cx="102.7" cy="137.3" r="8.7"/>
</g>
<g>
	<circle class="st0" cx="102.7" cy="103" r="4.4"/>
</g>
<g>
	<circle class="st0" cx="102.7" cy="68.7" r="4.4"/>
</g>
<g>
	<circle class="st0" cx="171.3" cy="68.7" r="8.7"/>
</g>
<g>
	<circle class="st0" cx="171.3" cy="102.7" r="4.4"/>
</g>
<g>
	<circle class="st0" cx="171.3" cy="137" r="2.2"/>
</g>
<g>
	<circle class="st0" cx="171.3" cy="171.3" r="8.7"/>
</g>
<g>
	<circle class="st0" cx="137.3" cy="68.7" r="6.5"/>
</g>
<g>
	<circle class="st0" cx="137.3" cy="102.7" r="8.7"/>
</g>
<g>
	<circle class="st0" cx="137.3" cy="137" r="4.4"/>
</g>
<g>
	<circle class="st0" cx="137.3" cy="171.3" r="4.4"/>
</g>
<g>
	<circle class="st0" cx="779.2" cy="497.8" r="6.6"/>
</g>
<g>
	<circle class="st0" cx="779.2" cy="529.8" r="3.3"/>
</g>
<g>
	<circle class="st0" cx="779.2" cy="562.1" r="1.6"/>
</g>
<g>
	<circle class="st0" cx="779.2" cy="594.4" r="6.6"/>
</g>
<g>
	<circle class="st0" cx="747.2" cy="497.8" r="4.9"/>
</g>
<g>
	<circle class="st0" cx="747.2" cy="529.8" r="6.6"/>
</g>
<g>
	<circle class="st0" cx="747.2" cy="562.1" r="3.3"/>
</g>
<g>
	<circle class="st0" cx="747.2" cy="594.4" r="3.3"/>
</g>
<g>
	<circle class="st0" cx="682.6" cy="594.4" r="6.6"/>
</g>
<g>
	<circle class="st0" cx="682.6" cy="562.4" r="3.3"/>
</g>
<g>
	<circle class="st0" cx="682.6" cy="530.1" r="1.6"/>
</g>
<g>
	<circle class="st0" cx="682.6" cy="497.8" r="6.6"/>
</g>
<g>
	<circle class="st0" cx="714.6" cy="594.4" r="4.9"/>
</g>
<g>
	<circle class="st0" cx="714.6" cy="562.4" r="6.6"/>
</g>
<g>
	<circle class="st0" cx="714.6" cy="530.1" r="3.3"/>
</g>
<g>
	<circle class="st0" cx="714.6" cy="497.8" r="3.3"/>
</g>
<g>
	<g>
		<circle class="st0" cx="666.6" cy="497.8" r="6.6"/>
	</g>
	<g>
		<circle class="st0" cx="698.6" cy="497.8" r="3.3"/>
	</g>
	<g>
		<circle class="st0" cx="730.9" cy="497.8" r="1.6"/>
	</g>
	<g>
		<circle class="st0" cx="763.2" cy="497.8" r="6.6"/>
	</g>
	<g>
		<circle class="st0" cx="666.6" cy="529.8" r="4.9"/>
	</g>
	<g>
		<circle class="st0" cx="698.6" cy="529.8" r="6.6"/>
	</g>
	<g>
		<circle class="st0" cx="730.9" cy="529.8" r="3.3"/>
	</g>
	<g>
		<circle class="st0" cx="763.2" cy="529.8" r="3.3"/>
	</g>
	<g>
		<circle class="st0" cx="763.2" cy="594.4" r="6.6"/>
	</g>
	<g>
		<circle class="st0" cx="731.1" cy="594.4" r="3.3"/>
	</g>
	<g>
		<circle class="st0" cx="698.9" cy="594.4" r="1.6"/>
	</g>
	<g>
		<circle class="st0" cx="666.6" cy="594.4" r="6.6"/>
	</g>
	<g>
		<circle class="st0" cx="763.2" cy="562.4" r="4.9"/>
	</g>
	<g>
		<circle class="st0" cx="731.1" cy="562.4" r="6.6"/>
	</g>
	<g>
		<circle class="st0" cx="698.9" cy="562.4" r="3.3"/>
	</g>
	<g>
		<circle class="st0" cx="666.6" cy="562.4" r="3.3"/>
	</g>
</g>
<text transform="matrix(1 0 0 1 1257.4795 214.0034)"><tspan x="0" y="0" class="st0 st1 st2 st3">Hardware </tspan><tspan x="0" y="48" class="st0 st1 st2 st3">Badge</tspan><tspan x="0" y="96" class="st0 st1 st2 st3">Design by</tspan><tspan x="0" y="144" class="st0 st1 st2 st3">Sprite_TM</tspan></text>
<rect x="268" y="522" class="st4" width="60" height="60"/>
<path class="st0" d="M83.5,977.2v-7.8c0-2.2-1.7-3.9-3.9-3.9H64c-2.2,0-3.9,1.7-3.9,3.9V985c0,2.2,1.7,3.9,3.9,3.9h31.1
	c2.2,0,3.9-1.7,3.9-3.9l0,0c0-2.2-1.7-3.9-3.9-3.9h-7.7C85.3,981.1,83.5,979.4,83.5,977.2z M67.8,977.2L67.8,977.2
	c0-2.2,1.7-3.9,3.9-3.9h0c2.2,0,3.9,1.7,3.9,3.9l0,0c0,2.2-1.7,3.9-3.9,3.9h0C69.6,981.1,67.8,979.3,67.8,977.2z"/>
<path class="st0" d="M64,957.6h15.5c2.2,0,3.9-1.7,3.9-3.9V946c0-2.2,1.7-3.9,3.9-3.9h0c2.2,0,3.9,1.7,3.9,3.9v7.8
	c0,2.2,1.7,3.9,3.9,3.9h0c2.2,0,3.9-1.7,3.9-3.9v-15.6c0-2.2-1.7-3.9-3.9-3.9H83.4v-0.1H64c-2.2,0-3.9,1.7-3.9,3.9v15.6
	C60.1,955.8,61.9,957.6,64,957.6z M71.7,949.7L71.7,949.7c-2.2,0-3.9-1.7-3.9-3.9l0,0c0-2.2,1.7-3.9,3.9-3.9h0
	c2.2,0,3.9,1.7,3.9,3.9l0,0C75.6,948,73.9,949.7,71.7,949.7z"/>
<path class="st0" d="M99,906.9c0-2.2-1.7-3.9-3.9-3.9H75.7v0.1H64c-2.2,0-3.9,1.7-3.9,3.9v15.6c0,2.2,1.7,3.9,3.9,3.9h0
	c2.2,0,3.9-1.7,3.9-3.9v-7.8c0-2.2,1.7-3.9,3.9-3.9h0c2.2,0,3.9,1.7,3.9,3.9v7.7c0,2.2,1.7,3.9,3.9,3.9h15.5c2.2,0,3.9-1.7,3.9-3.9
	V906.9z M87.4,910.7L87.4,910.7c2.2,0,3.9,1.7,3.9,3.9l0,0c0,2.2-1.7,3.9-3.9,3.9h0c-2.2,0-3.9-1.7-3.9-3.9l0,0
	C83.5,912.5,85.3,910.7,87.4,910.7z"/>
<path class="st0" d="M67.8,1004.5v-3.9c0-2.2-1.7-3.9-3.9-3.9h0c-2.2,0-3.9,1.7-3.9,3.9v3.9v11.7c0,2.2,1.7,3.9,3.9,3.9h3.9h7.8h7.8
	h11.7c2.2,0,3.9-1.7,3.9-3.9l0,0c0-2.2-1.7-3.9-3.9-3.9h-7.8c-2.2,0-3.9-1.7-3.9-3.9v-3.9v-3.9c0-2.2-1.7-3.9-3.9-3.9h0
	c-2.2,0-3.9,1.7-3.9,3.9v3.9v3.9c0,2.2-1.7,3.9-3.9,3.9h0c-2.2,0-3.9-1.7-3.9-3.9V1004.5z"/>
<g>
	<rect x="660" y="997" class="st5" width="240" height="23"/>
</g>
<line class="st6" x1="960" y1="997" x2="960" y2="1020"/>
<line class="st7" x1="970" y1="997" x2="970" y2="1020"/>
<line class="st8" x1="980" y1="997" x2="980" y2="1020"/>
<line class="st9" x1="990" y1="997" x2="990" y2="1020"/>
<line class="st6" x1="1000" y1="997" x2="1000" y2="1020"/>
<line class="st10" x1="1010" y1="997" x2="1010" y2="1020"/>
<line class="st6" x1="1020" y1="997" x2="1020" y2="1020"/>
<line class="st11" x1="1030" y1="997" x2="1030" y2="1020"/>
<line class="st9" x1="1040" y1="997" x2="1040" y2="1020"/>
<line class="st12" x1="1050" y1="997" x2="1050" y2="1020"/>
<line class="st9" x1="1060" y1="997" x2="1060" y2="1020"/>
<line class="st6" x1="1070" y1="997" x2="1070" y2="1020"/>
<line class="st13" x1="1080" y1="997" x2="1080" y2="1020"/>
<line class="st6" x1="1090" y1="997" x2="1090" y2="1020"/>
<line class="st9" x1="1100" y1="997" x2="1100" y2="1020"/>
<line class="st14" x1="1110" y1="997" x2="1110" y2="1020"/>
<line class="st11" x1="1120" y1="997" x2="1120" y2="1020"/>
<line class="st7" x1="1130" y1="997" x2="1130" y2="1020"/>
<line class="st6" x1="1140" y1="997" x2="1140" y2="1020"/>
<line class="st6" x1="1140" y1="997" x2="1140" y2="1020"/>
<line class="st7" x1="1150" y1="997" x2="1150" y2="1020"/>
<line class="st8" x1="1160" y1="997" x2="1160" y2="1020"/>
<line class="st9" x1="1170" y1="997" x2="1170" y2="1020"/>
<line class="st6" x1="1180" y1="997" x2="1180" y2="1020"/>
<line class="st10" x1="1190" y1="997" x2="1190" y2="1020"/>
<line class="st6" x1="1200" y1="997" x2="1200" y2="1020"/>
<text transform="matrix(1 0 0 1 660.5 991.1533)" class="st0 st15 st16">mind-blowing                                                      badge hardware</text>
<line class="st6" x1="662" y1="719.5" x2="902" y2="719.5"/>
<text transform="matrix(1 0 0 1 662.5 713.6533)" class="st0 st15 st16">mind-blowing                                                      badge hardware</text>
<line class="st6" x1="1619.8" y1="690" x2="1619.8" y2="1020.6"/>
<line class="st6" x1="1649.9" y1="690" x2="1649.9" y2="1020.6"/>
<line class="st6" x1="1680" y1="690" x2="1680" y2="1020.6"/>
<line class="st6" x1="1710" y1="690" x2="1710" y2="1020.6"/>
<line class="st6" x1="1740.1" y1="690" x2="1740.1" y2="1020.6"/>
<line class="st6" x1="1770.1" y1="690" x2="1770.1" y2="1020.6"/>
<line class="st6" x1="1800.2" y1="690" x2="1800.2" y2="1020.6"/>
<circle class="st17" cx="1650.2" cy="779.9" r="3.8"/>
<circle class="st17" cx="1680.2" cy="810" r="3.8"/>
<circle class="st17" cx="1680.2" cy="840" r="3.8"/>
<circle class="st17" cx="1710.3" cy="840" r="3.8"/>
<circle class="st17" cx="1710.3" cy="870.1" r="3.8"/>
<circle class="st17" cx="1740.3" cy="870.1" r="3.8"/>
<circle class="st17" cx="1740.3" cy="900.1" r="3.8"/>
<circle class="st17" cx="1770.4" cy="900.1" r="3.8"/>
<circle class="st17" cx="1770.4" cy="930.2" r="3.8"/>
<line class="st6" x1="1620.1" y1="749.8" x2="1560" y2="749.8"/>
<g>
	<g>
		<line class="st6" x1="1620.1" y1="779.9" x2="1561.1" y2="779.9"/>
		<g>
			<polygon class="st0" points="1564.4,775.8 1565.1,776.5 1561.5,779.9 1565.1,783.3 1564.4,784 1560,779.9 			"/>
		</g>
	</g>
</g>
<circle class="st17" cx="1620.1" cy="749.8" r="3.8"/>
<circle class="st17" cx="1620.1" cy="779.9" r="3.8"/>
<line class="st6" x1="1650.2" y1="810" x2="1560.3" y2="810"/>
<line class="st6" x1="1650.2" y1="840" x2="1560.3" y2="840"/>
<circle class="st17" cx="1650.2" cy="810" r="3.8"/>
<circle class="st17" cx="1650.2" cy="840" r="3.8"/>
<g>
	<g>
		<line class="st6" x1="1680.2" y1="870.1" x2="1561.3" y2="870.1"/>
		<g>
			<polygon class="st0" points="1564.6,866 1565.3,866.7 1561.7,870 1565.3,873.4 1564.6,874.1 1560.3,870 			"/>
		</g>
	</g>
</g>
<g>
	<g>
		<line class="st6" x1="1710.3" y1="900.1" x2="1561.3" y2="900.1"/>
		<g>
			<polygon class="st0" points="1564.6,896 1565.3,896.7 1561.7,900.1 1565.3,903.5 1564.6,904.2 1560.3,900.1 			"/>
		</g>
	</g>
</g>
<g>
	<g>
		<line class="st6" x1="1740.3" y1="930.2" x2="1561.3" y2="930.2"/>
		<g>
			<polygon class="st0" points="1564.6,926.1 1565.3,926.8 1561.7,930.2 1565.3,933.5 1564.6,934.2 1560.3,930.2 			"/>
		</g>
	</g>
</g>
<g>
	<g>
		<line class="st6" x1="1770.4" y1="960.2" x2="1561.3" y2="960.2"/>
		<g>
			<polygon class="st0" points="1564.6,956.1 1565.3,956.8 1561.7,960.2 1565.3,963.6 1564.6,964.3 1560.3,960.2 			"/>
		</g>
	</g>
</g>
<g>
	<g>
		<line class="st6" x1="1800.4" y1="990.3" x2="1561.3" y2="990.3"/>
		<g>
			<polygon class="st0" points="1564.6,986.2 1565.3,986.9 1561.7,990.3 1565.3,993.6 1564.6,994.3 1560.3,990.3 			"/>
		</g>
	</g>
</g>
<line class="st6" x1="1860.5" y1="720.3" x2="1620.1" y2="719.8"/>
<g>
	<g>
		<line class="st6" x1="1859.4" y1="750.4" x2="1651.2" y2="750.4"/>
		<g>
			<polygon class="st0" points="1856.1,746.3 1855.4,747 1859,750.4 1855.4,753.7 1856.1,754.4 1860.5,750.4 			"/>
		</g>
		<g>
			<polygon class="st0" points="1654.5,746.3 1655.2,747 1651.6,750.4 1655.2,753.7 1654.5,754.4 1650.2,750.4 			"/>
		</g>
	</g>
</g>
<line class="st6" x1="1860.5" y1="780.4" x2="1680.7" y2="780.4"/>
<g>
	<g>
		<line class="st6" x1="1859.4" y1="810.5" x2="1710.8" y2="810.5"/>
		<g>
			<polygon class="st0" points="1856.1,806.4 1855.4,807.1 1859,810.5 1855.4,813.8 1856.1,814.5 1860.5,810.5 			"/>
		</g>
	</g>
</g>
<g>
	<g>
		<line class="st6" x1="1859.4" y1="840.5" x2="1740.3" y2="840.5"/>
		<g>
			<polygon class="st0" points="1856.1,836.4 1855.4,837.1 1859,840.5 1855.4,843.9 1856.1,844.6 1860.5,840.5 			"/>
		</g>
	</g>
</g>
<line class="st6" x1="1860.5" y1="870.6" x2="1770.9" y2="870.6"/>
<line class="st6" x1="1860.5" y1="900.6" x2="1800.4" y2="900.6"/>
<line class="st6" x1="1860.5" y1="930.7" x2="1800.4" y2="930.7"/>
<line class="st6" x1="1860.5" y1="960.7" x2="1800.4" y2="960.7"/>
<line class="st6" x1="1860.5" y1="990.8" x2="1800.4" y2="990.8"/>
<circle class="st17" cx="1650.2" cy="749.8" r="3.8"/>
<circle class="st17" cx="1680.2" cy="779.9" r="3.8"/>
<circle class="st17" cx="1680.2" cy="870.1" r="3.8"/>
<circle class="st17" cx="1710.3" cy="810" r="3.8"/>
<circle class="st17" cx="1710.3" cy="900.1" r="3.8"/>
<circle class="st17" cx="1740.3" cy="840" r="3.8"/>
<circle class="st17" cx="1740.3" cy="930.2" r="3.8"/>
<circle class="st17" cx="1770.4" cy="870.1" r="3.8"/>
<circle class="st17" cx="1770.4" cy="960.2" r="3.8"/>
<circle class="st17" cx="1800.4" cy="900.1" r="3.8"/>
<circle class="st17" cx="1800.4" cy="930.2" r="3.8"/>
<circle class="st17" cx="1800.4" cy="960.2" r="3.8"/>
<circle class="st17" cx="1800.4" cy="990.3" r="3.8"/>
<text transform="matrix(0 1 -1 0 1842.6001 180.3015)"><tspan x="0" y="0" class="st0 st1 st18">2019 Hackaday Prize Ceremony</tspan><tspan x="0" y="12.9" class="st0 st15 st19">Hackaday Annual Extravaganza</tspan></text>
<path class="st5" d="M1561,61.8V121h300l-1-5.6c0-29.6-24-53.6-53.6-53.6H1561z"/>
<circle cx="1289.5" cy="476.5" r="9.5"/>
<circle class="st5" cx="1576" cy="165" r="15"/>
<g>
	<g>
		<path class="st6" d="M1620.1,719.8H1560l-567.3,0.7c-17.8,0-32.2-14.4-32.2-32.2V418.7c0-17.8,14.4-32.2,32.2-32.2h155.6
			c17.8,0,32.2-14.4,32.2-32.2V182.7c0-17.8-14.4-32.2-32.2-32.2H717.2c-31.8,0-57.7,25.8-57.7,57.7v223.1
			c0,17.8,14.4,32.2,32.2,32.2h77.1c17.8,0,32.2,14.4,32.2,32.2v94.1c0,17.8-14.4,32.2-32.2,32.2H660H436.6"/>
		<g>
			<polygon class="st0" points="439.9,617.9 440.6,618.6 437,622 440.6,625.4 439.9,626.1 435.5,622 			"/>
		</g>
	</g>
</g>
<path class="st4" d="M778.7,270.5c0,30.8,25,55.8,55.8,55.8c26.2,0,48.1-18,54.1-42.3H834v-69.3C803.4,215,778.7,239.9,778.7,270.5z
	"/>
<text transform="matrix(1 0 0 1 804.2695 228.0127)"><tspan x="0" y="0" class="st0 st20 st21">module </tspan><tspan x="-10.2" y="8.4" class="st0 st20 st21">test(in</tspan><tspan x="19.2" y="8.4" class="st0 st20 st21">-</tspan><tspan x="-16.8" y="16.8" class="st0 st20 st21">put clk, </tspan><tspan x="-21.2" y="25.2" class="st0 st20 st21">input reset, </tspan><tspan x="-24" y="33.6" class="st0 st20 st21">input a, </tspan><tspan x="-25.4" y="42" class="st0 st20 st21">input b, </tspan><tspan x="-25" y="50.4" class="st0 st20 st21">input enable, </tspan><tspan x="-23.1" y="58.8" class="st0 st20 st21">output reg </tspan><tspan x="-19.8" y="67.2" class="st0 st20 st21">q);</tspan><tspan x="-14.7" y="75.6" class="st0 st20 st21">wire q_intermediate;</tspan><tspan x="-7.1" y="84" class="st0 st20 st21">assign q_interme</tspan><tspan x="60.1" y="84" class="st0 st20 st21">-</tspan><tspan x="5.2" y="92.4" class="st0 st20 st21">diate=a^b;</tspan></text>
<path class="st0" d="M1018.3,305.1c-19.1,0-34.6-15.5-34.6-34.6c0-19,15.3-34.4,34.3-34.6v-21.2c-30.7,0.2-55.5,25.1-55.5,55.8
	c0,30.8,25,55.8,55.8,55.8c28,0,51.1-20.6,55.2-47.4h-21.6C1048.1,293.9,1034.5,305.1,1018.3,305.1z"/>
<path class="st0" d="M961,780.2v60h60v-60H961z M1007.2,815.7H997v11.4h-12v-11.4h-10.2v-11.2h10.2v-11.2h12v11.2h10.2V815.7z"/>
<path class="st0" d="M276.3,642.4h106c5.2,0,9.1-4.6,8.3-9.8l-4.6-27.8c-0.7-4.1-4.2-7-8.3-7h-12.8c-4.6,0-8.4,3.8-8.4,8.4l0,0
	c0,4.6-3.8,8.4-8.4,8.4h-37.8c-4.6,0-8.4-3.8-8.4-8.4l0,0c0-4.6-3.8-8.4-8.4-8.4h-13.6c-4.2,0-7.8,3.1-8.3,7.3L268,633
	C267.3,638,271.2,642.4,276.3,642.4z"/>
<path class="st0" d="M347.6,496.6c-11.2-2.2-22.1,5.1-24.4,16.3c-1.6,7.9,1.6,15.7,7.6,20.4l-1.3,16.5l1.5,0.3l-7.4,37.5h-7.6
	c-5.2,0-9.4,4.2-9.4,9.4v5.9c0,5.2,4.2,9.4,9.4,9.4h26.3c5.2,0,9.4-4.2,9.4-9.4v-5.9c0-5.2-4.2-9.4-9.4-9.4h-6.9l7-35.2l1.5,0.3
	l5.1-15.7c7.3-2,13.2-8,14.8-15.9C366.2,509.7,358.8,498.8,347.6,496.6z"/>
<g>
	<rect x="275.8" y="642.2" class="st0" width="19.4" height="6.8"/>
	<rect x="363.4" y="642.2" class="st0" width="19.4" height="6.8"/>
</g>
<circle class="st17" cx="1620.1" cy="719.8" r="3.8"/>
<circle class="st0" cx="297.7" cy="311.3" r="2.4"/>
<circle class="st0" cx="281.4" cy="311.3" r="2.4"/>
<circle class="st0" cx="297.7" cy="319.4" r="2.4"/>
<circle class="st0" cx="281.4" cy="319.4" r="2.4"/>
<circle class="st0" cx="273.3" cy="319.4" r="2.4"/>
<circle class="st0" cx="297.7" cy="327.6" r="2.4"/>
<circle class="st0" cx="289.6" cy="327.6" r="2.4"/>
<circle class="st0" cx="281.4" cy="327.6" r="2.4"/>
<circle class="st0" cx="289.6" cy="335.7" r="2.4"/>
<circle class="st0" cx="289.6" cy="352.9" r="2.4"/>
<circle class="st0" cx="273.3" cy="352.9" r="2.4"/>
<circle class="st0" cx="297.7" cy="361.1" r="2.4"/>
<circle class="st0" cx="289.6" cy="361.1" r="2.4"/>
<circle class="st0" cx="281.4" cy="361.1" r="2.4"/>
<circle class="st0" cx="281.4" cy="369.2" r="2.4"/>
<circle class="st0" cx="273.3" cy="369.2" r="2.4"/>
<circle class="st0" cx="297.7" cy="377.3" r="2.4"/>
<circle class="st0" cx="289.6" cy="377.3" r="2.4"/>
<circle class="st0" cx="273.3" cy="377.3" r="2.4"/>
<circle class="st0" cx="297.7" cy="385.4" r="2.4"/>
<circle class="st0" cx="289.6" cy="385.4" r="2.4"/>
<circle class="st0" cx="281.4" cy="385.4" r="2.4"/>
<circle class="st0" cx="297.7" cy="426.7" r="2.4"/>
<circle class="st0" cx="281.4" cy="426.7" r="2.4"/>
<circle class="st0" cx="297.7" cy="418.6" r="2.4"/>
<circle class="st0" cx="281.4" cy="418.6" r="2.4"/>
<circle class="st0" cx="273.3" cy="418.6" r="2.4"/>
<circle class="st0" cx="297.7" cy="410.4" r="2.4"/>
<circle class="st0" cx="289.6" cy="410.4" r="2.4"/>
<circle class="st0" cx="281.4" cy="410.4" r="2.4"/>
<circle class="st0" cx="289.6" cy="402.3" r="2.4"/>
<circle class="st0" cx="289.6" cy="442.9" r="2.4"/>
<circle class="st0" cx="273.3" cy="442.9" r="2.4"/>
<circle class="st0" cx="297.7" cy="451.1" r="2.4"/>
<circle class="st0" cx="289.6" cy="451.1" r="2.4"/>
<circle class="st0" cx="281.4" cy="451.1" r="2.4"/>
<circle class="st0" cx="281.4" cy="459.2" r="2.4"/>
<circle class="st0" cx="273.3" cy="459.2" r="2.4"/>
<circle class="st0" cx="297.7" cy="467.3" r="2.4"/>
<circle class="st0" cx="289.6" cy="467.3" r="2.4"/>
<circle class="st0" cx="273.3" cy="467.3" r="2.4"/>
<circle class="st0" cx="297.7" cy="475.4" r="2.4"/>
<circle class="st0" cx="289.6" cy="475.4" r="2.4"/>
<circle class="st0" cx="281.4" cy="475.4" r="2.4"/>
<circle class="st0" cx="233.3" cy="475.4" r="2.4"/>
<circle class="st0" cx="249.6" cy="475.4" r="2.4"/>
<circle class="st0" cx="233.3" cy="467.3" r="2.4"/>
<circle class="st0" cx="249.6" cy="467.3" r="2.4"/>
<circle class="st0" cx="257.7" cy="467.3" r="2.4"/>
<circle class="st0" cx="233.3" cy="459.2" r="2.4"/>
<circle class="st0" cx="241.4" cy="459.2" r="2.4"/>
<circle class="st0" cx="249.6" cy="459.2" r="2.4"/>
<circle class="st0" cx="241.4" cy="451.1" r="2.4"/>
<circle class="st0" cx="241.4" cy="433.8" r="2.4"/>
<circle class="st0" cx="257.7" cy="433.8" r="2.4"/>
<circle class="st0" cx="233.3" cy="425.7" r="2.4"/>
<circle class="st0" cx="241.4" cy="425.7" r="2.4"/>
<circle class="st0" cx="249.6" cy="425.7" r="2.4"/>
<circle class="st0" cx="249.6" cy="417.6" r="2.4"/>
<circle class="st0" cx="257.7" cy="417.6" r="2.4"/>
<circle class="st0" cx="233.3" cy="409.4" r="2.4"/>
<circle class="st0" cx="241.4" cy="409.4" r="2.4"/>
<circle class="st0" cx="257.7" cy="409.4" r="2.4"/>
<circle class="st0" cx="233.3" cy="401.3" r="2.4"/>
<circle class="st0" cx="241.4" cy="401.3" r="2.4"/>
<circle class="st0" cx="249.6" cy="401.3" r="2.4"/>
<circle class="st0" cx="233.3" cy="360.1" r="2.4"/>
<circle class="st0" cx="249.6" cy="360.1" r="2.4"/>
<circle class="st0" cx="233.3" cy="368.2" r="2.4"/>
<circle class="st0" cx="249.6" cy="368.2" r="2.4"/>
<circle class="st0" cx="257.7" cy="368.2" r="2.4"/>
<circle class="st0" cx="233.3" cy="376.3" r="2.4"/>
<circle class="st0" cx="241.4" cy="376.3" r="2.4"/>
<circle class="st0" cx="249.6" cy="376.3" r="2.4"/>
<circle class="st0" cx="241.4" cy="384.4" r="2.4"/>
<circle class="st0" cx="241.4" cy="343.8" r="2.4"/>
<circle class="st0" cx="257.7" cy="343.8" r="2.4"/>
<circle class="st0" cx="233.3" cy="335.7" r="2.4"/>
<circle class="st0" cx="241.4" cy="335.7" r="2.4"/>
<circle class="st0" cx="249.6" cy="335.7" r="2.4"/>
<circle class="st0" cx="249.6" cy="327.6" r="2.4"/>
<circle class="st0" cx="257.7" cy="327.6" r="2.4"/>
<circle class="st0" cx="233.3" cy="319.4" r="2.4"/>
<circle class="st0" cx="241.4" cy="319.4" r="2.4"/>
<circle class="st0" cx="257.7" cy="319.4" r="2.4"/>
<circle class="st0" cx="233.3" cy="311.3" r="2.4"/>
<circle class="st0" cx="241.4" cy="311.3" r="2.4"/>
<circle class="st0" cx="249.6" cy="311.3" r="2.4"/>
<path class="st6" d="M68.5,286.5V467v64.2c0,5.1,4.1,9.2,9.2,9.2h95c5.1,0,9.2,4.1,9.2,9.2v3.1c0,5.1-4.1,9.2-9.2,9.2H78
	c-5.1,0-9.2,4.1-9.2,9.2v1.4c0,5.1,4.1,9.2,9.2,9.2h92.8c5.1,0,9.2,4.1,9.2,9.2l0,0c0,5.1-4.1,9.2-9.2,9.2H78
	c-5.1,0-9.2,4.1-9.2,9.2v1.1c0,5.1,4.1,9.2,9.2,9.2h162.5"/>
<polygon class="st0" points="1395.3,500.4 1395.3,553.5 1448.9,607.1 1502,553.9 1502,500.4 1448.6,553.7 "/>
<polygon class="st0" points="1463,552.6 1463,421.1 1502,447.7 1502,552.6 "/>
<polygon class="st0" points="1395.3,500.4 1395.3,553.5 1315.1,553.5 1262,500.4 "/>
<polygon class="st22" points="1262,500.4 1315.1,553.5 1315.1,473.8 1368.5,420.4 1315.1,420.4 "/>
<polygon class="st5" points="1395.3,500.4 1395.3,553.5 1448.9,607.1 1502,553.9 1502,500.4 1448.6,553.7 "/>
<polygon class="st5" points="1463,420.7 1315.1,420.7 1341.5,447 1500.7,447 "/>
<text transform="matrix(1 0 0 1 1320.5 571.6533)"><tspan x="0" y="0" class="st0 st23 st16">mind-blowing </tspan><tspan x="0" y="10.4" class="st0 st23 st16">badge </tspan><tspan x="0" y="20.8" class="st0 st23 st16">hardware™</tspan></text>
<g>
	<path class="st0" d="M63,285.3v-25.7c0-0.8,0.7-1.5,1.5-1.5h8c0.8,0,1.5,0.7,1.5,1.5v25.7c0,0.8-0.7,1.5-1.5,1.5h-8
		C63.7,286.7,63,286.1,63,285.3z"/>
	
		<rect x="66.8" y="252.8" transform="matrix(-1.836970e-16 1 -1 -1.836970e-16 324.3913 187.3913)" class="st0" width="3.3" height="6.2"/>
	
		<rect x="66.8" y="249" transform="matrix(-1.836970e-16 1 -1 -1.836970e-16 320.5652 183.5652)" class="st0" width="3.3" height="6.2"/>
	<path class="st0" d="M65.4,249.9V244c0-1,0.8-1.8,1.8-1.8h3c0.8,0,1.4,0.6,1.4,1.4v6.2H65.4z"/>
</g>
<text transform="matrix(-1 0 0 -1 600.5 61.8003)" class="st0 st1 st2 st3">5Con™</text>
<path class="st0" d="M299,792.9H63c-1.1,0-2-0.9-2-2V787c0-1.1,0.9-2,2-2h236c1.1,0,2,0.9,2,2v3.9C301,792,300.1,792.9,299,792.9z"
	/>
<path class="st0" d="M180,806.8H63c-1.1,0-2-0.9-2-2v-3.9c0-1.1,0.9-2,2-2h117c1.1,0,2,0.9,2,2v3.9C182,805.9,181.1,806.8,180,806.8
	z"/>
<path class="st0" d="M71.1,815.8l-6.9,6.9c-0.6,0.6-1.6,0.6-2.3,0h0c-0.6-0.6-0.6-1.6,0-2.3l6.9-6.9c0.6-0.6,1.6-0.6,2.3,0h0
	C71.8,814.1,71.8,815.1,71.1,815.8z"/>
<path class="st0" d="M70,815.8h-4.8c-0.9,0-1.6-0.7-1.6-1.6l0,0c0-0.9,0.7-1.6,1.6-1.6H70c0.9,0,1.6,0.7,1.6,1.6l0,0
	C71.6,815.1,70.9,815.8,70,815.8z"/>
<path class="st0" d="M72,819.4v-4.8c0-0.9-0.7-1.6-1.6-1.6h0c-0.9,0-1.6,0.7-1.6,1.6v4.8c0,0.9,0.7,1.6,1.6,1.6h0
	C71.3,821,72,820.3,72,819.4z"/>
<polygon class="st0" points="653.4,840.5 650.5,840.5 600.5,840.5 600.5,850.5 643.4,850.5 603.4,890.5 425.5,890.5 425.5,900.5 
	607.6,900.5 650.5,857.6 650.5,900.5 660.5,900.5 660.5,850.5 660.5,847.6 660.5,840.5 "/>
<rect x="1561.2" y="260.4" class="st0" width="9.8" height="20.1"/>
<polyline class="st0" points="1576.1,280.6 1596,300.5 1596,240.5 1576.1,260.4 "/>
<polyline class="st0" points="1602.8,268.5 1598.8,264.5 1598.8,276.5 1602.8,272.5 "/>
<polygon class="st0" points="1830.3,660.8 1815.3,660.8 1785.1,630.7 1815.4,600.4 1830.3,600.4 1799.9,630.9 "/>
<polygon class="st0" points="1860.5,660.8 1845.4,660.8 1815.3,630.7 1845.5,600.4 1860.5,600.4 1830,630.9 "/>
<line class="st24" x1="1621" y1="240" x2="1621" y2="300.5"/>
<line class="st25" x1="1630.9" y1="240" x2="1630.9" y2="300.5"/>
<line class="st26" x1="1640.8" y1="240" x2="1640.8" y2="300.5"/>
<line class="st27" x1="1650.7" y1="240" x2="1650.7" y2="300.5"/>
<line class="st28" x1="1660.7" y1="240" x2="1660.7" y2="300.5"/>
<line class="st25" x1="1670.6" y1="240" x2="1670.6" y2="300.5"/>
<line class="st29" x1="1680.5" y1="240" x2="1680.5" y2="300.5"/>
<line class="st30" x1="1690.4" y1="240" x2="1690.4" y2="300.5"/>
<line class="st24" x1="1700.3" y1="240" x2="1700.3" y2="300.5"/>
<line class="st31" x1="1710.2" y1="240" x2="1710.2" y2="300.5"/>
<line class="st24" x1="1710.2" y1="240" x2="1710.2" y2="300.5"/>
<line class="st29" x1="1720.2" y1="240" x2="1720.2" y2="300.5"/>
<line class="st26" x1="1730.1" y1="240" x2="1730.1" y2="300.5"/>
<line class="st27" x1="1740" y1="240" x2="1740" y2="300.5"/>
<line class="st28" x1="1749.9" y1="240" x2="1749.9" y2="300.5"/>
<line class="st25" x1="1759.8" y1="240" x2="1759.8" y2="300.5"/>
<line class="st29" x1="1769.7" y1="240" x2="1769.7" y2="300.5"/>
<line class="st30" x1="1779.7" y1="240" x2="1779.7" y2="300.5"/>
<line class="st24" x1="1789.6" y1="240" x2="1789.6" y2="300.5"/>
<line class="st31" x1="1799.5" y1="240" x2="1799.5" y2="300.5"/>
<line class="st25" x1="1759.8" y1="240" x2="1759.8" y2="300.5"/>
<line class="st29" x1="1769.7" y1="240" x2="1769.7" y2="300.5"/>
<line class="st30" x1="1779.7" y1="240" x2="1779.7" y2="300.5"/>
<line class="st24" x1="1789.6" y1="240" x2="1789.6" y2="300.5"/>
<line class="st31" x1="1799.5" y1="240" x2="1799.5" y2="300.5"/>
<path class="st6" d="M1560,270.5L1560,270.5c-6.2,0-11.3,5.1-11.3,11.3v283.7c0,6.2,5.1,11.3,11.3,11.3h360.5"/>
<polygon class="st5" points="960.5,900.5 960.5,930.7 1020.5,960.5 1224,960.5 1281.3,1017.7 1500.5,1017.7 1500.5,930.7 
	1467.9,898.1 "/>
<rect x="960.5" y="858.2" class="st4" width="502.5" height="29.1"/>
<text transform="matrix(1 0 0 1 960.5 865.1943)"><tspan x="0" y="0" class="st0 st20 st32">Core mission of the Hackaday Superconference is to encourage more people to speak </tspan><tspan x="0" y="12" class="st0 st20 st32">publicly about everything that goes into designing and manufacturing hardware. </tspan></text>
<g>
	<polyline class="st12" points="180,918 180,900 194,900 	"/>
	<polyline class="st12" points="300,918 300,900 286,900 	"/>
	<polyline class="st12" points="180,1002 180,1020 194,1020 	"/>
	<polyline class="st12" points="300,1002 300,1020 286,1020 	"/>
</g>
<line class="st12" x1="1260" y1="60" x2="1500" y2="60"/>
<g>
	<path class="st0" d="M1270.1,71.2l-6.9,6.9c-0.6,0.6-1.6,0.6-2.3,0l0,0c-0.6-0.6-0.6-1.6,0-2.3l6.9-6.9c0.6-0.6,1.6-0.6,2.3,0l0,0
		C1270.8,69.5,1270.8,70.5,1270.1,71.2z"/>
	<path class="st0" d="M1269,71.2h-4.8c-0.9,0-1.6-0.7-1.6-1.6l0,0c0-0.9,0.7-1.6,1.6-1.6h4.8c0.9,0,1.6,0.7,1.6,1.6l0,0
		C1270.6,70.5,1269.9,71.2,1269,71.2z"/>
	<path class="st0" d="M1271,74.8V70c0-0.9-0.7-1.6-1.6-1.6l0,0c-0.9,0-1.6,0.7-1.6,1.6v4.8c0,0.9,0.7,1.6,1.6,1.6l0,0
		C1270.3,76.4,1271,75.7,1271,74.8z"/>
</g>
</svg>
