<?xml version="1.0" encoding="utf-8"?>
<!-- Generator: Adobe Illustrator 23.0.0, SVG Export Plug-In . SVG Version: 6.00 Build 0)  -->
<svg version="1.1" id="Layer_2" xmlns="http://www.w3.org/2000/svg" xmlns:xlink="http://www.w3.org/1999/xlink" x="0px" y="0px"
	 viewBox="0 0 1920 1080" style="enable-background:new 0 0 1920 1080;" xml:space="preserve">
<style type="text/css">
	.st0{fill:#FFFFFF;}
	.st1{font-family:'NHaasGroteskDSPro-65Md';}
	.st2{font-size:48px;}
	.st3{letter-spacing:-1;}
	.st4{fill:#E5E5E5;}
	.st5{fill:none;}
	.st6{fill:none;stroke:#FFFFFF;stroke-width:0.25;stroke-miterlimit:10;}
	.st7{fill:none;stroke:#FFFFFF;stroke-width:1.9667;stroke-miterlimit:10;}
	.st8{fill:none;stroke:#FFFFFF;stroke-miterlimit:10;}
	.st9{fill:none;stroke:#FFFFFF;stroke-width:4;stroke-miterlimit:10;}
	.st10{clip-path:url(#SVGID_2_);fill:#FFFFFF;}
	.st11{fill:none;stroke:#FFFFFF;stroke-width:3;stroke-miterlimit:10;}
	.st12{fill:none;stroke:#FFFFFF;stroke-width:5;stroke-miterlimit:10;}
	.st13{fill:none;stroke:#FFFFFF;stroke-width:8;stroke-miterlimit:10;}
	.st14{fill:none;stroke:#FFFFFF;stroke-width:2;stroke-miterlimit:10;}
	.st15{fill:none;stroke:#FFFFFF;stroke-width:10;stroke-miterlimit:10;}
	.st16{fill:none;stroke:#FFFFFF;stroke-width:6;stroke-miterlimit:10;}
</style>
<text transform="matrix(1 0 0 1 659.4795 531.0044)"><tspan x="0" y="0" class="st0 st1 st2 st3">Hardware </tspan><tspan x="0" y="48" class="st0 st1 st2 st3">Creation</tspan></text>
<text transform="matrix(1 0 0 1 1560.4795 279.0044)"><tspan x="0" y="0" class="st0 st1 st2 st3">Manufacturable</tspan><tspan x="0" y="48" class="st0 st1 st2 st3">Designs</tspan></text>
<text transform="matrix(1 0 0 1 59.4795 877.0044)" class="st0 st1 st2 st3">Prototyping</text>
<text transform="matrix(0 -1 1 0 1295.6812 781.6709)" class="st0 st1 st2 st3">Hardware Art</text>
<text transform="matrix(0 -1 1 0 1860.522 1020.5127)" class="st0 st1 st2 st3">5Con™</text>
<rect x="964" y="184" class="st0" width="2.3" height="2.3"/>
<rect x="1001.3" y="184.3" class="st0" width="2.3" height="2.3"/>
<rect x="1038.2" y="184.3" class="st0" width="2.3" height="2.3"/>
<rect x="1075.2" y="184.3" class="st0" width="2.3" height="2.3"/>
<rect x="964" y="220.9" class="st0" width="2.3" height="2.3"/>
<rect x="1001.3" y="221.3" class="st0" width="2.3" height="2.3"/>
<rect x="1038.2" y="221.3" class="st0" width="2.3" height="2.3"/>
<rect x="1075.2" y="221.3" class="st0" width="2.3" height="2.3"/>
<rect x="964" y="257.9" class="st0" width="2.3" height="2.3"/>
<rect x="1001.3" y="258.2" class="st0" width="2.3" height="2.3"/>
<rect x="1038.2" y="258.2" class="st0" width="2.3" height="2.3"/>
<rect x="1075.2" y="258.2" class="st0" width="2.3" height="2.3"/>
<rect x="964" y="294.9" class="st0" width="2.3" height="2.3"/>
<rect x="1001.3" y="295.2" class="st0" width="2.3" height="2.3"/>
<rect x="1038.2" y="295.2" class="st0" width="2.3" height="2.3"/>
<rect x="1075.2" y="295.2" class="st0" width="2.3" height="2.3"/>
<rect x="1108" y="184" class="st0" width="2.3" height="2.3"/>
<rect x="1145.3" y="184.3" class="st0" width="2.3" height="2.3"/>
<rect x="1182.2" y="184.3" class="st0" width="2.3" height="2.3"/>
<rect x="1108" y="220.9" class="st0" width="2.3" height="2.3"/>
<rect x="1145.3" y="221.3" class="st0" width="2.3" height="2.3"/>
<rect x="1182.2" y="221.3" class="st0" width="2.3" height="2.3"/>
<rect x="1108" y="257.9" class="st0" width="2.3" height="2.3"/>
<rect x="1145.3" y="258.2" class="st0" width="2.3" height="2.3"/>
<rect x="1182.2" y="258.2" class="st0" width="2.3" height="2.3"/>
<rect x="1108" y="294.9" class="st0" width="2.3" height="2.3"/>
<rect x="1145.3" y="295.2" class="st0" width="2.3" height="2.3"/>
<rect x="1182.2" y="295.2" class="st0" width="2.3" height="2.3"/>
<polygon class="st0" points="685.5,204.8 757.9,204.8 757.9,180.3 660.9,180.3 660.9,241 685.5,241 "/>
<polygon class="st4" points="659.5,241 634.9,241 634.9,301 731.5,301 731.5,276.9 659.5,276.9 "/>
<rect x="107" y="733" class="st5" width="24" height="24"/>
<rect x="83.4" y="685" class="st5" width="23.6" height="24"/>
<polygon class="st0" points="155.4,685 155,661 107,661 107,685 "/>
<g>
	<rect x="59" y="744" class="st4" width="48" height="24"/>
	<polygon class="st4" points="107,672 107,648 59,648 59,720 107,720 107,696 83.4,696 83.4,672 	"/>
</g>
<polygon class="st0" points="107,733 131,733 131,757 107,757 107,781 155,781 155,709 107,709 "/>
<polygon class="st5" points="983.7,697.1 1032.1,697.1 1032.1,691.9 983.7,631.1 "/>
<polygon class="st5" points="983.7,624.6 983.7,631.1 1032.1,691.9 1032.1,625.4 "/>
<polygon class="st4" points="1055.4,721.2 1032.1,691.9 1032.1,697.1 983.7,697.1 983.7,631.1 960,601.4 960,721.2 "/>
<polygon class="st0" points="1007.7,599.6 1056.1,600.4 1056.1,666.9 1079.4,696.2 1080.2,696.2 1080.2,576 984,576 984,576.4 
	1007.7,606.1 "/>
<polygon class="st5" points="1429.6,901 1436.2,901 1429.6,894.3 "/>
<polygon class="st5" points="1477.3,901 1469.4,901 1477.3,908.9 "/>
<g>
	<rect x="1405.7" y="901" class="st4" width="23.8" height="60.2"/>
	<polygon class="st0" points="1404.6,855.2 1404.6,836 1380.7,836 1380.7,895 1404.6,895 1404.6,888.3 1411.2,895 1444.4,895 	"/>
</g>
<g>
	<rect x="1452.3" y="836" class="st0" width="23.8" height="59"/>
	<polygon class="st4" points="1477.3,901 1477.3,908.9 1469.4,901 1436.2,901 1477.3,942 1477.3,961.2 1501.1,961.2 1501.1,901 	"/>
</g>
<line class="st6" x1="635" y1="241" x2="0" y2="241"/>
<line class="st6" x1="660.5" y1="181.5" x2="0" y2="182"/>
<line class="st5" x1="960" y1="721" x2="960" y2="1080"/>
<line class="st6" x1="960" y1="721" x2="960" y2="1080"/>
<line class="st5" x1="1056" y1="721" x2="1056" y2="1080"/>
<line class="st6" x1="1056" y1="721" x2="1056" y2="1080"/>
<line class="st5" x1="1080" y1="721" x2="1080" y2="1080"/>
<line class="st6" x1="1080" y1="721" x2="1080" y2="1080"/>
<rect x="1144.8" y="182.8" class="st0" width="4.6" height="4.6"/>
<rect x="1182.1" y="183.1" class="st0" width="4.6" height="4.6"/>
<rect x="1219.1" y="183.1" class="st0" width="4.6" height="4.6"/>
<rect x="1256.1" y="183.1" class="st0" width="4.6" height="4.6"/>
<rect x="1144.8" y="219.8" class="st0" width="4.6" height="4.6"/>
<rect x="1182.1" y="220.1" class="st0" width="4.6" height="4.6"/>
<rect x="1219.1" y="220.1" class="st0" width="4.6" height="4.6"/>
<rect x="1256.1" y="220.1" class="st0" width="4.6" height="4.6"/>
<rect x="1144.8" y="256.8" class="st0" width="4.6" height="4.6"/>
<rect x="1182.1" y="257.1" class="st0" width="4.6" height="4.6"/>
<rect x="1219.1" y="257.1" class="st0" width="4.6" height="4.6"/>
<rect x="1256.1" y="257.1" class="st0" width="4.6" height="4.6"/>
<rect x="1144.8" y="293.8" class="st0" width="4.6" height="4.6"/>
<rect x="1182.1" y="294.1" class="st0" width="4.6" height="4.6"/>
<rect x="1219.1" y="294.1" class="st0" width="4.6" height="4.6"/>
<rect x="1256.1" y="294.1" class="st0" width="4.6" height="4.6"/>
<rect x="1288.8" y="182.8" class="st0" width="4.6" height="4.6"/>
<rect x="1326.1" y="183.1" class="st0" width="4.6" height="4.6"/>
<rect x="1363.1" y="183.1" class="st0" width="4.6" height="4.6"/>
<rect x="1288.8" y="219.8" class="st0" width="4.6" height="4.6"/>
<rect x="1326.1" y="220.1" class="st0" width="4.6" height="4.6"/>
<rect x="1363.1" y="220.1" class="st0" width="4.6" height="4.6"/>
<rect x="1288.8" y="256.8" class="st0" width="4.6" height="4.6"/>
<rect x="1326.1" y="257.1" class="st0" width="4.6" height="4.6"/>
<rect x="1363.1" y="257.1" class="st0" width="4.6" height="4.6"/>
<rect x="1288.8" y="293.8" class="st0" width="4.6" height="4.6"/>
<rect x="1326.1" y="294.1" class="st0" width="4.6" height="4.6"/>
<rect x="1363.1" y="294.1" class="st0" width="4.6" height="4.6"/>
<path class="st0" d="M780,720c0-33.1-26.9-60-60-60s-60,26.9-60,60c0,26.5,17.2,49,41,56.9V1080h39V776.6
	C763.3,768.3,780,746.1,780,720z M720,750c-16.6,0-30-13.4-30-30s13.4-30,30-30s30,13.4,30,30S736.6,750,720,750z"/>
<path class="st0" d="M298,912.9H62c-1.1,0-2-0.9-2-2V907c0-1.1,0.9-2,2-2h236c1.1,0,2,0.9,2,2v3.9C300,912,299.1,912.9,298,912.9z"
	/>
<path class="st0" d="M179,926.8H62c-1.1,0-2-0.9-2-2v-3.9c0-1.1,0.9-2,2-2h117c1.1,0,2,0.9,2,2v3.9C181,925.9,180.1,926.8,179,926.8
	z"/>
<path class="st0" d="M70.1,935.8l-6.9,6.9c-0.6,0.6-1.6,0.6-2.3,0h0c-0.6-0.6-0.6-1.6,0-2.3l6.9-6.9c0.6-0.6,1.6-0.6,2.3,0h0
	C70.8,934.1,70.8,935.1,70.1,935.8z"/>
<path class="st0" d="M69,935.8h-4.8c-0.9,0-1.6-0.7-1.6-1.6l0,0c0-0.9,0.7-1.6,1.6-1.6H69c0.9,0,1.6,0.7,1.6,1.6l0,0
	C70.6,935.1,69.9,935.8,69,935.8z"/>
<path class="st0" d="M71,939.4v-4.8c0-0.9-0.7-1.6-1.6-1.6h0c-0.9,0-1.6,0.7-1.6,1.6v4.8c0,0.9,0.7,1.6,1.6,1.6h0
	C70.3,941,71,940.3,71,939.4z"/>
<circle class="st0" cx="1728.6" cy="387.6" r="2.4"/>
<circle class="st0" cx="1728.6" cy="371.3" r="2.4"/>
<circle class="st0" cx="1720.4" cy="387.6" r="2.4"/>
<circle class="st0" cx="1720.4" cy="371.3" r="2.4"/>
<circle class="st0" cx="1720.4" cy="363.2" r="2.4"/>
<circle class="st0" cx="1712.3" cy="387.6" r="2.4"/>
<circle class="st0" cx="1712.3" cy="379.4" r="2.4"/>
<circle class="st0" cx="1712.3" cy="371.3" r="2.4"/>
<circle class="st0" cx="1704.2" cy="379.4" r="2.4"/>
<circle class="st0" cx="1686.9" cy="379.4" r="2.4"/>
<circle class="st0" cx="1686.9" cy="363.2" r="2.4"/>
<circle class="st0" cx="1678.8" cy="387.6" r="2.4"/>
<circle class="st0" cx="1678.8" cy="379.4" r="2.4"/>
<circle class="st0" cx="1678.8" cy="371.3" r="2.4"/>
<circle class="st0" cx="1670.7" cy="371.3" r="2.4"/>
<circle class="st0" cx="1670.7" cy="363.2" r="2.4"/>
<circle class="st0" cx="1662.6" cy="387.6" r="2.4"/>
<circle class="st0" cx="1662.6" cy="379.4" r="2.4"/>
<circle class="st0" cx="1662.6" cy="363.2" r="2.4"/>
<circle class="st0" cx="1654.4" cy="387.6" r="2.4"/>
<circle class="st0" cx="1654.4" cy="379.4" r="2.4"/>
<circle class="st0" cx="1654.4" cy="371.3" r="2.4"/>
<circle class="st0" cx="1613.2" cy="387.6" r="2.4"/>
<circle class="st0" cx="1613.2" cy="371.3" r="2.4"/>
<circle class="st0" cx="1621.3" cy="387.6" r="2.4"/>
<circle class="st0" cx="1621.3" cy="371.3" r="2.4"/>
<circle class="st0" cx="1621.3" cy="363.2" r="2.4"/>
<circle class="st0" cx="1629.4" cy="387.6" r="2.4"/>
<circle class="st0" cx="1629.4" cy="379.4" r="2.4"/>
<circle class="st0" cx="1629.4" cy="371.3" r="2.4"/>
<circle class="st0" cx="1637.6" cy="379.4" r="2.4"/>
<circle class="st0" cx="1596.9" cy="379.4" r="2.4"/>
<circle class="st0" cx="1596.9" cy="363.2" r="2.4"/>
<circle class="st0" cx="1588.8" cy="387.6" r="2.4"/>
<circle class="st0" cx="1588.8" cy="379.4" r="2.4"/>
<circle class="st0" cx="1588.8" cy="371.3" r="2.4"/>
<circle class="st0" cx="1580.7" cy="371.3" r="2.4"/>
<circle class="st0" cx="1580.7" cy="363.2" r="2.4"/>
<circle class="st0" cx="1572.6" cy="387.6" r="2.4"/>
<circle class="st0" cx="1572.6" cy="379.4" r="2.4"/>
<circle class="st0" cx="1572.6" cy="363.2" r="2.4"/>
<circle class="st0" cx="1564.4" cy="387.6" r="2.4"/>
<circle class="st0" cx="1564.4" cy="379.4" r="2.4"/>
<circle class="st0" cx="1564.4" cy="371.3" r="2.4"/>
<path class="st0" d="M92.5,539c-4.5,0-8.6-0.5-12.5-1.6c-3.8-1.1-7.2-2.6-10.1-4.7c-2.9-2.1-5.2-4.7-7.1-7.9c-1.8-3.2-3-6.8-3.4-11
	h18.8c0.6,3.3,2.2,5.8,4.7,7.5c2.5,1.6,5.6,2.4,9.1,2.4c3.9,0,6.9-1.2,9.2-3.7c2.3-2.5,3.4-5.7,3.4-9.6c0-4-1.2-7.2-3.5-9.5
	c-2.4-2.3-5.4-3.4-9.2-3.4c-2.5,0-4.7,0.5-6.7,1.4c-1.9,1-3.4,2.1-4.5,3.4h-18l8-43.2h48.4v15.4H84.5l-2.7,13.9H82
	c1.4-1.3,3.4-2.4,6-3.3c2.5-0.9,5.6-1.4,9.2-1.4c3.7,0,7.2,0.6,10.5,1.9c3.3,1.3,6.1,3,8.5,5.4c2.4,2.3,4.3,5.1,5.8,8.4
	c1.4,3.3,2.1,7,2.1,11.1c0,4.3-0.8,8.2-2.3,11.7c-1.5,3.5-3.7,6.5-6.5,9c-2.8,2.5-6.2,4.4-10,5.8C101.4,538.3,97.1,539,92.5,539z"/>
<path class="st0" d="M124.8,384c-1.6-5-3.9-9.2-6.9-12.7c-3-3.5-6.6-6.2-10.8-8.1c-4.2-1.9-8.9-2.9-14.1-2.9c-5.1,0-9.8,1-14,2.9
	c-4.2,1.9-7.8,4.6-10.8,8.1c-3,3.5-5.3,7.7-7,12.7c-1.7,5-2.5,10.5-2.5,16.7c0,6.2,0.8,11.8,2.5,16.7c1.7,5,4,9.2,7,12.7
	c3,3.5,6.6,6.2,10.8,8.1c4.2,1.9,8.8,2.9,13.8,2.9c5.1,0,9.8-1,14-2.9c4.2-1.9,7.8-4.6,10.8-8.1c3-3.5,5.3-7.7,7-12.7
	c1.7-5,2.5-10.5,2.5-16.7C127.2,394.5,126.4,388.9,124.8,384z M86.2,376.9c1.8-1.2,4.1-1.9,6.7-1.9c2.6,0,4.8,0.6,6.6,1.9
	c1.8,1.3,3.4,3.1,4.6,5.3c1.2,2.3,2.1,5,2.6,8.1c0.5,3.1,0.8,6.6,0.8,10.3c0,2.1-0.1,4.1-0.2,5.9l-25.2-25.2
	C83.2,379.5,84.6,378,86.2,376.9z M99.7,424.3c-1.8,1.2-4.1,1.9-6.7,1.9c-2.6,0-4.9-0.6-6.7-1.9c-1.8-1.2-3.4-3-4.5-5.3
	c-1.2-2.3-2-5-2.6-8.1c-0.6-3.1-0.8-6.6-0.8-10.3c0-2.5,0.1-4.8,0.4-7l25.5,25.5C103,421.4,101.5,423.1,99.7,424.3z"/>
<polyline class="st7" points="482,500.7 482,483 495.8,483 "/>
<polyline class="st7" points="600,500.7 600,483 586.2,483 "/>
<polyline class="st7" points="482,583.3 482,601 495.8,601 "/>
<polyline class="st7" points="600,583.3 600,601 586.2,601 "/>
<circle class="st0" cx="297.5" cy="542.5" r="1.5"/>
<circle class="st0" cx="292.5" cy="542.5" r="1.5"/>
<circle class="st0" cx="297.5" cy="547.5" r="1.5"/>
<circle class="st0" cx="292.5" cy="547.5" r="1.5"/>
<circle class="st0" cx="297.5" cy="552.5" r="1.5"/>
<circle class="st0" cx="292.5" cy="552.5" r="1.5"/>
<circle class="st0" cx="297.5" cy="557.5" r="1.5"/>
<circle class="st0" cx="297.5" cy="562.5" r="1.5"/>
<circle class="st0" cx="292.5" cy="562.5" r="1.5"/>
<circle class="st0" cx="292.5" cy="567.5" r="1.5"/>
<circle class="st0" cx="297.5" cy="572.5" r="1.5"/>
<circle class="st0" cx="297.5" cy="577.5" r="1.5"/>
<circle class="st0" cx="292.5" cy="577.5" r="1.5"/>
<circle class="st0" cx="292.5" cy="582.5" r="1.5"/>
<circle class="st0" cx="297.5" cy="587.5" r="1.5"/>
<circle class="st0" cx="292.5" cy="587.5" r="1.5"/>
<circle class="st0" cx="297.5" cy="592.5" r="1.5"/>
<circle class="st0" cx="292.5" cy="592.5" r="1.5"/>
<circle class="st0" cx="297.5" cy="597.5" r="1.5"/>
<circle class="st0" cx="292.5" cy="597.5" r="1.5"/>
<line class="st8" x1="301" y1="661" x2="301" y2="721"/>
<line class="st9" x1="299" y1="721" x2="299" y2="781"/>
<g>
	<defs>
		<rect id="SVGID_1_" x="1560" y="481" width="300" height="179"/>
	</defs>
	<clipPath id="SVGID_2_">
		<use xlink:href="#SVGID_1_"  style="overflow:visible;"/>
	</clipPath>
	<polygon class="st10" points="1542.4,717 1505.5,717 1643.1,481 1680.1,481 	"/>
	<polygon class="st10" points="1603,717 1566.1,717 1703.7,481 1740.7,481 	"/>
	<polygon class="st10" points="1663.6,717 1626.7,717 1764.3,481 1801.3,481 	"/>
	<polygon class="st10" points="1722.2,717 1685.3,717 1822.9,481 1859.9,481 	"/>
	<polygon class="st10" points="1781.8,717 1744.9,717 1882.5,481 1919.5,481 	"/>
	<polygon class="st10" points="1481.8,717 1444.9,717 1582.5,481 1619.5,481 	"/>
	<polygon class="st10" points="1422.2,717 1385.3,717 1522.9,481 1559.9,481 	"/>
	<polygon class="st10" points="1840.4,717 1803.5,717 1941.1,481 1978.1,481 	"/>
</g>
<path class="st5" d="M1320.6,210.5v29.9h29.9C1350.3,224,1337,210.7,1320.6,210.5z"/>
<path class="st5" d="M1320.6,271c16.5-0.2,29.9-13.7,29.9-30.2c0-0.1,0-0.2,0-0.4h-29.9V271z"/>
<path class="st5" d="M1290,240.4c0,0.1,0,0.2,0,0.4c0,16.7,13.5,30.2,30.2,30.2c0.1,0,0.2,0,0.4,0v-30.6H1290z"/>
<path class="st5" d="M1320.6,210.5c-0.1,0-0.2,0-0.4,0c-16.6,0-30,13.3-30.2,29.9h30.6V210.5z"/>
<path class="st0" d="M1139.9,210.5c0.1,0,0.2,0,0.4,0c16.6,0,30,13.3,30.2,29.9h29.3c-0.2-32.7-26.8-59.1-59.5-59.1
	c-0.1,0-0.2,0-0.4,0V210.5z"/>
<path class="st0" d="M1110,240.8c0-0.1,0-0.2,0-0.4h-29.3c0,0.1,0,0.2,0,0.4c0,32.7,26.4,59.3,59.1,59.5V271
	C1123.3,270.8,1110,257.3,1110,240.8z"/>
<path class="st0" d="M178.6,124.1c-33.7,0-60.9-27.3-60.9-60.9c0-0.3,0-0.5,0-0.8H58.8c0,0.3,0,0.5,0,0.8
	c0,66.2,53.7,119.9,119.9,119.9c0.3,0,0.5,0,0.8,0v-58.9C179.1,124.1,178.9,124.1,178.6,124.1z"/>
<polygon class="st0" points="960,840.5 960,901 1080.3,1021.3 1080.3,961.3 "/>
<line class="st11" x1="1261" y1="61" x2="1501" y2="61"/>
<polyline class="st6" points="1920.5,180.5 1560.5,180.5 1501,240 1501,420.5 1440.8,480.8 1260.5,480.8 1200.6,540.6 1200.6,720.5 
	1140.6,780.6 960,780.6 900.2,720.8 900.2,480.5 840.4,420.6 600.5,420.6 540.4,360.6 300.5,360.6 239,299.1 0,300 635,300 "/>
<polyline class="st6" points="0.5,300.5 240.5,300.5 360.5,420.5 420.5,480.5 420.5,600.5 480.5,660.5 480.5,756.5 595,871 
	900.5,871 1050.7,1021.2 1560.5,1021.2 1800.8,780.8 1920.5,780.8 "/>
<g>
	<rect x="1800.5" y="60.5" class="st0" width="60" height="60"/>
	<polyline class="st6" points="0.5,300.5 240.5,300.5 360.5,420.5 540.5,420.5 599,362 780.5,362 841.2,301.2 841.2,180.5 
		900.9,120.9 1740.5,120.9 1800.3,180.7 1920.5,180.7 	"/>
</g>
<circle class="st0" cx="662.5" cy="608.5" r="1.5"/>
<circle class="st0" cx="667.5" cy="608.5" r="1.5"/>
<circle class="st0" cx="667.5" cy="613.5" r="1.5"/>
<circle class="st0" cx="672.5" cy="613.5" r="1.5"/>
<circle class="st0" cx="677.5" cy="608.5" r="1.5"/>
<circle class="st0" cx="677.5" cy="613.5" r="1.5"/>
<circle class="st0" cx="682.5" cy="608.5" r="1.5"/>
<circle class="st0" cx="682.5" cy="613.5" r="1.5"/>
<circle class="st0" cx="687.5" cy="613.5" r="1.5"/>
<circle class="st0" cx="692.5" cy="608.5" r="1.5"/>
<circle class="st0" cx="692.5" cy="613.5" r="1.5"/>
<circle class="st0" cx="697.5" cy="608.5" r="1.5"/>
<circle class="st0" cx="702.5" cy="608.5" r="1.5"/>
<circle class="st0" cx="707.5" cy="608.5" r="1.5"/>
<circle class="st0" cx="707.5" cy="613.5" r="1.5"/>
<circle class="st0" cx="712.5" cy="613.5" r="1.5"/>
<circle class="st0" cx="717.5" cy="608.5" r="1.5"/>
<circle class="st0" cx="717.5" cy="613.5" r="1.5"/>
<line class="st8" x1="959" y1="365" x2="959" y2="381.9"/>
<line class="st12" x1="968.9" y1="365" x2="968.9" y2="381.9"/>
<line class="st9" x1="978.8" y1="365" x2="978.8" y2="381.9"/>
<line class="st13" x1="988.8" y1="365" x2="988.8" y2="381.9"/>
<line class="st11" x1="998.7" y1="365" x2="998.7" y2="381.9"/>
<line class="st12" x1="1008.6" y1="365" x2="1008.6" y2="381.9"/>
<line class="st14" x1="1018.5" y1="365" x2="1018.5" y2="381.9"/>
<line class="st15" x1="1028.4" y1="365" x2="1028.4" y2="381.9"/>
<line class="st8" x1="1038.3" y1="365" x2="1038.3" y2="381.9"/>
<line class="st16" x1="1048.3" y1="365" x2="1048.3" y2="381.9"/>
<line class="st8" x1="1048.3" y1="365" x2="1048.3" y2="381.9"/>
<line class="st14" x1="1058.2" y1="365" x2="1058.2" y2="381.9"/>
<line class="st9" x1="1068.1" y1="365" x2="1068.1" y2="381.9"/>
<line class="st13" x1="1078" y1="365" x2="1078" y2="381.9"/>
<line class="st11" x1="1087.9" y1="365" x2="1087.9" y2="381.9"/>
<line class="st12" x1="1097.8" y1="365" x2="1097.8" y2="381.9"/>
<line class="st14" x1="1107.8" y1="365" x2="1107.8" y2="381.9"/>
<line class="st15" x1="1117.7" y1="365" x2="1117.7" y2="381.9"/>
<line class="st8" x1="1127.6" y1="365" x2="1127.6" y2="381.9"/>
<line class="st16" x1="1137.5" y1="365" x2="1137.5" y2="381.9"/>
<line class="st12" x1="1147.4" y1="365" x2="1147.4" y2="381.9"/>
<line class="st14" x1="1157.3" y1="365" x2="1157.3" y2="381.9"/>
<line class="st15" x1="1167.3" y1="365" x2="1167.3" y2="381.9"/>
<line class="st8" x1="1177.2" y1="365" x2="1177.2" y2="381.9"/>
<line class="st16" x1="1187.1" y1="365" x2="1187.1" y2="381.9"/>
<line class="st12" x1="1097.8" y1="365" x2="1097.8" y2="381.9"/>
<line class="st14" x1="1107.8" y1="365" x2="1107.8" y2="381.9"/>
<line class="st15" x1="1117.7" y1="365" x2="1117.7" y2="381.9"/>
<line class="st8" x1="1127.6" y1="365" x2="1127.6" y2="381.9"/>
<line class="st16" x1="1137.5" y1="365" x2="1137.5" y2="381.9"/>
<line class="st14" x1="1197" y1="365" x2="1197" y2="381.9"/>
<g>
	<line class="st6" x1="635" y1="839" x2="0" y2="839"/>
	<line class="st6" x1="660.5" y1="898.5" x2="0" y2="898"/>
	<circle class="st0" cx="297.5" cy="537.5" r="1.5"/>
	<circle class="st0" cx="297.5" cy="532.5" r="1.5"/>
	<circle class="st0" cx="297.5" cy="527.5" r="1.5"/>
	<circle class="st0" cx="297.5" cy="522.5" r="1.5"/>
	<circle class="st0" cx="297.5" cy="517.5" r="1.5"/>
	<circle class="st0" cx="297.5" cy="507.5" r="1.5"/>
	<circle class="st0" cx="297.5" cy="502.5" r="1.5"/>
	<polyline class="st6" points="1920.5,899.5 1560.5,899.5 1501,840 1501,659.5 1440.8,599.3 1260.5,599.3 1200.6,539.4 
		1200.6,359.5 1140.6,299.5 960,299.5 900.2,359.2 900.2,599.5 840.4,659.4 600.5,659.4 540.4,719.5 300.5,719.5 239,781 0,780 
		635,780 	"/>
	<polyline class="st6" points="0.5,779.5 240.5,779.5 360.5,659.5 420.5,599.5 420.5,479.5 480.5,419.5 480.5,323.5 595,209 
		900.5,209 1050.7,58.9 1560.5,58.9 1800.8,299.2 1920.5,299.2 	"/>
	<polyline class="st6" points="0.5,779.5 240.5,779.5 360.5,659.5 540.5,659.5 599,718 780.5,718 841.2,778.8 841.2,899.5 
		900.9,959.2 1740.5,959.2 1800.3,899.3 1920.5,899.3 	"/>
</g>
<g>
	<rect x="1561" y="719" class="st0" width="30" height="30"/>
</g>
<circle class="st0" cx="1623.4" cy="721.2" r="2.4"/>
<circle class="st0" cx="1623.4" cy="737.4" r="2.4"/>
<circle class="st0" cx="1631.6" cy="721.2" r="2.4"/>
<circle class="st0" cx="1631.6" cy="737.4" r="2.4"/>
<circle class="st0" cx="1631.6" cy="745.6" r="2.4"/>
<circle class="st0" cx="1639.7" cy="721.2" r="2.4"/>
<circle class="st0" cx="1639.7" cy="729.3" r="2.4"/>
<circle class="st0" cx="1639.7" cy="737.4" r="2.4"/>
<circle class="st0" cx="1647.8" cy="729.3" r="2.4"/>
<circle class="st0" cx="1665.1" cy="729.3" r="2.4"/>
<circle class="st0" cx="1665.1" cy="745.6" r="2.4"/>
<circle class="st0" cx="1673.2" cy="721.2" r="2.4"/>
<circle class="st0" cx="1673.2" cy="729.3" r="2.4"/>
<circle class="st0" cx="1673.2" cy="737.4" r="2.4"/>
<circle class="st0" cx="1681.3" cy="737.4" r="2.4"/>
<circle class="st0" cx="1681.3" cy="745.6" r="2.4"/>
<circle class="st0" cx="1689.4" cy="721.2" r="2.4"/>
<circle class="st0" cx="1689.4" cy="729.3" r="2.4"/>
<circle class="st0" cx="1689.4" cy="745.6" r="2.4"/>
<circle class="st0" cx="1697.6" cy="721.2" r="2.4"/>
<circle class="st0" cx="1697.6" cy="729.3" r="2.4"/>
<circle class="st0" cx="1697.6" cy="737.4" r="2.4"/>
<circle class="st0" cx="1738.8" cy="721.2" r="2.4"/>
<circle class="st0" cx="1738.8" cy="737.4" r="2.4"/>
<circle class="st0" cx="1730.7" cy="721.2" r="2.4"/>
<circle class="st0" cx="1730.7" cy="737.4" r="2.4"/>
<circle class="st0" cx="1730.7" cy="745.6" r="2.4"/>
<circle class="st0" cx="1722.6" cy="721.2" r="2.4"/>
<circle class="st0" cx="1722.6" cy="729.3" r="2.4"/>
<circle class="st0" cx="1722.6" cy="737.4" r="2.4"/>
<circle class="st0" cx="1714.4" cy="729.3" r="2.4"/>
<circle class="st0" cx="1755.1" cy="729.3" r="2.4"/>
<circle class="st0" cx="1755.1" cy="745.6" r="2.4"/>
<circle class="st0" cx="1763.2" cy="721.2" r="2.4"/>
<circle class="st0" cx="1763.2" cy="729.3" r="2.4"/>
<circle class="st0" cx="1763.2" cy="737.4" r="2.4"/>
<circle class="st0" cx="1771.3" cy="737.4" r="2.4"/>
<circle class="st0" cx="1771.3" cy="745.6" r="2.4"/>
<circle class="st0" cx="1779.4" cy="721.2" r="2.4"/>
<circle class="st0" cx="1779.4" cy="729.3" r="2.4"/>
<circle class="st0" cx="1779.4" cy="745.6" r="2.4"/>
<circle class="st0" cx="1787.6" cy="721.2" r="2.4"/>
<circle class="st0" cx="1787.6" cy="729.3" r="2.4"/>
<circle class="st0" cx="1787.6" cy="737.4" r="2.4"/>
<g>
	<path class="st0" d="M379.5,1003.2v8.7h-1v-0.7c-0.3,0.6-0.7,0.8-1.4,0.8c-0.6,0-1.1-0.2-1.5-0.7c-0.3-0.5-0.5-1.2-0.5-2.3
		c0-1.4,0.2-2.3,0.5-2.7c0.3-0.4,0.8-0.6,1.5-0.6c0.3,0,0.5,0.1,0.7,0.2c0.2,0.1,0.4,0.3,0.6,0.6v-3.2H379.5z M378.3,1010.6
		c0.2-0.3,0.3-1,0.3-2c0-0.8-0.1-1.3-0.3-1.7c-0.2-0.3-0.5-0.5-0.9-0.5c-0.4,0-0.7,0.2-0.9,0.5c-0.2,0.3-0.3,1-0.3,1.9
		c0,0.9,0.1,1.5,0.3,1.8c0.2,0.3,0.5,0.5,0.9,0.5C377.8,1011.1,378.1,1011,378.3,1010.6z"/>
	<path class="st0" d="M385.6,1007.6v0.1h-1c0-0.4-0.1-0.8-0.2-1c-0.2-0.2-0.4-0.3-0.7-0.3c-0.4,0-0.7,0.2-0.9,0.5
		c-0.2,0.4-0.3,1-0.3,1.8c0,0.8,0.1,1.4,0.3,1.8s0.5,0.6,0.9,0.6c0.3,0,0.6-0.1,0.8-0.3c0.2-0.2,0.3-0.5,0.3-1h1
		c0,0.7-0.2,1.2-0.6,1.6s-0.9,0.6-1.5,0.6c-0.7,0-1.3-0.2-1.6-0.7c-0.4-0.4-0.5-1.3-0.5-2.4c0-1.2,0.2-2,0.5-2.5s0.9-0.7,1.8-0.7
		c0.6,0,1.1,0.2,1.4,0.5S385.6,1007,385.6,1007.6z"/>
	<path class="st0" d="M391.5,1007.4v3.2c0,0.1,0,0.3,0,0.5c0,0.2,0,0.4,0.1,0.6h-1l0-0.9h0c-0.2,0.4-0.4,0.6-0.6,0.8
		c-0.2,0.2-0.6,0.2-1,0.2c-0.5,0-0.9-0.2-1.2-0.5c-0.3-0.3-0.4-0.8-0.4-1.4c0-0.7,0.2-1.2,0.6-1.5c0.4-0.3,1.1-0.5,2.1-0.5h0.4v-0.5
		c0-0.4-0.1-0.6-0.2-0.9s-0.4-0.3-0.8-0.3c-0.3,0-0.6,0.1-0.7,0.3c-0.2,0.2-0.3,0.4-0.3,0.6c0,0.1,0,0.2,0,0.2h-1.1
		c0-0.6,0.2-1.1,0.5-1.4c0.3-0.3,0.8-0.4,1.5-0.4c0.7,0,1.2,0.2,1.5,0.5C391.3,1006.4,391.5,1006.9,391.5,1007.4z M390.2,1010.6
		c0.2-0.3,0.3-0.8,0.3-1.4v-0.3c0,0,0-0.1,0-0.1l-0.3,0c-0.7,0-1.2,0.1-1.5,0.3c-0.3,0.2-0.4,0.5-0.4,1c0,0.4,0.1,0.6,0.3,0.8
		s0.4,0.3,0.7,0.3C389.7,1011.1,390,1011,390.2,1010.6z"/>
	<path class="st0" d="M396.2,1005.4L396.2,1005.4c0-0.4-0.1-0.7-0.3-0.9c-0.2-0.2-0.4-0.3-0.7-0.3c-0.4,0-0.7,0.2-0.9,0.6
		s-0.3,1.1-0.3,2.2v0.2c0.1-0.2,0.3-0.4,0.6-0.5s0.5-0.2,0.8-0.2c0.7,0,1.1,0.2,1.5,0.7c0.3,0.5,0.5,1.1,0.5,2
		c0,0.9-0.2,1.6-0.5,2.1c-0.4,0.5-0.9,0.7-1.7,0.7c-0.6,0-1.1-0.2-1.5-0.6c-0.4-0.4-0.6-0.9-0.7-1.6c-0.1-0.7-0.1-1.5-0.1-2.4
		c0-0.9,0-1.6,0.1-2.2s0.3-1,0.7-1.3s0.8-0.5,1.5-0.5c0.6,0,1.1,0.2,1.5,0.5c0.4,0.4,0.5,0.8,0.5,1.4v0.1H396.2z M395.2,1007.3
		c-0.4,0-0.6,0.1-0.8,0.4s-0.3,0.8-0.3,1.4c0,1.3,0.4,1.9,1.1,1.9c0.4,0,0.7-0.2,0.8-0.5s0.3-0.8,0.3-1.5
		C396.4,1007.9,396,1007.3,395.2,1007.3z"/>
	<path class="st0" d="M401.3,1003.5v8.3h-1.1v-7.1c-0.4,0.3-0.8,0.6-1.2,0.8v-1.1c0.3-0.1,0.5-0.3,0.7-0.4c0.2-0.2,0.4-0.4,0.6-0.6
		H401.3z"/>
	<path class="st0" d="M407.3,1003.5v5.3h1v0.9h-1v2.1h-1.1v-2.1h-2.7v-1.2l2.4-5.1H407.3z M404.3,1008.8h1.9v-3.6c0-0.1,0-0.2,0-0.3
		l0-0.4L404.3,1008.8z"/>
	<path class="st0" d="M413.4,1007.4v3.2c0,0.1,0,0.3,0,0.5c0,0.2,0,0.4,0.1,0.6h-1l0-0.9h0c-0.2,0.4-0.4,0.6-0.6,0.8
		c-0.2,0.2-0.6,0.2-1,0.2c-0.5,0-0.9-0.2-1.2-0.5c-0.3-0.3-0.4-0.8-0.4-1.4c0-0.7,0.2-1.2,0.6-1.5c0.4-0.3,1.1-0.5,2.1-0.5h0.4v-0.5
		c0-0.4-0.1-0.6-0.2-0.9s-0.4-0.3-0.8-0.3c-0.3,0-0.6,0.1-0.7,0.3c-0.2,0.2-0.3,0.4-0.3,0.6c0,0.1,0,0.2,0,0.2h-1.1
		c0-0.6,0.2-1.1,0.5-1.4c0.3-0.3,0.8-0.4,1.5-0.4c0.7,0,1.2,0.2,1.5,0.5C413.3,1006.4,413.4,1006.9,413.4,1007.4z M412.2,1010.6
		c0.2-0.3,0.3-0.8,0.3-1.4v-0.3c0,0,0-0.1,0-0.1l-0.3,0c-0.7,0-1.2,0.1-1.5,0.3c-0.3,0.2-0.4,0.5-0.4,1c0,0.4,0.1,0.6,0.3,0.8
		s0.4,0.3,0.7,0.3C411.7,1011.1,412,1011,412.2,1010.6z"/>
	<path class="st0" d="M419.4,1007.4v3.2c0,0.1,0,0.3,0,0.5c0,0.2,0,0.4,0.1,0.6h-1l0-0.9h0c-0.2,0.4-0.4,0.6-0.6,0.8
		c-0.2,0.2-0.6,0.2-1,0.2c-0.5,0-0.9-0.2-1.2-0.5c-0.3-0.3-0.4-0.8-0.4-1.4c0-0.7,0.2-1.2,0.6-1.5c0.4-0.3,1.1-0.5,2.1-0.5h0.4v-0.5
		c0-0.4-0.1-0.6-0.2-0.9s-0.4-0.3-0.8-0.3c-0.3,0-0.6,0.1-0.7,0.3c-0.2,0.2-0.3,0.4-0.3,0.6c0,0.1,0,0.2,0,0.2h-1.1
		c0-0.6,0.2-1.1,0.5-1.4c0.3-0.3,0.8-0.4,1.5-0.4c0.7,0,1.2,0.2,1.5,0.5C419.3,1006.4,419.4,1006.9,419.4,1007.4z M418.2,1010.6
		c0.2-0.3,0.3-0.8,0.3-1.4v-0.3c0,0,0-0.1,0-0.1l-0.3,0c-0.7,0-1.2,0.1-1.5,0.3c-0.3,0.2-0.4,0.5-0.4,1c0,0.4,0.1,0.6,0.3,0.8
		s0.4,0.3,0.7,0.3C417.7,1011.1,418,1011,418.2,1010.6z"/>
	<path class="st0" d="M423.7,1007.5c0.7,0.1,1.2,0.4,1.4,0.7c0.2,0.3,0.3,0.8,0.3,1.4c0,0.8-0.2,1.4-0.6,1.8c-0.4,0.4-1,0.6-1.8,0.6
		c-0.8,0-1.4-0.2-1.7-0.6c-0.4-0.4-0.5-0.9-0.5-1.5v-0.4h1.1v0.1c0,0.5,0.1,0.8,0.3,1.1c0.2,0.2,0.5,0.3,0.9,0.3
		c0.4,0,0.8-0.1,1-0.4c0.2-0.3,0.3-0.7,0.3-1.2c0-0.5-0.1-0.9-0.4-1.2c-0.2-0.3-0.6-0.4-1.2-0.4h-0.3v-1c0.1,0,0.1,0,0.2,0
		c0.5,0,0.9-0.1,1.2-0.4c0.2-0.2,0.4-0.6,0.4-1c0-0.4-0.1-0.7-0.3-1c-0.2-0.2-0.5-0.3-0.9-0.3c-0.4,0-0.6,0.1-0.8,0.3
		c-0.2,0.2-0.3,0.5-0.3,0.9v0.2h-1.1v-0.2c0-0.7,0.2-1.3,0.6-1.6c0.4-0.3,0.9-0.5,1.6-0.5c0.7,0,1.3,0.2,1.7,0.6
		c0.4,0.4,0.6,0.9,0.6,1.6C425.3,1006.6,424.8,1007.3,423.7,1007.5z"/>
	<path class="st0" d="M427.8,1003.2v3.2c0.2-0.3,0.4-0.4,0.6-0.6c0.2-0.1,0.5-0.2,0.8-0.2c0.7,0,1.2,0.2,1.5,0.7s0.5,1.3,0.5,2.6
		c0,1-0.2,1.8-0.5,2.3c-0.3,0.5-0.8,0.7-1.5,0.7c-0.6,0-1-0.3-1.3-0.8v0.7h-1v-8.7H427.8z M429.8,1010.7c0.2-0.3,0.3-0.9,0.3-1.9
		c0-0.9-0.1-1.5-0.3-1.8c-0.2-0.3-0.5-0.5-0.9-0.5c-0.4,0-0.7,0.2-0.9,0.5c-0.2,0.4-0.3,0.9-0.3,1.5c0,1.1,0.1,1.8,0.3,2.1
		c0.2,0.3,0.5,0.5,0.8,0.5C429.3,1011.1,429.6,1011,429.8,1010.7z"/>
	<path class="st0" d="M436.9,1007.6v0.1h-1c0-0.4-0.1-0.8-0.2-1c-0.2-0.2-0.4-0.3-0.7-0.3c-0.4,0-0.7,0.2-0.9,0.5
		c-0.2,0.4-0.3,1-0.3,1.8c0,0.8,0.1,1.4,0.3,1.8s0.5,0.6,0.9,0.6c0.3,0,0.6-0.1,0.8-0.3c0.2-0.2,0.3-0.5,0.3-1h1
		c0,0.7-0.2,1.2-0.6,1.6s-0.9,0.6-1.5,0.6c-0.7,0-1.3-0.2-1.6-0.7c-0.4-0.4-0.5-1.3-0.5-2.4c0-1.2,0.2-2,0.5-2.5s0.9-0.7,1.8-0.7
		c0.6,0,1.1,0.2,1.4,0.5S436.9,1007,436.9,1007.6z"/>
	<path class="st0" d="M442.9,1007.6v0.1h-1c0-0.4-0.1-0.8-0.2-1c-0.2-0.2-0.4-0.3-0.7-0.3c-0.4,0-0.7,0.2-0.9,0.5
		c-0.2,0.4-0.3,1-0.3,1.8c0,0.8,0.1,1.4,0.3,1.8s0.5,0.6,0.9,0.6c0.3,0,0.6-0.1,0.8-0.3c0.2-0.2,0.3-0.5,0.3-1h1
		c0,0.7-0.2,1.2-0.6,1.6s-0.9,0.6-1.5,0.6c-0.7,0-1.3-0.2-1.6-0.7c-0.4-0.4-0.5-1.3-0.5-2.4c0-1.2,0.2-2,0.5-2.5s0.9-0.7,1.8-0.7
		c0.6,0,1.1,0.2,1.4,0.5S442.9,1007,442.9,1007.6z"/>
	<path class="st0" d="M447.2,1008.7l-1.7,2.1h3.3v1h-4.5v-1l2.3-3.2c0.3-0.4,0.5-0.8,0.6-1.1c0.1-0.4,0.2-0.7,0.2-1.1
		c0-0.4-0.1-0.7-0.3-0.9c-0.2-0.2-0.4-0.3-0.8-0.3c-0.3,0-0.6,0.1-0.7,0.3c-0.2,0.2-0.3,0.5-0.3,1v0.1h-1.1c0-0.1,0-0.2,0-0.3
		c0-0.6,0.2-1.1,0.6-1.5c0.4-0.3,0.9-0.5,1.6-0.5c0.7,0,1.2,0.2,1.6,0.5c0.4,0.4,0.5,0.9,0.5,1.6c0,0.5-0.1,0.9-0.3,1.4
		C448.1,1007.4,447.8,1008,447.2,1008.7z"/>
	<path class="st0" d="M454.2,1007.6v0.1h-1c0-0.4-0.1-0.8-0.2-1c-0.2-0.2-0.4-0.3-0.7-0.3c-0.4,0-0.7,0.2-0.9,0.5
		c-0.2,0.4-0.3,1-0.3,1.8c0,0.8,0.1,1.4,0.3,1.8s0.5,0.6,0.9,0.6c0.3,0,0.6-0.1,0.8-0.3c0.2-0.2,0.3-0.5,0.3-1h1
		c0,0.7-0.2,1.2-0.6,1.6s-0.9,0.6-1.5,0.6c-0.7,0-1.3-0.2-1.6-0.7c-0.4-0.4-0.5-1.3-0.5-2.4c0-1.2,0.2-2,0.5-2.5s0.9-0.7,1.8-0.7
		c0.6,0,1.1,0.2,1.4,0.5S454.2,1007,454.2,1007.6z"/>
	<path class="st0" d="M458.3,1007.5c0.7,0.1,1.2,0.4,1.4,0.7c0.2,0.3,0.3,0.8,0.3,1.4c0,0.8-0.2,1.4-0.6,1.8c-0.4,0.4-1,0.6-1.8,0.6
		c-0.8,0-1.4-0.2-1.7-0.6c-0.4-0.4-0.5-0.9-0.5-1.5v-0.4h1.1v0.1c0,0.5,0.1,0.8,0.3,1.1c0.2,0.2,0.5,0.3,0.9,0.3
		c0.4,0,0.8-0.1,1-0.4c0.2-0.3,0.3-0.7,0.3-1.2c0-0.5-0.1-0.9-0.4-1.2c-0.2-0.3-0.6-0.4-1.2-0.4h-0.3v-1c0.1,0,0.1,0,0.2,0
		c0.5,0,0.9-0.1,1.2-0.4c0.2-0.2,0.4-0.6,0.4-1c0-0.4-0.1-0.7-0.3-1c-0.2-0.2-0.5-0.3-0.9-0.3c-0.4,0-0.6,0.1-0.8,0.3
		c-0.2,0.2-0.3,0.5-0.3,0.9v0.2h-1.1v-0.2c0-0.7,0.2-1.3,0.6-1.6c0.4-0.3,0.9-0.5,1.6-0.5c0.7,0,1.3,0.2,1.7,0.6
		c0.4,0.4,0.6,0.9,0.6,1.6C460,1006.6,459.4,1007.3,458.3,1007.5z"/>
	<path class="st0" d="M462.5,1003.2v3.2c0.2-0.3,0.4-0.4,0.6-0.6c0.2-0.1,0.5-0.2,0.8-0.2c0.7,0,1.2,0.2,1.5,0.7s0.5,1.3,0.5,2.6
		c0,1-0.2,1.8-0.5,2.3c-0.3,0.5-0.8,0.7-1.5,0.7c-0.6,0-1-0.3-1.3-0.8v0.7h-1v-8.7H462.5z M464.5,1010.7c0.2-0.3,0.3-0.9,0.3-1.9
		c0-0.9-0.1-1.5-0.3-1.8c-0.2-0.3-0.5-0.5-0.9-0.5c-0.4,0-0.7,0.2-0.9,0.5c-0.2,0.4-0.3,0.9-0.3,1.5c0,1.1,0.1,1.8,0.3,2.1
		c0.2,0.3,0.5,0.5,0.8,0.5C464,1011.1,464.3,1011,464.5,1010.7z"/>
	<path class="st0" d="M470.2,1005.4L470.2,1005.4c0-0.4-0.1-0.7-0.3-0.9c-0.2-0.2-0.4-0.3-0.7-0.3c-0.4,0-0.7,0.2-0.9,0.6
		s-0.3,1.1-0.3,2.2v0.2c0.1-0.2,0.3-0.4,0.6-0.5s0.5-0.2,0.8-0.2c0.7,0,1.1,0.2,1.5,0.7c0.3,0.5,0.5,1.1,0.5,2
		c0,0.9-0.2,1.6-0.5,2.1c-0.4,0.5-0.9,0.7-1.7,0.7c-0.6,0-1.1-0.2-1.5-0.6c-0.4-0.4-0.6-0.9-0.7-1.6c-0.1-0.7-0.1-1.5-0.1-2.4
		c0-0.9,0-1.6,0.1-2.2s0.3-1,0.7-1.3s0.8-0.5,1.5-0.5c0.6,0,1.1,0.2,1.5,0.5c0.4,0.4,0.5,0.8,0.5,1.4v0.1H470.2z M469.2,1007.3
		c-0.4,0-0.6,0.1-0.8,0.4s-0.3,0.8-0.3,1.4c0,1.3,0.4,1.9,1.1,1.9c0.4,0,0.7-0.2,0.8-0.5s0.3-0.8,0.3-1.5
		C470.3,1007.9,469.9,1007.3,469.2,1007.3z"/>
	<path class="st0" d="M476.8,1007.4v3.2c0,0.1,0,0.3,0,0.5c0,0.2,0,0.4,0.1,0.6h-1l0-0.9h0c-0.2,0.4-0.4,0.6-0.6,0.8
		c-0.2,0.2-0.6,0.2-1,0.2c-0.5,0-0.9-0.2-1.2-0.5c-0.3-0.3-0.4-0.8-0.4-1.4c0-0.7,0.2-1.2,0.6-1.5c0.4-0.3,1.1-0.5,2.1-0.5h0.4v-0.5
		c0-0.4-0.1-0.6-0.2-0.9s-0.4-0.3-0.8-0.3c-0.3,0-0.6,0.1-0.7,0.3c-0.2,0.2-0.3,0.4-0.3,0.6c0,0.1,0,0.2,0,0.2h-1.1
		c0-0.6,0.2-1.1,0.5-1.4c0.3-0.3,0.8-0.4,1.5-0.4c0.7,0,1.2,0.2,1.5,0.5C476.6,1006.4,476.8,1006.9,476.8,1007.4z M475.5,1010.6
		c0.2-0.3,0.3-0.8,0.3-1.4v-0.3c0,0,0-0.1,0-0.1l-0.3,0c-0.7,0-1.2,0.1-1.5,0.3c-0.3,0.2-0.4,0.5-0.4,1c0,0.4,0.1,0.6,0.3,0.8
		s0.4,0.3,0.7,0.3C475,1011.1,475.3,1011,475.5,1010.6z"/>
	<path class="st0" d="M482.5,1003.5v0.9l-2.2,7.4H479l2.3-7.4h-3.2v-0.9H482.5z"/>
	<path class="st0" d="M488.2,1003.2v8.7h-1v-0.7c-0.3,0.6-0.7,0.8-1.4,0.8c-0.6,0-1.1-0.2-1.5-0.7c-0.3-0.5-0.5-1.2-0.5-2.3
		c0-1.4,0.2-2.3,0.5-2.7c0.3-0.4,0.8-0.6,1.5-0.6c0.3,0,0.5,0.1,0.7,0.2c0.2,0.1,0.4,0.3,0.6,0.6v-3.2H488.2z M486.9,1010.6
		c0.2-0.3,0.3-1,0.3-2c0-0.8-0.1-1.3-0.3-1.7c-0.2-0.3-0.5-0.5-0.9-0.5c-0.4,0-0.7,0.2-0.9,0.5c-0.2,0.3-0.3,1-0.3,1.9
		c0,0.9,0.1,1.5,0.3,1.8c0.2,0.3,0.5,0.5,0.9,0.5C486.4,1011.1,486.7,1011,486.9,1010.6z"/>
	<path class="st0" d="M494.4,1008.6v0.5h-3.4v0.1c0,0.7,0.1,1.2,0.3,1.5c0.2,0.3,0.5,0.4,0.9,0.4c0.6,0,1-0.4,1.1-1.2h1.1
		c0,1.3-0.8,2-2.2,2c-0.8,0-1.3-0.2-1.7-0.6c-0.4-0.4-0.6-1.3-0.6-2.6c0-1.1,0.2-1.9,0.5-2.4c0.3-0.5,0.9-0.7,1.7-0.7
		c0.7,0,1.3,0.2,1.7,0.6C494.2,1006.6,494.4,1007.4,494.4,1008.6z M493.3,1008.4v-0.2c0-0.6-0.1-1.1-0.3-1.4
		c-0.2-0.3-0.5-0.4-0.9-0.4c-0.4,0-0.7,0.2-0.9,0.5c-0.2,0.3-0.3,0.8-0.3,1.5v0.1H493.3z"/>
	<path class="st0" d="M498.5,1007.4c1,0.1,1.5,0.8,1.5,2.1c0,0.8-0.2,1.4-0.6,1.8c-0.4,0.4-0.9,0.6-1.7,0.6c-0.7,0-1.3-0.2-1.6-0.6
		c-0.4-0.4-0.6-1-0.6-1.8c0-0.6,0.1-1.1,0.4-1.5c0.3-0.3,0.6-0.5,1.1-0.6c-0.9-0.2-1.4-0.8-1.4-1.9c0-0.7,0.2-1.2,0.6-1.6
		c0.4-0.4,0.9-0.6,1.6-0.6c0.7,0,1.2,0.2,1.6,0.6c0.4,0.4,0.5,0.9,0.5,1.5c0,0.5-0.1,1-0.3,1.3
		C499.3,1007.1,499,1007.3,498.5,1007.4z M498.6,1008.3c-0.2-0.3-0.5-0.4-0.8-0.4c-0.4,0-0.6,0.1-0.8,0.4s-0.3,0.7-0.3,1.2
		c0,1,0.4,1.5,1.1,1.5c0.4,0,0.6-0.1,0.8-0.4c0.2-0.3,0.3-0.7,0.3-1.2C498.9,1009,498.8,1008.6,498.6,1008.3z M498.6,1004.5
		c-0.2-0.2-0.4-0.4-0.8-0.4c-0.3,0-0.6,0.1-0.8,0.4c-0.2,0.2-0.3,0.6-0.3,1c0,0.4,0.1,0.8,0.3,1c0.2,0.3,0.4,0.4,0.8,0.4
		c0.3,0,0.6-0.1,0.8-0.4c0.2-0.3,0.3-0.6,0.3-1.1C498.8,1005.1,498.7,1004.8,498.6,1004.5z"/>
	<path class="st0" d="M505.3,1008.5c0,1.2-0.2,2.1-0.5,2.6s-0.9,0.8-1.7,0.8c-0.6,0-1.1-0.1-1.4-0.4c-0.3-0.3-0.5-0.6-0.6-1
		c-0.1-0.4-0.2-1.1-0.2-2v-2c0-1.2,0.2-2,0.5-2.5c0.3-0.5,0.9-0.7,1.7-0.7c0.8,0,1.4,0.3,1.7,0.8c0.4,0.5,0.5,1.3,0.5,2.5V1008.5z
		 M502,1008.8c0,0.8,0.1,1.4,0.3,1.7c0.2,0.4,0.5,0.6,0.8,0.6c0.4,0,0.7-0.2,0.9-0.7c0.2-0.4,0.3-1,0.3-1.8v-1.9
		c0-0.8-0.1-1.4-0.3-1.8c-0.2-0.4-0.5-0.6-0.9-0.6c-0.8,0-1.2,0.8-1.2,2.4V1008.8z"/>
	<path class="st0" d="M507.8,1003.2v3.2c0.2-0.3,0.4-0.4,0.6-0.6c0.2-0.1,0.5-0.2,0.8-0.2c0.7,0,1.2,0.2,1.5,0.7s0.5,1.3,0.5,2.6
		c0,1-0.2,1.8-0.5,2.3c-0.3,0.5-0.8,0.7-1.5,0.7c-0.6,0-1-0.3-1.3-0.8v0.7h-1v-8.7H507.8z M509.8,1010.7c0.2-0.3,0.3-0.9,0.3-1.9
		c0-0.9-0.1-1.5-0.3-1.8c-0.2-0.3-0.5-0.5-0.9-0.5c-0.4,0-0.7,0.2-0.9,0.5c-0.2,0.4-0.3,0.9-0.3,1.5c0,1.1,0.1,1.8,0.3,2.1
		c0.2,0.3,0.5,0.5,0.8,0.5C509.3,1011.1,509.6,1011,509.8,1010.7z"/>
	<path class="st0" d="M516.7,1007.4v3.2c0,0.1,0,0.3,0,0.5c0,0.2,0,0.4,0.1,0.6h-1l0-0.9h0c-0.2,0.4-0.4,0.6-0.6,0.8
		c-0.2,0.2-0.6,0.2-1,0.2c-0.5,0-0.9-0.2-1.2-0.5c-0.3-0.3-0.4-0.8-0.4-1.4c0-0.7,0.2-1.2,0.6-1.5c0.4-0.3,1.1-0.5,2.1-0.5h0.4v-0.5
		c0-0.4-0.1-0.6-0.2-0.9s-0.4-0.3-0.8-0.3c-0.3,0-0.6,0.1-0.7,0.3c-0.2,0.2-0.3,0.4-0.3,0.6c0,0.1,0,0.2,0,0.2h-1.1
		c0-0.6,0.2-1.1,0.5-1.4c0.3-0.3,0.8-0.4,1.5-0.4c0.7,0,1.2,0.2,1.5,0.5C516.6,1006.4,516.7,1006.9,516.7,1007.4z M515.5,1010.6
		c0.2-0.3,0.3-0.8,0.3-1.4v-0.3c0,0,0-0.1,0-0.1l-0.3,0c-0.7,0-1.2,0.1-1.5,0.3c-0.3,0.2-0.4,0.5-0.4,1c0,0.4,0.1,0.6,0.3,0.8
		s0.4,0.3,0.7,0.3C514.9,1011.1,515.3,1011,515.5,1010.6z"/>
	<path class="st0" d="M522.4,1003.5v0.9h-2.8l-0.1,2.6c0.3-0.5,0.8-0.7,1.5-0.7c0.6,0,1,0.2,1.3,0.6c0.3,0.4,0.4,1.1,0.4,2.2
		c0,1-0.2,1.7-0.6,2.1s-0.9,0.7-1.7,0.7c-0.7,0-1.2-0.2-1.6-0.5c-0.3-0.3-0.5-0.9-0.5-1.6h1.1v0.1c0,0.3,0.1,0.6,0.3,0.8
		c0.2,0.2,0.4,0.3,0.8,0.3c0.4,0,0.7-0.1,0.9-0.4c0.2-0.3,0.3-0.8,0.3-1.5c0-0.7-0.1-1.2-0.2-1.5c-0.2-0.3-0.5-0.4-0.9-0.4
		c-0.6,0-0.9,0.3-1,1h-1.1l0.1-4.7H522.4z"/>
	<path class="st0" d="M528,1008.5c0,1.2-0.2,2.1-0.5,2.6s-0.9,0.8-1.7,0.8c-0.6,0-1.1-0.1-1.4-0.4c-0.3-0.3-0.5-0.6-0.6-1
		c-0.1-0.4-0.2-1.1-0.2-2v-2c0-1.2,0.2-2,0.5-2.5c0.3-0.5,0.9-0.7,1.7-0.7c0.8,0,1.4,0.3,1.7,0.8c0.4,0.5,0.5,1.3,0.5,2.5V1008.5z
		 M524.6,1008.8c0,0.8,0.1,1.4,0.3,1.7c0.2,0.4,0.5,0.6,0.8,0.6c0.4,0,0.7-0.2,0.9-0.7c0.2-0.4,0.3-1,0.3-1.8v-1.9
		c0-0.8-0.1-1.4-0.3-1.8c-0.2-0.4-0.5-0.6-0.9-0.6c-0.8,0-1.2,0.8-1.2,2.4V1008.8z"/>
	<path class="st0" d="M533.5,1007.6v0.1h-1c0-0.4-0.1-0.8-0.2-1c-0.2-0.2-0.4-0.3-0.7-0.3c-0.4,0-0.7,0.2-0.9,0.5
		c-0.2,0.4-0.3,1-0.3,1.8c0,0.8,0.1,1.4,0.3,1.8s0.5,0.6,0.9,0.6c0.3,0,0.6-0.1,0.8-0.3c0.2-0.2,0.3-0.5,0.3-1h1
		c0,0.7-0.2,1.2-0.6,1.6s-0.9,0.6-1.5,0.6c-0.7,0-1.3-0.2-1.6-0.7c-0.4-0.4-0.5-1.3-0.5-2.4c0-1.2,0.2-2,0.5-2.5s0.9-0.7,1.8-0.7
		c0.6,0,1.1,0.2,1.4,0.5S533.5,1007,533.5,1007.6z"/>
	<path class="st0" d="M537.9,1003.5v8.3h-1.1v-7.1c-0.4,0.3-0.8,0.6-1.2,0.8v-1.1c0.3-0.1,0.5-0.3,0.7-0.4c0.2-0.2,0.4-0.4,0.6-0.6
		H537.9z"/>
	<path class="st0" d="M543.4,1005.4L543.4,1005.4c0-0.4-0.1-0.7-0.3-0.9c-0.2-0.2-0.4-0.3-0.7-0.3c-0.4,0-0.7,0.2-0.9,0.6
		s-0.3,1.1-0.3,2.2v0.2c0.1-0.2,0.3-0.4,0.6-0.5s0.5-0.2,0.8-0.2c0.7,0,1.1,0.2,1.5,0.7c0.3,0.5,0.5,1.1,0.5,2
		c0,0.9-0.2,1.6-0.5,2.1c-0.4,0.5-0.9,0.7-1.7,0.7c-0.6,0-1.1-0.2-1.5-0.6c-0.4-0.4-0.6-0.9-0.7-1.6c-0.1-0.7-0.1-1.5-0.1-2.4
		c0-0.9,0-1.6,0.1-2.2s0.3-1,0.7-1.3s0.8-0.5,1.5-0.5c0.6,0,1.1,0.2,1.5,0.5c0.4,0.4,0.5,0.8,0.5,1.4v0.1H543.4z M542.5,1007.3
		c-0.4,0-0.6,0.1-0.8,0.4s-0.3,0.8-0.3,1.4c0,1.3,0.4,1.9,1.1,1.9c0.4,0,0.7-0.2,0.8-0.5s0.3-0.8,0.3-1.5
		C543.6,1007.9,543.2,1007.3,542.5,1007.3z"/>
	<path class="st0" d="M549.2,1003.5v5.3h1v0.9h-1v2.1h-1.1v-2.1h-2.7v-1.2l2.4-5.1H549.2z M546.2,1008.8h1.9v-3.6c0-0.1,0-0.2,0-0.3
		l0-0.4L546.2,1008.8z"/>
	<path class="st0" d="M555.1,1003.5v0.9l-2.2,7.4h-1.2l2.3-7.4h-3.2v-0.9H555.1z"/>
	<path class="st0" d="M561,1008.6v0.5h-3.4v0.1c0,0.7,0.1,1.2,0.3,1.5c0.2,0.3,0.5,0.4,0.9,0.4c0.6,0,1-0.4,1.1-1.2h1.1
		c0,1.3-0.8,2-2.2,2c-0.8,0-1.3-0.2-1.7-0.6c-0.4-0.4-0.6-1.3-0.6-2.6c0-1.1,0.2-1.9,0.5-2.4c0.3-0.5,0.9-0.7,1.7-0.7
		c0.7,0,1.3,0.2,1.7,0.6C560.8,1006.6,561,1007.4,561,1008.6z M559.9,1008.4v-0.2c0-0.6-0.1-1.1-0.3-1.4c-0.2-0.3-0.5-0.4-0.9-0.4
		c-0.4,0-0.7,0.2-0.9,0.5c-0.2,0.3-0.3,0.8-0.3,1.5v0.1H559.9z"/>
	<path class="st0" d="M565.4,1005.4L565.4,1005.4c0-0.4-0.1-0.7-0.3-0.9c-0.2-0.2-0.4-0.3-0.7-0.3c-0.4,0-0.7,0.2-0.9,0.6
		s-0.3,1.1-0.3,2.2v0.2c0.1-0.2,0.3-0.4,0.6-0.5s0.5-0.2,0.8-0.2c0.7,0,1.1,0.2,1.5,0.7c0.3,0.5,0.5,1.1,0.5,2
		c0,0.9-0.2,1.6-0.5,2.1c-0.4,0.5-0.9,0.7-1.7,0.7c-0.6,0-1.1-0.2-1.5-0.6c-0.4-0.4-0.6-0.9-0.7-1.6c-0.1-0.7-0.1-1.5-0.1-2.4
		c0-0.9,0-1.6,0.1-2.2s0.3-1,0.7-1.3s0.8-0.5,1.5-0.5c0.6,0,1.1,0.2,1.5,0.5c0.4,0.4,0.5,0.8,0.5,1.4v0.1H565.4z M564.5,1007.3
		c-0.4,0-0.6,0.1-0.8,0.4s-0.3,0.8-0.3,1.4c0,1.3,0.4,1.9,1.1,1.9c0.4,0,0.7-0.2,0.8-0.5s0.3-0.8,0.3-1.5
		C565.6,1007.9,565.2,1007.3,564.5,1007.3z"/>
	<path class="st0" d="M570.5,1008.7l-1.7,2.1h3.3v1h-4.5v-1l2.3-3.2c0.3-0.4,0.5-0.8,0.6-1.1c0.1-0.4,0.2-0.7,0.2-1.1
		c0-0.4-0.1-0.7-0.3-0.9c-0.2-0.2-0.4-0.3-0.8-0.3c-0.3,0-0.6,0.1-0.7,0.3c-0.2,0.2-0.3,0.5-0.3,1v0.1h-1.1c0-0.1,0-0.2,0-0.3
		c0-0.6,0.2-1.1,0.6-1.5c0.4-0.3,0.9-0.5,1.6-0.5c0.7,0,1.2,0.2,1.6,0.5c0.4,0.4,0.5,0.9,0.5,1.6c0,0.5-0.1,0.9-0.3,1.4
		C571.4,1007.4,571,1008,570.5,1008.7z"/>
	<path class="st0" d="M577.4,1007.4v3.2c0,0.1,0,0.3,0,0.5c0,0.2,0,0.4,0.1,0.6h-1l0-0.9h0c-0.2,0.4-0.4,0.6-0.6,0.8
		c-0.2,0.2-0.6,0.2-1,0.2c-0.5,0-0.9-0.2-1.2-0.5c-0.3-0.3-0.4-0.8-0.4-1.4c0-0.7,0.2-1.2,0.6-1.5c0.4-0.3,1.1-0.5,2.1-0.5h0.4v-0.5
		c0-0.4-0.1-0.6-0.2-0.9s-0.4-0.3-0.8-0.3c-0.3,0-0.6,0.1-0.7,0.3c-0.2,0.2-0.3,0.4-0.3,0.6c0,0.1,0,0.2,0,0.2h-1.1
		c0-0.6,0.2-1.1,0.5-1.4c0.3-0.3,0.8-0.4,1.5-0.4c0.7,0,1.2,0.2,1.5,0.5C577.2,1006.4,577.4,1006.9,577.4,1007.4z M576.1,1010.6
		c0.2-0.3,0.3-0.8,0.3-1.4v-0.3c0,0,0-0.1,0-0.1l-0.3,0c-0.7,0-1.2,0.1-1.5,0.3c-0.3,0.2-0.4,0.5-0.4,1c0,0.4,0.1,0.6,0.3,0.8
		s0.4,0.3,0.7,0.3C575.6,1011.1,575.9,1011,576.1,1010.6z"/>
	<path class="st0" d="M583.4,1007.4v3.2c0,0.1,0,0.3,0,0.5c0,0.2,0,0.4,0.1,0.6h-1l0-0.9h0c-0.2,0.4-0.4,0.6-0.6,0.8
		c-0.2,0.2-0.6,0.2-1,0.2c-0.5,0-0.9-0.2-1.2-0.5c-0.3-0.3-0.4-0.8-0.4-1.4c0-0.7,0.2-1.2,0.6-1.5c0.4-0.3,1.1-0.5,2.1-0.5h0.4v-0.5
		c0-0.4-0.1-0.6-0.2-0.9s-0.4-0.3-0.8-0.3c-0.3,0-0.6,0.1-0.7,0.3c-0.2,0.2-0.3,0.4-0.3,0.6c0,0.1,0,0.2,0,0.2h-1.1
		c0-0.6,0.2-1.1,0.5-1.4c0.3-0.3,0.8-0.4,1.5-0.4c0.7,0,1.2,0.2,1.5,0.5C583.2,1006.4,583.4,1006.9,583.4,1007.4z M582.1,1010.6
		c0.2-0.3,0.3-0.8,0.3-1.4v-0.3c0,0,0-0.1,0-0.1l-0.3,0c-0.7,0-1.2,0.1-1.5,0.3c-0.3,0.2-0.4,0.5-0.4,1c0,0.4,0.1,0.6,0.3,0.8
		s0.4,0.3,0.7,0.3C581.6,1011.1,581.9,1011,582.1,1010.6z"/>
	<path class="st0" d="M587.9,1003.5v8.3h-1.1v-7.1c-0.4,0.3-0.8,0.6-1.2,0.8v-1.1c0.3-0.1,0.5-0.3,0.7-0.4c0.2-0.2,0.4-0.4,0.6-0.6
		H587.9z"/>
	<path class="st0" d="M593.4,1005.4L593.4,1005.4c0-0.4-0.1-0.7-0.3-0.9c-0.2-0.2-0.4-0.3-0.7-0.3c-0.4,0-0.7,0.2-0.9,0.6
		s-0.3,1.1-0.3,2.2v0.2c0.1-0.2,0.3-0.4,0.6-0.5s0.5-0.2,0.8-0.2c0.7,0,1.1,0.2,1.5,0.7c0.3,0.5,0.5,1.1,0.5,2
		c0,0.9-0.2,1.6-0.5,2.1c-0.4,0.5-0.9,0.7-1.7,0.7c-0.6,0-1.1-0.2-1.5-0.6c-0.4-0.4-0.6-0.9-0.7-1.6c-0.1-0.7-0.1-1.5-0.1-2.4
		c0-0.9,0-1.6,0.1-2.2s0.3-1,0.7-1.3s0.8-0.5,1.5-0.5c0.6,0,1.1,0.2,1.5,0.5c0.4,0.4,0.5,0.8,0.5,1.4v0.1H593.4z M592.5,1007.3
		c-0.4,0-0.6,0.1-0.8,0.4s-0.3,0.8-0.3,1.4c0,1.3,0.4,1.9,1.1,1.9c0.4,0,0.7-0.2,0.8-0.5s0.3-0.8,0.3-1.5
		C593.6,1007.9,593.2,1007.3,592.5,1007.3z"/>
	<path class="st0" d="M598.7,1005.4L598.7,1005.4c0-0.4-0.1-0.7-0.3-0.9c-0.2-0.2-0.4-0.3-0.7-0.3c-0.4,0-0.7,0.2-0.9,0.6
		s-0.3,1.1-0.3,2.2v0.2c0.1-0.2,0.3-0.4,0.6-0.5s0.5-0.2,0.8-0.2c0.7,0,1.1,0.2,1.5,0.7c0.3,0.5,0.5,1.1,0.5,2
		c0,0.9-0.2,1.6-0.5,2.1c-0.4,0.5-0.9,0.7-1.7,0.7c-0.6,0-1.1-0.2-1.5-0.6c-0.4-0.4-0.6-0.9-0.7-1.6c-0.1-0.7-0.1-1.5-0.1-2.4
		c0-0.9,0-1.6,0.1-2.2s0.3-1,0.7-1.3s0.8-0.5,1.5-0.5c0.6,0,1.1,0.2,1.5,0.5c0.4,0.4,0.5,0.8,0.5,1.4v0.1H598.7z M597.8,1007.3
		c-0.4,0-0.6,0.1-0.8,0.4s-0.3,0.8-0.3,1.4c0,1.3,0.4,1.9,1.1,1.9c0.4,0,0.7-0.2,0.8-0.5s0.3-0.8,0.3-1.5
		C598.9,1007.9,598.5,1007.3,597.8,1007.3z"/>
</g>
<line class="st8" x1="361" y1="1021" x2="601" y2="1021"/>
<rect x="361" y="1004" class="st0" width="8" height="8"/>
<circle class="st0" cx="297.5" cy="62.5" r="1.5"/>
<circle class="st0" cx="292.5" cy="62.5" r="1.5"/>
<circle class="st0" cx="297.5" cy="67.5" r="1.5"/>
<circle class="st0" cx="292.5" cy="67.5" r="1.5"/>
<circle class="st0" cx="297.5" cy="72.5" r="1.5"/>
<circle class="st0" cx="292.5" cy="72.5" r="1.5"/>
<circle class="st0" cx="297.5" cy="77.5" r="1.5"/>
<circle class="st0" cx="297.5" cy="82.5" r="1.5"/>
<circle class="st0" cx="292.5" cy="82.5" r="1.5"/>
<circle class="st0" cx="292.5" cy="87.5" r="1.5"/>
<circle class="st0" cx="297.5" cy="92.5" r="1.5"/>
<circle class="st0" cx="297.5" cy="97.5" r="1.5"/>
<circle class="st0" cx="292.5" cy="97.5" r="1.5"/>
<circle class="st0" cx="292.5" cy="102.5" r="1.5"/>
<circle class="st0" cx="297.5" cy="107.5" r="1.5"/>
<circle class="st0" cx="292.5" cy="107.5" r="1.5"/>
<circle class="st0" cx="297.5" cy="112.5" r="1.5"/>
<circle class="st0" cx="292.5" cy="112.5" r="1.5"/>
<circle class="st0" cx="297.5" cy="117.5" r="1.5"/>
<circle class="st0" cx="292.5" cy="117.5" r="1.5"/>
</svg>
