<?xml version="1.0" encoding="utf-8"?>
<!-- Generator: Adobe Illustrator 23.0.0, SVG Export Plug-In . SVG Version: 6.00 Build 0)  -->
<svg version="1.1" id="Layer_1" xmlns="http://www.w3.org/2000/svg" xmlns:xlink="http://www.w3.org/1999/xlink" x="0px" y="0px"
	 viewBox="0 0 576 576" style="enable-background:new 0 0 576 576;" xml:space="preserve">
<style type="text/css">
	.st0{fill:#FFFFFF;}
</style>
<rect x="0" width="576" height="576"/>
<g>
	<path class="st0" d="M288.9,355.8l-0.1-5.6c3.2,0,6.4-0.3,9.6-0.9l0.9,5.5C295.9,355.4,292.4,355.7,288.9,355.8z M278.4,355.1
		c-1.3-0.2-2.6-0.4-3.9-0.7c-2.1-0.4-4.3-1-6.4-1.6l1.6-5.4c1.9,0.6,3.9,1.1,5.8,1.5c1.2,0.2,2.4,0.4,3.6,0.6L278.4,355.1z
		 M309.5,352.2l-1.8-5.3c3-1,6-2.3,8.9-3.8l2.6,5C316.1,349.8,312.9,351.1,309.5,352.2z M258.4,349c-3.1-1.5-6.2-3.3-9.1-5.3
		l3.2-4.6c2.6,1.8,5.4,3.5,8.3,4.9L258.4,349z M328.1,342.6l-3.3-4.5c2.6-1.9,5-4,7.3-6.3l4,3.9
		C333.6,338.2,330.9,340.5,328.1,342.6z M241.2,337c-2.5-2.4-4.9-5-7-7.8l4.4-3.4c1.9,2.5,4.1,5,6.4,7.2L241.2,337z M342.9,327.7
		l-4.5-3.3c1.9-2.6,3.6-5.4,5-8.2l5,2.5C346.8,321.9,344.9,324.9,342.9,327.7z M228.5,320.4c-1.7-3.1-3.1-6.3-4.3-9.6l5.3-1.9
		c1.1,3,2.4,6,3.9,8.8L228.5,320.4z M352.4,309.1l-5.3-1.7c0.7-2.3,1.4-4.6,1.8-7c0.2-0.8,0.3-1.6,0.4-2.4l5.5,0.9
		c-0.1,0.9-0.3,1.7-0.5,2.6C353.9,304,353.2,306.6,352.4,309.1z M221.4,300.7c-0.7-3.4-1-6.9-1.2-10.4l5.6-0.2
		c0.1,3.2,0.5,6.4,1.1,9.6L221.4,300.7z M355.8,288.4l-5.6,0l0-0.4c0-3.1-0.2-6.1-0.7-9.2l5.5-0.8c0.5,3.3,0.7,6.7,0.7,10
		L355.8,288.4z M226.3,280.4l-5.6-0.7c0.2-1.7,0.5-3.5,0.8-5.2c0.7-3.4,1.7-6.8,2.9-10.1l5.3,1.9c-1.1,3-2,6.1-2.6,9.3
		C226.8,277.2,226.5,278.8,226.3,280.4z M347.3,269.4c-1-3.1-2.2-6.1-3.6-8.9l5-2.5c1.6,3.1,2.9,6.4,3.9,9.7L347.3,269.4z
		 M233.7,257.6l-4.9-2.7c1.7-3,3.7-6,5.8-8.7l4.4,3.5C237.1,252.1,235.3,254.8,233.7,257.6z M338.8,252.2c-1.8-2.6-3.9-5.1-6.1-7.4
		l4-3.9c2.4,2.5,4.7,5.2,6.7,8.1L338.8,252.2z M245.6,242.5l-3.8-4.1c2.6-2.4,5.3-4.6,8.2-6.5l3.1,4.6
		C250.5,238.3,248,240.3,245.6,242.5z M325.4,238.4c-2.6-1.9-5.3-3.7-8.1-5.2l2.6-4.9c3.1,1.6,6.1,3.5,8.9,5.7L325.4,238.4z
		 M261.5,231.8l-2.4-5.1c3.2-1.5,6.5-2.7,9.8-3.7l1.6,5.4C267.5,229.2,264.4,230.4,261.5,231.8z M308.5,229.3
		c-2.6-0.9-5.4-1.7-8.1-2.2c-0.4-0.1-0.8-0.2-1.2-0.2l1-5.5c0.4,0.1,0.9,0.2,1.3,0.2c3,0.6,6,1.4,8.9,2.4L308.5,229.3z M280,226.4
		l-0.7-5.6c2.9-0.4,5.8-0.6,8.7-0.6c0.6,0,1.2,0,1.8,0l-0.1,5.6c-0.5,0-1.1,0-1.6,0c0,0,0,0,0,0C285.3,225.8,282.6,226,280,226.4z"
		/>
</g>
<g>
	<path class="st0" d="M288.1,362.2c-1.1,0-2.3,0-3.4-0.1c-2.4-0.1-4.8-0.3-7.1-0.7l0.8-5.5c2.2,0.3,4.4,0.5,6.6,0.6
		c1.3,0.1,2.7,0.1,4,0.1l0.1,5.6C288.7,362.2,288.4,362.2,288.1,362.2z M300.5,361.2l-0.9-5.5c3.5-0.6,7-1.5,10.3-2.6l1.8,5.3
		C308,359.6,304.2,360.6,300.5,361.2z M266.3,359c-3.7-1.1-7.3-2.5-10.7-4.2l2.4-5c3.2,1.5,6.5,2.9,9.9,3.9L266.3,359z M322.2,353.9
		l-2.6-5c3.1-1.6,6.2-3.5,9-5.6l3.3,4.5C328.9,350.1,325.6,352.1,322.2,353.9z M245.6,349c-3.1-2.2-6.1-4.6-8.9-7.3l3.9-4
		c2.6,2.4,5.3,4.7,8.2,6.7L245.6,349z M340.7,340.3l-4-3.9c2.5-2.5,4.8-5.2,6.9-8.1l4.5,3.3C345.9,334.6,343.4,337.6,340.7,340.3z
		 M229,333.1c-2.3-3-4.4-6.3-6.3-9.6l4.9-2.7c1.7,3.1,3.6,6.1,5.8,8.9L229,333.1z M354.2,321.7l-5-2.5c1.6-3.2,3-6.5,4.1-9.8
		l5.3,1.7C357.4,314.7,355.9,318.3,354.2,321.7z M218.1,313c-1.3-3.6-2.3-7.3-3-11.1l5.5-1c0.7,3.5,1.6,6.9,2.8,10.3L218.1,313z
		 M361.3,299.9l-5.5-0.9c0.4-2.6,0.7-5.3,0.8-7.9c0-0.9,0.1-1.8,0.1-2.7l5.6,0c0,1,0,1.9-0.1,2.9C362,294.2,361.7,297.1,361.3,299.9
		z M213.8,290.4c0-0.8,0-1.6,0-2.4c0-1.1,0-2.3,0.1-3.4c0.2-3.8,0.6-7.7,1.4-11.4l5.5,1.1c-0.7,3.5-1.1,7-1.3,10.6
		c0,1-0.1,2.1-0.1,3.2c0,0.7,0,1.5,0,2.2L213.8,290.4z M355.9,277.8c-0.5-3.5-1.3-7-2.4-10.4l5.3-1.7c1.1,3.7,2,7.4,2.6,11.2
		L355.9,277.8z M223.6,264.1l-5.2-1.9c1.3-3.6,3-7.1,4.8-10.5l4.9,2.7C226.4,257.5,224.9,260.8,223.6,264.1z M349.5,257.6
		c-1.6-3.2-3.4-6.2-5.4-9.1l4.6-3.2c2.2,3.1,4.2,6.5,5.9,9.9L349.5,257.6z M234,245.6l-4.4-3.5c2.4-3,5-5.9,7.8-8.5l3.8,4.1
		C238.6,240.2,236.2,242.8,234,245.6z M337.3,240.2c-2.5-2.5-5.1-4.9-8-7.1l3.4-4.5c3.1,2.3,6,4.9,8.6,7.6L337.3,240.2z
		 M249.5,231.1l-3.1-4.6c3.2-2.1,6.5-4.1,10-5.7l2.4,5.1C255.6,227.4,252.5,229.1,249.5,231.1z M320.4,227.4
		c-3.1-1.7-6.4-3.1-9.7-4.3l1.8-5.3c3.6,1.3,7.2,2.8,10.5,4.6L320.4,227.4z M268.7,222.1l-1.6-5.4c3.7-1.1,7.5-1.9,11.3-2.4l0.7,5.6
		C275.6,220.4,272.1,221.1,268.7,222.1z M300.3,220.5c-3-0.5-6.1-0.9-9.2-1c-0.5,0-0.9,0-1.3,0l0.1-5.6c0.5,0,1,0,1.5,0.1
		c3.3,0.2,6.7,0.5,10,1.1L300.3,220.5z"/>
</g>
<g>
	<path class="st0" d="M289.1,372.2L289,361c3.8,0,7.6-0.4,11.3-1l1.9,11C297.8,371.8,293.5,372.1,289.1,372.2z M276.1,371.4
		c-1.6-0.2-3.2-0.5-4.8-0.8c-2.7-0.5-5.3-1.2-7.9-2l3.3-10.7c2.2,0.7,4.6,1.3,6.9,1.7c1.4,0.3,2.8,0.5,4.2,0.7L276.1,371.4z
		 M314.8,367.8l-3.6-10.6c3.6-1.2,7.1-2.7,10.4-4.4l5.2,9.9C322.9,364.7,318.9,366.5,314.8,367.8z M251.2,363.8
		c-3.9-1.9-7.7-4.1-11.3-6.6l6.4-9.2c3.1,2.1,6.4,4.1,9.8,5.7L251.2,363.8z M337.9,355.8l-6.6-9c3-2.2,5.9-4.7,8.6-7.4l7.9,7.9
		C344.7,350.4,341.4,353.3,337.9,355.8z M229.8,348.9c-3.1-3-6.1-6.3-8.7-9.7l8.9-6.8c2.3,3,4.8,5.8,7.5,8.4L229.8,348.9z
		 M356.2,337.4l-9.1-6.6c2.2-3,4.2-6.3,5.9-9.6l10,5.1C361.1,330.1,358.8,333.9,356.2,337.4z M214,328.2c-2.1-3.8-3.9-7.8-5.3-11.9
		l10.5-3.8c1.3,3.5,2.8,7,4.6,10.3L214,328.2z M368,314.2l-10.6-3.5c0.9-2.7,1.6-5.4,2.2-8.2c0.2-0.9,0.4-1.9,0.5-2.8l11.1,1.8
		c-0.2,1.1-0.4,2.1-0.6,3.2C369.9,307.9,369,311.1,368,314.2z M205.3,303.7c-0.8-4.3-1.3-8.6-1.4-13l11.2-0.4
		c0.1,3.8,0.5,7.5,1.2,11.2L205.3,303.7z M372.2,288.5l-11.2-0.1l0-0.5c0-3.6-0.3-7.2-0.8-10.8l11.1-1.7c0.6,4.1,0.9,8.3,0.9,12.4
		L372.2,288.5z M215.5,279.1l-11.1-1.4c0.3-2.1,0.6-4.3,1.1-6.4c0.9-4.3,2.1-8.5,3.6-12.5l10.5,3.9c-1.3,3.5-2.3,7.2-3.1,10.9
		C216.1,275.3,215.8,277.2,215.5,279.1z M357.7,266.1c-1.1-3.6-2.6-7.1-4.2-10.5l10-5c1.9,3.9,3.6,8,4.9,12.1L357.7,266.1z
		 M224.3,252.3l-9.8-5.5c2.1-3.8,4.6-7.4,7.2-10.9l8.8,6.9C228.2,245.9,226.1,249.1,224.3,252.3z M347.6,245.9
		c-2.2-3.1-4.6-6-7.2-8.7l8.1-7.8c3,3.1,5.8,6.5,8.3,10.1L347.6,245.9z M238.2,234.6l-7.6-8.2c3.2-3,6.6-5.7,10.2-8.1l6.3,9.3
		C244,229.7,241,232,238.2,234.6z M331.9,229.7c-3-2.3-6.2-4.3-9.5-6.1l5.3-9.9c3.8,2,7.5,4.4,11,7L331.9,229.7z M256.9,221.9
		l-4.8-10.1c3.9-1.9,8-3.4,12.2-4.6l3.2,10.7C263.9,219,260.3,220.3,256.9,221.9z M312.1,219.1c-3.1-1.1-6.3-2-9.6-2.6
		c-0.5-0.1-0.9-0.2-1.4-0.3l2-11c0.5,0.1,1.1,0.2,1.6,0.3c3.7,0.8,7.4,1.8,11,3L312.1,219.1z M278.6,215.6l-1.4-11.1
		c4.3-0.6,8.7-0.8,13-0.7l-0.3,11.2C286.1,214.9,282.3,215.1,278.6,215.6z"/>
</g>
<g>
	<path class="st0" d="M288.1,380.1c-1.4,0-2.8,0-4.2-0.1c-3-0.1-5.9-0.4-8.8-0.8l1.6-11.1c2.6,0.4,5.2,0.6,7.8,0.7
		c1.6,0.1,3.2,0.1,4.7,0.1l0.1,11.2C288.9,380.1,288.5,380.1,288.1,380.1z M303.4,378.8l-1.9-11c4.1-0.7,8.2-1.7,12.1-3l3.6,10.6
		C312.8,376.8,308.1,378,303.4,378.8z M261.1,376.1c-4.5-1.4-9-3.1-13.3-5.2l4.9-10.1c3.8,1.8,7.7,3.4,11.7,4.6L261.1,376.1z
		 M330.4,369.7l-5.2-9.9c3.7-1.9,7.3-4.2,10.6-6.6l6.6,9C338.7,365,334.6,367.5,330.4,369.7z M235.5,363.6c-3.9-2.7-7.6-5.7-11-9
		l7.7-8.1c3,2.9,6.3,5.6,9.7,7.9L235.5,363.6z M353.3,352.9l-7.9-7.9c2.9-3,5.7-6.2,8.1-9.6l9.1,6.6
		C359.8,345.8,356.7,349.5,353.3,352.9z M214.9,344c-2.9-3.8-5.5-7.8-7.8-12l9.8-5.4c2,3.7,4.3,7.2,6.8,10.5L214.9,344z M370,329.8
		l-10-5.1c1.9-3.7,3.5-7.6,4.8-11.6l10.6,3.5C374,321.1,372.2,325.6,370,329.8z M201.3,319c-1.6-4.5-2.9-9.1-3.7-13.8l11-2.1
		c0.8,4.1,1.9,8.2,3.3,12.1L201.3,319z M378.9,302.8l-11.1-1.8c0.5-3.1,0.8-6.2,1-9.3c0-1.1,0.1-2.1,0.1-3.2l11.2,0.1
		c0,1.2,0,2.4-0.1,3.6C379.8,295.7,379.4,299.3,378.9,302.8z M196,291c0-1,0-2,0-3c0-1.4,0-2.8,0.1-4.2c0.2-4.8,0.8-9.5,1.7-14.2
		l11,2.2c-0.8,4.1-1.3,8.3-1.5,12.4c-0.1,1.2-0.1,2.5-0.1,3.7c0,0.9,0,1.7,0,2.6L196,291z M368,276c-0.6-4.1-1.6-8.2-2.8-12.2
		l10.7-3.4c1.4,4.5,2.5,9.2,3.2,13.9L368,276z M212.2,259.9l-10.5-3.9c1.7-4.5,3.7-8.8,6-13l9.8,5.5
		C215.4,252.1,213.6,255.9,212.2,259.9z M360.5,252.2c-1.8-3.7-4-7.4-6.4-10.8l9.1-6.5c2.7,3.9,5.2,8,7.3,12.2L360.5,252.2z
		 M224.4,238.1l-8.8-6.9c2.9-3.7,6.2-7.3,9.7-10.5l7.6,8.2C229.8,231.7,227,234.8,224.4,238.1z M346.1,231.7c-2.9-3-6.1-5.8-9.4-8.3
		l6.8-8.9c3.8,2.9,7.4,6,10.7,9.5L346.1,231.7z M242.7,221l-6.3-9.3c3.9-2.7,8.1-5,12.4-7.1l4.8,10.1
		C249.8,216.6,246.2,218.7,242.7,221z M326.1,216.7c-3.7-2-7.5-3.7-11.5-5l3.7-10.6c4.5,1.6,8.9,3.5,13.1,5.7L326.1,216.7z
		 M265.3,210.4l-3.1-10.8c4.6-1.3,9.3-2.3,14-2.9l1.4,11.1C273.4,208.3,269.3,209.2,265.3,210.4z M302.5,208.5
		c-3.6-0.6-7.2-1.1-10.9-1.2c-0.5,0-1.1,0-1.6-0.1l0.3-11.2c0.6,0,1.2,0,1.8,0.1c4.1,0.2,8.3,0.7,12.4,1.4L302.5,208.5z"/>
</g>
<g>
	<path class="st0" d="M289.4,391.5l-0.2-16.8c4.5-0.1,9-0.5,13.4-1.2l2.8,16.6C300.1,391,294.7,391.4,289.4,391.5z M273.4,390.5
		c-2-0.3-4-0.6-5.9-1c-3.3-0.7-6.5-1.5-9.7-2.5l4.9-16.1c2.7,0.8,5.4,1.5,8.1,2.1c1.6,0.3,3.3,0.6,5,0.9L273.4,390.5z M320.9,386.1
		l-5.4-15.9c4.2-1.4,8.4-3.2,12.4-5.3l7.7,14.9C330.9,382.3,326,384.4,320.9,386.1z M242.8,381.1c-4.8-2.3-9.5-5.1-13.9-8.1
		l9.6-13.8c3.7,2.6,7.6,4.8,11.6,6.8L242.8,381.1z M349.3,371.4l-9.9-13.5c3.6-2.7,7-5.6,10.2-8.8l11.9,11.8
		C357.7,364.7,353.6,368.2,349.3,371.4z M216.5,362.9c-3.9-3.7-7.5-7.7-10.7-12l13.3-10.2c2.7,3.6,5.7,6.9,9,10L216.5,362.9z
		 M371.9,348.7l-13.6-9.9c2.6-3.6,5-7.5,7-11.5l15,7.6C377.8,339.8,375,344.4,371.9,348.7z M197.1,337.5c-2.6-4.7-4.8-9.6-6.6-14.6
		l15.8-5.7c1.5,4.2,3.4,8.3,5.5,12.3L197.1,337.5z M386.4,320.2l-16-5.2c1-3.2,1.9-6.5,2.6-9.8c0.2-1.1,0.4-2.2,0.6-3.3l16.6,2.7
		c-0.2,1.3-0.5,2.6-0.7,3.9C388.6,312.5,387.6,316.4,386.4,320.2z M186.3,307.3c-1-5.2-1.6-10.6-1.8-16l16.8-0.5
		c0.1,4.5,0.6,9,1.5,13.3L186.3,307.3z M391.5,288.6l-16.8-0.1l0-0.6c0-4.3-0.3-8.6-1-12.8l16.6-2.5c0.8,5,1.1,10.2,1.1,15.3
		L391.5,288.6z M201.9,277.4l-16.7-2.1c0.3-2.6,0.8-5.3,1.3-7.9c1.1-5.2,2.5-10.4,4.4-15.4l15.8,5.8c-1.5,4.2-2.8,8.5-3.7,12.9
		C202.6,273,202.2,275.2,201.9,277.4z M370.7,262c-1.3-4.3-3-8.5-5-12.5l15.1-7.5c2.4,4.8,4.4,9.8,6,14.9L370.7,262z M212.3,245.6
		l-14.7-8.2c2.6-4.7,5.6-9.2,8.9-13.4l13.2,10.4C217,238,214.5,241.7,212.3,245.6z M358.8,238c-2.6-3.7-5.5-7.1-8.6-10.4l12.1-11.7
		c3.7,3.8,7.2,8,10.2,12.4L358.8,238z M228.9,224.6l-11.4-12.3c3.9-3.6,8.1-7,12.5-10l9.4,13.9C235.7,218.7,232.2,221.5,228.9,224.6
		z M340.2,218.7c-3.6-2.7-7.4-5.1-11.3-7.2l7.9-14.8c4.7,2.5,9.3,5.4,13.5,8.6L340.2,218.7z M251.1,209.5l-7.2-15.2
		c4.8-2.3,9.9-4.2,15-5.7l4.7,16.1C259.4,206,255.1,207.6,251.1,209.5z M316.6,206.1c-3.7-1.3-7.5-2.3-11.4-3.1
		c-0.6-0.1-1.1-0.2-1.7-0.3l3-16.5c0.7,0.1,1.3,0.2,2,0.4c4.6,0.9,9.1,2.2,13.5,3.7L316.6,206.1z M276.8,202l-2.2-16.7
		c5.3-0.7,10.7-1,16-0.8l-0.4,16.8C285.7,201.2,281.2,201.4,276.8,202z"/>
</g>
<path class="st0" d="M288.1,401c-1.7,0-3.5,0-5.2-0.1c-3.6-0.2-7.3-0.5-10.8-1l2.3-16.6c3,0.4,6.2,0.7,9.2,0.9
	c1.9,0.1,3.8,0.1,5.7,0.1l0.2,16.8C289,401,288.6,401,288.1,401z M307,399.4l-2.8-16.6c4.9-0.8,9.8-2,14.5-3.6l5.3,15.9
	C318.4,397,312.7,398.5,307,399.4z M255,396.1c-5.6-1.7-11.1-3.9-16.3-6.4l7.3-15.1c4.5,2.2,9.1,4,13.9,5.4L255,396.1z M340.1,388.3
	l-7.8-14.9c4.4-2.3,8.7-4.9,12.7-7.9l10,13.5C350.2,382.5,345.2,385.6,340.1,388.3z M223.5,380.8c-4.8-3.3-9.3-7.1-13.6-11.1
	l11.6-12.1c3.6,3.4,7.5,6.6,11.5,9.4L223.5,380.8z M368.2,367.6l-11.9-11.8c3.5-3.5,6.8-7.4,9.7-11.4l13.6,9.9
	C376.1,359,372.3,363.5,368.2,367.6z M198.3,356.7c-3.5-4.6-6.8-9.6-9.5-14.7l14.8-8c2.4,4.4,5.1,8.6,8.1,12.5L198.3,356.7z
	 M388.7,339.3l-15-7.6c2.3-4.4,4.2-9.1,5.7-13.8l16,5.2C393.6,328.7,391.4,334.1,388.7,339.3z M181.6,326c-2-5.5-3.5-11.2-4.6-16.9
	l16.5-3.1c0.9,4.9,2.2,9.7,3.9,14.4L181.6,326z M399.6,306.1l-16.6-2.7c0.6-3.6,1-7.4,1.1-11.1c0.1-1.2,0.1-2.5,0.1-3.8l16.8,0.1
	c0,1.5,0,3-0.1,4.4C400.7,297.5,400.2,301.8,399.6,306.1z M175,291.7c0-1.2-0.1-2.4-0.1-3.6c0-1.7,0-3.5,0.1-5.2
	c0.3-5.8,1-11.7,2.1-17.4l16.5,3.3c-1,4.8-1.6,9.8-1.8,14.8c-0.1,1.5-0.1,3-0.1,4.4c0,1,0,2.1,0.1,3.1L175,291.7z M383.2,273.7
	c-0.7-4.9-1.9-9.8-3.3-14.5l16-5c1.7,5.6,3.1,11.3,3.9,17.1L383.2,273.7z M197.8,254.5l-15.8-5.8c2-5.5,4.5-10.8,7.4-15.9L204,241
	C201.6,245.3,199.5,249.9,197.8,254.5z M374.3,245.4c-2.2-4.4-4.8-8.7-7.6-12.8l13.7-9.7c3.4,4.8,6.4,9.8,9,15L374.3,245.4z
	 M212.3,228.6l-13.2-10.4c3.6-4.6,7.6-8.9,11.9-12.9l11.5,12.3C218.8,221,215.4,224.7,212.3,228.6z M357.1,221.1
	c-3.5-3.6-7.2-6.9-11.2-9.9l10.1-13.4c4.6,3.5,9.1,7.4,13.1,11.6L357.1,221.1z M234.1,208.3l-9.4-13.9c4.8-3.3,9.9-6.2,15.2-8.7
	l7.2,15.2C242.6,203,238.2,205.5,234.1,208.3z M333.4,203.1c-4.4-2.3-9-4.4-13.7-6l5.5-15.9c5.5,1.9,10.9,4.3,16.1,7L333.4,203.1z
	 M261,195.6l-4.7-16.1c5.6-1.6,11.4-2.8,17.2-3.6l2.2,16.7C270.6,193.2,265.7,194.2,261,195.6z M305.3,193.3
	c-4.2-0.8-8.6-1.3-13-1.5c-0.6,0-1.3-0.1-1.9-0.1l0.4-16.8c0.7,0,1.5,0,2.2,0.1c5.1,0.2,10.2,0.8,15.2,1.7L305.3,193.3z"/>
<path class="st0" d="M289.6,410.2l-0.2-16.6c5.4-0.1,10.9-0.6,16.3-1.5l2.8,16.4C302.3,409.6,295.9,410.2,289.6,410.2z"/>
<path class="st0" d="M270.7,409c-2.3-0.3-4.7-0.7-7-1.2c-3.9-0.8-7.7-1.8-11.5-2.9l4.9-15.9c3.2,1,6.6,1.8,9.9,2.5
	c2,0.4,4,0.8,6.1,1.1L270.7,409z"/>
<path class="st0" d="M326.9,403.9l-5.3-15.8c5.2-1.7,10.2-3.9,15.1-6.4l7.7,14.8C338.7,399.4,332.8,401.9,326.9,403.9z"/>
<path class="st0" d="M234.6,398c-5.7-2.8-11.2-6-16.4-9.6l9.5-13.7c4.5,3.1,9.2,5.9,14.1,8.3L234.6,398z"/>
<path class="st0" d="M360.4,386.5l-9.8-13.4c4.4-3.2,8.6-6.8,12.4-10.7l11.8,11.7C370.3,378.6,365.5,382.8,360.4,386.5z"/>
<path class="st0" d="M203.6,376.4c-4.6-4.4-8.8-9.1-12.6-14.1l13.2-10.1c3.3,4.3,7,8.4,10.9,12.2L203.6,376.4z"/>
<path class="st0" d="M387,359.7l-13.5-9.8c3.2-4.4,6.1-9.1,8.5-14l14.8,7.5C394.1,349.1,390.7,354.6,387,359.7z"/>
<path class="st0" d="M180.6,346.4c-3-5.5-5.6-11.4-7.7-17.3l15.7-5.6c1.8,5.1,4.1,10.2,6.7,14.9L180.6,346.4z"/>
<path class="st0" d="M404.2,326l-15.8-5.2c1.3-3.9,2.3-7.9,3.1-11.9c0.3-1.3,0.5-2.7,0.7-4l16.4,2.7c-0.3,1.5-0.5,3.1-0.9,4.7
	C406.9,316.9,405.6,321.5,404.2,326z"/>
<path class="st0" d="M167.9,310.8c-1.2-6.2-1.9-12.5-2.1-18.8l16.6-0.5c0.2,5.4,0.8,10.9,1.8,16.3L167.9,310.8z"/>
<path class="st0" d="M410.3,288.7l-16.6-0.1l0-0.7c0-5.2-0.4-10.4-1.2-15.6l16.4-2.5c0.9,6,1.3,12,1.3,18L410.3,288.7z"/>
<path class="st0" d="M183.2,275.1l-16.5-2c0.4-3.1,0.9-6.3,1.5-9.4c1.3-6.2,3-12.3,5.2-18.2l15.6,5.8c-1.9,5.1-3.4,10.4-4.5,15.8
	C184,269.7,183.5,272.4,183.2,275.1z"/>
<path class="st0" d="M388.8,256.4c-1.6-5.2-3.7-10.3-6.1-15.2l14.9-7.4c2.8,5.7,5.2,11.6,7.1,17.6L388.8,256.4z"/>
<path class="st0" d="M195.8,236.4l-14.5-8.1c3.1-5.5,6.6-10.8,10.5-15.8l13.1,10.3C201.5,227.1,198.5,231.7,195.8,236.4z"/>
<path class="st0" d="M374.3,227.1c-3.1-4.5-6.7-8.7-10.4-12.6l12-11.6c4.4,4.5,8.4,9.4,12.1,14.6L374.3,227.1z"/>
<path class="st0" d="M216,210.7l-11.3-12.2c4.6-4.3,9.6-8.3,14.8-11.8l9.3,13.8C224.3,203.6,220,207,216,210.7z"/>
<path class="st0" d="M351.6,203.6c-4.3-3.3-9-6.2-13.8-8.8l7.8-14.7c5.6,3,10.9,6.4,16,10.2L351.6,203.6z"/>
<path class="st0" d="M243,192.4l-7.1-15c5.7-2.7,11.7-5,17.7-6.7l4.7,16C253.1,188.2,248,190.1,243,192.4z"/>
<path class="st0" d="M322.8,188.3c-4.5-1.6-9.1-2.8-13.8-3.8c-0.7-0.1-1.3-0.3-2-0.4l3-16.4c0.8,0.1,1.6,0.3,2.3,0.4
	c5.4,1.1,10.8,2.6,16,4.4L322.8,188.3z"/>
<path class="st0" d="M274.3,183.3l-2.2-16.5c5.2-0.7,10.5-1,15.7-1c0,0,0,0,0,0c1.1,0,2.2,0,3.2,0l-0.4,16.6c-0.9,0-1.9,0-2.8,0
	c0,0,0,0,0,0C283.4,182.4,278.8,182.7,274.3,183.3z"/>
<path class="st0" d="M288.1,421.6c-2,0-4.1,0-6.1-0.1c-4.3-0.2-8.6-0.6-12.8-1.2l2.3-16.5c3.7,0.5,7.5,0.9,11.2,1
	c2.3,0.1,4.5,0.1,6.9,0.1l0.2,16.6C289.2,421.6,288.7,421.6,288.1,421.6z"/>
<path class="st0" d="M310.4,419.8l-2.8-16.4c6-1,11.9-2.5,17.6-4.4l5.3,15.8C324,416.9,317.2,418.6,310.4,419.8z"/>
<path class="st0" d="M248.9,415.8c-6.6-2-13.1-4.6-19.3-7.6l7.3-15c5.4,2.6,11.1,4.9,16.9,6.6L248.9,415.8z"/>
<path class="st0" d="M349.6,406.6l-7.7-14.8c5.3-2.8,10.5-6,15.4-9.6l9.9,13.4C361.6,399.8,355.7,403.4,349.6,406.6z"/>
<path class="st0" d="M211.8,397.8c-5.7-3.9-11-8.3-16-13.1l11.5-12c4.4,4.2,9.1,8,14,11.5L211.8,397.8z"/>
<path class="st0" d="M382.8,382.1L371,370.4c4.3-4.3,8.2-8.9,11.8-13.8l13.5,9.8C392.2,372,387.7,377.3,382.8,382.1z"/>
<path class="st0" d="M181.9,369.2c-4.2-5.5-8-11.3-11.3-17.4l14.6-8c2.9,5.3,6.2,10.4,9.9,15.2L181.9,369.2z"/>
<path class="st0" d="M407.1,348.7l-14.8-7.6c2.7-5.4,5.1-11,7-16.7l15.8,5.2C412.9,336.1,410.2,342.6,407.1,348.7z"/>
<path class="st0" d="M162.1,333c-2.3-6.5-4.2-13.2-5.4-20l16.3-3.1c1.1,5.9,2.7,11.8,4.8,17.5L162.1,333z"/>
<path class="st0" d="M419.9,309.4l-16.4-2.6c0.7-4.4,1.2-9,1.4-13.5c0.1-1.5,0.1-3.1,0.1-4.6l16.6,0.1c0,1.7-0.1,3.5-0.1,5.2
	C421.3,299.2,420.7,304.4,419.9,309.4z"/>
<path class="st0" d="M154.4,292.4c0-1.4-0.1-2.9-0.1-4.3c0-2,0-4.1,0.1-6.1c0.3-6.9,1.2-13.8,2.5-20.5l16.3,3.3
	c-1.2,5.9-1.9,11.9-2.2,18c-0.1,1.8-0.1,3.6-0.1,5.4c0,1.3,0,2.5,0.1,3.8L154.4,292.4z"/>
<path class="st0" d="M403.7,270.6c-0.9-6-2.3-11.9-4.1-17.7l15.9-5c2.1,6.6,3.6,13.4,4.6,20.2L403.7,270.6z"/>
<path class="st0" d="M178.3,247.3l-15.6-5.8c2.4-6.5,5.3-12.8,8.7-18.8l14.5,8.1C182.9,236.1,180.4,241.6,178.3,247.3z"/>
<path class="st0" d="M392.9,236.1c-2.7-5.4-5.8-10.6-9.3-15.6l13.6-9.6c4,5.6,7.5,11.6,10.6,17.8L392.9,236.1z"/>
<path class="st0" d="M196,215.7l-13.1-10.3c4.3-5.4,9-10.5,14-15.2l11.3,12.2C203.8,206.5,199.7,211,196,215.7z"/>
<path class="st0" d="M372,206.6c-4.2-4.3-8.8-8.4-13.6-12l10-13.3c5.5,4.2,10.7,8.8,15.5,13.7L372,206.6z"/>
<path class="st0" d="M222.4,191.1l-9.3-13.8c5.7-3.9,11.8-7.3,18-10.3l7.1,15C232.7,184.7,227.5,187.7,222.4,191.1z"/>
<path class="st0" d="M343.2,184.8c-5.3-2.9-10.9-5.3-16.6-7.3l5.5-15.7c6.5,2.3,12.9,5.1,19,8.3L343.2,184.8z"/>
<path class="st0" d="M255.1,175.7l-4.7-16c6.6-1.9,13.4-3.4,20.3-4.2l2.1,16.5C266.9,172.7,260.9,174,255.1,175.7z"/>
<path class="st0" d="M309,172.9c-5.2-0.9-10.5-1.5-15.8-1.8c-0.8,0-1.5-0.1-2.3-0.1l0.4-16.6c0.9,0,1.7,0.1,2.6,0.1
	c6,0.3,12.1,1,18,2L309,172.9z"/>
<path class="st0" d="M289.9,432l-0.2-16.4c6.6-0.1,13.2-0.7,19.7-1.8l2.8,16.2C304.8,431.2,297.3,431.9,289.9,432z"/>
<path class="st0" d="M267.7,430.5c-2.8-0.4-5.5-0.9-8.3-1.4c-4.6-0.9-9.1-2.1-13.5-3.4l4.8-15.7c3.9,1.2,7.9,2.2,12,3
	c2.4,0.5,4.9,0.9,7.3,1.3L267.7,430.5z"/>
<path class="st0" d="M333.8,424.5l-5.2-15.5c6.2-2.1,12.4-4.7,18.2-7.7l7.6,14.5C347.7,419.2,340.8,422.2,333.8,424.5z"/>
<path class="st0" d="M225.1,417.5c-6.7-3.2-13.2-7-19.3-11.3l9.4-13.4c5.4,3.8,11.1,7.1,17.1,10L225.1,417.5z"/>
<path class="st0" d="M373.3,404l-9.7-13.2c5.3-3.9,10.4-8.2,15-12.9l11.6,11.6C385,394.7,379.3,399.6,373.3,404z"/>
<path class="st0" d="M188.6,392.1c-5.4-5.1-10.4-10.7-14.9-16.6l13-10c4,5.2,8.4,10.2,13.2,14.7L188.6,392.1z"/>
<path class="st0" d="M404.6,372.4l-13.3-9.6c3.9-5.3,7.3-11,10.3-16.9l14.6,7.4C412.9,360,409,366.4,404.6,372.4z"/>
<path class="st0" d="M161.5,356.8c-3.6-6.5-6.6-13.4-9.1-20.4l15.4-5.5c2.2,6.2,4.9,12.3,8.1,18L161.5,356.8z"/>
<path class="st0" d="M424.8,332.8l-15.6-5.1c1.5-4.7,2.8-9.5,3.8-14.3c0.3-1.6,0.6-3.3,0.9-4.9l16.2,2.6c-0.3,1.8-0.6,3.7-1,5.5
	C428,322.1,426.6,327.5,424.8,332.8z"/>
<path class="st0" d="M146.5,314.9c-1.4-7.3-2.2-14.8-2.5-22.2l16.4-0.5c0.2,6.6,0.9,13.2,2.2,19.6L146.5,314.9z"/>
<path class="st0" d="M432,288.9l-16.4-0.1l0-0.9c0-6.3-0.5-12.6-1.4-18.8l16.2-2.4c1.1,7,1.6,14.2,1.6,21.3L432,288.9z"/>
<path class="st0" d="M161.4,272.4l-16.3-2c0.5-3.7,1.1-7.4,1.8-11c1.5-7.3,3.5-14.5,6.1-21.5l15.4,5.7c-2.3,6.2-4.1,12.6-5.4,19
	C162.3,265.9,161.8,269.2,161.4,272.4z"/>
<path class="st0" d="M409.8,249.8c-2-6.3-4.5-12.4-7.4-18.3l14.7-7.3c3.3,6.7,6.1,13.6,8.3,20.7L409.8,249.8z"/>
<path class="st0" d="M176.6,225.7l-14.3-8c3.6-6.5,7.8-12.7,12.4-18.6l12.9,10.1C183.5,214.4,179.8,219.9,176.6,225.7z"/>
<path class="st0" d="M392.2,214.4c-3.8-5.4-8-10.5-12.6-15.2l11.8-11.4c5.2,5.3,9.9,11.1,14.2,17.2L392.2,214.4z"/>
<path class="st0" d="M201,194.7l-11.2-12c5.4-5.1,11.3-9.7,17.5-13.9l9.2,13.6C211,186,205.8,190.2,201,194.7z"/>
<path class="st0" d="M364.8,186.1c-5.3-4-10.9-7.5-16.7-10.6l7.7-14.5c6.6,3.5,12.9,7.5,18.8,12L364.8,186.1z"/>
<path class="st0" d="M233.7,172.5l-7-14.8c6.7-3.2,13.7-5.8,20.9-7.9l4.6,15.7C245.8,167.4,239.6,169.7,233.7,172.5z"/>
<path class="st0" d="M330.1,167.5c-5.4-1.9-11-3.4-16.7-4.6c-0.8-0.2-1.6-0.3-2.4-0.5l2.9-16.1c0.9,0.2,1.8,0.3,2.7,0.5
	c6.4,1.3,12.7,3,18.8,5.1L330.1,167.5z"/>
<path class="st0" d="M271.5,161.4l-2.1-16.2c7.4-1,14.8-1.3,22.3-1.1l-0.4,16.4C284.6,160.3,278,160.6,271.5,161.4z"/>
<path class="st0" d="M288.1,445.6c-2.4,0-4.8-0.1-7.2-0.2c-5-0.2-10.1-0.7-15.1-1.4l2.3-16.2c4.5,0.6,9,1.1,13.6,1.3
	c2.8,0.1,5.6,0.2,8.3,0.1l0.2,16.4C289.5,445.6,288.8,445.6,288.1,445.6z"/>
<path class="st0" d="M314.4,443.3l-2.7-16.2c7.2-1.2,14.3-3,21.2-5.3l5.2,15.5C330.4,440,322.5,442,314.4,443.3z"/>
<path class="st0" d="M241.9,438.7c-7.8-2.4-15.4-5.4-22.8-8.9l7.2-14.7c6.6,3.2,13.4,5.9,20.4,8L241.9,438.7z"/>
<path class="st0" d="M360.6,427.9l-7.6-14.5c6.5-3.4,12.7-7.3,18.6-11.6l9.7,13.2C374.8,419.8,367.8,424.1,360.6,427.9z"/>
<path class="st0" d="M198.1,417.4c-6.7-4.6-13-9.8-18.9-15.5l11.3-11.8c5.3,5,11,9.7,16.9,13.9L198.1,417.4z"/>
<path class="st0" d="M399.8,399l-11.6-11.5c5.1-5.2,9.9-10.8,14.2-16.7l13.3,9.6C410.9,387,405.5,393.2,399.8,399z"/>
<path class="st0" d="M162.9,383.8c-4.9-6.5-9.4-13.3-13.3-20.5l14.4-7.8c3.5,6.4,7.5,12.6,11.9,18.3L162.9,383.8z"/>
<path class="st0" d="M428.4,359.6l-14.6-7.4c3.3-6.5,6.1-13.3,8.4-20.2l15.6,5.1C435.3,344.7,432.1,352.3,428.4,359.6z"/>
<path class="st0" d="M139.6,341c-2.7-7.7-4.9-15.6-6.4-23.6l16.1-3.1c1.4,7.1,3.3,14.2,5.7,21.1L139.6,341z"/>
<path class="st0" d="M443.5,313.3l-16.2-2.6c0.9-5.4,1.4-10.8,1.7-16.3c0.1-1.8,0.1-3.7,0.1-5.5l16.4,0.1c0,2-0.1,4.1-0.2,6.2
	C445.1,301.2,444.5,307.3,443.5,313.3z"/>
<path class="st0" d="M130.5,293.2c-0.1-1.7-0.1-3.4-0.1-5.1c0-2.4,0.1-4.8,0.2-7.2c0.4-8.1,1.4-16.3,3-24.2l16.1,3.2
	c-1.4,7.1-2.3,14.4-2.7,21.7c-0.1,2.2-0.1,4.3-0.1,6.5c0,1.5,0,3,0.1,4.6L130.5,293.2z"/>
<path class="st0" d="M427.6,267c-1.1-7.2-2.7-14.4-4.9-21.3l15.6-4.9c2.4,7.8,4.3,15.8,5.5,23.8L427.6,267z"/>
<path class="st0" d="M155.6,238.9l-15.4-5.7c2.8-7.6,6.3-15.1,10.3-22.2l14.3,8C161.2,225.4,158.1,232,155.6,238.9z"/>
<path class="st0" d="M414.6,225.4c-3.2-6.5-7-12.8-11.2-18.8l13.4-9.5c4.7,6.6,8.9,13.7,12.5,21L414.6,225.4z"/>
<path class="st0" d="M177,200.8l-12.9-10.1c5-6.4,10.6-12.4,16.5-18l11.2,12C186.5,189.7,181.5,195.1,177,200.8z"/>
<path class="st0" d="M389.4,189.8c-5.1-5.2-10.6-10.1-16.4-14.5l9.9-13.1c6.5,4.9,12.6,10.3,18.3,16.2L389.4,189.8z"/>
<path class="st0" d="M208.9,171.1l-9.2-13.6c6.7-4.6,13.9-8.6,21.2-12.1l7,14.8C221.3,163.3,214.9,167,208.9,171.1z"/>
<path class="st0" d="M354.6,163.5c-6.4-3.4-13.2-6.4-20-8.8l5.4-15.5c7.7,2.7,15.2,6,22.4,9.8L354.6,163.5z"/>
<path class="st0" d="M248.3,152.5l-4.6-15.7c7.8-2.3,15.8-4,23.9-5l2.1,16.2C262.5,148.9,255.3,150.4,248.3,152.5z"/>
<path class="st0" d="M313.4,149.1c-6.2-1.1-12.6-1.9-19-2.1c-0.9,0-1.8-0.1-2.8-0.1l0.4-16.4c1,0,2.1,0.1,3.1,0.1
	c7.1,0.3,14.2,1.1,21.2,2.4L313.4,149.1z"/>
<path class="st0" d="M288.1,465c-2.8,0-5.6-0.1-8.3-0.2l0.8-16.8c8.2,0.4,16.6,0.1,24.8-0.8l1.8,16.7
	C300.9,464.6,294.4,465,288.1,465z"/>
<path class="st0" d="M252.6,461.3c-4.4-0.9-8.9-2-13.3-3.3c-8.8-2.5-17.4-5.7-25.7-9.5l7-15.3c7.5,3.5,15.3,6.4,23.3,8.6
	c4,1.1,8,2.1,12,3L252.6,461.3z"/>
<path class="st0" d="M334.2,458.8l-4.4-16.2c8-2.2,15.8-5,23.4-8.3l6.8,15.3C351.6,453.3,343,456.4,334.2,458.8z"/>
<path class="st0" d="M384.1,436.5l-9.1-14.1c6.9-4.5,13.6-9.5,19.7-15l11.2,12.5C399.1,426,391.8,431.6,384.1,436.5z"/>
<path class="st0" d="M189.7,435.1c-7.6-5.1-14.8-10.8-21.5-17l11.4-12.3c6.1,5.6,12.6,10.8,19.5,15.4L189.7,435.1z"/>
<path class="st0" d="M424.9,400.1l-13-10.7c5.2-6.4,10-13.2,14.2-20.4l14.5,8.5C436,385.5,430.7,393.1,424.9,400.1z"/>
<path class="st0" d="M149.5,398c-5.7-7.1-10.8-14.8-15.3-22.7l14.6-8.3c4.1,7.2,8.7,14.1,13.9,20.6L149.5,398z"/>
<path class="st0" d="M452.6,353l-15.6-6.2c1.9-4.8,3.6-9.7,5-14.7c0.9-3,1.6-6,2.3-9l16.4,3.7c-0.8,3.3-1.6,6.7-2.5,9.9
	C456.5,342.2,454.6,347.7,452.6,353z"/>
<path class="st0" d="M122.5,350.5c-3.2-8.5-5.8-17.4-7.7-26.3l16.4-3.4c1.7,8.1,4,16.1,7,23.8L122.5,350.5z"/>
<path class="st0" d="M464.6,299.6l-16.8-1.1c0.2-3.5,0.4-7.1,0.4-10.6c0-4.7-0.2-9.5-0.6-14.2l16.7-1.5c0.5,5.2,0.7,10.5,0.7,15.7
	C465,291.8,464.8,295.7,464.6,299.6z"/>
<path class="st0" d="M111.3,297c-0.1-2.9-0.2-5.9-0.2-8.9c0-6.2,0.3-12.4,1-18.5l16.7,1.8c-0.6,5.6-0.9,11.2-0.9,16.8
	c0,2.7,0.1,5.4,0.2,8L111.3,297z"/>
<path class="st0" d="M443.4,249.2c-2-8-4.7-15.9-7.9-23.5l15.5-6.5c3.6,8.4,6.5,17.2,8.7,26L443.4,249.2z"/>
<path class="st0" d="M133.3,246.9l-16.2-4.3c0.3-1.1,0.6-2.2,0.9-3.3c2.2-7.7,4.9-15.3,8.1-22.6l15.4,6.8
	c-2.9,6.6-5.4,13.5-7.4,20.4C133.8,244.9,133.5,245.9,133.3,246.9z"/>
<path class="st0" d="M424.1,203.7c-4.4-7-9.3-13.8-14.7-20l12.8-10.9c5.9,6.9,11.4,14.4,16.2,22.1L424.1,203.7z"/>
<path class="st0" d="M153.2,201.6l-14.2-9.1c4.9-7.7,10.5-15,16.6-21.9l12.6,11.2C162.6,188,157.6,194.6,153.2,201.6z"/>
<path class="st0" d="M391.9,166.1c-6.3-5.4-13-10.3-20.1-14.6l8.8-14.3c7.8,4.8,15.2,10.2,22.2,16.1L391.9,166.1z"/>
<path class="st0" d="M186,164.6l-10.7-13c7-5.8,14.6-11.1,22.4-15.8l8.6,14.5C199.2,154.5,192.4,159.3,186,164.6z"/>
<path class="st0" d="M349.7,140.2c-5.7-2.4-11.6-4.4-17.6-6.2c-2-0.6-4-1.1-6-1.6l4-16.3c2.2,0.5,4.4,1.1,6.6,1.8
	c6.6,1.9,13.1,4.2,19.4,6.8L349.7,140.2z"/>
<path class="st0" d="M228.6,139.3l-6.2-15.6c8.5-3.4,17.3-6.2,26.2-8.2l3.8,16.4C244.2,133.8,236.2,136.2,228.6,139.3z"/>
<path class="st0" d="M301.6,128.4c-8.2-0.7-16.6-0.8-24.8-0.2l-1.2-16.8c9.1-0.6,18.3-0.6,27.4,0.2L301.6,128.4z"/>
<path class="st0" d="M279,481.6c-5-0.2-10.1-0.7-15-1.3c-9.9-1.2-19.8-3.3-29.4-6l4.6-16.2c8.7,2.5,17.8,4.3,26.9,5.5
	c4.6,0.6,9.2,1,13.7,1.2L279,481.6z"/>
<path class="st0" d="M309.1,480.7l-1.8-16.7c9.1-1,18.1-2.7,26.9-5.1l4.4,16.2C328.9,477.7,319,479.6,309.1,480.7z"/>
<path class="st0" d="M366.9,465l-6.9-15.3c8.3-3.7,16.4-8.1,24.1-13.1l9.1,14.1C384.9,456.1,376,460.9,366.9,465z"/>
<path class="st0" d="M206.4,463.8c-9.1-4.2-17.9-9.2-26.2-14.7l9.4-14c7.6,5.1,15.6,9.6,23.9,13.4L206.4,463.8z"/>
<path class="st0" d="M417.1,432.5l-11.2-12.5c6.8-6.1,13.2-12.7,19-19.8l13,10.7C431.6,418.5,424.6,425.8,417.1,432.5z"/>
<path class="st0" d="M156.7,430.5c-7.3-6.8-14.2-14.2-20.4-22l13.2-10.4c5.7,7.2,12,13.9,18.7,20.1L156.7,430.5z"/>
<path class="st0" d="M455.1,386.2l-14.5-8.5c4.6-7.9,8.7-16.2,12-24.7l15.6,6.2C464.6,368.4,460.2,377.5,455.1,386.2z"/>
<path class="st0" d="M119.4,383.6c-4.9-8.7-9.2-17.8-12.8-27.2l15.7-5.9c3.2,8.5,7.1,16.9,11.7,24.8L119.4,383.6z"/>
<path class="st0" d="M477.1,330.4l-16.4-3.7c1.2-5.5,2.2-11.2,2.9-16.9c0.4-3.4,0.8-6.9,1-10.3l16.8,1.1c-0.2,3.8-0.6,7.5-1.1,11.3
	C479.5,318.2,478.4,324.4,477.1,330.4z"/>
<path class="st0" d="M98.3,327.6c-2-9.8-3.3-19.8-3.8-29.8l16.8-0.8c0.5,9.1,1.6,18.3,3.5,27.2L98.3,327.6z"/>
<path class="st0" d="M464.3,272.2c-0.8-9.1-2.3-18.2-4.5-27l16.3-4.1c2.4,9.7,4.1,19.7,5,29.6L464.3,272.2z"/>
<path class="st0" d="M112,269.5l-16.7-1.8c0.1-1.3,0.3-2.5,0.4-3.8c1.1-8.7,2.8-17.4,5-25.8l16.2,4.3c-2,7.7-3.6,15.6-4.6,23.6
	C112.3,267.2,112.1,268.4,112,269.5z"/>
<path class="st0" d="M451,219.1c-3.6-8.4-7.8-16.6-12.6-24.4l14.3-8.9c5.3,8.5,9.9,17.5,13.8,26.7L451,219.1z"/>
<path class="st0" d="M126,216.7l-15.4-6.8c4-9.1,8.8-18.1,14.2-26.5l14.1,9.1C134,200.2,129.7,208.3,126,216.7z"/>
<path class="st0" d="M422.2,172.7c-6-6.9-12.5-13.4-19.4-19.4l10.9-12.8c7.6,6.5,14.8,13.6,21.3,21.2L422.2,172.7z"/>
<path class="st0" d="M155.6,170.6L143,159.5c6.6-7.5,13.9-14.5,21.6-20.9l10.7,13C168.3,157.4,161.6,163.8,155.6,170.6z"/>
<path class="st0" d="M380.6,137.1c-7.8-4.8-16-9-24.4-12.5l6.5-15.5c9.2,3.8,18.2,8.5,26.8,13.7L380.6,137.1z"/>
<path class="st0" d="M197.7,135.8l-8.6-14.4c8.6-5.1,17.7-9.6,26.9-13.3l6.2,15.6C213.9,127,205.6,131.1,197.7,135.8z"/>
<path class="st0" d="M330.1,116.1c-6.6-1.6-13.4-2.9-20.2-3.7c-2.3-0.3-4.6-0.5-6.9-0.7l1.4-16.7c2.5,0.2,5,0.5,7.5,0.8
	c7.4,0.9,14.9,2.3,22.1,4.1L330.1,116.1z"/>
<path class="st0" d="M248.5,115.5l-3.8-16.4c9.7-2.2,19.7-3.7,29.7-4.4l1.2,16.8C266.5,112.1,257.4,113.4,248.5,115.5z"/>
<path class="st0" d="M290.8,500.3l-0.2-16.8c10.1-0.1,20.2-1,30.2-2.7l2.8,16.6C312.8,499.1,301.8,500.1,290.8,500.3z"/>
<path class="st0" d="M258,498.1c-4.1-0.6-8.2-1.3-12.2-2.1c-6.7-1.4-13.4-3.1-19.9-5l4.9-16.1c6,1.8,12.2,3.4,18.4,4.6
	c3.7,0.8,7.5,1.4,11.2,1.9L258,498.1z"/>
<path class="st0" d="M355.5,489.3l-5.4-15.9c9.5-3.2,18.9-7.2,27.9-11.9l7.7,14.9C376.1,481.5,365.9,485.8,355.5,489.3z"/>
<path class="st0" d="M195.3,479c-9.9-4.8-19.4-10.4-28.4-16.6l9.6-13.8c8.3,5.8,17.1,10.9,26.1,15.3L195.3,479z"/>
<path class="st0" d="M413.7,459l-9.9-13.5c8.1-6,15.9-12.6,23-19.8l11.9,11.8C430.9,445.3,422.5,452.5,413.7,459z"/>
<path class="st0" d="M141.4,441.5c-7.9-7.6-15.3-15.8-21.9-24.5l13.3-10.2c6.1,8,12.9,15.6,20.2,22.6L141.4,441.5z"/>
<path class="st0" d="M460,412.5l-13.6-9.9c5.9-8.2,11.2-16.9,15.8-25.8l15,7.6C472.2,394.2,466.4,403.6,460,412.5z"/>
<path class="st0" d="M101.5,389.4c-5.2-9.6-9.8-19.7-13.5-30l15.8-5.7c3.4,9.5,7.6,18.8,12.4,27.6L101.5,389.4z"/>
<path class="st0" d="M489.7,354l-16-5.2c2.3-7.2,4.3-14.5,5.8-22c0.5-2.5,1-5,1.4-7.5l16.6,2.7c-0.4,2.7-0.9,5.4-1.5,8.1
	C494.4,338.2,492.3,346.3,489.7,354z"/>
<path class="st0" d="M79.4,327.7c-2.1-10.8-3.3-21.8-3.6-32.7l16.8-0.5c0.3,10.1,1.4,20.2,3.3,30.1L79.4,327.7z"/>
<path class="st0" d="M500.3,289.3l-16.8-0.1l0-1.4c0-9.6-0.7-19.3-2.2-28.8l16.6-2.5c1.6,10.3,2.3,20.9,2.3,31.3L500.3,289.3z"/>
<path class="st0" d="M94,264.2l-16.7-2.1c0.7-5.4,1.6-10.9,2.7-16.3c2.2-10.8,5.2-21.4,9-31.6l15.8,5.8c-3.5,9.4-6.3,19.2-8.3,29.2
	C95.4,254.1,94.6,259.2,94,264.2z"/>
<path class="st0" d="M474.5,229.5c-3-9.6-6.8-19.1-11.3-28.1l15.1-7.5c4.9,9.8,9,20.1,12.3,30.5L474.5,229.5z"/>
<path class="st0" d="M117.4,192.5l-14.7-8.2c5.3-9.6,11.5-18.8,18.3-27.4l13.2,10.4C128,175.2,122.3,183.7,117.4,192.5z"/>
<path class="st0" d="M447.7,175.3c-5.8-8.2-12.3-16.1-19.3-23.3l12.1-11.7c7.6,7.9,14.7,16.4,21,25.3L447.7,175.3z"/>
<path class="st0" d="M154.7,145l-11.4-12.3c8-7.5,16.7-14.3,25.7-20.5l9.4,13.9C170.1,131.8,162.1,138.1,154.7,145z"/>
<path class="st0" d="M405.7,131.9c-8-6.1-16.6-11.6-25.5-16.3l7.9-14.8c9.7,5.2,19,11.1,27.7,17.7L405.7,131.9z"/>
<path class="st0" d="M204.8,111.1l-7.2-15.2c9.9-4.7,20.3-8.6,30.7-11.7l4.7,16.1C223.4,103.2,213.9,106.8,204.8,111.1z"/>
<path class="st0" d="M352.4,103.4c-8.3-2.9-16.9-5.2-25.6-7c-1.2-0.3-2.5-0.5-3.7-0.7l3-16.5c1.3,0.2,2.7,0.5,4.1,0.8
	c9.4,1.9,18.7,4.5,27.7,7.6L352.4,103.4z"/>
<path class="st0" d="M262.7,94.1l-2.2-16.7c10.8-1.4,21.9-2,32.9-1.7L293,92.6C282.8,92.3,272.7,92.8,262.7,94.1z"/>
<path class="st0" d="M288.2,520.6c-3.6,0-7.1-0.1-10.7-0.2c-7.5-0.3-15-1-22.3-2.1l2.4-16.6c6.8,1,13.8,1.6,20.7,1.9
	c4.2,0.2,8.4,0.3,12.7,0.2l0.2,16.8C290.2,520.6,289.2,520.6,288.2,520.6z"/>
<path class="st0" d="M327,517.4l-2.8-16.6c11-1.9,21.9-4.6,32.4-8.1l5.3,15.9C350.7,512.4,338.9,515.4,327,517.4z"/>
<path class="st0" d="M220,510.5c-11.5-3.5-22.8-7.9-33.6-13.2l7.3-15.1c10,4.9,20.5,9,31.1,12.2L220,510.5z"/>
<path class="st0" d="M395.2,494.5l-7.8-14.9c9.9-5.1,19.4-11.1,28.4-17.7l10,13.5C416.1,482.6,405.8,489,395.2,494.5z"/>
<path class="st0" d="M155.3,479.1c-9.8-6.9-19.2-14.5-27.9-22.8l11.6-12.1c8.1,7.7,16.8,14.8,25.9,21.2L155.3,479.1z"/>
<path class="st0" d="M453.1,451.9l-11.9-11.8c7.9-7.9,15.1-16.5,21.7-25.5l13.6,9.9C469.4,434.2,461.6,443.4,453.1,451.9z"/>
<path class="st0" d="M103.3,429.4c-7.3-9.5-13.9-19.7-19.7-30.2l14.8-8c5.3,9.8,11.5,19.2,18.2,28L103.3,429.4z"/>
<path class="st0" d="M495.3,393.7l-15-7.6c5.1-9.9,9.4-20.3,12.8-30.9l16,5.2C505.4,371.8,500.8,383,495.3,393.7z"/>
<path class="st0" d="M68.9,366.3c-4-11.3-7.2-23-9.5-34.8l16.5-3.1c2.1,10.9,5,21.8,8.8,32.3L68.9,366.3z"/>
<path class="st0" d="M517.6,325.3l-16.6-2.7c1.3-8.2,2.2-16.6,2.6-24.9c0.1-2.8,0.2-5.7,0.2-8.5l16.8,0.1c0,3-0.1,6.1-0.2,9.1
	C520,307.5,519.1,316.5,517.6,325.3z"/>
<path class="st0" d="M55.5,295.7c-0.1-2.5-0.1-5-0.1-7.5c0-3.5,0.1-7.1,0.2-10.7c0.5-12,2-24.1,4.4-35.8l16.5,3.3
	c-2.2,10.9-3.6,22-4.1,33.2c-0.1,3.3-0.2,6.6-0.2,9.9c0,2.3,0,4.7,0.1,7L55.5,295.7z"/>
<path class="st0" d="M501.5,255.9c-1.6-11-4.2-22-7.5-32.6l16-5c3.6,11.4,6.3,23.3,8.1,35.1L501.5,255.9z"/>
<path class="st0" d="M85.6,212.9L69.8,207c4.2-11.3,9.3-22.3,15.2-32.7l14.7,8.2C94.2,192.2,89.5,202.4,85.6,212.9z"/>
<path class="st0" d="M481.5,192.3c-4.9-10-10.7-19.6-17.1-28.7l13.7-9.7c6.9,9.8,13.1,20.2,18.5,31L481.5,192.3z"/>
<path class="st0" d="M118.2,154.7L105,144.3c7.4-9.4,15.6-18.4,24.4-26.5l11.4,12.3C132.7,137.6,125.1,145.9,118.2,154.7z"/>
<path class="st0" d="M443,137.8c-7.8-8-16.2-15.5-25.1-22.2l10.1-13.4c9.6,7.2,18.7,15.3,27,23.9L443,137.8z"/>
<path class="st0" d="M167.1,109.2l-9.4-13.9c9.9-6.7,20.5-12.7,31.3-17.9l7.2,15.2C186.1,97.4,176.3,103,167.1,109.2z"/>
<path class="st0" d="M389.8,97.6c-9.8-5.3-20.1-9.8-30.6-13.4l5.5-15.9c11.3,4,22.5,8.8,33,14.5L389.8,97.6z"/>
<path class="st0" d="M227.4,80.8l-4.7-16.1c11.5-3.4,23.4-5.9,35.3-7.4l2.2,16.7C249.1,75.4,238,77.7,227.4,80.8z"/>
<path class="st0" d="M326.8,75.7c-9.5-1.7-19.3-2.8-29.1-3.3c-1.4-0.1-2.8-0.1-4.2-0.2l0.4-16.8c1.5,0,3,0.1,4.6,0.2
	c10.5,0.5,21,1.7,31.3,3.5L326.8,75.7z"/>
<path class="st0" d="M291.4,543.1l-0.2-16.8c12.3-0.2,24.7-1.3,36.8-3.3l2.8,16.6C317.8,541.7,304.6,542.9,291.4,543.1z"/>
<path class="st0" d="M252,540.5c-4.9-0.7-9.8-1.6-14.6-2.5c-8.1-1.6-16.1-3.7-23.9-6.1l4.9-16.1c7.3,2.2,14.8,4.1,22.4,5.7
	c4.5,0.9,9.1,1.7,13.7,2.4L252,540.5z"/>
<path class="st0" d="M369.1,529.9l-5.4-15.9c11.6-3.9,23.1-8.8,34-14.5l7.7,14.9C393.8,520.5,381.6,525.7,369.1,529.9z"/>
<path class="st0" d="M176.6,517.5c-11.8-5.7-23.3-12.5-34.1-20l9.6-13.8c10.1,7,20.8,13.3,31.9,18.7L176.6,517.5z"/>
<path class="st0" d="M439.1,493.5l-9.9-13.5c9.9-7.3,19.3-15.4,28-24.1l11.9,11.8C459.8,477,449.7,485.7,439.1,493.5z"/>
<path class="st0" d="M111.8,472.5c-9.5-9.1-18.4-19-26.4-29.5l13.3-10.2c7.5,9.8,15.8,19,24.6,27.5L111.8,472.5z"/>
<path class="st0" d="M494.7,437.6l-13.6-9.9c7.2-10,13.7-20.6,19.3-31.5l15,7.6C509.3,415.6,502.4,426.9,494.7,437.6z"/>
<path class="st0" d="M63.9,409.9c-6.3-11.6-11.7-23.7-16.2-36.1l15.8-5.7c4.1,11.6,9.2,22.9,15.1,33.7L63.9,409.9z"/>
<path class="st0" d="M530.4,367.3l-16-5.2c2.8-8.7,5.2-17.7,7-26.8c0.6-3,1.2-6.1,1.7-9.1l16.6,2.7c-0.5,3.2-1.1,6.5-1.8,9.7
	C536,348.4,533.5,358,530.4,367.3z"/>
<path class="st0" d="M37.4,335.7c-2.5-12.9-3.9-26.2-4.3-39.3l16.8-0.5c0.4,12.3,1.8,24.6,4.1,36.7L37.4,335.7z"/>
<path class="st0" d="M543.1,289.5l-16.8-0.1c0-0.6,0-1.1,0-1.7c0-11.7-0.9-23.6-2.6-35.2l16.6-2.5c1.9,12.4,2.8,25.1,2.8,37.6
	C543.1,288.3,543.1,288.9,543.1,289.5z"/>
<path class="st0" d="M51.5,258.9l-16.7-2.1c0.8-6.5,1.9-13.1,3.2-19.5c2.6-12.9,6.3-25.7,10.8-38l15.8,5.8
	c-4.2,11.5-7.6,23.4-10.1,35.5C53.3,246.7,52.3,252.8,51.5,258.9z"/>
<path class="st0" d="M515.4,216.6c-3.7-11.7-8.3-23.2-13.8-34.3l15.1-7.5c5.8,11.8,10.8,24.1,14.8,36.7L515.4,216.6z"/>
<path class="st0" d="M80,171.6l-14.7-8.2c6.4-11.5,13.8-22.5,21.9-32.9l13.2,10.4C92.9,150.5,86,160.9,80,171.6z"/>
<path class="st0" d="M482.7,150.6c-7.1-10.1-15-19.6-23.6-28.5l12.1-11.7c9.1,9.5,17.6,19.7,25.2,30.5L482.7,150.6z"/>
<path class="st0" d="M125.5,113.7l-11.4-12.3c9.6-9,20-17.2,30.9-24.6l9.4,13.9C144.3,97.6,134.5,105.3,125.5,113.7z"/>
<path class="st0" d="M431.5,97.7c-9.8-7.4-20.3-14.1-31.1-19.9l7.9-14.8c11.6,6.2,22.8,13.4,33.3,21.3L431.5,97.7z"/>
<path class="st0" d="M186.5,72.4l-7.2-15.2c11.9-5.6,24.3-10.3,37-14l4.7,16.1C209.3,62.7,197.7,67.2,186.5,72.4z"/>
<path class="st0" d="M366.5,63c-10.1-3.5-20.6-6.4-31.2-8.5c-1.5-0.3-3-0.6-4.6-0.9l3-16.5c1.6,0.3,3.2,0.6,4.9,0.9
	c11.3,2.3,22.5,5.4,33.3,9.1L366.5,63z"/>
<path class="st0" d="M257.2,51.7L255,35c13-1.7,26.4-2.4,39.5-2L294,49.8C281.8,49.4,269.3,50.1,257.2,51.7z"/>
<path class="st0" d="M288.2,567.7c-4.2,0-8.6-0.1-12.8-0.3c-9-0.4-18-1.2-26.8-2.5l2.4-16.6c8.3,1.2,16.8,2,25.2,2.3
	c5.1,0.2,10.3,0.3,15.4,0.3l0.2,16.8C290.6,567.7,289.4,567.7,288.2,567.7z"/>
<path class="st0" d="M335,563.8l-2.8-16.6c13.4-2.3,26.7-5.6,39.5-9.9l5.3,15.9C363.3,557.9,349.2,561.4,335,563.8z"/>
<path class="st0" d="M206.2,555.6c-13.8-4.2-27.4-9.5-40.4-15.9l7.3-15.1c12.2,5.9,25,10.9,37.9,14.9L206.2,555.6z"/>
<path class="st0" d="M416.9,536.3l-7.8-14.9c12-6.2,23.6-13.5,34.6-21.5l10,13.5C442.1,522,429.7,529.7,416.9,536.3z"/>
<path class="st0" d="M128.4,517.8c-11.8-8.2-23.1-17.5-33.6-27.4l11.6-12.1c9.8,9.4,20.4,18.1,31.6,25.8L128.4,517.8z"/>
<path class="st0" d="M486.5,485.1l-11.9-11.8c9.6-9.6,18.5-20.1,26.4-31.1l13.6,9.9C506.1,463.7,496.7,474.8,486.5,485.1z"/>
<path class="st0" d="M65.9,458c-8.8-11.5-16.7-23.7-23.6-36.3l14.8-8c6.5,11.9,14,23.4,22.2,34.2L65.9,458z"/>
<path class="st0" d="M537.3,415.1l-15-7.6c6.2-12.1,11.4-24.8,15.6-37.6l16,5.2C549.4,388.7,543.8,402.2,537.3,415.1z"/>
<path class="st0" d="M24.5,382.2c-4.9-13.6-8.7-27.7-11.4-41.8l16.5-3.1c2.5,13.3,6.1,26.5,10.7,39.3L24.5,382.2z"/>
<path class="st0" d="M564.1,332.9l-16.6-2.7c1.6-10,2.7-20.2,3.1-30.3c0.2-3.4,0.2-6.9,0.3-10.3l16.8,0.1c0,3.6-0.1,7.3-0.3,10.9
	C567,311.4,565.8,322.3,564.1,332.9z"/>
<path class="st0" d="M8.4,297.2c-0.1-3-0.1-6-0.1-9c0-4.3,0.1-8.6,0.3-12.8c0.7-14.5,2.4-28.9,5.3-43l16.5,3.3
	c-2.7,13.2-4.3,26.9-5,40.5c-0.2,4-0.3,8.1-0.3,12.1c0,2.8,0,5.7,0.1,8.5L8.4,297.2z"/>
<path class="st0" d="M548.1,248.9c-2-13.4-5.1-26.8-9.1-39.7l16-5c4.3,13.8,7.6,28,9.7,42.3L548.1,248.9z"/>
<path class="st0" d="M41.4,196.5l-15.8-5.8c5-13.5,11.1-26.8,18.2-39.4l14.7,8.2C51.9,171.3,46.1,183.8,41.4,196.5z"/>
<path class="st0" d="M523.7,171.4c-6-12.1-13-23.9-20.9-35l13.7-9.7c8.3,11.8,15.8,24.3,22.2,37.2L523.7,171.4z"/>
<path class="st0" d="M81.2,125.6L68,115.2c8.9-11.3,18.8-22.1,29.4-31.9l11.4,12.3C98.9,104.8,89.6,114.9,81.2,125.6z"/>
<path class="st0" d="M476.9,105.1c-9.4-9.8-19.7-18.8-30.5-27l10.1-13.4c11.5,8.7,22.4,18.4,32.5,28.7L476.9,105.1z"/>
<path class="st0" d="M140.7,70.2l-9.4-13.9c12-8.1,24.6-15.3,37.7-21.5l7.2,15.2C163.8,55.8,151.9,62.6,140.7,70.2z"/>
<path class="st0" d="M412,56.1c-12-6.4-24.5-11.9-37.3-16.4l5.5-15.9c13.6,4.7,27,10.6,39.7,17.4L412,56.1z"/>
<path class="st0" d="M214.1,35.6l-4.7-16.1c13.8-4,28.1-7,42.4-8.9l2.2,16.7C240.6,29,227.1,31.8,214.1,35.6z"/>
<path class="st0" d="M335.3,29.3c-11.6-2.1-23.5-3.4-35.4-4c-1.7-0.1-3.4-0.1-5.2-0.2l0.4-16.8c1.8,0,3.6,0.1,5.5,0.2
	c12.6,0.6,25.3,2,37.6,4.2L335.3,29.3z"/>
<g>
	<path class="st0" d="M288.7,342l0-2.8c2.6,0,5.3-0.3,7.9-0.7l0.5,2.8C294.3,341.7,291.5,342,288.7,342z M280.4,341.5
		c-1-0.1-2.1-0.3-3.1-0.5c-1.7-0.3-3.4-0.8-5.1-1.3l0.8-2.7c1.6,0.5,3.2,0.9,4.8,1.2c1,0.2,2,0.4,2.9,0.5L280.4,341.5z M305.2,339.2
		l-0.9-2.7c2.5-0.8,5-1.9,7.3-3.1l1.3,2.5C310.4,337.2,307.8,338.3,305.2,339.2z M264.4,336.6c-2.5-1.2-4.9-2.6-7.2-4.2l1.6-2.3
		c2.2,1.5,4.5,2.9,6.9,4L264.4,336.6z M320,331.5l-1.7-2.3c2.1-1.6,4.2-3.3,6-5.2l2,2C324.4,328,322.2,329.9,320,331.5z
		 M250.7,327.1c-2-1.9-3.9-4-5.6-6.2l2.2-1.7c1.6,2.1,3.4,4.1,5.3,5.9L250.7,327.1z M331.8,319.7l-2.3-1.6c1.6-2.1,2.9-4.4,4.1-6.8
		l2.5,1.3C334.9,315,333.4,317.4,331.8,319.7z M240.5,313.8c-1.3-2.5-2.5-5-3.4-7.6l2.6-0.9c0.9,2.5,2,4.9,3.2,7.2L240.5,313.8z
		 M339.3,304.8l-2.7-0.9c0.6-1.9,1.1-3.8,1.5-5.8c0.1-0.7,0.3-1.3,0.4-2l2.8,0.5c-0.1,0.7-0.2,1.4-0.4,2.1
		C340.5,300.8,340,302.8,339.3,304.8z M234.9,298.1c-0.5-2.7-0.8-5.5-0.9-8.3l2.8-0.1c0.1,2.6,0.4,5.3,0.9,7.9L234.9,298.1z
		 M342,288.3l-2.8,0l0-0.4c0-2.5-0.2-5.1-0.6-7.6l2.8-0.4c0.4,2.6,0.6,5.3,0.6,8L342,288.3z M237.2,281.8l-2.8-0.3
		c0.2-1.4,0.4-2.8,0.7-4.1c0.6-2.7,1.3-5.4,2.3-8.1l2.6,1c-0.9,2.5-1.6,5-2.2,7.6C237.5,279.1,237.3,280.4,237.2,281.8z
		 M336.9,272.7c-0.8-2.5-1.8-5-3-7.4l2.5-1.2c1.2,2.5,2.3,5.1,3.1,7.8L336.9,272.7z M243.3,263l-2.4-1.4c1.4-2.4,2.9-4.8,4.6-7
		l2.2,1.7C246.1,258.5,244.6,260.7,243.3,263z M329.8,258.5c-1.5-2.2-3.2-4.2-5.1-6.1l2-1.9c1.9,2,3.7,4.2,5.3,6.4L329.8,258.5z
		 M253.1,250.5l-1.9-2c2-1.9,4.2-3.7,6.6-5.2l1.6,2.3C257.1,247.1,255,248.7,253.1,250.5z M318.8,247.1c-2.1-1.6-4.4-3-6.7-4.3
		l1.3-2.5c2.5,1.3,4.8,2.8,7.1,4.5L318.8,247.1z M266.2,241.7l-1.2-2.5c2.5-1.2,5.2-2.2,7.8-3l0.8,2.7
		C271.1,239.6,268.6,240.5,266.2,241.7z M304.9,239.6c-2.2-0.8-4.4-1.4-6.7-1.8c-0.3-0.1-0.7-0.1-1-0.2l0.5-2.8
		c0.3,0.1,0.7,0.1,1,0.2c2.4,0.5,4.8,1.1,7.1,1.9L304.9,239.6z M281.4,237.2l-0.4-2.8c2.8-0.4,5.6-0.5,8.4-0.4l-0.1,2.8
		C286.7,236.7,284,236.9,281.4,237.2z"/>
</g>
<g>
	<path class="st0" d="M288,347.3c-0.9,0-1.8,0-2.7-0.1c-1.9-0.1-3.8-0.3-5.7-0.5l0.4-2.8c1.8,0.3,3.6,0.4,5.4,0.5
		c0.9,0,1.7,0.1,2.6,0.1l0.7,0l0,2.8L288,347.3z M297.9,346.4l-0.5-2.8c2.9-0.5,5.7-1.2,8.5-2.1l0.9,2.7
		C304,345.2,301,345.9,297.9,346.4z M270.7,344.7c-2.9-0.9-5.8-2-8.6-3.4l1.2-2.5c2.6,1.3,5.4,2.4,8.2,3.2L270.7,344.7z
		 M315.3,340.6l-1.3-2.5c2.6-1.3,5.1-2.9,7.4-4.6l1.7,2.3C320.6,337.6,318,339.2,315.3,340.6z M254.2,336.7
		c-2.5-1.7-4.9-3.7-7.1-5.8l1.9-2c2.1,2,4.4,3.9,6.8,5.5L254.2,336.7z M330.1,329.8l-2-2c2.1-2.1,4-4.3,5.7-6.7l2.3,1.6
		C334.2,325.2,332.2,327.6,330.1,329.8z M240.9,324c-1.9-2.4-3.5-5-5-7.7l2.5-1.3c1.4,2.6,3,5,4.8,7.3L240.9,324z M340.8,314.9
		l-2.5-1.3c1.3-2.6,2.5-5.3,3.4-8.1l2.7,0.9C343.4,309.3,342.2,312.2,340.8,314.9z M232.2,308c-1-2.9-1.8-5.9-2.4-8.9l2.8-0.5
		c0.5,2.9,1.3,5.7,2.3,8.4L232.2,308z M346.5,297.5l-2.8-0.4c0.3-2.1,0.6-4.3,0.7-6.5c0-0.7,0.1-1.5,0.1-2.2l2.8,0
		c0,0.8,0,1.5-0.1,2.3C347.1,293,346.9,295.3,346.5,297.5z M228.8,290c0-0.6,0-1.3,0-1.9c0-0.9,0-1.8,0.1-2.7
		c0.1-3.1,0.5-6.1,1.1-9.1l2.7,0.6c-0.6,2.8-0.9,5.8-1.1,8.7c0,0.9-0.1,1.7-0.1,2.6c0,0.6,0,1.2,0,1.8L228.8,290z M343.9,279.6
		c-0.4-2.9-1.1-5.8-2-8.5l2.7-0.8c0.9,2.9,1.6,5.9,2.1,9L343.9,279.6z M235,268.3l-2.6-1c1.1-2.9,2.4-5.7,3.9-8.3l2.4,1.4
		C237.3,262.9,236.1,265.6,235,268.3z M338.6,263c-1.3-2.6-2.8-5.1-4.5-7.5l2.3-1.6c1.8,2.5,3.3,5.2,4.7,7.9L338.6,263z
		 M243.6,253.1l-2.2-1.7c1.9-2.4,4-4.7,6.2-6.8l1.9,2C247.4,248.7,245.4,250.8,243.6,253.1z M328.6,248.7c-2-2.1-4.2-4-6.6-5.8
		l1.7-2.2c2.4,1.8,4.8,3.9,6.9,6.1L328.6,248.7z M256.4,241.2l-1.6-2.3c2.5-1.7,5.2-3.2,8-4.5l1.2,2.5
		C261.3,238.1,258.8,239.6,256.4,241.2z M314.6,238.2c-2.6-1.4-5.3-2.6-8-3.5l0.9-2.6c2.9,1,5.7,2.2,8.4,3.7L314.6,238.2z
		 M272.1,233.8l-0.8-2.7c2.9-0.9,6-1.5,9-1.9l0.4,2.8C277.8,232.4,274.9,233,272.1,233.8z M298.2,232.4c-2.5-0.5-5.1-0.7-7.6-0.9
		c-0.4,0-0.7,0-1.1,0l0.1-2.8c0.4,0,0.8,0,1.2,0c2.7,0.1,5.4,0.4,8,0.9L298.2,232.4z"/>
</g>
<g>
	<path class="st0" d="M288.6,331.3l0-1.4c2.2,0,4.3-0.2,6.5-0.6l0.2,1.4C293.1,331.1,290.8,331.3,288.6,331.3z M281.9,330.9
		c-0.8-0.1-1.7-0.3-2.5-0.4c-1.4-0.3-2.7-0.6-4.1-1l0.4-1.3c1.3,0.4,2.6,0.7,3.9,1c0.8,0.2,1.6,0.3,2.4,0.4L281.9,330.9z
		 M301.8,329.1l-0.4-1.3c2-0.7,4.1-1.5,6-2.5l0.6,1.2C306,327.5,303.9,328.4,301.8,329.1z M269.1,327c-2-1-4-2.1-5.8-3.4l0.8-1.1
		c1.8,1.2,3.7,2.3,5.6,3.3L269.1,327z M313.7,322.9l-0.8-1.1c1.7-1.3,3.4-2.7,4.9-4.2l1,1C317.2,320.1,315.5,321.6,313.7,322.9z
		 M258.1,319.3c-1.6-1.5-3.1-3.2-4.5-5l1.1-0.8c1.3,1.7,2.8,3.3,4.3,4.8L258.1,319.3z M323.1,313.4l-1.1-0.8
		c1.3-1.8,2.4-3.6,3.4-5.5l1.2,0.6C325.6,309.7,324.4,311.6,323.1,313.4z M249.9,308.7c-1.1-2-2-4-2.7-6.1l1.3-0.5
		c0.7,2,1.6,4,2.7,5.9L249.9,308.7z M329.2,301.5l-1.3-0.4c0.5-1.5,0.9-3.1,1.2-4.7c0.1-0.5,0.2-1.1,0.3-1.6l1.4,0.2
		c-0.1,0.6-0.2,1.1-0.3,1.7C330.1,298.3,329.7,299.9,329.2,301.5z M245.4,296.1c-0.4-2.2-0.7-4.4-0.7-6.7l1.4,0
		c0.1,2.2,0.3,4.3,0.7,6.5L245.4,296.1z M331.3,288.3l-1.4,0l0-0.3c0-2.1-0.2-4.1-0.5-6.2l1.4-0.2c0.3,2.1,0.5,4.3,0.5,6.4
		L331.3,288.3z M246.4,282.9l-1.4-0.2c0.1-1.1,0.3-2.2,0.5-3.3c0.4-2.2,1.1-4.4,1.8-6.5l1.3,0.5c-0.7,2-1.3,4.1-1.8,6.2
		C246.7,280.7,246.5,281.8,246.4,282.9z M328,275.4c-0.6-2.1-1.5-4.1-2.4-6l1.3-0.6c1,2,1.8,4.1,2.5,6.2L328,275.4z M251.4,267.5
		l-1.2-0.7c1.1-1.9,2.3-3.8,3.7-5.6l1.1,0.9C253.7,263.8,252.5,265.6,251.4,267.5z M322.2,263.8c-1.2-1.8-2.6-3.5-4.1-5l1-1
		c1.6,1.6,3,3.3,4.3,5.2L322.2,263.8z M259.4,257.3l-1-1c1.6-1.5,3.4-2.9,5.3-4.2l0.8,1.2C262.7,254.5,261,255.9,259.4,257.3z
		 M313.2,254.5c-1.7-1.3-3.6-2.5-5.5-3.5l0.7-1.2c2,1.1,3.9,2.3,5.7,3.6L313.2,254.5z M270.1,250.1l-0.6-1.3c2-1,4.1-1.8,6.3-2.4
		l0.4,1.3C274.2,248.4,272.1,249.1,270.1,250.1z M301.8,248.4c-1.8-0.6-3.6-1.1-5.5-1.5c-0.3-0.1-0.5-0.1-0.8-0.2l0.3-1.4
		c0.3,0.1,0.5,0.1,0.8,0.2c1.9,0.4,3.8,0.9,5.7,1.6L301.8,248.4z M282.6,246.4l-0.2-1.4c2.2-0.3,4.5-0.4,6.7-0.3l0,1.4
		C286.9,246,284.7,246.1,282.6,246.4z"/>
</g>
<g>
	<path class="st0" d="M288.2,335.6c-0.8,0-1.6,0-2.3,0c-1.5-0.1-3.1-0.2-4.6-0.4l0.2-1.4c1.5,0.2,3,0.3,4.4,0.4c0.8,0,1.5,0.1,2.3,0
		c0.1,0,0.3,0,0.4,0l0,1.4C288.5,335.6,288.3,335.6,288.2,335.6z M296,334.9l-0.2-1.4c2.4-0.4,4.7-1,6.9-1.7l0.4,1.3
		C300.8,333.9,298.4,334.5,296,334.9z M274.1,333.5c-2.3-0.7-4.7-1.6-6.9-2.7l0.6-1.3c2.1,1,4.4,1.9,6.7,2.6L274.1,333.5z
		 M309.9,330.2l-0.6-1.2c2.1-1.1,4.2-2.4,6.1-3.8l0.8,1.1C314.2,327.8,312.1,329.1,309.9,330.2z M260.9,327.1c-2-1.4-3.9-3-5.7-4.7
		l1-1c1.7,1.6,3.6,3.2,5.5,4.5L260.9,327.1z M321.8,321.5l-1-1c1.7-1.7,3.2-3.5,4.6-5.5l1.1,0.8
		C325.1,317.9,323.5,319.8,321.8,321.5z M250.2,316.9c-1.5-2-2.8-4-4-6.2l1.2-0.7c1.1,2.1,2.5,4.1,3.9,6L250.2,316.9z M330.4,309.6
		l-1.2-0.6c1.1-2.1,2-4.3,2.7-6.6l1.3,0.4C332.5,305.1,331.5,307.4,330.4,309.6z M243.2,304c-0.8-2.3-1.5-4.7-1.9-7.1l1.4-0.3
		c0.4,2.3,1.1,4.7,1.9,6.9L243.2,304z M335,295.6l-1.4-0.2c0.3-1.8,0.5-3.5,0.5-5.3c0-0.6,0-1.2,0-1.8l1.4,0c0,0.6,0,1.2,0,1.9
		C335.4,292,335.3,293.8,335,295.6z M240.4,289.6c0-0.5,0-1,0-1.5c0-0.7,0-1.5,0.1-2.2c0.1-2.5,0.4-4.9,0.9-7.3l1.4,0.3
		c-0.5,2.3-0.8,4.7-0.9,7.1c0,0.7,0,1.4,0,2.1c0,0.5,0,1,0,1.5L240.4,289.6z M333.7,281.1c-0.4-2.4-0.9-4.7-1.6-7l1.3-0.4
		c0.7,2.3,1.3,4.8,1.7,7.2L333.7,281.1z M244.7,271.9l-1.3-0.5c0.9-2.3,1.9-4.6,3.1-6.7l1.2,0.7
		C246.5,267.5,245.5,269.7,244.7,271.9z M329.4,267.5c-1.1-2.1-2.3-4.2-3.7-6.1l1.1-0.8c1.4,2,2.7,4.1,3.8,6.3L329.4,267.5z
		 M251.7,259.5l-1.1-0.9c1.5-1.9,3.2-3.8,5-5.4l1,1C254.8,255.8,253.2,257.6,251.7,259.5z M321.2,255.9c-1.7-1.7-3.5-3.3-5.4-4.7
		l0.8-1.1c2,1.5,3.8,3.1,5.5,4.9L321.2,255.9z M262.1,249.7l-0.8-1.2c2-1.4,4.2-2.6,6.4-3.7l0.6,1.3
		C266.2,247.2,264.1,248.4,262.1,249.7z M309.8,247.3c-2.1-1.1-4.3-2.1-6.6-2.9l0.5-1.3c2.3,0.8,4.6,1.8,6.8,3L309.8,247.3z
		 M275,243.7l-0.4-1.3c2.4-0.7,4.8-1.2,7.2-1.5l0.2,1.4C279.7,242.5,277.3,243,275,243.7z M296.3,242.6c-2-0.4-4.1-0.6-6.2-0.7
		c-0.3,0-0.6,0-0.9,0l0-1.4c0.3,0,0.6,0,0.9,0c2.1,0.1,4.3,0.3,6.4,0.7L296.3,242.6z"/>
</g>
<g>
	<path class="st0" d="M288.5,322.9l0-0.7c1.8,0,3.5-0.2,5.3-0.5l0.1,0.7C292.1,322.7,290.3,322.9,288.5,322.9z M283.1,322.5
		c-0.7-0.1-1.3-0.2-2-0.3c-1.1-0.2-2.2-0.5-3.3-0.8l0.2-0.7c1.1,0.3,2.1,0.6,3.2,0.8c0.6,0.1,1.3,0.2,2,0.3L283.1,322.5z
		 M299.1,321.1l-0.2-0.7c1.7-0.6,3.3-1.3,4.9-2.1l0.3,0.6C302.5,319.8,300.8,320.5,299.1,321.1z M272.8,319.4
		c-1.6-0.8-3.2-1.7-4.7-2.7l0.4-0.6c1.4,1,3,1.9,4.6,2.7L272.8,319.4z M308.7,316.1l-0.4-0.6c1.4-1,2.8-2.2,4-3.5l0.5,0.5
		C311.5,313.8,310.1,315,308.7,316.1z M263.9,313.2c-1.3-1.2-2.5-2.6-3.6-4l0.6-0.4c1.1,1.4,2.3,2.7,3.5,3.9L263.9,313.2z
		 M316.3,308.5l-0.6-0.4c1-1.4,2-3,2.8-4.5l0.6,0.3C318.3,305.4,317.3,307,316.3,308.5z M257.4,304.7c-0.9-1.6-1.6-3.2-2.2-4.9
		l0.7-0.2c0.6,1.7,1.3,3.3,2.2,4.8L257.4,304.7z M321.1,298.8l-0.7-0.2c0.4-1.2,0.7-2.5,1-3.8c0.1-0.4,0.2-0.9,0.2-1.3l0.7,0.1
		c-0.1,0.4-0.2,0.9-0.2,1.3C321.9,296.3,321.6,297.6,321.1,298.8z M253.7,294.5c-0.3-1.8-0.5-3.6-0.6-5.4l0.7,0
		c0.1,1.8,0.3,3.5,0.6,5.3L253.7,294.5z M322.9,288.2l-0.7,0l0-0.2c0-1.7-0.1-3.4-0.4-5l0.7-0.1c0.3,1.7,0.4,3.4,0.4,5.1
		L322.9,288.2z M254.1,283.8l-0.7-0.1c0.1-0.9,0.3-1.8,0.4-2.7c0.4-1.8,0.9-3.5,1.5-5.2l0.7,0.2c-0.6,1.6-1.1,3.4-1.4,5.1
		C254.3,282.1,254.2,283,254.1,283.8z M320.6,277.8c-0.5-1.7-1.2-3.3-2-4.9l0.6-0.3c0.8,1.6,1.5,3.3,2,5L320.6,277.8z M258.2,271.3
		l-0.6-0.3c0.9-1.6,1.9-3.1,3-4.5l0.5,0.4C260,268.3,259,269.8,258.2,271.3z M315.9,268.3c-1-1.4-2.2-2.8-3.4-4.1l0.5-0.5
		c1.2,1.3,2.4,2.7,3.4,4.2L315.9,268.3z M264.7,263l-0.5-0.5c1.3-1.2,2.7-2.4,4.2-3.4l0.4,0.6C267.4,260.7,266,261.8,264.7,263z
		 M308.6,260.7c-1.4-1.1-2.9-2-4.5-2.9l0.3-0.6c1.6,0.8,3.1,1.8,4.6,2.9L308.6,260.7z M273.4,257.1l-0.3-0.6
		c1.6-0.8,3.3-1.4,5.1-1.9l0.2,0.7C276.7,255.7,275,256.3,273.4,257.1z M299.3,255.7c-1.4-0.5-3-0.9-4.5-1.2c-0.2,0-0.4-0.1-0.7-0.1
		l0.1-0.7c0.2,0,0.4,0.1,0.7,0.1c1.5,0.3,3.1,0.7,4.6,1.2L299.3,255.7z M283.6,254.1l-0.1-0.7c1.8-0.2,3.6-0.3,5.4-0.3l0,0.7
		C287.1,253.8,285.3,253.9,283.6,254.1z"/>
</g>
<g>
	<path class="st0" d="M288,326.3c-0.6,0-1.2,0-1.8,0c-1.2-0.1-2.5-0.2-3.7-0.3l0.1-0.7c1.2,0.2,2.4,0.3,3.6,0.3c0.6,0,1.2,0,1.7,0
		l0.5,0l0,0.7L288,326.3z M294.4,325.8l-0.1-0.7c1.9-0.3,3.8-0.8,5.7-1.4l0.2,0.7C298.3,325,296.4,325.5,294.4,325.8z M276.8,324.7
		c-1.9-0.6-3.8-1.3-5.5-2.2l0.3-0.6c1.7,0.8,3.6,1.6,5.4,2.1L276.8,324.7z M305.7,322l-0.3-0.6c1.7-0.9,3.4-1.9,4.9-3.1l0.4,0.6
		C309.1,320.1,307.4,321.1,305.7,322z M266.1,319.5c-1.6-1.1-3.2-2.4-4.6-3.8l0.5-0.5c1.4,1.3,2.9,2.6,4.5,3.7L266.1,319.5z
		 M315.2,315l-0.5-0.5c1.4-1.4,2.6-2.9,3.8-4.4l0.6,0.4C317.9,312.1,316.6,313.6,315.2,315z M257.6,311.3c-1.2-1.6-2.3-3.2-3.2-5
		l0.6-0.3c0.9,1.7,2,3.3,3.2,4.9L257.6,311.3z M322.1,305.4l-0.6-0.3c0.9-1.7,1.6-3.5,2.2-5.4l0.7,0.2
		C323.8,301.8,323,303.6,322.1,305.4z M251.9,300.9c-0.7-1.9-1.2-3.8-1.6-5.7l0.7-0.1c0.4,1.9,0.9,3.8,1.5,5.6L251.9,300.9z
		 M325.8,294.1l-0.7-0.1c0.2-1.4,0.4-2.9,0.4-4.3c0-0.5,0-1,0-1.5l0.7,0c0,0.5,0,1,0,1.5C326.2,291.2,326.1,292.7,325.8,294.1z
		 M249.7,289.3c0-0.4,0-0.8,0-1.2c0-0.6,0-1.2,0-1.8c0.1-2,0.3-4,0.7-5.9l0.7,0.1c-0.4,1.9-0.6,3.8-0.7,5.8c0,0.6,0,1.2,0,1.7
		c0,0.4,0,0.8,0,1.2L249.7,289.3z M325.2,282.4c-0.3-1.9-0.7-3.8-1.3-5.7l0.7-0.2c0.6,1.9,1,3.8,1.3,5.8L325.2,282.4z M252.7,274.9
		l-0.7-0.2c0.7-1.9,1.5-3.7,2.5-5.4l0.6,0.3C254.2,271.3,253.4,273.1,252.7,274.9z M321.7,271.3c-0.9-1.7-1.9-3.4-3-5l0.6-0.4
		c1.1,1.6,2.2,3.3,3,5.1L321.7,271.3z M258.4,264.8l-0.5-0.4c1.2-1.6,2.6-3,4-4.4l0.5,0.5C260.9,261.8,259.6,263.2,258.4,264.8z
		 M315,261.8c-1.4-1.4-2.8-2.7-4.4-3.9l0.4-0.6c1.6,1.2,3.1,2.5,4.4,3.9L315,261.8z M266.9,256.8l-0.4-0.6c1.6-1.1,3.4-2.1,5.2-2.9
		l0.3,0.6C270.2,254.8,268.5,255.7,266.9,256.8z M305.7,254.8c-1.7-0.9-3.5-1.7-5.3-2.3l0.2-0.7c1.9,0.7,3.7,1.5,5.4,2.4
		L305.7,254.8z M277.4,251.9l-0.2-0.7c1.9-0.6,3.9-1,5.8-1.2l0.1,0.7C281.2,250.9,279.3,251.3,277.4,251.9z M294.8,251
		c-1.7-0.3-3.4-0.5-5.1-0.6c-0.2,0-0.5,0-0.7,0l0-0.7c0.3,0,0.5,0,0.8,0c1.7,0.1,3.5,0.3,5.2,0.6L294.8,251z"/>
</g>
<g>
	<path class="st0" d="M288.4,316.1l0-0.3c1.4,0,2.9-0.1,4.3-0.4l0.1,0.3C291.3,316,289.8,316.1,288.4,316.1z M284,315.9
		c-0.5-0.1-1.1-0.2-1.6-0.3c-0.9-0.2-1.8-0.4-2.6-0.7l0.1-0.3c0.8,0.3,1.7,0.5,2.6,0.7c0.5,0.1,1.1,0.2,1.6,0.3L284,315.9z
		 M297,314.7l-0.1-0.3c1.4-0.5,2.7-1,4-1.7l0.2,0.3C299.7,313.6,298.3,314.2,297,314.7z M275.7,313.3c-1.3-0.6-2.6-1.4-3.8-2.2
		l0.2-0.3c1.2,0.8,2.4,1.5,3.7,2.2L275.7,313.3z M304.7,310.7l-0.2-0.3c1.2-0.9,2.3-1.8,3.3-2.8l0.2,0.2
		C306.9,308.9,305.8,309.8,304.7,310.7z M268.6,308.4c-1-1-2-2.1-2.9-3.2l0.3-0.2c0.9,1.1,1.8,2.2,2.9,3.2L268.6,308.4z
		 M310.8,304.5l-0.3-0.2c0.8-1.2,1.6-2.4,2.2-3.7l0.3,0.2C312.4,302.1,311.6,303.3,310.8,304.5z M263.3,301.4
		c-0.7-1.3-1.3-2.6-1.8-4l0.3-0.1c0.5,1.3,1.1,2.7,1.8,3.9L263.3,301.4z M314.7,296.8l-0.3-0.1c0.3-1,0.6-2.1,0.8-3.1
		c0.1-0.4,0.1-0.7,0.2-1.1l0.3,0.1c-0.1,0.4-0.1,0.7-0.2,1.1C315.4,294.7,315.1,295.7,314.7,296.8z M260.4,293.3
		c-0.3-1.4-0.4-2.9-0.5-4.3l0.3,0c0,1.4,0.2,2.9,0.5,4.3L260.4,293.3z M316.1,288.2l-0.3,0l0-0.2c0-1.4-0.1-2.8-0.3-4.1l0.3-0.1
		c0.2,1.4,0.3,2.8,0.3,4.2L316.1,288.2z M260.4,284.6l-0.3,0c0.1-0.7,0.2-1.4,0.4-2.2c0.3-1.4,0.7-2.8,1.2-4.2l0.3,0.1
		c-0.5,1.3-0.9,2.7-1.2,4.1C260.6,283.2,260.5,283.9,260.4,284.6z M314.5,279.7c-0.4-1.4-1-2.7-1.6-4l0.3-0.2c0.6,1.3,1.2,2.7,1.6,4
		L314.5,279.7z M263.7,274.4l-0.3-0.2c0.7-1.3,1.5-2.5,2.4-3.6l0.3,0.2C265.2,272,264.4,273.2,263.7,274.4z M310.7,272
		c-0.8-1.2-1.8-2.3-2.7-3.3l0.3-0.2c1,1,1.9,2.2,2.8,3.4L310.7,272z M269.1,267.7l-0.2-0.3c1.1-1,2.2-1.9,3.4-2.7l0.2,0.3
		C271.2,265.8,270.1,266.7,269.1,267.7z M304.7,265.8c-1.1-0.9-2.4-1.6-3.6-2.3l0.2-0.3c1.3,0.7,2.5,1.5,3.7,2.3L304.7,265.8z
		 M276.2,262.9l-0.1-0.3c1.3-0.6,2.7-1.1,4.1-1.5l0.1,0.3C278.8,261.7,277.5,262.2,276.2,262.9z M297.2,261.8
		c-1.2-0.4-2.4-0.7-3.6-1c-0.2,0-0.4-0.1-0.5-0.1l0.1-0.3c0.2,0,0.4,0.1,0.5,0.1c1.2,0.3,2.5,0.6,3.7,1L297.2,261.8z M284.4,260.4
		l0-0.3c1.2-0.2,2.4-0.2,3.6-0.2c0.3,0,0.5,0,0.8,0l0,0.3c-0.2,0-0.5,0-0.7,0c0,0,0,0,0,0C286.8,260.2,285.6,260.3,284.4,260.4z"/>
</g>
<g>
	<path class="st0" d="M288.1,318.9c-0.5,0-1,0-1.5,0c-1,0-2-0.1-3-0.3l0-0.3c1,0.1,1.9,0.2,2.9,0.3c0.5,0,1,0,1.5,0
		c0.1,0,0.2,0,0.3,0l0,0.3C288.3,318.9,288.2,318.9,288.1,318.9z M293.2,318.5l-0.1-0.3c1.6-0.3,3.1-0.7,4.6-1.2l0.1,0.3
		C296.3,317.8,294.8,318.2,293.2,318.5z M279,317.6c-1.5-0.5-3-1.1-4.5-1.8l0.2-0.3c1.4,0.7,2.9,1.3,4.4,1.7L279,317.6z
		 M302.3,315.5l-0.2-0.3c1.4-0.7,2.8-1.6,4-2.5l0.2,0.3C305,313.9,303.7,314.7,302.3,315.5z M270.4,313.4c-1.3-0.9-2.6-1.9-3.7-3
		l0.2-0.3c1.1,1.1,2.4,2.1,3.7,3L270.4,313.4z M310,309.8l-0.2-0.2c1.1-1.1,2.1-2.3,3.1-3.6l0.3,0.2
		C312.1,307.4,311.1,308.7,310,309.8z M263.4,306.8c-1-1.3-1.8-2.6-2.6-4l0.3-0.2c0.8,1.4,1.6,2.7,2.6,4L263.4,306.8z M315.6,302.1
		l-0.3-0.2c0.7-1.4,1.3-2.9,1.8-4.4l0.3,0.1C316.9,299.1,316.3,300.6,315.6,302.1z M258.9,298.4c-0.5-1.5-1-3.1-1.3-4.6l0.3-0.1
		c0.3,1.6,0.7,3.1,1.2,4.6L258.9,298.4z M318.5,293l-0.3-0.1c0.2-1.2,0.3-2.3,0.4-3.5c0-0.4,0-0.8,0-1.2l0.3,0c0,0.4,0,0.8,0,1.2
		C318.8,290.6,318.7,291.8,318.5,293z M257.1,289c0-0.3,0-0.7,0-1c0-0.5,0-0.9,0-1.4c0.1-1.6,0.3-3.2,0.6-4.8l0.3,0.1
		c-0.3,1.5-0.5,3.1-0.6,4.7c0,0.5,0,0.9,0,1.4c0,0.3,0,0.7,0,1L257.1,289z M318.2,283.5c-0.2-1.6-0.6-3.1-1.1-4.6l0.3-0.1
		c0.5,1.5,0.8,3.1,1.1,4.7L318.2,283.5z M259.3,277.4l-0.3-0.1c0.6-1.5,1.2-3,2-4.4l0.3,0.2C260.5,274.4,259.9,275.9,259.3,277.4z
		 M315.4,274.4c-0.7-1.4-1.5-2.8-2.4-4.1l0.3-0.2c0.9,1.3,1.7,2.7,2.5,4.1L315.4,274.4z M263.9,269.1l-0.3-0.2
		c1-1.3,2.1-2.4,3.2-3.5l0.2,0.3C266,266.7,264.9,267.9,263.9,269.1z M310,266.7c-1.1-1.1-2.3-2.2-3.5-3.1l0.2-0.3
		c1.3,1,2.5,2,3.6,3.2L310,266.7z M270.9,262.7l-0.2-0.3c1.3-0.9,2.7-1.7,4.2-2.4l0.1,0.3C273.6,261,272.2,261.8,270.9,262.7z
		 M302.4,261c-1.4-0.7-2.9-1.4-4.3-1.9l0.1-0.3c1.5,0.5,3,1.2,4.4,1.9L302.4,261z M279.4,258.6l-0.1-0.3c1.5-0.4,3.1-0.8,4.7-1
		l0,0.3C282.5,257.9,280.9,258.2,279.4,258.6z M293.5,257.9c-1.3-0.2-2.7-0.4-4.1-0.5c-0.2,0-0.4,0-0.6,0l0-0.3c0.2,0,0.4,0,0.6,0
		c1.4,0.1,2.8,0.2,4.2,0.5L293.5,257.9z"/>
</g>
</svg>
