<?xml version="1.0" encoding="utf-8"?>
<!-- Generator: Adobe Illustrator 23.0.0, SVG Export Plug-In . SVG Version: 6.00 Build 0)  -->
<svg version="1.1" id="Layer_1" xmlns="http://www.w3.org/2000/svg" xmlns:xlink="http://www.w3.org/1999/xlink" x="0px" y="0px"
	 viewBox="0 0 1920 1080" style="enable-background:new 0 0 1920 1080;" xml:space="preserve">
<style type="text/css">
	.st0{fill:none;stroke:#FFFFFF;stroke-width:7.0401;stroke-miterlimit:10;}
	.st1{fill:none;stroke:#FFFFFF;stroke-width:1.76;stroke-miterlimit:10;}
	.st2{fill:none;stroke:#FFFFFF;stroke-width:0.88;stroke-miterlimit:10;}
	.st3{fill:none;stroke:#FFFFFF;stroke-width:14.0801;stroke-miterlimit:10;}
</style>
<polyline class="st0" points="185.9,343.7 263.8,421.6 653.2,421.6 862.5,212.4 1304.4,212.4 1500.3,408.2 "/>
<path class="st1" d="M309.1,378.6c11.6,0,132.1-132.1,132.1-132.1h235.3l47.4,47.4"/>
<polyline class="st1" points="783.4,355.3 822,393.8 1286.8,393.8 1355.5,325.2 "/>
<polyline class="st1" points="1415.9,262.3 1490.6,187.6 1748.4,187.6 "/>
<g>
	<polyline class="st2" points="141.7,234.4 295.2,234.4 347.5,286.8 	"/>
	<line class="st2" x1="395.1" y1="325.2" x2="460.2" y2="390.3"/>
	<polyline class="st2" points="516.5,460 580.9,524.4 898.5,524.4 982.5,440.4 	"/>
	<line class="st2" x1="1057.8" y1="359.5" x2="1167.6" y2="249.7"/>
	<polyline class="st2" points="1220.6,187.6 1292.6,115.6 1827.4,115.6 	"/>
</g>
<polyline class="st0" points="97.5,286.8 260.3,286.8 303.9,330.4 "/>
<line class="st0" x1="347.5" y1="378.6" x2="367.2" y2="398.3"/>
<polyline class="st0" points="395.1,453 426.1,484 495.1,484 "/>
<polyline class="st0" points="561.7,482.4 831.4,482.4 884.2,429.6 "/>
<line class="st0" x1="920.6" y1="359.5" x2="1031.8" y2="248.4"/>
<polyline class="st0" points="1057.8,174 1080.6,151.2 1220.6,151.2 "/>
<line class="st0" x1="1268.1" y1="151.6" x2="1840.1" y2="151.6"/>
<polyline class="st0" points="1751.7,783.7 1673.8,861.6 1284.4,861.6 1075.1,652.4 633.2,652.4 437.3,848.2 "/>
<path class="st1" d="M1628.5,818.6c-11.6,0-132.1-132.1-132.1-132.1h-235.3l-47.4,47.4"/>
<polyline class="st1" points="1154.2,795.3 1115.6,833.8 650.8,833.8 582.1,765.2 "/>
<polyline class="st1" points="521.7,702.3 447,627.6 189.2,627.6 "/>
<g>
	<polyline class="st2" points="1795.9,674.4 1642.4,674.4 1590.1,726.8 	"/>
	<line class="st2" x1="1542.5" y1="765.2" x2="1477.4" y2="830.3"/>
	<polyline class="st2" points="1421.1,900 1356.7,964.4 1039.1,964.4 955.1,880.4 	"/>
	<line class="st2" x1="879.8" y1="799.5" x2="770" y2="689.7"/>
	<polyline class="st2" points="717,627.6 645,555.6 110.2,555.6 	"/>
</g>
<polyline class="st0" points="1840.1,726.8 1677.3,726.8 1633.7,770.4 "/>
<line class="st0" x1="1590.1" y1="818.6" x2="1570.4" y2="838.3"/>
<polyline class="st0" points="1542.5,893 1511.5,924 1442.5,924 "/>
<polyline class="st0" points="1375.9,922.4 1106.2,922.4 1053.4,869.6 "/>
<line class="st0" x1="1017" y1="799.5" x2="905.8" y2="688.4"/>
<polyline class="st0" points="879.8,614 857,591.2 717,591.2 "/>
<line class="st0" x1="651.9" y1="591.6" x2="79.9" y2="591.6"/>
<polyline class="st0" points="185.9,343.7 263.8,421.6 653.2,421.6 862.5,212.4 1304.4,212.4 1500.3,408.2 "/>
<path class="st1" d="M309.1,378.6c11.6,0,132.1-132.1,132.1-132.1h235.3l47.4,47.4"/>
<polyline class="st1" points="783.4,355.3 822,393.8 1286.8,393.8 1355.5,325.2 "/>
<polyline class="st1" points="1415.9,262.3 1490.6,187.6 1748.4,187.6 "/>
<g>
	<polyline class="st2" points="141.7,234.4 295.2,234.4 347.5,286.8 	"/>
	<line class="st2" x1="395.1" y1="325.2" x2="460.2" y2="390.3"/>
	<polyline class="st2" points="516.5,460 580.9,524.4 898.5,524.4 982.5,440.4 	"/>
	<line class="st2" x1="1057.8" y1="359.5" x2="1167.6" y2="249.7"/>
	<polyline class="st2" points="1220.6,187.6 1292.6,115.6 1827.4,115.6 	"/>
</g>
<polyline class="st0" points="97.5,286.8 260.3,286.8 303.9,330.4 "/>
<line class="st0" x1="347.5" y1="378.6" x2="367.2" y2="398.3"/>
<polyline class="st0" points="395.1,453 426.1,484 495.1,484 "/>
<polyline class="st0" points="561.7,482.4 831.4,482.4 884.2,429.6 "/>
<line class="st0" x1="920.6" y1="359.5" x2="1031.8" y2="248.4"/>
<polyline class="st0" points="1057.8,174 1080.6,151.2 1220.6,151.2 "/>
<polyline class="st3" points="1751.7,783.7 1673.8,861.6 1284.4,861.6 1075.1,652.4 633.2,652.4 437.3,848.2 79.9,848.2 "/>
<path class="st1" d="M1628.5,818.6c-11.6,0-132.1-132.1-132.1-132.1h-235.3l-47.4,47.4"/>
<polyline class="st1" points="1154.2,795.3 1115.6,833.8 650.8,833.8 582.1,765.2 "/>
<polyline class="st1" points="521.7,702.3 447,627.6 189.2,627.6 "/>
<g>
	<polyline class="st2" points="1795.9,674.4 1642.4,674.4 1590.1,726.8 	"/>
	<line class="st2" x1="1542.5" y1="765.2" x2="1477.4" y2="830.3"/>
	<polyline class="st2" points="1421.1,900 1356.7,964.4 1039.1,964.4 955.1,880.4 	"/>
	<line class="st2" x1="879.8" y1="799.5" x2="770" y2="689.7"/>
	<polyline class="st2" points="717,627.6 645,555.6 110.2,555.6 	"/>
</g>
<polyline class="st0" points="1840.1,726.8 1677.3,726.8 1633.7,770.4 "/>
<line class="st0" x1="1590.1" y1="818.6" x2="1570.4" y2="838.3"/>
<polyline class="st0" points="1542.5,893 1511.5,924 1442.5,924 "/>
<polyline class="st0" points="1375.9,922.4 1106.2,922.4 1053.4,869.6 "/>
<line class="st0" x1="1017" y1="799.5" x2="905.8" y2="688.4"/>
<polyline class="st0" points="879.8,614 857,591.2 717,591.2 "/>
<line class="st0" x1="651.9" y1="591.6" x2="79.9" y2="591.6"/>
</svg>
