<?xml version="1.0" encoding="utf-8"?>
<!-- Generator: Adobe Illustrator 23.0.0, SVG Export Plug-In . SVG Version: 6.00 Build 0)  -->
<svg version="1.1" id="Layer_1" xmlns="http://www.w3.org/2000/svg" xmlns:xlink="http://www.w3.org/1999/xlink" x="0px" y="0px"
	 viewBox="0 0 1920 1080" style="enable-background:new 0 0 1920 1080;" xml:space="preserve">
<style type="text/css">
	.st0{fill:none;stroke:#FFFFFF;stroke-width:2.8929;stroke-miterlimit:10;}
	.st1{fill:none;stroke:#FFFFFF;stroke-width:9.6326;stroke-miterlimit:10;}
	.st2{fill:none;stroke:#FFFFFF;stroke-width:14.4489;stroke-miterlimit:10;}
	.st3{fill:none;stroke:#FFFFFF;stroke-width:7.7061;stroke-miterlimit:10;}
	.st4{fill:none;stroke:#FFFFFF;stroke-width:19.2652;stroke-miterlimit:10;}
	.st5{fill:none;stroke:#FFFFFF;stroke-width:4.8163;stroke-miterlimit:10;}
	.st6{fill:none;stroke:#FFFFFF;stroke-width:6.7428;stroke-miterlimit:10;}
	.st7{fill:none;stroke:#FFFFFF;stroke-width:8.6694;stroke-miterlimit:10;}
</style>
<path class="st0" d="M62,80v52.5c0,13.3,5.3,26.1,14.7,35.5l80.6,80.6c9.4,9.4,14.7,22.2,14.7,35.5v98.3c0,13.3,5.3,26.1,14.7,35.5
	l51.6,51.6c9.4,9.4,14.7,22.2,14.7,35.5v56.8c0,13.3-5.3,26.1-14.7,35.5L60.3,775c-9.4,9.4-14.7,22.2-14.7,35.5v176.9"/>
<path class="st1" d="M100.5,80v52.5c0,13.3,5.3,26.1,14.7,35.5l80.6,80.6c9.4,9.4,14.7,22.2,14.7,35.5v98.3
	c0,13.3,5.3,26.1,14.7,35.5l51.6,51.6c9.4,9.4,14.7,22.2,14.7,35.5v56.8c0,13.3-5.3,26.1-14.7,35.5L98.8,775
	c-9.4,9.4-14.7,22.2-14.7,35.5v176.9"/>
<path class="st2" d="M139.1,80v52.5c0,13.3,5.3,26.1,14.7,35.5l80.6,80.6c9.4,9.4,14.7,22.2,14.7,35.5v98.3
	c0,13.3,5.3,26.1,14.7,35.5l51.6,51.6c9.4,9.4,14.7,22.2,14.7,35.5v56.8c0,13.3-5.3,26.1-14.7,35.5L137.4,775
	c-9.4,9.4-14.7,22.2-14.7,35.5v176.9"/>
<path class="st0" d="M177.6,80v52.5c0,13.3,5.3,26.1,14.7,35.5l80.6,80.6c9.4,9.4,14.7,22.2,14.7,35.5v98.3
	c0,13.3,5.3,26.1,14.7,35.5l51.6,51.6c9.4,9.4,14.7,22.2,14.7,35.5v56.8c0,13.3-5.3,26.1-14.7,35.5L175.9,775
	c-9.4,9.4-14.7,22.2-14.7,35.5v176.9"/>
<path class="st3" d="M216.1,80v52.5c0,13.3,5.3,26.1,14.7,35.5l80.6,80.6c9.4,9.4,14.7,22.2,14.7,35.5v98.3
	c0,13.3,5.3,26.1,14.7,35.5l51.6,51.6c9.4,9.4,14.7,22.2,14.7,35.5v56.8c0,13.3-5.3,26.1-14.7,35.5L214.4,775
	c-9.4,9.4-14.7,22.2-14.7,35.5v176.9"/>
<path class="st4" d="M254.7,80v52.5c0,13.3,5.3,26.1,14.7,35.5l80.6,80.6c9.4,9.4,14.7,22.2,14.7,35.5v98.3
	c0,13.3,5.3,26.1,14.7,35.5l51.6,51.6c9.4,9.4,14.7,22.2,14.7,35.5v56.8c0,13.3-5.3,26.1-14.7,35.5L253,775
	c-9.4,9.4-14.7,22.2-14.7,35.5v176.9"/>
<path class="st5" d="M293.2,80v52.5c0,13.3,5.3,26.1,14.7,35.5l80.6,80.6c9.4,9.4,14.7,22.2,14.7,35.5v98.3
	c0,13.3,5.3,26.1,14.7,35.5l51.6,51.6c9.4,9.4,14.7,22.2,14.7,35.5v56.8c0,13.3-5.3,26.1-14.7,35.5L291.5,775
	c-9.4,9.4-14.7,22.2-14.7,35.5v176.9"/>
<path class="st1" d="M331.7,80v52.5c0,13.3,5.3,26.1,14.7,35.5l80.6,80.6c9.4,9.4,14.7,22.2,14.7,35.5v98.3
	c0,13.3,5.3,26.1,14.7,35.5l51.6,51.6c9.4,9.4,14.7,22.2,14.7,35.5v56.8c0,13.3-5.3,26.1-14.7,35.5L330,775
	c-9.4,9.4-14.7,22.2-14.7,35.5v176.9"/>
<path class="st2" d="M370.3,80v52.5c0,13.3,5.3,26.1,14.7,35.5l80.6,80.6c9.4,9.4,14.7,22.2,14.7,35.5v98.3
	c0,13.3,5.3,26.1,14.7,35.5l51.6,51.6c9.4,9.4,14.7,22.2,14.7,35.5v56.8c0,13.3-5.3,26.1-14.7,35.5L368.6,775
	c-9.4,9.4-14.7,22.2-14.7,35.5v176.9"/>
<path class="st0" d="M408.8,80v52.5c0,13.3,5.3,26.1,14.7,35.5l80.6,80.6c9.4,9.4,14.7,22.2,14.7,35.5v98.3
	c0,13.3,5.3,26.1,14.7,35.5l51.6,51.6c9.4,9.4,14.7,22.2,14.7,35.5v56.8c0,13.3-5.3,26.1-14.7,35.5L407.1,775
	c-9.4,9.4-14.7,22.2-14.7,35.5v176.9"/>
<path class="st6" d="M447.3,80v52.5c0,13.3,5.3,26.1,14.7,35.5l80.6,80.6c9.4,9.4,14.7,22.2,14.7,35.5v98.3
	c0,13.3,5.3,26.1,14.7,35.5l51.6,51.6c9.4,9.4,14.7,22.2,14.7,35.5v56.8c0,13.3-5.3,26.1-14.7,35.5L445.6,775
	c-9.4,9.4-14.7,22.2-14.7,35.5v176.9"/>
<path class="st1" d="M485.8,80v52.5c0,13.3,5.3,26.1,14.7,35.5l80.6,80.6c9.4,9.4,14.7,22.2,14.7,35.5v98.3
	c0,13.3,5.3,26.1,14.7,35.5l51.6,51.6c9.4,9.4,14.7,22.2,14.7,35.5v56.8c0,13.3-5.3,26.1-14.7,35.5L484.1,775
	c-9.4,9.4-14.7,22.2-14.7,35.5v176.9"/>
<path class="st0" d="M524.4,80v52.5c0,13.3,5.3,26.1,14.7,35.5l80.6,80.6c9.4,9.4,14.7,22.2,14.7,35.5v98.3
	c0,13.3,5.3,26.1,14.7,35.5l51.6,51.6c9.4,9.4,14.7,22.2,14.7,35.5v56.8c0,13.3-5.3,26.1-14.7,35.5L522.7,775
	c-9.4,9.4-14.7,22.2-14.7,35.5v176.9"/>
<path class="st2" d="M562.9,80v52.5c0,13.3,5.3,26.1,14.7,35.5l80.6,80.6c9.4,9.4,14.7,22.2,14.7,35.5v98.3
	c0,13.3,5.3,26.1,14.7,35.5l51.6,51.6c9.4,9.4,14.7,22.2,14.7,35.5v56.8c0,13.3-5.3,26.1-14.7,35.5L561.2,775
	c-9.4,9.4-14.7,22.2-14.7,35.5v176.9"/>
<path class="st5" d="M601.4,80v52.5c0,13.3,5.3,26.1,14.7,35.5l80.6,80.6c9.4,9.4,14.7,22.2,14.7,35.5v98.3
	c0,13.3,5.3,26.1,14.7,35.5l51.6,51.6c9.4,9.4,14.7,22.2,14.7,35.5v56.8c0,13.3-5.3,26.1-14.7,35.5L599.7,775
	c-9.4,9.4-14.7,22.2-14.7,35.5v176.9"/>
<path class="st0" d="M640,80v52.5c0,13.3,5.3,26.1,14.7,35.5l80.6,80.6c9.4,9.4,14.7,22.2,14.7,35.5v98.3c0,13.3,5.3,26.1,14.7,35.5
	l51.6,51.6c9.4,9.4,14.7,22.2,14.7,35.5v56.8c0,13.3-5.3,26.1-14.7,35.5L638.3,775c-9.4,9.4-14.7,22.2-14.7,35.5v176.9"/>
<path class="st6" d="M678.5,80v52.5c0,13.3,5.3,26.1,14.7,35.5l80.6,80.6c9.4,9.4,14.7,22.2,14.7,35.5v98.3
	c0,13.3,5.3,26.1,14.7,35.5l51.6,51.6c9.4,9.4,14.7,22.2,14.7,35.5v56.8c0,13.3-5.3,26.1-14.7,35.5L676.8,775
	c-9.4,9.4-14.7,22.2-14.7,35.5v176.9"/>
<path class="st1" d="M717,80v52.5c0,13.3,5.3,26.1,14.7,35.5l80.6,80.6c9.4,9.4,14.7,22.2,14.7,35.5v98.3c0,13.3,5.3,26.1,14.7,35.5
	l51.6,51.6c9.4,9.4,14.7,22.2,14.7,35.5v56.8c0,13.3-5.3,26.1-14.7,35.5L715.3,775c-9.4,9.4-14.7,22.2-14.7,35.5v176.9"/>
<path class="st0" d="M755.6,80v52.5c0,13.3,5.3,26.1,14.7,35.5l80.6,80.6c9.4,9.4,14.7,22.2,14.7,35.5v98.3
	c0,13.3,5.3,26.1,14.7,35.5l51.6,51.6c9.4,9.4,14.7,22.2,14.7,35.5v56.8c0,13.3-5.3,26.1-14.7,35.5L753.9,775
	c-9.4,9.4-14.7,22.2-14.7,35.5v176.9"/>
<path class="st5" d="M794.1,80v52.5c0,13.3,5.3,26.1,14.7,35.5l80.6,80.6c9.4,9.4,14.7,22.2,14.7,35.5v98.3
	c0,13.3,5.3,26.1,14.7,35.5l51.6,51.6c9.4,9.4,14.7,22.2,14.7,35.5v56.8c0,13.3-5.3,26.1-14.7,35.5L792.4,775
	c-9.4,9.4-14.7,22.2-14.7,35.5v176.9"/>
<path class="st2" d="M832.6,80v52.5c0,13.3,5.3,26.1,14.7,35.5l80.6,80.6c9.4,9.4,14.7,22.2,14.7,35.5v98.3
	c0,13.3,5.3,26.1,14.7,35.5l51.6,51.6c9.4,9.4,14.7,22.2,14.7,35.5v56.8c0,13.3-5.3,26.1-14.7,35.5L830.9,775
	c-9.4,9.4-14.7,22.2-14.7,35.5v176.9"/>
<path class="st1" d="M871.2,80v52.5c0,13.3,5.3,26.1,14.7,35.5l80.6,80.6c9.4,9.4,14.7,22.2,14.7,35.5v98.3
	c0,13.3,5.3,26.1,14.7,35.5l51.6,51.6c9.4,9.4,14.7,22.2,14.7,35.5v56.8c0,13.3-5.3,26.1-14.7,35.5L869.4,775
	c-9.4,9.4-14.7,22.2-14.7,35.5v176.9"/>
<path class="st0" d="M909.7,80v52.5c0,13.3,5.3,26.1,14.7,35.5l80.6,80.6c9.4,9.4,14.7,22.2,14.7,35.5v98.3
	c0,13.3,5.3,26.1,14.7,35.5l51.6,51.6c9.4,9.4,14.7,22.2,14.7,35.5v56.8c0,13.3-5.3,26.1-14.7,35.5L908,775
	c-9.4,9.4-14.7,22.2-14.7,35.5v176.9"/>
<path class="st5" d="M948.2,80v52.5c0,13.3,5.3,26.1,14.7,35.5l80.6,80.6c9.4,9.4,14.7,22.2,14.7,35.5v98.3
	c0,13.3,5.3,26.1,14.7,35.5l51.6,51.6c9.4,9.4,14.7,22.2,14.7,35.5v56.8c0,13.3-5.3,26.1-14.7,35.5L946.5,775
	c-9.4,9.4-14.7,22.2-14.7,35.5v176.9"/>
<path class="st4" d="M986.7,80v52.5c0,13.3,5.3,26.1,14.7,35.5l80.6,80.6c9.4,9.4,14.7,22.2,14.7,35.5v98.3
	c0,13.3,5.3,26.1,14.7,35.5l51.6,51.6c9.4,9.4,14.7,22.2,14.7,35.5v56.8c0,13.3-5.3,26.1-14.7,35.5L985,775
	c-9.4,9.4-14.7,22.2-14.7,35.5v176.9"/>
<path class="st0" d="M1025.3,80v52.5c0,13.3,5.3,26.1,14.7,35.5l80.6,80.6c9.4,9.4,14.7,22.2,14.7,35.5v98.3
	c0,13.3,5.3,26.1,14.7,35.5l51.6,51.6c9.4,9.4,14.7,22.2,14.7,35.5v56.8c0,13.3-5.3,26.1-14.7,35.5L1023.6,775
	c-9.4,9.4-14.7,22.2-14.7,35.5v176.9"/>
<path class="st1" d="M1063.8,80v52.5c0,13.3,5.3,26.1,14.7,35.5l80.6,80.6c9.4,9.4,14.7,22.2,14.7,35.5v98.3
	c0,13.3,5.3,26.1,14.7,35.5l51.6,51.6c9.4,9.4,14.7,22.2,14.7,35.5v56.8c0,13.3-5.3,26.1-14.7,35.5L1062.1,775
	c-9.4,9.4-14.7,22.2-14.7,35.5v176.9"/>
<path class="st0" d="M1102.3,80v52.5c0,13.3,5.3,26.1,14.7,35.5l80.6,80.6c9.4,9.4,14.7,22.2,14.7,35.5v98.3
	c0,13.3,5.3,26.1,14.7,35.5l51.6,51.6c9.4,9.4,14.7,22.2,14.7,35.5v56.8c0,13.3-5.3,26.1-14.7,35.5L1100.6,775
	c-9.4,9.4-14.7,22.2-14.7,35.5v176.9"/>
<path class="st0" d="M1140.9,80v52.5c0,13.3,5.3,26.1,14.7,35.5l80.6,80.6c9.4,9.4,14.7,22.2,14.7,35.5v98.3
	c0,13.3,5.3,26.1,14.7,35.5l51.6,51.6c9.4,9.4,14.7,22.2,14.7,35.5v56.8c0,13.3-5.3,26.1-14.7,35.5L1139.2,775
	c-9.4,9.4-14.7,22.2-14.7,35.5v176.9"/>
<path class="st7" d="M23.5,80v52.5c0,13.3,5.3,26.1,14.7,35.5l80.6,80.6c9.4,9.4,14.7,22.2,14.7,35.5v98.3
	c0,13.3,5.3,26.1,14.7,35.5l51.6,51.6c9.4,9.4,14.7,22.2,14.7,35.5v56.8c0,13.3-5.3,26.1-14.7,35.5L21.8,775
	c-9.4,9.4-14.7,22.2-14.7,35.5v176.9"/>
<path class="st0" d="M-15.1,80v52.5c0,13.3,5.3,26.1,14.7,35.5l80.6,80.6c9.4,9.4,14.7,22.2,14.7,35.5v98.3
	c0,13.3,5.3,26.1,14.7,35.5l51.6,51.6c9.4,9.4,14.7,22.2,14.7,35.5v56.8c0,13.3-5.3,26.1-14.7,35.5L-16.8,775
	c-9.4,9.4-14.7,22.2-14.7,35.5v176.9"/>
<path class="st0" d="M-15.1,80v52.5c0,13.3,5.3,26.1,14.7,35.5l80.6,80.6c9.4,9.4,14.7,22.2,14.7,35.5v98.3
	c0,13.3,5.3,26.1,14.7,35.5l51.6,51.6c9.4,9.4,14.7,22.2,14.7,35.5v56.8c0,13.3-5.3,26.1-14.7,35.5L-16.8,775
	c-9.4,9.4-14.7,22.2-14.7,35.5v176.9"/>
<path class="st0" d="M-243.3,80v52.5c0,13.3,5.3,26.1,14.7,35.5l80.6,80.6c9.4,9.4,14.7,22.2,14.7,35.5v98.3
	c0,13.3,5.3,26.1,14.7,35.5l51.6,51.6c9.4,9.4,14.7,22.2,14.7,35.5v56.8c0,13.3-5.3,26.1-14.7,35.5L-245,775
	c-9.4,9.4-14.7,22.2-14.7,35.5v176.9"/>
<path class="st1" d="M-204.8,80v52.5c0,13.3,5.3,26.1,14.7,35.5l80.6,80.6c9.4,9.4,14.7,22.2,14.7,35.5v98.3
	c0,13.3,5.3,26.1,14.7,35.5l51.6,51.6c9.4,9.4,14.7,22.2,14.7,35.5v56.8c0,13.3-5.3,26.1-14.7,35.5L-206.5,775
	c-9.4,9.4-14.7,22.2-14.7,35.5v176.9"/>
<path class="st1" d="M-166.3,80v52.5c0,13.3,5.3,26.1,14.7,35.5l80.6,80.6c9.4,9.4,14.7,22.2,14.7,35.5v98.3
	c0,13.3,5.3,26.1,14.7,35.5L10,469.3c9.4,9.4,14.7,22.2,14.7,35.5v56.8c0,13.3-5.3,26.1-14.7,35.5L-168,775
	c-9.4,9.4-14.7,22.2-14.7,35.5v176.9"/>
<path class="st0" d="M-127.8,80v52.5c0,13.3,5.3,26.1,14.7,35.5l80.6,80.6c9.4,9.4,14.7,22.2,14.7,35.5v98.3
	c0,13.3,5.3,26.1,14.7,35.5l51.6,51.6c9.4,9.4,14.7,22.2,14.7,35.5v56.8c0,13.3-5.3,26.1-14.7,35.5L-129.5,775
	c-9.4,9.4-14.7,22.2-14.7,35.5v176.9"/>
<path class="st3" d="M-89.2,80v52.5c0,13.3,5.3,26.1,14.7,35.5L6,248.5c9.4,9.4,14.7,22.2,14.7,35.5v98.3c0,13.3,5.3,26.1,14.7,35.5
	L87,469.3c9.4,9.4,14.7,22.2,14.7,35.5v56.8c0,13.3-5.3,26.1-14.7,35.5L-90.9,775c-9.4,9.4-14.7,22.2-14.7,35.5v176.9"/>
<path class="st4" d="M-50.7,80v52.5c0,13.3,5.3,26.1,14.7,35.5l80.6,80.6c9.4,9.4,14.7,22.2,14.7,35.5v98.3
	c0,13.3,5.3,26.1,14.7,35.5l51.6,51.6c9.4,9.4,14.7,22.2,14.7,35.5v56.8c0,13.3-5.3,26.1-14.7,35.5L-52.4,775
	c-9.4,9.4-14.7,22.2-14.7,35.5v176.9"/>
<path class="st0" d="M1479,80v52.5c0,13.3,5.3,26.1,14.7,35.5l80.6,80.6c9.4,9.4,14.7,22.2,14.7,35.5v98.3
	c0,13.3,5.3,26.1,14.7,35.5l51.6,51.6c9.4,9.4,14.7,22.2,14.7,35.5v56.8c0,13.3-5.3,26.1-14.7,35.5L1477.3,775
	c-9.4,9.4-14.7,22.2-14.7,35.5v176.9"/>
<path class="st1" d="M1517.5,80v52.5c0,13.3,5.3,26.1,14.7,35.5l80.6,80.6c9.4,9.4,14.7,22.2,14.7,35.5v98.3
	c0,13.3,5.3,26.1,14.7,35.5l51.6,51.6c9.4,9.4,14.7,22.2,14.7,35.5v56.8c0,13.3-5.3,26.1-14.7,35.5L1515.8,775
	c-9.4,9.4-14.7,22.2-14.7,35.5v176.9"/>
<path class="st2" d="M1556.1,80v52.5c0,13.3,5.3,26.1,14.7,35.5l80.6,80.6c9.4,9.4,14.7,22.2,14.7,35.5v98.3
	c0,13.3,5.3,26.1,14.7,35.5l51.6,51.6c9.4,9.4,14.7,22.2,14.7,35.5v56.8c0,13.3-5.3,26.1-14.7,35.5L1554.4,775
	c-9.4,9.4-14.7,22.2-14.7,35.5v176.9"/>
<path class="st0" d="M1594.6,80v52.5c0,13.3,5.3,26.1,14.7,35.5l80.6,80.6c9.4,9.4,14.7,22.2,14.7,35.5v98.3
	c0,13.3,5.3,26.1,14.7,35.5l51.6,51.6c9.4,9.4,14.7,22.2,14.7,35.5v56.8c0,13.3-5.3,26.1-14.7,35.5L1592.9,775
	c-9.4,9.4-14.7,22.2-14.7,35.5v176.9"/>
<path class="st3" d="M1633.1,80v52.5c0,13.3,5.3,26.1,14.7,35.5l80.6,80.6c9.4,9.4,14.7,22.2,14.7,35.5v98.3
	c0,13.3,5.3,26.1,14.7,35.5l51.6,51.6c9.4,9.4,14.7,22.2,14.7,35.5v56.8c0,13.3-5.3,26.1-14.7,35.5L1631.4,775
	c-9.4,9.4-14.7,22.2-14.7,35.5v176.9"/>
<path class="st4" d="M1671.7,80v52.5c0,13.3,5.3,26.1,14.7,35.5l80.6,80.6c9.4,9.4,14.7,22.2,14.7,35.5v98.3
	c0,13.3,5.3,26.1,14.7,35.5l51.6,51.6c9.4,9.4,14.7,22.2,14.7,35.5v56.8c0,13.3-5.3,26.1-14.7,35.5L1670,775
	c-9.4,9.4-14.7,22.2-14.7,35.5v176.9"/>
<path class="st5" d="M1710.2,80v52.5c0,13.3,5.3,26.1,14.7,35.5l80.6,80.6c9.4,9.4,14.7,22.2,14.7,35.5v98.3
	c0,13.3,5.3,26.1,14.7,35.5l51.6,51.6c9.4,9.4,14.7,22.2,14.7,35.5v56.8c0,13.3-5.3,26.1-14.7,35.5L1708.5,775
	c-9.4,9.4-14.7,22.2-14.7,35.5v176.9"/>
<path class="st1" d="M1748.7,80v52.5c0,13.3,5.3,26.1,14.7,35.5l80.6,80.6c9.4,9.4,14.7,22.2,14.7,35.5v98.3
	c0,13.3,5.3,26.1,14.7,35.5l51.6,51.6c9.4,9.4,14.7,22.2,14.7,35.5v56.8c0,13.3-5.3,26.1-14.7,35.5L1747,775
	c-9.4,9.4-14.7,22.2-14.7,35.5v176.9"/>
<path class="st2" d="M1787.3,80v52.5c0,13.3,5.3,26.1,14.7,35.5l80.6,80.6c9.4,9.4,14.7,22.2,14.7,35.5v98.3
	c0,13.3,5.3,26.1,14.7,35.5l51.6,51.6c9.4,9.4,14.7,22.2,14.7,35.5v56.8c0,13.3-5.3,26.1-14.7,35.5L1785.6,775
	c-9.4,9.4-14.7,22.2-14.7,35.5v176.9"/>
<path class="st0" d="M1825.8,80v52.5c0,13.3,5.3,26.1,14.7,35.5l80.6,80.6c9.4,9.4,14.7,22.2,14.7,35.5v98.3
	c0,13.3,5.3,26.1,14.7,35.5l51.6,51.6c9.4,9.4,14.7,22.2,14.7,35.5v56.8c0,13.3-5.3,26.1-14.7,35.5L1824.1,775
	c-9.4,9.4-14.7,22.2-14.7,35.5v176.9"/>
<path class="st6" d="M1864.3,80v52.5c0,13.3,5.3,26.1,14.7,35.5l80.6,80.6c9.4,9.4,14.7,22.2,14.7,35.5v98.3
	c0,13.3,5.3,26.1,14.7,35.5l51.6,51.6c9.4,9.4,14.7,22.2,14.7,35.5v56.8c0,13.3-5.3,26.1-14.7,35.5L1862.6,775
	c-9.4,9.4-14.7,22.2-14.7,35.5v176.9"/>
<path class="st1" d="M1902.8,80v52.5c0,13.3,5.3,26.1,14.7,35.5l80.6,80.6c9.4,9.4,14.7,22.2,14.7,35.5v98.3
	c0,13.3,5.3,26.1,14.7,35.5l51.6,51.6c9.4,9.4,14.7,22.2,14.7,35.5v56.8c0,13.3-5.3,26.1-14.7,35.5L1901.1,775
	c-9.4,9.4-14.7,22.2-14.7,35.5v176.9"/>
<path class="st0" d="M1941.4,80v52.5c0,13.3,5.3,26.1,14.7,35.5l80.6,80.6c9.4,9.4,14.7,22.2,14.7,35.5v98.3
	c0,13.3,5.3,26.1,14.7,35.5l51.6,51.6c9.4,9.4,14.7,22.2,14.7,35.5v56.8c0,13.3-5.3,26.1-14.7,35.5L1939.7,775
	c-9.4,9.4-14.7,22.2-14.7,35.5v176.9"/>
<path class="st2" d="M1979.9,80v52.5c0,13.3,5.3,26.1,14.7,35.5l80.6,80.6c9.4,9.4,14.7,22.2,14.7,35.5v98.3
	c0,13.3,5.3,26.1,14.7,35.5l51.6,51.6c9.4,9.4,14.7,22.2,14.7,35.5v56.8c0,13.3-5.3,26.1-14.7,35.5L1978.2,775
	c-9.4,9.4-14.7,22.2-14.7,35.5v176.9"/>
<path class="st5" d="M2018.4,80v52.5c0,13.3,5.3,26.1,14.7,35.5l80.6,80.6c9.4,9.4,14.7,22.2,14.7,35.5v98.3
	c0,13.3,5.3,26.1,14.7,35.5l51.6,51.6c9.4,9.4,14.7,22.2,14.7,35.5v56.8c0,13.3-5.3,26.1-14.7,35.5L2016.7,775
	c-9.4,9.4-14.7,22.2-14.7,35.5v176.9"/>
<path class="st0" d="M2057,80v52.5c0,13.3,5.3,26.1,14.7,35.5l80.6,80.6c9.4,9.4,14.7,22.2,14.7,35.5v98.3
	c0,13.3,5.3,26.1,14.7,35.5l51.6,51.6c9.4,9.4,14.7,22.2,14.7,35.5v56.8c0,13.3-5.3,26.1-14.7,35.5L2055.3,775
	c-9.4,9.4-14.7,22.2-14.7,35.5v176.9"/>
<path class="st6" d="M2095.5,80v52.5c0,13.3,5.3,26.1,14.7,35.5l80.6,80.6c9.4,9.4,14.7,22.2,14.7,35.5v98.3
	c0,13.3,5.3,26.1,14.7,35.5l51.6,51.6c9.4,9.4,14.7,22.2,14.7,35.5v56.8c0,13.3-5.3,26.1-14.7,35.5L2093.8,775
	c-9.4,9.4-14.7,22.2-14.7,35.5v176.9"/>
<path class="st1" d="M2134,80v52.5c0,13.3,5.3,26.1,14.7,35.5l80.6,80.6c9.4,9.4,14.7,22.2,14.7,35.5v98.3
	c0,13.3,5.3,26.1,14.7,35.5l51.6,51.6c9.4,9.4,14.7,22.2,14.7,35.5v56.8c0,13.3-5.3,26.1-14.7,35.5L2132.3,775
	c-9.4,9.4-14.7,22.2-14.7,35.5v176.9"/>
<path class="st0" d="M2172.6,80v52.5c0,13.3,5.3,26.1,14.7,35.5l80.6,80.6c9.4,9.4,14.7,22.2,14.7,35.5v98.3
	c0,13.3,5.3,26.1,14.7,35.5l51.6,51.6c9.4,9.4,14.7,22.2,14.7,35.5v56.8c0,13.3-5.3,26.1-14.7,35.5L2170.9,775
	c-9.4,9.4-14.7,22.2-14.7,35.5v176.9"/>
<path class="st5" d="M2211.1,80v52.5c0,13.3,5.3,26.1,14.7,35.5l80.6,80.6c9.4,9.4,14.7,22.2,14.7,35.5v98.3
	c0,13.3,5.3,26.1,14.7,35.5l51.6,51.6c9.4,9.4,14.7,22.2,14.7,35.5v56.8c0,13.3-5.3,26.1-14.7,35.5L2209.4,775
	c-9.4,9.4-14.7,22.2-14.7,35.5v176.9"/>
<path class="st2" d="M2249.6,80v52.5c0,13.3,5.3,26.1,14.7,35.5l80.6,80.6c9.4,9.4,14.7,22.2,14.7,35.5v98.3
	c0,13.3,5.3,26.1,14.7,35.5l51.6,51.6c9.4,9.4,14.7,22.2,14.7,35.5v56.8c0,13.3-5.3,26.1-14.7,35.5L2247.9,775
	c-9.4,9.4-14.7,22.2-14.7,35.5v176.9"/>
<path class="st1" d="M2288.2,80v52.5c0,13.3,5.3,26.1,14.7,35.5l80.6,80.6c9.4,9.4,14.7,22.2,14.7,35.5v98.3
	c0,13.3,5.3,26.1,14.7,35.5l51.6,51.6c9.4,9.4,14.7,22.2,14.7,35.5v56.8c0,13.3-5.3,26.1-14.7,35.5L2286.4,775
	c-9.4,9.4-14.7,22.2-14.7,35.5v176.9"/>
<path class="st0" d="M2326.7,80v52.5c0,13.3,5.3,26.1,14.7,35.5l80.6,80.6c9.4,9.4,14.7,22.2,14.7,35.5v98.3
	c0,13.3,5.3,26.1,14.7,35.5l51.6,51.6c9.4,9.4,14.7,22.2,14.7,35.5v56.8c0,13.3-5.3,26.1-14.7,35.5L2325,775
	c-9.4,9.4-14.7,22.2-14.7,35.5v176.9"/>
<path class="st5" d="M2365.2,80v52.5c0,13.3,5.3,26.1,14.7,35.5l80.6,80.6c9.4,9.4,14.7,22.2,14.7,35.5v98.3
	c0,13.3,5.3,26.1,14.7,35.5l51.6,51.6c9.4,9.4,14.7,22.2,14.7,35.5v56.8c0,13.3-5.3,26.1-14.7,35.5L2363.5,775
	c-9.4,9.4-14.7,22.2-14.7,35.5v176.9"/>
<path class="st4" d="M2403.7,80v52.5c0,13.3,5.3,26.1,14.7,35.5l80.6,80.6c9.4,9.4,14.7,22.2,14.7,35.5v98.3
	c0,13.3,5.3,26.1,14.7,35.5l51.6,51.6c9.4,9.4,14.7,22.2,14.7,35.5v56.8c0,13.3-5.3,26.1-14.7,35.5L2402,775
	c-9.4,9.4-14.7,22.2-14.7,35.5v176.9"/>
<path class="st0" d="M2442.3,80v52.5c0,13.3,5.3,26.1,14.7,35.5l80.6,80.6c9.4,9.4,14.7,22.2,14.7,35.5v98.3
	c0,13.3,5.3,26.1,14.7,35.5l51.6,51.6c9.4,9.4,14.7,22.2,14.7,35.5v56.8c0,13.3-5.3,26.1-14.7,35.5L2440.6,775
	c-9.4,9.4-14.7,22.2-14.7,35.5v176.9"/>
<path class="st1" d="M2480.8,80v52.5c0,13.3,5.3,26.1,14.7,35.5l80.6,80.6c9.4,9.4,14.7,22.2,14.7,35.5v98.3
	c0,13.3,5.3,26.1,14.7,35.5l51.6,51.6c9.4,9.4,14.7,22.2,14.7,35.5v56.8c0,13.3-5.3,26.1-14.7,35.5L2479.1,775
	c-9.4,9.4-14.7,22.2-14.7,35.5v176.9"/>
<path class="st0" d="M2519.3,80v52.5c0,13.3,5.3,26.1,14.7,35.5l80.6,80.6c9.4,9.4,14.7,22.2,14.7,35.5v98.3
	c0,13.3,5.3,26.1,14.7,35.5l51.6,51.6c9.4,9.4,14.7,22.2,14.7,35.5v56.8c0,13.3-5.3,26.1-14.7,35.5L2517.6,775
	c-9.4,9.4-14.7,22.2-14.7,35.5v176.9"/>
<path class="st0" d="M2557.9,80v52.5c0,13.3,5.3,26.1,14.7,35.5l80.6,80.6c9.4,9.4,14.7,22.2,14.7,35.5v98.3
	c0,13.3,5.3,26.1,14.7,35.5l51.6,51.6c9.4,9.4,14.7,22.2,14.7,35.5v56.8c0,13.3-5.3,26.1-14.7,35.5L2556.2,775
	c-9.4,9.4-14.7,22.2-14.7,35.5v176.9"/>
<path class="st7" d="M1440.5,80v52.5c0,13.3,5.3,26.1,14.7,35.5l80.6,80.6c9.4,9.4,14.7,22.2,14.7,35.5v98.3
	c0,13.3,5.3,26.1,14.7,35.5l51.6,51.6c9.4,9.4,14.7,22.2,14.7,35.5v56.8c0,13.3-5.3,26.1-14.7,35.5L1438.8,775
	c-9.4,9.4-14.7,22.2-14.7,35.5v176.9"/>
<path class="st0" d="M1401.9,80v52.5c0,13.3,5.3,26.1,14.7,35.5l80.6,80.6c9.4,9.4,14.7,22.2,14.7,35.5v98.3
	c0,13.3,5.3,26.1,14.7,35.5l51.6,51.6c9.4,9.4,14.7,22.2,14.7,35.5v56.8c0,13.3-5.3,26.1-14.7,35.5L1400.2,775
	c-9.4,9.4-14.7,22.2-14.7,35.5v176.9"/>
<path class="st0" d="M1401.9,80v52.5c0,13.3,5.3,26.1,14.7,35.5l80.6,80.6c9.4,9.4,14.7,22.2,14.7,35.5v98.3
	c0,13.3,5.3,26.1,14.7,35.5l51.6,51.6c9.4,9.4,14.7,22.2,14.7,35.5v56.8c0,13.3-5.3,26.1-14.7,35.5L1400.2,775
	c-9.4,9.4-14.7,22.2-14.7,35.5v176.9"/>
<path class="st0" d="M1173.7,80v52.5c0,13.3,5.3,26.1,14.7,35.5l80.6,80.6c9.4,9.4,14.7,22.2,14.7,35.5v98.3
	c0,13.3,5.3,26.1,14.7,35.5l51.6,51.6c9.4,9.4,14.7,22.2,14.7,35.5v56.8c0,13.3-5.3,26.1-14.7,35.5L1172,775
	c-9.4,9.4-14.7,22.2-14.7,35.5v176.9"/>
<path class="st1" d="M1212.2,80v52.5c0,13.3,5.3,26.1,14.7,35.5l80.6,80.6c9.4,9.4,14.7,22.2,14.7,35.5v98.3
	c0,13.3,5.3,26.1,14.7,35.5l51.6,51.6c9.4,9.4,14.7,22.2,14.7,35.5v56.8c0,13.3-5.3,26.1-14.7,35.5L1210.5,775
	c-9.4,9.4-14.7,22.2-14.7,35.5v176.9"/>
<path class="st1" d="M1250.7,80v52.5c0,13.3,5.3,26.1,14.7,35.5l80.6,80.6c9.4,9.4,14.7,22.2,14.7,35.5v98.3
	c0,13.3,5.3,26.1,14.7,35.5l51.6,51.6c9.4,9.4,14.7,22.2,14.7,35.5v56.8c0,13.3-5.3,26.1-14.7,35.5L1249,775
	c-9.4,9.4-14.7,22.2-14.7,35.5v176.9"/>
<path class="st0" d="M1289.2,80v52.5c0,13.3,5.3,26.1,14.7,35.5l80.6,80.6c9.4,9.4,14.7,22.2,14.7,35.5v98.3
	c0,13.3,5.3,26.1,14.7,35.5l51.6,51.6c9.4,9.4,14.7,22.2,14.7,35.5v56.8c0,13.3-5.3,26.1-14.7,35.5L1287.5,775
	c-9.4,9.4-14.7,22.2-14.7,35.5v176.9"/>
<path class="st3" d="M1327.8,80v52.5c0,13.3,5.3,26.1,14.7,35.5l80.6,80.6c9.4,9.4,14.7,22.2,14.7,35.5v98.3
	c0,13.3,5.3,26.1,14.7,35.5l51.6,51.6c9.4,9.4,14.7,22.2,14.7,35.5v56.8c0,13.3-5.3,26.1-14.7,35.5L1326.1,775
	c-9.4,9.4-14.7,22.2-14.7,35.5v176.9"/>
<path class="st4" d="M1366.3,80v52.5c0,13.3,5.3,26.1,14.7,35.5l80.6,80.6c9.4,9.4,14.7,22.2,14.7,35.5v98.3
	c0,13.3,5.3,26.1,14.7,35.5l51.6,51.6c9.4,9.4,14.7,22.2,14.7,35.5v56.8c0,13.3-5.3,26.1-14.7,35.5L1364.6,775
	c-9.4,9.4-14.7,22.2-14.7,35.5v176.9"/>
</svg>
