<?xml version="1.0" encoding="utf-8"?>
<!-- Generator: Adobe Illustrator 23.0.0, SVG Export Plug-In . SVG Version: 6.00 Build 0)  -->
<svg version="1.1" id="Layer_1" xmlns="http://www.w3.org/2000/svg" xmlns:xlink="http://www.w3.org/1999/xlink" x="0px" y="0px"
	 viewBox="0 0 144 144" style="enable-background:new 0 0 144 144;" xml:space="preserve">
<style type="text/css">
	.st0{fill:#FFFFFF;}
	.st1{fill:none;}
	.st2{fill:none;stroke:#FFFFFF;stroke-width:3.2075;stroke-miterlimit:10;}
	.st3{clip-path:url(#SVGID_2_);}
	.st4{fill:none;stroke:#FFFFFF;stroke-width:0.317;stroke-miterlimit:10;}
	.st5{fill:none;stroke:#FFFFFF;stroke-width:1.2681;stroke-miterlimit:10;}
	.st6{fill:none;stroke:#FFFFFF;stroke-width:0.634;stroke-miterlimit:10;}
	.st7{fill:none;stroke:#FFFFFF;stroke-width:1.9021;stroke-miterlimit:10;}
	.st8{fill:none;stroke:#FFFFFF;stroke-width:0.4755;stroke-miterlimit:10;}
	.st9{clip-path:url(#SVGID_4_);}
</style>
<path class="st0" d="M-62,95.4L-62,95.4c0,1.2-0.9,2.1-2.1,2.1l0,0c-1.2,0-2.1-0.9-2.1-2.1l0,0c0-1.2,0.9-2.1,2.1-2.1l0,0
	C-62.9,93.3-62,94.2-62,95.4z"/>
<path class="st0" d="M-50.7,70.2L-50.7,70.2c-1.6,0-2.8-0.6-2.3-1.2l8.1-12c0.3-0.4,1.2-0.7,2.3-0.7l0,0c1.6,0,2.8,0.6,2.3,1.2
	l-8.1,11.9C-48.6,69.9-49.6,70.2-50.7,70.2z"/>
<path class="st0" d="M-43.9,70.2L-43.9,70.2c-1.6,0-2.8-0.6-2.3-1.2l8-12c0.3-0.4,1.2-0.7,2.3-0.7l0,0c1.6,0,2.8,0.6,2.3,1.2l-8,12
	C-41.8,69.9-42.8,70.2-43.9,70.2z"/>
<path class="st0" d="M-37.1,70.2L-37.1,70.2c-1.6,0-2.8-0.6-2.3-1.2l8-12c0.3-0.4,1.2-0.7,2.3-0.7l0,0c1.6,0,2.8,0.6,2.3,1.2
	l-8.1,11.9C-35.1,69.9-36,70.2-37.1,70.2z"/>
<path class="st0" d="M-30.4,70.2L-30.4,70.2c-1.6,0-2.8-0.6-2.3-1.2l8.1-12c0.3-0.4,1.2-0.7,2.3-0.7l0,0c1.6,0,2.8,0.6,2.3,1.2
	l-8.1,11.9C-28.3,69.9-29.3,70.2-30.4,70.2z"/>
<path class="st0" d="M-40.2,25.9h-11c-1.1,0-1.9-0.9-1.9-1.9v-0.3c0-1.1,0.9-1.9,1.9-1.9h11c1.1,0,1.9,0.9,1.9,1.9V24
	C-38.3,25.1-39.2,25.9-40.2,25.9z"/>
<path class="st0" d="M50.6,19.6h-8.2c-1.8,0-3.3,1.5-3.3,3.3l0,0c0,1.8,1.5,3.3,3.3,3.3h8.2c1.8,0,3.3-1.5,3.3-3.3l0,0
	C53.9,21.1,52.5,19.6,50.6,19.6z M50.6,24.5c-0.9,0-1.7-0.7-1.7-1.7c0-0.9,0.7-1.7,1.7-1.7s1.7,0.7,1.7,1.7
	C52.3,23.8,51.6,24.5,50.6,24.5z"/>
<path class="st0" d="M-62,90.1L-62,90.1c0,1.2-0.9,2.1-2.1,2.1l0,0c-1.2,0-2.1-0.9-2.1-2.1l0,0c0-1.2,0.9-2.1,2.1-2.1l0,0
	C-62.9,88-62,88.9-62,90.1z"/>
<path class="st0" d="M-62,84.8L-62,84.8c0,1.2-0.9,2.1-2.1,2.1l0,0c-1.2,0-2.1-0.9-2.1-2.1l0,0c0-1.2,0.9-2.1,2.1-2.1l0,0
	C-62.9,82.7-62,83.6-62,84.8z"/>
<rect x="-71.2" y="139.8" class="st0" width="14.6" height="4.1"/>
<rect x="-71.2" y="134.8" class="st0" width="14.6" height="4.1"/>
<circle class="st0" cx="-43.9" cy="1.3" r="1.4"/>
<circle class="st0" cx="-43.9" cy="5.3" r="1.4"/>
<circle class="st0" cx="-43.9" cy="9.3" r="1.4"/>
<circle class="st0" cx="-47.9" cy="1.3" r="1.4"/>
<circle class="st0" cx="-47.9" cy="9.3" r="1.4"/>
<circle class="st0" cx="-51.9" cy="1.3" r="1.4"/>
<circle class="st0" cx="-51.9" cy="5.3" r="1.4"/>
<circle class="st0" cx="-51.9" cy="9.3" r="1.4"/>
<circle class="st0" cx="-58.4" cy="1.3" r="1.4"/>
<circle class="st0" cx="-58.4" cy="5.3" r="1.4"/>
<circle class="st0" cx="-58.4" cy="9.3" r="1.4"/>
<circle class="st0" cx="-62.4" cy="1.3" r="1.4"/>
<circle class="st0" cx="-62.4" cy="9.3" r="1.4"/>
<circle class="st0" cx="-66.4" cy="1.3" r="1.4"/>
<circle class="st0" cx="-66.4" cy="9.3" r="1.4"/>
<circle class="st0" cx="-43.9" cy="13.3" r="1.4"/>
<circle class="st0" cx="-51.9" cy="13.3" r="1.4"/>
<circle class="st0" cx="-62.4" cy="13.3" r="1.4"/>
<circle class="st0" cx="-66.4" cy="13.3" r="1.4"/>
<circle class="st0" cx="-70.4" cy="1.3" r="1.4"/>
<circle class="st0" cx="-70.4" cy="5.3" r="1.4"/>
<circle class="st0" cx="-70.4" cy="13.3" r="1.4"/>
<circle class="st0" cx="-39.9" cy="5.3" r="1.4"/>
<circle class="st0" cx="-39.9" cy="13.3" r="1.4"/>
<circle class="st0" cx="48.6" cy="13.3" r="1.4"/>
<circle class="st0" cx="44.7" cy="13.3" r="1.4"/>
<circle class="st0" cx="40.7" cy="13.3" r="1.4"/>
<circle class="st0" cx="52.6" cy="13.3" r="1.4"/>
<g>
	<path class="st0" d="M-10.9,85.5h-4.4c-0.5,0-0.9,0.4-0.9,0.9v4.4c0,0.5,0.4,0.9,0.9,0.9h0.6v5.6c0,0.4,0.3,0.7,0.7,0.7h1.7
		c0.4,0,0.7-0.3,0.7-0.7v-5.6h0.6c0.5,0,0.9-0.4,0.9-0.9v-4.4C-9.9,85.9-10.3,85.5-10.9,85.5z"/>
	<circle class="st0" cx="-13.1" cy="83.7" r="1.5"/>
</g>
<path class="st0" d="M67.8,137.2L67.8,137.2c0.3,0,0.6,0.2,0.8,0.5l2.6,4.5c0.4,0.6-0.1,1.4-0.8,1.4l0,0c-0.3,0-0.6-0.2-0.8-0.5
	l-2.6-4.5C66.6,138,67,137.2,67.8,137.2z"/>
<path class="st0" d="M63.9,137.2L63.9,137.2c0.3,0,0.6,0.2,0.8,0.5l2.6,4.5c0.4,0.6-0.1,1.4-0.8,1.4l0,0c-0.3,0-0.6-0.2-0.8-0.5
	l-2.6-4.5C62.7,138,63.2,137.2,63.9,137.2z"/>
<path class="st0" d="M59.7,137.2L59.7,137.2c0.3,0,0.6,0.2,0.8,0.5l2.6,4.5c0.4,0.6-0.1,1.4-0.8,1.4l0,0c-0.3,0-0.6-0.2-0.8-0.5
	l-2.6-4.5C58.6,138,59,137.2,59.7,137.2z"/>
<path class="st0" d="M55.8,137.2L55.8,137.2c0.3,0,0.6,0.2,0.8,0.5l2.6,4.5c0.4,0.6-0.1,1.4-0.8,1.4l0,0c-0.3,0-0.6-0.2-0.8-0.5
	l-2.6-4.5C54.7,138,55.1,137.2,55.8,137.2z"/>
<path class="st0" d="M52,137.2L52,137.2c0.3,0,0.6,0.2,0.8,0.5l2.6,4.5c0.4,0.6-0.1,1.4-0.8,1.4l0,0c-0.3,0-0.6-0.2-0.8-0.5
	l-2.6-4.5C50.8,138,51.2,137.2,52,137.2z"/>
<path class="st0" d="M48.1,137.2L48.1,137.2c0.3,0,0.6,0.2,0.8,0.5l2.6,4.5c0.4,0.6-0.1,1.4-0.8,1.4l0,0c-0.3,0-0.6-0.2-0.8-0.5
	l-2.6-4.5C46.9,138,47.4,137.2,48.1,137.2z"/>
<path class="st0" d="M44.2,137.2L44.2,137.2c0.3,0,0.6,0.2,0.8,0.5l2.6,4.5c0.4,0.6-0.1,1.4-0.8,1.4l0,0c-0.3,0-0.6-0.2-0.8-0.5
	l-2.6-4.5C43,138,43.5,137.2,44.2,137.2z"/>
<path class="st0" d="M40.3,137.2L40.3,137.2c0.3,0,0.6,0.2,0.8,0.5l2.6,4.5c0.4,0.6-0.1,1.4-0.8,1.4l0,0c-0.3,0-0.6-0.2-0.8-0.5
	l-2.6-4.5C39.2,138,39.6,137.2,40.3,137.2z"/>
<g>
	<rect x="2.6" y="-0.4" class="st0" width="25.8" height="0.8"/>
</g>
<g>
	<rect x="2.6" y="1.8" class="st0" width="19.3" height="0.8"/>
</g>
<g>
	<rect x="2.6" y="3.9" class="st0" width="6.4" height="0.8"/>
</g>
<g>
	<rect x="2.6" y="6.1" class="st0" width="12.9" height="0.8"/>
</g>
<g>
	<rect x="2.6" y="8.2" class="st0" width="25.8" height="0.8"/>
</g>
<g>
	<rect x="2.6" y="10.3" class="st0" width="12.9" height="0.8"/>
</g>
<g>
	<rect x="2.6" y="12.5" class="st0" width="6.4" height="0.8"/>
</g>
<g>
	<rect x="2.6" y="14.6" class="st0" width="19.3" height="0.8"/>
</g>
<g>
	<rect x="2.6" y="16.8" class="st0" width="25.8" height="0.8"/>
</g>
<g>
	<rect x="2.6" y="18.9" class="st0" width="12.9" height="0.8"/>
</g>
<g>
	<rect x="2.6" y="21.1" class="st0" width="6.4" height="0.8"/>
</g>
<g>
	<rect x="2.6" y="23.2" class="st0" width="19.3" height="0.8"/>
</g>
<g>
	<rect x="2.6" y="25.4" class="st0" width="25.8" height="0.8"/>
</g>
<g>
	<path class="st0" d="M-2.3,85.5h-4.4c-0.5,0-0.9,0.4-0.9,0.9v4.4c0,0.5,0.4,0.9,0.9,0.9h0.6v5.6c0,0.4,0.3,0.7,0.7,0.7h1.7
		c0.4,0,0.7-0.3,0.7-0.7v-5.6h0.6c0.5,0,0.9-0.4,0.9-0.9v-4.4C-1.4,85.9-1.8,85.5-2.3,85.5z"/>
	<circle class="st0" cx="-4.5" cy="83.7" r="1.5"/>
</g>
<g>
	<rect x="-71.4" y="69.8" class="st0" width="15" height="0.4"/>
</g>
<g>
	<rect x="-71.4" y="66.9" class="st0" width="15" height="1.3"/>
</g>
<g>
	<rect x="-71.4" y="64.9" class="st0" width="15" height="0.3"/>
</g>
<g>
	<rect x="-71.4" y="61.3" class="st0" width="15" height="2.5"/>
</g>
<g>
	<rect x="-71.4" y="59.7" class="st0" width="15" height="0.6"/>
</g>
<g>
	<rect x="-71.4" y="56.8" class="st0" width="15" height="1.5"/>
</g>
<g>
	<rect x="-71.4" y="54.5" class="st0" width="15" height="1"/>
</g>
<g>
	<rect x="-71.4" y="50.9" class="st0" width="15" height="3.1"/>
</g>
<g>
	<rect x="-71.4" y="49.9" class="st0" width="15" height="0.3"/>
</g>
<g>
	<rect x="-71.4" y="46.9" class="st0" width="15" height="1.3"/>
</g>
<g>
	<rect x="-71.4" y="44" class="st0" width="15" height="2"/>
</g>
<g>
	<rect x="-71.4" y="41.5" class="st0" width="15" height="2"/>
</g>
<g>
	<rect x="-71.4" y="39.8" class="st0" width="15" height="0.4"/>
</g>
<g>
	<rect x="-71.4" y="36.9" class="st0" width="15" height="1.6"/>
</g>
<path class="st0" d="M-16.8,8.1V0.8c-8.2,0-14.8,6.6-14.9,14.8h7.4C-24.3,11.5-21,8.2-16.8,8.1z"/>
<path class="st0" d="M2.9,115.7v11.1c0,0.6,0.5,1.1,1.1,1.1h11.1c0.6,0,1.1-0.5,1.1-1.1v-11.1c0-0.6-0.5-1.1-1.1-1.1h-11
	C3.4,114.6,2.9,115.1,2.9,115.7z M12.1,122.5L12.1,122.5c-0.6,0-1.1,0.5-1.1,1.1v0.3c0,0.6-0.5,1.1-1.1,1.1H9.4
	c-0.6,0-1.1-0.5-1.1-1.1v-0.3c0-0.6-0.5-1.1-1.1-1.1l0,0c-0.6,0-1.1-0.5-1.1-1.1v-0.2c0-0.6,0.5-1.1,1.1-1.1l0,0
	c0.6,0,1.1-0.5,1.1-1.1v-0.2c0-0.6,0.5-1.1,1.1-1.1h0.4c0.6,0,1.1,0.5,1.1,1.1v0.2c0,0.6,0.5,1.1,1.1,1.1l0,0c0.6,0,1.1,0.5,1.1,1.1
	v0.2C13.3,122,12.8,122.5,12.1,122.5z"/>
<circle class="st0" cx="3.3" cy="106.9" r="0.5"/>
<circle class="st0" cx="6.5" cy="106.9" r="0.5"/>
<circle class="st0" cx="3.3" cy="105.3" r="0.5"/>
<circle class="st0" cx="6.5" cy="105.3" r="0.5"/>
<circle class="st0" cx="8.1" cy="105.3" r="0.5"/>
<circle class="st0" cx="3.3" cy="103.7" r="0.5"/>
<circle class="st0" cx="4.9" cy="103.7" r="0.5"/>
<circle class="st0" cx="6.5" cy="103.7" r="0.5"/>
<circle class="st0" cx="4.9" cy="102.1" r="0.5"/>
<circle class="st0" cx="4.9" cy="98.7" r="0.5"/>
<circle class="st0" cx="8.1" cy="98.7" r="0.5"/>
<circle class="st0" cx="3.3" cy="97.1" r="0.5"/>
<circle class="st0" cx="4.9" cy="97.1" r="0.5"/>
<circle class="st0" cx="6.5" cy="97.1" r="0.5"/>
<circle class="st0" cx="6.5" cy="95.5" r="0.5"/>
<circle class="st0" cx="8.1" cy="95.5" r="0.5"/>
<circle class="st0" cx="3.3" cy="93.9" r="0.5"/>
<circle class="st0" cx="4.9" cy="93.9" r="0.5"/>
<circle class="st0" cx="8.1" cy="93.9" r="0.5"/>
<circle class="st0" cx="3.3" cy="92.3" r="0.5"/>
<circle class="st0" cx="4.9" cy="92.3" r="0.5"/>
<circle class="st0" cx="6.5" cy="92.3" r="0.5"/>
<circle class="st0" cx="3.3" cy="84.1" r="0.5"/>
<circle class="st0" cx="6.5" cy="84.1" r="0.5"/>
<circle class="st0" cx="3.3" cy="85.8" r="0.5"/>
<circle class="st0" cx="6.5" cy="85.8" r="0.5"/>
<circle class="st0" cx="8.1" cy="85.8" r="0.5"/>
<circle class="st0" cx="3.3" cy="87.4" r="0.5"/>
<circle class="st0" cx="4.9" cy="87.4" r="0.5"/>
<circle class="st0" cx="6.5" cy="87.4" r="0.5"/>
<circle class="st0" cx="4.9" cy="89" r="0.5"/>
<circle class="st0" cx="4.9" cy="80.9" r="0.5"/>
<circle class="st0" cx="8.1" cy="80.9" r="0.5"/>
<circle class="st0" cx="3.3" cy="79.3" r="0.5"/>
<circle class="st0" cx="4.9" cy="79.3" r="0.5"/>
<circle class="st0" cx="6.5" cy="79.3" r="0.5"/>
<circle class="st0" cx="6.5" cy="77.7" r="0.5"/>
<circle class="st0" cx="8.1" cy="77.7" r="0.5"/>
<circle class="st0" cx="3.3" cy="76.1" r="0.5"/>
<circle class="st0" cx="4.9" cy="76.1" r="0.5"/>
<circle class="st0" cx="8.1" cy="76.1" r="0.5"/>
<circle class="st0" cx="3.3" cy="74.5" r="0.5"/>
<circle class="st0" cx="4.9" cy="74.5" r="0.5"/>
<circle class="st0" cx="6.5" cy="74.5" r="0.5"/>
<circle class="st0" cx="16" cy="74.5" r="0.5"/>
<circle class="st0" cx="12.8" cy="74.5" r="0.5"/>
<circle class="st0" cx="16" cy="76.1" r="0.5"/>
<circle class="st0" cx="12.8" cy="76.1" r="0.5"/>
<circle class="st0" cx="11.2" cy="76.1" r="0.5"/>
<circle class="st0" cx="16" cy="77.7" r="0.5"/>
<circle class="st0" cx="14.4" cy="77.7" r="0.5"/>
<circle class="st0" cx="12.8" cy="77.7" r="0.5"/>
<circle class="st0" cx="14.4" cy="79.3" r="0.5"/>
<circle class="st0" cx="14.4" cy="82.7" r="0.5"/>
<circle class="st0" cx="11.2" cy="82.7" r="0.5"/>
<circle class="st0" cx="16" cy="84.3" r="0.5"/>
<circle class="st0" cx="14.4" cy="84.3" r="0.5"/>
<circle class="st0" cx="12.8" cy="84.3" r="0.5"/>
<circle class="st0" cx="12.8" cy="85.9" r="0.5"/>
<circle class="st0" cx="11.2" cy="85.9" r="0.5"/>
<circle class="st0" cx="16" cy="87.6" r="0.5"/>
<circle class="st0" cx="14.4" cy="87.6" r="0.5"/>
<circle class="st0" cx="11.2" cy="87.6" r="0.5"/>
<circle class="st0" cx="16" cy="89.2" r="0.5"/>
<circle class="st0" cx="14.4" cy="89.2" r="0.5"/>
<circle class="st0" cx="12.8" cy="89.2" r="0.5"/>
<circle class="st0" cx="16" cy="97.3" r="0.5"/>
<circle class="st0" cx="12.8" cy="97.3" r="0.5"/>
<circle class="st0" cx="16" cy="95.7" r="0.5"/>
<circle class="st0" cx="12.8" cy="95.7" r="0.5"/>
<circle class="st0" cx="11.2" cy="95.7" r="0.5"/>
<circle class="st0" cx="16" cy="94.1" r="0.5"/>
<circle class="st0" cx="14.4" cy="94.1" r="0.5"/>
<circle class="st0" cx="12.8" cy="94.1" r="0.5"/>
<circle class="st0" cx="14.4" cy="92.5" r="0.5"/>
<circle class="st0" cx="14.4" cy="100.5" r="0.5"/>
<circle class="st0" cx="11.2" cy="100.5" r="0.5"/>
<circle class="st0" cx="16" cy="102.1" r="0.5"/>
<circle class="st0" cx="14.4" cy="102.1" r="0.5"/>
<circle class="st0" cx="12.8" cy="102.1" r="0.5"/>
<circle class="st0" cx="12.8" cy="103.7" r="0.5"/>
<circle class="st0" cx="11.2" cy="103.7" r="0.5"/>
<circle class="st0" cx="16" cy="105.3" r="0.5"/>
<circle class="st0" cx="14.4" cy="105.3" r="0.5"/>
<circle class="st0" cx="11.2" cy="105.3" r="0.5"/>
<circle class="st0" cx="16" cy="106.9" r="0.5"/>
<circle class="st0" cx="14.4" cy="106.9" r="0.5"/>
<circle class="st0" cx="12.8" cy="106.9" r="0.5"/>
<path class="st0" d="M62.8,115.9l-1.2-1.9c-0.4-0.6,0-1.4,0.8-1.4h0.1c0.3,0,0.6,0.2,0.8,0.4l1.1,1.9l0,0l1.1-1.9
	c0.2-0.3,0.5-0.4,0.8-0.4l0,0c0.7,0,1.1,0.8,0.8,1.4l-1.2,1.9c-0.2,0.3-0.2,0.7,0,1l1.5,2.3c0.4,0.6-0.1,1.4-0.8,1.4h-0.2
	c-0.3,0-0.6-0.2-0.8-0.5l-1.2-2.2l0,0l-1.3,2.2c-0.2,0.3-0.5,0.4-0.8,0.4h-0.1c-0.7,0-1.1-0.8-0.8-1.4l1.5-2.3
	C63,116.6,63,116.2,62.8,115.9z"/>
<path class="st0" d="M21.3,115.8v10.9c0,0.7,0.6,1.2,1.2,1.2h10.9c0.7,0,1.2-0.6,1.2-1.2v-10.9c0-0.7-0.6-1.2-1.2-1.2H22.6
	C21.9,114.6,21.3,115.2,21.3,115.8z M30.4,122.6h-4.7c-0.7,0-1.2-0.6-1.2-1.2l0,0c0-0.7,0.6-1.2,1.2-1.2h4.7c0.7,0,1.2,0.6,1.2,1.2
	l0,0C31.7,122,31.1,122.6,30.4,122.6z"/>
<g>
	<path class="st0" d="M31.3,57.8l0.4-0.6c0.8-1,0.3-2.6-0.9-3L30.2,54c-1-0.3-1.6-1.5-1.2-2.5l0,0c0.4-1,1.4-1.5,2.4-1.1l0.5,0.2
		c1.2,0.4,2.5-0.5,2.5-1.8v-0.9c0-1.1,0.9-1.9,1.9-1.9h0.3c1.1,0,1.9,0.9,1.9,1.9v0.9c0,1.3,1.3,2.2,2.5,1.8l0.5-0.2
		c1-0.3,2,0.2,2.4,1.1l0,0c0.4,1-0.1,2.2-1.2,2.5l-0.6,0.2c-1.2,0.4-1.7,1.9-0.9,3l0.4,0.6c0.6,0.8,0.5,2-0.4,2.7l0,0
		c-0.9,0.6-2.1,0.5-2.7-0.4L38,59.4c-0.8-1.1-2.4-1.1-3.1,0l-0.5,0.7c-0.6,0.9-1.8,1.1-2.7,0.4l-0.1-0.1
		C30.9,59.9,30.7,58.6,31.3,57.8z"/>
</g>
<g>
	<line marker-end="none" class="st1" x1="-39.3" y1="115.4" x2="-39.3" y2="128.6"/>
	<path class="st0" d="M-39.3,115.4L-39.3,115.4c0.9,0,1.6,0.7,1.6,1.6v10c0,0.9-0.7,1.6-1.6,1.6l0,0c-0.9,0-1.6-0.7-1.6-1.6v-10
		C-40.9,116.1-40.2,115.4-39.3,115.4z"/>
</g>
<g>
	<line marker-end="none" class="st1" x1="-45.4" y1="117.4" x2="-45.4" y2="126.6"/>
	<path class="st0" d="M-45.4,117.4L-45.4,117.4c0.9,0,1.6,0.7,1.6,1.6v6c0,0.9-0.7,1.6-1.6,1.6l0,0c-0.9,0-1.6-0.7-1.6-1.6v-6
		C-47,118.1-46.3,117.4-45.4,117.4z"/>
</g>
<g>
	<line marker-end="none" class="st1" x1="-51.5" y1="120.1" x2="-51.5" y2="123.9"/>
	<path class="st0" d="M-51.5,120.1L-51.5,120.1c0.9,0,1.6,0.7,1.6,1.6v0.6c0,0.9-0.7,1.6-1.6,1.6l0,0c-0.9,0-1.6-0.7-1.6-1.6v-0.6
		C-53,120.8-52.3,120.1-51.5,120.1z"/>
</g>
<g>
	<line marker-end="none" class="st1" x1="-57.5" y1="123.1" x2="-57.5" y2="120.9"/>
	<path class="st0" d="M-58,120.9h0.9c0.6,0,1.1,0.5,1.1,1.1l0,0c0,0.6-0.5,1.1-1.1,1.1H-58c-0.6,0-1.1-0.5-1.1-1.1l0,0
		C-59.1,121.4-58.6,120.9-58,120.9z"/>
</g>
<g>
	<line marker-end="none" class="st1" x1="-63.6" y1="126" x2="-63.6" y2="118"/>
	<path class="st0" d="M-63.6,118L-63.6,118c0.9,0,1.6,0.7,1.6,1.6v4.9c0,0.9-0.7,1.6-1.6,1.6l0,0c-0.9,0-1.6-0.7-1.6-1.6v-4.9
		C-65.2,118.7-64.5,118-63.6,118z"/>
</g>
<g>
	<line marker-end="none" class="st1" x1="-69.7" y1="128.2" x2="-69.7" y2="115.8"/>
	<path class="st0" d="M-69.7,115.8L-69.7,115.8c0.9,0,1.6,0.7,1.6,1.6v9.3c0,0.9-0.7,1.6-1.6,1.6l0,0c-0.9,0-1.6-0.7-1.6-1.6v-9.3
		C-71.2,116.5-70.5,115.8-69.7,115.8z"/>
</g>
<g>
	<line marker-end="none" class="st1" x1="-3.4" y1="115.4" x2="-3.4" y2="128.6"/>
	<path class="st0" d="M-3.4,115.4L-3.4,115.4c0.9,0,1.6,0.7,1.6,1.6v10c0,0.9-0.7,1.6-1.6,1.6l0,0c-0.9,0-1.6-0.7-1.6-1.6v-10
		C-4.9,116.1-4.2,115.4-3.4,115.4z"/>
</g>
<g>
	<line marker-end="none" class="st1" x1="-9.4" y1="117.4" x2="-9.4" y2="126.6"/>
	<path class="st0" d="M-9.4,117.4L-9.4,117.4c0.9,0,1.6,0.7,1.6,1.6v6c0,0.9-0.7,1.6-1.6,1.6l0,0c-0.9,0-1.6-0.7-1.6-1.6v-6
		C-11,118.1-10.3,117.4-9.4,117.4z"/>
</g>
<g>
	<line marker-end="none" class="st1" x1="-15.5" y1="120.1" x2="-15.5" y2="123.9"/>
	<path class="st0" d="M-15.5,120.1L-15.5,120.1c0.9,0,1.6,0.7,1.6,1.6v0.6c0,0.9-0.7,1.6-1.6,1.6l0,0c-0.9,0-1.6-0.7-1.6-1.6v-0.6
		C-17.1,120.8-16.4,120.1-15.5,120.1z"/>
</g>
<g>
	<line marker-end="none" class="st1" x1="-21.6" y1="123.1" x2="-21.6" y2="120.9"/>
	<path class="st0" d="M-22,120.9h0.9c0.6,0,1.1,0.5,1.1,1.1l0,0c0,0.6-0.5,1.1-1.1,1.1H-22c-0.6,0-1.1-0.5-1.1-1.1l0,0
		C-23.1,121.4-22.6,120.9-22,120.9z"/>
</g>
<g>
	<line marker-end="none" class="st1" x1="-27.6" y1="126" x2="-27.6" y2="118"/>
	<path class="st0" d="M-27.6,118L-27.6,118c0.9,0,1.6,0.7,1.6,1.6v4.9c0,0.9-0.7,1.6-1.6,1.6l0,0c-0.9,0-1.6-0.7-1.6-1.6v-4.9
		C-29.2,118.7-28.5,118-27.6,118z"/>
</g>
<g>
	<line marker-end="none" class="st1" x1="-33.7" y1="128.2" x2="-33.7" y2="115.8"/>
	<path class="st0" d="M-33.7,115.8L-33.7,115.8c0.9,0,1.6,0.7,1.6,1.6v9.3c0,0.9-0.7,1.6-1.6,1.6l0,0c-0.9,0-1.6-0.7-1.6-1.6v-9.3
		C-35.3,116.5-34.6,115.8-33.7,115.8z"/>
</g>
<circle class="st2" cx="36.5" cy="53.4" r="14.7"/>
<g>
	<path class="st0" d="M-15.2,25.6L-15.2,25.6c-0.4-0.4-0.4-1,0-1.4l4.3-4.3c0.4-0.4,0.4-1,0-1.4l-4.1-4c-0.4-0.4-0.4-1,0-1.4l0,0
		c0.4-0.4,1-0.4,1.4,0l4.8,4.8c0.4,0.4,0.6,0.8,0.6,1.4c0,0.5-0.2,1-0.6,1.4l-5,5C-14.2,26-14.8,26-15.2,25.6z"/>
</g>
<g>
	<path class="st0" d="M-8.5,25.6L-8.5,25.6c-0.4-0.4-0.4-1,0-1.4l4.3-4.3c0.4-0.4,0.4-1,0-1.4l-4.1-4c-0.4-0.4-0.4-1,0-1.4l0,0
		c0.4-0.4,1-0.4,1.4,0l4.8,4.8c0.8,0.8,0.8,2,0,2.7l-5,5C-7.5,26-8.1,26-8.5,25.6z"/>
</g>
<path class="st0" d="M62.8,124.3l-1.2-1.9c-0.4-0.6,0-1.4,0.8-1.4h0.1c0.3,0,0.6,0.2,0.8,0.4l1.1,1.9l0,0l1.1-1.9
	c0.2-0.3,0.5-0.4,0.8-0.4l0,0c0.7,0,1.1,0.8,0.8,1.4l-1.2,1.9c-0.2,0.3-0.2,0.7,0,1l1.5,2.3c0.4,0.6-0.1,1.4-0.8,1.4h-0.2
	c-0.3,0-0.6-0.2-0.8-0.5l-1.2-2.2l0,0l-1.3,2.2c-0.2,0.3-0.5,0.4-0.8,0.4h-0.1c-0.7,0-1.1-0.8-0.8-1.4l1.5-2.3
	C63,125,63,124.6,62.8,124.3z"/>
<circle class="st0" cx="3.3" cy="74.5" r="0.5"/>
<circle class="st0" cx="4.9" cy="74.5" r="0.5"/>
<circle class="st0" cx="6.5" cy="74.5" r="0.5"/>
<path class="st0" d="M62.8,115.9l-1.2-1.9c-0.4-0.6,0-1.4,0.8-1.4h0.1c0.3,0,0.6,0.2,0.8,0.4l1.1,1.9l0,0l1.1-1.9
	c0.2-0.3,0.5-0.4,0.8-0.4l0,0c0.7,0,1.1,0.8,0.8,1.4l-1.2,1.9c-0.2,0.3-0.2,0.7,0,1l1.5,2.3c0.4,0.6-0.1,1.4-0.8,1.4h-0.2
	c-0.3,0-0.6-0.2-0.8-0.5l-1.2-2.2l0,0l-1.3,2.2c-0.2,0.3-0.5,0.4-0.8,0.4h-0.1c-0.7,0-1.1-0.8-0.8-1.4l1.5-2.3
	C63,116.6,63,116.2,62.8,115.9z"/>
<path class="st0" d="M62.8,124.3l-1.2-1.9c-0.4-0.6,0-1.4,0.8-1.4h0.1c0.3,0,0.6,0.2,0.8,0.4l1.1,1.9l0,0l1.1-1.9
	c0.2-0.3,0.5-0.4,0.8-0.4l0,0c0.7,0,1.1,0.8,0.8,1.4l-1.2,1.9c-0.2,0.3-0.2,0.7,0,1l1.5,2.3c0.4,0.6-0.1,1.4-0.8,1.4h-0.2
	c-0.3,0-0.6-0.2-0.8-0.5l-1.2-2.2l0,0l-1.3,2.2c-0.2,0.3-0.5,0.4-0.8,0.4h-0.1c-0.7,0-1.1-0.8-0.8-1.4l1.5-2.3
	C63,125,63,124.6,62.8,124.3z"/>
<path class="st0" d="M62.8,99.2l-1.2-1.9c-0.4-0.6,0-1.4,0.8-1.4h0.1c0.3,0,0.6,0.2,0.8,0.4l1.1,1.9l0,0l1.1-1.9
	c0.2-0.3,0.5-0.4,0.8-0.4l0,0c0.7,0,1.1,0.8,0.8,1.4l-1.2,1.9c-0.2,0.3-0.2,0.7,0,1l1.5,2.3c0.4,0.6-0.1,1.4-0.8,1.4h-0.2
	c-0.3,0-0.6-0.2-0.8-0.5l-1.2-2.2l0,0l-1.3,2.2c-0.2,0.3-0.5,0.4-0.8,0.4h-0.1c-0.7,0-1.1-0.8-0.8-1.4l1.5-2.3
	C63,99.9,63,99.5,62.8,99.2z"/>
<path class="st0" d="M62.8,107.6l-1.2-1.9c-0.4-0.6,0-1.4,0.8-1.4h0.1c0.3,0,0.6,0.2,0.8,0.4l1.1,1.9l0,0l1.1-1.9
	c0.2-0.3,0.5-0.4,0.8-0.4l0,0c0.7,0,1.1,0.8,0.8,1.4l-1.2,1.9c-0.2,0.3-0.2,0.7,0,1l1.5,2.3c0.4,0.6-0.1,1.4-0.8,1.4h-0.2
	c-0.3,0-0.6-0.2-0.8-0.5l-1.2-2.2l0,0l-1.3,2.2c-0.2,0.3-0.5,0.4-0.8,0.4h-0.1c-0.7,0-1.1-0.8-0.8-1.4l1.5-2.3
	C63,108.2,63,107.9,62.8,107.6z"/>
<path class="st0" d="M62.8,107.6l-1.2-1.9c-0.4-0.6,0-1.4,0.8-1.4h0.1c0.3,0,0.6,0.2,0.8,0.4l1.1,1.9l0,0l1.1-1.9
	c0.2-0.3,0.5-0.4,0.8-0.4l0,0c0.7,0,1.1,0.8,0.8,1.4l-1.2,1.9c-0.2,0.3-0.2,0.7,0,1l1.5,2.3c0.4,0.6-0.1,1.4-0.8,1.4h-0.2
	c-0.3,0-0.6-0.2-0.8-0.5l-1.2-2.2l0,0l-1.3,2.2c-0.2,0.3-0.5,0.4-0.8,0.4h-0.1c-0.7,0-1.1-0.8-0.8-1.4l1.5-2.3
	C63,108.2,63,107.9,62.8,107.6z"/>
<g>
	<g>
		<defs>
			<rect id="SVGID_1_" x="-53.1" y="73.8" width="33.3" height="33.3"/>
		</defs>
		<clipPath id="SVGID_2_">
			<use xlink:href="#SVGID_1_"  style="overflow:visible;"/>
		</clipPath>
		<g class="st3">
			<polygon class="st0" points="-15.6,76.6 -22.6,69.6 -36.5,83.5 -50.3,69.6 -57.3,76.6 -43.4,90.4 -57.3,104.3 -50.3,111.3 
				-36.5,97.4 -22.6,111.3 -15.6,104.3 -29.5,90.4 			"/>
		</g>
	</g>
</g>
<g>
	<path d="M2.4,70.2v-5.9c0-1.6,0.4-2.8,1.2-3.6c0.8-0.8,1.9-1.3,3.2-1.3c2.5,0,4.3,1.8,4.3,4.5V67h4.4v3.3H2.4V70.2z M8.6,64.5
		c0-1.2-0.7-1.8-1.8-1.8c-1.1,0-1.7,0.7-1.7,1.8v2.4h3.4L8.6,64.5L8.6,64.5z"/>
	<path d="M8.7,55.6l-6.3,4v-3.7l3.8-2.2l0,0l-3.8-2.4v-3.5l6.2,3.9l6.9-4.4v3.9L11,53.7l0,0l4.5,2.6V60L8.7,55.6z"/>
	<path d="M2.4,46.4v-3.3h10.4v-5.9h2.8v9.2H2.4z"/>
</g>
<g>
	<rect x="-71.4" y="69.8" class="st0" width="15" height="0.4"/>
</g>
<g>
	<rect x="-71.4" y="66.9" class="st0" width="15" height="1.3"/>
</g>
<g>
	<rect x="-71.4" y="64.9" class="st0" width="15" height="0.3"/>
</g>
<g>
	<rect x="-71.4" y="61.3" class="st0" width="15" height="2.5"/>
</g>
<g>
	<rect x="-71.4" y="59.7" class="st0" width="15" height="0.6"/>
</g>
<g>
	<rect x="-71.4" y="56.8" class="st0" width="15" height="1.5"/>
</g>
<g>
	<rect x="-71.4" y="54.5" class="st0" width="15" height="1"/>
</g>
<g>
	<rect x="-71.4" y="50.9" class="st0" width="15" height="3.1"/>
</g>
<g>
	<rect x="-71.4" y="49.9" class="st0" width="15" height="0.3"/>
</g>
<g>
	<rect x="-71.4" y="46.9" class="st0" width="15" height="1.3"/>
</g>
<g>
	<rect x="-71.4" y="44" class="st0" width="15" height="2"/>
</g>
<g>
	<rect x="-71.4" y="41.5" class="st0" width="15" height="2"/>
</g>
<g>
	<rect x="-71.4" y="39.8" class="st0" width="15" height="0.4"/>
</g>
<g>
	<rect x="-71.4" y="36.9" class="st0" width="15" height="1.6"/>
</g>
<g>
	<rect x="61.2" y="92.2" class="st0" width="6.1" height="0.6"/>
</g>
<g>
	<rect x="61.2" y="87.3" class="st0" width="6.1" height="2.1"/>
</g>
<g>
	<rect x="61.2" y="83.9" class="st0" width="6.1" height="0.4"/>
</g>
<g>
	<rect x="61.2" y="77.8" class="st0" width="6.1" height="4.2"/>
</g>
<g>
	<rect x="61.2" y="75.2" class="st0" width="6.1" height="1"/>
</g>
<g>
	<rect x="61.2" y="70.3" class="st0" width="6.1" height="2.5"/>
</g>
<g>
	<rect x="61.2" y="66.6" class="st0" width="6.1" height="1.7"/>
</g>
<g>
	<rect x="61.2" y="60.6" class="st0" width="6.1" height="5.2"/>
</g>
<g>
	<rect x="61.2" y="58.8" class="st0" width="6.1" height="0.4"/>
</g>
<g>
	<rect x="61.2" y="53.8" class="st0" width="6.1" height="2.1"/>
</g>
<g>
	<rect x="61.2" y="49" class="st0" width="6.1" height="3.3"/>
</g>
<g>
	<rect x="61.2" y="44.8" class="st0" width="6.1" height="3.3"/>
</g>
<g>
	<rect x="61.2" y="42" class="st0" width="6.1" height="0.6"/>
</g>
<g>
	<rect x="61.2" y="37.2" class="st0" width="6.1" height="2.7"/>
</g>
<g>
	<rect x="61.2" y="92.2" class="st0" width="6.1" height="0.6"/>
</g>
<g>
	<rect x="61.2" y="87.3" class="st0" width="6.1" height="2.1"/>
</g>
<g>
	<rect x="61.2" y="83.9" class="st0" width="6.1" height="0.4"/>
</g>
<g>
	<rect x="61.2" y="77.8" class="st0" width="6.1" height="4.2"/>
</g>
<g>
	<rect x="61.2" y="75.2" class="st0" width="6.1" height="1"/>
</g>
<g>
	<rect x="61.2" y="70.3" class="st0" width="6.1" height="2.5"/>
</g>
<g>
	<rect x="61.2" y="66.6" class="st0" width="6.1" height="1.7"/>
</g>
<g>
	<rect x="61.2" y="60.6" class="st0" width="6.1" height="5.2"/>
</g>
<g>
	<rect x="61.2" y="58.8" class="st0" width="6.1" height="0.4"/>
</g>
<g>
	<rect x="61.2" y="53.8" class="st0" width="6.1" height="2.1"/>
</g>
<g>
	<rect x="61.2" y="49" class="st0" width="6.1" height="3.3"/>
</g>
<g>
	<rect x="61.2" y="44.8" class="st0" width="6.1" height="3.3"/>
</g>
<g>
	<rect x="61.2" y="42" class="st0" width="6.1" height="0.6"/>
</g>
<g>
	<rect x="61.2" y="37.2" class="st0" width="6.1" height="2.7"/>
</g>
<path class="st0" d="M2.4,70.2v-5.9c0-1.6,0.4-2.8,1.2-3.6c0.8-0.8,1.9-1.3,3.2-1.3c2.5,0,4.3,1.8,4.3,4.5V67h4.4v3.3H2.4V70.2z
	 M8.6,64.5c0-1.2-0.7-1.8-1.8-1.8c-1.1,0-1.7,0.7-1.7,1.8v2.4h3.4L8.6,64.5L8.6,64.5z"/>
<path class="st0" d="M8.7,55.6l-6.3,4v-3.7l3.8-2.2l0,0l-3.8-2.4v-3.5l6.2,3.9l6.9-4.4v3.9L11,53.7l0,0l4.5,2.6V60L8.7,55.6z"/>
<path class="st0" d="M2.4,46.4v-3.3h10.4v-5.9h2.8v9.2H2.4z"/>
<rect x="-53" y="135" class="st0" width="1.1" height="8.9"/>
<rect x="-50.1" y="137.2" class="st0" width="1.1" height="6.7"/>
<rect x="-47.1" y="141.7" class="st0" width="1.1" height="2.2"/>
<rect x="-44.1" y="139.5" class="st0" width="1.1" height="4.5"/>
<rect x="-41.1" y="135" class="st0" width="1.1" height="8.9"/>
<rect x="-38.1" y="139.5" class="st0" width="1.1" height="4.5"/>
<rect x="-35.1" y="141.7" class="st0" width="1.1" height="2.2"/>
<rect x="-32.2" y="137.2" class="st0" width="1.1" height="6.7"/>
<rect x="-29.2" y="135" class="st0" width="1.1" height="8.9"/>
<rect x="-26.2" y="139.5" class="st0" width="1.1" height="4.5"/>
<rect x="-23.2" y="141.7" class="st0" width="1.1" height="2.2"/>
<rect x="-20.2" y="137.2" class="st0" width="1.1" height="6.7"/>
<rect x="-17.2" y="135" class="st0" width="1.1" height="8.9"/>
<circle class="st0" cx="39.6" cy="127.1" r="0.5"/>
<circle class="st0" cx="43.1" cy="127.1" r="0.5"/>
<circle class="st0" cx="39.6" cy="125.4" r="0.5"/>
<circle class="st0" cx="43.1" cy="125.4" r="0.5"/>
<circle class="st0" cx="44.8" cy="125.4" r="0.5"/>
<circle class="st0" cx="39.6" cy="123.6" r="0.5"/>
<circle class="st0" cx="41.4" cy="123.6" r="0.5"/>
<circle class="st0" cx="43.1" cy="123.6" r="0.5"/>
<circle class="st0" cx="41.4" cy="121.9" r="0.5"/>
<circle class="st0" cx="41.4" cy="118.2" r="0.5"/>
<circle class="st0" cx="44.8" cy="118.2" r="0.5"/>
<circle class="st0" cx="39.6" cy="116.4" r="0.5"/>
<circle class="st0" cx="41.4" cy="116.4" r="0.5"/>
<circle class="st0" cx="43.1" cy="116.4" r="0.5"/>
<circle class="st0" cx="43.1" cy="114.7" r="0.5"/>
<circle class="st0" cx="44.8" cy="114.7" r="0.5"/>
<circle class="st0" cx="39.6" cy="113" r="0.5"/>
<circle class="st0" cx="41.4" cy="113" r="0.5"/>
<circle class="st0" cx="44.8" cy="113" r="0.5"/>
<circle class="st0" cx="39.6" cy="111.2" r="0.5"/>
<circle class="st0" cx="41.4" cy="111.2" r="0.5"/>
<circle class="st0" cx="43.1" cy="111.2" r="0.5"/>
<circle class="st0" cx="53.4" cy="116.7" r="0.5"/>
<circle class="st0" cx="49.9" cy="116.7" r="0.5"/>
<circle class="st0" cx="53.4" cy="114.9" r="0.5"/>
<circle class="st0" cx="49.9" cy="114.9" r="0.5"/>
<circle class="st0" cx="48.2" cy="114.9" r="0.5"/>
<circle class="st0" cx="53.4" cy="113.2" r="0.5"/>
<circle class="st0" cx="51.7" cy="113.2" r="0.5"/>
<circle class="st0" cx="49.9" cy="113.2" r="0.5"/>
<circle class="st0" cx="51.7" cy="111.4" r="0.5"/>
<circle class="st0" cx="51.7" cy="120.1" r="0.5"/>
<circle class="st0" cx="48.2" cy="120.1" r="0.5"/>
<circle class="st0" cx="53.4" cy="121.9" r="0.5"/>
<circle class="st0" cx="51.7" cy="121.9" r="0.5"/>
<circle class="st0" cx="49.9" cy="121.9" r="0.5"/>
<circle class="st0" cx="49.9" cy="123.6" r="0.5"/>
<circle class="st0" cx="48.2" cy="123.6" r="0.5"/>
<circle class="st0" cx="53.4" cy="125.4" r="0.5"/>
<circle class="st0" cx="51.7" cy="125.4" r="0.5"/>
<circle class="st0" cx="48.2" cy="125.4" r="0.5"/>
<circle class="st0" cx="53.4" cy="127.1" r="0.5"/>
<circle class="st0" cx="51.7" cy="127.1" r="0.5"/>
<circle class="st0" cx="49.9" cy="127.1" r="0.5"/>
<circle class="st0" cx="53.4" cy="128.6" r="0.5"/>
<circle class="st0" cx="41.4" cy="128.6" r="0.5"/>
<circle class="st0" cx="43.1" cy="128.6" r="0.5"/>
<circle class="st0" cx="44.8" cy="128.6" r="0.5"/>
<circle class="st0" cx="-60.6" cy="30.7" r="0.5"/>
<circle class="st0" cx="-60.6" cy="27.2" r="0.5"/>
<circle class="st0" cx="-62.4" cy="32.4" r="0.5"/>
<circle class="st0" cx="-62.4" cy="30.7" r="0.5"/>
<circle class="st0" cx="-62.4" cy="28.9" r="0.5"/>
<circle class="st0" cx="-64.1" cy="28.9" r="0.5"/>
<circle class="st0" cx="-64.1" cy="27.2" r="0.5"/>
<circle class="st0" cx="-65.8" cy="32.4" r="0.5"/>
<circle class="st0" cx="-65.8" cy="30.7" r="0.5"/>
<circle class="st0" cx="-65.8" cy="27.2" r="0.5"/>
<circle class="st0" cx="-67.6" cy="30.7" r="0.5"/>
<circle class="st0" cx="-67.6" cy="28.9" r="0.5"/>
<path class="st0" d="M17,141v0.7c0,1.2-0.9,2.1-2.1,2.1H2.2v-0.7c0-1.2,0.9-2.1,2.1-2.1H17z"/>
<line class="st4" x1="40.1" y1="-0.1" x2="40.1" y2="6.5"/>
<line class="st5" x1="42.7" y1="-0.1" x2="42.7" y2="6.5"/>
<line class="st6" x1="45.4" y1="-0.1" x2="45.4" y2="6.5"/>
<line class="st7" x1="48.1" y1="-0.1" x2="48.1" y2="6.5"/>
<line class="st8" x1="50.8" y1="-0.1" x2="50.8" y2="6.5"/>
<line class="st5" x1="53.4" y1="-0.1" x2="53.4" y2="6.5"/>
<line class="st4" x1="39.1" y1="-0.1" x2="39.1" y2="6.5"/>
<line class="st5" x1="41.8" y1="-0.1" x2="41.8" y2="6.5"/>
<line class="st6" x1="44.5" y1="-0.1" x2="44.5" y2="6.5"/>
<line class="st7" x1="47.1" y1="-0.1" x2="47.1" y2="6.5"/>
<line class="st8" x1="49.8" y1="-0.1" x2="49.8" y2="6.5"/>
<line class="st5" x1="52.5" y1="-0.1" x2="52.5" y2="6.5"/>
<path class="st0" d="M34.3,93.2c-0.9-0.7-1.6-0.7-2.3-0.5c-0.1,0-0.3,0-0.4-0.1l-4.9-4.9c-0.1-0.1-0.1-0.2-0.1-0.4
	c0.2-0.6,0.2-1.2-0.2-1.9c-0.4-0.8-1.2-1.4-2.1-1.5c-1.7-0.2-3.1,1.3-2.9,2.9c0.1,0.9,0.7,1.7,1.5,2.1c0.7,0.4,1.3,0.4,1.9,0.2
	c0.1,0,0.3,0,0.4,0.1l4.9,4.9c0.1,0.1,0.1,0.2,0.1,0.4c-0.1,0.5-0.2,1,0,1.6c0.3,0.9,1.1,1.6,2.1,1.8c1.8,0.3,3.4-1.3,3.1-3.1
	C35.2,94.2,34.8,93.6,34.3,93.2z"/>
<path class="st0" d="M22.4,102c0.9-0.7,1.6-0.7,2.3-0.5c0.1,0,0.3,0,0.4-0.1l4.9-4.9c0.1-0.1,0.1-0.2,0.1-0.4
	c-0.2-0.6-0.2-1.2,0.2-1.9c0.4-0.8,1.2-1.4,2.1-1.5c1.7-0.2,3.1,1.3,2.9,2.9c-0.1,0.9-0.7,1.7-1.5,2.1c-0.7,0.4-1.3,0.4-1.9,0.2
	c-0.1,0-0.3,0-0.4,0.1l-4.9,4.9c-0.1,0.1-0.1,0.2-0.1,0.4c0.1,0.5,0.2,1,0,1.6c-0.3,0.9-1.1,1.6-2.1,1.8c-1.8,0.3-3.4-1.3-3.1-3.1
	C21.4,102.9,21.8,102.4,22.4,102z"/>
<path class="st0" d="M40.5,84c0.9-0.7,1.7-0.7,2.4-0.6c0.1,0,0.3,0,0.4-0.1l5.1-5.1c0.1-0.1,0.1-0.2,0.1-0.4c-0.2-0.6-0.2-1.2,0.2-2
	c0.4-0.8,1.3-1.4,2.2-1.5c1.8-0.2,3.2,1.3,3,3c-0.1,0.9-0.7,1.7-1.5,2.2c-0.7,0.4-1.4,0.4-2,0.2c-0.1,0-0.3,0-0.4,0.1l-5.1,5.1
	c-0.1,0.1-0.1,0.3-0.1,0.4c0.2,0.5,0.2,1.1,0,1.7c-0.3,0.9-1.2,1.7-2.2,1.8c-1.9,0.3-3.5-1.3-3.2-3.2C39.6,85,40,84.4,40.5,84z"/>
<path class="st0" d="M52.8,93c-0.9-0.7-1.7-0.7-2.4-0.6c-0.1,0-0.3,0-0.4-0.1l-5.1-5.1c-0.1-0.1-0.1-0.2-0.1-0.4
	c0.2-0.6,0.2-1.2-0.2-2c-0.4-0.8-1.3-1.4-2.2-1.5c-1.8-0.2-3.2,1.3-3,3c0.1,0.9,0.7,1.7,1.5,2.2c0.7,0.4,1.4,0.4,2,0.2
	c0.1,0,0.3,0,0.4,0.1l5.1,5.2c0.1,0.1,0.1,0.3,0.1,0.4c-0.2,0.5-0.2,1.1,0,1.7c0.3,0.9,1.2,1.7,2.2,1.8c1.9,0.3,3.5-1.3,3.2-3.2
	C53.8,94,53.3,93.5,52.8,93z"/>
<path class="st0" d="M-41.1,38c-0.7,1-0.8,1.8-0.6,2.5c0,0.1,0,0.3-0.1,0.4l-5.5,5.5c-0.1,0.1-0.3,0.1-0.4,0.1
	c-0.6-0.2-1.3-0.2-2.1,0.2c-0.9,0.5-1.6,1.4-1.6,2.4c-0.2,1.9,1.4,3.5,3.3,3.3c1-0.1,1.9-0.8,2.4-1.6c0.4-0.8,0.4-1.5,0.2-2.1
	c0-0.1,0-0.3,0.1-0.4l5.5-5.5c0.1-0.1,0.3-0.1,0.4-0.1c0.6,0.2,1.2,0.2,1.8-0.1c1-0.4,1.8-1.3,2-2.3c0.3-2-1.4-3.8-3.5-3.4
	C-40.1,37-40.7,37.4-41.1,38z"/>
<path class="st0" d="M-31.4,51.2c-0.7-1-0.8-1.8-0.6-2.5c0-0.1,0-0.3-0.1-0.4l-5.5-5.5c-0.1-0.1-0.3-0.1-0.4-0.1
	c-0.6,0.2-1.3,0.2-2.1-0.2c-0.9-0.5-1.6-1.4-1.6-2.4c-0.2-1.9,1.4-3.5,3.3-3.3c1,0.1,1.9,0.8,2.4,1.6c0.4,0.8,0.4,1.5,0.2,2.1
	c0,0.1,0,0.3,0.1,0.4l5.5,5.5c0.1,0.1,0.3,0.1,0.4,0.1c0.6-0.2,1.2-0.2,1.8,0.1c1,0.4,1.8,1.3,2,2.3c0.3,2-1.4,3.8-3.5,3.4
	C-30.3,52.3-31,51.8-31.4,51.2z"/>
<path class="st0" d="M-41.1,51.2c-0.7-1-0.8-1.8-0.6-2.5c0-0.1,0-0.3-0.1-0.4l-5.5-5.5c-0.1-0.1-0.3-0.1-0.4-0.1
	c-0.6,0.2-1.3,0.2-2.1-0.2c-0.9-0.5-1.6-1.4-1.6-2.4c-0.2-1.9,1.4-3.5,3.3-3.3c1,0.1,1.9,0.8,2.4,1.6c0.4,0.8,0.4,1.5,0.2,2.1
	c0,0.1,0,0.3,0.1,0.4l5.5,5.5c0.1,0.1,0.3,0.1,0.4,0.1c0.6-0.2,1.2-0.2,1.8,0.1c1,0.4,1.8,1.3,2,2.3c0.3,2-1.4,3.8-3.5,3.4
	C-40.1,52.3-40.7,51.8-41.1,51.2z"/>
<path class="st0" d="M-31.4,38c-0.7,1-0.8,1.8-0.6,2.5c0,0.1,0,0.3-0.1,0.4l-5.5,5.5c-0.1,0.1-0.3,0.1-0.4,0.1
	c-0.6-0.2-1.3-0.2-2.1,0.2c-0.9,0.5-1.6,1.4-1.6,2.4c-0.2,1.9,1.4,3.5,3.3,3.3c1-0.1,1.9-0.8,2.4-1.6c0.4-0.8,0.4-1.5,0.2-2.1
	c0-0.1,0-0.3,0.1-0.4l5.5-5.5c0.1-0.1,0.3-0.1,0.4-0.1c0.6,0.2,1.2,0.2,1.8-0.1c1-0.4,1.8-1.3,2-2.3c0.3-2-1.4-3.8-3.5-3.4
	C-30.3,37-31,37.4-31.4,38z"/>
<path class="st0" d="M-21.1,38c-0.7,1-0.8,1.8-0.6,2.5c0,0.1,0,0.3-0.1,0.4l-5.5,5.5c-0.1,0.1-0.3,0.1-0.4,0.1
	c-0.6-0.2-1.3-0.2-2.1,0.2c-0.9,0.5-1.6,1.4-1.6,2.4c-0.2,1.9,1.4,3.5,3.3,3.3c1-0.1,1.9-0.8,2.4-1.6c0.4-0.8,0.4-1.5,0.2-2.1
	c0-0.1,0-0.3,0.1-0.4l5.5-5.5c0.1-0.1,0.3-0.1,0.4-0.1c0.6,0.2,1.2,0.2,1.8-0.1c1-0.4,1.8-1.3,2-2.3c0.3-2-1.4-3.8-3.5-3.4
	C-20.1,37-20.7,37.4-21.1,38z"/>
<path class="st0" d="M-11.4,51.2c-0.7-1-0.8-1.8-0.6-2.5c0-0.1,0-0.3-0.1-0.4l-5.5-5.5c-0.1-0.1-0.3-0.1-0.4-0.1
	c-0.6,0.2-1.3,0.2-2.1-0.2c-0.9-0.5-1.6-1.4-1.6-2.4c-0.2-1.9,1.4-3.5,3.3-3.3c1,0.1,1.9,0.8,2.4,1.6c0.4,0.8,0.4,1.5,0.2,2.1
	c0,0.1,0,0.3,0.1,0.4l5.5,5.5c0.1,0.1,0.3,0.1,0.4,0.1c0.6-0.2,1.2-0.2,1.8,0.1c1,0.4,1.8,1.3,2,2.3c0.3,2-1.4,3.8-3.5,3.4
	C-10.3,52.3-11,51.8-11.4,51.2z"/>
<path class="st0" d="M-21.1,51.2c-0.7-1-0.8-1.8-0.6-2.5c0-0.1,0-0.3-0.1-0.4l-5.5-5.5c-0.1-0.1-0.3-0.1-0.4-0.1
	c-0.6,0.2-1.3,0.2-2.1-0.2c-0.9-0.5-1.6-1.4-1.6-2.4c-0.2-1.9,1.4-3.5,3.3-3.3c1,0.1,1.9,0.8,2.4,1.6c0.4,0.8,0.4,1.5,0.2,2.1
	c0,0.1,0,0.3,0.1,0.4l5.5,5.5c0.1,0.1,0.3,0.1,0.4,0.1c0.6-0.2,1.2-0.2,1.8,0.1c1,0.4,1.8,1.3,2,2.3c0.3,2-1.4,3.8-3.5,3.4
	C-20.1,52.3-20.7,51.8-21.1,51.2z"/>
<path class="st0" d="M-11.4,38c-0.7,1-0.8,1.8-0.6,2.5c0,0.1,0,0.3-0.1,0.4l-5.5,5.5c-0.1,0.1-0.3,0.1-0.4,0.1
	c-0.6-0.2-1.3-0.2-2.1,0.2c-0.9,0.5-1.6,1.4-1.6,2.4c-0.2,1.9,1.4,3.5,3.3,3.3c1-0.1,1.9-0.8,2.4-1.6c0.4-0.8,0.4-1.5,0.2-2.1
	c0-0.1,0-0.3,0.1-0.4l5.5-5.5c0.1-0.1,0.3-0.1,0.4-0.1c0.6,0.2,1.2,0.2,1.8-0.1c1-0.4,1.8-1.3,2-2.3c0.3-2-1.4-3.8-3.5-3.4
	C-10.3,37-11,37.4-11.4,38z"/>
<g>
	<path class="st0" d="M62.9,23.5l2.2,2.2c0.2,0.2,0.6,0.2,0.9,0l0.2-0.2c0.6-0.6,0.6-1.6,0-2.3l-1.6-1.6c-0.3-0.3-0.6-0.8-0.7-1.2
		c-0.2-0.9,0.1-1.7,0.7-2.3l1.1-1.1c0.9-0.9,1.5-2.1,1.6-3.4c0.1-1.4-0.5-2.7-1.4-3.7l-2.3-2.3c-0.3-0.3-0.7-0.3-0.9,0l-0.3,0.2
		c-0.6,0.6-0.6,1.6,0,2.2l1.6,1.6c0.3,0.3,0.6,0.8,0.7,1.2c0.2,0.9-0.1,1.7-0.7,2.3l-1.3,1.2c-1,1-1.5,2.3-1.5,3.7
		C61.3,21.3,61.9,22.5,62.9,23.5z"/>
</g>
<path class="st0" d="M82.2,95.4L82.2,95.4c0,1.2-0.9,2.1-2.1,2.1l0,0c-1.2,0-2.1-0.9-2.1-2.1l0,0c0-1.2,0.9-2.1,2.1-2.1l0,0
	C81.3,93.3,82.2,94.2,82.2,95.4z"/>
<path class="st0" d="M93.5,70.2L93.5,70.2c-1.6,0-2.8-0.6-2.3-1.2l8.1-12c0.3-0.4,1.2-0.7,2.3-0.7l0,0c1.6,0,2.8,0.6,2.3,1.2
	l-8.1,11.9C95.6,69.9,94.6,70.2,93.5,70.2z"/>
<path class="st0" d="M100.3,70.2L100.3,70.2c-1.6,0-2.8-0.6-2.3-1.2l8-12c0.3-0.4,1.2-0.7,2.3-0.7l0,0c1.6,0,2.8,0.6,2.3,1.2l-8,12
	C102.4,69.9,101.4,70.2,100.3,70.2z"/>
<path class="st0" d="M107.1,70.2L107.1,70.2c-1.6,0-2.8-0.6-2.3-1.2l8-12c0.3-0.4,1.2-0.7,2.3-0.7l0,0c1.6,0,2.8,0.6,2.3,1.2
	l-8.1,11.9C109.1,69.9,108.2,70.2,107.1,70.2z"/>
<path class="st0" d="M113.8,70.2L113.8,70.2c-1.6,0-2.8-0.6-2.3-1.2l8.1-12c0.3-0.4,1.2-0.7,2.3-0.7l0,0c1.6,0,2.8,0.6,2.3,1.2
	l-8.1,11.9C115.9,69.9,114.9,70.2,113.8,70.2z"/>
<path class="st0" d="M104,25.9H93c-1.1,0-1.9-0.9-1.9-1.9v-0.3c0-1.1,0.9-1.9,1.9-1.9h11c1.1,0,1.9,0.9,1.9,1.9V24
	C105.9,25.1,105,25.9,104,25.9z"/>
<path class="st0" d="M194.8,19.6h-8.2c-1.8,0-3.3,1.5-3.3,3.3l0,0c0,1.8,1.5,3.3,3.3,3.3h8.2c1.8,0,3.3-1.5,3.3-3.3l0,0
	C198.1,21.1,196.7,19.6,194.8,19.6z M194.8,24.5c-0.9,0-1.7-0.7-1.7-1.7c0-0.9,0.7-1.7,1.7-1.7s1.7,0.7,1.7,1.7
	S195.8,24.5,194.8,24.5z"/>
<path class="st0" d="M82.2,90.1L82.2,90.1c0,1.2-0.9,2.1-2.1,2.1l0,0c-1.2,0-2.1-0.9-2.1-2.1l0,0c0-1.2,0.9-2.1,2.1-2.1l0,0
	C81.3,88,82.2,88.9,82.2,90.1z"/>
<path class="st0" d="M82.2,84.8L82.2,84.8c0,1.2-0.9,2.1-2.1,2.1l0,0c-1.2,0-2.1-0.9-2.1-2.1l0,0c0-1.2,0.9-2.1,2.1-2.1l0,0
	C81.3,82.7,82.2,83.6,82.2,84.8z"/>
<rect x="73" y="139.8" class="st0" width="14.6" height="4.1"/>
<rect x="73" y="134.8" class="st0" width="14.6" height="4.1"/>
<circle class="st0" cx="100.3" cy="1.3" r="1.4"/>
<circle class="st0" cx="100.3" cy="5.3" r="1.4"/>
<circle class="st0" cx="100.3" cy="9.3" r="1.4"/>
<circle class="st0" cx="96.3" cy="1.3" r="1.4"/>
<circle class="st0" cx="96.3" cy="9.3" r="1.4"/>
<circle class="st0" cx="92.3" cy="1.3" r="1.4"/>
<circle class="st0" cx="92.3" cy="5.3" r="1.4"/>
<circle class="st0" cx="92.3" cy="9.3" r="1.4"/>
<circle class="st0" cx="85.8" cy="1.3" r="1.4"/>
<circle class="st0" cx="85.8" cy="5.3" r="1.4"/>
<circle class="st0" cx="85.8" cy="9.3" r="1.4"/>
<circle class="st0" cx="81.8" cy="1.3" r="1.4"/>
<circle class="st0" cx="81.8" cy="9.3" r="1.4"/>
<circle class="st0" cx="77.8" cy="1.3" r="1.4"/>
<circle class="st0" cx="77.8" cy="9.3" r="1.4"/>
<circle class="st0" cx="100.3" cy="13.3" r="1.4"/>
<circle class="st0" cx="92.3" cy="13.3" r="1.4"/>
<circle class="st0" cx="81.8" cy="13.3" r="1.4"/>
<circle class="st0" cx="77.8" cy="13.3" r="1.4"/>
<circle class="st0" cx="73.8" cy="1.3" r="1.4"/>
<circle class="st0" cx="73.8" cy="5.3" r="1.4"/>
<circle class="st0" cx="73.8" cy="13.3" r="1.4"/>
<circle class="st0" cx="104.3" cy="5.3" r="1.4"/>
<circle class="st0" cx="104.3" cy="13.3" r="1.4"/>
<circle class="st0" cx="192.8" cy="13.3" r="1.4"/>
<circle class="st0" cx="188.9" cy="13.3" r="1.4"/>
<circle class="st0" cx="184.9" cy="13.3" r="1.4"/>
<circle class="st0" cx="196.8" cy="13.3" r="1.4"/>
<g>
	<path class="st0" d="M133.3,85.5h-4.4c-0.5,0-0.9,0.4-0.9,0.9v4.4c0,0.5,0.4,0.9,0.9,0.9h0.6v5.6c0,0.4,0.3,0.7,0.7,0.7h1.7
		c0.4,0,0.7-0.3,0.7-0.7v-5.6h0.6c0.5,0,0.9-0.4,0.9-0.9v-4.4C134.3,85.9,133.9,85.5,133.3,85.5z"/>
	<circle class="st0" cx="131.1" cy="83.7" r="1.5"/>
</g>
<path class="st0" d="M212,137.2L212,137.2c0.3,0,0.6,0.2,0.8,0.5l2.6,4.5c0.4,0.6-0.1,1.4-0.8,1.4l0,0c-0.3,0-0.6-0.2-0.8-0.5
	l-2.6-4.5C210.8,138,211.2,137.2,212,137.2z"/>
<path class="st0" d="M208.1,137.2L208.1,137.2c0.3,0,0.6,0.2,0.8,0.5l2.6,4.5c0.4,0.6-0.1,1.4-0.8,1.4l0,0c-0.3,0-0.6-0.2-0.8-0.5
	l-2.6-4.5C206.9,138,207.4,137.2,208.1,137.2z"/>
<path class="st0" d="M203.9,137.2L203.9,137.2c0.3,0,0.6,0.2,0.8,0.5l2.6,4.5c0.4,0.6-0.1,1.4-0.8,1.4l0,0c-0.3,0-0.6-0.2-0.8-0.5
	l-2.6-4.5C202.8,138,203.2,137.2,203.9,137.2z"/>
<path class="st0" d="M200,137.2L200,137.2c0.3,0,0.6,0.2,0.8,0.5l2.6,4.5c0.4,0.6-0.1,1.4-0.8,1.4l0,0c-0.3,0-0.6-0.2-0.8-0.5
	l-2.6-4.5C198.9,138,199.3,137.2,200,137.2z"/>
<path class="st0" d="M196.2,137.2L196.2,137.2c0.3,0,0.6,0.2,0.8,0.5l2.6,4.5c0.4,0.6-0.1,1.4-0.8,1.4l0,0c-0.3,0-0.6-0.2-0.8-0.5
	l-2.6-4.5C195,138,195.4,137.2,196.2,137.2z"/>
<path class="st0" d="M192.3,137.2L192.3,137.2c0.3,0,0.6,0.2,0.8,0.5l2.6,4.5c0.4,0.6-0.1,1.4-0.8,1.4l0,0c-0.3,0-0.6-0.2-0.8-0.5
	l-2.6-4.5C191.1,138,191.6,137.2,192.3,137.2z"/>
<path class="st0" d="M188.4,137.2L188.4,137.2c0.3,0,0.6,0.2,0.8,0.5l2.6,4.5c0.4,0.6-0.1,1.4-0.8,1.4l0,0c-0.3,0-0.6-0.2-0.8-0.5
	l-2.6-4.5C187.2,138,187.7,137.2,188.4,137.2z"/>
<path class="st0" d="M184.5,137.2L184.5,137.2c0.3,0,0.6,0.2,0.8,0.5l2.6,4.5c0.4,0.6-0.1,1.4-0.8,1.4l0,0c-0.3,0-0.6-0.2-0.8-0.5
	l-2.6-4.5C183.4,138,183.8,137.2,184.5,137.2z"/>
<g>
	<rect x="146.8" y="-0.4" class="st0" width="25.8" height="0.8"/>
</g>
<g>
	<rect x="146.8" y="1.8" class="st0" width="19.3" height="0.8"/>
</g>
<g>
	<rect x="146.8" y="3.9" class="st0" width="6.4" height="0.8"/>
</g>
<g>
	<rect x="146.8" y="6.1" class="st0" width="12.9" height="0.8"/>
</g>
<g>
	<rect x="146.8" y="8.2" class="st0" width="25.8" height="0.8"/>
</g>
<g>
	<rect x="146.8" y="10.3" class="st0" width="12.9" height="0.8"/>
</g>
<g>
	<rect x="146.8" y="12.5" class="st0" width="6.4" height="0.8"/>
</g>
<g>
	<rect x="146.8" y="14.6" class="st0" width="19.3" height="0.8"/>
</g>
<g>
	<rect x="146.8" y="16.8" class="st0" width="25.8" height="0.8"/>
</g>
<g>
	<rect x="146.8" y="18.9" class="st0" width="12.9" height="0.8"/>
</g>
<g>
	<rect x="146.8" y="21.1" class="st0" width="6.4" height="0.8"/>
</g>
<g>
	<rect x="146.8" y="23.2" class="st0" width="19.3" height="0.8"/>
</g>
<g>
	<rect x="146.8" y="25.4" class="st0" width="25.8" height="0.8"/>
</g>
<g>
	<path class="st0" d="M141.9,85.5h-4.4c-0.5,0-0.9,0.4-0.9,0.9v4.4c0,0.5,0.4,0.9,0.9,0.9h0.6v5.6c0,0.4,0.3,0.7,0.7,0.7h1.7
		c0.4,0,0.7-0.3,0.7-0.7v-5.6h0.6c0.5,0,0.9-0.4,0.9-0.9v-4.4C142.8,85.9,142.4,85.5,141.9,85.5z"/>
	<circle class="st0" cx="139.7" cy="83.7" r="1.5"/>
</g>
<g>
	<rect x="72.8" y="69.8" class="st0" width="15" height="0.4"/>
</g>
<g>
	<rect x="72.8" y="66.9" class="st0" width="15" height="1.3"/>
</g>
<g>
	<rect x="72.8" y="64.9" class="st0" width="15" height="0.3"/>
</g>
<g>
	<rect x="72.8" y="61.3" class="st0" width="15" height="2.5"/>
</g>
<g>
	<rect x="72.8" y="59.7" class="st0" width="15" height="0.6"/>
</g>
<g>
	<rect x="72.8" y="56.8" class="st0" width="15" height="1.5"/>
</g>
<g>
	<rect x="72.8" y="54.5" class="st0" width="15" height="1"/>
</g>
<g>
	<rect x="72.8" y="50.9" class="st0" width="15" height="3.1"/>
</g>
<g>
	<rect x="72.8" y="49.9" class="st0" width="15" height="0.3"/>
</g>
<g>
	<rect x="72.8" y="46.9" class="st0" width="15" height="1.3"/>
</g>
<g>
	<rect x="72.8" y="44" class="st0" width="15" height="2"/>
</g>
<g>
	<rect x="72.8" y="41.5" class="st0" width="15" height="2"/>
</g>
<g>
	<rect x="72.8" y="39.8" class="st0" width="15" height="0.4"/>
</g>
<g>
	<rect x="72.8" y="36.9" class="st0" width="15" height="1.6"/>
</g>
<path class="st0" d="M127.4,8.1V0.8c-8.2,0-14.8,6.6-14.9,14.8h7.4C119.9,11.5,123.2,8.2,127.4,8.1z"/>
<path class="st0" d="M147.1,115.7v11.1c0,0.6,0.5,1.1,1.1,1.1h11.1c0.6,0,1.1-0.5,1.1-1.1v-11.1c0-0.6-0.5-1.1-1.1-1.1h-11
	C147.6,114.6,147.1,115.1,147.1,115.7z M156.3,122.5L156.3,122.5c-0.6,0-1.1,0.5-1.1,1.1v0.3c0,0.6-0.5,1.1-1.1,1.1h-0.5
	c-0.6,0-1.1-0.5-1.1-1.1v-0.3c0-0.6-0.5-1.1-1.1-1.1l0,0c-0.6,0-1.1-0.5-1.1-1.1v-0.2c0-0.6,0.5-1.1,1.1-1.1l0,0
	c0.6,0,1.1-0.5,1.1-1.1v-0.2c0-0.6,0.5-1.1,1.1-1.1h0.4c0.6,0,1.1,0.5,1.1,1.1v0.2c0,0.6,0.5,1.1,1.1,1.1l0,0c0.6,0,1.1,0.5,1.1,1.1
	v0.2C157.5,122,157,122.5,156.3,122.5z"/>
<circle class="st0" cx="147.5" cy="106.9" r="0.5"/>
<circle class="st0" cx="150.7" cy="106.9" r="0.5"/>
<circle class="st0" cx="147.5" cy="105.3" r="0.5"/>
<circle class="st0" cx="150.7" cy="105.3" r="0.5"/>
<circle class="st0" cx="152.3" cy="105.3" r="0.5"/>
<circle class="st0" cx="147.5" cy="103.7" r="0.5"/>
<circle class="st0" cx="149.1" cy="103.7" r="0.5"/>
<circle class="st0" cx="150.7" cy="103.7" r="0.5"/>
<circle class="st0" cx="149.1" cy="102.1" r="0.5"/>
<circle class="st0" cx="149.1" cy="98.7" r="0.5"/>
<circle class="st0" cx="152.3" cy="98.7" r="0.5"/>
<circle class="st0" cx="147.5" cy="97.1" r="0.5"/>
<circle class="st0" cx="149.1" cy="97.1" r="0.5"/>
<circle class="st0" cx="150.7" cy="97.1" r="0.5"/>
<circle class="st0" cx="150.7" cy="95.5" r="0.5"/>
<circle class="st0" cx="152.3" cy="95.5" r="0.5"/>
<circle class="st0" cx="147.5" cy="93.9" r="0.5"/>
<circle class="st0" cx="149.1" cy="93.9" r="0.5"/>
<circle class="st0" cx="152.3" cy="93.9" r="0.5"/>
<circle class="st0" cx="147.5" cy="92.3" r="0.5"/>
<circle class="st0" cx="149.1" cy="92.3" r="0.5"/>
<circle class="st0" cx="150.7" cy="92.3" r="0.5"/>
<circle class="st0" cx="147.5" cy="84.1" r="0.5"/>
<circle class="st0" cx="150.7" cy="84.1" r="0.5"/>
<circle class="st0" cx="147.5" cy="85.8" r="0.5"/>
<circle class="st0" cx="150.7" cy="85.8" r="0.5"/>
<circle class="st0" cx="152.3" cy="85.8" r="0.5"/>
<circle class="st0" cx="147.5" cy="87.4" r="0.5"/>
<circle class="st0" cx="149.1" cy="87.4" r="0.5"/>
<circle class="st0" cx="150.7" cy="87.4" r="0.5"/>
<circle class="st0" cx="149.1" cy="89" r="0.5"/>
<circle class="st0" cx="149.1" cy="80.9" r="0.5"/>
<circle class="st0" cx="152.3" cy="80.9" r="0.5"/>
<circle class="st0" cx="147.5" cy="79.3" r="0.5"/>
<circle class="st0" cx="149.1" cy="79.3" r="0.5"/>
<circle class="st0" cx="150.7" cy="79.3" r="0.5"/>
<circle class="st0" cx="150.7" cy="77.7" r="0.5"/>
<circle class="st0" cx="152.3" cy="77.7" r="0.5"/>
<circle class="st0" cx="147.5" cy="76.1" r="0.5"/>
<circle class="st0" cx="149.1" cy="76.1" r="0.5"/>
<circle class="st0" cx="152.3" cy="76.1" r="0.5"/>
<circle class="st0" cx="147.5" cy="74.5" r="0.5"/>
<circle class="st0" cx="149.1" cy="74.5" r="0.5"/>
<circle class="st0" cx="150.7" cy="74.5" r="0.5"/>
<circle class="st0" cx="160.2" cy="74.5" r="0.5"/>
<circle class="st0" cx="157" cy="74.5" r="0.5"/>
<circle class="st0" cx="160.2" cy="76.1" r="0.5"/>
<circle class="st0" cx="157" cy="76.1" r="0.5"/>
<circle class="st0" cx="155.4" cy="76.1" r="0.5"/>
<circle class="st0" cx="160.2" cy="77.7" r="0.5"/>
<circle class="st0" cx="158.6" cy="77.7" r="0.5"/>
<circle class="st0" cx="157" cy="77.7" r="0.5"/>
<circle class="st0" cx="158.6" cy="79.3" r="0.5"/>
<circle class="st0" cx="158.6" cy="82.7" r="0.5"/>
<circle class="st0" cx="155.4" cy="82.7" r="0.5"/>
<circle class="st0" cx="160.2" cy="84.3" r="0.5"/>
<circle class="st0" cx="158.6" cy="84.3" r="0.5"/>
<circle class="st0" cx="157" cy="84.3" r="0.5"/>
<circle class="st0" cx="157" cy="85.9" r="0.5"/>
<circle class="st0" cx="155.4" cy="85.9" r="0.5"/>
<circle class="st0" cx="160.2" cy="87.6" r="0.5"/>
<circle class="st0" cx="158.6" cy="87.6" r="0.5"/>
<circle class="st0" cx="155.4" cy="87.6" r="0.5"/>
<circle class="st0" cx="160.2" cy="89.2" r="0.5"/>
<circle class="st0" cx="158.6" cy="89.2" r="0.5"/>
<circle class="st0" cx="157" cy="89.2" r="0.5"/>
<circle class="st0" cx="160.2" cy="97.3" r="0.5"/>
<circle class="st0" cx="157" cy="97.3" r="0.5"/>
<circle class="st0" cx="160.2" cy="95.7" r="0.5"/>
<circle class="st0" cx="157" cy="95.7" r="0.5"/>
<circle class="st0" cx="155.4" cy="95.7" r="0.5"/>
<circle class="st0" cx="160.2" cy="94.1" r="0.5"/>
<circle class="st0" cx="158.6" cy="94.1" r="0.5"/>
<circle class="st0" cx="157" cy="94.1" r="0.5"/>
<circle class="st0" cx="158.6" cy="92.5" r="0.5"/>
<circle class="st0" cx="158.6" cy="100.5" r="0.5"/>
<circle class="st0" cx="155.4" cy="100.5" r="0.5"/>
<circle class="st0" cx="160.2" cy="102.1" r="0.5"/>
<circle class="st0" cx="158.6" cy="102.1" r="0.5"/>
<circle class="st0" cx="157" cy="102.1" r="0.5"/>
<circle class="st0" cx="157" cy="103.7" r="0.5"/>
<circle class="st0" cx="155.4" cy="103.7" r="0.5"/>
<circle class="st0" cx="160.2" cy="105.3" r="0.5"/>
<circle class="st0" cx="158.6" cy="105.3" r="0.5"/>
<circle class="st0" cx="155.4" cy="105.3" r="0.5"/>
<circle class="st0" cx="160.2" cy="106.9" r="0.5"/>
<circle class="st0" cx="158.6" cy="106.9" r="0.5"/>
<circle class="st0" cx="157" cy="106.9" r="0.5"/>
<path class="st0" d="M207,115.9l-1.2-1.9c-0.4-0.6,0-1.4,0.8-1.4h0.1c0.3,0,0.6,0.2,0.8,0.4l1.1,1.9l0,0l1.1-1.9
	c0.2-0.3,0.5-0.4,0.8-0.4l0,0c0.7,0,1.1,0.8,0.8,1.4l-1.2,1.9c-0.2,0.3-0.2,0.7,0,1l1.5,2.3c0.4,0.6-0.1,1.4-0.8,1.4h-0.2
	c-0.3,0-0.6-0.2-0.8-0.5l-1.2-2.2l0,0l-1.3,2.2c-0.2,0.3-0.5,0.4-0.8,0.4h-0.1c-0.7,0-1.1-0.8-0.8-1.4l1.5-2.3
	C207.2,116.6,207.2,116.2,207,115.9z"/>
<path class="st0" d="M165.5,115.8v10.9c0,0.7,0.6,1.2,1.2,1.2h10.9c0.7,0,1.2-0.6,1.2-1.2v-10.9c0-0.7-0.6-1.2-1.2-1.2h-10.8
	C166.1,114.6,165.5,115.2,165.5,115.8z M174.6,122.6h-4.7c-0.7,0-1.2-0.6-1.2-1.2l0,0c0-0.7,0.6-1.2,1.2-1.2h4.7
	c0.7,0,1.2,0.6,1.2,1.2l0,0C175.9,122,175.3,122.6,174.6,122.6z"/>
<g>
	<path class="st0" d="M175.5,57.8l0.4-0.6c0.8-1,0.3-2.6-0.9-3l-0.6-0.2c-1-0.3-1.6-1.5-1.2-2.5l0,0c0.4-1,1.4-1.5,2.4-1.1l0.5,0.2
		c1.2,0.4,2.5-0.5,2.5-1.8v-0.9c0-1.1,0.9-1.9,1.9-1.9h0.3c1.1,0,1.9,0.9,1.9,1.9v0.9c0,1.3,1.3,2.2,2.5,1.8l0.5-0.2
		c1-0.3,2,0.2,2.4,1.1l0,0c0.4,1-0.1,2.2-1.2,2.5l-0.6,0.2c-1.2,0.4-1.7,1.9-0.9,3l0.4,0.6c0.6,0.8,0.5,2-0.4,2.7l0,0
		c-0.9,0.6-2.1,0.5-2.7-0.4l-0.5-0.7c-0.8-1.1-2.4-1.1-3.1,0l-0.5,0.7c-0.6,0.9-1.8,1.1-2.7,0.4l-0.1-0.1
		C175.1,59.9,174.9,58.6,175.5,57.8z"/>
</g>
<g>
	<line marker-end="none" class="st1" x1="104.9" y1="115.4" x2="104.9" y2="128.6"/>
	<path class="st0" d="M104.9,115.4L104.9,115.4c0.9,0,1.6,0.7,1.6,1.6v10c0,0.9-0.7,1.6-1.6,1.6l0,0c-0.9,0-1.6-0.7-1.6-1.6v-10
		C103.3,116.1,104,115.4,104.9,115.4z"/>
</g>
<g>
	<line marker-end="none" class="st1" x1="98.8" y1="117.4" x2="98.8" y2="126.6"/>
	<path class="st0" d="M98.8,117.4L98.8,117.4c0.9,0,1.6,0.7,1.6,1.6v6c0,0.9-0.7,1.6-1.6,1.6l0,0c-0.9,0-1.6-0.7-1.6-1.6v-6
		C97.2,118.1,97.9,117.4,98.8,117.4z"/>
</g>
<g>
	<line marker-end="none" class="st1" x1="92.7" y1="120.1" x2="92.7" y2="123.9"/>
	<path class="st0" d="M92.7,120.1L92.7,120.1c0.9,0,1.6,0.7,1.6,1.6v0.6c0,0.9-0.7,1.6-1.6,1.6l0,0c-0.9,0-1.6-0.7-1.6-1.6v-0.6
		C91.2,120.8,91.9,120.1,92.7,120.1z"/>
</g>
<g>
	<line marker-end="none" class="st1" x1="86.7" y1="123.1" x2="86.7" y2="120.9"/>
	<path class="st0" d="M86.2,120.9h0.9c0.6,0,1.1,0.5,1.1,1.1l0,0c0,0.6-0.5,1.1-1.1,1.1h-0.9c-0.6,0-1.1-0.5-1.1-1.1l0,0
		C85.1,121.4,85.6,120.9,86.2,120.9z"/>
</g>
<g>
	<line marker-end="none" class="st1" x1="80.6" y1="126" x2="80.6" y2="118"/>
	<path class="st0" d="M80.6,118L80.6,118c0.9,0,1.6,0.7,1.6,1.6v4.9c0,0.9-0.7,1.6-1.6,1.6l0,0c-0.9,0-1.6-0.7-1.6-1.6v-4.9
		C79,118.7,79.7,118,80.6,118z"/>
</g>
<g>
	<line marker-end="none" class="st1" x1="74.5" y1="128.2" x2="74.5" y2="115.8"/>
	<path class="st0" d="M74.5,115.8L74.5,115.8c0.9,0,1.6,0.7,1.6,1.6v9.3c0,0.9-0.7,1.6-1.6,1.6l0,0c-0.9,0-1.6-0.7-1.6-1.6v-9.3
		C73,116.5,73.7,115.8,74.5,115.8z"/>
</g>
<g>
	<line marker-end="none" class="st1" x1="140.8" y1="115.4" x2="140.8" y2="128.6"/>
	<path class="st0" d="M140.8,115.4L140.8,115.4c0.9,0,1.6,0.7,1.6,1.6v10c0,0.9-0.7,1.6-1.6,1.6l0,0c-0.9,0-1.6-0.7-1.6-1.6v-10
		C139.3,116.1,140,115.4,140.8,115.4z"/>
</g>
<g>
	<line marker-end="none" class="st1" x1="134.8" y1="117.4" x2="134.8" y2="126.6"/>
	<path class="st0" d="M134.8,117.4L134.8,117.4c0.9,0,1.6,0.7,1.6,1.6v6c0,0.9-0.7,1.6-1.6,1.6l0,0c-0.9,0-1.6-0.7-1.6-1.6v-6
		C133.2,118.1,133.9,117.4,134.8,117.4z"/>
</g>
<g>
	<line marker-end="none" class="st1" x1="128.7" y1="120.1" x2="128.7" y2="123.9"/>
	<path class="st0" d="M128.7,120.1L128.7,120.1c0.9,0,1.6,0.7,1.6,1.6v0.6c0,0.9-0.7,1.6-1.6,1.6l0,0c-0.9,0-1.6-0.7-1.6-1.6v-0.6
		C127.1,120.8,127.8,120.1,128.7,120.1z"/>
</g>
<g>
	<line marker-end="none" class="st1" x1="122.6" y1="123.1" x2="122.6" y2="120.9"/>
	<path class="st0" d="M122.2,120.9h0.9c0.6,0,1.1,0.5,1.1,1.1l0,0c0,0.6-0.5,1.1-1.1,1.1h-0.9c-0.6,0-1.1-0.5-1.1-1.1l0,0
		C121.1,121.4,121.6,120.9,122.2,120.9z"/>
</g>
<g>
	<line marker-end="none" class="st1" x1="116.6" y1="126" x2="116.6" y2="118"/>
	<path class="st0" d="M116.6,118L116.6,118c0.9,0,1.6,0.7,1.6,1.6v4.9c0,0.9-0.7,1.6-1.6,1.6l0,0c-0.9,0-1.6-0.7-1.6-1.6v-4.9
		C115,118.7,115.7,118,116.6,118z"/>
</g>
<g>
	<line marker-end="none" class="st1" x1="110.5" y1="128.2" x2="110.5" y2="115.8"/>
	<path class="st0" d="M110.5,115.8L110.5,115.8c0.9,0,1.6,0.7,1.6,1.6v9.3c0,0.9-0.7,1.6-1.6,1.6l0,0c-0.9,0-1.6-0.7-1.6-1.6v-9.3
		C108.9,116.5,109.6,115.8,110.5,115.8z"/>
</g>
<circle class="st2" cx="180.7" cy="53.4" r="14.7"/>
<g>
	<path class="st0" d="M129,25.6L129,25.6c-0.4-0.4-0.4-1,0-1.4l4.3-4.3c0.4-0.4,0.4-1,0-1.4l-4.1-4c-0.4-0.4-0.4-1,0-1.4l0,0
		c0.4-0.4,1-0.4,1.4,0l4.8,4.8c0.4,0.4,0.6,0.8,0.6,1.4c0,0.5-0.2,1-0.6,1.4l-5,5C130,26,129.4,26,129,25.6z"/>
</g>
<g>
	<path class="st0" d="M135.7,25.6L135.7,25.6c-0.4-0.4-0.4-1,0-1.4l4.3-4.3c0.4-0.4,0.4-1,0-1.4l-4.1-4c-0.4-0.4-0.4-1,0-1.4l0,0
		c0.4-0.4,1-0.4,1.4,0l4.8,4.8c0.8,0.8,0.8,2,0,2.7l-5,5C136.7,26,136.1,26,135.7,25.6z"/>
</g>
<path class="st0" d="M207,124.3l-1.2-1.9c-0.4-0.6,0-1.4,0.8-1.4h0.1c0.3,0,0.6,0.2,0.8,0.4l1.1,1.9l0,0l1.1-1.9
	c0.2-0.3,0.5-0.4,0.8-0.4l0,0c0.7,0,1.1,0.8,0.8,1.4l-1.2,1.9c-0.2,0.3-0.2,0.7,0,1l1.5,2.3c0.4,0.6-0.1,1.4-0.8,1.4h-0.2
	c-0.3,0-0.6-0.2-0.8-0.5l-1.2-2.2l0,0l-1.3,2.2c-0.2,0.3-0.5,0.4-0.8,0.4h-0.1c-0.7,0-1.1-0.8-0.8-1.4l1.5-2.3
	C207.2,125,207.2,124.6,207,124.3z"/>
<circle class="st0" cx="147.5" cy="74.5" r="0.5"/>
<circle class="st0" cx="149.1" cy="74.5" r="0.5"/>
<circle class="st0" cx="150.7" cy="74.5" r="0.5"/>
<path class="st0" d="M207,115.9l-1.2-1.9c-0.4-0.6,0-1.4,0.8-1.4h0.1c0.3,0,0.6,0.2,0.8,0.4l1.1,1.9l0,0l1.1-1.9
	c0.2-0.3,0.5-0.4,0.8-0.4l0,0c0.7,0,1.1,0.8,0.8,1.4l-1.2,1.9c-0.2,0.3-0.2,0.7,0,1l1.5,2.3c0.4,0.6-0.1,1.4-0.8,1.4h-0.2
	c-0.3,0-0.6-0.2-0.8-0.5l-1.2-2.2l0,0l-1.3,2.2c-0.2,0.3-0.5,0.4-0.8,0.4h-0.1c-0.7,0-1.1-0.8-0.8-1.4l1.5-2.3
	C207.2,116.6,207.2,116.2,207,115.9z"/>
<path class="st0" d="M207,124.3l-1.2-1.9c-0.4-0.6,0-1.4,0.8-1.4h0.1c0.3,0,0.6,0.2,0.8,0.4l1.1,1.9l0,0l1.1-1.9
	c0.2-0.3,0.5-0.4,0.8-0.4l0,0c0.7,0,1.1,0.8,0.8,1.4l-1.2,1.9c-0.2,0.3-0.2,0.7,0,1l1.5,2.3c0.4,0.6-0.1,1.4-0.8,1.4h-0.2
	c-0.3,0-0.6-0.2-0.8-0.5l-1.2-2.2l0,0l-1.3,2.2c-0.2,0.3-0.5,0.4-0.8,0.4h-0.1c-0.7,0-1.1-0.8-0.8-1.4l1.5-2.3
	C207.2,125,207.2,124.6,207,124.3z"/>
<path class="st0" d="M207,99.2l-1.2-1.9c-0.4-0.6,0-1.4,0.8-1.4h0.1c0.3,0,0.6,0.2,0.8,0.4l1.1,1.9l0,0l1.1-1.9
	c0.2-0.3,0.5-0.4,0.8-0.4l0,0c0.7,0,1.1,0.8,0.8,1.4l-1.2,1.9c-0.2,0.3-0.2,0.7,0,1l1.5,2.3c0.4,0.6-0.1,1.4-0.8,1.4h-0.2
	c-0.3,0-0.6-0.2-0.8-0.5l-1.2-2.2l0,0l-1.3,2.2c-0.2,0.3-0.5,0.4-0.8,0.4h-0.1c-0.7,0-1.1-0.8-0.8-1.4l1.5-2.3
	C207.2,99.9,207.2,99.5,207,99.2z"/>
<path class="st0" d="M207,107.6l-1.2-1.9c-0.4-0.6,0-1.4,0.8-1.4h0.1c0.3,0,0.6,0.2,0.8,0.4l1.1,1.9l0,0l1.1-1.9
	c0.2-0.3,0.5-0.4,0.8-0.4l0,0c0.7,0,1.1,0.8,0.8,1.4l-1.2,1.9c-0.2,0.3-0.2,0.7,0,1l1.5,2.3c0.4,0.6-0.1,1.4-0.8,1.4h-0.2
	c-0.3,0-0.6-0.2-0.8-0.5l-1.2-2.2l0,0l-1.3,2.2c-0.2,0.3-0.5,0.4-0.8,0.4h-0.1c-0.7,0-1.1-0.8-0.8-1.4l1.5-2.3
	C207.2,108.2,207.2,107.9,207,107.6z"/>
<path class="st0" d="M207,107.6l-1.2-1.9c-0.4-0.6,0-1.4,0.8-1.4h0.1c0.3,0,0.6,0.2,0.8,0.4l1.1,1.9l0,0l1.1-1.9
	c0.2-0.3,0.5-0.4,0.8-0.4l0,0c0.7,0,1.1,0.8,0.8,1.4l-1.2,1.9c-0.2,0.3-0.2,0.7,0,1l1.5,2.3c0.4,0.6-0.1,1.4-0.8,1.4h-0.2
	c-0.3,0-0.6-0.2-0.8-0.5l-1.2-2.2l0,0l-1.3,2.2c-0.2,0.3-0.5,0.4-0.8,0.4h-0.1c-0.7,0-1.1-0.8-0.8-1.4l1.5-2.3
	C207.2,108.2,207.2,107.9,207,107.6z"/>
<g>
	<g>
		<defs>
			<rect id="SVGID_3_" x="91.1" y="73.8" width="33.3" height="33.3"/>
		</defs>
		<clipPath id="SVGID_4_">
			<use xlink:href="#SVGID_3_"  style="overflow:visible;"/>
		</clipPath>
		<g class="st9">
			<polygon class="st0" points="128.6,76.6 121.6,69.6 107.7,83.5 93.9,69.6 86.9,76.6 100.8,90.4 86.9,104.3 93.9,111.3 
				107.7,97.4 121.6,111.3 128.6,104.3 114.7,90.4 			"/>
		</g>
	</g>
</g>
<g>
	<path d="M146.6,70.2v-5.9c0-1.6,0.4-2.8,1.2-3.6s1.9-1.3,3.2-1.3c2.5,0,4.3,1.8,4.3,4.5V67h4.4v3.3h-13.1V70.2z M152.8,64.5
		c0-1.2-0.7-1.8-1.8-1.8s-1.7,0.7-1.7,1.8v2.4h3.4v-2.4H152.8z"/>
	<path d="M152.9,55.6l-6.3,4v-3.7l3.8-2.2l0,0l-3.8-2.4v-3.5l6.2,3.9l6.9-4.4v3.9l-4.5,2.5l0,0l4.5,2.6V60L152.9,55.6z"/>
	<path d="M146.6,46.4v-3.3H157v-5.9h2.8v9.2H146.6z"/>
</g>
<g>
	<rect x="72.8" y="69.8" class="st0" width="15" height="0.4"/>
</g>
<g>
	<rect x="72.8" y="66.9" class="st0" width="15" height="1.3"/>
</g>
<g>
	<rect x="72.8" y="64.9" class="st0" width="15" height="0.3"/>
</g>
<g>
	<rect x="72.8" y="61.3" class="st0" width="15" height="2.5"/>
</g>
<g>
	<rect x="72.8" y="59.7" class="st0" width="15" height="0.6"/>
</g>
<g>
	<rect x="72.8" y="56.8" class="st0" width="15" height="1.5"/>
</g>
<g>
	<rect x="72.8" y="54.5" class="st0" width="15" height="1"/>
</g>
<g>
	<rect x="72.8" y="50.9" class="st0" width="15" height="3.1"/>
</g>
<g>
	<rect x="72.8" y="49.9" class="st0" width="15" height="0.3"/>
</g>
<g>
	<rect x="72.8" y="46.9" class="st0" width="15" height="1.3"/>
</g>
<g>
	<rect x="72.8" y="44" class="st0" width="15" height="2"/>
</g>
<g>
	<rect x="72.8" y="41.5" class="st0" width="15" height="2"/>
</g>
<g>
	<rect x="72.8" y="39.8" class="st0" width="15" height="0.4"/>
</g>
<g>
	<rect x="72.8" y="36.9" class="st0" width="15" height="1.6"/>
</g>
<g>
	<rect x="205.4" y="92.2" class="st0" width="6.1" height="0.6"/>
</g>
<g>
	<rect x="205.4" y="87.3" class="st0" width="6.1" height="2.1"/>
</g>
<g>
	<rect x="205.4" y="83.9" class="st0" width="6.1" height="0.4"/>
</g>
<g>
	<rect x="205.4" y="77.8" class="st0" width="6.1" height="4.2"/>
</g>
<g>
	<rect x="205.4" y="75.2" class="st0" width="6.1" height="1"/>
</g>
<g>
	<rect x="205.4" y="70.3" class="st0" width="6.1" height="2.5"/>
</g>
<g>
	<rect x="205.4" y="66.6" class="st0" width="6.1" height="1.7"/>
</g>
<g>
	<rect x="205.4" y="60.6" class="st0" width="6.1" height="5.2"/>
</g>
<g>
	<rect x="205.4" y="58.8" class="st0" width="6.1" height="0.4"/>
</g>
<g>
	<rect x="205.4" y="53.8" class="st0" width="6.1" height="2.1"/>
</g>
<g>
	<rect x="205.4" y="49" class="st0" width="6.1" height="3.3"/>
</g>
<g>
	<rect x="205.4" y="44.8" class="st0" width="6.1" height="3.3"/>
</g>
<g>
	<rect x="205.4" y="42" class="st0" width="6.1" height="0.6"/>
</g>
<g>
	<rect x="205.4" y="37.2" class="st0" width="6.1" height="2.7"/>
</g>
<g>
	<rect x="205.4" y="92.2" class="st0" width="6.1" height="0.6"/>
</g>
<g>
	<rect x="205.4" y="87.3" class="st0" width="6.1" height="2.1"/>
</g>
<g>
	<rect x="205.4" y="83.9" class="st0" width="6.1" height="0.4"/>
</g>
<g>
	<rect x="205.4" y="77.8" class="st0" width="6.1" height="4.2"/>
</g>
<g>
	<rect x="205.4" y="75.2" class="st0" width="6.1" height="1"/>
</g>
<g>
	<rect x="205.4" y="70.3" class="st0" width="6.1" height="2.5"/>
</g>
<g>
	<rect x="205.4" y="66.6" class="st0" width="6.1" height="1.7"/>
</g>
<g>
	<rect x="205.4" y="60.6" class="st0" width="6.1" height="5.2"/>
</g>
<g>
	<rect x="205.4" y="58.8" class="st0" width="6.1" height="0.4"/>
</g>
<g>
	<rect x="205.4" y="53.8" class="st0" width="6.1" height="2.1"/>
</g>
<g>
	<rect x="205.4" y="49" class="st0" width="6.1" height="3.3"/>
</g>
<g>
	<rect x="205.4" y="44.8" class="st0" width="6.1" height="3.3"/>
</g>
<g>
	<rect x="205.4" y="42" class="st0" width="6.1" height="0.6"/>
</g>
<g>
	<rect x="205.4" y="37.2" class="st0" width="6.1" height="2.7"/>
</g>
<path class="st0" d="M146.6,70.2v-5.9c0-1.6,0.4-2.8,1.2-3.6s1.9-1.3,3.2-1.3c2.5,0,4.3,1.8,4.3,4.5V67h4.4v3.3h-13.1V70.2z
	 M152.8,64.5c0-1.2-0.7-1.8-1.8-1.8s-1.7,0.7-1.7,1.8v2.4h3.4v-2.4H152.8z"/>
<path class="st0" d="M152.9,55.6l-6.3,4v-3.7l3.8-2.2l0,0l-3.8-2.4v-3.5l6.2,3.9l6.9-4.4v3.9l-4.5,2.5l0,0l4.5,2.6V60L152.9,55.6z"
	/>
<path class="st0" d="M146.6,46.4v-3.3H157v-5.9h2.8v9.2H146.6z"/>
<rect x="91.2" y="135" class="st0" width="1.1" height="8.9"/>
<rect x="94.1" y="137.2" class="st0" width="1.1" height="6.7"/>
<rect x="97.1" y="141.7" class="st0" width="1.1" height="2.2"/>
<rect x="100.1" y="139.5" class="st0" width="1.1" height="4.5"/>
<rect x="103.1" y="135" class="st0" width="1.1" height="8.9"/>
<rect x="106.1" y="139.5" class="st0" width="1.1" height="4.5"/>
<rect x="109.1" y="141.7" class="st0" width="1.1" height="2.2"/>
<rect x="112" y="137.2" class="st0" width="1.1" height="6.7"/>
<rect x="115" y="135" class="st0" width="1.1" height="8.9"/>
<rect x="118" y="139.5" class="st0" width="1.1" height="4.5"/>
<rect x="121" y="141.7" class="st0" width="1.1" height="2.2"/>
<rect x="124" y="137.2" class="st0" width="1.1" height="6.7"/>
<rect x="127" y="135" class="st0" width="1.1" height="8.9"/>
<circle class="st0" cx="183.8" cy="127.1" r="0.5"/>
<circle class="st0" cx="187.3" cy="127.1" r="0.5"/>
<circle class="st0" cx="183.8" cy="125.4" r="0.5"/>
<circle class="st0" cx="187.3" cy="125.4" r="0.5"/>
<circle class="st0" cx="189" cy="125.4" r="0.5"/>
<circle class="st0" cx="183.8" cy="123.6" r="0.5"/>
<circle class="st0" cx="185.6" cy="123.6" r="0.5"/>
<circle class="st0" cx="187.3" cy="123.6" r="0.5"/>
<circle class="st0" cx="185.6" cy="121.9" r="0.5"/>
<circle class="st0" cx="185.6" cy="118.2" r="0.5"/>
<circle class="st0" cx="189" cy="118.2" r="0.5"/>
<circle class="st0" cx="183.8" cy="116.4" r="0.5"/>
<circle class="st0" cx="185.6" cy="116.4" r="0.5"/>
<circle class="st0" cx="187.3" cy="116.4" r="0.5"/>
<circle class="st0" cx="187.3" cy="114.7" r="0.5"/>
<circle class="st0" cx="189" cy="114.7" r="0.5"/>
<circle class="st0" cx="183.8" cy="113" r="0.5"/>
<circle class="st0" cx="185.6" cy="113" r="0.5"/>
<circle class="st0" cx="189" cy="113" r="0.5"/>
<circle class="st0" cx="183.8" cy="111.2" r="0.5"/>
<circle class="st0" cx="185.6" cy="111.2" r="0.5"/>
<circle class="st0" cx="187.3" cy="111.2" r="0.5"/>
<circle class="st0" cx="197.6" cy="116.7" r="0.5"/>
<circle class="st0" cx="194.1" cy="116.7" r="0.5"/>
<circle class="st0" cx="197.6" cy="114.9" r="0.5"/>
<circle class="st0" cx="194.1" cy="114.9" r="0.5"/>
<circle class="st0" cx="192.4" cy="114.9" r="0.5"/>
<circle class="st0" cx="197.6" cy="113.2" r="0.5"/>
<circle class="st0" cx="195.9" cy="113.2" r="0.5"/>
<circle class="st0" cx="194.1" cy="113.2" r="0.5"/>
<circle class="st0" cx="195.9" cy="111.4" r="0.5"/>
<circle class="st0" cx="195.9" cy="120.1" r="0.5"/>
<circle class="st0" cx="192.4" cy="120.1" r="0.5"/>
<circle class="st0" cx="197.6" cy="121.9" r="0.5"/>
<circle class="st0" cx="195.9" cy="121.9" r="0.5"/>
<circle class="st0" cx="194.1" cy="121.9" r="0.5"/>
<circle class="st0" cx="194.1" cy="123.6" r="0.5"/>
<circle class="st0" cx="192.4" cy="123.6" r="0.5"/>
<circle class="st0" cx="197.6" cy="125.4" r="0.5"/>
<circle class="st0" cx="195.9" cy="125.4" r="0.5"/>
<circle class="st0" cx="192.4" cy="125.4" r="0.5"/>
<circle class="st0" cx="197.6" cy="127.1" r="0.5"/>
<circle class="st0" cx="195.9" cy="127.1" r="0.5"/>
<circle class="st0" cx="194.1" cy="127.1" r="0.5"/>
<circle class="st0" cx="197.6" cy="128.6" r="0.5"/>
<circle class="st0" cx="185.6" cy="128.6" r="0.5"/>
<circle class="st0" cx="187.3" cy="128.6" r="0.5"/>
<circle class="st0" cx="189" cy="128.6" r="0.5"/>
<circle class="st0" cx="83.6" cy="30.7" r="0.5"/>
<circle class="st0" cx="83.6" cy="27.2" r="0.5"/>
<circle class="st0" cx="81.8" cy="32.4" r="0.5"/>
<circle class="st0" cx="81.8" cy="30.7" r="0.5"/>
<circle class="st0" cx="81.8" cy="28.9" r="0.5"/>
<circle class="st0" cx="80.1" cy="28.9" r="0.5"/>
<circle class="st0" cx="80.1" cy="27.2" r="0.5"/>
<circle class="st0" cx="78.4" cy="32.4" r="0.5"/>
<circle class="st0" cx="78.4" cy="30.7" r="0.5"/>
<circle class="st0" cx="78.4" cy="27.2" r="0.5"/>
<circle class="st0" cx="76.6" cy="30.7" r="0.5"/>
<circle class="st0" cx="76.6" cy="28.9" r="0.5"/>
<path class="st0" d="M161.2,141v0.7c0,1.2-0.9,2.1-2.1,2.1h-12.7v-0.7c0-1.2,0.9-2.1,2.1-2.1H161.2z"/>
<line class="st4" x1="184.3" y1="-0.1" x2="184.3" y2="6.5"/>
<line class="st5" x1="186.9" y1="-0.1" x2="186.9" y2="6.5"/>
<line class="st6" x1="189.6" y1="-0.1" x2="189.6" y2="6.5"/>
<line class="st7" x1="192.3" y1="-0.1" x2="192.3" y2="6.5"/>
<line class="st8" x1="195" y1="-0.1" x2="195" y2="6.5"/>
<line class="st5" x1="197.6" y1="-0.1" x2="197.6" y2="6.5"/>
<line class="st4" x1="183.3" y1="-0.1" x2="183.3" y2="6.5"/>
<line class="st5" x1="186" y1="-0.1" x2="186" y2="6.5"/>
<line class="st6" x1="188.7" y1="-0.1" x2="188.7" y2="6.5"/>
<line class="st7" x1="191.3" y1="-0.1" x2="191.3" y2="6.5"/>
<line class="st8" x1="194" y1="-0.1" x2="194" y2="6.5"/>
<line class="st5" x1="196.7" y1="-0.1" x2="196.7" y2="6.5"/>
<path class="st0" d="M178.5,93.2c-0.9-0.7-1.6-0.7-2.3-0.5c-0.1,0-0.3,0-0.4-0.1l-4.9-4.9c-0.1-0.1-0.1-0.2-0.1-0.4
	c0.2-0.6,0.2-1.2-0.2-1.9c-0.4-0.8-1.2-1.4-2.1-1.5c-1.7-0.2-3.1,1.3-2.9,2.9c0.1,0.9,0.7,1.7,1.5,2.1c0.7,0.4,1.3,0.4,1.9,0.2
	c0.1,0,0.3,0,0.4,0.1l4.9,4.9c0.1,0.1,0.1,0.2,0.1,0.4c-0.1,0.5-0.2,1,0,1.6c0.3,0.9,1.1,1.6,2.1,1.8c1.8,0.3,3.4-1.3,3.1-3.1
	C179.4,94.2,179,93.6,178.5,93.2z"/>
<path class="st0" d="M166.6,102c0.9-0.7,1.6-0.7,2.3-0.5c0.1,0,0.3,0,0.4-0.1l4.9-4.9c0.1-0.1,0.1-0.2,0.1-0.4
	c-0.2-0.6-0.2-1.2,0.2-1.9c0.4-0.8,1.2-1.4,2.1-1.5c1.7-0.2,3.1,1.3,2.9,2.9c-0.1,0.9-0.7,1.7-1.5,2.1c-0.7,0.4-1.3,0.4-1.9,0.2
	c-0.1,0-0.3,0-0.4,0.1l-4.9,4.9c-0.1,0.1-0.1,0.2-0.1,0.4c0.1,0.5,0.2,1,0,1.6c-0.3,0.9-1.1,1.6-2.1,1.8c-1.8,0.3-3.4-1.3-3.1-3.1
	C165.6,102.9,166,102.4,166.6,102z"/>
<path class="st0" d="M184.7,84c0.9-0.7,1.7-0.7,2.4-0.6c0.1,0,0.3,0,0.4-0.1l5.1-5.1c0.1-0.1,0.1-0.2,0.1-0.4
	c-0.2-0.6-0.2-1.2,0.2-2c0.4-0.8,1.3-1.4,2.2-1.5c1.8-0.2,3.2,1.3,3,3c-0.1,0.9-0.7,1.7-1.5,2.2c-0.7,0.4-1.4,0.4-2,0.2
	c-0.1,0-0.3,0-0.4,0.1l-5.1,5.1c-0.1,0.1-0.1,0.3-0.1,0.4c0.2,0.5,0.2,1.1,0,1.7c-0.3,0.9-1.2,1.7-2.2,1.8c-1.9,0.3-3.5-1.3-3.2-3.2
	C183.8,85,184.2,84.4,184.7,84z"/>
<path class="st0" d="M197,93c-0.9-0.7-1.7-0.7-2.4-0.6c-0.1,0-0.3,0-0.4-0.1l-5.1-5.1c-0.1-0.1-0.1-0.2-0.1-0.4
	c0.2-0.6,0.2-1.2-0.2-2s-1.3-1.4-2.2-1.5c-1.8-0.2-3.2,1.3-3,3c0.1,0.9,0.7,1.7,1.5,2.2c0.7,0.4,1.4,0.4,2,0.2c0.1,0,0.3,0,0.4,0.1
	l5.1,5.2c0.1,0.1,0.1,0.3,0.1,0.4c-0.2,0.5-0.2,1.1,0,1.7c0.3,0.9,1.2,1.7,2.2,1.8c1.9,0.3,3.5-1.3,3.2-3.2
	C198,94,197.5,93.5,197,93z"/>
<path class="st0" d="M103.1,38c-0.7,1-0.8,1.8-0.6,2.5c0,0.1,0,0.3-0.1,0.4l-5.5,5.5c-0.1,0.1-0.3,0.1-0.4,0.1
	c-0.6-0.2-1.3-0.2-2.1,0.2c-0.9,0.5-1.6,1.4-1.6,2.4c-0.2,1.9,1.4,3.5,3.3,3.3c1-0.1,1.9-0.8,2.4-1.6c0.4-0.8,0.4-1.5,0.2-2.1
	c0-0.1,0-0.3,0.1-0.4l5.5-5.5c0.1-0.1,0.3-0.1,0.4-0.1c0.6,0.2,1.2,0.2,1.8-0.1c1-0.4,1.8-1.3,2-2.3c0.3-2-1.4-3.8-3.5-3.4
	C104.1,37,103.5,37.4,103.1,38z"/>
<path class="st0" d="M112.8,51.2c-0.7-1-0.8-1.8-0.6-2.5c0-0.1,0-0.3-0.1-0.4l-5.5-5.5c-0.1-0.1-0.3-0.1-0.4-0.1
	c-0.6,0.2-1.3,0.2-2.1-0.2c-0.9-0.5-1.6-1.4-1.6-2.4c-0.2-1.9,1.4-3.5,3.3-3.3c1,0.1,1.9,0.8,2.4,1.6c0.4,0.8,0.4,1.5,0.2,2.1
	c0,0.1,0,0.3,0.1,0.4l5.5,5.5c0.1,0.1,0.3,0.1,0.4,0.1c0.6-0.2,1.2-0.2,1.8,0.1c1,0.4,1.8,1.3,2,2.3c0.3,2-1.4,3.8-3.5,3.4
	C113.9,52.3,113.2,51.8,112.8,51.2z"/>
<path class="st0" d="M103.1,51.2c-0.7-1-0.8-1.8-0.6-2.5c0-0.1,0-0.3-0.1-0.4l-5.5-5.5c-0.1-0.1-0.3-0.1-0.4-0.1
	c-0.6,0.2-1.3,0.2-2.1-0.2c-0.9-0.5-1.6-1.4-1.6-2.4c-0.2-1.9,1.4-3.5,3.3-3.3c1,0.1,1.9,0.8,2.4,1.6c0.4,0.8,0.4,1.5,0.2,2.1
	c0,0.1,0,0.3,0.1,0.4l5.5,5.5c0.1,0.1,0.3,0.1,0.4,0.1c0.6-0.2,1.2-0.2,1.8,0.1c1,0.4,1.8,1.3,2,2.3c0.3,2-1.4,3.8-3.5,3.4
	C104.1,52.3,103.5,51.8,103.1,51.2z"/>
<path class="st0" d="M112.8,38c-0.7,1-0.8,1.8-0.6,2.5c0,0.1,0,0.3-0.1,0.4l-5.5,5.5c-0.1,0.1-0.3,0.1-0.4,0.1
	c-0.6-0.2-1.3-0.2-2.1,0.2c-0.9,0.5-1.6,1.4-1.6,2.4c-0.2,1.9,1.4,3.5,3.3,3.3c1-0.1,1.9-0.8,2.4-1.6c0.4-0.8,0.4-1.5,0.2-2.1
	c0-0.1,0-0.3,0.1-0.4l5.5-5.5c0.1-0.1,0.3-0.1,0.4-0.1c0.6,0.2,1.2,0.2,1.8-0.1c1-0.4,1.8-1.3,2-2.3c0.3-2-1.4-3.8-3.5-3.4
	C113.9,37,113.2,37.4,112.8,38z"/>
<path class="st0" d="M123.1,38c-0.7,1-0.8,1.8-0.6,2.5c0,0.1,0,0.3-0.1,0.4l-5.5,5.5c-0.1,0.1-0.3,0.1-0.4,0.1
	c-0.6-0.2-1.3-0.2-2.1,0.2c-0.9,0.5-1.6,1.4-1.6,2.4c-0.2,1.9,1.4,3.5,3.3,3.3c1-0.1,1.9-0.8,2.4-1.6c0.4-0.8,0.4-1.5,0.2-2.1
	c0-0.1,0-0.3,0.1-0.4l5.5-5.5c0.1-0.1,0.3-0.1,0.4-0.1c0.6,0.2,1.2,0.2,1.8-0.1c1-0.4,1.8-1.3,2-2.3c0.3-2-1.4-3.8-3.5-3.4
	C124.1,37,123.5,37.4,123.1,38z"/>
<path class="st0" d="M132.8,51.2c-0.7-1-0.8-1.8-0.6-2.5c0-0.1,0-0.3-0.1-0.4l-5.5-5.5c-0.1-0.1-0.3-0.1-0.4-0.1
	c-0.6,0.2-1.3,0.2-2.1-0.2c-0.9-0.5-1.6-1.4-1.6-2.4c-0.2-1.9,1.4-3.5,3.3-3.3c1,0.1,1.9,0.8,2.4,1.6c0.4,0.8,0.4,1.5,0.2,2.1
	c0,0.1,0,0.3,0.1,0.4l5.5,5.5c0.1,0.1,0.3,0.1,0.4,0.1c0.6-0.2,1.2-0.2,1.8,0.1c1,0.4,1.8,1.3,2,2.3c0.3,2-1.4,3.8-3.5,3.4
	C133.9,52.3,133.2,51.8,132.8,51.2z"/>
<path class="st0" d="M123.1,51.2c-0.7-1-0.8-1.8-0.6-2.5c0-0.1,0-0.3-0.1-0.4l-5.5-5.5c-0.1-0.1-0.3-0.1-0.4-0.1
	c-0.6,0.2-1.3,0.2-2.1-0.2c-0.9-0.5-1.6-1.4-1.6-2.4c-0.2-1.9,1.4-3.5,3.3-3.3c1,0.1,1.9,0.8,2.4,1.6c0.4,0.8,0.4,1.5,0.2,2.1
	c0,0.1,0,0.3,0.1,0.4l5.5,5.5c0.1,0.1,0.3,0.1,0.4,0.1c0.6-0.2,1.2-0.2,1.8,0.1c1,0.4,1.8,1.3,2,2.3c0.3,2-1.4,3.8-3.5,3.4
	C124.1,52.3,123.5,51.8,123.1,51.2z"/>
<path class="st0" d="M132.8,38c-0.7,1-0.8,1.8-0.6,2.5c0,0.1,0,0.3-0.1,0.4l-5.5,5.5c-0.1,0.1-0.3,0.1-0.4,0.1
	c-0.6-0.2-1.3-0.2-2.1,0.2c-0.9,0.5-1.6,1.4-1.6,2.4c-0.2,1.9,1.4,3.5,3.3,3.3c1-0.1,1.9-0.8,2.4-1.6c0.4-0.8,0.4-1.5,0.2-2.1
	c0-0.1,0-0.3,0.1-0.4l5.5-5.5c0.1-0.1,0.3-0.1,0.4-0.1c0.6,0.2,1.2,0.2,1.8-0.1c1-0.4,1.8-1.3,2-2.3c0.3-2-1.4-3.8-3.5-3.4
	C133.9,37,133.2,37.4,132.8,38z"/>
<g>
	<path class="st0" d="M207.1,23.5l2.2,2.2c0.2,0.2,0.6,0.2,0.9,0l0.2-0.2c0.6-0.6,0.6-1.6,0-2.3l-1.6-1.6c-0.3-0.3-0.6-0.8-0.7-1.2
		c-0.2-0.9,0.1-1.7,0.7-2.3l1.1-1.1c0.9-0.9,1.5-2.1,1.6-3.4c0.1-1.4-0.5-2.7-1.4-3.7l-2.3-2.3c-0.3-0.3-0.7-0.3-0.9,0l-0.3,0.2
		c-0.6,0.6-0.6,1.6,0,2.2l1.6,1.6c0.3,0.3,0.6,0.8,0.7,1.2c0.2,0.9-0.1,1.7-0.7,2.3l-1.3,1.2c-1,1-1.5,2.3-1.5,3.7
		C205.5,21.3,206.1,22.5,207.1,23.5z"/>
</g>
</svg>
