<?xml version="1.0" encoding="utf-8"?>
<!-- Generator: Adobe Illustrator 23.0.0, SVG Export Plug-In . SVG Version: 6.00 Build 0)  -->
<svg version="1.1" id="Layer_1" xmlns="http://www.w3.org/2000/svg" xmlns:xlink="http://www.w3.org/1999/xlink" x="0px" y="0px"
	 viewBox="0 0 144 144" style="enable-background:new 0 0 144 144;" xml:space="preserve">
<style type="text/css">
	.st0{fill:#FFFFFF;}
	.st1{fill:none;stroke:#FFFFFF;stroke-width:3.2075;stroke-miterlimit:10;}
	.st2{clip-path:url(#SVGID_2_);}
	.st3{fill:none;stroke:#FFFFFF;stroke-width:0.317;stroke-miterlimit:10;}
	.st4{fill:none;stroke:#FFFFFF;stroke-width:1.2681;stroke-miterlimit:10;}
	.st5{fill:none;stroke:#FFFFFF;stroke-width:0.634;stroke-miterlimit:10;}
	.st6{fill:none;stroke:#FFFFFF;stroke-width:1.9021;stroke-miterlimit:10;}
	.st7{fill:none;stroke:#FFFFFF;stroke-width:0.4755;stroke-miterlimit:10;}
</style>
<g>
</g>
<path class="st0" d="M9.6,95.4L9.6,95.4c0,1.2-0.9,2.1-2.1,2.1h0c-1.2,0-2.1-0.9-2.1-2.1v0c0-1.2,0.9-2.1,2.1-2.1h0
	C8.7,93.3,9.6,94.2,9.6,95.4z"/>
<path class="st0" d="M20.9,70.2L20.9,70.2c-1.6,0-2.8-0.6-2.3-1.2L26.7,57c0.3-0.4,1.2-0.7,2.3-0.7h0c1.6,0,2.8,0.6,2.3,1.2
	l-8.1,11.9C23,69.9,22,70.2,20.9,70.2z"/>
<path class="st0" d="M27.7,70.2L27.7,70.2c-1.6,0-2.8-0.6-2.3-1.2L33.4,57c0.3-0.4,1.2-0.7,2.3-0.7h0c1.6,0,2.8,0.6,2.3,1.2L30,69.5
	C29.8,69.9,28.8,70.2,27.7,70.2z"/>
<path class="st0" d="M34.5,70.2L34.5,70.2c-1.6,0-2.8-0.6-2.3-1.2L40.2,57c0.3-0.4,1.2-0.7,2.3-0.7h0c1.6,0,2.8,0.6,2.3,1.2
	l-8.1,11.9C36.5,69.9,35.6,70.2,34.5,70.2z"/>
<path class="st0" d="M41.2,70.2L41.2,70.2c-1.6,0-2.8-0.6-2.3-1.2L47,57c0.3-0.4,1.2-0.7,2.3-0.7h0c1.6,0,2.8,0.6,2.3,1.2l-8.1,11.9
	C43.3,69.9,42.3,70.2,41.2,70.2z"/>
<path class="st0" d="M31.4,25.9h-11c-1.1,0-1.9-0.9-1.9-1.9v-0.3c0-1.1,0.9-1.9,1.9-1.9h11c1.1,0,1.9,0.9,1.9,1.9V24
	C33.3,25.1,32.4,25.9,31.4,25.9z"/>
<path class="st0" d="M122.2,19.6H114c-1.8,0-3.3,1.5-3.3,3.3v0c0,1.8,1.5,3.3,3.3,3.3h8.2c1.8,0,3.3-1.5,3.3-3.3v0
	C125.5,21.1,124.1,19.6,122.2,19.6z M122.2,24.5c-0.9,0-1.7-0.7-1.7-1.7c0-0.9,0.7-1.7,1.7-1.7s1.7,0.7,1.7,1.7
	C123.9,23.8,123.2,24.5,122.2,24.5z"/>
<path class="st0" d="M9.6,90.1L9.6,90.1c0,1.2-0.9,2.1-2.1,2.1h0c-1.2,0-2.1-0.9-2.1-2.1l0,0c0-1.2,0.9-2.1,2.1-2.1h0
	C8.7,88,9.6,88.9,9.6,90.1z"/>
<path class="st0" d="M9.6,84.8L9.6,84.8c0,1.2-0.9,2.1-2.1,2.1h0c-1.2,0-2.1-0.9-2.1-2.1l0,0c0-1.2,0.9-2.1,2.1-2.1h0
	C8.7,82.7,9.6,83.6,9.6,84.8z"/>
<rect x="0.4" y="139.8" class="st0" width="14.6" height="4.1"/>
<rect x="0.4" y="134.8" class="st0" width="14.6" height="4.1"/>
<circle class="st0" cx="27.7" cy="1.3" r="1.4"/>
<circle class="st0" cx="27.7" cy="5.3" r="1.4"/>
<circle class="st0" cx="27.7" cy="9.3" r="1.4"/>
<circle class="st0" cx="23.7" cy="1.3" r="1.4"/>
<circle class="st0" cx="23.7" cy="9.3" r="1.4"/>
<circle class="st0" cx="19.7" cy="1.3" r="1.4"/>
<circle class="st0" cx="19.7" cy="5.3" r="1.4"/>
<circle class="st0" cx="19.7" cy="9.3" r="1.4"/>
<circle class="st0" cx="13.2" cy="1.3" r="1.4"/>
<circle class="st0" cx="13.2" cy="5.3" r="1.4"/>
<circle class="st0" cx="13.2" cy="9.3" r="1.4"/>
<circle class="st0" cx="9.2" cy="1.3" r="1.4"/>
<circle class="st0" cx="9.2" cy="9.3" r="1.4"/>
<circle class="st0" cx="5.2" cy="1.3" r="1.4"/>
<circle class="st0" cx="5.2" cy="9.3" r="1.4"/>
<circle class="st0" cx="27.7" cy="13.3" r="1.4"/>
<circle class="st0" cx="19.7" cy="13.3" r="1.4"/>
<circle class="st0" cx="9.2" cy="13.3" r="1.4"/>
<circle class="st0" cx="5.2" cy="13.3" r="1.4"/>
<circle class="st0" cx="1.2" cy="1.3" r="1.4"/>
<circle class="st0" cx="1.2" cy="5.3" r="1.4"/>
<circle class="st0" cx="1.2" cy="13.3" r="1.4"/>
<circle class="st0" cx="31.7" cy="5.3" r="1.4"/>
<circle class="st0" cx="31.7" cy="13.3" r="1.4"/>
<circle class="st0" cx="120.2" cy="13.3" r="1.4"/>
<circle class="st0" cx="116.3" cy="13.3" r="1.4"/>
<circle class="st0" cx="112.3" cy="13.3" r="1.4"/>
<circle class="st0" cx="124.2" cy="13.3" r="1.4"/>
<g>
	<path class="st0" d="M60.7,85.5h-4.4c-0.5,0-0.9,0.4-0.9,0.9v4.4c0,0.5,0.4,0.9,0.9,0.9h0.6v5.6c0,0.4,0.3,0.7,0.7,0.7h1.7
		c0.4,0,0.7-0.3,0.7-0.7v-5.6h0.6c0.5,0,0.9-0.4,0.9-0.9v-4.4C61.7,85.9,61.3,85.5,60.7,85.5z"/>
	<circle class="st0" cx="58.5" cy="83.7" r="1.5"/>
</g>
<path class="st0" d="M139.4,137.2L139.4,137.2c0.3,0,0.6,0.2,0.8,0.5l2.6,4.5c0.4,0.6-0.1,1.4-0.8,1.4l0,0c-0.3,0-0.6-0.2-0.8-0.5
	l-2.6-4.5C138.2,138,138.6,137.2,139.4,137.2z"/>
<path class="st0" d="M135.5,137.2L135.5,137.2c0.3,0,0.6,0.2,0.8,0.5l2.6,4.5c0.4,0.6-0.1,1.4-0.8,1.4l0,0c-0.3,0-0.6-0.2-0.8-0.5
	l-2.6-4.5C134.3,138,134.8,137.2,135.5,137.2z"/>
<path class="st0" d="M131.3,137.2L131.3,137.2c0.3,0,0.6,0.2,0.8,0.5l2.6,4.5c0.4,0.6-0.1,1.4-0.8,1.4l0,0c-0.3,0-0.6-0.2-0.8-0.5
	l-2.6-4.5C130.2,138,130.6,137.2,131.3,137.2z"/>
<path class="st0" d="M127.4,137.2L127.4,137.2c0.3,0,0.6,0.2,0.8,0.5l2.6,4.5c0.4,0.6-0.1,1.4-0.8,1.4h0c-0.3,0-0.6-0.2-0.8-0.5
	l-2.6-4.5C126.3,138,126.7,137.2,127.4,137.2z"/>
<path class="st0" d="M123.6,137.2L123.6,137.2c0.3,0,0.6,0.2,0.8,0.5l2.6,4.5c0.4,0.6-0.1,1.4-0.8,1.4l0,0c-0.3,0-0.6-0.2-0.8-0.5
	l-2.6-4.5C122.4,138,122.8,137.2,123.6,137.2z"/>
<path class="st0" d="M119.7,137.2L119.7,137.2c0.3,0,0.6,0.2,0.8,0.5l2.6,4.5c0.4,0.6-0.1,1.4-0.8,1.4l0,0c-0.3,0-0.6-0.2-0.8-0.5
	l-2.6-4.5C118.5,138,119,137.2,119.7,137.2z"/>
<path class="st0" d="M115.8,137.2L115.8,137.2c0.3,0,0.6,0.2,0.8,0.5l2.6,4.5c0.4,0.6-0.1,1.4-0.8,1.4l0,0c-0.3,0-0.6-0.2-0.8-0.5
	l-2.6-4.5C114.6,138,115.1,137.2,115.8,137.2z"/>
<path class="st0" d="M111.9,137.2L111.9,137.2c0.3,0,0.6,0.2,0.8,0.5l2.6,4.5c0.4,0.6-0.1,1.4-0.8,1.4h0c-0.3,0-0.6-0.2-0.8-0.5
	l-2.6-4.5C110.8,138,111.2,137.2,111.9,137.2z"/>
<g>
	<rect x="74.2" y="-0.4" class="st0" width="25.8" height="0.8"/>
</g>
<g>
	<rect x="74.2" y="1.8" class="st0" width="19.3" height="0.8"/>
</g>
<g>
	<rect x="74.2" y="3.9" class="st0" width="6.4" height="0.8"/>
</g>
<g>
	<rect x="74.2" y="6.1" class="st0" width="12.9" height="0.8"/>
</g>
<g>
	<rect x="74.2" y="8.2" class="st0" width="25.8" height="0.8"/>
</g>
<g>
	<rect x="74.2" y="10.3" class="st0" width="12.9" height="0.8"/>
</g>
<g>
	<rect x="74.2" y="12.5" class="st0" width="6.4" height="0.8"/>
</g>
<g>
	<rect x="74.2" y="14.6" class="st0" width="19.3" height="0.8"/>
</g>
<g>
	<rect x="74.2" y="16.8" class="st0" width="25.8" height="0.8"/>
</g>
<g>
	<rect x="74.2" y="18.9" class="st0" width="12.9" height="0.8"/>
</g>
<g>
	<rect x="74.2" y="21.1" class="st0" width="6.4" height="0.8"/>
</g>
<g>
	<rect x="74.2" y="23.2" class="st0" width="19.3" height="0.8"/>
</g>
<g>
	<rect x="74.2" y="25.4" class="st0" width="25.8" height="0.8"/>
</g>
<g>
	<path class="st0" d="M69.3,85.5h-4.4c-0.5,0-0.9,0.4-0.9,0.9v4.4c0,0.5,0.4,0.9,0.9,0.9h0.6v5.6c0,0.4,0.3,0.7,0.7,0.7h1.7
		c0.4,0,0.7-0.3,0.7-0.7v-5.6h0.6c0.5,0,0.9-0.4,0.9-0.9v-4.4C70.2,85.9,69.8,85.5,69.3,85.5z"/>
	<circle class="st0" cx="67.1" cy="83.7" r="1.5"/>
</g>
<g>
	<rect x="0.2" y="69.8" class="st0" width="15" height="0.4"/>
</g>
<g>
	<rect x="0.2" y="66.9" class="st0" width="15" height="1.3"/>
</g>
<g>
	<rect x="0.2" y="64.9" class="st0" width="15" height="0.3"/>
</g>
<g>
	<rect x="0.2" y="61.3" class="st0" width="15" height="2.5"/>
</g>
<g>
	<rect x="0.2" y="59.7" class="st0" width="15" height="0.6"/>
</g>
<g>
	<rect x="0.2" y="56.8" class="st0" width="15" height="1.5"/>
</g>
<g>
	<rect x="0.2" y="54.5" class="st0" width="15" height="1"/>
</g>
<g>
	<rect x="0.2" y="50.9" class="st0" width="15" height="3.1"/>
</g>
<g>
	<rect x="0.2" y="49.9" class="st0" width="15" height="0.3"/>
</g>
<g>
	<rect x="0.2" y="46.9" class="st0" width="15" height="1.3"/>
</g>
<g>
	<rect x="0.2" y="44" class="st0" width="15" height="2"/>
</g>
<g>
	<rect x="0.2" y="41.5" class="st0" width="15" height="2"/>
</g>
<g>
	<rect x="0.2" y="39.8" class="st0" width="15" height="0.4"/>
</g>
<g>
	<rect x="0.2" y="36.9" class="st0" width="15" height="1.6"/>
</g>
<path class="st0" d="M54.8,8.1V0.8C46.6,0.8,40,7.4,39.9,15.6h7.4C47.3,11.5,50.6,8.2,54.8,8.1z"/>
<path class="st0" d="M74.5,115.7v11.1c0,0.6,0.5,1.1,1.1,1.1h11.1c0.6,0,1.1-0.5,1.1-1.1v-11.1c0-0.6-0.5-1.1-1.1-1.1H75.7
	C75,114.6,74.5,115.1,74.5,115.7z M83.7,122.5L83.7,122.5c-0.6,0-1.1,0.5-1.1,1.1v0.3c0,0.6-0.5,1.1-1.1,1.1H81
	c-0.6,0-1.1-0.5-1.1-1.1v-0.3c0-0.6-0.5-1.1-1.1-1.1l0,0c-0.6,0-1.1-0.5-1.1-1.1v-0.2c0-0.6,0.5-1.1,1.1-1.1l0,0
	c0.6,0,1.1-0.5,1.1-1.1v-0.2c0-0.6,0.5-1.1,1.1-1.1h0.4c0.6,0,1.1,0.5,1.1,1.1v0.2c0,0.6,0.5,1.1,1.1,1.1l0,0c0.6,0,1.1,0.5,1.1,1.1
	v0.2C84.9,122,84.4,122.5,83.7,122.5z"/>
<circle class="st0" cx="74.9" cy="106.9" r="0.5"/>
<circle class="st0" cx="78.1" cy="106.9" r="0.5"/>
<circle class="st0" cx="74.9" cy="105.3" r="0.5"/>
<circle class="st0" cx="78.1" cy="105.3" r="0.5"/>
<circle class="st0" cx="79.7" cy="105.3" r="0.5"/>
<circle class="st0" cx="74.9" cy="103.7" r="0.5"/>
<circle class="st0" cx="76.5" cy="103.7" r="0.5"/>
<circle class="st0" cx="78.1" cy="103.7" r="0.5"/>
<circle class="st0" cx="76.5" cy="102.1" r="0.5"/>
<circle class="st0" cx="76.5" cy="98.7" r="0.5"/>
<circle class="st0" cx="79.7" cy="98.7" r="0.5"/>
<circle class="st0" cx="74.9" cy="97.1" r="0.5"/>
<circle class="st0" cx="76.5" cy="97.1" r="0.5"/>
<circle class="st0" cx="78.1" cy="97.1" r="0.5"/>
<circle class="st0" cx="78.1" cy="95.5" r="0.5"/>
<circle class="st0" cx="79.7" cy="95.5" r="0.5"/>
<circle class="st0" cx="74.9" cy="93.9" r="0.5"/>
<circle class="st0" cx="76.5" cy="93.9" r="0.5"/>
<circle class="st0" cx="79.7" cy="93.9" r="0.5"/>
<circle class="st0" cx="74.9" cy="92.3" r="0.5"/>
<circle class="st0" cx="76.5" cy="92.3" r="0.5"/>
<circle class="st0" cx="78.1" cy="92.3" r="0.5"/>
<circle class="st0" cx="74.9" cy="84.1" r="0.5"/>
<circle class="st0" cx="78.1" cy="84.1" r="0.5"/>
<circle class="st0" cx="74.9" cy="85.8" r="0.5"/>
<circle class="st0" cx="78.1" cy="85.8" r="0.5"/>
<circle class="st0" cx="79.7" cy="85.8" r="0.5"/>
<circle class="st0" cx="74.9" cy="87.4" r="0.5"/>
<circle class="st0" cx="76.5" cy="87.4" r="0.5"/>
<circle class="st0" cx="78.1" cy="87.4" r="0.5"/>
<circle class="st0" cx="76.5" cy="89" r="0.5"/>
<circle class="st0" cx="76.5" cy="80.9" r="0.5"/>
<circle class="st0" cx="79.7" cy="80.9" r="0.5"/>
<circle class="st0" cx="74.9" cy="79.3" r="0.5"/>
<circle class="st0" cx="76.5" cy="79.3" r="0.5"/>
<circle class="st0" cx="78.1" cy="79.3" r="0.5"/>
<circle class="st0" cx="78.1" cy="77.7" r="0.5"/>
<circle class="st0" cx="79.7" cy="77.7" r="0.5"/>
<circle class="st0" cx="74.9" cy="76.1" r="0.5"/>
<circle class="st0" cx="76.5" cy="76.1" r="0.5"/>
<circle class="st0" cx="79.7" cy="76.1" r="0.5"/>
<circle class="st0" cx="74.9" cy="74.5" r="0.5"/>
<circle class="st0" cx="76.5" cy="74.5" r="0.5"/>
<circle class="st0" cx="78.1" cy="74.5" r="0.5"/>
<circle class="st0" cx="87.6" cy="74.5" r="0.5"/>
<circle class="st0" cx="84.4" cy="74.5" r="0.5"/>
<circle class="st0" cx="87.6" cy="76.1" r="0.5"/>
<circle class="st0" cx="84.4" cy="76.1" r="0.5"/>
<circle class="st0" cx="82.8" cy="76.1" r="0.5"/>
<circle class="st0" cx="87.6" cy="77.7" r="0.5"/>
<circle class="st0" cx="86" cy="77.7" r="0.5"/>
<circle class="st0" cx="84.4" cy="77.7" r="0.5"/>
<circle class="st0" cx="86" cy="79.3" r="0.5"/>
<circle class="st0" cx="86" cy="82.7" r="0.5"/>
<circle class="st0" cx="82.8" cy="82.7" r="0.5"/>
<circle class="st0" cx="87.6" cy="84.3" r="0.5"/>
<circle class="st0" cx="86" cy="84.3" r="0.5"/>
<circle class="st0" cx="84.4" cy="84.3" r="0.5"/>
<circle class="st0" cx="84.4" cy="85.9" r="0.5"/>
<circle class="st0" cx="82.8" cy="85.9" r="0.5"/>
<circle class="st0" cx="87.6" cy="87.6" r="0.5"/>
<circle class="st0" cx="86" cy="87.6" r="0.5"/>
<circle class="st0" cx="82.8" cy="87.6" r="0.5"/>
<circle class="st0" cx="87.6" cy="89.2" r="0.5"/>
<circle class="st0" cx="86" cy="89.2" r="0.5"/>
<circle class="st0" cx="84.4" cy="89.2" r="0.5"/>
<circle class="st0" cx="87.6" cy="97.3" r="0.5"/>
<circle class="st0" cx="84.4" cy="97.3" r="0.5"/>
<circle class="st0" cx="87.6" cy="95.7" r="0.5"/>
<circle class="st0" cx="84.4" cy="95.7" r="0.5"/>
<circle class="st0" cx="82.8" cy="95.7" r="0.5"/>
<circle class="st0" cx="87.6" cy="94.1" r="0.5"/>
<circle class="st0" cx="86" cy="94.1" r="0.5"/>
<circle class="st0" cx="84.4" cy="94.1" r="0.5"/>
<circle class="st0" cx="86" cy="92.5" r="0.5"/>
<circle class="st0" cx="86" cy="100.5" r="0.5"/>
<circle class="st0" cx="82.8" cy="100.5" r="0.5"/>
<circle class="st0" cx="87.6" cy="102.1" r="0.5"/>
<circle class="st0" cx="86" cy="102.1" r="0.5"/>
<circle class="st0" cx="84.4" cy="102.1" r="0.5"/>
<circle class="st0" cx="84.4" cy="103.7" r="0.5"/>
<circle class="st0" cx="82.8" cy="103.7" r="0.5"/>
<circle class="st0" cx="87.6" cy="105.3" r="0.5"/>
<circle class="st0" cx="86" cy="105.3" r="0.5"/>
<circle class="st0" cx="82.8" cy="105.3" r="0.5"/>
<circle class="st0" cx="87.6" cy="106.9" r="0.5"/>
<circle class="st0" cx="86" cy="106.9" r="0.5"/>
<circle class="st0" cx="84.4" cy="106.9" r="0.5"/>
<path class="st0" d="M134.4,115.9l-1.2-1.9c-0.4-0.6,0-1.4,0.8-1.4h0.1c0.3,0,0.6,0.2,0.8,0.4l1.1,1.9h0l1.1-1.9
	c0.2-0.3,0.5-0.4,0.8-0.4l0,0c0.7,0,1.1,0.8,0.8,1.4l-1.2,1.9c-0.2,0.3-0.2,0.7,0,1l1.5,2.3c0.4,0.6-0.1,1.4-0.8,1.4h-0.2
	c-0.3,0-0.6-0.2-0.8-0.5l-1.2-2.2h0l-1.3,2.2c-0.2,0.3-0.5,0.4-0.8,0.4h-0.1c-0.7,0-1.1-0.8-0.8-1.4l1.5-2.3
	C134.6,116.6,134.6,116.2,134.4,115.9z"/>
<path class="st0" d="M92.9,115.8v10.9c0,0.7,0.6,1.2,1.2,1.2h10.9c0.7,0,1.2-0.6,1.2-1.2v-10.9c0-0.7-0.6-1.2-1.2-1.2H94.2
	C93.5,114.6,92.9,115.2,92.9,115.8z M102,122.6h-4.7c-0.7,0-1.2-0.6-1.2-1.2v0c0-0.7,0.6-1.2,1.2-1.2h4.7c0.7,0,1.2,0.6,1.2,1.2v0
	C103.3,122,102.7,122.6,102,122.6z"/>
<g>
	<path class="st0" d="M102.9,57.8l0.4-0.6c0.8-1,0.3-2.6-0.9-3l-0.6-0.2c-1-0.3-1.6-1.5-1.2-2.5l0,0c0.4-1,1.4-1.5,2.4-1.1l0.5,0.2
		c1.2,0.4,2.5-0.5,2.5-1.8v-0.9c0-1.1,0.9-1.9,1.9-1.9h0.3c1.1,0,1.9,0.9,1.9,1.9v0.9c0,1.3,1.3,2.2,2.5,1.8l0.5-0.2
		c1-0.3,2,0.2,2.4,1.1v0c0.4,1-0.1,2.2-1.2,2.5l-0.6,0.2c-1.2,0.4-1.7,1.9-0.9,3l0.4,0.6c0.6,0.8,0.5,2-0.4,2.7l0,0
		c-0.9,0.6-2.1,0.5-2.7-0.4l-0.5-0.7c-0.8-1.1-2.4-1.1-3.1,0l-0.5,0.7c-0.6,0.9-1.8,1.1-2.7,0.4l-0.1-0.1
		C102.5,59.9,102.3,58.6,102.9,57.8z"/>
</g>
<g>
	<line marker-end="none" class="st0" x1="32.3" y1="115.4" x2="32.3" y2="128.6"/>
	<path class="st0" d="M32.3,115.4L32.3,115.4c0.9,0,1.6,0.7,1.6,1.6v10c0,0.9-0.7,1.6-1.6,1.6l0,0c-0.9,0-1.6-0.7-1.6-1.6v-10
		C30.7,116.1,31.4,115.4,32.3,115.4z"/>
</g>
<g>
	<line marker-end="none" class="st0" x1="26.2" y1="117.4" x2="26.2" y2="126.6"/>
	<path class="st0" d="M26.2,117.4L26.2,117.4c0.9,0,1.6,0.7,1.6,1.6v6c0,0.9-0.7,1.6-1.6,1.6h0c-0.9,0-1.6-0.7-1.6-1.6v-6
		C24.6,118.1,25.3,117.4,26.2,117.4z"/>
</g>
<g>
	<line marker-end="none" class="st0" x1="20.1" y1="120.1" x2="20.1" y2="123.9"/>
	<path class="st0" d="M20.1,120.1L20.1,120.1c0.9,0,1.6,0.7,1.6,1.6v0.6c0,0.9-0.7,1.6-1.6,1.6h0c-0.9,0-1.6-0.7-1.6-1.6v-0.6
		C18.6,120.8,19.3,120.1,20.1,120.1z"/>
</g>
<g>
	<line marker-end="none" class="st0" x1="14.1" y1="123.1" x2="14.1" y2="120.9"/>
	<path class="st0" d="M13.6,120.9h0.9c0.6,0,1.1,0.5,1.1,1.1v0c0,0.6-0.5,1.1-1.1,1.1h-0.9c-0.6,0-1.1-0.5-1.1-1.1v0
		C12.5,121.4,13,120.9,13.6,120.9z"/>
</g>
<g>
	<line marker-end="none" class="st0" x1="8" y1="126" x2="8" y2="118"/>
	<path class="st0" d="M8,118L8,118c0.9,0,1.6,0.7,1.6,1.6v4.9c0,0.9-0.7,1.6-1.6,1.6h0c-0.9,0-1.6-0.7-1.6-1.6v-4.9
		C6.4,118.7,7.1,118,8,118z"/>
</g>
<g>
	<line marker-end="none" class="st0" x1="1.9" y1="128.2" x2="1.9" y2="115.8"/>
	<path class="st0" d="M1.9,115.8L1.9,115.8c0.9,0,1.6,0.7,1.6,1.6v9.3c0,0.9-0.7,1.6-1.6,1.6h0c-0.9,0-1.6-0.7-1.6-1.6v-9.3
		C0.4,116.5,1.1,115.8,1.9,115.8z"/>
</g>
<g>
	<line marker-end="none" class="st0" x1="68.2" y1="115.4" x2="68.2" y2="128.6"/>
	<path class="st0" d="M68.2,115.4L68.2,115.4c0.9,0,1.6,0.7,1.6,1.6v10c0,0.9-0.7,1.6-1.6,1.6l0,0c-0.9,0-1.6-0.7-1.6-1.6v-10
		C66.7,116.1,67.4,115.4,68.2,115.4z"/>
</g>
<g>
	<line marker-end="none" class="st0" x1="62.2" y1="117.4" x2="62.2" y2="126.6"/>
	<path class="st0" d="M62.2,117.4L62.2,117.4c0.9,0,1.6,0.7,1.6,1.6v6c0,0.9-0.7,1.6-1.6,1.6l0,0c-0.9,0-1.6-0.7-1.6-1.6v-6
		C60.6,118.1,61.3,117.4,62.2,117.4z"/>
</g>
<g>
	<line marker-end="none" class="st0" x1="56.1" y1="120.1" x2="56.1" y2="123.9"/>
	<path class="st0" d="M56.1,120.1L56.1,120.1c0.9,0,1.6,0.7,1.6,1.6v0.6c0,0.9-0.7,1.6-1.6,1.6h0c-0.9,0-1.6-0.7-1.6-1.6v-0.6
		C54.5,120.8,55.2,120.1,56.1,120.1z"/>
</g>
<g>
	<line marker-end="none" class="st0" x1="50" y1="123.1" x2="50" y2="120.9"/>
	<path class="st0" d="M49.6,120.9h0.9c0.6,0,1.1,0.5,1.1,1.1v0c0,0.6-0.5,1.1-1.1,1.1h-0.9c-0.6,0-1.1-0.5-1.1-1.1v0
		C48.5,121.4,49,120.9,49.6,120.9z"/>
</g>
<g>
	<line marker-end="none" class="st0" x1="44" y1="126" x2="44" y2="118"/>
	<path class="st0" d="M44,118L44,118c0.9,0,1.6,0.7,1.6,1.6v4.9c0,0.9-0.7,1.6-1.6,1.6h0c-0.9,0-1.6-0.7-1.6-1.6v-4.9
		C42.4,118.7,43.1,118,44,118z"/>
</g>
<g>
	<line marker-end="none" class="st0" x1="37.9" y1="128.2" x2="37.9" y2="115.8"/>
	<path class="st0" d="M37.9,115.8L37.9,115.8c0.9,0,1.6,0.7,1.6,1.6v9.3c0,0.9-0.7,1.6-1.6,1.6h0c-0.9,0-1.6-0.7-1.6-1.6v-9.3
		C36.3,116.5,37,115.8,37.9,115.8z"/>
</g>
<circle class="st1" cx="108.1" cy="53.4" r="14.7"/>
<g>
	<path class="st0" d="M56.4,25.6L56.4,25.6c-0.4-0.4-0.4-1,0-1.4l4.3-4.3c0.4-0.4,0.4-1,0-1.4l-4.1-4c-0.4-0.4-0.4-1,0-1.4l0,0
		c0.4-0.4,1-0.4,1.4,0l4.8,4.8c0.4,0.4,0.6,0.8,0.6,1.4c0,0.5-0.2,1-0.6,1.4l-5,5C57.4,26,56.8,26,56.4,25.6z"/>
</g>
<g>
	<path class="st0" d="M63.1,25.6L63.1,25.6c-0.4-0.4-0.4-1,0-1.4l4.3-4.3c0.4-0.4,0.4-1,0-1.4l-4.1-4c-0.4-0.4-0.4-1,0-1.4v0
		c0.4-0.4,1-0.4,1.4,0l4.8,4.8c0.8,0.8,0.8,2,0,2.7l-5,5C64.1,26,63.5,26,63.1,25.6z"/>
</g>
<path class="st0" d="M134.4,124.3l-1.2-1.9c-0.4-0.6,0-1.4,0.8-1.4h0.1c0.3,0,0.6,0.2,0.8,0.4l1.1,1.9h0l1.1-1.9
	c0.2-0.3,0.5-0.4,0.8-0.4l0,0c0.7,0,1.1,0.8,0.8,1.4l-1.2,1.9c-0.2,0.3-0.2,0.7,0,1l1.5,2.3c0.4,0.6-0.1,1.4-0.8,1.4h-0.2
	c-0.3,0-0.6-0.2-0.8-0.5l-1.2-2.2h0l-1.3,2.2c-0.2,0.3-0.5,0.4-0.8,0.4h-0.1c-0.7,0-1.1-0.8-0.8-1.4l1.5-2.3
	C134.6,125,134.6,124.6,134.4,124.3z"/>
<circle class="st0" cx="74.9" cy="74.5" r="0.5"/>
<circle class="st0" cx="76.5" cy="74.5" r="0.5"/>
<circle class="st0" cx="78.1" cy="74.5" r="0.5"/>
<path class="st0" d="M134.4,115.9l-1.2-1.9c-0.4-0.6,0-1.4,0.8-1.4h0.1c0.3,0,0.6,0.2,0.8,0.4l1.1,1.9h0l1.1-1.9
	c0.2-0.3,0.5-0.4,0.8-0.4l0,0c0.7,0,1.1,0.8,0.8,1.4l-1.2,1.9c-0.2,0.3-0.2,0.7,0,1l1.5,2.3c0.4,0.6-0.1,1.4-0.8,1.4h-0.2
	c-0.3,0-0.6-0.2-0.8-0.5l-1.2-2.2h0l-1.3,2.2c-0.2,0.3-0.5,0.4-0.8,0.4h-0.1c-0.7,0-1.1-0.8-0.8-1.4l1.5-2.3
	C134.6,116.6,134.6,116.2,134.4,115.9z"/>
<path class="st0" d="M134.4,124.3l-1.2-1.9c-0.4-0.6,0-1.4,0.8-1.4h0.1c0.3,0,0.6,0.2,0.8,0.4l1.1,1.9h0l1.1-1.9
	c0.2-0.3,0.5-0.4,0.8-0.4l0,0c0.7,0,1.1,0.8,0.8,1.4l-1.2,1.9c-0.2,0.3-0.2,0.7,0,1l1.5,2.3c0.4,0.6-0.1,1.4-0.8,1.4h-0.2
	c-0.3,0-0.6-0.2-0.8-0.5l-1.2-2.2h0l-1.3,2.2c-0.2,0.3-0.5,0.4-0.8,0.4h-0.1c-0.7,0-1.1-0.8-0.8-1.4l1.5-2.3
	C134.6,125,134.6,124.6,134.4,124.3z"/>
<path class="st0" d="M134.4,99.2l-1.2-1.9c-0.4-0.6,0-1.4,0.8-1.4h0.1c0.3,0,0.6,0.2,0.8,0.4l1.1,1.9h0l1.1-1.9
	c0.2-0.3,0.5-0.4,0.8-0.4l0,0c0.7,0,1.1,0.8,0.8,1.4l-1.2,1.9c-0.2,0.3-0.2,0.7,0,1l1.5,2.3c0.4,0.6-0.1,1.4-0.8,1.4h-0.2
	c-0.3,0-0.6-0.2-0.8-0.5l-1.2-2.2h0l-1.3,2.2c-0.2,0.3-0.5,0.4-0.8,0.4h-0.1c-0.7,0-1.1-0.8-0.8-1.4l1.5-2.3
	C134.6,99.9,134.6,99.5,134.4,99.2z"/>
<path class="st0" d="M134.4,107.6l-1.2-1.9c-0.4-0.6,0-1.4,0.8-1.4h0.1c0.3,0,0.6,0.2,0.8,0.4l1.1,1.9h0l1.1-1.9
	c0.2-0.3,0.5-0.4,0.8-0.4l0,0c0.7,0,1.1,0.8,0.8,1.4l-1.2,1.9c-0.2,0.3-0.2,0.7,0,1l1.5,2.3c0.4,0.6-0.1,1.4-0.8,1.4h-0.2
	c-0.3,0-0.6-0.2-0.8-0.5l-1.2-2.2h0l-1.3,2.2c-0.2,0.3-0.5,0.4-0.8,0.4h-0.1c-0.7,0-1.1-0.8-0.8-1.4l1.5-2.3
	C134.6,108.2,134.6,107.9,134.4,107.6z"/>
<path class="st0" d="M134.4,107.6l-1.2-1.9c-0.4-0.6,0-1.4,0.8-1.4h0.1c0.3,0,0.6,0.2,0.8,0.4l1.1,1.9h0l1.1-1.9
	c0.2-0.3,0.5-0.4,0.8-0.4l0,0c0.7,0,1.1,0.8,0.8,1.4l-1.2,1.9c-0.2,0.3-0.2,0.7,0,1l1.5,2.3c0.4,0.6-0.1,1.4-0.8,1.4h-0.2
	c-0.3,0-0.6-0.2-0.8-0.5l-1.2-2.2h0l-1.3,2.2c-0.2,0.3-0.5,0.4-0.8,0.4h-0.1c-0.7,0-1.1-0.8-0.8-1.4l1.5-2.3
	C134.6,108.2,134.6,107.9,134.4,107.6z"/>
<g>
	<defs>
		<rect id="SVGID_1_" x="18.5" y="73.8" width="33.3" height="33.3"/>
	</defs>
	<clipPath id="SVGID_2_">
		<use xlink:href="#SVGID_1_"  style="overflow:visible;"/>
	</clipPath>
	<g class="st2">
		<polygon class="st0" points="56,76.6 49,69.6 35.1,83.5 21.3,69.6 14.3,76.6 28.2,90.4 14.3,104.3 21.3,111.3 35.1,97.4 49,111.3 
			56,104.3 42.1,90.4 		"/>
	</g>
</g>
<g>
	<path d="M74,70.2v-5.9c0-1.6,0.4-2.8,1.2-3.6c0.8-0.8,1.9-1.3,3.2-1.3c2.5,0,4.3,1.8,4.3,4.5v3.1h4.4v3.3H74z M80.2,64.5
		c0-1.2-0.7-1.8-1.8-1.8c-1.1,0-1.7,0.7-1.7,1.8v2.4h3.4V64.5z"/>
	<path d="M80.3,55.6l-6.3,4v-3.7l3.8-2.2v0L74,51.3v-3.5l6.2,3.9l6.9-4.4v3.9l-4.5,2.5v0l4.5,2.6v3.7L80.3,55.6z"/>
	<path d="M74,46.4v-3.3h10.4v-5.9h2.8v9.2H74z"/>
</g>
<g>
	<rect x="0.2" y="69.8" class="st0" width="15" height="0.4"/>
</g>
<g>
	<rect x="0.2" y="66.9" class="st0" width="15" height="1.3"/>
</g>
<g>
	<rect x="0.2" y="64.9" class="st0" width="15" height="0.3"/>
</g>
<g>
	<rect x="0.2" y="61.3" class="st0" width="15" height="2.5"/>
</g>
<g>
	<rect x="0.2" y="59.7" class="st0" width="15" height="0.6"/>
</g>
<g>
	<rect x="0.2" y="56.8" class="st0" width="15" height="1.5"/>
</g>
<g>
	<rect x="0.2" y="54.5" class="st0" width="15" height="1"/>
</g>
<g>
	<rect x="0.2" y="50.9" class="st0" width="15" height="3.1"/>
</g>
<g>
	<rect x="0.2" y="49.9" class="st0" width="15" height="0.3"/>
</g>
<g>
	<rect x="0.2" y="46.9" class="st0" width="15" height="1.3"/>
</g>
<g>
	<rect x="0.2" y="44" class="st0" width="15" height="2"/>
</g>
<g>
	<rect x="0.2" y="41.5" class="st0" width="15" height="2"/>
</g>
<g>
	<rect x="0.2" y="39.8" class="st0" width="15" height="0.4"/>
</g>
<g>
	<rect x="0.2" y="36.9" class="st0" width="15" height="1.6"/>
</g>
<g>
	<rect x="132.8" y="92.2" class="st0" width="6.1" height="0.6"/>
</g>
<g>
	<rect x="132.8" y="87.3" class="st0" width="6.1" height="2.1"/>
</g>
<g>
	<rect x="132.8" y="83.9" class="st0" width="6.1" height="0.4"/>
</g>
<g>
	<rect x="132.8" y="77.8" class="st0" width="6.1" height="4.2"/>
</g>
<g>
	<rect x="132.8" y="75.2" class="st0" width="6.1" height="1"/>
</g>
<g>
	<rect x="132.8" y="70.3" class="st0" width="6.1" height="2.5"/>
</g>
<g>
	<rect x="132.8" y="66.6" class="st0" width="6.1" height="1.7"/>
</g>
<g>
	<rect x="132.8" y="60.6" class="st0" width="6.1" height="5.2"/>
</g>
<g>
	<rect x="132.8" y="58.8" class="st0" width="6.1" height="0.4"/>
</g>
<g>
	<rect x="132.8" y="53.8" class="st0" width="6.1" height="2.1"/>
</g>
<g>
	<rect x="132.8" y="49" class="st0" width="6.1" height="3.3"/>
</g>
<g>
	<rect x="132.8" y="44.8" class="st0" width="6.1" height="3.3"/>
</g>
<g>
	<rect x="132.8" y="42" class="st0" width="6.1" height="0.6"/>
</g>
<g>
	<rect x="132.8" y="37.2" class="st0" width="6.1" height="2.7"/>
</g>
<g>
	<rect x="132.8" y="92.2" class="st0" width="6.1" height="0.6"/>
</g>
<g>
	<rect x="132.8" y="87.3" class="st0" width="6.1" height="2.1"/>
</g>
<g>
	<rect x="132.8" y="83.9" class="st0" width="6.1" height="0.4"/>
</g>
<g>
	<rect x="132.8" y="77.8" class="st0" width="6.1" height="4.2"/>
</g>
<g>
	<rect x="132.8" y="75.2" class="st0" width="6.1" height="1"/>
</g>
<g>
	<rect x="132.8" y="70.3" class="st0" width="6.1" height="2.5"/>
</g>
<g>
	<rect x="132.8" y="66.6" class="st0" width="6.1" height="1.7"/>
</g>
<g>
	<rect x="132.8" y="60.6" class="st0" width="6.1" height="5.2"/>
</g>
<g>
	<rect x="132.8" y="58.8" class="st0" width="6.1" height="0.4"/>
</g>
<g>
	<rect x="132.8" y="53.8" class="st0" width="6.1" height="2.1"/>
</g>
<g>
	<rect x="132.8" y="49" class="st0" width="6.1" height="3.3"/>
</g>
<g>
	<rect x="132.8" y="44.8" class="st0" width="6.1" height="3.3"/>
</g>
<g>
	<rect x="132.8" y="42" class="st0" width="6.1" height="0.6"/>
</g>
<g>
	<rect x="132.8" y="37.2" class="st0" width="6.1" height="2.7"/>
</g>
<path class="st0" d="M74,70.2v-5.9c0-1.6,0.4-2.8,1.2-3.6c0.8-0.8,1.9-1.3,3.2-1.3c2.5,0,4.3,1.8,4.3,4.5v3.1h4.4v3.3H74z
	 M80.2,64.5c0-1.2-0.7-1.8-1.8-1.8c-1.1,0-1.7,0.7-1.7,1.8v2.4h3.4V64.5z"/>
<path class="st0" d="M80.3,55.6l-6.3,4v-3.7l3.8-2.2v0L74,51.3v-3.5l6.2,3.9l6.9-4.4v3.9l-4.5,2.5v0l4.5,2.6v3.7L80.3,55.6z"/>
<path class="st0" d="M74,46.4v-3.3h10.4v-5.9h2.8v9.2H74z"/>
<rect x="18.6" y="135" class="st0" width="1.1" height="8.9"/>
<rect x="21.5" y="137.2" class="st0" width="1.1" height="6.7"/>
<rect x="24.5" y="141.7" class="st0" width="1.1" height="2.2"/>
<rect x="27.5" y="139.5" class="st0" width="1.1" height="4.5"/>
<rect x="30.5" y="135" class="st0" width="1.1" height="8.9"/>
<rect x="33.5" y="139.5" class="st0" width="1.1" height="4.5"/>
<rect x="36.5" y="141.7" class="st0" width="1.1" height="2.2"/>
<rect x="39.4" y="137.2" class="st0" width="1.1" height="6.7"/>
<rect x="42.4" y="135" class="st0" width="1.1" height="8.9"/>
<rect x="45.4" y="139.5" class="st0" width="1.1" height="4.5"/>
<rect x="48.4" y="141.7" class="st0" width="1.1" height="2.2"/>
<rect x="51.4" y="137.2" class="st0" width="1.1" height="6.7"/>
<rect x="54.4" y="135" class="st0" width="1.1" height="8.9"/>
<circle class="st0" cx="111.2" cy="127.1" r="0.5"/>
<circle class="st0" cx="114.7" cy="127.1" r="0.5"/>
<circle class="st0" cx="111.2" cy="125.4" r="0.5"/>
<circle class="st0" cx="114.7" cy="125.4" r="0.5"/>
<circle class="st0" cx="116.4" cy="125.4" r="0.5"/>
<circle class="st0" cx="111.2" cy="123.6" r="0.5"/>
<circle class="st0" cx="113" cy="123.6" r="0.5"/>
<circle class="st0" cx="114.7" cy="123.6" r="0.5"/>
<circle class="st0" cx="113" cy="121.9" r="0.5"/>
<circle class="st0" cx="113" cy="118.2" r="0.5"/>
<circle class="st0" cx="116.4" cy="118.2" r="0.5"/>
<circle class="st0" cx="111.2" cy="116.4" r="0.5"/>
<circle class="st0" cx="113" cy="116.4" r="0.5"/>
<circle class="st0" cx="114.7" cy="116.4" r="0.5"/>
<circle class="st0" cx="114.7" cy="114.7" r="0.5"/>
<circle class="st0" cx="116.4" cy="114.7" r="0.5"/>
<circle class="st0" cx="111.2" cy="113" r="0.5"/>
<circle class="st0" cx="113" cy="113" r="0.5"/>
<circle class="st0" cx="116.4" cy="113" r="0.5"/>
<circle class="st0" cx="111.2" cy="111.2" r="0.5"/>
<circle class="st0" cx="113" cy="111.2" r="0.5"/>
<circle class="st0" cx="114.7" cy="111.2" r="0.5"/>
<circle class="st0" cx="125" cy="116.7" r="0.5"/>
<circle class="st0" cx="121.5" cy="116.7" r="0.5"/>
<circle class="st0" cx="125" cy="114.9" r="0.5"/>
<circle class="st0" cx="121.5" cy="114.9" r="0.5"/>
<circle class="st0" cx="119.8" cy="114.9" r="0.5"/>
<circle class="st0" cx="125" cy="113.2" r="0.5"/>
<circle class="st0" cx="123.3" cy="113.2" r="0.5"/>
<circle class="st0" cx="121.5" cy="113.2" r="0.5"/>
<circle class="st0" cx="123.3" cy="111.4" r="0.5"/>
<circle class="st0" cx="123.3" cy="120.1" r="0.5"/>
<circle class="st0" cx="119.8" cy="120.1" r="0.5"/>
<circle class="st0" cx="125" cy="121.9" r="0.5"/>
<circle class="st0" cx="123.3" cy="121.9" r="0.5"/>
<circle class="st0" cx="121.5" cy="121.9" r="0.5"/>
<circle class="st0" cx="121.5" cy="123.6" r="0.5"/>
<circle class="st0" cx="119.8" cy="123.6" r="0.5"/>
<circle class="st0" cx="125" cy="125.4" r="0.5"/>
<circle class="st0" cx="123.3" cy="125.4" r="0.5"/>
<circle class="st0" cx="119.8" cy="125.4" r="0.5"/>
<circle class="st0" cx="125" cy="127.1" r="0.5"/>
<circle class="st0" cx="123.3" cy="127.1" r="0.5"/>
<circle class="st0" cx="121.5" cy="127.1" r="0.5"/>
<circle class="st0" cx="125" cy="128.6" r="0.5"/>
<circle class="st0" cx="113" cy="128.6" r="0.5"/>
<circle class="st0" cx="114.7" cy="128.6" r="0.5"/>
<circle class="st0" cx="116.4" cy="128.6" r="0.5"/>
<circle class="st0" cx="11" cy="30.7" r="0.5"/>
<circle class="st0" cx="11" cy="27.2" r="0.5"/>
<circle class="st0" cx="9.2" cy="32.4" r="0.5"/>
<circle class="st0" cx="9.2" cy="30.7" r="0.5"/>
<circle class="st0" cx="9.2" cy="28.9" r="0.5"/>
<circle class="st0" cx="7.5" cy="28.9" r="0.5"/>
<circle class="st0" cx="7.5" cy="27.2" r="0.5"/>
<circle class="st0" cx="5.8" cy="32.4" r="0.5"/>
<circle class="st0" cx="5.8" cy="30.7" r="0.5"/>
<circle class="st0" cx="5.8" cy="27.2" r="0.5"/>
<circle class="st0" cx="4" cy="30.7" r="0.5"/>
<circle class="st0" cx="4" cy="28.9" r="0.5"/>
<path class="st0" d="M88.6,141v0.7c0,1.2-0.9,2.1-2.1,2.1H73.8v-0.7c0-1.2,0.9-2.1,2.1-2.1H88.6z"/>
<line class="st3" x1="111.7" y1="-0.1" x2="111.7" y2="6.5"/>
<line class="st4" x1="114.3" y1="-0.1" x2="114.3" y2="6.5"/>
<line class="st5" x1="117" y1="-0.1" x2="117" y2="6.5"/>
<line class="st6" x1="119.7" y1="-0.1" x2="119.7" y2="6.5"/>
<line class="st7" x1="122.4" y1="-0.1" x2="122.4" y2="6.5"/>
<line class="st4" x1="125" y1="-0.1" x2="125" y2="6.5"/>
<line class="st3" x1="110.7" y1="-0.1" x2="110.7" y2="6.5"/>
<line class="st4" x1="113.4" y1="-0.1" x2="113.4" y2="6.5"/>
<line class="st5" x1="116.1" y1="-0.1" x2="116.1" y2="6.5"/>
<line class="st6" x1="118.7" y1="-0.1" x2="118.7" y2="6.5"/>
<line class="st7" x1="121.4" y1="-0.1" x2="121.4" y2="6.5"/>
<line class="st4" x1="124.1" y1="-0.1" x2="124.1" y2="6.5"/>
<path class="st0" d="M105.9,93.2c-0.9-0.7-1.6-0.7-2.3-0.5c-0.1,0-0.3,0-0.4-0.1l-4.9-4.9c-0.1-0.1-0.1-0.2-0.1-0.4
	c0.2-0.6,0.2-1.2-0.2-1.9c-0.4-0.8-1.2-1.4-2.1-1.5c-1.7-0.2-3.1,1.3-2.9,2.9c0.1,0.9,0.7,1.7,1.5,2.1c0.7,0.4,1.3,0.4,1.9,0.2
	c0.1,0,0.3,0,0.4,0.1l4.9,4.9c0.1,0.1,0.1,0.2,0.1,0.4c-0.1,0.5-0.2,1,0,1.6c0.3,0.9,1.1,1.6,2.1,1.8c1.8,0.3,3.4-1.3,3.1-3.1
	C106.8,94.2,106.4,93.6,105.9,93.2z"/>
<path class="st0" d="M94,102c0.9-0.7,1.6-0.7,2.3-0.5c0.1,0,0.3,0,0.4-0.1l4.9-4.9c0.1-0.1,0.1-0.2,0.1-0.4
	c-0.2-0.6-0.2-1.2,0.2-1.9c0.4-0.8,1.2-1.4,2.1-1.5c1.7-0.2,3.1,1.3,2.9,2.9c-0.1,0.9-0.7,1.7-1.5,2.1c-0.7,0.4-1.3,0.4-1.9,0.2
	c-0.1,0-0.3,0-0.4,0.1l-4.9,4.9c-0.1,0.1-0.1,0.2-0.1,0.4c0.1,0.5,0.2,1,0,1.6c-0.3,0.9-1.1,1.6-2.1,1.8c-1.8,0.3-3.4-1.3-3.1-3.1
	C93,102.9,93.4,102.4,94,102z"/>
<path class="st0" d="M112.1,84c0.9-0.7,1.7-0.7,2.4-0.6c0.1,0,0.3,0,0.4-0.1l5.1-5.1c0.1-0.1,0.1-0.2,0.1-0.4
	c-0.2-0.6-0.2-1.2,0.2-2c0.4-0.8,1.3-1.4,2.2-1.5c1.8-0.2,3.2,1.3,3,3c-0.1,0.9-0.7,1.7-1.5,2.2c-0.7,0.4-1.4,0.4-2,0.2
	c-0.1,0-0.3,0-0.4,0.1l-5.1,5.1c-0.1,0.1-0.1,0.3-0.1,0.4c0.2,0.5,0.2,1.1,0,1.7c-0.3,0.9-1.2,1.7-2.2,1.8c-1.9,0.3-3.5-1.3-3.2-3.2
	C111.2,85,111.6,84.4,112.1,84z"/>
<path class="st0" d="M124.4,93c-0.9-0.7-1.7-0.7-2.4-0.6c-0.1,0-0.3,0-0.4-0.1l-5.1-5.1c-0.1-0.1-0.1-0.2-0.1-0.4
	c0.2-0.6,0.2-1.2-0.2-2c-0.4-0.8-1.3-1.4-2.2-1.5c-1.8-0.2-3.2,1.3-3,3c0.1,0.9,0.7,1.7,1.5,2.2c0.7,0.4,1.4,0.4,2,0.2
	c0.1,0,0.3,0,0.4,0.1L120,94c0.1,0.1,0.1,0.3,0.1,0.4c-0.2,0.5-0.2,1.1,0,1.7c0.3,0.9,1.2,1.7,2.2,1.8c1.9,0.3,3.5-1.3,3.2-3.2
	C125.4,94,124.9,93.5,124.4,93z"/>
<path class="st0" d="M30.5,38c-0.7,1-0.8,1.8-0.6,2.5c0,0.1,0,0.3-0.1,0.4l-5.5,5.5c-0.1,0.1-0.3,0.1-0.4,0.1
	c-0.6-0.2-1.3-0.2-2.1,0.2c-0.9,0.5-1.6,1.4-1.6,2.4c-0.2,1.9,1.4,3.5,3.3,3.3c1-0.1,1.9-0.8,2.4-1.6c0.4-0.8,0.4-1.5,0.2-2.1
	c0-0.1,0-0.3,0.1-0.4l5.5-5.5c0.1-0.1,0.3-0.1,0.4-0.1c0.6,0.2,1.2,0.2,1.8-0.1c1-0.4,1.8-1.3,2-2.3c0.3-2-1.4-3.8-3.5-3.4
	C31.5,37,30.9,37.4,30.5,38z"/>
<path class="st0" d="M40.2,51.2c-0.7-1-0.8-1.8-0.6-2.5c0-0.1,0-0.3-0.1-0.4L34,42.8c-0.1-0.1-0.3-0.1-0.4-0.1
	c-0.6,0.2-1.3,0.2-2.1-0.2c-0.9-0.5-1.6-1.4-1.6-2.4c-0.2-1.9,1.4-3.5,3.3-3.3c1,0.1,1.9,0.8,2.4,1.6c0.4,0.8,0.4,1.5,0.2,2.1
	c0,0.1,0,0.3,0.1,0.4l5.5,5.5c0.1,0.1,0.3,0.1,0.4,0.1c0.6-0.2,1.2-0.2,1.8,0.1c1,0.4,1.8,1.3,2,2.3c0.3,2-1.4,3.8-3.5,3.4
	C41.3,52.3,40.6,51.8,40.2,51.2z"/>
<path class="st0" d="M30.5,51.2c-0.7-1-0.8-1.8-0.6-2.5c0-0.1,0-0.3-0.1-0.4l-5.5-5.5c-0.1-0.1-0.3-0.1-0.4-0.1
	c-0.6,0.2-1.3,0.2-2.1-0.2c-0.9-0.5-1.6-1.4-1.6-2.4c-0.2-1.9,1.4-3.5,3.3-3.3c1,0.1,1.9,0.8,2.4,1.6c0.4,0.8,0.4,1.5,0.2,2.1
	c0,0.1,0,0.3,0.1,0.4l5.5,5.5c0.1,0.1,0.3,0.1,0.4,0.1c0.6-0.2,1.2-0.2,1.8,0.1c1,0.4,1.8,1.3,2,2.3c0.3,2-1.4,3.8-3.5,3.4
	C31.5,52.3,30.9,51.8,30.5,51.2z"/>
<path class="st0" d="M40.2,38c-0.7,1-0.8,1.8-0.6,2.5c0,0.1,0,0.3-0.1,0.4L34,46.4c-0.1,0.1-0.3,0.1-0.4,0.1
	c-0.6-0.2-1.3-0.2-2.1,0.2c-0.9,0.5-1.6,1.4-1.6,2.4c-0.2,1.9,1.4,3.5,3.3,3.3c1-0.1,1.9-0.8,2.4-1.6c0.4-0.8,0.4-1.5,0.2-2.1
	c0-0.1,0-0.3,0.1-0.4l5.5-5.5c0.1-0.1,0.3-0.1,0.4-0.1c0.6,0.2,1.2,0.2,1.8-0.1c1-0.4,1.8-1.3,2-2.3c0.3-2-1.4-3.8-3.5-3.4
	C41.3,37,40.6,37.4,40.2,38z"/>
<path class="st0" d="M50.5,38c-0.7,1-0.8,1.8-0.6,2.5c0,0.1,0,0.3-0.1,0.4l-5.5,5.5c-0.1,0.1-0.3,0.1-0.4,0.1
	c-0.6-0.2-1.3-0.2-2.1,0.2c-0.9,0.5-1.6,1.4-1.6,2.4c-0.2,1.9,1.4,3.5,3.3,3.3c1-0.1,1.9-0.8,2.4-1.6c0.4-0.8,0.4-1.5,0.2-2.1
	c0-0.1,0-0.3,0.1-0.4l5.5-5.5c0.1-0.1,0.3-0.1,0.4-0.1c0.6,0.2,1.2,0.2,1.8-0.1c1-0.4,1.8-1.3,2-2.3c0.3-2-1.4-3.8-3.5-3.4
	C51.5,37,50.9,37.4,50.5,38z"/>
<path class="st0" d="M60.2,51.2c-0.7-1-0.8-1.8-0.6-2.5c0-0.1,0-0.3-0.1-0.4L54,42.8c-0.1-0.1-0.3-0.1-0.4-0.1
	c-0.6,0.2-1.3,0.2-2.1-0.2c-0.9-0.5-1.6-1.4-1.6-2.4c-0.2-1.9,1.4-3.5,3.3-3.3c1,0.1,1.9,0.8,2.4,1.6c0.4,0.8,0.4,1.5,0.2,2.1
	c0,0.1,0,0.3,0.1,0.4l5.5,5.5c0.1,0.1,0.3,0.1,0.4,0.1c0.6-0.2,1.2-0.2,1.8,0.1c1,0.4,1.8,1.3,2,2.3c0.3,2-1.4,3.8-3.5,3.4
	C61.3,52.3,60.6,51.8,60.2,51.2z"/>
<path class="st0" d="M50.5,51.2c-0.7-1-0.8-1.8-0.6-2.5c0-0.1,0-0.3-0.1-0.4l-5.5-5.5c-0.1-0.1-0.3-0.1-0.4-0.1
	c-0.6,0.2-1.3,0.2-2.1-0.2c-0.9-0.5-1.6-1.4-1.6-2.4c-0.2-1.9,1.4-3.5,3.3-3.3c1,0.1,1.9,0.8,2.4,1.6c0.4,0.8,0.4,1.5,0.2,2.1
	c0,0.1,0,0.3,0.1,0.4l5.5,5.5c0.1,0.1,0.3,0.1,0.4,0.1c0.6-0.2,1.2-0.2,1.8,0.1c1,0.4,1.8,1.3,2,2.3c0.3,2-1.4,3.8-3.5,3.4
	C51.5,52.3,50.9,51.8,50.5,51.2z"/>
<path class="st0" d="M60.2,38c-0.7,1-0.8,1.8-0.6,2.5c0,0.1,0,0.3-0.1,0.4L54,46.4c-0.1,0.1-0.3,0.1-0.4,0.1
	c-0.6-0.2-1.3-0.2-2.1,0.2c-0.9,0.5-1.6,1.4-1.6,2.4c-0.2,1.9,1.4,3.5,3.3,3.3c1-0.1,1.9-0.8,2.4-1.6c0.4-0.8,0.4-1.5,0.2-2.1
	c0-0.1,0-0.3,0.1-0.4l5.5-5.5c0.1-0.1,0.3-0.1,0.4-0.1c0.6,0.2,1.2,0.2,1.8-0.1c1-0.4,1.8-1.3,2-2.3c0.3-2-1.4-3.8-3.5-3.4
	C61.3,37,60.6,37.4,60.2,38z"/>
<g>
	<path class="st0" d="M134.5,23.5l2.2,2.2c0.2,0.2,0.6,0.2,0.9,0l0.2-0.2c0.6-0.6,0.6-1.6,0-2.3l-1.6-1.6c-0.3-0.3-0.6-0.8-0.7-1.2
		c-0.2-0.9,0.1-1.7,0.7-2.3l1.1-1.1c0.9-0.9,1.5-2.1,1.6-3.4c0.1-1.4-0.5-2.7-1.4-3.7l-2.3-2.3c-0.3-0.3-0.7-0.3-0.9,0L134,7.8
		c-0.6,0.6-0.6,1.6,0,2.2l1.6,1.6c0.3,0.3,0.6,0.8,0.7,1.2c0.2,0.9-0.1,1.7-0.7,2.3l-1.3,1.2c-1,1-1.5,2.3-1.5,3.7
		C132.9,21.3,133.5,22.5,134.5,23.5z"/>
</g>
</svg>
