<?xml version="1.0" encoding="utf-8"?>
<!-- Generator: Adobe Illustrator 23.0.0, SVG Export Plug-In . SVG Version: 6.00 Build 0)  -->
<svg version="1.1" id="Layer_1" xmlns="http://www.w3.org/2000/svg" xmlns:xlink="http://www.w3.org/1999/xlink" x="0px" y="0px"
	 viewBox="0 0 128 128" style="enable-background:new 0 0 128 128;" xml:space="preserve">
<style type="text/css">
	.st0{fill:#FFFFFF;}
</style>
<path class="st0" d="M71.5,106.7H60.3c-2.5,0-4.5,2-4.5,4.5v0c0,2.5,2,4.5,4.5,4.5h11.1c2.5,0,4.5-2,4.5-4.5v0
	C76,108.7,74,106.7,71.5,106.7z M71.5,113.4c-1.2,0-2.2-1-2.2-2.2c0-1.2,1-2.2,2.2-2.2s2.2,1,2.2,2.2
	C73.7,112.4,72.7,113.4,71.5,113.4z"/>
<path class="st0" d="M109.9,34.1v31.8c0,3.6,2.9,6.5,6.5,6.5c3.6,0,6.5-2.9,6.5-6.5V34.1c0-3.6-2.9-6.5-6.5-6.5
	C112.8,27.6,109.9,30.5,109.9,34.1z M119.7,65.1c0,1.8-1.4,3.2-3.2,3.2s-3.2-1.4-3.2-3.2s1.4-3.2,3.2-3.2S119.7,63.3,119.7,65.1z
	 M119.7,34.8c0,1.8-1.4,3.2-3.2,3.2s-3.2-1.4-3.2-3.2c0-1.8,1.4-3.2,3.2-3.2S119.7,33.1,119.7,34.8z"/>
<path class="st0" d="M42.1,4L42.1,4c-5.2,0-9.4,4.2-9.4,9.4s4.2,9.4,9.4,9.4h0c5.2,0,9.4-4.2,9.4-9.4S47.3,4,42.1,4z M42.1,18.1
	L42.1,18.1c-2.6,0-4.7-2.1-4.7-4.7s2.1-4.7,4.7-4.7h0c2.6,0,4.7,2.1,4.7,4.7S44.7,18.1,42.1,18.1z"/>
<circle class="st0" cx="15.2" cy="12.8" r="10.1"/>
<path class="st0" d="M5.2,32.7v9.8c0,1,0.3,2,0.9,2.8l8.3,12.4c0.6,0.8,0.9,1.8,0.9,2.8l0,7.2c0,2.8,2.3,5,5,5h0c2.8,0,5-2.3,5-5
	v-35c0-2.8-2.3-5-5-5h-10C7.4,27.7,5.2,30,5.2,32.7z"/>
<path class="st0" d="M5.2,120.9V57.1c0-1.9,2.5-2.6,3.5-1l3.2,5.2c0.2,0.3,0.3,0.6,0.3,1v58.5c0,1-0.8,1.9-1.9,1.9H7.1
	C6,122.8,5.2,121.9,5.2,120.9z"/>
<rect x="17" y="117" class="st0" width="8.3" height="8.3"/>
<rect x="17" y="100.9" class="st0" width="8.3" height="8.3"/>
<rect x="17" y="87.4" class="st0" width="8.3" height="8.3"/>
<path class="st0" d="M60.3,104.8h11.1c2.5,0,4.5-2,4.5-4.5v0c0-2.5-2-4.5-4.5-4.5H60.3c-2.5,0-4.5,2-4.5,4.5v0
	C55.8,102.8,57.8,104.8,60.3,104.8z M60.3,98c1.2,0,2.2,1,2.2,2.2c0,1.2-1,2.2-2.2,2.2s-2.2-1-2.2-2.2C58.1,99,59.1,98,60.3,98z"/>
<path class="st0" d="M37.8,94.1l-8,8l2.9,11l11,2.9l8-8l-2.9-11L37.8,94.1z M46.2,106.5l-4,4l-5.5-1.5l-1.5-5.5l4-4l5.5,1.5
	L46.2,106.5z"/>
<path class="st0" d="M99.5,65.4h-7.9c-2.7,0-4.8-2.2-4.8-4.8V49.4h6.5c1.8,0,3.2-1.4,3.2-3.2c0-1.8-1.4-3.2-3.2-3.2h-6.5v-9.2
	c0-2.7,2.2-4.8,4.8-4.8h7.9c1.8,0,3.2-1.4,3.2-3.2c0-1.8-1.4-3.2-3.2-3.2h-7.9c-6.2,0-11.3,5.1-11.3,11.3v9.2H58.6
	c-0.1,0-0.2,0-0.3,0v-9.2c0-2.7,2.2-4.8,4.8-4.8H72c1.8,0,3.2-1.4,3.2-3.2c0-1.8-1.4-3.2-3.2-3.2h-8.9c-6.2,0-11.3,5.1-11.3,11.3
	v26.9c0,2.7-2.2,4.8-4.8,4.8h-3.1c-2.7,0-4.8-2.2-4.8-4.8V28.9c0-1.8-1.4-3.2-3.2-3.2c-1.8,0-3.2,1.4-3.2,3.2v31.7
	c0,6.2,5.1,11.3,11.3,11.3H47c6.2,0,11.3-5.1,11.3-11.3V49.3c0.1,0,0.2,0,0.3,0h21.7v11.2c0,6.2,5.1,11.3,11.3,11.3h7.9
	c1.8,0,3.2-1.4,3.2-3.2C102.7,66.9,101.3,65.4,99.5,65.4z"/>
<path class="st0" d="M30.1,81v3c0,1.8,1.5,3.3,3.3,3.3h40.4c0.9,0,1.7,0.4,2.4,1l23.2,23.2c0.6,0.6,1.5,1,2.4,1h0
	c1.8,0,3.3-1.5,3.3-3.3V88.7c0-0.9-0.4-1.7-1-2.4l-7.9-7.9c-0.6-0.6-1.5-1-2.4-1l-60.4,0.2C31.6,77.7,30.1,79.2,30.1,81z"/>
</svg>
