<?xml version="1.0" encoding="utf-8"?>
<!-- Generator: Adobe Illustrator 23.0.0, SVG Export Plug-In . SVG Version: 6.00 Build 0)  -->
<svg version="1.1" id="Layer_1" xmlns="http://www.w3.org/2000/svg" xmlns:xlink="http://www.w3.org/1999/xlink" x="0px" y="0px"
	 viewBox="0 0 30 80" style="enable-background:new 0 0 30 80;" xml:space="preserve">
<style type="text/css">
	.st0{fill:#FFFFFF;}
</style>
<g>
	
		<rect x="18.9" y="73.2" transform="matrix(6.123234e-17 -1 1 6.123234e-17 -51.4597 97.0523)" class="st0" width="7.8" height="2.2"/>
	
		<rect x="16.2" y="73.2" transform="matrix(6.123234e-17 -1 1 6.123234e-17 -54.1384 94.3735)" class="st0" width="7.8" height="2.2"/>
	<path class="st0" d="M20.3,3.7L20.3,3.7c0-0.2,0.1-0.3,0.2-0.4L23,1.9c0.3-0.2,0.7,0,0.7,0.4v0c0,0.2-0.1,0.3-0.2,0.4L21,4.1
		C20.7,4.3,20.3,4.1,20.3,3.7z"/>
	<path class="st0" d="M20.3,5.8L20.3,5.8c0-0.2,0.1-0.3,0.2-0.4L23,4c0.3-0.2,0.7,0,0.7,0.4v0c0,0.2-0.1,0.3-0.2,0.4L21,6.2
		C20.7,6.4,20.3,6.2,20.3,5.8z"/>
	<path class="st0" d="M20.3,8L20.3,8c0-0.2,0.1-0.3,0.2-0.4L23,6.2c0.3-0.2,0.7,0,0.7,0.4v0c0,0.2-0.1,0.3-0.2,0.4L21,8.5
		C20.7,8.6,20.3,8.4,20.3,8z"/>
	<path class="st0" d="M20.3,10.1L20.3,10.1c0-0.2,0.1-0.3,0.2-0.4L23,8.3c0.3-0.2,0.7,0,0.7,0.4v0c0,0.2-0.1,0.3-0.2,0.4L21,10.5
		C20.7,10.7,20.3,10.5,20.3,10.1z"/>
	<path class="st0" d="M20.3,12.2L20.3,12.2c0-0.2,0.1-0.3,0.2-0.4l2.4-1.4c0.3-0.2,0.7,0,0.7,0.4v0c0,0.2-0.1,0.3-0.2,0.4L21,12.6
		C20.7,12.8,20.3,12.6,20.3,12.2z"/>
	<path class="st0" d="M20.3,14.3L20.3,14.3c0-0.2,0.1-0.3,0.2-0.4l2.4-1.4c0.3-0.2,0.7,0,0.7,0.4v0c0,0.2-0.1,0.3-0.2,0.4L21,14.7
		C20.7,14.9,20.3,14.6,20.3,14.3z"/>
	<path class="st0" d="M20.3,16.3L20.3,16.3c0-0.2,0.1-0.3,0.2-0.4l2.4-1.4c0.3-0.2,0.7,0,0.7,0.4v0c0,0.2-0.1,0.3-0.2,0.4L21,16.8
		C20.7,17,20.3,16.7,20.3,16.3z"/>
	<path class="st0" d="M20.3,18.4L20.3,18.4c0-0.2,0.1-0.3,0.2-0.4l2.4-1.4c0.3-0.2,0.7,0,0.7,0.4l0,0c0,0.2-0.1,0.3-0.2,0.4L21,18.8
		C20.7,19,20.3,18.8,20.3,18.4z"/>
	<path class="st0" d="M8.8,38.4h6c0.3,0,0.6-0.3,0.6-0.6v-6c0-0.3-0.3-0.6-0.6-0.6h-6c-0.3,0-0.6,0.3-0.6,0.6v6
		C8.2,38.2,8.5,38.4,8.8,38.4z M12.4,33.5L12.4,33.5c0,0.3,0.3,0.6,0.6,0.6h0.1c0.3,0,0.6,0.3,0.6,0.6V35c0,0.3-0.3,0.6-0.6,0.6
		h-0.1c-0.3,0-0.6,0.3-0.6,0.6l0,0c0,0.3-0.3,0.6-0.6,0.6h-0.1c-0.3,0-0.6-0.3-0.6-0.6l0,0c0-0.3-0.3-0.6-0.6-0.6h-0.1
		c-0.3,0-0.6-0.3-0.6-0.6v-0.2c0-0.3,0.3-0.6,0.6-0.6h0.1c0.3,0,0.6-0.3,0.6-0.6l0,0c0-0.3,0.3-0.6,0.6-0.6h0.1
		C12.2,32.9,12.4,33.2,12.4,33.5z"/>
	<path class="st0" d="M8.9,6.4L7.9,7C7.6,7.2,7.1,7,7.1,6.6v0c0-0.2,0.1-0.3,0.2-0.4l1-0.6v0L7.4,5C7.2,4.9,7.1,4.7,7.1,4.6v0
		c0-0.4,0.4-0.6,0.7-0.4l1,0.6c0.2,0.1,0.4,0.1,0.5,0L10.7,4c0.3-0.2,0.7,0,0.7,0.4v0.1c0,0.2-0.1,0.3-0.2,0.4L9.9,5.6v0l1.2,0.7
		c0.1,0.1,0.2,0.2,0.2,0.4v0c0,0.4-0.4,0.6-0.7,0.4L9.4,6.4C9.3,6.3,9.1,6.3,8.9,6.4z"/>
	<path class="st0" d="M8.9,28.6h5.9c0.4,0,0.7-0.3,0.7-0.7v-5.9c0-0.4-0.3-0.7-0.7-0.7H8.9c-0.4,0-0.7,0.3-0.7,0.7v5.9
		C8.2,28.3,8.5,28.6,8.9,28.6z M12.4,23.7v2.5c0,0.4-0.3,0.7-0.7,0.7h0c-0.4,0-0.7-0.3-0.7-0.7v-2.5c0-0.4,0.3-0.7,0.7-0.7h0
		C12.1,23,12.4,23.3,12.4,23.7z"/>
	<g>
		<line marker-end="none" class="st0" x1="8.6" y1="61.1" x2="15.7" y2="61.1"/>
		<path class="st0" d="M8.6,61.1L8.6,61.1c0-0.5,0.4-0.8,0.8-0.8h5.4c0.5,0,0.8,0.4,0.8,0.8v0c0,0.5-0.4,0.8-0.8,0.8H9.5
			C9,61.9,8.6,61.6,8.6,61.1z"/>
	</g>
	<g>
		<line marker-end="none" class="st0" x1="9.7" y1="64.3" x2="14.6" y2="64.3"/>
		<path class="st0" d="M9.7,64.3L9.7,64.3c0-0.5,0.4-0.8,0.8-0.8h3.2c0.5,0,0.8,0.4,0.8,0.8l0,0c0,0.5-0.4,0.8-0.8,0.8h-3.2
			C10.1,65.2,9.7,64.8,9.7,64.3z"/>
	</g>
	<g>
		<line marker-end="none" class="st0" x1="11.1" y1="67.6" x2="13.2" y2="67.6"/>
		<path class="st0" d="M11.1,67.6L11.1,67.6c0-0.5,0.4-0.8,0.8-0.8h0.3c0.5,0,0.8,0.4,0.8,0.8l0,0c0,0.5-0.4,0.8-0.8,0.8H12
			C11.5,68.4,11.1,68.1,11.1,67.6z"/>
	</g>
	<g>
		<line marker-end="none" class="st0" x1="12.8" y1="70.8" x2="11.5" y2="70.8"/>
		<path class="st0" d="M11.5,71.1v-0.5c0-0.3,0.3-0.6,0.6-0.6h0c0.3,0,0.6,0.3,0.6,0.6v0.5c0,0.3-0.3,0.6-0.6,0.6h0
			C11.8,71.7,11.5,71.4,11.5,71.1z"/>
	</g>
	<g>
		<line marker-end="none" class="st0" x1="14.3" y1="74.1" x2="10" y2="74.1"/>
		<path class="st0" d="M10,74.1L10,74.1c0-0.5,0.4-0.8,0.8-0.8h2.6c0.5,0,0.8,0.4,0.8,0.8v0c0,0.5-0.4,0.8-0.8,0.8h-2.6
			C10.4,74.9,10,74.6,10,74.1z"/>
	</g>
	<g>
		<line marker-end="none" class="st0" x1="15.5" y1="77.3" x2="8.8" y2="77.3"/>
		<path class="st0" d="M8.8,77.3L8.8,77.3c0-0.5,0.4-0.8,0.8-0.8h5c0.5,0,0.8,0.4,0.8,0.8l0,0c0,0.5-0.4,0.8-0.8,0.8h-5
			C9.2,78.2,8.8,77.8,8.8,77.3z"/>
	</g>
	<g>
		<line marker-end="none" class="st0" x1="8.6" y1="41.8" x2="15.7" y2="41.8"/>
		<path class="st0" d="M8.6,41.8L8.6,41.8C8.6,41.3,9,41,9.5,41h5.4c0.5,0,0.8,0.4,0.8,0.8v0c0,0.5-0.4,0.8-0.8,0.8H9.5
			C9,42.7,8.6,42.3,8.6,41.8z"/>
	</g>
	<g>
		<line marker-end="none" class="st0" x1="9.7" y1="45.1" x2="14.6" y2="45.1"/>
		<path class="st0" d="M9.7,45.1L9.7,45.1c0-0.5,0.4-0.8,0.8-0.8h3.2c0.5,0,0.8,0.4,0.8,0.8l0,0c0,0.5-0.4,0.8-0.8,0.8h-3.2
			C10.1,45.9,9.7,45.5,9.7,45.1z"/>
	</g>
	<g>
		<line marker-end="none" class="st0" x1="11.1" y1="48.3" x2="13.2" y2="48.3"/>
		<path class="st0" d="M11.1,48.3L11.1,48.3c0-0.5,0.4-0.8,0.8-0.8h0.3c0.5,0,0.8,0.4,0.8,0.8l0,0c0,0.5-0.4,0.8-0.8,0.8H12
			C11.5,49.2,11.1,48.8,11.1,48.3z"/>
	</g>
	<g>
		<line marker-end="none" class="st0" x1="12.8" y1="51.6" x2="11.5" y2="51.6"/>
		<path class="st0" d="M11.5,51.8v-0.5c0-0.3,0.3-0.6,0.6-0.6h0c0.3,0,0.6,0.3,0.6,0.6v0.5c0,0.3-0.3,0.6-0.6,0.6h0
			C11.8,52.4,11.5,52.1,11.5,51.8z"/>
	</g>
	<g>
		<line marker-end="none" class="st0" x1="14.3" y1="54.8" x2="10" y2="54.8"/>
		<path class="st0" d="M10,54.8L10,54.8c0-0.5,0.4-0.8,0.8-0.8h2.6c0.5,0,0.8,0.4,0.8,0.8l0,0c0,0.5-0.4,0.8-0.8,0.8h-2.6
			C10.4,55.7,10,55.3,10,54.8z"/>
	</g>
	<g>
		<line marker-end="none" class="st0" x1="15.5" y1="58.1" x2="8.8" y2="58.1"/>
		<path class="st0" d="M8.8,58.1L8.8,58.1c0-0.5,0.4-0.8,0.8-0.8h5c0.5,0,0.8,0.4,0.8,0.8l0,0c0,0.5-0.4,0.8-0.8,0.8h-5
			C9.2,58.9,8.8,58.5,8.8,58.1z"/>
	</g>
	<path class="st0" d="M13.4,6.4l-1,0.7c-0.3,0.2-0.7,0-0.7-0.4v0c0-0.2,0.1-0.3,0.2-0.4l1-0.6v0l-1-0.6c-0.1-0.1-0.2-0.2-0.2-0.4v0
		c0-0.4,0.4-0.6,0.7-0.4l1,0.6c0.2,0.1,0.4,0.1,0.5,0L15.1,4c0.3-0.2,0.7,0,0.7,0.4v0.1c0,0.2-0.1,0.3-0.2,0.4l-1.2,0.7v0l1.2,0.7
		c0.1,0.1,0.2,0.2,0.2,0.4v0c0,0.4-0.4,0.6-0.7,0.4l-1.2-0.8C13.7,6.3,13.5,6.3,13.4,6.4z"/>
	<path class="st0" d="M8.9,6.4L7.9,7C7.6,7.2,7.1,7,7.1,6.6v0c0-0.2,0.1-0.3,0.2-0.4l1-0.6v0L7.4,5C7.2,4.9,7.1,4.7,7.1,4.6v0
		c0-0.4,0.4-0.6,0.7-0.4l1,0.6c0.2,0.1,0.4,0.1,0.5,0L10.7,4c0.3-0.2,0.7,0,0.7,0.4v0.1c0,0.2-0.1,0.3-0.2,0.4L9.9,5.6v0l1.2,0.7
		c0.1,0.1,0.2,0.2,0.2,0.4v0c0,0.4-0.4,0.6-0.7,0.4L9.4,6.4C9.3,6.3,9.1,6.3,8.9,6.4z"/>
	<path class="st0" d="M13.4,6.4l-1,0.7c-0.3,0.2-0.7,0-0.7-0.4v0c0-0.2,0.1-0.3,0.2-0.4l1-0.6v0l-1-0.6c-0.1-0.1-0.2-0.2-0.2-0.4v0
		c0-0.4,0.4-0.6,0.7-0.4l1,0.6c0.2,0.1,0.4,0.1,0.5,0L15.1,4c0.3-0.2,0.7,0,0.7,0.4v0.1c0,0.2-0.1,0.3-0.2,0.4l-1.2,0.7v0l1.2,0.7
		c0.1,0.1,0.2,0.2,0.2,0.4v0c0,0.4-0.4,0.6-0.7,0.4l-1.2-0.8C13.7,6.3,13.5,6.3,13.4,6.4z"/>
	<rect x="19.1" y="67.8" class="st0" width="4.8" height="0.6"/>
	<rect x="20.3" y="66.2" class="st0" width="3.6" height="0.6"/>
	<rect x="22.7" y="64.6" class="st0" width="1.2" height="0.6"/>
	<rect x="21.5" y="63" class="st0" width="2.4" height="0.6"/>
	<rect x="19.1" y="61.4" class="st0" width="4.8" height="0.6"/>
	<rect x="21.5" y="59.8" class="st0" width="2.4" height="0.6"/>
	<rect x="22.7" y="58.2" class="st0" width="1.2" height="0.6"/>
	<rect x="20.3" y="56.6" class="st0" width="3.6" height="0.6"/>
	<rect x="19.1" y="55" class="st0" width="4.8" height="0.6"/>
	<rect x="21.5" y="53.5" class="st0" width="2.4" height="0.6"/>
	<rect x="22.7" y="51.9" class="st0" width="1.2" height="0.6"/>
	<rect x="20.3" y="50.3" class="st0" width="3.6" height="0.6"/>
	<rect x="19.1" y="48.7" class="st0" width="4.8" height="0.6"/>
	<circle class="st0" cx="14.9" cy="18.8" r="0.3"/>
	<circle class="st0" cx="14.9" cy="16.9" r="0.3"/>
	<circle class="st0" cx="14" cy="18.8" r="0.3"/>
	<circle class="st0" cx="14" cy="16.9" r="0.3"/>
	<circle class="st0" cx="14" cy="16" r="0.3"/>
	<circle class="st0" cx="13" cy="18.8" r="0.3"/>
	<circle class="st0" cx="13" cy="17.9" r="0.3"/>
	<circle class="st0" cx="13" cy="16.9" r="0.3"/>
	<circle class="st0" cx="12.1" cy="17.9" r="0.3"/>
	<circle class="st0" cx="10.1" cy="17.9" r="0.3"/>
	<circle class="st0" cx="10.1" cy="16" r="0.3"/>
	<circle class="st0" cx="9.2" cy="18.8" r="0.3"/>
	<circle class="st0" cx="9.2" cy="17.9" r="0.3"/>
	<circle class="st0" cx="9.2" cy="16.9" r="0.3"/>
	<circle class="st0" cx="8.2" cy="16.9" r="0.3"/>
	<circle class="st0" cx="8.2" cy="16" r="0.3"/>
	<circle class="st0" cx="7.3" cy="18.8" r="0.3"/>
	<circle class="st0" cx="7.3" cy="17.9" r="0.3"/>
	<circle class="st0" cx="7.3" cy="16" r="0.3"/>
	<circle class="st0" cx="6.4" cy="18.8" r="0.3"/>
	<circle class="st0" cx="6.4" cy="17.9" r="0.3"/>
	<circle class="st0" cx="6.4" cy="16.9" r="0.3"/>
	<circle class="st0" cx="9.3" cy="11.4" r="0.3"/>
	<circle class="st0" cx="9.3" cy="13.3" r="0.3"/>
	<circle class="st0" cx="8.4" cy="11.4" r="0.3"/>
	<circle class="st0" cx="8.4" cy="13.3" r="0.3"/>
	<circle class="st0" cx="8.4" cy="14.2" r="0.3"/>
	<circle class="st0" cx="7.4" cy="11.4" r="0.3"/>
	<circle class="st0" cx="7.4" cy="12.3" r="0.3"/>
	<circle class="st0" cx="7.4" cy="13.3" r="0.3"/>
	<circle class="st0" cx="6.5" cy="12.3" r="0.3"/>
	<circle class="st0" cx="11.2" cy="12.3" r="0.3"/>
	<circle class="st0" cx="11.2" cy="14.2" r="0.3"/>
	<circle class="st0" cx="12.1" cy="11.4" r="0.3"/>
	<circle class="st0" cx="12.1" cy="12.3" r="0.3"/>
	<circle class="st0" cx="12.1" cy="13.3" r="0.3"/>
	<circle class="st0" cx="13" cy="13.3" r="0.3"/>
	<circle class="st0" cx="13" cy="14.2" r="0.3"/>
	<circle class="st0" cx="14" cy="11.4" r="0.3"/>
	<circle class="st0" cx="14" cy="12.3" r="0.3"/>
	<circle class="st0" cx="14" cy="14.2" r="0.3"/>
	<circle class="st0" cx="14.9" cy="11.4" r="0.3"/>
	<circle class="st0" cx="14.9" cy="12.3" r="0.3"/>
	<circle class="st0" cx="14.9" cy="13.3" r="0.3"/>
	<circle class="st0" cx="15.7" cy="11.4" r="0.3"/>
	<circle class="st0" cx="15.7" cy="17.9" r="0.3"/>
	<circle class="st0" cx="15.7" cy="16.9" r="0.3"/>
	<circle class="st0" cx="15.7" cy="16" r="0.3"/>
	<path class="st0" d="M22.4,30.9h0.4c0.6,0,1.1,0.5,1.1,1.1v6.8h-0.4c-0.6,0-1.1-0.5-1.1-1.1V30.9z"/>
</g>
</svg>
