<?xml version="1.0" encoding="utf-8"?>
<!-- Generator: Adobe Illustrator 23.0.0, SVG Export Plug-In . SVG Version: 6.00 Build 0)  -->
<svg version="1.1" id="Layer_1" xmlns="http://www.w3.org/2000/svg" xmlns:xlink="http://www.w3.org/1999/xlink" x="0px" y="0px"
	 viewBox="0 0 30 80" style="enable-background:new 0 0 30 80;" xml:space="preserve">
<style type="text/css">
	.st0{fill:#FFFFFF;}
	.st1{fill:none;stroke:#FFFFFF;stroke-width:1.4252;stroke-miterlimit:10;}
	.st2{fill:#FFFFFF;stroke:#FFFFFF;stroke-width:1.4252;stroke-miterlimit:10;}
</style>
<path class="st0" d="M5.9,0.6h5.3v50h0c-2.9,0-5.3-2.4-5.3-5.3V0.6z"/>
<path class="st0" d="M8.5,63.8L8.5,63.8c2.9,0,5.3-2.4,5.3-5.3c0-2.9-2.4-5.3-5.3-5.3h0c-2.9,0-5.3,2.4-5.3,5.3
	C3.2,61.4,5.6,63.8,8.5,63.8z M8.5,55.8L8.5,55.8c1.5,0,2.7,1.2,2.7,2.7s-1.2,2.7-2.7,2.7h0c-1.5,0-2.7-1.2-2.7-2.7
	S7.1,55.8,8.5,55.8z"/>
<path class="st0" d="M16.1,17.2h10.7V0.6H16.1V17.2z M24.1,8.9c0,1.5-1.2,2.7-2.7,2.7c-1.5,0-2.7-1.2-2.7-2.7s1.2-2.7,2.7-2.7
	C22.9,6.2,24.1,7.4,24.1,8.9z"/>
<path class="st0" d="M26.8,78.7L26.8,78.7c0,0.5-0.5,0.8-0.9,0.7l-9.2-2.5c-0.3-0.1-0.5-0.4-0.5-0.7l0,0c0-0.5,0.5-0.8,0.9-0.7
	l9.2,2.5C26.5,78.1,26.8,78.4,26.8,78.7z"/>
<path class="st0" d="M26.8,76.7L26.8,76.7c0,0.5-0.5,0.8-0.9,0.7L16.7,75c-0.3-0.1-0.5-0.4-0.5-0.7v0c0-0.5,0.5-0.8,0.9-0.7l9.2,2.5
	C26.5,76.1,26.8,76.4,26.8,76.7z"/>
<path class="st0" d="M26.8,74.7L26.8,74.7c0,0.5-0.5,0.8-0.9,0.7l-9.2-2.5c-0.3-0.1-0.5-0.4-0.5-0.7l0,0c0-0.5,0.5-0.8,0.9-0.7
	l9.2,2.5C26.5,74,26.8,74.3,26.8,74.7z"/>
<path class="st0" d="M26.8,72.6L26.8,72.6c0,0.5-0.5,0.8-0.9,0.7l-9.2-2.5c-0.3-0.1-0.5-0.4-0.5-0.7l0,0c0-0.5,0.5-0.8,0.9-0.7
	l9.2,2.5C26.5,72,26.8,72.3,26.8,72.6z"/>
<path class="st0" d="M26.8,70.5L26.8,70.5c0,0.5-0.5,0.8-0.9,0.7l-9.2-2.5c-0.3-0.1-0.5-0.4-0.5-0.7l0,0c0-0.5,0.5-0.8,0.9-0.7
	l9.2,2.5C26.5,69.9,26.8,70.2,26.8,70.5z"/>
<path class="st0" d="M26.8,68.6L26.8,68.6c0,0.5-0.5,0.8-0.9,0.7l-9.2-2.5c-0.3-0.1-0.5-0.4-0.5-0.7v0c0-0.5,0.5-0.8,0.9-0.7
	l9.2,2.5C26.5,67.9,26.8,68.2,26.8,68.6z"/>
<path class="st0" d="M26.8,66.5L26.8,66.5c0,0.5-0.5,0.8-0.9,0.7l-9.2-2.5c-0.3-0.1-0.5-0.4-0.5-0.7l0,0c0-0.5,0.5-0.8,0.9-0.7
	l9.2,2.5C26.5,65.9,26.8,66.2,26.8,66.5z"/>
<path class="st0" d="M26.8,64.4L26.8,64.4c0,0.5-0.5,0.8-0.9,0.7l-9.2-2.5c-0.3-0.1-0.5-0.4-0.5-0.7l0,0c0-0.5,0.5-0.8,0.9-0.7
	l9.2,2.5C26.5,63.8,26.8,64.1,26.8,64.4z"/>
<path class="st0" d="M26.8,62.4L26.8,62.4c0,0.5-0.5,0.8-0.9,0.7l-9.2-2.5c-0.3-0.1-0.5-0.4-0.5-0.7l0,0c0-0.5,0.5-0.8,0.9-0.7
	l9.2,2.5C26.5,61.8,26.8,62.1,26.8,62.4z"/>
<path class="st0" d="M26.8,60.4L26.8,60.4c0,0.5-0.5,0.8-0.9,0.7l-9.2-2.5c-0.3-0.1-0.5-0.4-0.5-0.7l0,0c0-0.5,0.5-0.8,0.9-0.7
	l9.2,2.5C26.5,59.8,26.8,60.1,26.8,60.4z"/>
<path class="st0" d="M26.8,58.4L26.8,58.4c0,0.5-0.5,0.8-0.9,0.7l-9.2-2.5c-0.3-0.1-0.5-0.4-0.5-0.7v0c0-0.5,0.5-0.8,0.9-0.7
	l9.2,2.5C26.5,57.7,26.8,58,26.8,58.4z"/>
<path class="st0" d="M26.8,56.3L26.8,56.3c0,0.5-0.5,0.8-0.9,0.7l-9.2-2.5c-0.3-0.1-0.5-0.4-0.5-0.7l0,0c0-0.5,0.5-0.8,0.9-0.7
	l9.2,2.5C26.5,55.7,26.8,56,26.8,56.3z"/>
<path class="st0" d="M26.8,54.2L26.8,54.2c0,0.5-0.5,0.8-0.9,0.7l-9.2-2.5c-0.3-0.1-0.5-0.4-0.5-0.7l0,0c0-0.5,0.5-0.8,0.9-0.7
	l9.2,2.5C26.5,53.6,26.8,53.9,26.8,54.2z"/>
<path class="st1" d="M16.9,18.6V23c0,0.5,0.2,1.1,0.6,1.5l6.4,6.4c0.4,0.4,0.6,0.9,0.6,1.5v9.5c0,0.5-0.2,1.1-0.6,1.5l-6.1,6.1"/>
<path class="st1" d="M24.6,18.6v4.3c0,0.5-0.2,1.1-0.6,1.5l-2.2,2.2"/>
<path class="st1" d="M19.3,28l-1.8,1.8c-0.4,0.4-0.6,0.9-0.6,1.5v11.3c0,0.5,0.2,1.1,0.6,1.5l1.7,1.7"/>
<line class="st2" x1="21.8" y1="48.4" x2="23" y2="49.6"/>
</svg>
