<?xml version="1.0" encoding="utf-8"?>
<!-- Generator: Adobe Illustrator 23.0.0, SVG Export Plug-In . SVG Version: 6.00 Build 0)  -->
<svg version="1.1" id="Layer_1" xmlns="http://www.w3.org/2000/svg" xmlns:xlink="http://www.w3.org/1999/xlink" x="0px" y="0px"
	 viewBox="0 0 30 80" style="enable-background:new 0 0 30 80;" xml:space="preserve">
<style type="text/css">
	.st0{fill:#FFFFFF;}
	.st1{fill:none;stroke:#FFFFFF;stroke-width:0.181;stroke-miterlimit:10;}
	.st2{fill:none;stroke:#FFFFFF;stroke-width:0.7239;stroke-miterlimit:10;}
	.st3{fill:none;stroke:#FFFFFF;stroke-width:0.3619;stroke-miterlimit:10;}
	.st4{fill:none;stroke:#FFFFFF;stroke-width:1.0858;stroke-miterlimit:10;}
	.st5{fill:none;stroke:#FFFFFF;stroke-width:0.2715;stroke-miterlimit:10;}
</style>
<g>
	<path class="st0" d="M20.5,62v6.3c0,0.6-0.5,1.1-1.1,1.1h-0.1c-0.6,0-1.1-0.5-1.1-1.1V62c0-0.6,0.5-1.1,1.1-1.1h0.1
		C20,60.9,20.5,61.4,20.5,62z"/>
	<path class="st0" d="M16.9,10.1v4.7c0,1,0.8,1.9,1.9,1.9h0c1,0,1.9-0.8,1.9-1.9v-4.7c0-1-0.8-1.9-1.9-1.9h0
		C17.7,8.2,16.9,9,16.9,10.1z M19.7,10.1c0,0.5-0.4,0.9-0.9,0.9c-0.5,0-0.9-0.4-0.9-0.9c0-0.5,0.4-0.9,0.9-0.9
		C19.3,9.1,19.7,9.6,19.7,10.1z"/>
	<circle class="st0" cx="6.4" cy="64.1" r="0.8"/>
	<circle class="st0" cx="8.7" cy="64.1" r="0.8"/>
	<circle class="st0" cx="11" cy="64.1" r="0.8"/>
	<circle class="st0" cx="6.4" cy="66.3" r="0.8"/>
	<circle class="st0" cx="11" cy="66.3" r="0.8"/>
	<circle class="st0" cx="6.4" cy="68.6" r="0.8"/>
	<circle class="st0" cx="8.7" cy="68.6" r="0.8"/>
	<circle class="st0" cx="11" cy="68.6" r="0.8"/>
	<circle class="st0" cx="6.4" cy="72.3" r="0.8"/>
	<circle class="st0" cx="8.7" cy="72.3" r="0.8"/>
	<circle class="st0" cx="11" cy="72.3" r="0.8"/>
	<circle class="st0" cx="6.4" cy="74.6" r="0.8"/>
	<circle class="st0" cx="11" cy="74.6" r="0.8"/>
	<circle class="st0" cx="6.4" cy="76.9" r="0.8"/>
	<circle class="st0" cx="11" cy="76.9" r="0.8"/>
	<circle class="st0" cx="13.3" cy="64.1" r="0.8"/>
	<circle class="st0" cx="13.3" cy="68.6" r="0.8"/>
	<circle class="st0" cx="13.3" cy="74.6" r="0.8"/>
	<circle class="st0" cx="13.3" cy="76.9" r="0.8"/>
	<circle class="st0" cx="6.4" cy="79.2" r="0.8"/>
	<circle class="st0" cx="8.7" cy="79.2" r="0.8"/>
	<circle class="st0" cx="13.3" cy="79.2" r="0.8"/>
	<circle class="st0" cx="8.7" cy="61.8" r="0.8"/>
	<circle class="st0" cx="13.3" cy="61.8" r="0.8"/>
	<circle class="st0" cx="13.3" cy="11.2" r="0.8"/>
	<circle class="st0" cx="13.3" cy="13.5" r="0.8"/>
	<circle class="st0" cx="13.3" cy="15.8" r="0.8"/>
	<circle class="st0" cx="13.3" cy="8.9" r="0.8"/>
	<g>
		<rect x="5.5" y="22.8" class="st0" width="0.5" height="14.7"/>
	</g>
	<g>
		<rect x="6.7" y="26.5" class="st0" width="0.5" height="11"/>
	</g>
	<g>
		<rect x="7.9" y="33.9" class="st0" width="0.5" height="3.7"/>
	</g>
	<g>
		<rect x="9.2" y="30.2" class="st0" width="0.5" height="7.4"/>
	</g>
	<g>
		<rect x="10.4" y="22.8" class="st0" width="0.5" height="14.7"/>
	</g>
	<g>
		<rect x="11.6" y="30.2" class="st0" width="0.5" height="7.4"/>
	</g>
	<g>
		<rect x="12.8" y="33.9" class="st0" width="0.5" height="3.7"/>
	</g>
	<g>
		<rect x="14.1" y="26.5" class="st0" width="0.5" height="11"/>
	</g>
	<g>
		<rect x="15.3" y="22.8" class="st0" width="0.5" height="14.7"/>
	</g>
	<g>
		<rect x="16.5" y="30.2" class="st0" width="0.5" height="7.4"/>
	</g>
	<g>
		<rect x="17.7" y="33.9" class="st0" width="0.5" height="3.7"/>
	</g>
	<g>
		<rect x="19" y="26.5" class="st0" width="0.5" height="11"/>
	</g>
	<g>
		<rect x="20.2" y="22.8" class="st0" width="0.5" height="14.7"/>
	</g>
	<path class="st0" d="M10.3,48.6H6.1c0,4.7,3.8,8.5,8.5,8.5v-4.2C12.3,52.9,10.4,51,10.3,48.6z"/>
	<g>
		<path class="st0" d="M20.3,47.7L20.3,47.7c-0.2,0.2-0.6,0.2-0.8,0l-2.4-2.4c-0.2-0.2-0.6-0.2-0.8,0L14,47.6
			c-0.2,0.2-0.6,0.2-0.8,0h0c-0.2-0.2-0.2-0.6,0-0.8l2.8-2.8c0.2-0.2,0.5-0.3,0.8-0.3c0.3,0,0.6,0.1,0.8,0.3l2.8,2.8
			C20.5,47.1,20.5,47.4,20.3,47.7z"/>
	</g>
	<g>
		<path class="st0" d="M20.3,43.9L20.3,43.9c-0.2,0.2-0.6,0.2-0.8,0l-2.4-2.4c-0.2-0.2-0.6-0.2-0.8,0L14,43.8
			c-0.2,0.2-0.6,0.2-0.8,0h0c-0.2-0.2-0.2-0.6,0-0.8l2.8-2.8c0.4-0.4,1.1-0.4,1.6,0l2.8,2.8C20.5,43.3,20.5,43.6,20.3,43.9z"/>
	</g>
	<circle class="st0" cx="23.2" cy="73.6" r="0.3"/>
	<circle class="st0" cx="21.2" cy="73.6" r="0.3"/>
	<circle class="st0" cx="24.2" cy="74.6" r="0.3"/>
	<circle class="st0" cx="23.2" cy="74.6" r="0.3"/>
	<circle class="st0" cx="22.2" cy="74.6" r="0.3"/>
	<circle class="st0" cx="22.2" cy="75.6" r="0.3"/>
	<circle class="st0" cx="21.2" cy="75.6" r="0.3"/>
	<circle class="st0" cx="24.2" cy="76.6" r="0.3"/>
	<circle class="st0" cx="23.2" cy="76.6" r="0.3"/>
	<circle class="st0" cx="21.2" cy="76.6" r="0.3"/>
	<circle class="st0" cx="23.2" cy="77.6" r="0.3"/>
	<circle class="st0" cx="22.2" cy="77.6" r="0.3"/>
	<line class="st1" x1="5.6" y1="16.1" x2="9.4" y2="16.1"/>
	<line class="st2" x1="5.6" y1="14.6" x2="9.4" y2="14.6"/>
	<line class="st3" x1="5.6" y1="13.1" x2="9.4" y2="13.1"/>
	<line class="st4" x1="5.6" y1="11.5" x2="9.4" y2="11.5"/>
	<line class="st5" x1="5.6" y1="10" x2="9.4" y2="10"/>
	<line class="st2" x1="5.6" y1="8.5" x2="9.4" y2="8.5"/>
	<line class="st1" x1="5.6" y1="16.7" x2="9.4" y2="16.7"/>
	<line class="st2" x1="5.6" y1="15.1" x2="9.4" y2="15.1"/>
	<line class="st3" x1="5.6" y1="13.6" x2="9.4" y2="13.6"/>
	<line class="st4" x1="5.6" y1="12.1" x2="9.4" y2="12.1"/>
	<line class="st5" x1="5.6" y1="10.6" x2="9.4" y2="10.6"/>
	<line class="st2" x1="5.6" y1="9" x2="9.4" y2="9"/>
	<g>
		<path class="st0" d="M19.1,3.1l1.3-1.3c0.1-0.1,0.1-0.4,0-0.5l-0.1-0.1c-0.4-0.4-0.9-0.4-1.3,0l-0.9,0.9c-0.2,0.2-0.4,0.3-0.7,0.4
			c-0.5,0.1-1,0-1.3-0.4l-0.6-0.7c-0.5-0.5-1.2-0.9-2-0.9c-0.8,0-1.5,0.3-2.1,0.8l-1.3,1.3c-0.1,0.1-0.1,0.4,0,0.5l0.1,0.1
			c0.3,0.3,0.9,0.3,1.2,0l0.9-0.9c0.2-0.2,0.4-0.3,0.7-0.4c0.5-0.1,1,0,1.3,0.4L15,3.2C15.6,3.7,16.3,4,17.1,4
			C17.9,4,18.6,3.6,19.1,3.1z"/>
	</g>
</g>
</svg>
