<?xml version="1.0" encoding="utf-8"?>
<!-- Generator: Adobe Illustrator 23.0.0, SVG Export Plug-In . SVG Version: 6.00 Build 0)  -->
<svg version="1.1" id="Layer_1" xmlns="http://www.w3.org/2000/svg" xmlns:xlink="http://www.w3.org/1999/xlink" x="0px" y="0px"
	 viewBox="0 0 30 80" style="enable-background:new 0 0 30 80;" xml:space="preserve">
<style type="text/css">
	.st0{fill:#FFFFFF;}
	.st1{fill:none;stroke:#FFFFFF;stroke-width:2.1141;stroke-miterlimit:10;}
</style>
<path class="st0" d="M25.3,66.3L25.3,66.3c0,1.1-0.4,1.8-0.8,1.5l-7.9-5.3c-0.3-0.2-0.5-0.8-0.5-1.5v0c0-1.1,0.4-1.8,0.8-1.5
	l7.9,5.3C25.1,65,25.3,65.6,25.3,66.3z"/>
<path class="st0" d="M25.3,61.9L25.3,61.9c0,1.1-0.4,1.8-0.8,1.5l-7.9-5.3c-0.3-0.2-0.5-0.8-0.5-1.5v0c0-1.1,0.4-1.8,0.8-1.5
	l7.9,5.3C25.1,60.5,25.3,61.2,25.3,61.9z"/>
<path class="st0" d="M25.3,57.4L25.3,57.4c0,1.1-0.4,1.8-0.8,1.5l-7.9-5.3c-0.3-0.2-0.5-0.8-0.5-1.5v0c0-1.1,0.4-1.8,0.8-1.5
	l7.9,5.3C25.1,56.1,25.3,56.7,25.3,57.4z"/>
<path class="st0" d="M25.3,53L25.3,53c0,1.1-0.4,1.8-0.8,1.5l-7.9-5.3c-0.3-0.2-0.5-0.8-0.5-1.5v0c0-1.1,0.4-1.8,0.8-1.5l7.9,5.3
	C25.1,51.6,25.3,52.2,25.3,53z"/>
<g>
	<rect x="25.1" y="70.1" class="st0" width="0.2" height="9.9"/>
</g>
<g>
	<rect x="23.1" y="70.1" class="st0" width="0.8" height="9.9"/>
</g>
<g>
	<rect x="21.8" y="70.1" class="st0" width="0.2" height="9.9"/>
</g>
<g>
	<rect x="19.4" y="70.1" class="st0" width="1.6" height="9.9"/>
</g>
<g>
	<rect x="18.4" y="70.1" class="st0" width="0.4" height="9.9"/>
</g>
<g>
	<rect x="16.4" y="70.1" class="st0" width="1" height="9.9"/>
</g>
<g>
	<rect x="14.9" y="70.1" class="st0" width="0.7" height="9.9"/>
</g>
<g>
	<rect x="12.6" y="70.1" class="st0" width="2.1" height="9.9"/>
</g>
<g>
	<rect x="11.9" y="70.1" class="st0" width="0.2" height="9.9"/>
</g>
<g>
	<rect x="9.9" y="70.1" class="st0" width="0.8" height="9.9"/>
</g>
<g>
	<rect x="8" y="70.1" class="st0" width="1.3" height="9.9"/>
</g>
<g>
	<rect x="6.4" y="70.1" class="st0" width="1.3" height="9.9"/>
</g>
<g>
	<rect x="5.3" y="70.1" class="st0" width="0.2" height="9.9"/>
</g>
<g>
	<rect x="3.3" y="70.1" class="st0" width="1.1" height="9.9"/>
</g>
<g>
	<path class="st0" d="M17.1,23.7l-0.4-0.3c-0.7-0.5-1.7-0.2-2,0.6l-0.1,0.4c-0.2,0.7-1,1-1.7,0.8l0,0c-0.6-0.2-1-1-0.7-1.6l0.1-0.3
		c0.3-0.8-0.3-1.7-1.2-1.7h-0.6c-0.7,0-1.3-0.6-1.3-1.3v-0.2c0-0.7,0.6-1.3,1.3-1.3h0.6c0.9,0,1.5-0.9,1.2-1.7l-0.1-0.3
		c-0.2-0.6,0.1-1.3,0.7-1.6l0,0c0.7-0.3,1.4,0.1,1.7,0.8l0.1,0.4c0.3,0.8,1.3,1.1,2,0.6l0.4-0.3c0.6-0.4,1.4-0.3,1.8,0.2l0,0
		c0.4,0.6,0.3,1.4-0.3,1.8l-0.5,0.3c-0.7,0.5-0.7,1.6,0,2.1l0.5,0.3c0.6,0.4,0.7,1.2,0.3,1.8l0,0.1C18.5,24,17.7,24.1,17.1,23.7z"/>
</g>
<circle class="st1" cx="14.3" cy="20.3" r="9.7"/>
<g>
	<rect x="25.1" y="70.1" class="st0" width="0.2" height="9.9"/>
</g>
<g>
	<rect x="23.1" y="70.1" class="st0" width="0.8" height="9.9"/>
</g>
<g>
	<rect x="21.8" y="70.1" class="st0" width="0.2" height="9.9"/>
</g>
<g>
	<rect x="19.4" y="70.1" class="st0" width="1.6" height="9.9"/>
</g>
<g>
	<rect x="18.4" y="70.1" class="st0" width="0.4" height="9.9"/>
</g>
<g>
	<rect x="16.4" y="70.1" class="st0" width="1" height="9.9"/>
</g>
<g>
	<rect x="14.9" y="70.1" class="st0" width="0.7" height="9.9"/>
</g>
<g>
	<rect x="12.6" y="70.1" class="st0" width="2.1" height="9.9"/>
</g>
<g>
	<rect x="11.9" y="70.1" class="st0" width="0.2" height="9.9"/>
</g>
<g>
	<rect x="9.9" y="70.1" class="st0" width="0.8" height="9.9"/>
</g>
<g>
	<rect x="8" y="70.1" class="st0" width="1.3" height="9.9"/>
</g>
<g>
	<rect x="6.4" y="70.1" class="st0" width="1.3" height="9.9"/>
</g>
<g>
	<rect x="5.3" y="70.1" class="st0" width="0.2" height="9.9"/>
</g>
<g>
	<rect x="3.3" y="70.1" class="st0" width="1.1" height="9.9"/>
</g>
<g>
	<rect x="22.9" y="0" class="st0" width="1.1" height="4"/>
</g>
<g>
	<rect x="19" y="0" class="st0" width="3.4" height="4"/>
</g>
<g>
	<rect x="17.8" class="st0" width="0.3" height="4"/>
</g>
<g>
	<rect x="14.5" class="st0" width="1.4" height="4"/>
</g>
<g>
	<rect x="11.3" class="st0" width="2.2" height="4"/>
</g>
<g>
	<rect x="8.6" y="0" class="st0" width="2.2" height="4"/>
</g>
<g>
	<rect x="6.7" class="st0" width="0.4" height="4"/>
</g>
<g>
	<rect x="3.5" class="st0" width="1.8" height="4"/>
</g>
<g>
	<rect x="22.9" y="0" class="st0" width="1.1" height="4"/>
</g>
<g>
	<rect x="19" y="0" class="st0" width="3.4" height="4"/>
</g>
<g>
	<rect x="17.8" class="st0" width="0.3" height="4"/>
</g>
<g>
	<rect x="14.5" class="st0" width="1.4" height="4"/>
</g>
<g>
	<rect x="11.3" class="st0" width="2.2" height="4"/>
</g>
<g>
	<rect x="8.6" y="0" class="st0" width="2.2" height="4"/>
</g>
<g>
	<rect x="6.7" class="st0" width="0.4" height="4"/>
</g>
<g>
	<rect x="3.5" class="st0" width="1.8" height="4"/>
</g>
<path class="st0" d="M4.1,60.1c0.6,0.5,1.2,0.5,1.7,0.4c0.1,0,0.2,0,0.3,0.1l3.6,3.6c0.1,0.1,0.1,0.2,0.1,0.3
	c-0.1,0.4-0.1,0.9,0.2,1.4c0.3,0.6,0.9,1,1.6,1.1c1.2,0.1,2.3-0.9,2.2-2.2c-0.1-0.7-0.5-1.2-1.1-1.6c-0.5-0.3-1-0.3-1.4-0.2
	c-0.1,0-0.2,0-0.3-0.1l-3.6-3.6c-0.1-0.1-0.1-0.2-0.1-0.3c0.1-0.4,0.1-0.8,0-1.2c-0.2-0.7-0.8-1.2-1.5-1.3c-1.3-0.2-2.5,0.9-2.3,2.3
	C3.4,59.3,3.7,59.8,4.1,60.1z"/>
<path class="st0" d="M12.8,53.7c-0.6,0.5-1.2,0.5-1.7,0.4c-0.1,0-0.2,0-0.3,0.1l-3.6,3.6c-0.1,0.1-0.1,0.2-0.1,0.3
	c0.1,0.4,0.1,0.9-0.2,1.4c-0.3,0.6-0.9,1-1.6,1.1c-1.2,0.1-2.3-0.9-2.2-2.2c0.1-0.7,0.5-1.2,1.1-1.6c0.5-0.3,1-0.3,1.4-0.2
	c0.1,0,0.2,0,0.3-0.1L9.7,53c0.1-0.1,0.1-0.2,0.1-0.3c-0.1-0.4-0.1-0.8,0-1.2c0.2-0.7,0.8-1.2,1.5-1.3c1.3-0.2,2.5,0.9,2.3,2.3
	C13.5,52.9,13.2,53.4,12.8,53.7z"/>
<path class="st0" d="M12.8,60.1c-0.6,0.5-1.2,0.5-1.7,0.4c-0.1,0-0.2,0-0.3,0.1l-3.6,3.6c-0.1,0.1-0.1,0.2-0.1,0.3
	c0.1,0.4,0.1,0.9-0.2,1.4c-0.3,0.6-0.9,1-1.6,1.1C4.2,67,3.2,66,3.3,64.7c0.1-0.7,0.5-1.2,1.1-1.6c0.5-0.3,1-0.3,1.4-0.2
	c0.1,0,0.2,0,0.3-0.1l3.6-3.6c0.1-0.1,0.1-0.2,0.1-0.3c-0.1-0.4-0.1-0.8,0-1.2c0.2-0.7,0.8-1.2,1.5-1.3c1.3-0.2,2.5,0.9,2.3,2.3
	C13.5,59.3,13.2,59.8,12.8,60.1z"/>
<path class="st0" d="M4.1,53.7c0.6,0.5,1.2,0.5,1.7,0.4c0.1,0,0.2,0,0.3,0.1l3.6,3.6c0.1,0.1,0.1,0.2,0.1,0.3
	c-0.1,0.4-0.1,0.9,0.2,1.4c0.3,0.6,0.9,1,1.6,1.1c1.2,0.1,2.3-0.9,2.2-2.2c-0.1-0.7-0.5-1.2-1.1-1.6c-0.5-0.3-1-0.3-1.4-0.2
	c-0.1,0-0.2,0-0.3-0.1L7.2,53c-0.1-0.1-0.1-0.2-0.1-0.3c0.1-0.4,0.1-0.8,0-1.2c-0.2-0.7-0.8-1.2-1.5-1.3c-1.3-0.2-2.5,0.9-2.3,2.3
	C3.4,52.9,3.7,53.4,4.1,53.7z"/>
<path class="st0" d="M4.1,46.9c0.6,0.5,1.2,0.5,1.7,0.4c0.1,0,0.2,0,0.3,0.1L9.6,51c0.1,0.1,0.1,0.2,0.1,0.3
	c-0.1,0.4-0.1,0.9,0.2,1.4c0.3,0.6,0.9,1,1.6,1.1c1.2,0.1,2.3-0.9,2.2-2.2c-0.1-0.7-0.5-1.2-1.1-1.6c-0.5-0.3-1-0.3-1.4-0.2
	c-0.1,0-0.2,0-0.3-0.1l-3.6-3.6c-0.1-0.1-0.1-0.2-0.1-0.3c0.1-0.4,0.1-0.8,0-1.2c-0.2-0.7-0.8-1.2-1.5-1.3c-1.3-0.2-2.5,0.9-2.3,2.3
	C3.4,46.2,3.7,46.6,4.1,46.9z"/>
<path class="st0" d="M12.8,40.5c-0.6,0.5-1.2,0.5-1.7,0.4c-0.1,0-0.2,0-0.3,0.1l-3.6,3.6c-0.1,0.1-0.1,0.2-0.1,0.3
	c0.1,0.4,0.1,0.9-0.2,1.4c-0.3,0.6-0.9,1-1.6,1.1c-1.2,0.1-2.3-0.9-2.2-2.2c0.1-0.7,0.5-1.2,1.1-1.6c0.5-0.3,1-0.3,1.4-0.2
	c0.1,0,0.2,0,0.3-0.1l3.6-3.6c0.1-0.1,0.1-0.2,0.1-0.3c-0.1-0.4-0.1-0.8,0-1.2c0.2-0.7,0.8-1.2,1.5-1.3c1.3-0.2,2.5,0.9,2.3,2.3
	C13.5,39.8,13.2,40.2,12.8,40.5z"/>
<path class="st0" d="M12.8,46.9c-0.6,0.5-1.2,0.5-1.7,0.4c-0.1,0-0.2,0-0.3,0.1L7.2,51c-0.1,0.1-0.1,0.2-0.1,0.3
	c0.1,0.4,0.1,0.9-0.2,1.4c-0.3,0.6-0.9,1-1.6,1.1c-1.2,0.1-2.3-0.9-2.2-2.2c0.1-0.7,0.5-1.2,1.1-1.6c0.5-0.3,1-0.3,1.4-0.2
	c0.1,0,0.2,0,0.3-0.1l3.6-3.6c0.1-0.1,0.1-0.2,0.1-0.3c-0.1-0.4-0.1-0.8,0-1.2c0.2-0.7,0.8-1.2,1.5-1.3c1.3-0.2,2.5,0.9,2.3,2.3
	C13.5,46.2,13.2,46.6,12.8,46.9z"/>
<path class="st0" d="M4.1,40.5C4.7,41,5.3,41,5.7,40.9c0.1,0,0.2,0,0.3,0.1l3.6,3.6c0.1,0.1,0.1,0.2,0.1,0.3
	c-0.1,0.4-0.1,0.9,0.2,1.4c0.3,0.6,0.9,1,1.6,1.1c1.2,0.1,2.3-0.9,2.2-2.2c-0.1-0.7-0.5-1.2-1.1-1.6c-0.5-0.3-1-0.3-1.4-0.2
	c-0.1,0-0.2,0-0.3-0.1l-3.6-3.6c-0.1-0.1-0.1-0.2-0.1-0.3c0.1-0.4,0.1-0.8,0-1.2c-0.2-0.7-0.8-1.2-1.5-1.3c-1.3-0.2-2.5,0.9-2.3,2.3
	C3.4,39.8,3.7,40.2,4.1,40.5z"/>
</svg>
