<?xml version="1.0" encoding="utf-8"?>
<!-- Generator: Adobe Illustrator 23.0.0, SVG Export Plug-In . SVG Version: 6.00 Build 0)  -->
<svg version="1.1" id="Layer_1" xmlns="http://www.w3.org/2000/svg" xmlns:xlink="http://www.w3.org/1999/xlink" x="0px" y="0px"
	 viewBox="0 0 30 80" style="enable-background:new 0 0 30 80;" xml:space="preserve">
<style type="text/css">
	.st0{fill:#FFFFFF;}
	.st1{fill:none;stroke:#FFFFFF;stroke-width:1.5584;stroke-miterlimit:10;}
	.st2{fill:#FFFFFF;stroke:#FFFFFF;stroke-width:1.5584;stroke-miterlimit:10;}
</style>
<path class="st0" d="M4.8-3.5h5.8v54.7h0c-3.2,0-5.8-2.6-5.8-5.8V-3.5z"/>
<path class="st0" d="M7.7,65.6L7.7,65.6c3.2,0,5.8-2.6,5.8-5.8S10.9,54,7.7,54h0c-3.2,0-5.8,2.6-5.8,5.8S4.5,65.6,7.7,65.6z
	 M7.7,56.9L7.7,56.9c1.6,0,2.9,1.3,2.9,2.9s-1.3,2.9-2.9,2.9h0c-1.6,0-2.9-1.3-2.9-2.9S6.1,56.9,7.7,56.9z"/>
<path class="st0" d="M16,14.7h11.7V-3.4H16V14.7z M24.7,5.7c0,1.6-1.3,2.9-2.9,2.9c-1.6,0-2.9-1.3-2.9-2.9s1.3-2.9,2.9-2.9
	C23.4,2.8,24.7,4.1,24.7,5.7z"/>
<path class="st0" d="M27.6,82L27.6,82c0,0.5-0.5,0.9-1,0.8l-10-2.7C16.2,80,16,79.7,16,79.3v0c0-0.5,0.5-0.9,1-0.8l10,2.7
	C27.4,81.3,27.6,81.6,27.6,82z"/>
<path class="st0" d="M27.6,79.8L27.6,79.8c0,0.5-0.5,0.9-1,0.8l-10-2.7c-0.4-0.1-0.6-0.4-0.6-0.8l0,0c0-0.5,0.5-0.9,1-0.8L27,79
	C27.4,79.1,27.6,79.4,27.6,79.8z"/>
<path class="st0" d="M27.6,77.6L27.6,77.6c0,0.5-0.5,0.9-1,0.8l-10-2.7c-0.4-0.1-0.6-0.4-0.6-0.8l0,0c0-0.5,0.5-0.9,1-0.8l10,2.7
	C27.4,76.9,27.6,77.2,27.6,77.6z"/>
<path class="st0" d="M27.6,75.3L27.6,75.3c0,0.5-0.5,0.9-1,0.8l-10-2.7C16.2,73.3,16,73,16,72.6l0,0c0-0.5,0.5-0.9,1-0.8l10,2.7
	C27.4,74.6,27.6,74.9,27.6,75.3z"/>
<path class="st0" d="M27.6,73.1L27.6,73.1c0,0.5-0.5,0.9-1,0.8l-10-2.7c-0.4-0.1-0.6-0.4-0.6-0.8l0,0c0-0.5,0.5-0.9,1-0.8l10,2.7
	C27.4,72.4,27.6,72.7,27.6,73.1z"/>
<path class="st0" d="M27.6,70.9L27.6,70.9c0,0.5-0.5,0.9-1,0.8l-10-2.7c-0.4-0.1-0.6-0.4-0.6-0.8l0,0c0-0.5,0.5-0.9,1-0.8l10,2.7
	C27.4,70.2,27.6,70.5,27.6,70.9z"/>
<path class="st0" d="M27.6,68.6L27.6,68.6c0,0.5-0.5,0.9-1,0.8l-10-2.7C16.2,66.6,16,66.3,16,66v0c0-0.5,0.5-0.9,1-0.8l10,2.7
	C27.4,68,27.6,68.3,27.6,68.6z"/>
<path class="st0" d="M27.6,66.4L27.6,66.4c0,0.5-0.5,0.9-1,0.8l-10-2.7c-0.4-0.1-0.6-0.4-0.6-0.8l0,0c0-0.5,0.5-0.9,1-0.8l10,2.7
	C27.4,65.7,27.6,66,27.6,66.4z"/>
<path class="st0" d="M27.6,64.1L27.6,64.1c0,0.5-0.5,0.9-1,0.8l-10-2.7c-0.4-0.1-0.6-0.4-0.6-0.8v0c0-0.5,0.5-0.9,1-0.8l10,2.7
	C27.4,63.5,27.6,63.8,27.6,64.1z"/>
<path class="st0" d="M27.6,62L27.6,62c0,0.5-0.5,0.9-1,0.8l-10-2.7C16.2,60,16,59.7,16,59.3l0,0c0-0.5,0.5-0.9,1-0.8l10,2.7
	C27.4,61.3,27.6,61.6,27.6,62z"/>
<path class="st0" d="M27.6,59.7L27.6,59.7c0,0.5-0.5,0.9-1,0.8l-10-2.7C16.2,57.7,16,57.4,16,57l0,0c0-0.5,0.5-0.9,1-0.8L27,59
	C27.4,59,27.6,59.4,27.6,59.7z"/>
<path class="st0" d="M27.6,57.5L27.6,57.5c0,0.5-0.5,0.9-1,0.8l-10-2.7c-0.4-0.1-0.6-0.4-0.6-0.8v0c0-0.5,0.5-0.9,1-0.8l10,2.7
	C27.4,56.8,27.6,57.1,27.6,57.5z"/>
<path class="st0" d="M27.6,55.2L27.6,55.2c0,0.5-0.5,0.9-1,0.8l-10-2.7c-0.4-0.1-0.6-0.4-0.6-0.8l0,0c0-0.5,0.5-0.9,1-0.8l10,2.7
	C27.4,54.5,27.6,54.9,27.6,55.2z"/>
<path class="st1" d="M16.8,16.2v4.8c0,0.6,0.2,1.2,0.7,1.6l7,7c0.4,0.4,0.7,1,0.7,1.6v10.4c0,0.6-0.2,1.2-0.7,1.6l-6.6,6.6"/>
<path class="st1" d="M25.2,16.2V21c0,0.6-0.2,1.2-0.7,1.6L22.1,25"/>
<path class="st1" d="M19.4,26.5l-1.9,1.9c-0.4,0.4-0.7,1-0.7,1.6v12.4c0,0.6,0.2,1.2,0.7,1.6l1.8,1.8"/>
<line class="st2" x1="22.1" y1="48.8" x2="23.5" y2="50.1"/>
</svg>
