<?xml version="1.0" encoding="utf-8"?>
<!-- Generator: Adobe Illustrator 23.0.0, SVG Export Plug-In . SVG Version: 6.00 Build 0)  -->
<svg version="1.1" id="Layer_1" xmlns="http://www.w3.org/2000/svg" xmlns:xlink="http://www.w3.org/1999/xlink" x="0px" y="0px"
	 viewBox="0 0 30 80" style="enable-background:new 0 0 30 80;" xml:space="preserve">
<style type="text/css">
	.st0{fill:#FFFFFF;}
	.st1{clip-path:url(#SVGID_2_);}
</style>
<path class="st0" d="M16.4,77.5L16.4,77.5c0.7,0,1.3,0.6,1.3,1.3l0,0c0,0.7-0.6,1.3-1.3,1.3h0c-0.7,0-1.3-0.6-1.3-1.3l0,0
	C15.1,78,15.7,77.5,16.4,77.5z"/>
<path class="st0" d="M13.2,77.5L13.2,77.5c0.7,0,1.3,0.6,1.3,1.3l0,0c0,0.7-0.6,1.3-1.3,1.3h0c-0.7,0-1.3-0.6-1.3-1.3l0,0
	C11.9,78,12.5,77.5,13.2,77.5z"/>
<path class="st0" d="M10,77.5L10,77.5c0.7,0,1.3,0.6,1.3,1.3l0,0c0,0.7-0.6,1.3-1.3,1.3h0c-0.7,0-1.3-0.6-1.3-1.3l0,0
	C8.7,78,9.3,77.5,10,77.5z"/>
<g>
	<path class="st0" d="M10.4,46.8v2.7c0,0.3,0.3,0.6,0.6,0.6h2.7c0.3,0,0.6-0.3,0.6-0.6v-0.4h3.3c0.2,0,0.4-0.2,0.4-0.4v-1
		c0-0.2-0.2-0.4-0.4-0.4h-3.3v-0.4c0-0.3-0.3-0.6-0.6-0.6H11C10.7,46.3,10.4,46.5,10.4,46.8z"/>
	<circle class="st0" cx="9.4" cy="48.2" r="0.9"/>
</g>
<g>
	<path class="st0" d="M10.4,41.7v2.7c0,0.3,0.3,0.6,0.6,0.6h2.7c0.3,0,0.6-0.3,0.6-0.6V44h3.3c0.2,0,0.4-0.2,0.4-0.4v-1
		c0-0.2-0.2-0.4-0.4-0.4h-3.3v-0.4c0-0.3-0.3-0.6-0.6-0.6H11C10.7,41.2,10.4,41.4,10.4,41.7z"/>
	<circle class="st0" cx="9.4" cy="43" r="0.9"/>
</g>
<circle class="st0" cx="21.3" cy="38.4" r="0.3"/>
<circle class="st0" cx="21.3" cy="37.4" r="0.3"/>
<circle class="st0" cx="21.3" cy="36.4" r="0.3"/>
<circle class="st0" cx="20.4" cy="37.4" r="0.3"/>
<circle class="st0" cx="18.3" cy="37.4" r="0.3"/>
<circle class="st0" cx="18.3" cy="35.5" r="0.3"/>
<circle class="st0" cx="17.4" cy="38.4" r="0.3"/>
<circle class="st0" cx="17.4" cy="37.4" r="0.3"/>
<circle class="st0" cx="17.4" cy="36.4" r="0.3"/>
<circle class="st0" cx="16.4" cy="36.4" r="0.3"/>
<circle class="st0" cx="16.4" cy="35.5" r="0.3"/>
<circle class="st0" cx="15.5" cy="38.4" r="0.3"/>
<circle class="st0" cx="15.5" cy="37.4" r="0.3"/>
<circle class="st0" cx="15.5" cy="35.5" r="0.3"/>
<circle class="st0" cx="14.5" cy="38.4" r="0.3"/>
<circle class="st0" cx="14.5" cy="37.4" r="0.3"/>
<circle class="st0" cx="14.5" cy="36.4" r="0.3"/>
<circle class="st0" cx="9.6" cy="38.4" r="0.3"/>
<circle class="st0" cx="9.6" cy="36.4" r="0.3"/>
<circle class="st0" cx="10.6" cy="38.4" r="0.3"/>
<circle class="st0" cx="10.6" cy="36.4" r="0.3"/>
<circle class="st0" cx="10.6" cy="35.5" r="0.3"/>
<circle class="st0" cx="11.5" cy="38.4" r="0.3"/>
<circle class="st0" cx="11.5" cy="37.4" r="0.3"/>
<circle class="st0" cx="11.5" cy="36.4" r="0.3"/>
<circle class="st0" cx="12.5" cy="37.4" r="0.3"/>
<circle class="st0" cx="7.7" cy="37.4" r="0.3"/>
<circle class="st0" cx="7.7" cy="35.5" r="0.3"/>
<circle class="st0" cx="6.7" cy="38.4" r="0.3"/>
<circle class="st0" cx="6.7" cy="37.4" r="0.3"/>
<circle class="st0" cx="6.7" cy="36.4" r="0.3"/>
<circle class="st0" cx="5.8" cy="36.4" r="0.3"/>
<circle class="st0" cx="5.8" cy="35.5" r="0.3"/>
<circle class="st0" cx="4.8" cy="38.4" r="0.3"/>
<circle class="st0" cx="4.8" cy="37.4" r="0.3"/>
<circle class="st0" cx="4.8" cy="35.5" r="0.3"/>
<circle class="st0" cx="3.9" cy="38.4" r="0.3"/>
<circle class="st0" cx="3.9" cy="37.4" r="0.3"/>
<circle class="st0" cx="3.9" cy="36.4" r="0.3"/>
<circle class="st0" cx="3.9" cy="30.8" r="0.3"/>
<circle class="st0" cx="3.9" cy="32.7" r="0.3"/>
<circle class="st0" cx="4.8" cy="30.8" r="0.3"/>
<circle class="st0" cx="4.8" cy="32.7" r="0.3"/>
<circle class="st0" cx="4.8" cy="33.6" r="0.3"/>
<circle class="st0" cx="5.8" cy="30.8" r="0.3"/>
<circle class="st0" cx="5.8" cy="31.7" r="0.3"/>
<circle class="st0" cx="5.8" cy="32.7" r="0.3"/>
<circle class="st0" cx="6.7" cy="31.7" r="0.3"/>
<circle class="st0" cx="8.8" cy="31.7" r="0.3"/>
<circle class="st0" cx="8.8" cy="33.6" r="0.3"/>
<circle class="st0" cx="9.7" cy="30.8" r="0.3"/>
<circle class="st0" cx="9.7" cy="31.7" r="0.3"/>
<circle class="st0" cx="9.7" cy="32.7" r="0.3"/>
<circle class="st0" cx="10.7" cy="32.7" r="0.3"/>
<circle class="st0" cx="10.7" cy="33.6" r="0.3"/>
<circle class="st0" cx="11.7" cy="30.8" r="0.3"/>
<circle class="st0" cx="11.7" cy="31.7" r="0.3"/>
<circle class="st0" cx="11.7" cy="33.6" r="0.3"/>
<circle class="st0" cx="12.6" cy="30.8" r="0.3"/>
<circle class="st0" cx="12.6" cy="31.7" r="0.3"/>
<circle class="st0" cx="12.6" cy="32.7" r="0.3"/>
<circle class="st0" cx="17.5" cy="30.8" r="0.3"/>
<circle class="st0" cx="17.5" cy="32.7" r="0.3"/>
<circle class="st0" cx="16.5" cy="30.8" r="0.3"/>
<circle class="st0" cx="16.5" cy="32.7" r="0.3"/>
<circle class="st0" cx="16.5" cy="33.6" r="0.3"/>
<circle class="st0" cx="15.6" cy="30.8" r="0.3"/>
<circle class="st0" cx="15.6" cy="31.7" r="0.3"/>
<circle class="st0" cx="15.6" cy="32.7" r="0.3"/>
<circle class="st0" cx="14.6" cy="31.7" r="0.3"/>
<circle class="st0" cx="19.4" cy="31.7" r="0.3"/>
<circle class="st0" cx="19.4" cy="33.6" r="0.3"/>
<circle class="st0" cx="20.4" cy="30.8" r="0.3"/>
<circle class="st0" cx="20.4" cy="31.7" r="0.3"/>
<circle class="st0" cx="20.4" cy="32.7" r="0.3"/>
<circle class="st0" cx="21.3" cy="32.7" r="0.3"/>
<circle class="st0" cx="21.3" cy="33.6" r="0.3"/>
<circle class="st0" cx="3.9" cy="38.4" r="0.3"/>
<circle class="st0" cx="3.9" cy="37.4" r="0.3"/>
<circle class="st0" cx="3.9" cy="36.4" r="0.3"/>
<path class="st0" d="M18.6,2.7l-1.1,0.7c-0.4,0.2-0.8,0-0.8-0.5V2.9c0-0.2,0.1-0.4,0.3-0.5L18,1.8v0l-1.1-0.7
	c-0.2-0.1-0.3-0.3-0.3-0.5v0c0-0.4,0.5-0.7,0.8-0.5L18.6,1c0.2,0.1,0.4,0.1,0.6,0l1.4-0.9c0.4-0.2,0.8,0,0.8,0.5v0.1
	c0,0.2-0.1,0.4-0.3,0.5l-1.3,0.7v0l1.3,0.8c0.2,0.1,0.3,0.3,0.3,0.5v0.1c0,0.4-0.5,0.7-0.8,0.5l-1.4-0.9C19,2.6,18.8,2.6,18.6,2.7z"
	/>
<path class="st0" d="M23.6,2.7l-1.1,0.7c-0.4,0.2-0.8,0-0.8-0.5V2.9c0-0.2,0.1-0.4,0.3-0.5l1.1-0.6v0l-1.1-0.7
	c-0.2-0.1-0.3-0.3-0.3-0.5v0c0-0.4,0.5-0.7,0.8-0.5L23.6,1c0.2,0.1,0.4,0.1,0.6,0l1.4-0.9c0.4-0.2,0.8,0,0.8,0.5v0.1
	c0,0.2-0.1,0.4-0.3,0.5l-1.3,0.7v0l1.3,0.8c0.2,0.1,0.3,0.3,0.3,0.5v0.1c0,0.4-0.5,0.7-0.8,0.5l-1.4-0.9C24,2.6,23.8,2.6,23.6,2.7z"
	/>
<path class="st0" d="M23.6,2.7l-1.1,0.7c-0.4,0.2-0.8,0-0.8-0.5V2.9c0-0.2,0.1-0.4,0.3-0.5l1.1-0.6v0l-1.1-0.7
	c-0.2-0.1-0.3-0.3-0.3-0.5v0c0-0.4,0.5-0.7,0.8-0.5L23.6,1c0.2,0.1,0.4,0.1,0.6,0l1.4-0.9c0.4-0.2,0.8,0,0.8,0.5v0.1
	c0,0.2-0.1,0.4-0.3,0.5l-1.3,0.7v0l1.3,0.8c0.2,0.1,0.3,0.3,0.3,0.5v0.1c0,0.4-0.5,0.7-0.8,0.5l-1.4-0.9C24,2.6,23.8,2.6,23.6,2.7z"
	/>
<g>
	<defs>
		
			<rect id="SVGID_1_" x="3.4" y="52.2" transform="matrix(6.123234e-17 -1 1 6.123234e-17 -48.7834 75.5639)" width="19.9" height="19.9"/>
	</defs>
	<clipPath id="SVGID_2_">
		<use xlink:href="#SVGID_1_"  style="overflow:visible;"/>
	</clipPath>
	<g class="st1">
		<polygon class="st0" points="5.1,49.7 0.9,53.9 9.2,62.2 0.9,70.5 5.1,74.6 13.4,66.4 21.7,74.6 25.9,70.5 17.6,62.2 25.9,53.9 
			21.7,49.7 13.4,58 		"/>
	</g>
</g>
<g>
	<rect x="14.4" class="st0" width="0.4" height="3.7"/>
</g>
<g>
	<rect x="11.5" class="st0" width="1.3" height="3.7"/>
</g>
<g>
	<rect x="9.5" class="st0" width="0.3" height="3.7"/>
</g>
<g>
	<rect x="5.8" class="st0" width="2.5" height="3.7"/>
</g>
<g>
	<rect x="4.3" class="st0" width="0.6" height="3.7"/>
</g>
<g>
	<rect x="14.4" class="st0" width="0.4" height="3.7"/>
</g>
<g>
	<rect x="11.5" class="st0" width="1.3" height="3.7"/>
</g>
<g>
	<rect x="9.5" class="st0" width="0.3" height="3.7"/>
</g>
<g>
	<rect x="5.8" class="st0" width="2.5" height="3.7"/>
</g>
<g>
	<rect x="4.3" class="st0" width="0.6" height="3.7"/>
</g>
<path class="st0" d="M15,19.8c-0.4,0.5-0.4,1-0.3,1.4c0,0.1,0,0.2-0.1,0.2l-3,3c-0.1,0.1-0.1,0.1-0.2,0.1c-0.3-0.1-0.7-0.1-1.1,0.1
	c-0.5,0.3-0.8,0.7-0.9,1.3c-0.1,1,0.8,1.9,1.8,1.8c0.5-0.1,1-0.4,1.3-0.9c0.2-0.4,0.2-0.8,0.1-1.1c0-0.1,0-0.2,0.1-0.2l2.9-2.9
	c0.1-0.1,0.1-0.1,0.2-0.1c0.3,0.1,0.6,0.1,1,0c0.6-0.2,1-0.7,1.1-1.3c0.2-1.1-0.8-2-1.9-1.8C15.6,19.2,15.3,19.5,15,19.8z"/>
<path class="st0" d="M20.3,26.9c-0.4-0.5-0.4-1-0.3-1.4c0-0.1,0-0.2-0.1-0.2l-3-3c-0.1-0.1-0.1-0.1-0.2-0.1
	c-0.3,0.1-0.7,0.1-1.1-0.1c-0.5-0.3-0.8-0.7-0.9-1.3c-0.1-1,0.8-1.9,1.8-1.8c0.5,0.1,1,0.4,1.3,0.9c0.2,0.4,0.2,0.8,0.1,1.1
	c0,0.1,0,0.2,0.1,0.2l2.9,2.9c0.1,0.1,0.1,0.1,0.2,0.1c0.3-0.1,0.6-0.1,1,0c0.6,0.2,1,0.7,1.1,1.3c0.2,1.1-0.8,2-1.9,1.8
	C20.9,27.5,20.5,27.2,20.3,26.9z"/>
<path class="st0" d="M9.5,16.1c-0.4-0.5-0.4-1-0.3-1.4c0-0.1,0-0.2-0.1-0.2l-3.1-3.1c-0.1-0.1-0.1-0.1-0.2-0.1
	c-0.4,0.1-0.7,0.1-1.2-0.1c-0.5-0.3-0.9-0.8-0.9-1.3C3.7,8.8,4.5,7.9,5.6,8c0.6,0.1,1,0.4,1.3,0.9C7.1,9.4,7.1,9.8,7,10.1
	c0,0.1,0,0.2,0.1,0.2l3,3c0.1,0.1,0.2,0.1,0.2,0.1c0.3-0.1,0.6-0.1,1,0c0.6,0.2,1,0.7,1.1,1.3c0.2,1.1-0.8,2.1-1.9,1.9
	C10.1,16.6,9.8,16.4,9.5,16.1z"/>
<path class="st0" d="M14.9,8.7c-0.4,0.5-0.4,1-0.3,1.4c0,0.1,0,0.2-0.1,0.2l-3.1,3.1c-0.1,0.1-0.1,0.1-0.2,0.1
	c-0.4-0.1-0.7-0.1-1.2,0.1c-0.5,0.3-0.9,0.8-0.9,1.3c-0.1,1,0.8,1.9,1.8,1.8c0.6-0.1,1-0.4,1.3-0.9c0.2-0.4,0.2-0.8,0.1-1.2
	c0-0.1,0-0.2,0.1-0.2l3-3c0.1-0.1,0.2-0.1,0.2-0.1c0.3,0.1,0.6,0.1,1,0c0.6-0.2,1-0.7,1.1-1.3c0.2-1.1-0.8-2.1-1.9-1.9
	C15.5,8.1,15.2,8.4,14.9,8.7z"/>
</svg>
