<?xml version="1.0" encoding="utf-8"?>
<!-- Generator: Adobe Illustrator 23.0.0, SVG Export Plug-In . SVG Version: 6.00 Build 0)  -->
<svg version="1.1" id="Layer_1" xmlns="http://www.w3.org/2000/svg" xmlns:xlink="http://www.w3.org/1999/xlink" x="0px" y="0px"
	 viewBox="0 0 128 128" style="enable-background:new 0 0 128 128;" xml:space="preserve">
<style type="text/css">
	.st0{fill:#FFFFFF;}
	.st1{fill:none;stroke:#FFFFFF;stroke-width:1.1228;stroke-miterlimit:10;}
	.st2{fill:none;stroke:#FFFFFF;stroke-width:1.5358;stroke-miterlimit:10;}
	.st3{fill:#FFFFFF;stroke:#FFFFFF;stroke-width:1.5358;stroke-miterlimit:10;}
	.st4{fill:none;stroke:#FFFFFF;stroke-width:3.8394;stroke-miterlimit:10;}
	.st5{fill:none;stroke:#FFFFFF;stroke-width:0.7679;stroke-miterlimit:10;}
	.st6{fill:none;stroke:#FFFFFF;stroke-width:3.0715;stroke-miterlimit:10;}
</style>
<g>
	<path class="st0" d="M46.3,109.6H40c-1.4,0-2.5,1.1-2.5,2.5v0c0,1.4,1.1,2.5,2.5,2.5h6.3c1.4,0,2.5-1.1,2.5-2.5v0
		C48.9,110.7,47.8,109.6,46.3,109.6z M46.3,113.4c-0.7,0-1.3-0.6-1.3-1.3c0-0.7,0.6-1.3,1.3-1.3s1.3,0.6,1.3,1.3
		C47.6,112.8,47.1,113.4,46.3,113.4z"/>
	<path class="st0" d="M68.1,68.4v18c0,2,1.6,3.7,3.7,3.7c2,0,3.7-1.6,3.7-3.7v-18c0-2-1.6-3.7-3.7-3.7
		C69.8,64.7,68.1,66.4,68.1,68.4z M73.7,86c0,1-0.8,1.8-1.8,1.8S70,87,70,86s0.8-1.8,1.8-1.8S73.7,85,73.7,86z M73.7,68.8
		c0,1-0.8,1.8-1.8,1.8S70,69.9,70,68.8s0.8-1.8,1.8-1.8S73.7,67.8,73.7,68.8z"/>
	<path class="st0" d="M49.6,49.2L49.6,49.2c-0.7,0-1.2-0.7-1-1.3l3.6-13.3c0.1-0.5,0.5-0.8,1-0.8h0c0.7,0,1.2,0.7,1,1.3l-3.6,13.3
		C50.5,48.9,50.1,49.2,49.6,49.2z"/>
	<path class="st0" d="M52.6,49.2L52.6,49.2c-0.7,0-1.2-0.7-1-1.3l3.6-13.3c0.1-0.5,0.5-0.8,1-0.8h0c0.7,0,1.2,0.7,1,1.3l-3.6,13.3
		C53.5,48.9,53,49.2,52.6,49.2z"/>
	<path class="st0" d="M55.5,49.2L55.5,49.2c-0.7,0-1.2-0.7-1-1.3L58,34.6c0.1-0.5,0.5-0.8,1-0.8l0,0c0.7,0,1.2,0.7,1,1.3l-3.6,13.3
		C56.4,48.9,56,49.2,55.5,49.2z"/>
	<path class="st0" d="M58.5,49.2L58.5,49.2c-0.7,0-1.2-0.7-1-1.3L61,34.6c0.1-0.5,0.5-0.8,1-0.8l0,0c0.7,0,1.2,0.7,1,1.3l-3.6,13.3
		C59.4,48.9,59,49.2,58.5,49.2z"/>
	<path class="st0" d="M29.7,51.3L29.7,51.3c-2.9,0-5.3,2.4-5.3,5.3c0,2.9,2.4,5.3,5.3,5.3h0c2.9,0,5.3-2.4,5.3-5.3
		C35,53.7,32.6,51.3,29.7,51.3z M29.7,59.3L29.7,59.3c-1.5,0-2.7-1.2-2.7-2.7c0-1.5,1.2-2.7,2.7-2.7h0c1.5,0,2.7,1.2,2.7,2.7
		C32.3,58.1,31.1,59.3,29.7,59.3z"/>
	<path class="st0" d="M65.4,13V8.3H91v11.4H72C68.4,19.7,65.4,16.7,65.4,13z"/>
	<path class="st0" d="M96.8,7.8h5.7v53.9h0c-3.1,0-5.7-2.6-5.7-5.7V7.8z"/>
	<path class="st0" d="M99.6,75.9L99.6,75.9c3.2,0,5.7-2.6,5.7-5.7s-2.6-5.7-5.7-5.7h0c-3.2,0-5.7,2.6-5.7,5.7S96.5,75.9,99.6,75.9z
		 M99.6,67.3L99.6,67.3c1.6,0,2.9,1.3,2.9,2.9s-1.3,2.9-2.9,2.9h0c-1.6,0-2.9-1.3-2.9-2.9S98.1,67.3,99.6,67.3z"/>
	<circle class="st0" cx="14.4" cy="56.3" r="5.7"/>
	<path class="st0" d="M8.7,67.7v5.6c0,0.6,0.2,1.1,0.5,1.6l4.7,7c0.3,0.5,0.5,1,0.5,1.6l0,4.1c0,1.6,1.3,2.8,2.9,2.8h0
		c1.6,0,2.9-1.3,2.9-2.9V67.7c0-1.6-1.3-2.9-2.9-2.9h-5.7C10,64.8,8.7,66.1,8.7,67.7z"/>
	<path class="st0" d="M8.7,117.6V81.5c0-1.1,1.4-1.5,2-0.6l1.8,2.9c0.1,0.2,0.2,0.4,0.2,0.6v33.2c0,0.6-0.5,1.1-1.1,1.1H9.8
		C9.2,118.7,8.7,118.2,8.7,117.6z"/>
	<rect x="15.4" y="115.4" class="st0" width="4.7" height="4.7"/>
	<rect x="15.4" y="106.3" class="st0" width="4.7" height="4.7"/>
	<rect x="15.4" y="98.6" class="st0" width="4.7" height="4.7"/>
	<path class="st0" d="M107.8,25.8h11.5V7.9h-11.5V25.8z M116.4,16.8c0,1.6-1.3,2.9-2.9,2.9c-1.6,0-2.9-1.3-2.9-2.9
		c0-1.6,1.3-2.9,2.9-2.9C115.1,14,116.4,15.2,116.4,16.8z"/>
	<path class="st0" d="M82.1,47.5l-6,6c-0.6,0.6-1.5,0.6-2.1,0l-0.1-0.1c-0.6-0.6-0.6-1.5,0-2.1l6-6c0.6-0.6,1.5-0.6,2.1,0l0.1,0.1
		C82.7,46,82.7,47,82.1,47.5z"/>
	<path class="st0" d="M113.1,103.3L113.1,103.3c-2.9,0-5.3,2.4-5.3,5.3s2.4,5.3,5.3,5.3h0c2.9,0,5.3-2.4,5.3-5.3
		S116.1,103.3,113.1,103.3z M113.1,111.3L113.1,111.3c-1.5,0-2.7-1.2-2.7-2.7s1.2-2.7,2.7-2.7h0c1.5,0,2.7,1.2,2.7,2.7
		S114.6,111.3,113.1,111.3z"/>
	<path class="st0" d="M89.2,92.7v8.5c0,0.8-0.7,1.5-1.5,1.5h-0.2c-0.8,0-1.5-0.7-1.5-1.5v-8.5c0-0.8,0.7-1.5,1.5-1.5h0.2
		C88.5,91.2,89.2,91.9,89.2,92.7z"/>
	<path class="st0" d="M40,108.5h6.3c1.4,0,2.5-1.1,2.5-2.5v0c0-1.4-1.1-2.5-2.5-2.5H40c-1.4,0-2.5,1.1-2.5,2.5v0
		C37.5,107.4,38.6,108.5,40,108.5z M40,104.7c0.7,0,1.3,0.6,1.3,1.3c0,0.7-0.6,1.3-1.3,1.3c-0.7,0-1.3-0.6-1.3-1.3
		C38.7,105.3,39.3,104.7,40,104.7z"/>
	<path class="st0" d="M27.2,102.4l-4.6,4.6l1.7,6.2l6.2,1.7l4.6-4.6l-1.7-6.2L27.2,102.4z M32,109.5l-2.3,2.3l-3.1-0.8l-0.8-3.1
		l2.3-2.3l3.1,0.8L32,109.5z"/>
	<polygon class="st0" points="96,102.5 87.6,107.4 79.1,102.5 79.1,97.6 70.6,97.6 70.6,107.4 87.6,117.2 104.5,107.4 104.5,97.6 
		96,97.6 	"/>
	<g>
		<path class="st0" d="M79.3,62c-8.2,0.8-15.1-6-14.2-14.2c0.6-6.1,5.5-11,11.6-11.6c8.2-0.8,15.1,6,14.2,14.2
			C90.3,56.5,85.4,61.4,79.3,62z M79.3,38.9c-6.7-0.9-12.4,4.8-11.6,11.6c0.6,4.6,4.3,8.3,8.9,8.9c6.7,0.9,12.4-4.8,11.6-11.6
			C87.6,43.1,83.9,39.4,79.3,38.9z"/>
	</g>
	<g>
		<path class="st0" d="M77.9,41L77.9,41c-0.7,0-1.3-0.6-1.3-1.3v-4.6c0-0.7,0.6-1.3,1.3-1.3l0,0c0.7,0,1.3,0.6,1.3,1.3v4.6
			C79.2,40.4,78.6,41,77.9,41z"/>
	</g>
	<path class="st0" d="M62.2,86.2h-4.5c-1.5,0-2.7-1.2-2.7-2.7v-6.4h3.7c1,0,1.8-0.8,1.8-1.8c0-1-0.8-1.8-1.8-1.8H55v-5.2
		c0-1.5,1.2-2.7,2.7-2.7h4.5c1,0,1.8-0.8,1.8-1.8c0-1-0.8-1.8-1.8-1.8h-4.5c-3.5,0-6.4,2.9-6.4,6.4v5.2H39c-0.1,0-0.1,0-0.2,0v-5.2
		c0-1.5,1.2-2.7,2.7-2.7h5.1c1,0,1.8-0.8,1.8-1.8c0-1-0.8-1.8-1.8-1.8h-5.1c-3.5,0-6.4,2.9-6.4,6.4v15.2c0,1.5-1.2,2.7-2.7,2.7h-1.7
		c-1.5,0-2.7-1.2-2.7-2.7v-18c0-1-0.8-1.8-1.8-1.8c-1,0-1.8,0.8-1.8,1.8v18c0,3.5,2.9,6.4,6.4,6.4h1.7c3.5,0,6.4-2.9,6.4-6.4v-6.4
		c0.1,0,0.1,0,0.2,0h12.3v6.4c0,3.5,2.9,6.4,6.4,6.4h4.5c1,0,1.8-0.8,1.8-1.8C64.1,87,63.2,86.2,62.2,86.2z"/>
	<path class="st0" d="M42.8,22.3H28.6c-3.1,0-5.7,2.6-5.7,5.7v0c0,3.1,2.6,5.7,5.7,5.7h14.2c3.1,0,5.7-2.6,5.7-5.7v0
		C48.5,24.9,45.9,22.3,42.8,22.3z M42.8,30.9c-1.6,0-2.9-1.3-2.9-2.9c0-1.6,1.3-2.9,2.9-2.9c1.6,0,2.9,1.3,2.9,2.9
		C45.6,29.6,44.3,30.9,42.8,30.9z"/>
	<path class="st0" d="M119.3,92L119.3,92c0,0.5-0.5,0.9-1,0.8l-9.9-2.7c-0.3-0.1-0.6-0.4-0.6-0.8l0,0c0-0.5,0.5-0.9,1-0.8l9.9,2.7
		C119,91.3,119.3,91.7,119.3,92z"/>
	<path class="st0" d="M119.3,89.9L119.3,89.9c0,0.5-0.5,0.9-1,0.8l-9.9-2.7c-0.3-0.1-0.6-0.4-0.6-0.8l0,0c0-0.5,0.5-0.9,1-0.8
		l9.9,2.7C119,89.2,119.3,89.5,119.3,89.9z"/>
	<path class="st0" d="M119.3,87.7L119.3,87.7c0,0.5-0.5,0.9-1,0.8l-9.9-2.7c-0.3-0.1-0.6-0.4-0.6-0.8l0,0c0-0.5,0.5-0.9,1-0.8
		l9.9,2.7C119,87,119.3,87.3,119.3,87.7z"/>
	<path class="st0" d="M119.3,85.5L119.3,85.5c0,0.5-0.5,0.9-1,0.8l-9.9-2.7c-0.3-0.1-0.6-0.4-0.6-0.8l0,0c0-0.5,0.5-0.9,1-0.8
		l9.9,2.7C119,84.8,119.3,85.1,119.3,85.5z"/>
	<path class="st0" d="M119.3,83.2L119.3,83.2c0,0.5-0.5,0.9-1,0.8l-9.9-2.7c-0.3-0.1-0.6-0.4-0.6-0.8l0,0c0-0.5,0.5-0.9,1-0.8
		l9.9,2.7C119,82.6,119.3,82.9,119.3,83.2z"/>
	<path class="st0" d="M119.3,81.1L119.3,81.1c0,0.5-0.5,0.9-1,0.8l-9.9-2.7c-0.3-0.1-0.6-0.4-0.6-0.8l0,0c0-0.5,0.5-0.9,1-0.8
		l9.9,2.7C119,80.4,119.3,80.7,119.3,81.1z"/>
	<path class="st0" d="M119.3,78.9L119.3,78.9c0,0.5-0.5,0.9-1,0.8l-9.9-2.7c-0.3-0.1-0.6-0.4-0.6-0.8v0c0-0.5,0.5-0.9,1-0.8l9.9,2.7
		C119,78.2,119.3,78.5,119.3,78.9z"/>
	<path class="st0" d="M119.3,76.7L119.3,76.7c0,0.5-0.5,0.9-1,0.8l-9.9-2.7c-0.3-0.1-0.6-0.4-0.6-0.8l0,0c0-0.5,0.5-0.9,1-0.8
		l9.9,2.7C119,76,119.3,76.3,119.3,76.7z"/>
	<path class="st0" d="M119.3,74.5L119.3,74.5c0,0.5-0.5,0.9-1,0.8l-9.9-2.7c-0.3-0.1-0.6-0.4-0.6-0.8v0c0-0.5,0.5-0.9,1-0.8l9.9,2.7
		C119,73.8,119.3,74.1,119.3,74.5z"/>
	<path class="st0" d="M119.3,72.3L119.3,72.3c0,0.5-0.5,0.9-1,0.8l-9.9-2.7c-0.3-0.1-0.6-0.4-0.6-0.8l0,0c0-0.5,0.5-0.9,1-0.8
		l9.9,2.7C119,71.6,119.3,72,119.3,72.3z"/>
	<path class="st0" d="M119.3,70.1L119.3,70.1c0,0.5-0.5,0.9-1,0.8l-9.9-2.7c-0.3-0.1-0.6-0.4-0.6-0.8l0,0c0-0.5,0.5-0.9,1-0.8
		l9.9,2.7C119,69.4,119.3,69.7,119.3,70.1z"/>
	<path class="st0" d="M119.3,67.9L119.3,67.9c0,0.5-0.5,0.9-1,0.8l-9.9-2.7c-0.3-0.1-0.6-0.4-0.6-0.8l0,0c0-0.5,0.5-0.9,1-0.8
		l9.9,2.7C119,67.2,119.3,67.5,119.3,67.9z"/>
	<path class="st0" d="M119.3,65.7L119.3,65.7c0,0.5-0.5,0.9-1,0.8l-9.9-2.7c-0.3-0.1-0.6-0.4-0.6-0.8l0,0c0-0.5,0.5-0.9,1-0.8
		l9.9,2.7C119,65,119.3,65.3,119.3,65.7z"/>
	<path class="st0" d="M22.9,95v1.7c0,1,0.8,1.9,1.9,1.9h22.9c0.5,0,1,0.2,1.3,0.6l13.1,13.1c0.4,0.4,0.8,0.6,1.3,0.6h0
		c1,0,1.9-0.8,1.9-1.9V99.4c0-0.5-0.2-1-0.6-1.3l-4.5-4.5C60,93.2,59.5,93,59,93l-34.2,0.1C23.7,93.1,22.9,94,22.9,95z"/>
	<path class="st0" d="M89.2,77.3v8.5c0,0.8-0.7,1.5-1.5,1.5h-0.2c-0.8,0-1.5-0.7-1.5-1.5v-8.5c0-0.8,0.7-1.5,1.5-1.5h0.2
		C88.5,75.9,89.2,76.5,89.2,77.3z"/>
	<path class="st0" d="M76.2,45.3l6,6c0.6,0.6,0.6,1.5,0,2.1L82,53.5c-0.6,0.6-1.5,0.6-2.1,0l-6-6c-0.6-0.6-0.6-1.5,0-2.1l0.1-0.1
		C74.6,44.7,75.6,44.7,76.2,45.3z"/>
	<path class="st1" d="M17.8,8.1v0.7c0,0.6-0.5,1.2-1.2,1.2h-5.9c-0.6,0-1.2,0.5-1.2,1.2v0.4c0,0.6,0.5,1.2,1.2,1.2h5.9
		c0.6,0,1.2,0.5,1.2,1.2v0.2c0,0.6-0.5,1.2-1.2,1.2h-5.5c-0.6,0-1.2,0.5-1.2,1.2v0.3c0,0.6,0.5,1.2,1.2,1.2h5.5
		c0.6,0,1.2,0.5,1.2,1.2v0.4c0,0.6-0.5,1.2-1.2,1.2h-5.5c-0.6,0-1.2,0.5-1.2,1.2v0.2c0,0.6,0.5,1.2,1.2,1.2h5.5
		c0.6,0,1.2,0.5,1.2,1.2v0.3c0,0.6-0.5,1.2-1.2,1.2H10"/>
	<path class="st0" d="M25.4,14h21c1.2,0,2.2,0.8,2.4,2l2,10c0.2,1.2,1.3,2,2.4,2h22.1c1.4,0,2.5-1.1,2.5-2.5v0
		c0-1.4-1.1-2.5-2.5-2.5H64.7c-1.2,0-2.2-0.9-2.4-2.1l-1.8-10.6c-0.2-1.2-1.2-2.1-2.4-2.1L25.4,8.1c-1.4,0-2.5,1.1-2.5,2.5v0.9
		C22.9,12.8,24,14,25.4,14z"/>
	<path class="st2" d="M108.7,27.2V32c0,0.6,0.2,1.2,0.7,1.6l6.9,6.9c0.4,0.4,0.7,1,0.7,1.6v10.2c0,0.6-0.2,1.2-0.7,1.6l-6.6,6.6"/>
	<path class="st2" d="M116.9,27.2v4.7c0,0.6-0.2,1.2-0.7,1.6l-2.4,2.4"/>
	<path class="st2" d="M111.2,37.4l-1.9,1.9c-0.4,0.4-0.7,1-0.7,1.6v12.2c0,0.6,0.2,1.2,0.7,1.6l1.8,1.8"/>
	<line class="st3" x1="113.9" y1="59.3" x2="115.2" y2="60.6"/>
	<line class="st4" x1="10.7" y1="30.1" x2="10.7" y2="47.7"/>
	<line class="st5" x1="13.8" y1="30.1" x2="13.8" y2="47.7"/>
	<line class="st6" x1="16.9" y1="30.1" x2="16.9" y2="47.7"/>
	<line class="st2" x1="19.9" y1="30.1" x2="19.9" y2="47.7"/>
	<path class="st0" d="M22.9,46.3v-5.8c0-0.8,0.7-1.5,1.5-1.5h22.2c1,0,1.7,0.9,1.4,1.8l-1.4,5.8c-0.2,0.7-0.8,1.1-1.4,1.1H24.4
		C23.6,47.7,22.9,47.1,22.9,46.3z"/>
	<rect x="22.9" y="36.3" class="st0" width="24.7" height="1.7"/>
</g>
</svg>
