<?xml version="1.0" encoding="utf-8"?>
<!-- Generator: Adobe Illustrator 23.0.0, SVG Export Plug-In . SVG Version: 6.00 Build 0)  -->
<svg version="1.1" id="Layer_1" xmlns="http://www.w3.org/2000/svg" xmlns:xlink="http://www.w3.org/1999/xlink" x="0px" y="0px"
	 viewBox="0 0 30 80" style="enable-background:new 0 0 30 80;" xml:space="preserve">
<style type="text/css">
	.st0{fill:none;stroke:#FFFFFF;stroke-width:1.651;stroke-miterlimit:10;}
	.st1{fill:none;stroke:#FFFFFF;stroke-width:5.6454;stroke-miterlimit:10;}
	.st2{fill:none;stroke:#FFFFFF;stroke-width:1.1291;stroke-miterlimit:10;}
	.st3{fill:none;stroke:#FFFFFF;stroke-width:4.5163;stroke-miterlimit:10;}
	.st4{fill:none;stroke:#FFFFFF;stroke-width:2.2581;stroke-miterlimit:10;}
</style>
<path class="st0" d="M19.9,0.4v1.1c0,0.9-0.8,1.7-1.7,1.7H9.6c-0.9,0-1.7,0.8-1.7,1.7v0.5c0,0.9,0.8,1.7,1.7,1.7h8.6
	c0.9,0,1.7,0.8,1.7,1.7v0.3c0,0.9-0.8,1.7-1.7,1.7h-8.1c-0.9,0-1.7,0.8-1.7,1.7V13c0,0.9,0.8,1.7,1.7,1.7h8.1c0.9,0,1.7,0.8,1.7,1.7
	v0.6c0,0.9-0.8,1.7-1.7,1.7h-8.1c-0.9,0-1.7,0.8-1.7,1.7v0.3c0,0.9,0.8,1.7,1.7,1.7h8.1c0.9,0,1.7,0.8,1.7,1.7v0.4
	c0,0.9-0.8,1.7-1.7,1.7H8.4"/>
<line class="st1" x1="9.6" y1="32.7" x2="9.6" y2="58.6"/>
<line class="st2" x1="14.1" y1="32.7" x2="14.1" y2="58.6"/>
<line class="st3" x1="18.6" y1="32.7" x2="18.6" y2="58.6"/>
<line class="st4" x1="23.1" y1="32.7" x2="23.1" y2="58.6"/>
</svg>
