<?xml version="1.0" encoding="utf-8"?>
<!-- Generator: Adobe Illustrator 23.0.0, SVG Export Plug-In . SVG Version: 6.00 Build 0)  -->
<svg version="1.1" id="Layer_1" xmlns="http://www.w3.org/2000/svg" xmlns:xlink="http://www.w3.org/1999/xlink" x="0px" y="0px"
	 viewBox="0 0 128 128" style="enable-background:new 0 0 128 128;" xml:space="preserve">
<style type="text/css">
	.st0{fill:#FFFFFF;}
	.st1{fill:none;stroke:#FFFFFF;stroke-width:3.1671;stroke-miterlimit:10;}
	.st2{fill:#FFFFFF;stroke:#FFFFFF;stroke-width:3.1671;stroke-miterlimit:10;}
</style>
<g>
	<path class="st0" d="M8.8,18.8V9h52.7v23.5h-39C15,32.5,8.8,26.4,8.8,18.8z"/>
	<path class="st0" d="M73.6,8.1h11.8v111.2h0c-6.5,0-11.8-5.3-11.8-11.8V8.1z"/>
	<path class="st0" d="M96.3,45.1h23.7V8.3H96.3V45.1z M114.1,26.7c0,3.3-2.7,5.9-5.9,5.9c-3.3,0-5.9-2.7-5.9-5.9s2.7-5.9,5.9-5.9
		C111.4,20.7,114.1,23.4,114.1,26.7z"/>
	<path class="st0" d="M43.3,90L31,102.3c-1.2,1.2-3.1,1.2-4.3,0l-0.3-0.3c-1.2-1.2-1.2-3.1,0-4.3l12.3-12.3c1.2-1.2,3.1-1.2,4.3,0
		l0.3,0.3C44.5,86.9,44.5,88.8,43.3,90z"/>
	<g>
		<path class="st0" d="M37.5,119.7c-16.9,1.7-31-12.5-29.4-29.4c1.2-12.5,11.4-22.6,23.9-23.9C49,64.8,63.1,79,61.4,95.9
			C60.2,108.4,50.1,118.5,37.5,119.7z M37.6,72.1C23.7,70.3,12,82,13.7,95.9c1.2,9.5,8.8,17.1,18.3,18.3c13.9,1.8,25.6-10,23.8-23.8
			C54.7,80.9,47,73.3,37.6,72.1z"/>
	</g>
	<g>
		<path class="st0" d="M34.6,76.6L34.6,76.6c-1.5,0-2.8-1.2-2.8-2.8v-9.5c0-1.5,1.2-2.8,2.8-2.8h0c1.5,0,2.8,1.2,2.8,2.8v9.5
			C37.4,75.3,36.1,76.6,34.6,76.6z"/>
	</g>
	<path class="st0" d="M31,85.4l12.3,12.3c1.2,1.2,1.2,3.1,0,4.3l-0.3,0.3c-1.2,1.2-3.1,1.2-4.3,0L26.4,90c-1.2-1.2-1.2-3.1,0-4.3
		l0.3-0.3C27.9,84.2,29.8,84.2,31,85.4z"/>
	<path class="st1" d="M98.1,48.1V58c0,1.2,0.5,2.4,1.3,3.3l14.3,14.3c0.9,0.9,1.3,2,1.3,3.3v21c0,1.2-0.5,2.4-1.3,3.3l-13.5,13.5"/>
	<path class="st1" d="M115.1,48.1v9.7c0,1.2-0.5,2.4-1.3,3.3l-4.9,4.9"/>
	<path class="st1" d="M103.3,69L99.4,73c-0.9,0.9-1.3,2-1.3,3.3v25.2c0,1.2,0.5,2.4,1.3,3.3l3.7,3.7"/>
	<line class="st2" x1="108.8" y1="114.3" x2="111.5" y2="117"/>
</g>
</svg>
