<?xml version="1.0" encoding="utf-8"?>
<!-- Generator: Adobe Illustrator 24.0.1, SVG Export Plug-In . SVG Version: 6.00 Build 0)  -->
<svg version="1.1" id="Layer_1" xmlns="http://www.w3.org/2000/svg" xmlns:xlink="http://www.w3.org/1999/xlink" x="0px" y="0px"
	 viewBox="0 0 1920 1080" style="enable-background:new 0 0 1920 1080;" xml:space="preserve">
<style type="text/css">
	.st0{fill:#FFFFFF;}
</style>
<path class="st0" d="M41,121.9c2.1,2.4,2.5,5.1,2.5,15c0,9.2-0.5,12-2.5,14.4c-2.4,2.7-4.8,3.2-17.8,3.2c-12.9,0-15.4-0.5-17.8-3.2
	c-2.1-2.4-2.5-5.1-2.5-14.7c0-9.6,0.5-12.3,2.5-14.7c2.4-2.7,4.9-3.2,17.8-3.2C36.2,118.7,38.7,119.2,41,121.9z M8.7,124.5
	c-1.3,1.6-1.7,4.1-1.7,12.1c0,8.1,0.4,10.5,1.7,12.2c1.5,1.8,4.1,2.2,13.3,2.2c12.4,0,14.1-0.3,15.7-2.2c1.4-1.6,1.7-3.9,1.7-12
	c0-8.4-0.3-10.6-1.7-12.3c-1.6-1.9-3.4-2.2-15.7-2.2C12.8,122.3,10.2,122.7,8.7,124.5z"/>
<path class="st0" d="M50.5,132.1c0-3.7,0.1-5.1,0.4-6.4c0.7-3.3,2.5-5.2,5.7-6.1c2.4-0.6,6.5-0.9,13-0.9c10.3,0,13.9,0.5,16.3,2.3
	c2.2,1.7,3.2,4.2,3.2,8.6c0,4.8-1.1,7.5-3.5,9c-1.7,1.1-3.6,1.5-8.8,1.8l-12.9,0.9c-8.3,0.5-9.4,1.6-9.5,9.1H89v3.6H50V152
	c-0.3-11,2.1-13.8,12.2-14.2l13-1c8.2-0.6,9.6-1.6,9.6-6.8c0-3.4-0.4-4.9-1.7-5.8c-1.8-1.5-4.6-1.8-13.4-1.8c-13.5,0-15,0.9-15,8.6
	v1.2H50.5z"/>
<path class="st0" d="M364.1,130.5l14.5-11.4h5.6v35.1h-4.1v-32.1l-13.6,11.2L364.1,130.5z"/>
<path class="st0" d="M425.2,134.5c4.8,0,6.3-1.4,6.3-6.2c0-3.2-0.6-4.6-2.4-5.3c-1.5-0.6-3.4-0.7-10.3-0.7
	c-11.6,0-13.9,0.2-15.8,1.5c-1.3,0.8-1.8,2.4-1.8,6.1h-4.1c0-3.4,0.1-4.6,0.6-5.9c0.9-2.5,2.7-3.8,6.1-4.5c2.5-0.5,6.1-0.7,13.9-0.7
	c10.2,0,12.9,0.4,15.4,2.1c1.9,1.3,2.6,3.4,2.6,7.8c0,4.9-1.2,6.8-4.8,7.4c4,0.6,5.3,2.5,5.3,7.9c0,5.5-0.9,7.7-3.9,9.3
	c-2.1,1.1-4.4,1.3-13.6,1.3c-14.6,0-17.2-0.3-19.5-2.5c-1.7-1.6-2.3-3.6-2.3-8.5h4.2c0,4.1,0.3,5.2,1.8,6.2c1.3,0.9,5,1.3,13.1,1.3
	c9.4,0,12.3-0.2,13.7-0.9c1.7-0.8,2.3-2.2,2.3-5.6c0-3.6-0.4-4.8-1.9-5.7c-0.9-0.5-1.8-0.6-4.6-0.6h-13.8v-3.6H425.2z"/>
<path class="st0" d="M31.5,579.3c4.8,0,6.3-1.4,6.3-6.2c0-3.2-0.6-4.6-2.4-5.3c-1.5-0.6-3.4-0.7-10.3-0.7c-11.6,0-13.9,0.2-15.8,1.5
	c-1.3,0.8-1.8,2.4-1.8,6.1H3.5c0-3.4,0.1-4.6,0.6-5.9c0.9-2.5,2.7-3.8,6.1-4.5c2.5-0.5,6.1-0.7,13.9-0.7c10.2,0,12.9,0.4,15.4,2.1
	c1.9,1.3,2.6,3.4,2.6,7.8c0,4.9-1.2,6.8-4.8,7.4c4,0.6,5.3,2.5,5.3,7.9c0,5.5-0.9,7.7-3.9,9.3c-2.1,1.1-4.4,1.3-13.6,1.3
	c-14.6,0-17.2-0.3-19.5-2.5c-1.7-1.6-2.3-3.6-2.3-8.5h4.2c0,4.1,0.3,5.2,1.8,6.2c1.3,0.9,5,1.3,13.1,1.3c9.4,0,12.3-0.2,13.7-0.9
	c1.7-0.8,2.3-2.2,2.3-5.6c0-3.6-0.4-4.8-1.9-5.7c-0.9-0.5-1.8-0.6-4.6-0.6H18v-3.6H31.5z"/>
<path class="st0" d="M87.2,566.8c2.1,2.4,2.5,5.1,2.5,15c0,9.2-0.5,12-2.5,14.4c-2.4,2.7-4.8,3.2-17.8,3.2
	c-12.9,0-15.4-0.5-17.8-3.2c-2.1-2.4-2.5-5.1-2.5-14.7c0-9.6,0.5-12.3,2.5-14.7c2.4-2.7,4.9-3.2,17.8-3.2
	C82.4,563.5,84.9,564,87.2,566.8z M54.9,569.3c-1.3,1.6-1.7,4.1-1.7,12.1c0,8,0.4,10.5,1.7,12.2c1.5,1.8,4.1,2.2,13.3,2.2
	c12.4,0,14.1-0.3,15.7-2.2c1.4-1.6,1.7-3.9,1.7-12c0-8.4-0.3-10.6-1.7-12.3c-1.6-1.9-3.4-2.2-15.7-2.2
	C59,567.1,56.4,567.5,54.9,569.3z"/>
<path class="st0" d="M402.6,563.9h34.9v3.5h-30.7v11.7h29.6v3.3h-29.6v13h31v3.5h-35.2V563.9z"/>
<path class="st0" d="M4.5,176.5c0-3.7,0.1-5.1,0.4-6.4c0.7-3.3,2.5-5.2,5.7-6.1c2.4-0.6,6.5-0.9,13-0.9c10.3,0,13.9,0.5,16.3,2.3
	c2.2,1.7,3.2,4.2,3.2,8.6c0,4.8-1.1,7.5-3.5,9c-1.7,1.1-3.6,1.5-8.8,1.8L17.7,186c-8.3,0.5-9.4,1.6-9.5,9.1H43v3.6H4v-2.2
	c-0.3-11,2.1-13.8,12.2-14.2l13-1c8.2-0.6,9.6-1.6,9.6-6.8c0-3.4-0.4-4.9-1.7-5.8c-1.8-1.5-4.6-1.8-13.4-1.8c-13.5,0-15,0.9-15,8.6
	v1.2H4.5z"/>
<path class="st0" d="M172.4,166.4c2.1,2.4,2.5,5.1,2.5,15c0,9.2-0.5,12-2.5,14.4c-2.4,2.7-4.8,3.2-17.8,3.2
	c-12.9,0-15.4-0.5-17.8-3.2c-2.1-2.4-2.5-5.1-2.5-14.7c0-9.6,0.5-12.3,2.5-14.7c2.4-2.7,4.9-3.2,17.8-3.2
	C167.6,163.2,170,163.7,172.4,166.4z M140.1,169c-1.3,1.6-1.7,4.1-1.7,12.1c0,8.1,0.4,10.5,1.7,12.2c1.5,1.8,4.1,2.2,13.3,2.2
	c12.4,0,14.1-0.3,15.7-2.2c1.4-1.6,1.7-3.9,1.7-12c0-8.4-0.3-10.6-1.7-12.3c-1.6-1.9-3.4-2.2-15.7-2.2
	C144.2,166.8,141.6,167.2,140.1,169z"/>
<path class="st0" d="M267.2,176.5c0-3.7,0.1-5.1,0.4-6.4c0.7-3.3,2.5-5.2,5.7-6.1c2.4-0.6,6.5-0.9,13-0.9c10.3,0,13.9,0.5,16.3,2.3
	c2.2,1.7,3.2,4.2,3.2,8.6c0,4.8-1.1,7.5-3.5,9c-1.7,1.1-3.6,1.5-8.8,1.8l-12.9,0.9c-8.3,0.5-9.4,1.6-9.5,9.1h34.8v3.6h-39v-2.2
	c-0.3-11,2.1-13.8,12.2-14.2l13-1c8.2-0.6,9.6-1.6,9.6-6.8c0-3.4-0.4-4.9-1.7-5.8c-1.8-1.5-4.6-1.8-13.4-1.8c-13.5,0-15,0.9-15,8.6
	v1.2H267.2z"/>
<path class="st0" d="M435.2,166.4c2.1,2.4,2.5,5.1,2.5,15c0,9.2-0.5,12-2.5,14.4c-2.4,2.7-4.8,3.2-17.8,3.2
	c-12.9,0-15.4-0.5-17.8-3.2c-2.1-2.4-2.5-5.1-2.5-14.7c0-9.6,0.5-12.3,2.5-14.7c2.4-2.7,4.9-3.2,17.8-3.2
	C430.3,163.2,432.8,163.7,435.2,166.4z M402.9,169c-1.3,1.6-1.7,4.1-1.7,12.1c0,8.1,0.4,10.5,1.7,12.2c1.5,1.8,4.1,2.2,13.3,2.2
	c12.4,0,14.1-0.3,15.7-2.2c1.4-1.6,1.7-3.9,1.7-12c0-8.4-0.3-10.6-1.7-12.3c-1.6-1.9-3.4-2.2-15.7-2.2
	C407,166.8,404.3,167.2,402.9,169z"/>
<path class="st0" d="M4.3,608.4h27.3c7.7,0,11.6,1.4,13.7,5.1c1.6,2.6,2.3,6.7,2.3,12.4c0,5.7-0.7,9.9-2.3,12.5
	c-2.1,3.7-6,5.1-13.7,5.1H4.3V608.4z M31.9,640c4.9,0,8.2-1.2,9.6-3.4c1.2-2,1.8-5.3,1.8-10.4c0-5.4-0.6-9.1-1.9-11
	c-1.4-2.2-4.4-3.2-9.8-3.2H8.5v28H31.9z"/>
<path class="st0" d="M54.7,608.4h34.9v3.5H58.9v11.7h29.6v3.3H58.9v13h31v3.5H54.7V608.4z"/>
<path class="st0" d="M96.4,608.4h4.2V640h27.8v3.5h-32V608.4z"/>
<path class="st0" d="M283.3,608.4h6.8l21.2,30.2l21.2-30.2h6.6v35.1h-4.2v-31.6l-22.1,31.6h-3.1l-22.1-31.6v31.6h-4.2V608.4z"/>
<path class="st0" d="M353.2,635.6l-4.6,7.9h-4.7l20.7-35.1h5.9l20.7,35.1h-4.6l-4.6-7.9H353.2z M367.5,611.3l-12.4,20.9h24.7
	L367.5,611.3z"/>
<path class="st0" d="M395.9,608.4h28.9c5.3,0,7.8,0.7,9.6,2.7c1.4,1.6,2.2,4.3,2.2,8.1c0,5.7-1.3,7.7-5.6,8.7
	c3.6,0.7,4.9,2.5,4.9,6.6v9.1h-4.2v-6.7c0.1-6.1-1.4-7.5-7.5-7.5h-24.1v14.2h-4.2V608.4z M423.2,626c7.2,0,9-1.4,9-7.1
	c0-5.6-1.9-7-9.3-7h-22.8V626H423.2z"/>
<path class="st0" d="M37.8,218c0-3.2-0.3-4.3-1.3-5.2c-1.5-1.3-3.6-1.6-11.5-1.6c-9.9,0-12.3,0.3-14.4,1.5c-1.8,1.1-2.4,2.8-2.4,7
	v7.7c0.8-2.2,1.5-3.3,3-4c1.7-0.9,4.4-1.1,13.4-1.1c7.5,0,10.8,0.2,12.9,0.9c1.5,0.4,2.9,1.5,3.7,2.7c0.8,1.1,1.2,3.2,1.2,6.1
	c0,4.7-0.7,7.2-2.6,8.8c-2.5,2.2-5.2,2.6-15.6,2.6c-9.3,0-11.7-0.2-13.9-0.8c-3.2-0.9-4.9-2.8-5.7-6c-0.5-2-0.7-5-0.7-11.3
	c0-10.7,0.6-13.4,3.7-15.6c2.6-1.8,5.6-2.2,17.3-2.2c9.8,0,12.9,0.6,15.3,3.2c1.5,1.6,1.9,3.2,2.1,7.2H37.8z M10.9,227.1
	C9,228,8.3,229.7,8.3,233c0,3.8,1.1,5.5,3.8,6.3c1.6,0.4,5.7,0.7,11.8,0.7c12.7,0,14.2-0.8,14.2-7.7c0-2.9-0.4-4.3-1.6-5.1
	c-1.6-1-3.8-1.2-13.6-1.2C15.2,225.9,12.6,226.2,10.9,227.1z"/>
<path class="st0" d="M191.9,208h28.3c5.5,0,7.7,0.5,9.4,2.3c1.5,1.6,2.1,3.8,2.1,8.1c0,5.2-0.7,7.3-2.8,9c-1.7,1.4-3.9,1.9-7.7,1.9
	h-25v13.8h-4.2V208z M218.1,225.8c7.6,0,9.3-1.3,9.3-7.2c0-5.7-1.7-7.1-8.4-7.1h-22.8v14.3H218.1z"/>
<path class="st0" d="M380.1,208h6.8l21.2,30.2l21.2-30.2h6.6v35.1h-4.2v-31.6l-22.1,31.6h-3.1l-22.1-31.6v31.6h-4.2V208z"/>
<path class="st0" d="M4.3,652.9h28.3c5.5,0,7.7,0.5,9.4,2.3c1.5,1.6,2.1,3.8,2.1,8.1c0,5.2-0.7,7.3-2.8,9c-1.7,1.4-3.9,1.9-7.7,1.9
	h-25V688H4.3V652.9z M30.4,670.7c7.6,0,9.3-1.3,9.3-7.2c0-5.7-1.7-7.1-8.4-7.1H8.5v14.3H30.4z"/>
<path class="st0" d="M60.6,680.1L56,688h-4.7L72,652.9h5.9L98.6,688H94l-4.6-7.9H60.6z M75,655.8l-12.4,20.9h24.7L75,655.8z"/>
<path class="st0" d="M115,677v0.9c0,3.5,0.7,4.9,3,5.7c2.1,0.7,5.9,1,12.3,1c13.7,0,16.2-1.1,16.2-6.9c0-2.9-0.9-4.3-3.3-4.9
	c-2.3-0.6-2.5-0.6-18.2-0.7c-6.4-0.1-9.1-0.5-11.3-1.9c-2.1-1.4-2.9-3.4-2.9-6.8c0-5.3,1.9-8.3,6.1-9.5c3-0.9,7.6-1.3,14.8-1.3
	c8.1,0,12.3,0.6,14.7,2.1c2.6,1.6,3.4,3.4,3.5,8.3h-4.1c-0.1-2.8-0.5-4.1-1.7-4.9c-1.6-1.3-5.3-1.8-12.4-1.8
	c-13.8,0-16.5,1.1-16.5,6.7c0,2.4,0.7,3.8,2.2,4.5c1.8,0.8,3.4,0.9,13.4,1c11.2,0.1,13.6,0.3,16.1,1.5c2.8,1.4,4,3.7,4,8.1
	c0,4.8-1.6,7.7-5.1,9c-2.6,0.9-6.6,1.3-14.7,1.3c-8.5,0-12.5-0.4-15.4-1.3c-3.2-1.1-4.9-3.8-4.9-7.6V677H115z"/>
<path class="st0" d="M172.2,680.1l-4.6,7.9h-4.7l20.7-35.1h5.9l20.7,35.1h-4.6l-4.6-7.9H172.2z M186.5,655.8l-12.4,20.9h24.7
	L186.5,655.8z"/>
<path class="st0" d="M224.5,652.9h27.3c7.7,0,11.6,1.4,13.7,5.1c1.6,2.6,2.3,6.7,2.3,12.4c0,5.7-0.7,9.9-2.3,12.5
	c-2.1,3.7-6,5.1-13.7,5.1h-27.3V652.9z M252.2,684.5c4.9,0,8.2-1.2,9.6-3.4c1.2-2,1.8-5.3,1.8-10.4c0-5.4-0.6-9.1-1.9-11
	c-1.4-2.2-4.4-3.2-9.8-3.2h-23.1v28H252.2z"/>
<path class="st0" d="M284.6,652.9h34.9v3.5h-30.7v11.7h29.6v3.3h-29.6v13h31v3.5h-35.2V652.9z"/>
<path class="st0" d="M335.9,652.9h6.8l33.1,32.1v-32.1h4.2V688h-6.8l-33.1-32.1V688h-4.2V652.9z"/>
<path class="st0" d="M403.8,680.1l-4.6,7.9h-4.7l20.7-35.1h5.9l20.7,35.1h-4.6l-4.6-7.9H403.8z M418.2,655.8l-12.4,20.9h24.7
	L418.2,655.8z"/>
<path class="st0" d="M8.6,277.6c0,3.2,0.3,4.3,1.3,5.2c1.5,1.3,3.6,1.6,11.5,1.6c9.9,0,12.3-0.3,14.4-1.5c1.8-1.1,2.4-2.8,2.4-7
	v-7.7c-0.8,2.2-1.5,3.3-3,4c-1.7,0.9-4.4,1.1-13.4,1.1c-7.5,0-10.8-0.2-12.9-0.9c-1.5-0.4-2.9-1.5-3.7-2.7c-0.8-1.1-1.2-3.2-1.2-6.1
	c0-4.7,0.7-7.2,2.6-8.8c2.5-2.2,5.2-2.6,15.6-2.6c9.3,0,11.7,0.2,13.9,0.8c3.2,0.9,4.9,2.8,5.7,6c0.5,2,0.7,5,0.7,11.3
	c0,10.7-0.6,13.4-3.7,15.6c-2.6,1.8-5.6,2.2-17.3,2.2c-9.8,0-12.9-0.6-15.3-3.2c-1.5-1.6-1.9-3.2-2.1-7.2H8.6z M8.2,263.5
	c0,2.9,0.4,4.3,1.6,5.1c1.6,1,3.8,1.2,13.6,1.2c7.8,0,10.5-0.3,12.2-1.2c1.8-0.9,2.6-2.6,2.6-5.9c0-3.8-1.1-5.5-3.8-6.3
	c-1.6-0.4-5.8-0.7-11.8-0.7C9.7,255.7,8.2,256.6,8.2,263.5z"/>
<path class="st0" d="M192.1,252.5h28.3c5.5,0,7.7,0.5,9.4,2.3c1.5,1.6,2.1,3.8,2.1,8.1c0,5.2-0.7,7.3-2.8,9
	c-1.7,1.4-3.9,1.9-7.7,1.9h-25v13.8h-4.2V252.5z M218.2,270.3c7.6,0,9.3-1.3,9.3-7.2c0-5.7-1.7-7.1-8.4-7.1h-22.8v14.3H218.2z"/>
<path class="st0" d="M380.1,252.5h6.8l21.2,30.2l21.2-30.2h6.6v35.1h-4.2V256l-22.1,31.6h-3.1L384.3,256v31.6h-4.2V252.5z"/>
<path class="st0" d="M45.1,720.7v1.5c0,4.2-0.4,6.1-1.8,7.6c-1.3,1.6-3.1,2.3-6.3,2.7c-2,0.2-8,0.4-12.7,0.4
	c-12.7,0-15.8-0.5-18.4-3.2c-2.3-2.3-2.8-5.1-2.8-14.7c0-10.9,0.7-13.7,4.3-16c2.7-1.7,5.6-1.9,20-1.9c8.8,0,11.8,0.4,14,2
	c2.4,1.6,3.1,3.8,3.3,9.4h-4.1v-0.9c0-6.2-1.5-6.8-16.2-6.8c-16.8,0-16.9,0.1-16.9,14.3c0,8,0.4,10.5,1.8,12
	c1.7,1.7,4.4,2.2,14.2,2.2c15.8,0,17.4-0.6,17.4-6.5v-2H45.1z"/>
<path class="st0" d="M57.1,724.6l-4.6,7.9h-4.7l20.7-35.1h5.9l20.7,35.1h-4.6l-4.6-7.9H57.1z M71.5,700.3l-12.4,20.9h24.7
	L71.5,700.3z"/>
<path class="st0" d="M238.5,722.5c0,3.2,0.3,4.3,1.3,5.2c1.5,1.3,3.6,1.6,11.5,1.6c9.9,0,12.3-0.3,14.4-1.5c1.8-1.1,2.4-2.8,2.4-7
	v-7.7c-0.8,2.2-1.5,3.3-3,4c-1.7,0.9-4.4,1.1-13.4,1.1c-7.5,0-10.8-0.2-12.9-0.9c-1.5-0.4-2.9-1.5-3.7-2.7c-0.8-1.1-1.2-3.2-1.2-6.1
	c0-4.7,0.7-7.2,2.6-8.8c2.5-2.2,5.2-2.6,15.6-2.6c9.3,0,11.7,0.2,13.9,0.8c3.2,0.9,4.9,2.8,5.7,6c0.5,2,0.7,5,0.7,11.3
	c0,10.7-0.6,13.4-3.7,15.6c-2.6,1.8-5.6,2.2-17.3,2.2c-9.8,0-12.9-0.6-15.3-3.2c-1.5-1.6-1.9-3.2-2.1-7.2H238.5z M238.1,708.3
	c0,2.9,0.4,4.3,1.6,5.1c1.6,1,3.8,1.2,13.6,1.2c7.8,0,10.5-0.3,12.2-1.2c1.8-0.9,2.6-2.6,2.6-5.9c0-3.8-1.1-5.5-3.8-6.3
	c-1.6-0.4-5.8-0.7-11.8-0.7C239.7,700.6,238.1,701.4,238.1,708.3z"/>
<path class="st0" d="M281.9,708.8l14.5-11.4h5.6v35.1H298v-32.1l-13.6,11.2L281.9,708.8z"/>
<path class="st0" d="M317.3,708.8l14.5-11.4h5.6v35.1h-4.1v-32.1l-13.6,11.2L317.3,708.8z"/>
<path class="st0" d="M388.5,700.2c2.1,2.4,2.5,5.1,2.5,15c0,9.2-0.5,12-2.5,14.4c-2.4,2.7-4.8,3.2-17.8,3.2
	c-12.9,0-15.4-0.5-17.8-3.2c-2.1-2.4-2.5-5.1-2.5-14.7c0-9.6,0.5-12.3,2.5-14.7c2.4-2.7,4.9-3.2,17.8-3.2
	C383.7,697,386.1,697.5,388.5,700.2z M356.2,702.8c-1.3,1.6-1.7,4.1-1.7,12.1c0,8.1,0.4,10.5,1.7,12.2c1.5,1.8,4.1,2.2,13.3,2.2
	c12.4,0,14.1-0.3,15.7-2.2c1.4-1.6,1.7-3.9,1.7-12c0-8.4-0.3-10.6-1.7-12.3c-1.6-1.9-3.4-2.2-15.7-2.2
	C360.3,700.6,357.7,701,356.2,702.8z"/>
<path class="st0" d="M401.6,721.8c0,4,0.4,5.2,2.1,6.1c1.6,1,5.2,1.4,12.5,1.4c9,0,11.6-0.2,13.7-1.2c2.2-0.9,2.7-2.6,2.7-7.8
	c0-4.5-0.8-6.3-3.3-7.2c-1.8-0.7-5.3-0.9-13.5-0.9c-10.5,0-12.9,0.6-13.5,3.4h-4.2l0.4-18.2h37.3v3.6h-33.4l-0.2,12
	c0.8-1.9,1.6-2.8,3.3-3.5c1.7-0.7,4-0.9,10.7-0.9c11.2,0,14.2,0.3,17,1.9c1.4,0.8,2.5,2.2,3.1,3.7c0.4,1.2,0.6,2.8,0.6,5.7
	c0,6.6-0.8,9.3-3.2,10.8c-2.5,1.7-5.6,2.1-15.2,2.1c-9.4,0-14.2-0.3-15.9-0.9c-2.5-0.8-4.1-2.6-4.7-5.1c-0.3-1.1-0.3-2.3-0.3-5.1
	H401.6z"/>
<path class="st0" d="M894.9,729.6c-2.1-2.4-2.5-5.1-2.5-15c0-9.2,0.5-12,2.5-14.4c2.4-2.7,4.8-3.2,17.8-3.2
	c12.9,0,15.4,0.5,17.8,3.2c2.1,2.4,2.5,5.1,2.5,14.7c0,9.6-0.5,12.3-2.5,14.7c-2.4,2.7-4.9,3.2-17.8,3.2
	C899.7,732.8,897.2,732.4,894.9,729.6z M927.2,727c1.3-1.6,1.7-4.1,1.7-12.1c0-8.1-0.4-10.5-1.7-12.2c-1.5-1.8-4.1-2.2-13.3-2.2
	c-12.4,0-14.1,0.3-15.7,2.2c-1.4,1.6-1.7,3.9-1.7,12c0,8.4,0.3,10.6,1.7,12.3c1.6,1.9,3.4,2.2,15.7,2.2
	C923.1,729.3,925.7,728.8,927.2,727z"/>
<path class="st0" d="M885.4,719.5c0,3.7-0.1,5.1-0.4,6.4c-0.7,3.3-2.5,5.2-5.7,6.1c-2.4,0.6-6.5,0.9-13,0.9
	c-10.3,0-13.9-0.5-16.3-2.3c-2.2-1.7-3.2-4.2-3.2-8.6c0-4.8,1.1-7.5,3.5-9c1.7-1.1,3.6-1.5,8.8-1.8l12.9-0.9
	c8.3-0.5,9.4-1.6,9.5-9.1h-34.8v-3.6h39v2.2c0.3,11-2.1,13.8-12.2,14.2l-13,1c-8.2,0.6-9.6,1.6-9.6,6.8c0,3.4,0.4,4.9,1.7,5.8
	c1.8,1.5,4.6,1.8,13.4,1.8c13.5,0,15-0.9,15-8.6v-1.2H885.4z"/>
<path class="st0" d="M571.8,721l-14.5,11.4h-5.6v-35.1h4.1v32.1l13.6-11.2L571.8,721z"/>
<path class="st0" d="M510.7,717c-4.8,0-6.3,1.4-6.3,6.2c0,3.2,0.6,4.6,2.4,5.3c1.5,0.6,3.4,0.7,10.3,0.7c11.6,0,13.9-0.2,15.8-1.5
	c1.3-0.8,1.8-2.4,1.8-6.1h4.1c0,3.4-0.1,4.6-0.6,5.9c-0.9,2.5-2.7,3.8-6.1,4.5c-2.5,0.5-6.1,0.7-13.9,0.7c-10.2,0-12.9-0.4-15.4-2.1
	c-1.9-1.3-2.6-3.4-2.6-7.8c0-4.9,1.2-6.8,4.8-7.4c-4-0.6-5.3-2.5-5.3-7.9c0-5.5,0.9-7.7,3.9-9.3c2.1-1.1,4.4-1.3,13.6-1.3
	c14.6,0,17.2,0.3,19.5,2.5c1.7,1.6,2.3,3.6,2.3,8.5h-4.2c0-4.1-0.3-5.2-1.8-6.2c-1.3-0.9-5-1.3-13.1-1.3c-9.4,0-12.3,0.2-13.7,0.9
	c-1.7,0.8-2.3,2.2-2.3,5.6c0,3.6,0.4,4.8,1.9,5.7c0.9,0.5,1.8,0.6,4.6,0.6h13.8v3.6H510.7z"/>
<path class="st0" d="M904.4,272.2c-4.8,0-6.3,1.4-6.3,6.2c0,3.2,0.6,4.6,2.4,5.3c1.5,0.6,3.4,0.7,10.3,0.7c11.6,0,13.9-0.2,15.8-1.5
	c1.3-0.8,1.8-2.4,1.8-6.1h4.1c0,3.4-0.1,4.6-0.6,5.9c-0.9,2.5-2.7,3.8-6.1,4.5c-2.5,0.5-6.1,0.7-13.9,0.7c-10.2,0-12.9-0.4-15.4-2.1
	c-1.9-1.3-2.6-3.4-2.6-7.8c0-4.9,1.2-6.8,4.8-7.4c-4-0.6-5.3-2.5-5.3-7.9c0-5.5,0.9-7.7,3.9-9.3c2.1-1.1,4.4-1.3,13.6-1.3
	c14.6,0,17.2,0.3,19.5,2.5c1.7,1.6,2.3,3.6,2.3,8.5h-4.2c0-4.1-0.3-5.2-1.8-6.2c-1.3-0.9-5-1.3-13.1-1.3c-9.4,0-12.3,0.2-13.7,0.9
	c-1.7,0.8-2.3,2.2-2.3,5.6c0,3.6,0.4,4.8,1.9,5.7c0.9,0.5,1.8,0.6,4.6,0.6h13.8v3.6H904.4z"/>
<path class="st0" d="M848.7,284.8c-2.1-2.4-2.5-5.1-2.5-15c0-9.2,0.5-12,2.5-14.4c2.4-2.7,4.8-3.2,17.8-3.2
	c12.9,0,15.4,0.5,17.8,3.2c2.1,2.4,2.5,5.1,2.5,14.7c0,9.6-0.5,12.3-2.5,14.7c-2.4,2.7-4.9,3.2-17.8,3.2
	C853.5,288,851,287.5,848.7,284.8z M881,282.2c1.3-1.6,1.7-4.1,1.7-12.1c0-8.1-0.4-10.5-1.7-12.2c-1.5-1.8-4.1-2.2-13.3-2.2
	c-12.4,0-14.1,0.3-15.7,2.2c-1.4,1.6-1.7,3.9-1.7,12c0,8.4,0.3,10.6,1.7,12.3c1.6,1.9,3.4,2.2,15.7,2.2
	C876.9,284.4,879.5,284,881,282.2z"/>
<path class="st0" d="M533.3,287.6h-34.9v-3.5h30.7v-11.7h-29.6V269h29.6v-13h-31v-3.5h35.2V287.6z"/>
<path class="st0" d="M931.4,675c0,3.7-0.1,5.1-0.4,6.4c-0.7,3.3-2.5,5.2-5.7,6.1c-2.4,0.6-6.5,0.9-13,0.9c-10.3,0-13.9-0.5-16.3-2.3
	c-2.2-1.7-3.2-4.2-3.2-8.6c0-4.8,1.1-7.5,3.5-9c1.7-1.1,3.6-1.5,8.8-1.8l12.9-0.9c8.3-0.5,9.4-1.6,9.5-9.1h-34.8v-3.6h39v2.2
	c0.3,11-2.1,13.8-12.2,14.2l-13,1c-8.2,0.6-9.6,1.6-9.6,6.8c0,3.4,0.4,4.9,1.7,5.8c1.8,1.5,4.6,1.8,13.4,1.8c13.5,0,15-0.9,15-8.6
	V675H931.4z"/>
<path class="st0" d="M763.5,685.1c-2.1-2.4-2.5-5.1-2.5-15c0-9.2,0.5-12,2.5-14.4c2.4-2.7,4.8-3.2,17.8-3.2
	c12.9,0,15.4,0.5,17.8,3.2c2.1,2.4,2.5,5.1,2.5,14.7c0,9.6-0.5,12.3-2.5,14.7c-2.4,2.7-4.9,3.2-17.8,3.2
	C768.3,688.3,765.9,687.9,763.5,685.1z M795.8,682.6c1.3-1.6,1.7-4.1,1.7-12.1c0-8.1-0.4-10.5-1.7-12.2c-1.5-1.8-4.1-2.2-13.3-2.2
	c-12.4,0-14.1,0.3-15.7,2.2c-1.4,1.6-1.7,3.9-1.7,12c0,8.4,0.3,10.6,1.7,12.3c1.6,1.9,3.4,2.2,15.7,2.2
	C791.7,684.8,794.3,684.3,795.8,682.6z"/>
<path class="st0" d="M668.7,675c0,3.7-0.1,5.1-0.4,6.4c-0.7,3.3-2.5,5.2-5.7,6.1c-2.4,0.6-6.5,0.9-13,0.9c-10.3,0-13.9-0.5-16.3-2.3
	c-2.2-1.7-3.2-4.2-3.2-8.6c0-4.8,1.1-7.5,3.5-9c1.7-1.1,3.6-1.5,8.8-1.8l12.9-0.9c8.3-0.5,9.4-1.6,9.5-9.1h-34.8v-3.6h39v2.2
	c0.3,11-2.1,13.8-12.2,14.2l-13,1c-8.2,0.6-9.6,1.6-9.6,6.8c0,3.4,0.4,4.9,1.7,5.8c1.8,1.5,4.6,1.8,13.4,1.8c13.5,0,15-0.9,15-8.6
	V675H668.7z"/>
<path class="st0" d="M500.7,685.1c-2.1-2.4-2.5-5.1-2.5-15c0-9.2,0.5-12,2.5-14.4c2.4-2.7,4.8-3.2,17.8-3.2
	c12.9,0,15.4,0.5,17.8,3.2c2.1,2.4,2.5,5.1,2.5,14.7c0,9.6-0.5,12.3-2.5,14.7c-2.4,2.7-4.9,3.2-17.8,3.2
	C505.6,688.3,503.1,687.9,500.7,685.1z M533,682.6c1.3-1.6,1.7-4.1,1.7-12.1c0-8.1-0.4-10.5-1.7-12.2c-1.5-1.8-4.1-2.2-13.3-2.2
	c-12.4,0-14.1,0.3-15.7,2.2c-1.4,1.6-1.7,3.9-1.7,12c0,8.4,0.3,10.6,1.7,12.3c1.6,1.9,3.4,2.2,15.7,2.2
	C528.9,684.8,531.6,684.3,533,682.6z"/>
<path class="st0" d="M931.6,243.1h-27.3c-7.7,0-11.6-1.4-13.7-5.1c-1.6-2.6-2.3-6.7-2.3-12.4c0-5.7,0.7-9.9,2.3-12.5
	c2.1-3.7,6-5.1,13.7-5.1h27.3V243.1z M904,211.6c-4.9,0-8.2,1.2-9.6,3.4c-1.2,2-1.8,5.3-1.8,10.4c0,5.4,0.6,9.1,1.9,11
	c1.4,2.2,4.4,3.2,9.8,3.2h23.1v-28H904z"/>
<path class="st0" d="M881.2,243.1h-34.9v-3.5H877v-11.7h-29.6v-3.3H877v-13h-31V208h35.2V243.1z"/>
<path class="st0" d="M839.5,243.1h-4.2v-31.6h-27.8V208h32V243.1z"/>
<path class="st0" d="M652.6,243.1h-6.8l-21.2-30.2l-21.2,30.2h-6.6V208h4.2v31.6l22.1-31.6h3.1l22.1,31.6V208h4.2V243.1z"/>
<path class="st0" d="M582.7,215.9l4.6-7.9h4.7l-20.7,35.1h-5.9L544.8,208h4.6l4.6,7.9H582.7z M568.4,240.2l12.4-20.9H556
	L568.4,240.2z"/>
<path class="st0" d="M540,243.1h-28.9c-5.3,0-7.8-0.7-9.6-2.7c-1.4-1.6-2.2-4.3-2.2-8.1c0-5.7,1.3-7.7,5.6-8.7
	c-3.6-0.7-4.9-2.5-4.9-6.6V208h4.2v6.7c-0.1,6.1,1.4,7.5,7.5,7.5h24.1V208h4.2V243.1z M512.7,225.5c-7.2,0-9,1.4-9,7.1
	c0,5.6,1.9,7,9.3,7h22.8v-14.1H512.7z"/>
<path class="st0" d="M898.1,633.5c0,3.2,0.3,4.3,1.3,5.2c1.5,1.3,3.6,1.6,11.5,1.6c9.9,0,12.3-0.3,14.4-1.5c1.8-1.1,2.4-2.8,2.4-7
	v-7.7c-0.8,2.2-1.5,3.3-3,4c-1.7,0.9-4.4,1.1-13.4,1.1c-7.5,0-10.8-0.2-12.9-0.9c-1.5-0.4-2.9-1.5-3.7-2.7c-0.8-1.1-1.2-3.2-1.2-6.1
	c0-4.7,0.7-7.2,2.6-8.8c2.5-2.2,5.2-2.6,15.6-2.6c9.3,0,11.7,0.2,13.9,0.8c3.2,0.9,4.9,2.8,5.7,6c0.5,2,0.7,5,0.7,11.3
	c0,10.7-0.6,13.4-3.7,15.6c-2.6,1.8-5.6,2.2-17.3,2.2c-9.8,0-12.9-0.6-15.3-3.2c-1.5-1.6-1.9-3.2-2.1-7.2H898.1z M925,624.4
	c1.8-0.9,2.6-2.6,2.6-5.9c0-3.8-1.1-5.5-3.8-6.3c-1.6-0.4-5.7-0.7-11.8-0.7c-12.7,0-14.2,0.8-14.2,7.7c0,2.9,0.4,4.3,1.6,5.1
	c1.6,1,3.8,1.2,13.6,1.2C920.7,625.6,923.3,625.3,925,624.4z"/>
<path class="st0" d="M744,643.5h-28.3c-5.5,0-7.7-0.5-9.4-2.3c-1.5-1.6-2.1-3.8-2.1-8.1c0-5.2,0.7-7.3,2.8-9
	c1.7-1.4,3.9-1.9,7.7-1.9h25v-13.8h4.2V643.5z M717.8,625.7c-7.6,0-9.3,1.3-9.3,7.2c0,5.7,1.7,7.1,8.4,7.1h22.8v-14.3H717.8z"/>
<path class="st0" d="M555.8,643.5H549l-21.2-30.2l-21.2,30.2h-6.6v-35.1h4.2V640l22.1-31.6h3.1l22.1,31.6v-31.6h4.2V643.5z"/>
<path class="st0" d="M931.6,198.6h-28.3c-5.5,0-7.7-0.5-9.4-2.3c-1.5-1.6-2.1-3.8-2.1-8.1c0-5.2,0.7-7.3,2.8-9
	c1.7-1.4,3.9-1.9,7.7-1.9h25v-13.8h4.2V198.6z M905.5,180.9c-7.6,0-9.3,1.3-9.3,7.2c0,5.7,1.7,7.1,8.4,7.1h22.8v-14.3H905.5z"/>
<path class="st0" d="M875.3,171.4l4.6-7.9h4.7l-20.7,35.1H858l-20.7-35.1h4.6l4.6,7.9H875.3z M860.9,195.7l12.4-20.9h-24.7
	L860.9,195.7z"/>
<path class="st0" d="M820.9,174.5v-0.9c0-3.5-0.7-4.9-3-5.7c-2.1-0.7-5.9-1-12.3-1c-13.7,0-16.2,1.1-16.2,6.9c0,2.9,0.9,4.3,3.3,4.9
	c2.3,0.6,2.5,0.6,18.2,0.7c6.4,0.1,9.1,0.5,11.3,1.9c2.1,1.4,2.9,3.4,2.9,6.8c0,5.3-1.9,8.3-6.1,9.5c-3,0.9-7.6,1.3-14.8,1.3
	c-8.1,0-12.3-0.6-14.7-2.1c-2.6-1.6-3.4-3.4-3.5-8.3h4.1c0.1,2.8,0.5,4.1,1.7,4.9c1.6,1.3,5.3,1.8,12.4,1.8
	c13.8,0,16.5-1.1,16.5-6.7c0-2.4-0.7-3.8-2.2-4.5c-1.8-0.8-3.4-0.9-13.4-1c-11.2-0.1-13.6-0.3-16.1-1.5c-2.8-1.4-4-3.7-4-8.1
	c0-4.8,1.6-7.7,5.1-9c2.6-0.9,6.6-1.3,14.7-1.3c8.5,0,12.5,0.4,15.4,1.3c3.2,1.1,4.9,3.8,4.9,7.6v2.4H820.9z"/>
<path class="st0" d="M763.7,171.4l4.6-7.9h4.7l-20.7,35.1h-5.9l-20.7-35.1h4.6l4.6,7.9H763.7z M749.4,195.7l12.4-20.9H737
	L749.4,195.7z"/>
<path class="st0" d="M711.4,198.6h-27.3c-7.7,0-11.6-1.4-13.7-5.1c-1.6-2.6-2.3-6.7-2.3-12.4c0-5.7,0.7-9.9,2.3-12.5
	c2.1-3.7,6-5.1,13.7-5.1h27.3V198.6z M683.7,167.1c-4.9,0-8.2,1.2-9.6,3.4c-1.2,2-1.8,5.3-1.8,10.4c0,5.4,0.6,9.1,1.9,11
	c1.4,2.2,4.4,3.2,9.8,3.2h23.1v-28H683.7z"/>
<path class="st0" d="M651.3,198.6h-34.9v-3.5h30.7v-11.7h-29.6v-3.3h29.6v-13h-31v-3.5h35.2V198.6z"/>
<path class="st0" d="M600,198.6h-6.8L560,166.5v32.1h-4.2v-35.1h6.8l33.1,32.1v-32.1h4.2V198.6z"/>
<path class="st0" d="M532.1,171.4l4.6-7.9h4.7l-20.7,35.1h-5.9l-20.7-35.1h4.6l4.6,7.9H532.1z M517.7,195.7l12.4-20.9h-24.7
	L517.7,195.7z"/>
<path class="st0" d="M927.3,573.9c0-3.2-0.3-4.3-1.3-5.2c-1.5-1.3-3.6-1.6-11.5-1.6c-9.9,0-12.3,0.3-14.4,1.5
	c-1.8,1.1-2.4,2.8-2.4,7v7.7c0.8-2.2,1.5-3.3,3-4c1.7-0.9,4.4-1.1,13.4-1.1c7.5,0,10.8,0.2,12.9,0.9c1.5,0.4,2.9,1.5,3.7,2.7
	c0.8,1.1,1.2,3.2,1.2,6.1c0,4.7-0.7,7.2-2.6,8.8c-2.5,2.2-5.2,2.6-15.6,2.6c-9.3,0-11.7-0.2-13.9-0.8c-3.2-0.9-4.9-2.8-5.7-6
	c-0.5-2-0.7-5-0.7-11.3c0-10.7,0.6-13.4,3.7-15.6c2.6-1.8,5.6-2.2,17.3-2.2c9.8,0,12.9,0.6,15.3,3.2c1.5,1.6,1.9,3.2,2.1,7.2H927.3z
	 M927.7,588.1c0-2.9-0.4-4.3-1.6-5.1c-1.6-1-3.8-1.2-13.6-1.2c-7.8,0-10.5,0.3-12.2,1.2c-1.8,0.9-2.6,2.6-2.6,5.9
	c0,3.8,1.1,5.5,3.8,6.3c1.6,0.4,5.8,0.7,11.8,0.7C926.2,595.8,927.7,595,927.7,588.1z"/>
<path class="st0" d="M743.8,599h-28.3c-5.5,0-7.7-0.5-9.4-2.3c-1.5-1.6-2.1-3.8-2.1-8.1c0-5.2,0.7-7.3,2.8-9
	c1.7-1.4,3.9-1.9,7.7-1.9h25v-13.8h4.2V599z M717.7,581.2c-7.6,0-9.3,1.3-9.3,7.2c0,5.7,1.7,7.1,8.4,7.1h22.8v-14.3H717.7z"/>
<path class="st0" d="M555.8,599H549l-21.2-30.2L506.7,599h-6.6v-35.1h4.2v31.6l22.1-31.6h3.1l22.1,31.6v-31.6h4.2V599z"/>
<path class="st0" d="M890.8,130.9v-1.5c0-4.2,0.4-6.1,1.8-7.6c1.3-1.6,3.1-2.3,6.3-2.7c2-0.2,8-0.4,12.7-0.4
	c12.7,0,15.8,0.5,18.4,3.2c2.3,2.3,2.8,5.1,2.8,14.7c0,10.9-0.7,13.7-4.3,16c-2.7,1.7-5.6,1.9-20,1.9c-8.8,0-11.8-0.4-14-2
	c-2.4-1.6-3.1-3.8-3.3-9.4h4.1v0.9c0,6.2,1.5,6.8,16.2,6.8c16.8,0,16.9-0.1,16.9-14.3c0-8-0.4-10.5-1.8-12
	c-1.7-1.7-4.4-2.2-14.2-2.2c-15.8,0-17.4,0.6-17.4,6.5v2H890.8z"/>
<path class="st0" d="M878.8,127l4.6-7.9h4.7l-20.7,35.1h-5.9l-20.7-35.1h4.6l4.6,7.9H878.8z M864.4,151.2l12.4-20.9H852L864.4,151.2
	z"/>
<path class="st0" d="M697.4,129.1c0-3.2-0.3-4.3-1.3-5.2c-1.5-1.3-3.6-1.6-11.5-1.6c-9.9,0-12.3,0.3-14.4,1.5
	c-1.8,1.1-2.4,2.8-2.4,7v7.7c0.8-2.2,1.5-3.3,3-4c1.7-0.9,4.4-1.1,13.4-1.1c7.5,0,10.8,0.2,12.9,0.9c1.5,0.4,2.9,1.5,3.7,2.7
	c0.8,1.1,1.2,3.2,1.2,6.1c0,4.7-0.7,7.2-2.6,8.8c-2.5,2.2-5.2,2.6-15.6,2.6c-9.3,0-11.7-0.2-13.9-0.8c-3.2-0.9-4.9-2.8-5.7-6
	c-0.5-2-0.7-5-0.7-11.3c0-10.7,0.6-13.4,3.7-15.6c2.6-1.8,5.6-2.2,17.3-2.2c9.8,0,12.9,0.6,15.3,3.2c1.5,1.6,1.9,3.2,2.1,7.2H697.4z
	 M697.8,143.2c0-2.9-0.4-4.3-1.6-5.1c-1.6-1-3.8-1.2-13.6-1.2c-7.8,0-10.5,0.3-12.2,1.2c-1.8,0.9-2.6,2.6-2.6,5.9
	c0,3.8,1.1,5.5,3.8,6.3c1.6,0.4,5.8,0.7,11.8,0.7C696.2,150.9,697.8,150.1,697.8,143.2z"/>
<path class="st0" d="M654,142.7l-14.5,11.4h-5.6v-35.1h4.1v32.1l13.6-11.2L654,142.7z"/>
<path class="st0" d="M618.6,142.7l-14.5,11.4h-5.6v-35.1h4.1v32.1l13.6-11.2L618.6,142.7z"/>
<path class="st0" d="M547.4,151.3c-2.1-2.4-2.5-5.1-2.5-15c0-9.2,0.5-12,2.5-14.4c2.4-2.7,4.8-3.2,17.8-3.2
	c12.9,0,15.4,0.5,17.8,3.2c2.1,2.4,2.5,5.1,2.5,14.7c0,9.6-0.5,12.3-2.5,14.7c-2.4,2.7-4.9,3.2-17.8,3.2
	C552.2,154.5,549.8,154.1,547.4,151.3z M579.7,148.7c1.3-1.6,1.7-4.1,1.7-12.1c0-8.1-0.4-10.5-1.7-12.2c-1.5-1.8-4.1-2.2-13.3-2.2
	c-12.4,0-14.1,0.3-15.7,2.2c-1.4,1.6-1.7,3.9-1.7,12c0,8.4,0.3,10.6,1.7,12.3c1.6,1.9,3.4,2.2,15.7,2.2
	C575.6,150.9,578.2,150.5,579.7,148.7z"/>
<path class="st0" d="M534.3,129.7c0-4-0.4-5.2-2.1-6.1c-1.6-1-5.2-1.4-12.5-1.4c-9,0-11.6,0.2-13.7,1.2c-2.2,0.9-2.7,2.6-2.7,7.8
	c0,4.5,0.8,6.3,3.3,7.2c1.8,0.7,5.3,0.9,13.5,0.9c10.5,0,12.9-0.6,13.5-3.4h4.2l-0.4,18.2h-37.3v-3.6h33.4l0.2-12
	c-0.8,1.9-1.6,2.8-3.3,3.5c-1.7,0.7-4,0.9-10.7,0.9c-11.2,0-14.2-0.3-17-1.9c-1.4-0.8-2.5-2.2-3.1-3.7c-0.4-1.2-0.6-2.8-0.6-5.7
	c0-6.6,0.8-9.3,3.2-10.8c2.5-1.7,5.6-2.1,15.2-2.1c9.4,0,14.2,0.3,15.9,0.9c2.5,0.8,4.1,2.6,4.7,5.1c0.3,1.1,0.3,2.3,0.3,5.1H534.3z
	"/>
<path class="st0" d="M1028,121.9c2.1,2.4,2.5,5.1,2.5,15c0,9.2-0.5,12-2.5,14.4c-2.4,2.7-4.8,3.2-17.8,3.2
	c-12.9,0-15.4-0.5-17.8-3.2c-2.1-2.4-2.5-5.1-2.5-14.7c0-9.6,0.5-12.3,2.5-14.7c2.4-2.7,4.9-3.2,17.8-3.2
	C1023.2,118.7,1025.7,119.2,1028,121.9z M995.7,124.5c-1.3,1.6-1.7,4.1-1.7,12.1c0,8.1,0.4,10.5,1.7,12.2c1.5,1.8,4.1,2.2,13.3,2.2
	c12.4,0,14.1-0.3,15.7-2.2c1.4-1.6,1.7-3.9,1.7-12c0-8.4-0.3-10.6-1.7-12.3c-1.6-1.9-3.4-2.2-15.7-2.2
	C999.8,122.3,997.2,122.7,995.7,124.5z"/>
<path class="st0" d="M1037.4,132.1c0-3.7,0.1-5.1,0.4-6.4c0.7-3.3,2.5-5.2,5.7-6.1c2.4-0.6,6.5-0.9,13-0.9c10.3,0,13.9,0.5,16.3,2.3
	c2.2,1.7,3.2,4.2,3.2,8.6c0,4.8-1.1,7.5-3.5,9c-1.7,1.1-3.6,1.5-8.8,1.8l-12.9,0.9c-8.3,0.5-9.4,1.6-9.5,9.1h34.8v3.6h-39V152
	c-0.3-11,2.1-13.8,12.2-14.2l13-1c8.2-0.6,9.6-1.6,9.6-6.8c0-3.4-0.4-4.9-1.7-5.8c-1.8-1.5-4.6-1.8-13.4-1.8c-13.5,0-15,0.9-15,8.6
	v1.2H1037.4z"/>
<path class="st0" d="M1351.1,130.5l14.5-11.4h5.6v35.1h-4.1v-32.1l-13.6,11.2L1351.1,130.5z"/>
<path class="st0" d="M1412.2,134.5c4.8,0,6.3-1.4,6.3-6.2c0-3.2-0.6-4.6-2.4-5.3c-1.5-0.6-3.4-0.7-10.3-0.7
	c-11.6,0-13.9,0.2-15.8,1.5c-1.3,0.8-1.8,2.4-1.8,6.1h-4.1c0-3.4,0.1-4.6,0.6-5.9c0.9-2.5,2.7-3.8,6.1-4.5c2.5-0.5,6.1-0.7,13.9-0.7
	c10.2,0,12.9,0.4,15.4,2.1c1.9,1.3,2.6,3.4,2.6,7.8c0,4.9-1.2,6.8-4.8,7.4c4,0.6,5.3,2.5,5.3,7.9c0,5.5-0.9,7.7-3.9,9.3
	c-2.1,1.1-4.4,1.3-13.6,1.3c-14.6,0-17.2-0.3-19.5-2.5c-1.7-1.6-2.3-3.6-2.3-8.5h4.2c0,4.1,0.3,5.2,1.8,6.2c1.3,0.9,5,1.3,13.1,1.3
	c9.4,0,12.3-0.2,13.7-0.9c1.7-0.8,2.3-2.2,2.3-5.6c0-3.6-0.4-4.8-1.9-5.7c-0.9-0.5-1.8-0.6-4.6-0.6h-13.8v-3.6H1412.2z"/>
<path class="st0" d="M1018.5,579.3c4.8,0,6.3-1.4,6.3-6.2c0-3.2-0.6-4.6-2.4-5.3c-1.5-0.6-3.4-0.7-10.3-0.7
	c-11.6,0-13.9,0.2-15.8,1.5c-1.3,0.8-1.8,2.4-1.8,6.1h-4.1c0-3.4,0.1-4.6,0.6-5.9c0.9-2.5,2.7-3.8,6.1-4.5c2.5-0.5,6.1-0.7,13.9-0.7
	c10.2,0,12.9,0.4,15.4,2.1c1.9,1.3,2.6,3.4,2.6,7.8c0,4.9-1.2,6.8-4.8,7.4c4,0.6,5.3,2.5,5.3,7.9c0,5.5-0.9,7.7-3.9,9.3
	c-2.1,1.1-4.4,1.3-13.6,1.3c-14.6,0-17.2-0.3-19.5-2.5c-1.7-1.6-2.3-3.6-2.3-8.5h4.2c0,4.1,0.3,5.2,1.8,6.2c1.3,0.9,5,1.3,13.1,1.3
	c9.4,0,12.3-0.2,13.7-0.9c1.7-0.8,2.3-2.2,2.3-5.6c0-3.6-0.4-4.8-1.9-5.7c-0.9-0.5-1.8-0.6-4.6-0.6H1005v-3.6H1018.5z"/>
<path class="st0" d="M1074.2,566.8c2.1,2.4,2.5,5.1,2.5,15c0,9.2-0.5,12-2.5,14.4c-2.4,2.7-4.8,3.2-17.8,3.2
	c-12.9,0-15.4-0.5-17.8-3.2c-2.1-2.4-2.5-5.1-2.5-14.7c0-9.6,0.5-12.3,2.5-14.7c2.4-2.7,4.9-3.2,17.8-3.2
	C1069.4,563.5,1071.9,564,1074.2,566.8z M1041.9,569.3c-1.3,1.6-1.7,4.1-1.7,12.1c0,8,0.4,10.5,1.7,12.2c1.5,1.8,4.1,2.2,13.3,2.2
	c12.4,0,14.1-0.3,15.7-2.2c1.4-1.6,1.7-3.9,1.7-12c0-8.4-0.3-10.6-1.7-12.3c-1.6-1.9-3.4-2.2-15.7-2.2
	C1046,567.1,1043.4,567.5,1041.9,569.3z"/>
<path class="st0" d="M1389.6,563.9h34.9v3.5h-30.7v11.7h29.6v3.3h-29.6v13h31v3.5h-35.2V563.9z"/>
<path class="st0" d="M991.5,176.5c0-3.7,0.1-5.1,0.4-6.4c0.7-3.3,2.5-5.2,5.7-6.1c2.4-0.6,6.5-0.9,13-0.9c10.3,0,13.9,0.5,16.3,2.3
	c2.2,1.7,3.2,4.2,3.2,8.6c0,4.8-1.1,7.5-3.5,9c-1.7,1.1-3.6,1.5-8.8,1.8l-12.9,0.9c-8.3,0.5-9.4,1.6-9.5,9.1h34.8v3.6h-39v-2.2
	c-0.3-11,2.1-13.8,12.2-14.2l13-1c8.2-0.6,9.6-1.6,9.6-6.8c0-3.4-0.4-4.9-1.7-5.8c-1.8-1.5-4.6-1.8-13.4-1.8c-13.5,0-15,0.9-15,8.6
	v1.2H991.5z"/>
<path class="st0" d="M1159.4,166.4c2.1,2.4,2.5,5.1,2.5,15c0,9.2-0.5,12-2.5,14.4c-2.4,2.7-4.8,3.2-17.8,3.2
	c-12.9,0-15.4-0.5-17.8-3.2c-2.1-2.4-2.5-5.1-2.5-14.7c0-9.6,0.5-12.3,2.5-14.7c2.4-2.7,4.9-3.2,17.8-3.2
	C1154.6,163.2,1157,163.7,1159.4,166.4z M1127.1,169c-1.3,1.6-1.7,4.1-1.7,12.1c0,8.1,0.4,10.5,1.7,12.2c1.5,1.8,4.1,2.2,13.3,2.2
	c12.4,0,14.1-0.3,15.7-2.2c1.4-1.6,1.7-3.9,1.7-12c0-8.4-0.3-10.6-1.7-12.3c-1.6-1.9-3.4-2.2-15.7-2.2
	C1131.2,166.8,1128.6,167.2,1127.1,169z"/>
<path class="st0" d="M1254.2,176.5c0-3.7,0.1-5.1,0.4-6.4c0.7-3.3,2.5-5.2,5.7-6.1c2.4-0.6,6.5-0.9,13-0.9c10.3,0,13.9,0.5,16.3,2.3
	c2.2,1.7,3.2,4.2,3.2,8.6c0,4.8-1.1,7.5-3.5,9c-1.7,1.1-3.6,1.5-8.8,1.8l-12.9,0.9c-8.3,0.5-9.4,1.6-9.5,9.1h34.8v3.6h-39v-2.2
	c-0.3-11,2.1-13.8,12.2-14.2l13-1c8.2-0.6,9.6-1.6,9.6-6.8c0-3.4-0.4-4.9-1.7-5.8c-1.8-1.5-4.6-1.8-13.4-1.8c-13.5,0-15,0.9-15,8.6
	v1.2H1254.2z"/>
<path class="st0" d="M1422.2,166.4c2.1,2.4,2.5,5.1,2.5,15c0,9.2-0.5,12-2.5,14.4c-2.4,2.7-4.8,3.2-17.8,3.2
	c-12.9,0-15.4-0.5-17.8-3.2c-2.1-2.4-2.5-5.1-2.5-14.7c0-9.6,0.5-12.3,2.5-14.7c2.4-2.7,4.9-3.2,17.8-3.2
	C1417.3,163.2,1419.8,163.7,1422.2,166.4z M1389.9,169c-1.3,1.6-1.7,4.1-1.7,12.1c0,8.1,0.4,10.5,1.7,12.2c1.5,1.8,4.1,2.2,13.3,2.2
	c12.4,0,14.1-0.3,15.7-2.2c1.4-1.6,1.7-3.9,1.7-12c0-8.4-0.3-10.6-1.7-12.3c-1.6-1.9-3.4-2.2-15.7-2.2
	C1394,166.8,1391.3,167.2,1389.9,169z"/>
<path class="st0" d="M991.2,608.4h27.3c7.7,0,11.6,1.4,13.7,5.1c1.6,2.6,2.3,6.7,2.3,12.4c0,5.7-0.7,9.9-2.3,12.5
	c-2.1,3.7-6,5.1-13.7,5.1h-27.3V608.4z M1018.9,640c4.9,0,8.2-1.2,9.6-3.4c1.2-2,1.8-5.3,1.8-10.4c0-5.4-0.6-9.1-1.9-11
	c-1.4-2.2-4.4-3.2-9.8-3.2h-23.1v28H1018.9z"/>
<path class="st0" d="M1041.7,608.4h34.9v3.5h-30.7v11.7h29.6v3.3h-29.6v13h31v3.5h-35.2V608.4z"/>
<path class="st0" d="M1083.4,608.4h4.2V640h27.8v3.5h-32V608.4z"/>
<path class="st0" d="M1270.3,608.4h6.8l21.2,30.2l21.2-30.2h6.6v35.1h-4.2v-31.6l-22.1,31.6h-3.1l-22.1-31.6v31.6h-4.2V608.4z"/>
<path class="st0" d="M1340.1,635.6l-4.6,7.9h-4.7l20.7-35.1h5.9l20.7,35.1h-4.6l-4.6-7.9H1340.1z M1354.5,611.3l-12.4,20.9h24.7
	L1354.5,611.3z"/>
<path class="st0" d="M1382.9,608.4h28.9c5.3,0,7.8,0.7,9.6,2.7c1.4,1.6,2.2,4.3,2.2,8.1c0,5.7-1.3,7.7-5.6,8.7
	c3.6,0.7,4.9,2.5,4.9,6.6v9.1h-4.2v-6.7c0.1-6.1-1.4-7.5-7.5-7.5h-24.1v14.2h-4.2V608.4z M1410.2,626c7.2,0,9-1.4,9-7.1
	c0-5.6-1.9-7-9.3-7h-22.8V626H1410.2z"/>
<path class="st0" d="M1024.8,218c0-3.2-0.3-4.3-1.3-5.2c-1.5-1.3-3.6-1.6-11.5-1.6c-9.9,0-12.3,0.3-14.4,1.5c-1.8,1.1-2.4,2.8-2.4,7
	v7.7c0.8-2.2,1.5-3.3,3-4c1.7-0.9,4.4-1.1,13.4-1.1c7.5,0,10.8,0.2,12.9,0.9c1.5,0.4,2.9,1.5,3.7,2.7c0.8,1.1,1.2,3.2,1.2,6.1
	c0,4.7-0.7,7.2-2.6,8.8c-2.5,2.2-5.2,2.6-15.6,2.6c-9.3,0-11.7-0.2-13.9-0.8c-3.2-0.9-4.9-2.8-5.7-6c-0.5-2-0.7-5-0.7-11.3
	c0-10.7,0.6-13.4,3.7-15.6c2.6-1.8,5.6-2.2,17.3-2.2c9.8,0,12.9,0.6,15.3,3.2c1.5,1.6,1.9,3.2,2.1,7.2H1024.8z M997.9,227.1
	c-1.8,0.9-2.6,2.6-2.6,5.9c0,3.8,1.1,5.5,3.8,6.3c1.6,0.4,5.7,0.7,11.8,0.7c12.7,0,14.2-0.8,14.2-7.7c0-2.9-0.4-4.3-1.6-5.1
	c-1.6-1-3.8-1.2-13.6-1.2C1002.2,225.9,999.6,226.2,997.9,227.1z"/>
<path class="st0" d="M1178.9,208h28.3c5.5,0,7.7,0.5,9.4,2.3c1.5,1.6,2.1,3.8,2.1,8.1c0,5.2-0.7,7.3-2.8,9c-1.7,1.4-3.9,1.9-7.7,1.9
	h-25v13.8h-4.2V208z M1205.1,225.8c7.6,0,9.3-1.3,9.3-7.2c0-5.7-1.7-7.1-8.4-7.1h-22.8v14.3H1205.1z"/>
<path class="st0" d="M1367.1,208h6.8l21.2,30.2l21.2-30.2h6.6v35.1h-4.2v-31.6l-22.1,31.6h-3.1l-22.1-31.6v31.6h-4.2V208z"/>
<path class="st0" d="M991.2,652.9h28.3c5.5,0,7.7,0.5,9.4,2.3c1.5,1.6,2.1,3.8,2.1,8.1c0,5.2-0.7,7.3-2.8,9
	c-1.7,1.4-3.9,1.9-7.7,1.9h-25V688h-4.2V652.9z M1017.4,670.7c7.6,0,9.3-1.3,9.3-7.2c0-5.7-1.7-7.1-8.4-7.1h-22.8v14.3H1017.4z"/>
<path class="st0" d="M1047.6,680.1l-4.6,7.9h-4.7l20.7-35.1h5.9l20.7,35.1h-4.6l-4.6-7.9H1047.6z M1062,655.8l-12.4,20.9h24.7
	L1062,655.8z"/>
<path class="st0" d="M1102,677v0.9c0,3.5,0.7,4.9,3,5.7c2.1,0.7,5.9,1,12.3,1c13.7,0,16.2-1.1,16.2-6.9c0-2.9-0.9-4.3-3.3-4.9
	c-2.3-0.6-2.5-0.6-18.2-0.7c-6.4-0.1-9.1-0.5-11.3-1.9c-2.1-1.4-2.9-3.4-2.9-6.8c0-5.3,1.9-8.3,6.1-9.5c3-0.9,7.6-1.3,14.8-1.3
	c8.1,0,12.3,0.6,14.7,2.1c2.6,1.6,3.4,3.4,3.5,8.3h-4.1c-0.1-2.8-0.5-4.1-1.7-4.9c-1.6-1.3-5.3-1.8-12.4-1.8
	c-13.8,0-16.5,1.1-16.5,6.7c0,2.4,0.7,3.8,2.2,4.5c1.8,0.8,3.4,0.9,13.4,1c11.2,0.1,13.6,0.3,16.1,1.5c2.8,1.4,4,3.7,4,8.1
	c0,4.8-1.6,7.7-5.1,9c-2.6,0.9-6.6,1.3-14.7,1.3c-8.5,0-12.5-0.4-15.4-1.3c-3.2-1.1-4.9-3.8-4.9-7.6V677H1102z"/>
<path class="st0" d="M1159.2,680.1l-4.6,7.9h-4.7l20.7-35.1h5.9l20.7,35.1h-4.6l-4.6-7.9H1159.2z M1173.5,655.8l-12.4,20.9h24.7
	L1173.5,655.8z"/>
<path class="st0" d="M1211.5,652.9h27.3c7.7,0,11.6,1.4,13.7,5.1c1.6,2.6,2.3,6.7,2.3,12.4c0,5.7-0.7,9.9-2.3,12.5
	c-2.1,3.7-6,5.1-13.7,5.1h-27.3V652.9z M1239.1,684.5c4.9,0,8.2-1.2,9.6-3.4c1.2-2,1.8-5.3,1.8-10.4c0-5.4-0.6-9.1-1.9-11
	c-1.4-2.2-4.4-3.2-9.8-3.2h-23.1v28H1239.1z"/>
<path class="st0" d="M1271.6,652.9h34.9v3.5h-30.7v11.7h29.6v3.3h-29.6v13h31v3.5h-35.2V652.9z"/>
<path class="st0" d="M1322.9,652.9h6.8l33.1,32.1v-32.1h4.2V688h-6.8l-33.1-32.1V688h-4.2V652.9z"/>
<path class="st0" d="M1390.8,680.1l-4.6,7.9h-4.7l20.7-35.1h5.9l20.7,35.1h-4.6l-4.6-7.9H1390.8z M1405.2,655.8l-12.4,20.9h24.7
	L1405.2,655.8z"/>
<path class="st0" d="M995.6,277.6c0,3.2,0.3,4.3,1.3,5.2c1.5,1.3,3.6,1.6,11.5,1.6c9.9,0,12.3-0.3,14.4-1.5c1.8-1.1,2.4-2.8,2.4-7
	v-7.7c-0.8,2.2-1.5,3.3-3,4c-1.7,0.9-4.4,1.1-13.4,1.1c-7.5,0-10.8-0.2-12.9-0.9c-1.5-0.4-2.9-1.5-3.7-2.7c-0.8-1.1-1.2-3.2-1.2-6.1
	c0-4.7,0.7-7.2,2.6-8.8c2.5-2.2,5.2-2.6,15.6-2.6c9.3,0,11.7,0.2,13.9,0.8c3.2,0.9,4.9,2.8,5.7,6c0.5,2,0.7,5,0.7,11.3
	c0,10.7-0.6,13.4-3.7,15.6c-2.6,1.8-5.6,2.2-17.3,2.2c-9.8,0-12.9-0.6-15.3-3.2c-1.5-1.6-1.9-3.2-2.1-7.2H995.6z M995.2,263.5
	c0,2.9,0.4,4.3,1.6,5.1c1.6,1,3.8,1.2,13.6,1.2c7.8,0,10.5-0.3,12.2-1.2c1.8-0.9,2.6-2.6,2.6-5.9c0-3.8-1.1-5.5-3.8-6.3
	c-1.6-0.4-5.8-0.7-11.8-0.7C996.7,255.7,995.2,256.6,995.2,263.5z"/>
<path class="st0" d="M1179.1,252.5h28.3c5.5,0,7.7,0.5,9.4,2.3c1.5,1.6,2.1,3.8,2.1,8.1c0,5.2-0.7,7.3-2.8,9
	c-1.7,1.4-3.9,1.9-7.7,1.9h-25v13.8h-4.2V252.5z M1205.2,270.3c7.6,0,9.3-1.3,9.3-7.2c0-5.7-1.7-7.1-8.4-7.1h-22.8v14.3H1205.2z"/>
<path class="st0" d="M1367.1,252.5h6.8l21.2,30.2l21.2-30.2h6.6v35.1h-4.2V256l-22.1,31.6h-3.1l-22.1-31.6v31.6h-4.2V252.5z"/>
<path class="st0" d="M1032.1,720.7v1.5c0,4.2-0.4,6.1-1.8,7.6c-1.3,1.6-3.1,2.3-6.3,2.7c-2,0.2-8,0.4-12.7,0.4
	c-12.7,0-15.8-0.5-18.4-3.2c-2.3-2.3-2.8-5.1-2.8-14.7c0-10.9,0.7-13.7,4.3-16c2.7-1.7,5.6-1.9,20-1.9c8.8,0,11.8,0.4,14,2
	c2.4,1.6,3.1,3.8,3.3,9.4h-4.1v-0.9c0-6.2-1.5-6.8-16.2-6.8c-16.8,0-16.9,0.1-16.9,14.3c0,8,0.4,10.5,1.8,12
	c1.7,1.7,4.4,2.2,14.2,2.2c15.8,0,17.4-0.6,17.4-6.5v-2H1032.1z"/>
<path class="st0" d="M1044.1,724.6l-4.6,7.9h-4.7l20.7-35.1h5.9l20.7,35.1h-4.6l-4.6-7.9H1044.1z M1058.5,700.3l-12.4,20.9h24.7
	L1058.5,700.3z"/>
<path class="st0" d="M1225.5,722.5c0,3.2,0.3,4.3,1.3,5.2c1.5,1.3,3.6,1.6,11.5,1.6c9.9,0,12.3-0.3,14.4-1.5c1.8-1.1,2.4-2.8,2.4-7
	v-7.7c-0.8,2.2-1.5,3.3-3,4c-1.7,0.9-4.4,1.1-13.4,1.1c-7.5,0-10.8-0.2-12.9-0.9c-1.5-0.4-2.9-1.5-3.7-2.7c-0.8-1.1-1.2-3.2-1.2-6.1
	c0-4.7,0.7-7.2,2.6-8.8c2.5-2.2,5.2-2.6,15.6-2.6c9.3,0,11.7,0.2,13.9,0.8c3.2,0.9,4.9,2.8,5.7,6c0.5,2,0.7,5,0.7,11.3
	c0,10.7-0.6,13.4-3.7,15.6c-2.6,1.8-5.6,2.2-17.3,2.2c-9.8,0-12.9-0.6-15.3-3.2c-1.5-1.6-1.9-3.2-2.1-7.2H1225.5z M1225.1,708.3
	c0,2.9,0.4,4.3,1.6,5.1c1.6,1,3.8,1.2,13.6,1.2c7.8,0,10.5-0.3,12.2-1.2c1.8-0.9,2.6-2.6,2.6-5.9c0-3.8-1.1-5.5-3.8-6.3
	c-1.6-0.4-5.8-0.7-11.8-0.7C1226.6,700.6,1225.1,701.4,1225.1,708.3z"/>
<path class="st0" d="M1268.8,708.8l14.5-11.4h5.6v35.1h-4.1v-32.1l-13.6,11.2L1268.8,708.8z"/>
<path class="st0" d="M1304.3,708.8l14.5-11.4h5.6v35.1h-4.1v-32.1l-13.6,11.2L1304.3,708.8z"/>
<path class="st0" d="M1375.5,700.2c2.1,2.4,2.5,5.1,2.5,15c0,9.2-0.5,12-2.5,14.4c-2.4,2.7-4.8,3.2-17.8,3.2
	c-12.9,0-15.4-0.5-17.8-3.2c-2.1-2.4-2.5-5.1-2.5-14.7c0-9.6,0.5-12.3,2.5-14.7c2.4-2.7,4.9-3.2,17.8-3.2
	C1370.6,697,1373.1,697.5,1375.5,700.2z M1343.2,702.8c-1.3,1.6-1.7,4.1-1.7,12.1c0,8.1,0.4,10.5,1.7,12.2c1.5,1.8,4.1,2.2,13.3,2.2
	c12.4,0,14.1-0.3,15.7-2.2c1.4-1.6,1.7-3.9,1.7-12c0-8.4-0.3-10.6-1.7-12.3c-1.6-1.9-3.4-2.2-15.7-2.2
	C1347.3,700.6,1344.7,701,1343.2,702.8z"/>
<path class="st0" d="M1388.6,721.8c0,4,0.4,5.2,2.1,6.1c1.6,1,5.2,1.4,12.5,1.4c9,0,11.6-0.2,13.7-1.2c2.2-0.9,2.7-2.6,2.7-7.8
	c0-4.5-0.8-6.3-3.3-7.2c-1.8-0.7-5.3-0.9-13.5-0.9c-10.5,0-12.9,0.6-13.5,3.4h-4.2l0.4-18.2h37.3v3.6h-33.4l-0.2,12
	c0.8-1.9,1.6-2.8,3.3-3.5c1.7-0.7,4-0.9,10.7-0.9c11.2,0,14.2,0.3,17,1.9c1.4,0.8,2.5,2.2,3.1,3.7c0.4,1.2,0.6,2.8,0.6,5.7
	c0,6.6-0.8,9.3-3.2,10.8c-2.5,1.7-5.6,2.1-15.2,2.1c-9.4,0-14.2-0.3-15.9-0.9c-2.5-0.8-4.1-2.6-4.7-5.1c-0.3-1.1-0.3-2.3-0.3-5.1
	H1388.6z"/>
<path class="st0" d="M1881.9,729.6c-2.1-2.4-2.5-5.1-2.5-15c0-9.2,0.5-12,2.5-14.4c2.4-2.7,4.8-3.2,17.8-3.2
	c12.9,0,15.4,0.5,17.8,3.2c2.1,2.4,2.5,5.1,2.5,14.7c0,9.6-0.5,12.3-2.5,14.7c-2.4,2.7-4.9,3.2-17.8,3.2
	C1886.7,732.8,1884.2,732.4,1881.9,729.6z M1914.2,727c1.3-1.6,1.7-4.1,1.7-12.1c0-8.1-0.4-10.5-1.7-12.2c-1.5-1.8-4.1-2.2-13.3-2.2
	c-12.4,0-14.1,0.3-15.7,2.2c-1.4,1.6-1.7,3.9-1.7,12c0,8.4,0.3,10.6,1.7,12.3c1.6,1.9,3.4,2.2,15.7,2.2
	C1910.1,729.3,1912.7,728.8,1914.2,727z"/>
<path class="st0" d="M1872.4,719.5c0,3.7-0.1,5.1-0.4,6.4c-0.7,3.3-2.5,5.2-5.7,6.1c-2.4,0.6-6.5,0.9-13,0.9
	c-10.3,0-13.9-0.5-16.3-2.3c-2.2-1.7-3.2-4.2-3.2-8.6c0-4.8,1.1-7.5,3.5-9c1.7-1.1,3.6-1.5,8.8-1.8l12.9-0.9
	c8.3-0.5,9.4-1.6,9.5-9.1h-34.8v-3.6h39v2.2c0.3,11-2.1,13.8-12.2,14.2l-13,1c-8.2,0.6-9.6,1.6-9.6,6.8c0,3.4,0.4,4.9,1.7,5.8
	c1.8,1.5,4.6,1.8,13.4,1.8c13.5,0,15-0.9,15-8.6v-1.2H1872.4z"/>
<path class="st0" d="M1558.8,721l-14.5,11.4h-5.6v-35.1h4.1v32.1l13.6-11.2L1558.8,721z"/>
<path class="st0" d="M1497.7,717c-4.8,0-6.3,1.4-6.3,6.2c0,3.2,0.6,4.6,2.4,5.3c1.5,0.6,3.4,0.7,10.3,0.7c11.6,0,13.9-0.2,15.8-1.5
	c1.3-0.8,1.8-2.4,1.8-6.1h4.1c0,3.4-0.1,4.6-0.6,5.9c-0.9,2.5-2.7,3.8-6.1,4.5c-2.5,0.5-6.1,0.7-13.9,0.7c-10.2,0-12.9-0.4-15.4-2.1
	c-1.9-1.3-2.6-3.4-2.6-7.8c0-4.9,1.2-6.8,4.8-7.4c-4-0.6-5.3-2.5-5.3-7.9c0-5.5,0.9-7.7,3.9-9.3c2.1-1.1,4.4-1.3,13.6-1.3
	c14.6,0,17.2,0.3,19.5,2.5c1.7,1.6,2.3,3.6,2.3,8.5h-4.2c0-4.1-0.3-5.2-1.8-6.2c-1.3-0.9-5-1.3-13.1-1.3c-9.4,0-12.3,0.2-13.7,0.9
	c-1.7,0.8-2.3,2.2-2.3,5.6c0,3.6,0.4,4.8,1.9,5.7c0.9,0.5,1.8,0.6,4.6,0.6h13.8v3.6H1497.7z"/>
<path class="st0" d="M1891.4,272.2c-4.8,0-6.3,1.4-6.3,6.2c0,3.2,0.6,4.6,2.4,5.3c1.5,0.6,3.4,0.7,10.3,0.7
	c11.6,0,13.9-0.2,15.8-1.5c1.3-0.8,1.8-2.4,1.8-6.1h4.1c0,3.4-0.1,4.6-0.6,5.9c-0.9,2.5-2.7,3.8-6.1,4.5c-2.5,0.5-6.1,0.7-13.9,0.7
	c-10.2,0-12.9-0.4-15.4-2.1c-1.9-1.3-2.6-3.4-2.6-7.8c0-4.9,1.2-6.8,4.8-7.4c-4-0.6-5.3-2.5-5.3-7.9c0-5.5,0.9-7.7,3.9-9.3
	c2.1-1.1,4.4-1.3,13.6-1.3c14.6,0,17.2,0.3,19.5,2.5c1.7,1.6,2.3,3.6,2.3,8.5h-4.2c0-4.1-0.3-5.2-1.8-6.2c-1.3-0.9-5-1.3-13.1-1.3
	c-9.4,0-12.3,0.2-13.7,0.9c-1.7,0.8-2.3,2.2-2.3,5.6c0,3.6,0.4,4.8,1.9,5.7c0.9,0.5,1.8,0.6,4.6,0.6h13.8v3.6H1891.4z"/>
<path class="st0" d="M1835.7,284.8c-2.1-2.4-2.5-5.1-2.5-15c0-9.2,0.5-12,2.5-14.4c2.4-2.7,4.8-3.2,17.8-3.2
	c12.9,0,15.4,0.5,17.8,3.2c2.1,2.4,2.5,5.1,2.5,14.7c0,9.6-0.5,12.3-2.5,14.7c-2.4,2.7-4.9,3.2-17.8,3.2
	C1840.5,288,1838,287.5,1835.7,284.8z M1868,282.2c1.3-1.6,1.7-4.1,1.7-12.1c0-8.1-0.4-10.5-1.7-12.2c-1.5-1.8-4.1-2.2-13.3-2.2
	c-12.4,0-14.1,0.3-15.7,2.2c-1.4,1.6-1.7,3.9-1.7,12c0,8.4,0.3,10.6,1.7,12.3c1.6,1.9,3.4,2.2,15.7,2.2
	C1863.9,284.4,1866.5,284,1868,282.2z"/>
<path class="st0" d="M1520.3,287.6h-34.9v-3.5h30.7v-11.7h-29.6V269h29.6v-13h-31v-3.5h35.2V287.6z"/>
<path class="st0" d="M1918.4,675c0,3.7-0.1,5.1-0.4,6.4c-0.7,3.3-2.5,5.2-5.7,6.1c-2.4,0.6-6.5,0.9-13,0.9
	c-10.3,0-13.9-0.5-16.3-2.3c-2.2-1.7-3.2-4.2-3.2-8.6c0-4.8,1.1-7.5,3.5-9c1.7-1.1,3.6-1.5,8.8-1.8l12.9-0.9
	c8.3-0.5,9.4-1.6,9.5-9.1h-34.8v-3.6h39v2.2c0.3,11-2.1,13.8-12.2,14.2l-13,1c-8.2,0.6-9.6,1.6-9.6,6.8c0,3.4,0.4,4.9,1.7,5.8
	c1.8,1.5,4.6,1.8,13.4,1.8c13.5,0,15-0.9,15-8.6V675H1918.4z"/>
<path class="st0" d="M1750.5,685.1c-2.1-2.4-2.5-5.1-2.5-15c0-9.2,0.5-12,2.5-14.4c2.4-2.7,4.8-3.2,17.8-3.2
	c12.9,0,15.4,0.5,17.8,3.2c2.1,2.4,2.5,5.1,2.5,14.7c0,9.6-0.5,12.3-2.5,14.7c-2.4,2.7-4.9,3.2-17.8,3.2
	C1755.3,688.3,1752.8,687.9,1750.5,685.1z M1782.8,682.6c1.3-1.6,1.7-4.1,1.7-12.1c0-8.1-0.4-10.5-1.7-12.2
	c-1.5-1.8-4.1-2.2-13.3-2.2c-12.4,0-14.1,0.3-15.7,2.2c-1.4,1.6-1.7,3.9-1.7,12c0,8.4,0.3,10.6,1.7,12.3c1.6,1.9,3.4,2.2,15.7,2.2
	C1778.7,684.8,1781.3,684.3,1782.8,682.6z"/>
<path class="st0" d="M1655.7,675c0,3.7-0.1,5.1-0.4,6.4c-0.7,3.3-2.5,5.2-5.7,6.1c-2.4,0.6-6.5,0.9-13,0.9
	c-10.3,0-13.9-0.5-16.3-2.3c-2.2-1.7-3.2-4.2-3.2-8.6c0-4.8,1.1-7.5,3.5-9c1.7-1.1,3.6-1.5,8.8-1.8l12.9-0.9
	c8.3-0.5,9.4-1.6,9.5-9.1h-34.8v-3.6h39v2.2c0.3,11-2.1,13.8-12.2,14.2l-13,1c-8.2,0.6-9.6,1.6-9.6,6.8c0,3.4,0.4,4.9,1.7,5.8
	c1.8,1.5,4.6,1.8,13.4,1.8c13.5,0,15-0.9,15-8.6V675H1655.7z"/>
<path class="st0" d="M1487.7,685.1c-2.1-2.4-2.5-5.1-2.5-15c0-9.2,0.5-12,2.5-14.4c2.4-2.7,4.8-3.2,17.8-3.2
	c12.9,0,15.4,0.5,17.8,3.2c2.1,2.4,2.5,5.1,2.5,14.7c0,9.6-0.5,12.3-2.5,14.7c-2.4,2.7-4.9,3.2-17.8,3.2
	C1492.6,688.3,1490.1,687.9,1487.7,685.1z M1520,682.6c1.3-1.6,1.7-4.1,1.7-12.1c0-8.1-0.4-10.5-1.7-12.2c-1.5-1.8-4.1-2.2-13.3-2.2
	c-12.4,0-14.1,0.3-15.7,2.2c-1.4,1.6-1.7,3.9-1.7,12c0,8.4,0.3,10.6,1.7,12.3c1.6,1.9,3.4,2.2,15.7,2.2
	C1515.9,684.8,1518.5,684.3,1520,682.6z"/>
<path class="st0" d="M1918.6,243.1h-27.3c-7.7,0-11.6-1.4-13.7-5.1c-1.6-2.6-2.3-6.7-2.3-12.4c0-5.7,0.7-9.9,2.3-12.5
	c2.1-3.7,6-5.1,13.7-5.1h27.3V243.1z M1891,211.6c-4.9,0-8.2,1.2-9.6,3.4c-1.2,2-1.8,5.3-1.8,10.4c0,5.4,0.6,9.1,1.9,11
	c1.4,2.2,4.4,3.2,9.8,3.2h23.1v-28H1891z"/>
<path class="st0" d="M1868.2,243.1h-34.9v-3.5h30.7v-11.7h-29.6v-3.3h29.6v-13h-31V208h35.2V243.1z"/>
<path class="st0" d="M1826.5,243.1h-4.2v-31.6h-27.8V208h32V243.1z"/>
<path class="st0" d="M1639.6,243.1h-6.8l-21.2-30.2l-21.2,30.2h-6.6V208h4.2v31.6l22.1-31.6h3.1l22.1,31.6V208h4.2V243.1z"/>
<path class="st0" d="M1569.7,215.9l4.6-7.9h4.7l-20.7,35.1h-5.9l-20.7-35.1h4.6l4.6,7.9H1569.7z M1555.4,240.2l12.4-20.9H1543
	L1555.4,240.2z"/>
<path class="st0" d="M1527,243.1h-28.9c-5.3,0-7.8-0.7-9.6-2.7c-1.4-1.6-2.2-4.3-2.2-8.1c0-5.7,1.3-7.7,5.6-8.7
	c-3.6-0.7-4.9-2.5-4.9-6.6V208h4.2v6.7c-0.1,6.1,1.4,7.5,7.5,7.5h24.1V208h4.2V243.1z M1499.7,225.5c-7.2,0-9,1.4-9,7.1
	c0,5.6,1.9,7,9.3,7h22.8v-14.1H1499.7z"/>
<path class="st0" d="M1885.1,633.5c0,3.2,0.3,4.3,1.3,5.2c1.5,1.3,3.6,1.6,11.5,1.6c9.9,0,12.3-0.3,14.4-1.5c1.8-1.1,2.4-2.8,2.4-7
	v-7.7c-0.8,2.2-1.5,3.3-3,4c-1.7,0.9-4.4,1.1-13.4,1.1c-7.5,0-10.8-0.2-12.9-0.9c-1.5-0.4-2.9-1.5-3.7-2.7c-0.8-1.1-1.2-3.2-1.2-6.1
	c0-4.7,0.7-7.2,2.6-8.8c2.5-2.2,5.2-2.6,15.6-2.6c9.3,0,11.7,0.2,13.9,0.8c3.2,0.9,4.9,2.8,5.7,6c0.5,2,0.7,5,0.7,11.3
	c0,10.7-0.6,13.4-3.7,15.6c-2.6,1.8-5.6,2.2-17.3,2.2c-9.8,0-12.9-0.6-15.3-3.2c-1.5-1.6-1.9-3.2-2.1-7.2H1885.1z M1912,624.4
	c1.8-0.9,2.6-2.6,2.6-5.9c0-3.8-1.1-5.5-3.8-6.3c-1.6-0.4-5.7-0.7-11.8-0.7c-12.7,0-14.2,0.8-14.2,7.7c0,2.9,0.4,4.3,1.6,5.1
	c1.6,1,3.8,1.2,13.6,1.2C1907.7,625.6,1910.3,625.3,1912,624.4z"/>
<path class="st0" d="M1731,643.5h-28.3c-5.5,0-7.7-0.5-9.4-2.3c-1.5-1.6-2.1-3.8-2.1-8.1c0-5.2,0.7-7.3,2.8-9
	c1.7-1.4,3.9-1.9,7.7-1.9h25v-13.8h4.2V643.5z M1704.8,625.7c-7.6,0-9.3,1.3-9.3,7.2c0,5.7,1.7,7.1,8.4,7.1h22.8v-14.3H1704.8z"/>
<path class="st0" d="M1542.8,643.5h-6.8l-21.2-30.2l-21.2,30.2h-6.6v-35.1h4.2V640l22.1-31.6h3.1l22.1,31.6v-31.6h4.2V643.5z"/>
<path class="st0" d="M1918.6,198.6h-28.3c-5.5,0-7.7-0.5-9.4-2.3c-1.5-1.6-2.1-3.8-2.1-8.1c0-5.2,0.7-7.3,2.8-9
	c1.7-1.4,3.9-1.9,7.7-1.9h25v-13.8h4.2V198.6z M1892.5,180.9c-7.6,0-9.3,1.3-9.3,7.2c0,5.7,1.7,7.1,8.4,7.1h22.8v-14.3H1892.5z"/>
<path class="st0" d="M1862.3,171.4l4.6-7.9h4.7l-20.7,35.1h-5.9l-20.7-35.1h4.6l4.6,7.9H1862.3z M1847.9,195.7l12.4-20.9h-24.7
	L1847.9,195.7z"/>
<path class="st0" d="M1807.9,174.5v-0.9c0-3.5-0.7-4.9-3-5.7c-2.1-0.7-5.9-1-12.3-1c-13.7,0-16.2,1.1-16.2,6.9
	c0,2.9,0.9,4.3,3.3,4.9c2.3,0.6,2.5,0.6,18.2,0.7c6.4,0.1,9.1,0.5,11.3,1.9c2.1,1.4,2.9,3.4,2.9,6.8c0,5.3-1.9,8.3-6.1,9.5
	c-3,0.9-7.6,1.3-14.8,1.3c-8.1,0-12.3-0.6-14.7-2.1c-2.6-1.6-3.4-3.4-3.5-8.3h4.1c0.1,2.8,0.5,4.1,1.7,4.9c1.6,1.3,5.3,1.8,12.4,1.8
	c13.8,0,16.5-1.1,16.5-6.7c0-2.4-0.7-3.8-2.2-4.5c-1.8-0.8-3.4-0.9-13.4-1c-11.2-0.1-13.6-0.3-16.1-1.5c-2.8-1.4-4-3.7-4-8.1
	c0-4.8,1.6-7.7,5.1-9c2.6-0.9,6.6-1.3,14.7-1.3c8.5,0,12.5,0.4,15.4,1.3c3.2,1.1,4.9,3.8,4.9,7.6v2.4H1807.9z"/>
<path class="st0" d="M1750.7,171.4l4.6-7.9h4.7l-20.7,35.1h-5.9l-20.7-35.1h4.6l4.6,7.9H1750.7z M1736.4,195.7l12.4-20.9H1724
	L1736.4,195.7z"/>
<path class="st0" d="M1698.4,198.6H1671c-7.7,0-11.6-1.4-13.7-5.1c-1.6-2.6-2.3-6.7-2.3-12.4c0-5.7,0.7-9.9,2.3-12.5
	c2.1-3.7,6-5.1,13.7-5.1h27.3V198.6z M1670.7,167.1c-4.9,0-8.2,1.2-9.6,3.4c-1.2,2-1.8,5.3-1.8,10.4c0,5.4,0.6,9.1,1.9,11
	c1.4,2.2,4.4,3.2,9.8,3.2h23.1v-28H1670.7z"/>
<path class="st0" d="M1638.3,198.6h-34.9v-3.5h30.7v-11.7h-29.6v-3.3h29.6v-13h-31v-3.5h35.2V198.6z"/>
<path class="st0" d="M1586.9,198.6h-6.8l-33.1-32.1v32.1h-4.2v-35.1h6.8l33.1,32.1v-32.1h4.2V198.6z"/>
<path class="st0" d="M1519.1,171.4l4.6-7.9h4.7l-20.7,35.1h-5.9l-20.7-35.1h4.6l4.6,7.9H1519.1z M1504.7,195.7l12.4-20.9h-24.7
	L1504.7,195.7z"/>
<path class="st0" d="M1914.3,573.9c0-3.2-0.3-4.3-1.3-5.2c-1.5-1.3-3.6-1.6-11.5-1.6c-9.9,0-12.3,0.3-14.4,1.5
	c-1.8,1.1-2.4,2.8-2.4,7v7.7c0.8-2.2,1.5-3.3,3-4c1.7-0.9,4.4-1.1,13.4-1.1c7.5,0,10.8,0.2,12.9,0.9c1.5,0.4,2.9,1.5,3.7,2.7
	c0.8,1.1,1.2,3.2,1.2,6.1c0,4.7-0.7,7.2-2.6,8.8c-2.5,2.2-5.2,2.6-15.6,2.6c-9.3,0-11.7-0.2-13.9-0.8c-3.2-0.9-4.9-2.8-5.7-6
	c-0.5-2-0.7-5-0.7-11.3c0-10.7,0.6-13.4,3.7-15.6c2.6-1.8,5.6-2.2,17.3-2.2c9.8,0,12.9,0.6,15.3,3.2c1.5,1.6,1.9,3.2,2.1,7.2H1914.3
	z M1914.7,588.1c0-2.9-0.4-4.3-1.6-5.1c-1.6-1-3.8-1.2-13.6-1.2c-7.8,0-10.5,0.3-12.2,1.2c-1.8,0.9-2.6,2.6-2.6,5.9
	c0,3.8,1.1,5.5,3.8,6.3c1.6,0.4,5.8,0.7,11.8,0.7C1913.2,595.8,1914.7,595,1914.7,588.1z"/>
<path class="st0" d="M1730.8,599h-28.3c-5.5,0-7.7-0.5-9.4-2.3c-1.5-1.6-2.1-3.8-2.1-8.1c0-5.2,0.7-7.3,2.8-9
	c1.7-1.4,3.9-1.9,7.7-1.9h25v-13.8h4.2V599z M1704.6,581.2c-7.6,0-9.3,1.3-9.3,7.2c0,5.7,1.7,7.1,8.4,7.1h22.8v-14.3H1704.6z"/>
<path class="st0" d="M1542.8,599h-6.8l-21.2-30.2l-21.2,30.2h-6.6v-35.1h4.2v31.6l22.1-31.6h3.1l22.1,31.6v-31.6h4.2V599z"/>
<path class="st0" d="M1877.8,130.9v-1.5c0-4.2,0.4-6.1,1.8-7.6c1.3-1.6,3.1-2.3,6.3-2.7c2-0.2,8-0.4,12.7-0.4
	c12.7,0,15.8,0.5,18.4,3.2c2.3,2.3,2.8,5.1,2.8,14.7c0,10.9-0.7,13.7-4.3,16c-2.7,1.7-5.6,1.9-20,1.9c-8.8,0-11.8-0.4-14-2
	c-2.4-1.6-3.1-3.8-3.3-9.4h4.1v0.9c0,6.2,1.5,6.8,16.2,6.8c16.8,0,16.9-0.1,16.9-14.3c0-8-0.4-10.5-1.8-12
	c-1.7-1.7-4.4-2.2-14.2-2.2c-15.8,0-17.4,0.6-17.4,6.5v2H1877.8z"/>
<path class="st0" d="M1865.8,127l4.6-7.9h4.7l-20.7,35.1h-5.9l-20.7-35.1h4.6l4.6,7.9H1865.8z M1851.4,151.2l12.4-20.9H1839
	L1851.4,151.2z"/>
<path class="st0" d="M1684.4,129.1c0-3.2-0.3-4.3-1.3-5.2c-1.5-1.3-3.6-1.6-11.5-1.6c-9.9,0-12.3,0.3-14.4,1.5
	c-1.8,1.1-2.4,2.8-2.4,7v7.7c0.8-2.2,1.5-3.3,3-4c1.7-0.9,4.4-1.1,13.4-1.1c7.5,0,10.8,0.2,12.9,0.9c1.5,0.4,2.9,1.5,3.7,2.7
	c0.8,1.1,1.2,3.2,1.2,6.1c0,4.7-0.7,7.2-2.6,8.8c-2.5,2.2-5.2,2.6-15.6,2.6c-9.3,0-11.7-0.2-13.9-0.8c-3.2-0.9-4.9-2.8-5.7-6
	c-0.5-2-0.7-5-0.7-11.3c0-10.7,0.6-13.4,3.7-15.6c2.6-1.8,5.6-2.2,17.3-2.2c9.8,0,12.9,0.6,15.3,3.2c1.5,1.6,1.9,3.2,2.1,7.2H1684.4
	z M1684.8,143.2c0-2.9-0.4-4.3-1.6-5.1c-1.6-1-3.8-1.2-13.6-1.2c-7.8,0-10.5,0.3-12.2,1.2c-1.8,0.9-2.6,2.6-2.6,5.9
	c0,3.8,1.1,5.5,3.8,6.3c1.6,0.4,5.8,0.7,11.8,0.7C1683.2,150.9,1684.8,150.1,1684.8,143.2z"/>
<path class="st0" d="M1641,142.7l-14.5,11.4h-5.6v-35.1h4.1v32.1l13.6-11.2L1641,142.7z"/>
<path class="st0" d="M1605.6,142.7l-14.5,11.4h-5.6v-35.1h4.1v32.1l13.6-11.2L1605.6,142.7z"/>
<path class="st0" d="M1534.4,151.3c-2.1-2.4-2.5-5.1-2.5-15c0-9.2,0.5-12,2.5-14.4c2.4-2.7,4.8-3.2,17.8-3.2
	c12.9,0,15.4,0.5,17.8,3.2c2.1,2.4,2.5,5.1,2.5,14.7c0,9.6-0.5,12.3-2.5,14.7c-2.4,2.7-4.9,3.2-17.8,3.2
	C1539.2,154.5,1536.8,154.1,1534.4,151.3z M1566.7,148.7c1.3-1.6,1.7-4.1,1.7-12.1c0-8.1-0.4-10.5-1.7-12.2
	c-1.5-1.8-4.1-2.2-13.3-2.2c-12.4,0-14.1,0.3-15.7,2.2c-1.4,1.6-1.7,3.9-1.7,12c0,8.4,0.3,10.6,1.7,12.3c1.6,1.9,3.4,2.2,15.7,2.2
	C1562.6,150.9,1565.2,150.5,1566.7,148.7z"/>
<path class="st0" d="M1521.3,129.7c0-4-0.4-5.2-2.1-6.1c-1.6-1-5.2-1.4-12.5-1.4c-9,0-11.6,0.2-13.7,1.2c-2.2,0.9-2.7,2.6-2.7,7.8
	c0,4.5,0.8,6.3,3.3,7.2c1.8,0.7,5.3,0.9,13.5,0.9c10.5,0,12.9-0.6,13.5-3.4h4.2l-0.4,18.2h-37.3v-3.6h33.4l0.2-12
	c-0.8,1.9-1.6,2.8-3.3,3.5c-1.7,0.7-4,0.9-10.7,0.9c-11.2,0-14.2-0.3-17-1.9c-1.4-0.8-2.5-2.2-3.1-3.7c-0.4-1.2-0.6-2.8-0.6-5.7
	c0-6.6,0.8-9.3,3.2-10.8c2.5-1.7,5.6-2.1,15.2-2.1c9.4,0,14.2,0.3,15.9,0.9c2.5,0.8,4.1,2.6,4.7,5.1c0.3,1.1,0.3,2.3,0.3,5.1H1521.3
	z"/>
<path class="st0" d="M1881.9,958.1c-2.1-2.4-2.5-5.1-2.5-15c0-9.2,0.5-12,2.5-14.4c2.4-2.7,4.8-3.2,17.8-3.2
	c12.9,0,15.4,0.5,17.8,3.2c2.1,2.4,2.5,5.1,2.5,14.7c0,9.6-0.5,12.3-2.5,14.7c-2.4,2.7-4.9,3.2-17.8,3.2
	C1886.7,961.3,1884.2,960.8,1881.9,958.1z M1914.2,955.5c1.3-1.6,1.7-4.1,1.7-12.1c0-8.1-0.4-10.5-1.7-12.2
	c-1.5-1.8-4.1-2.2-13.3-2.2c-12.4,0-14.1,0.3-15.7,2.2c-1.4,1.6-1.7,3.9-1.7,12c0,8.4,0.3,10.6,1.7,12.3c1.6,1.9,3.4,2.2,15.7,2.2
	C1910.1,957.7,1912.7,957.3,1914.2,955.5z"/>
<path class="st0" d="M1872.4,947.9c0,3.7-0.1,5.1-0.4,6.4c-0.7,3.3-2.5,5.2-5.7,6.1c-2.4,0.6-6.5,0.9-13,0.9
	c-10.3,0-13.9-0.5-16.3-2.3c-2.2-1.7-3.2-4.2-3.2-8.6c0-4.8,1.1-7.5,3.5-9c1.7-1.1,3.6-1.5,8.8-1.8l12.9-0.9
	c8.3-0.5,9.4-1.6,9.5-9.1h-34.8v-3.6h39v2.2c0.3,11-2.1,13.8-12.2,14.2l-13,1c-8.2,0.6-9.6,1.6-9.6,6.8c0,3.4,0.4,4.9,1.7,5.8
	c1.8,1.5,4.6,1.8,13.4,1.8c13.5,0,15-0.9,15-8.6v-1.2H1872.4z"/>
<path class="st0" d="M1558.8,949.5l-14.5,11.4h-5.6v-35.1h4.1v32.1l13.6-11.2L1558.8,949.5z"/>
<path class="st0" d="M1497.7,945.5c-4.8,0-6.3,1.4-6.3,6.2c0,3.2,0.6,4.6,2.4,5.3c1.5,0.6,3.4,0.7,10.3,0.7
	c11.6,0,13.9-0.2,15.8-1.5c1.3-0.8,1.8-2.4,1.8-6.1h4.1c0,3.4-0.1,4.6-0.6,5.9c-0.9,2.5-2.7,3.8-6.1,4.5c-2.5,0.5-6.1,0.7-13.9,0.7
	c-10.2,0-12.9-0.4-15.4-2.1c-1.9-1.3-2.6-3.4-2.6-7.8c0-4.9,1.2-6.8,4.8-7.4c-4-0.6-5.3-2.5-5.3-7.9c0-5.5,0.9-7.7,3.9-9.3
	c2.1-1.1,4.4-1.3,13.6-1.3c14.6,0,17.2,0.3,19.5,2.5c1.7,1.6,2.3,3.6,2.3,8.5h-4.2c0-4.1-0.3-5.2-1.8-6.2c-1.3-0.9-5-1.3-13.1-1.3
	c-9.4,0-12.3,0.2-13.7,0.9c-1.7,0.8-2.3,2.2-2.3,5.6c0,3.6,0.4,4.8,1.9,5.7c0.9,0.5,1.8,0.6,4.6,0.6h13.8v3.6H1497.7z"/>
<path class="st0" d="M1891.4,500.7c-4.8,0-6.3,1.4-6.3,6.2c0,3.2,0.6,4.6,2.4,5.3c1.5,0.6,3.4,0.7,10.3,0.7
	c11.6,0,13.9-0.2,15.8-1.5c1.3-0.8,1.8-2.4,1.8-6.1h4.1c0,3.4-0.1,4.6-0.6,5.9c-0.9,2.5-2.7,3.8-6.1,4.5c-2.5,0.5-6.1,0.7-13.9,0.7
	c-10.2,0-12.9-0.4-15.4-2.1c-1.9-1.3-2.6-3.4-2.6-7.8c0-4.9,1.2-6.8,4.8-7.4c-4-0.6-5.3-2.5-5.3-7.9c0-5.5,0.9-7.7,3.9-9.3
	c2.1-1.1,4.4-1.3,13.6-1.3c14.6,0,17.2,0.3,19.5,2.5c1.7,1.6,2.3,3.6,2.3,8.5h-4.2c0-4.1-0.3-5.2-1.8-6.2c-1.3-0.9-5-1.3-13.1-1.3
	c-9.4,0-12.3,0.2-13.7,0.9c-1.7,0.8-2.3,2.2-2.3,5.6c0,3.6,0.4,4.8,1.9,5.7c0.9,0.5,1.8,0.6,4.6,0.6h13.8v3.6H1891.4z"/>
<path class="st0" d="M1835.7,513.2c-2.1-2.4-2.5-5.1-2.5-15c0-9.2,0.5-12,2.5-14.4c2.4-2.7,4.8-3.2,17.8-3.2
	c12.9,0,15.4,0.5,17.8,3.2c2.1,2.4,2.5,5.1,2.5,14.7c0,9.6-0.5,12.3-2.5,14.7c-2.4,2.7-4.9,3.2-17.8,3.2
	C1840.5,516.5,1838,516,1835.7,513.2z M1868,510.7c1.3-1.6,1.7-4.1,1.7-12.1c0-8.1-0.4-10.5-1.7-12.2c-1.5-1.8-4.1-2.2-13.3-2.2
	c-12.4,0-14.1,0.3-15.7,2.2c-1.4,1.6-1.7,3.9-1.7,12c0,8.4,0.3,10.6,1.7,12.3c1.6,1.9,3.4,2.2,15.7,2.2
	C1863.9,512.9,1866.5,512.5,1868,510.7z"/>
<path class="st0" d="M1520.3,516.1h-34.9v-3.5h30.7v-11.7h-29.6v-3.3h29.6v-13h-31V481h35.2V516.1z"/>
<path class="st0" d="M1918.4,903.5c0,3.7-0.1,5.1-0.4,6.4c-0.7,3.3-2.5,5.2-5.7,6.1c-2.4,0.6-6.5,0.9-13,0.9
	c-10.3,0-13.9-0.5-16.3-2.3c-2.2-1.7-3.2-4.2-3.2-8.6c0-4.8,1.1-7.5,3.5-9c1.7-1.1,3.6-1.5,8.8-1.8l12.9-0.9
	c8.3-0.5,9.4-1.6,9.5-9.1h-34.8v-3.6h39v2.2c0.3,11-2.1,13.8-12.2,14.2l-13,1c-8.2,0.6-9.6,1.6-9.6,6.8c0,3.4,0.4,4.9,1.7,5.8
	c1.8,1.5,4.6,1.8,13.4,1.8c13.5,0,15-0.9,15-8.6v-1.2H1918.4z"/>
<path class="st0" d="M1750.5,913.6c-2.1-2.4-2.5-5.1-2.5-15c0-9.2,0.5-12,2.5-14.4c2.4-2.7,4.8-3.2,17.8-3.2
	c12.9,0,15.4,0.5,17.8,3.2c2.1,2.4,2.5,5.1,2.5,14.7c0,9.6-0.5,12.3-2.5,14.7c-2.4,2.7-4.9,3.2-17.8,3.2
	C1755.3,916.8,1752.8,916.3,1750.5,913.6z M1782.8,911c1.3-1.6,1.7-4.1,1.7-12.1c0-8-0.4-10.5-1.7-12.2c-1.5-1.8-4.1-2.2-13.3-2.2
	c-12.4,0-14.1,0.3-15.7,2.2c-1.4,1.6-1.7,3.9-1.7,12c0,8.4,0.3,10.6,1.7,12.3c1.6,1.9,3.4,2.2,15.7,2.2
	C1778.7,913.2,1781.3,912.8,1782.8,911z"/>
<path class="st0" d="M1655.7,903.5c0,3.7-0.1,5.1-0.4,6.4c-0.7,3.3-2.5,5.2-5.7,6.1c-2.4,0.6-6.5,0.9-13,0.9
	c-10.3,0-13.9-0.5-16.3-2.3c-2.2-1.7-3.2-4.2-3.2-8.6c0-4.8,1.1-7.5,3.5-9c1.7-1.1,3.6-1.5,8.8-1.8l12.9-0.9
	c8.3-0.5,9.4-1.6,9.5-9.1h-34.8v-3.6h39v2.2c0.3,11-2.1,13.8-12.2,14.2l-13,1c-8.2,0.6-9.6,1.6-9.6,6.8c0,3.4,0.4,4.9,1.7,5.8
	c1.8,1.5,4.6,1.8,13.4,1.8c13.5,0,15-0.9,15-8.6v-1.2H1655.7z"/>
<path class="st0" d="M1487.7,913.6c-2.1-2.4-2.5-5.1-2.5-15c0-9.2,0.5-12,2.5-14.4c2.4-2.7,4.8-3.2,17.8-3.2
	c12.9,0,15.4,0.5,17.8,3.2c2.1,2.4,2.5,5.1,2.5,14.7c0,9.6-0.5,12.3-2.5,14.7c-2.4,2.7-4.9,3.2-17.8,3.2
	C1492.6,916.8,1490.1,916.3,1487.7,913.6z M1520,911c1.3-1.6,1.7-4.1,1.7-12.1c0-8-0.4-10.5-1.7-12.2c-1.5-1.8-4.1-2.2-13.3-2.2
	c-12.4,0-14.1,0.3-15.7,2.2c-1.4,1.6-1.7,3.9-1.7,12c0,8.4,0.3,10.6,1.7,12.3c1.6,1.9,3.4,2.2,15.7,2.2
	C1515.9,913.2,1518.5,912.8,1520,911z"/>
<path class="st0" d="M1918.6,471.6h-27.3c-7.7,0-11.6-1.4-13.7-5.1c-1.6-2.6-2.3-6.7-2.3-12.4c0-5.7,0.7-9.9,2.3-12.5
	c2.1-3.7,6-5.1,13.7-5.1h27.3V471.6z M1891,440c-4.9,0-8.2,1.2-9.6,3.4c-1.2,2-1.8,5.3-1.8,10.4c0,5.4,0.6,9.1,1.9,11
	c1.4,2.2,4.4,3.2,9.8,3.2h23.1v-28H1891z"/>
<path class="st0" d="M1868.2,471.6h-34.9v-3.5h30.7v-11.7h-29.6V453h29.6v-13h-31v-3.5h35.2V471.6z"/>
<path class="st0" d="M1826.5,471.6h-4.2V440h-27.8v-3.5h32V471.6z"/>
<path class="st0" d="M1639.6,471.6h-6.8l-21.2-30.2l-21.2,30.2h-6.6v-35.1h4.2v31.6l22.1-31.6h3.1l22.1,31.6v-31.6h4.2V471.6z"/>
<path class="st0" d="M1569.7,444.4l4.6-7.9h4.7l-20.7,35.1h-5.9l-20.7-35.1h4.6l4.6,7.9H1569.7z M1555.4,468.7l12.4-20.9H1543
	L1555.4,468.7z"/>
<path class="st0" d="M1527,471.6h-28.9c-5.3,0-7.8-0.7-9.6-2.7c-1.4-1.6-2.2-4.3-2.2-8.1c0-5.7,1.3-7.7,5.6-8.7
	c-3.6-0.7-4.9-2.5-4.9-6.6v-9.1h4.2v6.7c-0.1,6.1,1.4,7.5,7.5,7.5h24.1v-14.2h4.2V471.6z M1499.7,454c-7.2,0-9,1.4-9,7.1
	c0,5.6,1.9,7,9.3,7h22.8V454H1499.7z"/>
<path class="st0" d="M1885.1,862c0,3.2,0.3,4.3,1.3,5.2c1.5,1.3,3.6,1.6,11.5,1.6c9.9,0,12.3-0.3,14.4-1.5c1.8-1.1,2.4-2.8,2.4-7
	v-7.7c-0.8,2.2-1.5,3.3-3,4c-1.7,0.9-4.4,1.1-13.4,1.1c-7.5,0-10.8-0.2-12.9-0.9c-1.5-0.4-2.9-1.5-3.7-2.7c-0.8-1.1-1.2-3.2-1.2-6.1
	c0-4.7,0.7-7.2,2.6-8.8c2.5-2.2,5.2-2.6,15.6-2.6c9.3,0,11.7,0.2,13.9,0.8c3.2,0.9,4.9,2.8,5.7,6c0.5,2,0.7,5,0.7,11.3
	c0,10.7-0.6,13.4-3.7,15.6c-2.6,1.8-5.6,2.2-17.3,2.2c-9.8,0-12.9-0.6-15.3-3.2c-1.5-1.6-1.9-3.2-2.1-7.2H1885.1z M1912,852.9
	c1.8-0.9,2.6-2.6,2.6-5.9c0-3.8-1.1-5.5-3.8-6.3c-1.6-0.4-5.7-0.7-11.8-0.7c-12.7,0-14.2,0.8-14.2,7.7c0,2.9,0.4,4.3,1.6,5.1
	c1.6,1,3.8,1.2,13.6,1.2C1907.7,854.1,1910.3,853.8,1912,852.9z"/>
<path class="st0" d="M1731,872h-28.3c-5.5,0-7.7-0.5-9.4-2.3c-1.5-1.6-2.1-3.8-2.1-8.1c0-5.2,0.7-7.3,2.8-9c1.7-1.4,3.9-1.9,7.7-1.9
	h25v-13.8h4.2V872z M1704.8,854.2c-7.6,0-9.3,1.3-9.3,7.2c0,5.7,1.7,7.1,8.4,7.1h22.8v-14.3H1704.8z"/>
<path class="st0" d="M1542.8,872h-6.8l-21.2-30.2l-21.2,30.2h-6.6v-35.1h4.2v31.6l22.1-31.6h3.1l22.1,31.6v-31.6h4.2V872z"/>
<path class="st0" d="M1918.6,427.1h-28.3c-5.5,0-7.7-0.5-9.4-2.3c-1.5-1.6-2.1-3.8-2.1-8.1c0-5.2,0.7-7.3,2.8-9
	c1.7-1.4,3.9-1.9,7.7-1.9h25V392h4.2V427.1z M1892.5,409.3c-7.6,0-9.3,1.3-9.3,7.2c0,5.7,1.7,7.1,8.4,7.1h22.8v-14.3H1892.5z"/>
<path class="st0" d="M1862.3,399.9l4.6-7.9h4.7l-20.7,35.1h-5.9l-20.7-35.1h4.6l4.6,7.9H1862.3z M1847.9,424.2l12.4-20.9h-24.7
	L1847.9,424.2z"/>
<path class="st0" d="M1807.9,403V402c0-3.5-0.7-4.9-3-5.7c-2.1-0.7-5.9-1-12.3-1c-13.7,0-16.2,1.1-16.2,6.9c0,2.9,0.9,4.3,3.3,4.9
	c2.3,0.6,2.5,0.6,18.2,0.7c6.4,0.1,9.1,0.5,11.3,1.9c2.1,1.4,2.9,3.4,2.9,6.8c0,5.3-1.9,8.3-6.1,9.5c-3,0.9-7.6,1.3-14.8,1.3
	c-8.1,0-12.3-0.6-14.7-2.1c-2.6-1.6-3.4-3.4-3.5-8.3h4.1c0.1,2.8,0.5,4.1,1.7,4.9c1.6,1.3,5.3,1.8,12.4,1.8
	c13.8,0,16.5-1.1,16.5-6.7c0-2.4-0.7-3.8-2.2-4.5c-1.8-0.8-3.4-0.9-13.4-1c-11.2-0.1-13.6-0.3-16.1-1.5c-2.8-1.4-4-3.7-4-8.1
	c0-4.8,1.6-7.7,5.1-9c2.6-0.9,6.6-1.3,14.7-1.3c8.5,0,12.5,0.4,15.4,1.3c3.2,1.1,4.9,3.8,4.9,7.6v2.4H1807.9z"/>
<path class="st0" d="M1750.7,399.9l4.6-7.9h4.7l-20.7,35.1h-5.9l-20.7-35.1h4.6l4.6,7.9H1750.7z M1736.4,424.2l12.4-20.9H1724
	L1736.4,424.2z"/>
<path class="st0" d="M1698.4,427.1H1671c-7.7,0-11.6-1.4-13.7-5.1c-1.6-2.6-2.3-6.7-2.3-12.4c0-5.7,0.7-9.9,2.3-12.5
	c2.1-3.7,6-5.1,13.7-5.1h27.3V427.1z M1670.7,395.5c-4.9,0-8.2,1.2-9.6,3.4c-1.2,2-1.8,5.3-1.8,10.4c0,5.4,0.6,9.1,1.9,11
	c1.4,2.2,4.4,3.2,9.8,3.2h23.1v-28H1670.7z"/>
<path class="st0" d="M1638.3,427.1h-34.9v-3.5h30.7v-11.7h-29.6v-3.3h29.6v-13h-31V392h35.2V427.1z"/>
<path class="st0" d="M1586.9,427.1h-6.8L1547,395v32.1h-4.2V392h6.8l33.1,32.1V392h4.2V427.1z"/>
<path class="st0" d="M1519.1,399.9l4.6-7.9h4.7l-20.7,35.1h-5.9l-20.7-35.1h4.6l4.6,7.9H1519.1z M1504.7,424.2l12.4-20.9h-24.7
	L1504.7,424.2z"/>
<path class="st0" d="M1914.3,802.4c0-3.2-0.3-4.3-1.3-5.2c-1.5-1.3-3.6-1.6-11.5-1.6c-9.9,0-12.3,0.3-14.4,1.5
	c-1.8,1.1-2.4,2.8-2.4,7v7.7c0.8-2.2,1.5-3.3,3-4c1.7-0.9,4.4-1.1,13.4-1.1c7.5,0,10.8,0.2,12.9,0.9c1.5,0.4,2.9,1.5,3.7,2.7
	c0.8,1.1,1.2,3.2,1.2,6.1c0,4.7-0.7,7.2-2.6,8.8c-2.5,2.2-5.2,2.6-15.6,2.6c-9.3,0-11.7-0.2-13.9-0.8c-3.2-0.9-4.9-2.8-5.7-6
	c-0.5-2-0.7-5-0.7-11.3c0-10.7,0.6-13.4,3.7-15.6c2.6-1.8,5.6-2.2,17.3-2.2c9.8,0,12.9,0.6,15.3,3.2c1.5,1.6,1.9,3.2,2.1,7.2H1914.3
	z M1914.7,816.5c0-2.9-0.4-4.3-1.6-5.1c-1.6-1-3.8-1.2-13.6-1.2c-7.8,0-10.5,0.3-12.2,1.2c-1.8,0.9-2.6,2.6-2.6,5.9
	c0,3.8,1.1,5.5,3.8,6.3c1.6,0.4,5.8,0.7,11.8,0.7C1913.2,824.3,1914.7,823.4,1914.7,816.5z"/>
<path class="st0" d="M1730.8,827.5h-28.3c-5.5,0-7.7-0.5-9.4-2.3c-1.5-1.6-2.1-3.8-2.1-8.1c0-5.2,0.7-7.3,2.8-9
	c1.7-1.4,3.9-1.9,7.7-1.9h25v-13.8h4.2V827.5z M1704.6,809.7c-7.6,0-9.3,1.3-9.3,7.2c0,5.7,1.7,7.1,8.4,7.1h22.8v-14.3H1704.6z"/>
<path class="st0" d="M1542.8,827.5h-6.8l-21.2-30.2l-21.2,30.2h-6.6v-35.1h4.2V824l22.1-31.6h3.1l22.1,31.6v-31.6h4.2V827.5z"/>
<path class="st0" d="M1877.8,359.3v-1.5c0-4.2,0.4-6.1,1.8-7.6c1.3-1.6,3.1-2.3,6.3-2.7c2-0.2,8-0.4,12.7-0.4
	c12.7,0,15.8,0.5,18.4,3.2c2.3,2.3,2.8,5.1,2.8,14.7c0,10.9-0.7,13.7-4.3,16c-2.7,1.7-5.6,1.9-20,1.9c-8.8,0-11.8-0.4-14-2
	c-2.4-1.6-3.1-3.8-3.3-9.4h4.1v0.9c0,6.2,1.5,6.8,16.2,6.8c16.8,0,16.9-0.1,16.9-14.3c0-8-0.4-10.5-1.8-12
	c-1.7-1.7-4.4-2.2-14.2-2.2c-15.8,0-17.4,0.6-17.4,6.5v2H1877.8z"/>
<path class="st0" d="M1865.8,355.4l4.6-7.9h4.7l-20.7,35.1h-5.9l-20.7-35.1h4.6l4.6,7.9H1865.8z M1851.4,379.7l12.4-20.9H1839
	L1851.4,379.7z"/>
<path class="st0" d="M1684.4,357.5c0-3.2-0.3-4.3-1.3-5.2c-1.5-1.3-3.6-1.6-11.5-1.6c-9.9,0-12.3,0.3-14.4,1.5
	c-1.8,1.1-2.4,2.8-2.4,7v7.7c0.8-2.2,1.5-3.3,3-4c1.7-0.9,4.4-1.1,13.4-1.1c7.5,0,10.8,0.2,12.9,0.9c1.5,0.4,2.9,1.5,3.7,2.7
	c0.8,1.1,1.2,3.2,1.2,6.1c0,4.7-0.7,7.2-2.6,8.8c-2.5,2.2-5.2,2.6-15.6,2.6c-9.3,0-11.7-0.2-13.9-0.8c-3.2-0.9-4.9-2.8-5.7-6
	c-0.5-2-0.7-5-0.7-11.3c0-10.7,0.6-13.4,3.7-15.6c2.6-1.8,5.6-2.2,17.3-2.2c9.8,0,12.9,0.6,15.3,3.2c1.5,1.6,1.9,3.2,2.1,7.2H1684.4
	z M1684.8,371.7c0-2.9-0.4-4.3-1.6-5.1c-1.6-1-3.8-1.2-13.6-1.2c-7.8,0-10.5,0.3-12.2,1.2c-1.8,0.9-2.6,2.6-2.6,5.9
	c0,3.8,1.1,5.5,3.8,6.3c1.6,0.4,5.8,0.7,11.8,0.7C1683.2,379.4,1684.8,378.6,1684.8,371.7z"/>
<path class="st0" d="M1641,371.2l-14.5,11.4h-5.6v-35.1h4.1v32.1l13.6-11.2L1641,371.2z"/>
<path class="st0" d="M1605.6,371.2l-14.5,11.4h-5.6v-35.1h4.1v32.1l13.6-11.2L1605.6,371.2z"/>
<path class="st0" d="M1534.4,379.8c-2.1-2.4-2.5-5.1-2.5-15c0-9.2,0.5-12,2.5-14.4c2.4-2.7,4.8-3.2,17.8-3.2
	c12.9,0,15.4,0.5,17.8,3.2c2.1,2.4,2.5,5.1,2.5,14.7c0,9.6-0.5,12.3-2.5,14.7c-2.4,2.7-4.9,3.2-17.8,3.2
	C1539.2,383,1536.8,382.5,1534.4,379.8z M1566.7,377.2c1.3-1.6,1.7-4.1,1.7-12.1c0-8.1-0.4-10.5-1.7-12.2c-1.5-1.8-4.1-2.2-13.3-2.2
	c-12.4,0-14.1,0.3-15.7,2.2c-1.4,1.6-1.7,3.9-1.7,12c0,8.4,0.3,10.6,1.7,12.3c1.6,1.9,3.4,2.2,15.7,2.2
	C1562.6,379.4,1565.2,379,1566.7,377.2z"/>
<path class="st0" d="M1521.3,358.2c0-4-0.4-5.2-2.1-6.1c-1.6-1-5.2-1.4-12.5-1.4c-9,0-11.6,0.2-13.7,1.2c-2.2,0.9-2.7,2.6-2.7,7.8
	c0,4.5,0.8,6.3,3.3,7.2c1.8,0.7,5.3,0.9,13.5,0.9c10.5,0,12.9-0.6,13.5-3.4h4.2l-0.4,18.2h-37.3v-3.6h33.4l0.2-12
	c-0.8,1.9-1.6,2.8-3.3,3.5c-1.7,0.7-4,0.9-10.7,0.9c-11.2,0-14.2-0.3-17-1.9c-1.4-0.8-2.5-2.2-3.1-3.7c-0.4-1.2-0.6-2.8-0.6-5.7
	c0-6.6,0.8-9.3,3.2-10.8c2.5-1.7,5.6-2.1,15.2-2.1c9.4,0,14.2,0.3,15.9,0.9c2.5,0.8,4.1,2.6,4.7,5.1c0.3,1.1,0.3,2.3,0.3,5.1H1521.3
	z"/>
<path class="st0" d="M1028,350.4c2.1,2.4,2.5,5.1,2.5,15c0,9.2-0.5,12-2.5,14.4c-2.4,2.7-4.8,3.2-17.8,3.2
	c-12.9,0-15.4-0.5-17.8-3.2c-2.1-2.4-2.5-5.1-2.5-14.7c0-9.6,0.5-12.3,2.5-14.7c2.4-2.7,4.9-3.2,17.8-3.2
	C1023.2,347.2,1025.7,347.6,1028,350.4z M995.7,353c-1.3,1.6-1.7,4.1-1.7,12.1c0,8.1,0.4,10.5,1.7,12.2c1.5,1.8,4.1,2.2,13.3,2.2
	c12.4,0,14.1-0.3,15.7-2.2c1.4-1.6,1.7-3.9,1.7-12c0-8.4-0.3-10.6-1.7-12.3c-1.6-1.9-3.4-2.2-15.7-2.2
	C999.8,350.7,997.2,351.2,995.7,353z"/>
<path class="st0" d="M1037.4,360.5c0-3.7,0.1-5.1,0.4-6.4c0.7-3.3,2.5-5.2,5.7-6.1c2.4-0.6,6.5-0.9,13-0.9c10.3,0,13.9,0.5,16.3,2.3
	c2.2,1.7,3.2,4.2,3.2,8.6c0,4.8-1.1,7.5-3.5,9c-1.7,1.1-3.6,1.5-8.8,1.8l-12.9,0.9c-8.3,0.5-9.4,1.6-9.5,9.1h34.8v3.6h-39v-2.2
	c-0.3-11,2.1-13.8,12.2-14.2l13-1c8.2-0.6,9.6-1.6,9.6-6.8c0-3.4-0.4-4.9-1.7-5.8c-1.8-1.5-4.6-1.8-13.4-1.8c-13.5,0-15,0.9-15,8.6
	v1.2H1037.4z"/>
<path class="st0" d="M1351.1,359l14.5-11.4h5.6v35.1h-4.1v-32.1l-13.6,11.2L1351.1,359z"/>
<path class="st0" d="M1412.2,363c4.8,0,6.3-1.4,6.3-6.2c0-3.2-0.6-4.6-2.4-5.3c-1.5-0.6-3.4-0.7-10.3-0.7c-11.6,0-13.9,0.2-15.8,1.5
	c-1.3,0.8-1.8,2.4-1.8,6.1h-4.1c0-3.4,0.1-4.6,0.6-5.9c0.9-2.5,2.7-3.8,6.1-4.5c2.5-0.5,6.1-0.7,13.9-0.7c10.2,0,12.9,0.4,15.4,2.1
	c1.9,1.3,2.6,3.4,2.6,7.8c0,4.9-1.2,6.8-4.8,7.4c4,0.6,5.3,2.5,5.3,7.9c0,5.5-0.9,7.7-3.9,9.3c-2.1,1.1-4.4,1.3-13.6,1.3
	c-14.6,0-17.2-0.3-19.5-2.5c-1.7-1.6-2.3-3.6-2.3-8.5h4.2c0,4.1,0.3,5.2,1.8,6.2c1.3,0.9,5,1.3,13.1,1.3c9.4,0,12.3-0.2,13.7-0.9
	c1.7-0.8,2.3-2.2,2.3-5.6c0-3.6-0.4-4.8-1.9-5.7c-0.9-0.5-1.8-0.6-4.6-0.6h-13.8V363H1412.2z"/>
<path class="st0" d="M1018.5,807.8c4.8,0,6.3-1.4,6.3-6.2c0-3.2-0.6-4.6-2.4-5.3c-1.5-0.6-3.4-0.7-10.3-0.7
	c-11.6,0-13.9,0.2-15.8,1.5c-1.3,0.8-1.8,2.4-1.8,6.1h-4.1c0-3.4,0.1-4.6,0.6-5.9c0.9-2.5,2.7-3.8,6.1-4.5c2.5-0.5,6.1-0.7,13.9-0.7
	c10.2,0,12.9,0.4,15.4,2.1c1.9,1.3,2.6,3.4,2.6,7.8c0,4.9-1.2,6.8-4.8,7.4c4,0.6,5.3,2.5,5.3,7.9c0,5.5-0.9,7.7-3.9,9.3
	c-2.1,1.1-4.4,1.3-13.6,1.3c-14.6,0-17.2-0.3-19.5-2.5c-1.7-1.6-2.3-3.6-2.3-8.5h4.2c0,4.1,0.3,5.2,1.8,6.2c1.3,0.9,5,1.3,13.1,1.3
	c9.4,0,12.3-0.2,13.7-0.9c1.7-0.8,2.3-2.2,2.3-5.6c0-3.6-0.4-4.8-1.9-5.7c-0.9-0.5-1.8-0.6-4.6-0.6H1005v-3.6H1018.5z"/>
<path class="st0" d="M1074.2,795.2c2.1,2.4,2.5,5.1,2.5,15c0,9.2-0.5,12-2.5,14.4c-2.4,2.7-4.8,3.2-17.8,3.2
	c-12.9,0-15.4-0.5-17.8-3.2c-2.1-2.4-2.5-5.1-2.5-14.7c0-9.6,0.5-12.3,2.5-14.7c2.4-2.7,4.9-3.2,17.8-3.2
	C1069.4,792,1071.9,792.5,1074.2,795.2z M1041.9,797.8c-1.3,1.6-1.7,4.1-1.7,12.1c0,8.1,0.4,10.5,1.7,12.2c1.5,1.8,4.1,2.2,13.3,2.2
	c12.4,0,14.1-0.3,15.7-2.2c1.4-1.6,1.7-3.9,1.7-12c0-8.4-0.3-10.6-1.7-12.3c-1.6-1.9-3.4-2.2-15.7-2.2
	C1046,795.6,1043.4,796,1041.9,797.8z"/>
<path class="st0" d="M1389.6,792.4h34.9v3.5h-30.7v11.7h29.6v3.3h-29.6v13h31v3.5h-35.2V792.4z"/>
<path class="st0" d="M991.5,405c0-3.7,0.1-5.1,0.4-6.4c0.7-3.3,2.5-5.2,5.7-6.1c2.4-0.6,6.5-0.9,13-0.9c10.3,0,13.9,0.5,16.3,2.3
	c2.2,1.7,3.2,4.2,3.2,8.6c0,4.8-1.1,7.5-3.5,9c-1.7,1.1-3.6,1.5-8.8,1.8l-12.9,0.9c-8.3,0.5-9.4,1.6-9.5,9.1h34.8v3.6h-39V425
	c-0.3-11,2.1-13.8,12.2-14.2l13-1c8.2-0.6,9.6-1.6,9.6-6.8c0-3.4-0.4-4.9-1.7-5.8c-1.8-1.5-4.6-1.8-13.4-1.8c-13.5,0-15,0.9-15,8.6
	v1.2H991.5z"/>
<path class="st0" d="M1159.4,394.9c2.1,2.4,2.5,5.1,2.5,15c0,9.2-0.5,12-2.5,14.4c-2.4,2.7-4.8,3.2-17.8,3.2
	c-12.9,0-15.4-0.5-17.8-3.2c-2.1-2.4-2.5-5.1-2.5-14.7c0-9.6,0.5-12.3,2.5-14.7c2.4-2.7,4.9-3.2,17.8-3.2
	C1154.6,391.7,1157,392.1,1159.4,394.9z M1127.1,397.4c-1.3,1.6-1.7,4.1-1.7,12.1c0,8.1,0.4,10.5,1.7,12.2c1.5,1.8,4.1,2.2,13.3,2.2
	c12.4,0,14.1-0.3,15.7-2.2c1.4-1.6,1.7-3.9,1.7-12c0-8.4-0.3-10.6-1.7-12.3c-1.6-1.9-3.4-2.2-15.7-2.2
	C1131.2,395.2,1128.6,395.7,1127.1,397.4z"/>
<path class="st0" d="M1254.2,405c0-3.7,0.1-5.1,0.4-6.4c0.7-3.3,2.5-5.2,5.7-6.1c2.4-0.6,6.5-0.9,13-0.9c10.3,0,13.9,0.5,16.3,2.3
	c2.2,1.7,3.2,4.2,3.2,8.6c0,4.8-1.1,7.5-3.5,9c-1.7,1.1-3.6,1.5-8.8,1.8l-12.9,0.9c-8.3,0.5-9.4,1.6-9.5,9.1h34.8v3.6h-39V425
	c-0.3-11,2.1-13.8,12.2-14.2l13-1c8.2-0.6,9.6-1.6,9.6-6.8c0-3.4-0.4-4.9-1.7-5.8c-1.8-1.5-4.6-1.8-13.4-1.8c-13.5,0-15,0.9-15,8.6
	v1.2H1254.2z"/>
<path class="st0" d="M1422.2,394.9c2.1,2.4,2.5,5.1,2.5,15c0,9.2-0.5,12-2.5,14.4c-2.4,2.7-4.8,3.2-17.8,3.2
	c-12.9,0-15.4-0.5-17.8-3.2c-2.1-2.4-2.5-5.1-2.5-14.7c0-9.6,0.5-12.3,2.5-14.7c2.4-2.7,4.9-3.2,17.8-3.2
	C1417.3,391.7,1419.8,392.1,1422.2,394.9z M1389.9,397.4c-1.3,1.6-1.7,4.1-1.7,12.1c0,8.1,0.4,10.5,1.7,12.2
	c1.5,1.8,4.1,2.2,13.3,2.2c12.4,0,14.1-0.3,15.7-2.2c1.4-1.6,1.7-3.9,1.7-12c0-8.4-0.3-10.6-1.7-12.3c-1.6-1.9-3.4-2.2-15.7-2.2
	C1394,395.2,1391.3,395.7,1389.9,397.4z"/>
<path class="st0" d="M991.2,836.9h27.3c7.7,0,11.6,1.4,13.7,5.1c1.6,2.6,2.3,6.7,2.3,12.4c0,5.7-0.7,9.9-2.3,12.5
	c-2.1,3.7-6,5.1-13.7,5.1h-27.3V836.9z M1018.9,868.4c4.9,0,8.2-1.2,9.6-3.4c1.2-2,1.8-5.3,1.8-10.4c0-5.4-0.6-9.1-1.9-11
	c-1.4-2.2-4.4-3.2-9.8-3.2h-23.1v28H1018.9z"/>
<path class="st0" d="M1041.7,836.9h34.9v3.5h-30.7v11.7h29.6v3.3h-29.6v13h31v3.5h-35.2V836.9z"/>
<path class="st0" d="M1083.4,836.9h4.2v31.6h27.8v3.5h-32V836.9z"/>
<path class="st0" d="M1270.3,836.9h6.8l21.2,30.2l21.2-30.2h6.6V872h-4.2v-31.6l-22.1,31.6h-3.1l-22.1-31.6V872h-4.2V836.9z"/>
<path class="st0" d="M1340.1,864.1l-4.6,7.9h-4.7l20.7-35.1h5.9l20.7,35.1h-4.6l-4.6-7.9H1340.1z M1354.5,839.8l-12.4,20.9h24.7
	L1354.5,839.8z"/>
<path class="st0" d="M1382.9,836.9h28.9c5.3,0,7.8,0.7,9.6,2.7c1.4,1.6,2.2,4.3,2.2,8.1c0,5.7-1.3,7.7-5.6,8.7
	c3.6,0.7,4.9,2.5,4.9,6.6v9.1h-4.2v-6.7c0.1-6.1-1.4-7.5-7.5-7.5h-24.1V872h-4.2V836.9z M1410.2,854.5c7.2,0,9-1.4,9-7.1
	c0-5.6-1.9-7-9.3-7h-22.8v14.1H1410.2z"/>
<path class="st0" d="M1024.8,446.5c0-3.2-0.3-4.3-1.3-5.2c-1.5-1.3-3.6-1.6-11.5-1.6c-9.9,0-12.3,0.3-14.4,1.5
	c-1.8,1.1-2.4,2.8-2.4,7v7.7c0.8-2.2,1.5-3.3,3-4c1.7-0.9,4.4-1.1,13.4-1.1c7.5,0,10.8,0.2,12.9,0.9c1.5,0.4,2.9,1.5,3.7,2.7
	c0.8,1.1,1.2,3.2,1.2,6.1c0,4.7-0.7,7.2-2.6,8.8c-2.5,2.2-5.2,2.6-15.6,2.6c-9.3,0-11.7-0.2-13.9-0.8c-3.2-0.9-4.9-2.8-5.7-6
	c-0.5-2-0.7-5-0.7-11.3c0-10.7,0.6-13.4,3.7-15.6c2.6-1.8,5.6-2.2,17.3-2.2c9.8,0,12.9,0.6,15.3,3.2c1.5,1.6,1.9,3.2,2.1,7.2H1024.8
	z M997.9,455.6c-1.8,0.9-2.6,2.6-2.6,5.9c0,3.8,1.1,5.5,3.8,6.3c1.6,0.4,5.7,0.7,11.8,0.7c12.7,0,14.2-0.8,14.2-7.7
	c0-2.9-0.4-4.3-1.6-5.1c-1.6-1-3.8-1.2-13.6-1.2C1002.2,454.4,999.6,454.7,997.9,455.6z"/>
<path class="st0" d="M1178.9,436.5h28.3c5.5,0,7.7,0.5,9.4,2.3c1.5,1.6,2.1,3.8,2.1,8.1c0,5.2-0.7,7.3-2.8,9
	c-1.7,1.4-3.9,1.9-7.7,1.9h-25v13.8h-4.2V436.5z M1205.1,454.3c7.6,0,9.3-1.3,9.3-7.2c0-5.7-1.7-7.1-8.4-7.1h-22.8v14.3H1205.1z"/>
<path class="st0" d="M1367.1,436.5h6.8l21.2,30.2l21.2-30.2h6.6v35.1h-4.2V440l-22.1,31.6h-3.1l-22.1-31.6v31.6h-4.2V436.5z"/>
<path class="st0" d="M991.2,881.4h28.3c5.5,0,7.7,0.5,9.4,2.3c1.5,1.6,2.1,3.8,2.1,8.1c0,5.2-0.7,7.3-2.8,9
	c-1.7,1.4-3.9,1.9-7.7,1.9h-25v13.8h-4.2V881.4z M1017.4,899.1c7.6,0,9.3-1.3,9.3-7.2c0-5.7-1.7-7.1-8.4-7.1h-22.8v14.3H1017.4z"/>
<path class="st0" d="M1047.6,908.6l-4.6,7.9h-4.7l20.7-35.1h5.9l20.7,35.1h-4.6l-4.6-7.9H1047.6z M1062,884.3l-12.4,20.9h24.7
	L1062,884.3z"/>
<path class="st0" d="M1102,905.5v0.9c0,3.5,0.7,4.9,3,5.7c2.1,0.7,5.9,1,12.3,1c13.7,0,16.2-1.1,16.2-6.9c0-2.9-0.9-4.3-3.3-4.9
	c-2.3-0.6-2.5-0.6-18.2-0.7c-6.4-0.1-9.1-0.5-11.3-1.9c-2.1-1.4-2.9-3.4-2.9-6.8c0-5.3,1.9-8.3,6.1-9.5c3-0.9,7.6-1.3,14.8-1.3
	c8.1,0,12.3,0.6,14.7,2.1c2.6,1.6,3.4,3.4,3.5,8.3h-4.1c-0.1-2.8-0.5-4.1-1.7-4.9c-1.6-1.3-5.3-1.8-12.4-1.8
	c-13.8,0-16.5,1.1-16.5,6.7c0,2.4,0.7,3.8,2.2,4.5c1.8,0.8,3.4,0.9,13.4,1c11.2,0.1,13.6,0.3,16.1,1.5c2.8,1.4,4,3.7,4,8.1
	c0,4.8-1.6,7.7-5.1,9c-2.6,0.9-6.6,1.3-14.7,1.3c-8.5,0-12.5-0.4-15.4-1.3c-3.2-1.1-4.9-3.8-4.9-7.6v-2.4H1102z"/>
<path class="st0" d="M1159.2,908.6l-4.6,7.9h-4.7l20.7-35.1h5.9l20.7,35.1h-4.6l-4.6-7.9H1159.2z M1173.5,884.3l-12.4,20.9h24.7
	L1173.5,884.3z"/>
<path class="st0" d="M1211.5,881.4h27.3c7.7,0,11.6,1.4,13.7,5.1c1.6,2.6,2.3,6.7,2.3,12.4c0,5.7-0.7,9.9-2.3,12.5
	c-2.1,3.7-6,5.1-13.7,5.1h-27.3V881.4z M1239.1,912.9c4.9,0,8.2-1.2,9.6-3.4c1.2-2,1.8-5.3,1.8-10.4c0-5.4-0.6-9.1-1.9-11
	c-1.4-2.2-4.4-3.2-9.8-3.2h-23.1v28H1239.1z"/>
<path class="st0" d="M1271.6,881.4h34.9v3.5h-30.7v11.7h29.6v3.3h-29.6v13h31v3.5h-35.2V881.4z"/>
<path class="st0" d="M1322.9,881.4h6.8l33.1,32.1v-32.1h4.2v35.1h-6.8l-33.1-32.1v32.1h-4.2V881.4z"/>
<path class="st0" d="M1390.8,908.6l-4.6,7.9h-4.7l20.7-35.1h5.9l20.7,35.1h-4.6l-4.6-7.9H1390.8z M1405.2,884.3l-12.4,20.9h24.7
	L1405.2,884.3z"/>
<path class="st0" d="M995.6,506.1c0,3.2,0.3,4.3,1.3,5.2c1.5,1.3,3.6,1.6,11.5,1.6c9.9,0,12.3-0.3,14.4-1.5c1.8-1.1,2.4-2.8,2.4-7
	v-7.7c-0.8,2.2-1.5,3.3-3,4c-1.7,0.9-4.4,1.1-13.4,1.1c-7.5,0-10.8-0.2-12.9-0.9c-1.5-0.4-2.9-1.5-3.7-2.7c-0.8-1.1-1.2-3.2-1.2-6.1
	c0-4.7,0.7-7.2,2.6-8.8c2.5-2.2,5.2-2.6,15.6-2.6c9.3,0,11.7,0.2,13.9,0.8c3.2,0.9,4.9,2.8,5.7,6c0.5,2,0.7,5,0.7,11.3
	c0,10.7-0.6,13.4-3.7,15.6c-2.6,1.8-5.6,2.2-17.3,2.2c-9.8,0-12.9-0.6-15.3-3.2c-1.5-1.6-1.9-3.2-2.1-7.2H995.6z M995.2,491.9
	c0,2.9,0.4,4.3,1.6,5.1c1.6,1,3.8,1.2,13.6,1.2c7.8,0,10.5-0.3,12.2-1.2c1.8-0.9,2.6-2.6,2.6-5.9c0-3.8-1.1-5.5-3.8-6.3
	c-1.6-0.4-5.8-0.7-11.8-0.7C996.7,484.2,995.2,485,995.2,491.9z"/>
<path class="st0" d="M1179.1,481h28.3c5.5,0,7.7,0.5,9.4,2.3c1.5,1.6,2.1,3.8,2.1,8.1c0,5.2-0.7,7.3-2.8,9c-1.7,1.4-3.9,1.9-7.7,1.9
	h-25v13.8h-4.2V481z M1205.2,498.8c7.6,0,9.3-1.3,9.3-7.2c0-5.7-1.7-7.1-8.4-7.1h-22.8v14.3H1205.2z"/>
<path class="st0" d="M1367.1,481h6.8l21.2,30.2l21.2-30.2h6.6v35.1h-4.2v-31.6l-22.1,31.6h-3.1l-22.1-31.6v31.6h-4.2V481z"/>
<path class="st0" d="M1032.1,949.1v1.5c0,4.2-0.4,6.1-1.8,7.6c-1.3,1.6-3.1,2.3-6.3,2.7c-2,0.2-8,0.4-12.7,0.4
	c-12.7,0-15.8-0.5-18.4-3.2c-2.3-2.3-2.8-5.1-2.8-14.7c0-10.9,0.7-13.7,4.3-16c2.7-1.7,5.6-1.9,20-1.9c8.8,0,11.8,0.4,14,2
	c2.4,1.6,3.1,3.8,3.3,9.4h-4.1V936c0-6.2-1.5-6.8-16.2-6.8c-16.8,0-16.9,0.1-16.9,14.3c0,8,0.4,10.5,1.8,12
	c1.7,1.7,4.4,2.2,14.2,2.2c15.8,0,17.4-0.6,17.4-6.5v-2H1032.1z"/>
<path class="st0" d="M1044.1,953l-4.6,7.9h-4.7l20.7-35.1h5.9l20.7,35.1h-4.6l-4.6-7.9H1044.1z M1058.5,928.8l-12.4,20.9h24.7
	L1058.5,928.8z"/>
<path class="st0" d="M1225.5,950.9c0,3.2,0.3,4.3,1.3,5.2c1.5,1.3,3.6,1.6,11.5,1.6c9.9,0,12.3-0.3,14.4-1.5c1.8-1.1,2.4-2.8,2.4-7
	v-7.7c-0.8,2.2-1.5,3.3-3,4c-1.7,0.9-4.4,1.1-13.4,1.1c-7.5,0-10.8-0.2-12.9-0.9c-1.5-0.4-2.9-1.5-3.7-2.7c-0.8-1.1-1.2-3.2-1.2-6.1
	c0-4.7,0.7-7.2,2.6-8.8c2.5-2.2,5.2-2.6,15.6-2.6c9.3,0,11.7,0.2,13.9,0.8c3.2,0.9,4.9,2.8,5.7,6c0.5,2,0.7,5,0.7,11.3
	c0,10.7-0.6,13.4-3.7,15.6c-2.6,1.8-5.6,2.2-17.3,2.2c-9.8,0-12.9-0.6-15.3-3.2c-1.5-1.6-1.9-3.2-2.1-7.2H1225.5z M1225.1,936.8
	c0,2.9,0.4,4.3,1.6,5.1c1.6,1,3.8,1.2,13.6,1.2c7.8,0,10.5-0.3,12.2-1.2c1.8-0.9,2.6-2.6,2.6-5.9c0-3.8-1.1-5.5-3.8-6.3
	c-1.6-0.4-5.8-0.7-11.8-0.7C1226.6,929.1,1225.1,929.9,1225.1,936.8z"/>
<path class="st0" d="M1268.8,937.3l14.5-11.4h5.6v35.1h-4.1v-32.1l-13.6,11.2L1268.8,937.3z"/>
<path class="st0" d="M1304.3,937.3l14.5-11.4h5.6v35.1h-4.1v-32.1l-13.6,11.2L1304.3,937.3z"/>
<path class="st0" d="M1375.5,928.7c2.1,2.4,2.5,5.1,2.5,15c0,9.2-0.5,12-2.5,14.4c-2.4,2.7-4.8,3.2-17.8,3.2
	c-12.9,0-15.4-0.5-17.8-3.2c-2.1-2.4-2.5-5.1-2.5-14.7c0-9.6,0.5-12.3,2.5-14.7c2.4-2.7,4.9-3.2,17.8-3.2
	C1370.6,925.5,1373.1,925.9,1375.5,928.7z M1343.2,931.3c-1.3,1.6-1.7,4.1-1.7,12.1c0,8.1,0.4,10.5,1.7,12.2
	c1.5,1.8,4.1,2.2,13.3,2.2c12.4,0,14.1-0.3,15.7-2.2c1.4-1.6,1.7-3.9,1.7-12c0-8.4-0.3-10.6-1.7-12.3c-1.6-1.9-3.4-2.2-15.7-2.2
	C1347.3,929.1,1344.7,929.5,1343.2,931.3z"/>
<path class="st0" d="M1388.6,950.3c0,4,0.4,5.2,2.1,6.1c1.6,1,5.2,1.4,12.5,1.4c9,0,11.6-0.2,13.7-1.2c2.2-0.9,2.7-2.6,2.7-7.8
	c0-4.5-0.8-6.3-3.3-7.2c-1.8-0.7-5.3-0.9-13.5-0.9c-10.5,0-12.9,0.6-13.5,3.4h-4.2l0.4-18.2h37.3v3.6h-33.4l-0.2,12
	c0.8-1.9,1.6-2.8,3.3-3.5c1.7-0.7,4-0.9,10.7-0.9c11.2,0,14.2,0.3,17,1.9c1.4,0.8,2.5,2.2,3.1,3.7c0.4,1.2,0.6,2.8,0.6,5.7
	c0,6.6-0.8,9.3-3.2,10.8c-2.5,1.7-5.6,2.1-15.2,2.1c-9.4,0-14.2-0.3-15.9-0.9c-2.5-0.8-4.1-2.6-4.7-5.1c-0.3-1.1-0.3-2.3-0.3-5.1
	H1388.6z"/>
<path class="st0" d="M894.9,958.1c-2.1-2.4-2.5-5.1-2.5-15c0-9.2,0.5-12,2.5-14.4c2.4-2.7,4.8-3.2,17.8-3.2
	c12.9,0,15.4,0.5,17.8,3.2c2.1,2.4,2.5,5.1,2.5,14.7c0,9.6-0.5,12.3-2.5,14.7c-2.4,2.7-4.9,3.2-17.8,3.2
	C899.7,961.3,897.2,960.8,894.9,958.1z M927.2,955.5c1.3-1.6,1.7-4.1,1.7-12.1c0-8.1-0.4-10.5-1.7-12.2c-1.5-1.8-4.1-2.2-13.3-2.2
	c-12.4,0-14.1,0.3-15.7,2.2c-1.4,1.6-1.7,3.9-1.7,12c0,8.4,0.3,10.6,1.7,12.3c1.6,1.9,3.4,2.2,15.7,2.2
	C923.1,957.7,925.7,957.3,927.2,955.5z"/>
<path class="st0" d="M885.4,947.9c0,3.7-0.1,5.1-0.4,6.4c-0.7,3.3-2.5,5.2-5.7,6.1c-2.4,0.6-6.5,0.9-13,0.9
	c-10.3,0-13.9-0.5-16.3-2.3c-2.2-1.7-3.2-4.2-3.2-8.6c0-4.8,1.1-7.5,3.5-9c1.7-1.1,3.6-1.5,8.8-1.8l12.9-0.9
	c8.3-0.5,9.4-1.6,9.5-9.1h-34.8v-3.6h39v2.2c0.3,11-2.1,13.8-12.2,14.2l-13,1c-8.2,0.6-9.6,1.6-9.6,6.8c0,3.4,0.4,4.9,1.7,5.8
	c1.8,1.5,4.6,1.8,13.4,1.8c13.5,0,15-0.9,15-8.6v-1.2H885.4z"/>
<path class="st0" d="M571.8,949.5l-14.5,11.4h-5.6v-35.1h4.1v32.1l13.6-11.2L571.8,949.5z"/>
<path class="st0" d="M510.7,945.5c-4.8,0-6.3,1.4-6.3,6.2c0,3.2,0.6,4.6,2.4,5.3c1.5,0.6,3.4,0.7,10.3,0.7c11.6,0,13.9-0.2,15.8-1.5
	c1.3-0.8,1.8-2.4,1.8-6.1h4.1c0,3.4-0.1,4.6-0.6,5.9c-0.9,2.5-2.7,3.8-6.1,4.5c-2.5,0.5-6.1,0.7-13.9,0.7c-10.2,0-12.9-0.4-15.4-2.1
	c-1.9-1.3-2.6-3.4-2.6-7.8c0-4.9,1.2-6.8,4.8-7.4c-4-0.6-5.3-2.5-5.3-7.9c0-5.5,0.9-7.7,3.9-9.3c2.1-1.1,4.4-1.3,13.6-1.3
	c14.6,0,17.2,0.3,19.5,2.5c1.7,1.6,2.3,3.6,2.3,8.5h-4.2c0-4.1-0.3-5.2-1.8-6.2c-1.3-0.9-5-1.3-13.1-1.3c-9.4,0-12.3,0.2-13.7,0.9
	c-1.7,0.8-2.3,2.2-2.3,5.6c0,3.6,0.4,4.8,1.9,5.7c0.9,0.5,1.8,0.6,4.6,0.6h13.8v3.6H510.7z"/>
<path class="st0" d="M904.4,500.7c-4.8,0-6.3,1.4-6.3,6.2c0,3.2,0.6,4.6,2.4,5.3c1.5,0.6,3.4,0.7,10.3,0.7c11.6,0,13.9-0.2,15.8-1.5
	c1.3-0.8,1.8-2.4,1.8-6.1h4.1c0,3.4-0.1,4.6-0.6,5.9c-0.9,2.5-2.7,3.8-6.1,4.5c-2.5,0.5-6.1,0.7-13.9,0.7c-10.2,0-12.9-0.4-15.4-2.1
	c-1.9-1.3-2.6-3.4-2.6-7.8c0-4.9,1.2-6.8,4.8-7.4c-4-0.6-5.3-2.5-5.3-7.9c0-5.5,0.9-7.7,3.9-9.3c2.1-1.1,4.4-1.3,13.6-1.3
	c14.6,0,17.2,0.3,19.5,2.5c1.7,1.6,2.3,3.6,2.3,8.5h-4.2c0-4.1-0.3-5.2-1.8-6.2c-1.3-0.9-5-1.3-13.1-1.3c-9.4,0-12.3,0.2-13.7,0.9
	c-1.7,0.8-2.3,2.2-2.3,5.6c0,3.6,0.4,4.8,1.9,5.7c0.9,0.5,1.8,0.6,4.6,0.6h13.8v3.6H904.4z"/>
<path class="st0" d="M848.7,513.2c-2.1-2.4-2.5-5.1-2.5-15c0-9.2,0.5-12,2.5-14.4c2.4-2.7,4.8-3.2,17.8-3.2
	c12.9,0,15.4,0.5,17.8,3.2c2.1,2.4,2.5,5.1,2.5,14.7c0,9.6-0.5,12.3-2.5,14.7c-2.4,2.7-4.9,3.2-17.8,3.2
	C853.5,516.5,851,516,848.7,513.2z M881,510.7c1.3-1.6,1.7-4.1,1.7-12.1c0-8.1-0.4-10.5-1.7-12.2c-1.5-1.8-4.1-2.2-13.3-2.2
	c-12.4,0-14.1,0.3-15.7,2.2c-1.4,1.6-1.7,3.9-1.7,12c0,8.4,0.3,10.6,1.7,12.3c1.6,1.9,3.4,2.2,15.7,2.2
	C876.9,512.9,879.5,512.5,881,510.7z"/>
<path class="st0" d="M533.3,516.1h-34.9v-3.5h30.7v-11.7h-29.6v-3.3h29.6v-13h-31V481h35.2V516.1z"/>
<path class="st0" d="M931.4,903.5c0,3.7-0.1,5.1-0.4,6.4c-0.7,3.3-2.5,5.2-5.7,6.1c-2.4,0.6-6.5,0.9-13,0.9
	c-10.3,0-13.9-0.5-16.3-2.3c-2.2-1.7-3.2-4.2-3.2-8.6c0-4.8,1.1-7.5,3.5-9c1.7-1.1,3.6-1.5,8.8-1.8l12.9-0.9
	c8.3-0.5,9.4-1.6,9.5-9.1h-34.8v-3.6h39v2.2c0.3,11-2.1,13.8-12.2,14.2l-13,1c-8.2,0.6-9.6,1.6-9.6,6.8c0,3.4,0.4,4.9,1.7,5.8
	c1.8,1.5,4.6,1.8,13.4,1.8c13.5,0,15-0.9,15-8.6v-1.2H931.4z"/>
<path class="st0" d="M763.5,913.6c-2.1-2.4-2.5-5.1-2.5-15c0-9.2,0.5-12,2.5-14.4c2.4-2.7,4.8-3.2,17.8-3.2
	c12.9,0,15.4,0.5,17.8,3.2c2.1,2.4,2.5,5.1,2.5,14.7c0,9.6-0.5,12.3-2.5,14.7c-2.4,2.7-4.9,3.2-17.8,3.2
	C768.3,916.8,765.9,916.3,763.5,913.6z M795.8,911c1.3-1.6,1.7-4.1,1.7-12.1c0-8-0.4-10.5-1.7-12.2c-1.5-1.8-4.1-2.2-13.3-2.2
	c-12.4,0-14.1,0.3-15.7,2.2c-1.4,1.6-1.7,3.9-1.7,12c0,8.4,0.3,10.6,1.7,12.3c1.6,1.9,3.4,2.2,15.7,2.2
	C791.7,913.2,794.3,912.8,795.8,911z"/>
<path class="st0" d="M668.7,903.5c0,3.7-0.1,5.1-0.4,6.4c-0.7,3.3-2.5,5.2-5.7,6.1c-2.4,0.6-6.5,0.9-13,0.9
	c-10.3,0-13.9-0.5-16.3-2.3c-2.2-1.7-3.2-4.2-3.2-8.6c0-4.8,1.1-7.5,3.5-9c1.7-1.1,3.6-1.5,8.8-1.8l12.9-0.9
	c8.3-0.5,9.4-1.6,9.5-9.1h-34.8v-3.6h39v2.2c0.3,11-2.1,13.8-12.2,14.2l-13,1c-8.2,0.6-9.6,1.6-9.6,6.8c0,3.4,0.4,4.9,1.7,5.8
	c1.8,1.5,4.6,1.8,13.4,1.8c13.5,0,15-0.9,15-8.6v-1.2H668.7z"/>
<path class="st0" d="M500.7,913.6c-2.1-2.4-2.5-5.1-2.5-15c0-9.2,0.5-12,2.5-14.4c2.4-2.7,4.8-3.2,17.8-3.2
	c12.9,0,15.4,0.5,17.8,3.2c2.1,2.4,2.5,5.1,2.5,14.7c0,9.6-0.5,12.3-2.5,14.7c-2.4,2.7-4.9,3.2-17.8,3.2
	C505.6,916.8,503.1,916.3,500.7,913.6z M533,911c1.3-1.6,1.7-4.1,1.7-12.1c0-8-0.4-10.5-1.7-12.2c-1.5-1.8-4.1-2.2-13.3-2.2
	c-12.4,0-14.1,0.3-15.7,2.2c-1.4,1.6-1.7,3.9-1.7,12c0,8.4,0.3,10.6,1.7,12.3c1.6,1.9,3.4,2.2,15.7,2.2
	C528.9,913.2,531.6,912.8,533,911z"/>
<path class="st0" d="M931.6,471.6h-27.3c-7.7,0-11.6-1.4-13.7-5.1c-1.6-2.6-2.3-6.7-2.3-12.4c0-5.7,0.7-9.9,2.3-12.5
	c2.1-3.7,6-5.1,13.7-5.1h27.3V471.6z M904,440c-4.9,0-8.2,1.2-9.6,3.4c-1.2,2-1.8,5.3-1.8,10.4c0,5.4,0.6,9.1,1.9,11
	c1.4,2.2,4.4,3.2,9.8,3.2h23.1v-28H904z"/>
<path class="st0" d="M881.2,471.6h-34.9v-3.5H877v-11.7h-29.6V453H877v-13h-31v-3.5h35.2V471.6z"/>
<path class="st0" d="M839.5,471.6h-4.2V440h-27.8v-3.5h32V471.6z"/>
<path class="st0" d="M652.6,471.6h-6.8l-21.2-30.2l-21.2,30.2h-6.6v-35.1h4.2v31.6l22.1-31.6h3.1l22.1,31.6v-31.6h4.2V471.6z"/>
<path class="st0" d="M582.7,444.4l4.6-7.9h4.7l-20.7,35.1h-5.9l-20.7-35.1h4.6l4.6,7.9H582.7z M568.4,468.7l12.4-20.9H556
	L568.4,468.7z"/>
<path class="st0" d="M540,471.6h-28.9c-5.3,0-7.8-0.7-9.6-2.7c-1.4-1.6-2.2-4.3-2.2-8.1c0-5.7,1.3-7.7,5.6-8.7
	c-3.6-0.7-4.9-2.5-4.9-6.6v-9.1h4.2v6.7c-0.1,6.1,1.4,7.5,7.5,7.5h24.1v-14.2h4.2V471.6z M512.7,454c-7.2,0-9,1.4-9,7.1
	c0,5.6,1.9,7,9.3,7h22.8V454H512.7z"/>
<path class="st0" d="M898.1,862c0,3.2,0.3,4.3,1.3,5.2c1.5,1.3,3.6,1.6,11.5,1.6c9.9,0,12.3-0.3,14.4-1.5c1.8-1.1,2.4-2.8,2.4-7
	v-7.7c-0.8,2.2-1.5,3.3-3,4c-1.7,0.9-4.4,1.1-13.4,1.1c-7.5,0-10.8-0.2-12.9-0.9c-1.5-0.4-2.9-1.5-3.7-2.7c-0.8-1.1-1.2-3.2-1.2-6.1
	c0-4.7,0.7-7.2,2.6-8.8c2.5-2.2,5.2-2.6,15.6-2.6c9.3,0,11.7,0.2,13.9,0.8c3.2,0.9,4.9,2.8,5.7,6c0.5,2,0.7,5,0.7,11.3
	c0,10.7-0.6,13.4-3.7,15.6c-2.6,1.8-5.6,2.2-17.3,2.2c-9.8,0-12.9-0.6-15.3-3.2c-1.5-1.6-1.9-3.2-2.1-7.2H898.1z M925,852.9
	c1.8-0.9,2.6-2.6,2.6-5.9c0-3.8-1.1-5.5-3.8-6.3c-1.6-0.4-5.7-0.7-11.8-0.7c-12.7,0-14.2,0.8-14.2,7.7c0,2.9,0.4,4.3,1.6,5.1
	c1.6,1,3.8,1.2,13.6,1.2C920.7,854.1,923.3,853.8,925,852.9z"/>
<path class="st0" d="M744,872h-28.3c-5.5,0-7.7-0.5-9.4-2.3c-1.5-1.6-2.1-3.8-2.1-8.1c0-5.2,0.7-7.3,2.8-9c1.7-1.4,3.9-1.9,7.7-1.9
	h25v-13.8h4.2V872z M717.8,854.2c-7.6,0-9.3,1.3-9.3,7.2c0,5.7,1.7,7.1,8.4,7.1h22.8v-14.3H717.8z"/>
<path class="st0" d="M555.8,872H549l-21.2-30.2L506.7,872h-6.6v-35.1h4.2v31.6l22.1-31.6h3.1l22.1,31.6v-31.6h4.2V872z"/>
<path class="st0" d="M931.6,427.1h-28.3c-5.5,0-7.7-0.5-9.4-2.3c-1.5-1.6-2.1-3.8-2.1-8.1c0-5.2,0.7-7.3,2.8-9
	c1.7-1.4,3.9-1.9,7.7-1.9h25V392h4.2V427.1z M905.5,409.3c-7.6,0-9.3,1.3-9.3,7.2c0,5.7,1.7,7.1,8.4,7.1h22.8v-14.3H905.5z"/>
<path class="st0" d="M875.3,399.9l4.6-7.9h4.7l-20.7,35.1H858L837.3,392h4.6l4.6,7.9H875.3z M860.9,424.2l12.4-20.9h-24.7
	L860.9,424.2z"/>
<path class="st0" d="M820.9,403V402c0-3.5-0.7-4.9-3-5.7c-2.1-0.7-5.9-1-12.3-1c-13.7,0-16.2,1.1-16.2,6.9c0,2.9,0.9,4.3,3.3,4.9
	c2.3,0.6,2.5,0.6,18.2,0.7c6.4,0.1,9.1,0.5,11.3,1.9c2.1,1.4,2.9,3.4,2.9,6.8c0,5.3-1.9,8.3-6.1,9.5c-3,0.9-7.6,1.3-14.8,1.3
	c-8.1,0-12.3-0.6-14.7-2.1c-2.6-1.6-3.4-3.4-3.5-8.3h4.1c0.1,2.8,0.5,4.1,1.7,4.9c1.6,1.3,5.3,1.8,12.4,1.8
	c13.8,0,16.5-1.1,16.5-6.7c0-2.4-0.7-3.8-2.2-4.5c-1.8-0.8-3.4-0.9-13.4-1c-11.2-0.1-13.6-0.3-16.1-1.5c-2.8-1.4-4-3.7-4-8.1
	c0-4.8,1.6-7.7,5.1-9c2.6-0.9,6.6-1.3,14.7-1.3c8.5,0,12.5,0.4,15.4,1.3c3.2,1.1,4.9,3.8,4.9,7.6v2.4H820.9z"/>
<path class="st0" d="M763.7,399.9l4.6-7.9h4.7l-20.7,35.1h-5.9L725.7,392h4.6l4.6,7.9H763.7z M749.4,424.2l12.4-20.9H737
	L749.4,424.2z"/>
<path class="st0" d="M711.4,427.1h-27.3c-7.7,0-11.6-1.4-13.7-5.1c-1.6-2.6-2.3-6.7-2.3-12.4c0-5.7,0.7-9.9,2.3-12.5
	c2.1-3.7,6-5.1,13.7-5.1h27.3V427.1z M683.7,395.5c-4.9,0-8.2,1.2-9.6,3.4c-1.2,2-1.8,5.3-1.8,10.4c0,5.4,0.6,9.1,1.9,11
	c1.4,2.2,4.4,3.2,9.8,3.2h23.1v-28H683.7z"/>
<path class="st0" d="M651.3,427.1h-34.9v-3.5h30.7v-11.7h-29.6v-3.3h29.6v-13h-31V392h35.2V427.1z"/>
<path class="st0" d="M600,427.1h-6.8L560,395v32.1h-4.2V392h6.8l33.1,32.1V392h4.2V427.1z"/>
<path class="st0" d="M532.1,399.9l4.6-7.9h4.7l-20.7,35.1h-5.9L494.1,392h4.6l4.6,7.9H532.1z M517.7,424.2l12.4-20.9h-24.7
	L517.7,424.2z"/>
<path class="st0" d="M927.3,802.4c0-3.2-0.3-4.3-1.3-5.2c-1.5-1.3-3.6-1.6-11.5-1.6c-9.9,0-12.3,0.3-14.4,1.5
	c-1.8,1.1-2.4,2.8-2.4,7v7.7c0.8-2.2,1.5-3.3,3-4c1.7-0.9,4.4-1.1,13.4-1.1c7.5,0,10.8,0.2,12.9,0.9c1.5,0.4,2.9,1.5,3.7,2.7
	c0.8,1.1,1.2,3.2,1.2,6.1c0,4.7-0.7,7.2-2.6,8.8c-2.5,2.2-5.2,2.6-15.6,2.6c-9.3,0-11.7-0.2-13.9-0.8c-3.2-0.9-4.9-2.8-5.7-6
	c-0.5-2-0.7-5-0.7-11.3c0-10.7,0.6-13.4,3.7-15.6c2.6-1.8,5.6-2.2,17.3-2.2c9.8,0,12.9,0.6,15.3,3.2c1.5,1.6,1.9,3.2,2.1,7.2H927.3z
	 M927.7,816.5c0-2.9-0.4-4.3-1.6-5.1c-1.6-1-3.8-1.2-13.6-1.2c-7.8,0-10.5,0.3-12.2,1.2c-1.8,0.9-2.6,2.6-2.6,5.9
	c0,3.8,1.1,5.5,3.8,6.3c1.6,0.4,5.8,0.7,11.8,0.7C926.2,824.3,927.7,823.4,927.7,816.5z"/>
<path class="st0" d="M743.8,827.5h-28.3c-5.5,0-7.7-0.5-9.4-2.3c-1.5-1.6-2.1-3.8-2.1-8.1c0-5.2,0.7-7.3,2.8-9
	c1.7-1.4,3.9-1.9,7.7-1.9h25v-13.8h4.2V827.5z M717.7,809.7c-7.6,0-9.3,1.3-9.3,7.2c0,5.7,1.7,7.1,8.4,7.1h22.8v-14.3H717.7z"/>
<path class="st0" d="M555.8,827.5H549l-21.2-30.2l-21.2,30.2h-6.6v-35.1h4.2V824l22.1-31.6h3.1l22.1,31.6v-31.6h4.2V827.5z"/>
<path class="st0" d="M890.8,359.3v-1.5c0-4.2,0.4-6.1,1.8-7.6c1.3-1.6,3.1-2.3,6.3-2.7c2-0.2,8-0.4,12.7-0.4
	c12.7,0,15.8,0.5,18.4,3.2c2.3,2.3,2.8,5.1,2.8,14.7c0,10.9-0.7,13.7-4.3,16c-2.7,1.7-5.6,1.9-20,1.9c-8.8,0-11.8-0.4-14-2
	c-2.4-1.6-3.1-3.8-3.3-9.4h4.1v0.9c0,6.2,1.5,6.8,16.2,6.8c16.8,0,16.9-0.1,16.9-14.3c0-8-0.4-10.5-1.8-12
	c-1.7-1.7-4.4-2.2-14.2-2.2c-15.8,0-17.4,0.6-17.4,6.5v2H890.8z"/>
<path class="st0" d="M878.8,355.4l4.6-7.9h4.7l-20.7,35.1h-5.9l-20.7-35.1h4.6l4.6,7.9H878.8z M864.4,379.7l12.4-20.9H852
	L864.4,379.7z"/>
<path class="st0" d="M697.4,357.5c0-3.2-0.3-4.3-1.3-5.2c-1.5-1.3-3.6-1.6-11.5-1.6c-9.9,0-12.3,0.3-14.4,1.5
	c-1.8,1.1-2.4,2.8-2.4,7v7.7c0.8-2.2,1.5-3.3,3-4c1.7-0.9,4.4-1.1,13.4-1.1c7.5,0,10.8,0.2,12.9,0.9c1.5,0.4,2.9,1.5,3.7,2.7
	c0.8,1.1,1.2,3.2,1.2,6.1c0,4.7-0.7,7.2-2.6,8.8c-2.5,2.2-5.2,2.6-15.6,2.6c-9.3,0-11.7-0.2-13.9-0.8c-3.2-0.9-4.9-2.8-5.7-6
	c-0.5-2-0.7-5-0.7-11.3c0-10.7,0.6-13.4,3.7-15.6c2.6-1.8,5.6-2.2,17.3-2.2c9.8,0,12.9,0.6,15.3,3.2c1.5,1.6,1.9,3.2,2.1,7.2H697.4z
	 M697.8,371.7c0-2.9-0.4-4.3-1.6-5.1c-1.6-1-3.8-1.2-13.6-1.2c-7.8,0-10.5,0.3-12.2,1.2c-1.8,0.9-2.6,2.6-2.6,5.9
	c0,3.8,1.1,5.5,3.8,6.3c1.6,0.4,5.8,0.7,11.8,0.7C696.2,379.4,697.8,378.6,697.8,371.7z"/>
<path class="st0" d="M654,371.2l-14.5,11.4h-5.6v-35.1h4.1v32.1l13.6-11.2L654,371.2z"/>
<path class="st0" d="M618.6,371.2l-14.5,11.4h-5.6v-35.1h4.1v32.1l13.6-11.2L618.6,371.2z"/>
<path class="st0" d="M547.4,379.8c-2.1-2.4-2.5-5.1-2.5-15c0-9.2,0.5-12,2.5-14.4c2.4-2.7,4.8-3.2,17.8-3.2
	c12.9,0,15.4,0.5,17.8,3.2c2.1,2.4,2.5,5.1,2.5,14.7c0,9.6-0.5,12.3-2.5,14.7c-2.4,2.7-4.9,3.2-17.8,3.2
	C552.2,383,549.8,382.5,547.4,379.8z M579.7,377.2c1.3-1.6,1.7-4.1,1.7-12.1c0-8.1-0.4-10.5-1.7-12.2c-1.5-1.8-4.1-2.2-13.3-2.2
	c-12.4,0-14.1,0.3-15.7,2.2c-1.4,1.6-1.7,3.9-1.7,12c0,8.4,0.3,10.6,1.7,12.3c1.6,1.9,3.4,2.2,15.7,2.2
	C575.6,379.4,578.2,379,579.7,377.2z"/>
<path class="st0" d="M534.3,358.2c0-4-0.4-5.2-2.1-6.1c-1.6-1-5.2-1.4-12.5-1.4c-9,0-11.6,0.2-13.7,1.2c-2.2,0.9-2.7,2.6-2.7,7.8
	c0,4.5,0.8,6.3,3.3,7.2c1.8,0.7,5.3,0.9,13.5,0.9c10.5,0,12.9-0.6,13.5-3.4h4.2l-0.4,18.2h-37.3v-3.6h33.4l0.2-12
	c-0.8,1.9-1.6,2.8-3.3,3.5c-1.7,0.7-4,0.9-10.7,0.9c-11.2,0-14.2-0.3-17-1.9c-1.4-0.8-2.5-2.2-3.1-3.7c-0.4-1.2-0.6-2.8-0.6-5.7
	c0-6.6,0.8-9.3,3.2-10.8c2.5-1.7,5.6-2.1,15.2-2.1c9.4,0,14.2,0.3,15.9,0.9c2.5,0.8,4.1,2.6,4.7,5.1c0.3,1.1,0.3,2.3,0.3,5.1H534.3z
	"/>
<path class="st0" d="M41,350.4c2.1,2.4,2.5,5.1,2.5,15c0,9.2-0.5,12-2.5,14.4c-2.4,2.7-4.8,3.2-17.8,3.2c-12.9,0-15.4-0.5-17.8-3.2
	c-2.1-2.4-2.5-5.1-2.5-14.7c0-9.6,0.5-12.3,2.5-14.7c2.4-2.7,4.9-3.2,17.8-3.2C36.2,347.2,38.7,347.6,41,350.4z M8.7,353
	c-1.3,1.6-1.7,4.1-1.7,12.1c0,8.1,0.4,10.5,1.7,12.2c1.5,1.8,4.1,2.2,13.3,2.2c12.4,0,14.1-0.3,15.7-2.2c1.4-1.6,1.7-3.9,1.7-12
	c0-8.4-0.3-10.6-1.7-12.3c-1.6-1.9-3.4-2.2-15.7-2.2C12.8,350.7,10.2,351.2,8.7,353z"/>
<path class="st0" d="M50.5,360.5c0-3.7,0.1-5.1,0.4-6.4c0.7-3.3,2.5-5.2,5.7-6.1c2.4-0.6,6.5-0.9,13-0.9c10.3,0,13.9,0.5,16.3,2.3
	c2.2,1.7,3.2,4.2,3.2,8.6c0,4.8-1.1,7.5-3.5,9c-1.7,1.1-3.6,1.5-8.8,1.8l-12.9,0.9c-8.3,0.5-9.4,1.6-9.5,9.1H89v3.6H50v-2.2
	c-0.3-11,2.1-13.8,12.2-14.2l13-1c8.2-0.6,9.6-1.6,9.6-6.8c0-3.4-0.4-4.9-1.7-5.8c-1.8-1.5-4.6-1.8-13.4-1.8c-13.5,0-15,0.9-15,8.6
	v1.2H50.5z"/>
<path class="st0" d="M364.1,359l14.5-11.4h5.6v35.1h-4.1v-32.1l-13.6,11.2L364.1,359z"/>
<path class="st0" d="M425.2,363c4.8,0,6.3-1.4,6.3-6.2c0-3.2-0.6-4.6-2.4-5.3c-1.5-0.6-3.4-0.7-10.3-0.7c-11.6,0-13.9,0.2-15.8,1.5
	c-1.3,0.8-1.8,2.4-1.8,6.1h-4.1c0-3.4,0.1-4.6,0.6-5.9c0.9-2.5,2.7-3.8,6.1-4.5c2.5-0.5,6.1-0.7,13.9-0.7c10.2,0,12.9,0.4,15.4,2.1
	c1.9,1.3,2.6,3.4,2.6,7.8c0,4.9-1.2,6.8-4.8,7.4c4,0.6,5.3,2.5,5.3,7.9c0,5.5-0.9,7.7-3.9,9.3c-2.1,1.1-4.4,1.3-13.6,1.3
	c-14.6,0-17.2-0.3-19.5-2.5c-1.7-1.6-2.3-3.6-2.3-8.5h4.2c0,4.1,0.3,5.2,1.8,6.2c1.3,0.9,5,1.3,13.1,1.3c9.4,0,12.3-0.2,13.7-0.9
	c1.7-0.8,2.3-2.2,2.3-5.6c0-3.6-0.4-4.8-1.9-5.7c-0.9-0.5-1.8-0.6-4.6-0.6h-13.8V363H425.2z"/>
<path class="st0" d="M31.5,807.8c4.8,0,6.3-1.4,6.3-6.2c0-3.2-0.6-4.6-2.4-5.3c-1.5-0.6-3.4-0.7-10.3-0.7c-11.6,0-13.9,0.2-15.8,1.5
	c-1.3,0.8-1.8,2.4-1.8,6.1H3.5c0-3.4,0.1-4.6,0.6-5.9c0.9-2.5,2.7-3.8,6.1-4.5c2.5-0.5,6.1-0.7,13.9-0.7c10.2,0,12.9,0.4,15.4,2.1
	c1.9,1.3,2.6,3.4,2.6,7.8c0,4.9-1.2,6.8-4.8,7.4c4,0.6,5.3,2.5,5.3,7.9c0,5.5-0.9,7.7-3.9,9.3c-2.1,1.1-4.4,1.3-13.6,1.3
	c-14.6,0-17.2-0.3-19.5-2.5c-1.7-1.6-2.3-3.6-2.3-8.5h4.2c0,4.1,0.3,5.2,1.8,6.2c1.3,0.9,5,1.3,13.1,1.3c9.4,0,12.3-0.2,13.7-0.9
	c1.7-0.8,2.3-2.2,2.3-5.6c0-3.6-0.4-4.8-1.9-5.7c-0.9-0.5-1.8-0.6-4.6-0.6H18v-3.6H31.5z"/>
<path class="st0" d="M87.2,795.2c2.1,2.4,2.5,5.1,2.5,15c0,9.2-0.5,12-2.5,14.4c-2.4,2.7-4.8,3.2-17.8,3.2
	c-12.9,0-15.4-0.5-17.8-3.2c-2.1-2.4-2.5-5.1-2.5-14.7c0-9.6,0.5-12.3,2.5-14.7c2.4-2.7,4.9-3.2,17.8-3.2
	C82.4,792,84.9,792.5,87.2,795.2z M54.9,797.8c-1.3,1.6-1.7,4.1-1.7,12.1c0,8.1,0.4,10.5,1.7,12.2c1.5,1.8,4.1,2.2,13.3,2.2
	c12.4,0,14.1-0.3,15.7-2.2c1.4-1.6,1.7-3.9,1.7-12c0-8.4-0.3-10.6-1.7-12.3c-1.6-1.9-3.4-2.2-15.7-2.2C59,795.6,56.4,796,54.9,797.8
	z"/>
<path class="st0" d="M402.6,792.4h34.9v3.5h-30.7v11.7h29.6v3.3h-29.6v13h31v3.5h-35.2V792.4z"/>
<path class="st0" d="M4.5,405c0-3.7,0.1-5.1,0.4-6.4c0.7-3.3,2.5-5.2,5.7-6.1c2.4-0.6,6.5-0.9,13-0.9c10.3,0,13.9,0.5,16.3,2.3
	c2.2,1.7,3.2,4.2,3.2,8.6c0,4.8-1.1,7.5-3.5,9c-1.7,1.1-3.6,1.5-8.8,1.8l-12.9,0.9c-8.3,0.5-9.4,1.6-9.5,9.1H43v3.6H4V425
	c-0.3-11,2.1-13.8,12.2-14.2l13-1c8.2-0.6,9.6-1.6,9.6-6.8c0-3.4-0.4-4.9-1.7-5.8c-1.8-1.5-4.6-1.8-13.4-1.8c-13.5,0-15,0.9-15,8.6
	v1.2H4.5z"/>
<path class="st0" d="M172.4,394.9c2.1,2.4,2.5,5.1,2.5,15c0,9.2-0.5,12-2.5,14.4c-2.4,2.7-4.8,3.2-17.8,3.2
	c-12.9,0-15.4-0.5-17.8-3.2c-2.1-2.4-2.5-5.1-2.5-14.7c0-9.6,0.5-12.3,2.5-14.7c2.4-2.7,4.9-3.2,17.8-3.2
	C167.6,391.7,170,392.1,172.4,394.9z M140.1,397.4c-1.3,1.6-1.7,4.1-1.7,12.1c0,8.1,0.4,10.5,1.7,12.2c1.5,1.8,4.1,2.2,13.3,2.2
	c12.4,0,14.1-0.3,15.7-2.2c1.4-1.6,1.7-3.9,1.7-12c0-8.4-0.3-10.6-1.7-12.3c-1.6-1.9-3.4-2.2-15.7-2.2
	C144.2,395.2,141.6,395.7,140.1,397.4z"/>
<path class="st0" d="M267.2,405c0-3.7,0.1-5.1,0.4-6.4c0.7-3.3,2.5-5.2,5.7-6.1c2.4-0.6,6.5-0.9,13-0.9c10.3,0,13.9,0.5,16.3,2.3
	c2.2,1.7,3.2,4.2,3.2,8.6c0,4.8-1.1,7.5-3.5,9c-1.7,1.1-3.6,1.5-8.8,1.8l-12.9,0.9c-8.3,0.5-9.4,1.6-9.5,9.1h34.8v3.6h-39V425
	c-0.3-11,2.1-13.8,12.2-14.2l13-1c8.2-0.6,9.6-1.6,9.6-6.8c0-3.4-0.4-4.9-1.7-5.8c-1.8-1.5-4.6-1.8-13.4-1.8c-13.5,0-15,0.9-15,8.6
	v1.2H267.2z"/>
<path class="st0" d="M435.2,394.9c2.1,2.4,2.5,5.1,2.5,15c0,9.2-0.5,12-2.5,14.4c-2.4,2.7-4.8,3.2-17.8,3.2
	c-12.9,0-15.4-0.5-17.8-3.2c-2.1-2.4-2.5-5.1-2.5-14.7c0-9.6,0.5-12.3,2.5-14.7c2.4-2.7,4.9-3.2,17.8-3.2
	C430.3,391.7,432.8,392.1,435.2,394.9z M402.9,397.4c-1.3,1.6-1.7,4.1-1.7,12.1c0,8.1,0.4,10.5,1.7,12.2c1.5,1.8,4.1,2.2,13.3,2.2
	c12.4,0,14.1-0.3,15.7-2.2c1.4-1.6,1.7-3.9,1.7-12c0-8.4-0.3-10.6-1.7-12.3c-1.6-1.9-3.4-2.2-15.7-2.2
	C407,395.2,404.3,395.7,402.9,397.4z"/>
<path class="st0" d="M4.3,836.9h27.3c7.7,0,11.6,1.4,13.7,5.1c1.6,2.6,2.3,6.7,2.3,12.4c0,5.7-0.7,9.9-2.3,12.5
	c-2.1,3.7-6,5.1-13.7,5.1H4.3V836.9z M31.9,868.4c4.9,0,8.2-1.2,9.6-3.4c1.2-2,1.8-5.3,1.8-10.4c0-5.4-0.6-9.1-1.9-11
	c-1.4-2.2-4.4-3.2-9.8-3.2H8.5v28H31.9z"/>
<path class="st0" d="M54.7,836.9h34.9v3.5H58.9v11.7h29.6v3.3H58.9v13h31v3.5H54.7V836.9z"/>
<path class="st0" d="M96.4,836.9h4.2v31.6h27.8v3.5h-32V836.9z"/>
<path class="st0" d="M283.3,836.9h6.8l21.2,30.2l21.2-30.2h6.6V872h-4.2v-31.6L312.7,872h-3.1l-22.1-31.6V872h-4.2V836.9z"/>
<path class="st0" d="M353.2,864.1l-4.6,7.9h-4.7l20.7-35.1h5.9l20.7,35.1h-4.6l-4.6-7.9H353.2z M367.5,839.8l-12.4,20.9h24.7
	L367.5,839.8z"/>
<path class="st0" d="M395.9,836.9h28.9c5.3,0,7.8,0.7,9.6,2.7c1.4,1.6,2.2,4.3,2.2,8.1c0,5.7-1.3,7.7-5.6,8.7
	c3.6,0.7,4.9,2.5,4.9,6.6v9.1h-4.2v-6.7c0.1-6.1-1.4-7.5-7.5-7.5h-24.1V872h-4.2V836.9z M423.2,854.5c7.2,0,9-1.4,9-7.1
	c0-5.6-1.9-7-9.3-7h-22.8v14.1H423.2z"/>
<path class="st0" d="M37.8,446.5c0-3.2-0.3-4.3-1.3-5.2c-1.5-1.3-3.6-1.6-11.5-1.6c-9.9,0-12.3,0.3-14.4,1.5c-1.8,1.1-2.4,2.8-2.4,7
	v7.7c0.8-2.2,1.5-3.3,3-4c1.7-0.9,4.4-1.1,13.4-1.1c7.5,0,10.8,0.2,12.9,0.9c1.5,0.4,2.9,1.5,3.7,2.7c0.8,1.1,1.2,3.2,1.2,6.1
	c0,4.7-0.7,7.2-2.6,8.8c-2.5,2.2-5.2,2.6-15.6,2.6c-9.3,0-11.7-0.2-13.9-0.8c-3.2-0.9-4.9-2.8-5.7-6c-0.5-2-0.7-5-0.7-11.3
	c0-10.7,0.6-13.4,3.7-15.6c2.6-1.8,5.6-2.2,17.3-2.2c9.8,0,12.9,0.6,15.3,3.2c1.5,1.6,1.9,3.2,2.1,7.2H37.8z M10.9,455.6
	c-1.8,0.9-2.6,2.6-2.6,5.9c0,3.8,1.1,5.5,3.8,6.3c1.6,0.4,5.7,0.7,11.8,0.7c12.7,0,14.2-0.8,14.2-7.7c0-2.9-0.4-4.3-1.6-5.1
	c-1.6-1-3.8-1.2-13.6-1.2C15.2,454.4,12.6,454.7,10.9,455.6z"/>
<path class="st0" d="M191.9,436.5h28.3c5.5,0,7.7,0.5,9.4,2.3c1.5,1.6,2.1,3.8,2.1,8.1c0,5.2-0.7,7.3-2.8,9
	c-1.7,1.4-3.9,1.9-7.7,1.9h-25v13.8h-4.2V436.5z M218.1,454.3c7.6,0,9.3-1.3,9.3-7.2c0-5.7-1.7-7.1-8.4-7.1h-22.8v14.3H218.1z"/>
<path class="st0" d="M380.1,436.5h6.8l21.2,30.2l21.2-30.2h6.6v35.1h-4.2V440l-22.1,31.6h-3.1L384.3,440v31.6h-4.2V436.5z"/>
<path class="st0" d="M4.3,881.4h28.3c5.5,0,7.7,0.5,9.4,2.3c1.5,1.6,2.1,3.8,2.1,8.1c0,5.2-0.7,7.3-2.8,9c-1.7,1.4-3.9,1.9-7.7,1.9
	h-25v13.8H4.3V881.4z M30.4,899.1c7.6,0,9.3-1.3,9.3-7.2c0-5.7-1.7-7.1-8.4-7.1H8.5v14.3H30.4z"/>
<path class="st0" d="M60.6,908.6l-4.6,7.9h-4.7L72,881.4h5.9l20.7,35.1H94l-4.6-7.9H60.6z M75,884.3l-12.4,20.9h24.7L75,884.3z"/>
<path class="st0" d="M115,905.5v0.9c0,3.5,0.7,4.9,3,5.7c2.1,0.7,5.9,1,12.3,1c13.7,0,16.2-1.1,16.2-6.9c0-2.9-0.9-4.3-3.3-4.9
	c-2.3-0.6-2.5-0.6-18.2-0.7c-6.4-0.1-9.1-0.5-11.3-1.9c-2.1-1.4-2.9-3.4-2.9-6.8c0-5.3,1.9-8.3,6.1-9.5c3-0.9,7.6-1.3,14.8-1.3
	c8.1,0,12.3,0.6,14.7,2.1c2.6,1.6,3.4,3.4,3.5,8.3h-4.1c-0.1-2.8-0.5-4.1-1.7-4.9c-1.6-1.3-5.3-1.8-12.4-1.8
	c-13.8,0-16.5,1.1-16.5,6.7c0,2.4,0.7,3.8,2.2,4.5c1.8,0.8,3.4,0.9,13.4,1c11.2,0.1,13.6,0.3,16.1,1.5c2.8,1.4,4,3.7,4,8.1
	c0,4.8-1.6,7.7-5.1,9c-2.6,0.9-6.6,1.3-14.7,1.3c-8.5,0-12.5-0.4-15.4-1.3c-3.2-1.1-4.9-3.8-4.9-7.6v-2.4H115z"/>
<path class="st0" d="M172.2,908.6l-4.6,7.9h-4.7l20.7-35.1h5.9l20.7,35.1h-4.6l-4.6-7.9H172.2z M186.5,884.3l-12.4,20.9h24.7
	L186.5,884.3z"/>
<path class="st0" d="M224.5,881.4h27.3c7.7,0,11.6,1.4,13.7,5.1c1.6,2.6,2.3,6.7,2.3,12.4c0,5.7-0.7,9.9-2.3,12.5
	c-2.1,3.7-6,5.1-13.7,5.1h-27.3V881.4z M252.2,912.9c4.9,0,8.2-1.2,9.6-3.4c1.2-2,1.8-5.3,1.8-10.4c0-5.4-0.6-9.1-1.9-11
	c-1.4-2.2-4.4-3.2-9.8-3.2h-23.1v28H252.2z"/>
<path class="st0" d="M284.6,881.4h34.9v3.5h-30.7v11.7h29.6v3.3h-29.6v13h31v3.5h-35.2V881.4z"/>
<path class="st0" d="M335.9,881.4h6.8l33.1,32.1v-32.1h4.2v35.1h-6.8l-33.1-32.1v32.1h-4.2V881.4z"/>
<path class="st0" d="M403.8,908.6l-4.6,7.9h-4.7l20.7-35.1h5.9l20.7,35.1h-4.6l-4.6-7.9H403.8z M418.2,884.3l-12.4,20.9h24.7
	L418.2,884.3z"/>
<path class="st0" d="M8.6,506.1c0,3.2,0.3,4.3,1.3,5.2c1.5,1.3,3.6,1.6,11.5,1.6c9.9,0,12.3-0.3,14.4-1.5c1.8-1.1,2.4-2.8,2.4-7
	v-7.7c-0.8,2.2-1.5,3.3-3,4c-1.7,0.9-4.4,1.1-13.4,1.1c-7.5,0-10.8-0.2-12.9-0.9c-1.5-0.4-2.9-1.5-3.7-2.7C4.3,497,3.9,495,3.9,492
	c0-4.7,0.7-7.2,2.6-8.8c2.5-2.2,5.2-2.6,15.6-2.6c9.3,0,11.7,0.2,13.9,0.8c3.2,0.9,4.9,2.8,5.7,6c0.5,2,0.7,5,0.7,11.3
	c0,10.7-0.6,13.4-3.7,15.6c-2.6,1.8-5.6,2.2-17.3,2.2c-9.8,0-12.9-0.6-15.3-3.2c-1.5-1.6-1.9-3.2-2.1-7.2H8.6z M8.2,491.9
	c0,2.9,0.4,4.3,1.6,5.1c1.6,1,3.8,1.2,13.6,1.2c7.8,0,10.5-0.3,12.2-1.2c1.8-0.9,2.6-2.6,2.6-5.9c0-3.8-1.1-5.5-3.8-6.3
	c-1.6-0.4-5.8-0.7-11.8-0.7C9.7,484.2,8.2,485,8.2,491.9z"/>
<path class="st0" d="M192.1,481h28.3c5.5,0,7.7,0.5,9.4,2.3c1.5,1.6,2.1,3.8,2.1,8.1c0,5.2-0.7,7.3-2.8,9c-1.7,1.4-3.9,1.9-7.7,1.9
	h-25v13.8h-4.2V481z M218.2,498.8c7.6,0,9.3-1.3,9.3-7.2c0-5.7-1.7-7.1-8.4-7.1h-22.8v14.3H218.2z"/>
<path class="st0" d="M380.1,481h6.8l21.2,30.2l21.2-30.2h6.6v35.1h-4.2v-31.6l-22.1,31.6h-3.1l-22.1-31.6v31.6h-4.2V481z"/>
<path class="st0" d="M45.1,949.1v1.5c0,4.2-0.4,6.1-1.8,7.6c-1.3,1.6-3.1,2.3-6.3,2.7c-2,0.2-8,0.4-12.7,0.4
	c-12.7,0-15.8-0.5-18.4-3.2c-2.3-2.3-2.8-5.1-2.8-14.7c0-10.9,0.7-13.7,4.3-16c2.7-1.7,5.6-1.9,20-1.9c8.8,0,11.8,0.4,14,2
	c2.4,1.6,3.1,3.8,3.3,9.4h-4.1V936c0-6.2-1.5-6.8-16.2-6.8c-16.8,0-16.9,0.1-16.9,14.3c0,8,0.4,10.5,1.8,12
	c1.7,1.7,4.4,2.2,14.2,2.2c15.8,0,17.4-0.6,17.4-6.5v-2H45.1z"/>
<path class="st0" d="M57.1,953l-4.6,7.9h-4.7l20.7-35.1h5.9l20.7,35.1h-4.6l-4.6-7.9H57.1z M71.5,928.8l-12.4,20.9h24.7L71.5,928.8z
	"/>
<path class="st0" d="M238.5,950.9c0,3.2,0.3,4.3,1.3,5.2c1.5,1.3,3.6,1.6,11.5,1.6c9.9,0,12.3-0.3,14.4-1.5c1.8-1.1,2.4-2.8,2.4-7
	v-7.7c-0.8,2.2-1.5,3.3-3,4c-1.7,0.9-4.4,1.1-13.4,1.1c-7.5,0-10.8-0.2-12.9-0.9c-1.5-0.4-2.9-1.5-3.7-2.7c-0.8-1.1-1.2-3.2-1.2-6.1
	c0-4.7,0.7-7.2,2.6-8.8c2.5-2.2,5.2-2.6,15.6-2.6c9.3,0,11.7,0.2,13.9,0.8c3.2,0.9,4.9,2.8,5.7,6c0.5,2,0.7,5,0.7,11.3
	c0,10.7-0.6,13.4-3.7,15.6c-2.6,1.8-5.6,2.2-17.3,2.2c-9.8,0-12.9-0.6-15.3-3.2c-1.5-1.6-1.9-3.2-2.1-7.2H238.5z M238.1,936.8
	c0,2.9,0.4,4.3,1.6,5.1c1.6,1,3.8,1.2,13.6,1.2c7.8,0,10.5-0.3,12.2-1.2c1.8-0.9,2.6-2.6,2.6-5.9c0-3.8-1.1-5.5-3.8-6.3
	c-1.6-0.4-5.8-0.7-11.8-0.7C239.7,929.1,238.1,929.9,238.1,936.8z"/>
<path class="st0" d="M281.9,937.3l14.5-11.4h5.6v35.1H298v-32.1L284.3,940L281.9,937.3z"/>
<path class="st0" d="M317.3,937.3l14.5-11.4h5.6v35.1h-4.1v-32.1L319.8,940L317.3,937.3z"/>
<path class="st0" d="M388.5,928.7c2.1,2.4,2.5,5.1,2.5,15c0,9.2-0.5,12-2.5,14.4c-2.4,2.7-4.8,3.2-17.8,3.2
	c-12.9,0-15.4-0.5-17.8-3.2c-2.1-2.4-2.5-5.1-2.5-14.7c0-9.6,0.5-12.3,2.5-14.7c2.4-2.7,4.9-3.2,17.8-3.2
	C383.7,925.5,386.1,925.9,388.5,928.7z M356.2,931.3c-1.3,1.6-1.7,4.1-1.7,12.1c0,8.1,0.4,10.5,1.7,12.2c1.5,1.8,4.1,2.2,13.3,2.2
	c12.4,0,14.1-0.3,15.7-2.2c1.4-1.6,1.7-3.9,1.7-12c0-8.4-0.3-10.6-1.7-12.3c-1.6-1.9-3.4-2.2-15.7-2.2
	C360.3,929.1,357.7,929.5,356.2,931.3z"/>
<path class="st0" d="M401.6,950.3c0,4,0.4,5.2,2.1,6.1c1.6,1,5.2,1.4,12.5,1.4c9,0,11.6-0.2,13.7-1.2c2.2-0.9,2.7-2.6,2.7-7.8
	c0-4.5-0.8-6.3-3.3-7.2c-1.8-0.7-5.3-0.9-13.5-0.9c-10.5,0-12.9,0.6-13.5,3.4h-4.2l0.4-18.2h37.3v3.6h-33.4l-0.2,12
	c0.8-1.9,1.6-2.8,3.3-3.5c1.7-0.7,4-0.9,10.7-0.9c11.2,0,14.2,0.3,17,1.9c1.4,0.8,2.5,2.2,3.1,3.7c0.4,1.2,0.6,2.8,0.6,5.7
	c0,6.6-0.8,9.3-3.2,10.8c-2.5,1.7-5.6,2.1-15.2,2.1c-9.4,0-14.2-0.3-15.9-0.9c-2.5-0.8-4.1-2.6-4.7-5.1c-0.3-1.1-0.3-2.3-0.3-5.1
	H401.6z"/>
</svg>
