<?xml version="1.0" encoding="utf-8"?>
<!-- Generator: Adobe Illustrator 24.0.1, SVG Export Plug-In . SVG Version: 6.00 Build 0)  -->
<svg version="1.1" id="Layer_1" xmlns="http://www.w3.org/2000/svg" xmlns:xlink="http://www.w3.org/1999/xlink" x="0px" y="0px"
	 viewBox="0 0 1920 1080" style="enable-background:new 0 0 1920 1080;" xml:space="preserve">
<style type="text/css">
	.st0{fill:#FFFFFF;}
	.st1{fill:none;stroke:#FFFFFF;stroke-width:0.8042;}
	.st2{fill:#FFFFFF;stroke:#BCBEC0;stroke-width:0.8042;}
	.st3{fill:none;stroke:#BCBEC0;stroke-width:0.8042;}
	.st4{fill:#FFFFFF;stroke:#FFFFFF;stroke-width:1.6084;}
	.st5{fill:none;stroke:#FFFFFF;stroke-width:1.6084;}
	.st6{fill:none;stroke:#FFFFFF;stroke-width:0.8042;stroke-miterlimit:10;}
	.st7{fill:#E6E7E8;}
	.st8{fill:#F6F6F6;}
</style>
<rect x="1.5" y="0.5" width="1918" height="1078"/>
<polygon class="st0" points="192.5,78.6 201.6,78.6 208.5,91.2 215.4,78.6 224.4,78.6 224.4,97.5 218.8,97.5 219.1,82.9 210.7,97.5 
	206.1,97.5 197.9,82.9 198,97.5 192.5,97.5 "/>
<path class="st0" d="M247.6,78.7c2.9,0.5,4.3,2,4.7,5.1c0.1,0.8,0.2,2.3,0.2,4.6c0,4.6-0.5,6.4-2.1,7.7c-1.1,1-2.7,1.4-5.5,1.5
	c-1,0.1-3.5,0.1-5.4,0.1c-4.5,0-6.8-0.1-7.9-0.3c-2.1-0.4-3.3-1.2-4-2.6s-0.9-2.8-0.9-6.9c0-3.2,0.1-4,0.4-5.2
	c0.5-2,1.6-3.1,3.8-3.7c1.6-0.5,3.3-0.6,8.3-0.6C244.6,78.4,246.2,78.5,247.6,78.7L247.6,78.7z M233.5,83.7c-0.8,0.6-1,1.5-1,4.3
	s0.2,3.8,0.9,4.4c0.8,0.6,1.7,0.7,6,0.7c5,0,6-0.2,6.6-1.1c0.5-0.7,0.7-1.6,0.7-4.2c0-4.8-0.1-4.8-7.2-4.8
	C235.4,83,234.2,83.2,233.5,83.7L233.5,83.7z"/>
<path class="st0" d="M254.9,78.6h16.3c4,0,5.9,0.5,7.2,1.8c1,1,1.5,2.2,1.7,4.6c0.1,0.9,0.1,2.2,0.1,3.1c0,1.7-0.1,3.7-0.3,4.7
	c-0.3,2.3-1.9,4-4,4.4c-1.1,0.2-1.9,0.3-3.9,0.3h-17.1L254.9,78.6L254.9,78.6z M270.3,93c1.6,0,1.7,0,2.4-0.2
	c1.4-0.4,1.8-1.4,1.8-4.7c0-4-0.7-4.8-4-4.8h-9.7V93H270.3L270.3,93z"/>
<path class="st0" d="M288.3,78.6v8.2V88c0,2.1,0,2.1,0.1,2.6c0.3,2.1,1.2,2.6,5.5,2.6s5.5-0.1,6.2-0.7c0.6-0.4,0.9-1.2,0.9-2.7
	c0-0.4,0-0.4,0-2.5v-8.7h5.8v9.9c0.1,4.7-0.3,6.1-2,7.6c-1.4,1-3.1,1.5-5.5,1.5c-0.9,0-1.4,0-2.5,0h-2.2c-5.3,0-6.4-0.1-7.8-0.5
	c-3.4-1-4.3-2.8-4.3-8.4V78.6H288.3L288.3,78.6z"/>
<polygon class="st0" points="309.3,78.6 315,78.6 315,92.8 328,92.8 328,97.5 309.3,97.5 "/>
<path class="st0" d="M339.7,78.6h7.7l10.3,18.9h-6.3l-1.9-3.4h-12.2l-1.8,3.4H329L339.7,78.6L339.7,78.6z M347.6,90.2l-4.1-7.5
	l-4,7.5H347.6L347.6,90.2z"/>
<path class="st0" d="M359.4,78.6h16.3c3.3,0,4.8,0.3,5.9,1.2c1.1,0.9,1.6,2.5,1.6,5c0,3.5-0.9,4.9-3.3,5.4c2.4,0.4,3.1,1.4,3,4.3v3
	h-5.8v-2.4c0-2-0.6-2.5-3.2-2.4h-8.8v4.8h-5.7V78.6L359.4,78.6z M374.1,88.1c2.8,0,3.3-0.3,3.3-2.2c0-1.2-0.1-1.7-0.5-2.1
	c-0.4-0.5-0.9-0.5-2.6-0.5h-9.2v4.9h9V88.1z"/>
<polygon class="st0" points="392.1,78.6 401.3,78.6 408.2,91.2 415,78.6 424.1,78.6 424.1,97.5 418.5,97.5 418.8,82.9 410.4,97.5 
	405.8,97.5 397.5,82.9 397.7,97.5 392.1,97.5 "/>
<path class="st0" d="M435.8,78.6h7.7l10.3,18.9h-6.3l-1.9-3.4h-12.2l-1.8,3.4h-6.5L435.8,78.6L435.8,78.6z M443.7,90.2l-4.1-7.5
	l-4,7.5H443.7L443.7,90.2z"/>
<polygon class="st0" points="455,78.6 464.1,78.6 475.6,93 475.5,78.6 480.9,78.6 480.9,97.5 471.7,97.5 460.4,83.3 460.5,97.5 
	455,97.5 "/>
<polygon class="st0" points="483.4,78.6 489.2,78.6 489.2,97.5 483.4,97.5 "/>
<polygon class="st0" points="491.7,78.6 511.8,78.6 511.8,82.9 497.5,82.9 497.5,86.7 511.1,86.7 511.1,90.9 497.5,90.9 497.5,97.5 
	491.7,97.5 "/>
<polygon class="st0" points="535,78.6 535,82.9 519.8,82.9 519.8,86.2 534.2,86.2 534.2,89.9 519.8,89.9 519.8,93.2 535.2,93.2 
	535.2,97.5 514.1,97.5 514.1,78.6 "/>
<path class="st0" d="M543.2,91.5c0.1,1.3,0.2,1.6,0.9,1.9c0.4,0.2,2,0.3,3.9,0.3c6.7,0,7.5-0.2,7.5-1.8c0-0.8-0.4-1.3-1-1.5
	s-0.6-0.2-3.6-0.2h-5.2c-3.5,0-4.9-0.2-6.1-0.8c-1.4-0.7-2-2.2-2-4.8c0-3.4,1-4.8,3.7-5.5c1.5-0.4,3.7-0.5,7.9-0.5
	c6.6,0,8.2,0.2,9.5,1c1.3,0.9,1.7,2,1.7,4.9h-5.6c0-1.6-0.6-1.9-4.3-1.9c-1.8,0-4.3,0.1-5.2,0.1c-1.5,0.1-2,0.5-2,1.6
	c0,0.8,0.4,1.3,1.2,1.5c0.3,0.1,0.5,0.1,2.3,0.1h5.4c0.5,0,3.1,0.1,4,0.1c3.6,0.2,5,1.8,5,5.6c0,3.5-1,5-3.8,5.6
	c-1.4,0.3-4.2,0.5-8.3,0.5c-6.5,0-8-0.1-9.7-1c-1.2-0.6-1.8-2-1.8-4.3c0-0.2,0-0.5,0-0.9L543.2,91.5L543.2,91.5z"/>
<polygon class="st0" points="570.6,83.3 562.2,83.3 562.2,78.6 584.7,78.6 584.7,83.3 576.3,83.3 576.3,97.5 570.6,97.5 "/>
<path class="st0" d="M591.5,78.6h7.7l10.3,18.9h-6.3l-1.9-3.4h-12.2l-1.8,3.4h-6.5L591.5,78.6L591.5,78.6z M599.4,90.2l-4.1-7.5
	l-4,7.5H599.4L599.4,90.2z"/>
<polygon class="st0" points="614.9,83.3 606.5,83.3 606.5,78.6 629.1,78.6 629.1,83.3 620.7,83.3 620.7,97.5 614.9,97.5 "/>
<polygon class="st0" points="631.6,78.6 637.4,78.6 637.4,97.5 631.6,97.5 "/>
<path class="st0" d="M660.6,78.7c2.9,0.5,4.3,2,4.7,5.1c0.1,0.8,0.2,2.3,0.2,4.6c0,4.6-0.5,6.4-2.1,7.7c-1.1,1-2.7,1.4-5.5,1.5
	c-1,0.1-3.5,0.1-5.4,0.1c-4.5,0-6.8-0.1-7.9-0.3c-2.1-0.4-3.3-1.2-4-2.6s-0.9-2.8-0.9-6.9c0-3.2,0.1-4,0.4-5.2
	c0.5-2,1.6-3.1,3.8-3.7c1.6-0.5,3.3-0.6,8.3-0.6C657.5,78.4,659.2,78.5,660.6,78.7L660.6,78.7z M646.4,83.7c-0.8,0.6-1,1.5-1,4.3
	s0.2,3.8,0.9,4.4c0.8,0.6,1.7,0.7,6,0.7c5,0,6-0.2,6.6-1.1c0.5-0.7,0.7-1.6,0.7-4.2c0-4.8-0.1-4.8-7.2-4.8
	C648.3,83,647.2,83.2,646.4,83.7L646.4,83.7z"/>
<polygon class="st0" points="667.9,78.6 677,78.6 688.5,93 688.4,78.6 693.8,78.6 693.8,97.5 684.6,97.5 673.3,83.3 673.4,97.5 
	667.9,97.5 "/>
<path class="st1" d="M112.1,540.8h39.4 M131.8,579v-76.4 M546.3-2v39.4 M508.1,17.7h76.4 M941.2,540.8h39.4 M960.9,579v-76.4
	 M546.3,1044.2v39.4 M508.1,1064h76.4"/>
<path class="st0" d="M215.1,1072.4v-31.1l32.8,39.1c2,2.1,4.8,3.2,7.7,3.2c0.1,0,0.3,0,0.4,0h103.5v-22.8h-99.6l-30.4-34.4h30.2
	v-22.8h-66.9v68.8L215.1,1072.4L215.1,1072.4z"/>
<path class="st2" d="M215.1,1072.4v-31.1l32.8,39.1c2,2.1,4.8,3.2,7.7,3.2c0.1,0,0.3,0,0.4,0h103.5v-22.8h-99.6l-30.4-34.4h30.2
	v-22.8h-66.9v68.8L215.1,1072.4L215.1,1072.4z"/>
<polygon class="st0" points="193.3,647 193.3,649.3 899.4,649.3 899.4,647 "/>
<path class="st3" d="M712.7,265c103.3,0,187-28.4,187-63.3c0-35-83.7-63.3-187-63.3s-187,28.4-187,63.3S609.4,265,712.7,265
	L712.7,265z M712.7,392.4c103.3,0,187-28.4,187-63.3c0-35-83.7-63.3-187-63.3s-187,28.4-187,63.3
	C525.7,364.1,609.4,392.4,712.7,392.4L712.7,392.4z M712.7,628.1c103.3,0,187-28.4,187-63.3c0-35-83.7-63.3-187-63.3
	s-187,28.4-187,63.3C525.7,599.7,609.4,628.1,712.7,628.1L712.7,628.1z M379.9,500.6c103.3,0,187-28.4,187-63.3s-83.7-63.3-187-63.3
	s-187,28.4-187,63.3S276.6,500.6,379.9,500.6L379.9,500.6z"/>
<path class="st0" d="M363,659.4v1.5h-14.3v-1.5H363z"/>
<polyline class="st4" points="300.9,663.1 304.6,659.4 300.9,655.8 "/>
<line class="st5" x1="304.5" y1="659.4" x2="289" y2="659.4"/>
<polyline class="st4" points="417.5,663.1 421.2,659.4 417.5,655.8 "/>
<line class="st5" x1="421.1" y1="659.4" x2="405.6" y2="659.4"/>
<polyline class="st4" points="641.9,663.1 645.6,659.4 641.9,655.8 "/>
<line class="st5" x1="645.5" y1="659.4" x2="630" y2="659.4"/>
<path class="st0" d="M193.9,967.4h8.5c3.4,0,4.5,2.1,4.5,4.3c0,2.1-1.4,4.2-4.4,4.2h-5.6v5.2H194v-13.7H193.9z M196.8,973.8h4.7
	c1.6,0,2.5-0.4,2.5-2.1c0-1.7-1.2-2.1-2.3-2.1h-4.9V973.8z"/>
<path class="st0" d="M207.8,974.3c0-3.9,2.3-7.3,8.1-7.3s8.1,3.4,8.1,7.3c0,3.9-2.3,7.3-8.1,7.3C210,981.6,207.8,978.2,207.8,974.3z
	 M221,974.3c0-3-1.9-5.1-5.1-5.1c-3.2,0-5.1,2.1-5.1,5.1s1.9,5.1,5.1,5.1C219.1,979.4,221,977.3,221,974.3z"/>
<path class="st0" d="M223.4,967.4h3.1l3.1,10.7l0,0l3.4-10.7h3l3.5,10.7l0,0l3.2-10.7h3l-4.6,13.8H238l-3.4-10.6l0,0l-3.5,10.6H228
	L223.4,967.4z"/>
<path class="st0" d="M246.7,967.4h12v2.2h-9.1v3.5h8.7v2.2h-8.7v3.8h9.2v2.2h-12.1L246.7,967.4L246.7,967.4z"/>
<path class="st0" d="M260.5,967.4h8.7c3.5,0,4.7,1.6,4.7,3.7c0,1.8-1,2.9-2.3,3.3l0,0c1.6,0.3,2,1.8,2,3.7c0,0.7,0,2.2,0.6,3H271
	c-0.2-0.4-0.3-1.1-0.3-2.1c0-2-0.3-3.4-2.4-3.4h-4.9v5.4h-2.9L260.5,967.4L260.5,967.4z M268.4,973.6c1.6,0,2.5-0.5,2.5-2
	c0-1.4-0.9-2-2.5-2h-5v4H268.4z"/>
<path class="st0" d="M275.5,967.4h12v2.2h-9.1v3.5h8.7v2.2h-8.7v3.8h9.2v2.2h-12.1V967.4z"/>
<path class="st0" d="M289.2,967.4h7.4c5.4,0,6.7,3.1,6.7,7c0,3-1.4,6.8-6,6.8h-8.1V967.4z M292.1,979.1h4.1c2.1,0,4.3-0.7,4.3-4.7
	c0-4.5-2.8-4.7-4.5-4.7h-3.9V979.1z"/>
<path class="st0" d="M444.3,967.4h9.1c3.1,0,4,1.7,4,3.4c0,2-1.2,2.5-1.9,2.9c1.1,0.3,2.5,1.1,2.5,3.4c0,1.5-1,4.1-4.7,4.1h-9V967.4
	z M447.2,973h5.4c0.8,0,1.9-0.2,1.9-1.8c0-1.2-0.7-1.7-2.4-1.7h-4.9V973z M447.2,979.1h5.2c1.3,0,2.6-0.3,2.6-2c0-1.3-0.9-2-2.2-2
	h-5.6V979.1z"/>
<path class="st0" d="M463.6,976l-6-8.5h3.5l3.9,6.1l3.9-6.1h3.5l-6,8.5v5.2h-2.9V976H463.6z"/>
<path class="st0" d="M612.3,967.4h4.2l4.8,10.7l4.8-10.7h4.1v13.8h-2.7l0.1-11.4l0,0l-5.1,11.4H620l-5.1-11.4l0,0l0.1,11.4h-2.7
	V967.4z"/>
<path class="st0" d="M631.7,974.3c0-3.9,2.3-7.3,8.1-7.3s8.1,3.4,8.1,7.3c0,3.9-2.3,7.3-8.1,7.3S631.7,978.2,631.7,974.3z
	 M644.9,974.3c0-3-1.9-5.1-5.1-5.1s-5.1,2.1-5.1,5.1s1.9,5.1,5.1,5.1S644.9,977.3,644.9,974.3z"/>
<path class="st0" d="M649.3,967.4h7.4c5.4,0,6.7,3.1,6.7,7c0,3-1.4,6.8-6,6.8h-8.1L649.3,967.4L649.3,967.4z M652.2,979.1h4.1
	c2.1,0,4.3-0.7,4.3-4.7c0-4.5-2.8-4.7-4.5-4.7h-3.9L652.2,979.1L652.2,979.1z"/>
<path class="st0" d="M665,967.4h2.9v7.8c0,1.9,0.1,4.2,3.8,4.2c3.8,0,3.9-2.3,3.9-4.2v-7.8h2.9v7.9c0,2.3-0.1,6.3-6.8,6.3
	s-6.7-4-6.7-6.3L665,967.4L665,967.4z"/>
<path class="st0" d="M680.2,967.4h2.9v11.5h8.4v2.3h-11.3L680.2,967.4L680.2,967.4z"/>
<path class="st0" d="M698.9,967.4h3.4l6.1,13.8h-3.2l-1.4-3.4h-6.5l-1.4,3.4h-3.1L698.9,967.4z M702.9,975.6l-2.4-5.8l-2.4,5.8
	H702.9z"/>
<path class="st0" d="M709.5,967.4h8.7c3.5,0,4.7,1.6,4.7,3.7c0,1.8-1,2.9-2.3,3.3l0,0c1.6,0.3,2,1.8,2,3.7c0,0.7,0,2.2,0.6,3h-3.1
	c-0.2-0.4-0.3-1.1-0.3-2.1c0-2-0.3-3.4-2.4-3.4h-4.9v5.4h-2.9L709.5,967.4L709.5,967.4z M717.4,973.6c1.6,0,2.5-0.5,2.5-2
	c0-1.4-0.9-2-2.5-2h-5v4H717.4z"/>
<path class="st0" d="M737.4,974.3c0-3.9,2.3-7.3,8.1-7.3s8.1,3.4,8.1,7.3c0,3.9-2.3,7.3-8.1,7.3S737.4,978.2,737.4,974.3z
	 M750.6,974.3c0-3-1.9-5.1-5.1-5.1c-3.2,0-5.1,2.1-5.1,5.1s1.9,5.1,5.1,5.1C748.8,979.4,750.6,977.3,750.6,974.3z"/>
<path class="st0" d="M755.1,967.4h3.3l8.2,10.3l0,0v-10.3h2.8v13.8h-3.3l-8.3-10.3l0,0v10.3H755L755.1,967.4L755.1,967.4z"/>
<path class="st0" d="M789.9,969.6h-5.2v-2.2H798v2.2h-5.2v11.6h-2.9L789.9,969.6L789.9,969.6z"/>
<path class="st0" d="M799.4,967.4h2.9v5.4h8.6v-5.4h2.9v13.8h-2.9V975h-8.6v6.3h-2.9V967.4z"/>
<path class="st0" d="M815.5,967.4h12v2.2h-9.1v3.5h8.7v2.2h-8.7v3.8h9.2v2.2h-12.1L815.5,967.4L815.5,967.4z"/>
<path class="st0" d="M848.3,967c2.1,0,6.4,0.4,6.7,4.4h-3.1c-0.1-1.1-1.1-2.2-3.5-2.2c-1.9,0-3.2,0.6-3.2,1.9c0,3.3,10.3,0.1,10.3,6
	c0,3.6-3.7,4.5-6.6,4.5c-5,0-6.9-2-7-4.8h3.1c0.1,1.8,1.6,2.7,4,2.7c1.8,0,3.4-0.5,3.4-2c0-3.4-10.2-0.4-10.2-6.1
	C842.2,968.2,844.9,967,848.3,967z"/>
<path class="st0" d="M856.4,967.4h8.5c3.4,0,4.5,2.1,4.5,4.3c0,2.1-1.4,4.2-4.4,4.2h-5.6v5.2h-2.9L856.4,967.4L856.4,967.4z
	 M859.3,973.8h4.7c1.6,0,2.5-0.4,2.5-2.1c0-1.7-1.2-2.1-2.3-2.1h-4.9V973.8z"/>
<path class="st0" d="M870.3,974.3c0-3.9,2.3-7.3,8.1-7.3s8.1,3.4,8.1,7.3c0,3.9-2.3,7.3-8.1,7.3S870.3,978.2,870.3,974.3z
	 M883.5,974.3c0-3-1.9-5.1-5.1-5.1s-5.1,2.1-5.1,5.1s1.9,5.1,5.1,5.1S883.5,977.3,883.5,974.3z"/>
<path class="st0" d="M892.1,969.6h-5.2v-2.2h13.2v2.2H895v11.6h-2.9V969.6z"/>
<path class="st0" d="M199.2,986.4c2.1,0,6.4,0.4,6.7,4.4h-3.1c-0.1-1.1-1.1-2.2-3.5-2.2c-1.9,0-3.2,0.6-3.2,1.9
	c0,3.3,10.3,0.1,10.3,6c0,3.6-3.7,4.5-6.6,4.5c-5,0-6.9-2-7-4.8h3.1c0.1,1.8,1.6,2.7,4,2.7c1.8,0,3.4-0.5,3.4-2
	c0-3.4-10.2-0.4-10.2-6.1C193.2,987.6,195.9,986.4,199.2,986.4z"/>
<path class="st0" d="M211.5,995.3l-6-8.5h3.5l3.9,6.1l3.9-6.1h3.5l-6,8.5v5.2h-2.9v-5.2H211.5z"/>
<path class="st0" d="M221.1,986.8h3.3l8.2,10.3l0,0v-10.3h2.8v13.8h-3.3l-8.3-10.3l0,0v10.3H221v-13.8H221.1z"/>
<path class="st0" d="M241.4,989h-5.2v-2.2h13.2v2.2h-5.2v11.6h-2.9L241.4,989L241.4,989z"/>
<path class="st0" d="M250.3,986.8h2.9v5.4h8.6v-5.4h2.9v13.8h-2.9v-6.3h-8.6v6.3h-2.9L250.3,986.8L250.3,986.8z"/>
<path class="st0" d="M266.8,986.8h12v2.2h-9.1v3.5h8.7v2.2h-8.7v3.8h9.2v2.2h-12.1V986.8z"/>
<path class="st0" d="M285.9,986.4c2.1,0,6.4,0.4,6.7,4.4h-3.1c-0.1-1.1-1.1-2.2-3.5-2.2c-1.9,0-3.2,0.6-3.2,1.9
	c0,3.3,10.3,0.1,10.3,6c0,3.6-3.7,4.5-6.6,4.5c-5,0-6.9-2-7-4.8h3.1c0.1,1.8,1.6,2.7,4,2.7c1.8,0,3.4-0.5,3.4-2
	c0-3.4-10.2-0.4-10.2-6.1C279.9,987.6,282.6,986.4,285.9,986.4z"/>
<path class="st0" d="M294.5,986.8h2.9v13.8h-2.9V986.8z"/>
<path class="st0" d="M298.3,998.5l9.5-9.5H299v-2.2h12.6v2.1l-9.4,9.4h9.5v2.3h-13.4L298.3,998.5L298.3,998.5z"/>
<path class="st0" d="M312.9,986.8h12v2.2h-9.1v3.5h8.7v2.2h-8.7v3.8h9.2v2.2h-12.1V986.8z"/>
<path class="st0" d="M326.7,986.8h8.7c3.5,0,4.7,1.6,4.7,3.7c0,1.8-1,2.9-2.3,3.3l0,0c1.6,0.3,2,1.8,2,3.7c0,0.7,0,2.2,0.6,3h-3.1
	c-0.2-0.4-0.3-1.1-0.3-2.1c0-2-0.3-3.4-2.4-3.4h-4.9v5.4h-2.9v-13.6H326.7z M334.6,993c1.6,0,2.5-0.5,2.5-2c0-1.4-0.9-2-2.5-2h-5v4
	H334.6z"/>
<path class="st0" d="M385.7,986.8h7.4c5.4,0,6.7,3.1,6.7,7c0,3-1.4,6.8-6,6.8h-8.1V986.8z M388.6,998.4h4.1c2.1,0,4.3-0.7,4.3-4.7
	c0-4.5-2.8-4.7-4.5-4.7h-3.9V998.4z"/>
<path class="st0" d="M401.6,986.8h12v2.2h-9.1v3.5h8.7v2.2h-8.7v3.8h9.2v2.2h-12.1V986.8z"/>
<path class="st0" d="M415.3,986.8h4.2l4.8,10.7l4.8-10.7h4.1v13.8h-2.7l0.1-11.4l0,0l-5.1,11.4H423l-5.1-11.4l0,0l0.1,11.4h-2.7
	V986.8z"/>
<path class="st0" d="M434.7,993.7c0-3.9,2.3-7.3,8.1-7.3c5.8,0,8.1,3.4,8.1,7.3c0,3.9-2.3,7.3-8.1,7.3S434.7,997.6,434.7,993.7z
	 M447.9,993.7c0-3-1.9-5.1-5.1-5.1s-5.1,2.1-5.1,5.1s1.9,5.1,5.1,5.1S447.9,996.7,447.9,993.7z"/>
<path class="st0" d="M496.4,986.8h9.1c3.1,0,4,1.7,4,3.4c0,2-1.2,2.5-1.9,2.9c1.1,0.3,2.5,1.1,2.5,3.4c0,1.5-1,4.1-4.7,4.1h-9V986.8
	z M499.3,992.4h5.4c0.8,0,1.9-0.2,1.9-1.8c0-1.2-0.7-1.7-2.4-1.7h-4.9V992.4z M499.3,998.4h5.2c1.3,0,2.6-0.3,2.6-2
	c0-1.3-0.9-2-2.2-2h-5.6V998.4z"/>
<path class="st0" d="M515.6,995.3l-6-8.5h3.5l3.9,6.1l3.9-6.1h3.5l-6,8.5v5.2h-2.9L515.6,995.3L515.6,995.3z"/>
<path class="st0" d="M569.2,986.8h12v2.2h-9.1v3.5h8.7v2.2h-8.7v3.8h9.2v2.2h-12.1L569.2,986.8L569.2,986.8z"/>
<path class="st0" d="M583,986.8h2.9v11.5h8.4v2.3H583V986.8z"/>
<path class="st0" d="M595.9,986.8h12v2.2h-9.1v3.5h8.7v2.2h-8.7v3.8h9.2v2.2h-12.1L595.9,986.8L595.9,986.8z"/>
<path class="st0" d="M609.8,986.8h2.9v6.4l7-6.4h4l-6.4,5.6l6.8,8.2h-3.9l-5.2-6.4l-2.3,2.1v4.3h-2.9L609.8,986.8L609.8,986.8z"/>
<path class="st0" d="M629.6,989h-5.2v-2.2h13.2v2.2h-5.2v11.6h-2.9V989H629.6z"/>
<path class="st0" d="M638.8,986.8h8.7c3.5,0,4.7,1.6,4.7,3.7c0,1.8-1,2.9-2.3,3.3l0,0c1.6,0.3,2,1.8,2,3.7c0,0.7,0,2.2,0.6,3h-3.1
	c-0.2-0.4-0.3-1.1-0.3-2.1c0-2-0.3-3.4-2.4-3.4h-4.9v5.4h-2.9L638.8,986.8L638.8,986.8z M646.7,993c1.6,0,2.5-0.5,2.5-2
	c0-1.4-0.9-2-2.5-2h-5v4H646.7z"/>
<path class="st0" d="M653.3,993.7c0-3.9,2.3-7.3,8.1-7.3s8.1,3.4,8.1,7.3c0,3.9-2.3,7.3-8.1,7.3S653.3,997.6,653.3,993.7z
	 M666.6,993.7c0-3-1.9-5.1-5.1-5.1s-5.1,2.1-5.1,5.1s1.9,5.1,5.1,5.1S666.6,996.7,666.6,993.7z"/>
<path class="st0" d="M670.9,986.8h3.3l8.2,10.3l0,0v-10.3h2.8v13.8H682l-8.3-10.3l0,0v10.3h-2.8V986.8z"/>
<path class="st0" d="M701.3,986.8h4.2l4.8,10.7l4.8-10.7h4.1v13.8h-2.7l0.1-11.4l0,0l-5.1,11.4H709l-5.1-11.4l0,0l0.1,11.4h-2.7
	V986.8z"/>
<path class="st0" d="M721.5,986.8h2.9v7.8c0,1.9,0.1,4.2,3.8,4.2c3.8,0,3.9-2.3,3.9-4.2v-7.8h2.9v7.9c0,2.3-0.1,6.3-6.8,6.3
	s-6.7-4-6.7-6.3L721.5,986.8L721.5,986.8z"/>
<path class="st0" d="M742.5,986.4c2.1,0,6.4,0.4,6.7,4.4h-3.1c-0.1-1.1-1.1-2.2-3.5-2.2c-1.9,0-3.2,0.6-3.2,1.9
	c0,3.3,10.3,0.1,10.3,6c0,3.6-3.7,4.5-6.6,4.5c-5,0-6.9-2-7-4.8h3.1c0.1,1.8,1.6,2.7,4,2.7c1.8,0,3.4-0.5,3.4-2
	c0-3.4-10.2-0.4-10.2-6.1C736.4,987.6,739.2,986.4,742.5,986.4z"/>
<path class="st0" d="M751,986.8h2.9v13.8H751V986.8z"/>
<path class="st0" d="M767.3,991.9c-0.3-2.1-2-3.3-4.4-3.3c-2.7,0-4.7,1.8-4.7,5.4c0,2.9,2,4.9,4.8,4.9c3,0,4-2,4.2-3.5h3.1
	c-0.4,2.7-2.2,5.7-7.9,5.7c-5,0-7.4-3.4-7.4-7.3c0-3.9,2.3-7.3,7.7-7.3c4.7,0,7.2,2.5,7.5,5.5h-2.9V991.9z"/>
<path class="st0" d="M785.2,986.8h4.2l4.8,10.7l4.8-10.7h4.1v13.8h-2.7l0.1-11.4l0,0l-5.1,11.4h-2.5l-5.1-11.4l0,0l0.1,11.4h-2.7
	L785.2,986.8L785.2,986.8z"/>
<path class="st0" d="M810,986.8h3.4l6.1,13.8h-3.2l-1.4-3.4h-6.5l-1.4,3.4h-3.1L810,986.8z M814,995l-2.4-5.8l-2.4,5.8H814z"/>
<path class="st0" d="M830.9,991.9c-0.3-2.1-2-3.3-4.4-3.3c-2.7,0-4.7,1.8-4.7,5.4c0,2.9,2,4.9,4.8,4.9c3,0,4-2,4.2-3.5h3.1
	c-0.4,2.7-2.2,5.7-7.9,5.7c-5,0-7.4-3.4-7.4-7.3c0-3.9,2.3-7.3,7.7-7.3c4.7,0,7.2,2.5,7.5,5.5h-2.9V991.9z"/>
<path class="st0" d="M835.6,986.8h2.9v5.4h8.6v-5.4h2.9v13.8h-2.9v-6.3h-8.6v6.3h-2.9V986.8z"/>
<path class="st0" d="M852.2,986.8h2.9v13.8h-2.9V986.8z"/>
<path class="st0" d="M856.9,986.8h3.3l8.2,10.3l0,0v-10.3h2.8v13.8H868l-8.3-10.3l0,0v10.3h-2.8V986.8z"/>
<path class="st0" d="M873.5,986.8h12v2.2h-9.1v3.5h8.7v2.2h-8.7v3.8h9.2v2.2h-12.1L873.5,986.8L873.5,986.8z"/>
<path class="st0" d="M892.6,986.4c2.1,0,6.4,0.4,6.7,4.4h-3.1c-0.1-1.1-1.1-2.2-3.5-2.2c-1.9,0-3.2,0.6-3.2,1.9
	c0,3.3,10.3,0.1,10.3,6c0,3.6-3.7,4.5-6.6,4.5c-5,0-6.9-2-7-4.8h3.1c0.1,1.8,1.6,2.7,4,2.7c1.8,0,3.4-0.5,3.4-2
	c0-3.4-10.2-0.4-10.2-6.1C886.5,987.6,889.3,986.4,892.6,986.4z"/>
<path class="st0" d="M289,137.3h-4.8l-4.8,7.2v-2.4l-4.8-4.8h-4.8l-4.3,6.4c-0.2,0.2-0.5,0.1-0.5-0.2v-1.4l-4.8-4.8h-4.8l-4.8,7.2
	v-2.4l-4.8-4.8H241l-9.7,14.5v4.8h4.8l9.1-13.7c0.2-0.2,0.5-0.1,0.5,0.2v3.8h2.7c0.2,0,0.4,0.3,0.2,0.5l-2.9,4.4v4.8h4.8l9.1-13.7
	c0.2-0.2,0.5-0.1,0.5,0.2v8.7v4.8h4.8L274,143c0.2-0.2,0.5-0.1,0.5,0.2v3.8h2.7c0.2,0,0.4,0.3,0.2,0.5l-2.9,4.4v4.8h4.8l9.1-13.7
	c0.2-0.2,0.5-0.1,0.5,0.2v13.5h4.8v-14.5L289,137.3L289,137.3z"/>
<line class="st6" x1="192.9" y1="149" x2="205" y2="149"/>
<path class="st0" d="M195.1,145v-4.1h-1.5v-0.5c0.2,0,0.4,0,0.6,0c0.2,0,0.3-0.1,0.5-0.2c0.1-0.1,0.3-0.2,0.4-0.3
	c0.1-0.1,0.2-0.3,0.2-0.5h0.5v5.7L195.1,145L195.1,145z"/>
<path class="st0" d="M198.5,144.1v0.9h-0.9v-0.9H198.5z"/>
<path class="st0" d="M202.8,139.2l2.2,5.7h-0.8l-0.6-1.7h-2.4l-0.6,1.7h-0.8l2.2-5.7H202.8z M203.4,142.6l-1-2.7l0,0l-1,2.7H203.4z"
	/>
<line class="st6" x1="346.1" y1="148.8" x2="358.5" y2="148.8"/>
<path class="st0" d="M348.3,144.8v-4.1h-1.5v-0.5c0.2,0,0.4,0,0.6,0s0.3-0.1,0.5-0.2c0.1-0.1,0.3-0.2,0.4-0.3s0.2-0.3,0.2-0.5h0.5
	v5.7L348.3,144.8L348.3,144.8z"/>
<path class="st0" d="M351.6,143.9v0.9h-0.9v-0.9H351.6z"/>
<path class="st0" d="M355.7,139c0.1,0,0.3,0,0.4,0s0.3,0,0.4,0s0.3,0,0.4,0.1c0.1,0,0.2,0.1,0.3,0.1c0.2,0.1,0.3,0.3,0.5,0.5
	c0.1,0.2,0.2,0.4,0.2,0.7s-0.1,0.6-0.2,0.8s-0.4,0.4-0.6,0.5l0,0c0.4,0.1,0.6,0.2,0.8,0.5c0.2,0.2,0.3,0.5,0.3,0.9
	c0,0.2,0,0.4-0.1,0.6c-0.1,0.2-0.2,0.4-0.3,0.5c-0.1,0.2-0.3,0.3-0.5,0.4c-0.2,0.1-0.5,0.1-0.8,0.1h-2.8V139H355.7z M355.9,141.5
	c0.4,0,0.7-0.1,0.9-0.2c0.2-0.2,0.3-0.4,0.3-0.7c0-0.2,0-0.4-0.1-0.5s-0.2-0.2-0.3-0.3c-0.1-0.1-0.2-0.1-0.4-0.1c-0.1,0-0.3,0-0.5,0
	h-1.5v1.8H355.9z M356.3,144.1c0.3,0,0.6-0.1,0.8-0.3c0.2-0.2,0.3-0.4,0.3-0.8c0-0.2,0-0.3-0.1-0.5c-0.1-0.1-0.2-0.2-0.3-0.3
	c-0.1-0.1-0.2-0.1-0.4-0.2c-0.2,0-0.3,0-0.5,0h-1.7v2h1.9V144.1z"/>
<path class="st0" d="M864.8,85v-2.9h2.9c0,0-0.4-0.9-0.4-1.3h-3.8v3.8C863.9,84.6,864.8,85,864.8,85L864.8,85z M897.8,84.6
	c-0.4,0-1.4,0.4-1.4,0.4v-2.9h-2.9c0,0,0.5-0.9,0.5-1.3h2.4h1.4V84.6L897.8,84.6z M864.8,110.8v2.9h2.9c0,0-0.4,0.9-0.4,1.3h-3.8
	v-3.8C863.9,111.2,864.8,110.8,864.8,110.8L864.8,110.8z M896.5,110.8v2.9h-2.9c0,0,0.4,0.9,0.4,1.3h3.8v-3.8
	C897.4,111.2,896.5,110.8,896.5,110.8L896.5,110.8z"/>
<path class="st0" d="M866.3,89.6c-0.2-0.2-0.2-5.8,0-6s5.8-0.2,6,0s0.2,5.8,0,6C872.1,89.7,866.5,89.7,866.3,89.6L866.3,89.6z
	 M873.9,89.6c-0.2-0.2-0.2-5.8,0-6s5.8-0.2,6,0s0.2,5.8,0,6C879.7,89.7,874.1,89.7,873.9,89.6L873.9,89.6z M881.5,89.6
	c-0.2-0.2-0.2-5.8,0-6s5.8-0.2,6,0s0.2,5.8,0,6C887.3,89.7,881.6,89.7,881.5,89.6L881.5,89.6z M889.1,89.6c-0.2-0.2-0.2-5.8,0-6
	s5.8-0.2,6,0s0.2,5.8,0,6C894.9,89.7,889.2,89.7,889.1,89.6L889.1,89.6z M866.3,97.1c-0.2-0.2-0.2-5.8,0-6s5.8-0.2,6,0s0.2,5.8,0,6
	C872.1,97.3,866.5,97.3,866.3,97.1L866.3,97.1z M873.9,97.1c-0.2-0.2-0.2-5.8,0-6s5.8-0.2,6,0s0.2,5.8,0,6
	C879.7,97.3,874.1,97.3,873.9,97.1L873.9,97.1z M881.5,97.1c-0.2-0.2-0.2-5.8,0-6s5.8-0.2,6,0s0.2,5.8,0,6
	C887.3,97.3,881.6,97.3,881.5,97.1L881.5,97.1z M889.1,97.1c-0.2-0.2-0.2-5.8,0-6s5.8-0.2,6,0s0.2,5.8,0,6
	C894.9,97.3,889.2,97.3,889.1,97.1L889.1,97.1z M866.3,104.7c-0.2-0.2-0.2-5.8,0-6s5.8-0.2,6,0s0.2,5.8,0,6
	C872.1,104.9,866.5,104.9,866.3,104.7L866.3,104.7z M873.9,104.7c-0.2-0.2-0.2-5.8,0-6s5.8-0.2,6,0s0.2,5.8,0,6
	C879.7,104.9,874.1,104.9,873.9,104.7L873.9,104.7z M881.5,104.7c-0.2-0.2-0.2-5.8,0-6s5.8-0.2,6,0s0.2,5.8,0,6
	C887.3,104.9,881.6,104.9,881.5,104.7L881.5,104.7z M889.1,104.7c-0.2-0.2-0.2-5.8,0-6s5.8-0.2,6,0s0.2,5.8,0,6
	C894.9,104.9,889.2,104.9,889.1,104.7L889.1,104.7z M866.3,112.3c-0.2-0.2-0.2-5.8,0-6s5.8-0.2,6,0s0.2,5.8,0,6
	S866.5,112.5,866.3,112.3L866.3,112.3z M873.9,112.3c-0.2-0.2-0.2-5.8,0-6s5.8-0.2,6,0s0.2,5.8,0,6S874.1,112.5,873.9,112.3
	L873.9,112.3z M881.5,112.3c-0.2-0.2-0.2-5.8,0-6s5.8-0.2,6,0s0.2,5.8,0,6S881.6,112.5,881.5,112.3L881.5,112.3z M889.1,112.3
	c-0.2-0.2-0.2-5.8,0-6s5.8-0.2,6,0s0.2,5.8,0,6C894.9,112.5,889.2,112.5,889.1,112.3L889.1,112.3z"/>
<path class="st7" d="M776.4,1083.6c-0.4,0.3-1,0.4-1.8,0.4c-1.3,0-2.1-0.7-2.1-2.3c-1.4,1.6-3.2,2.3-5.3,2.3c-2.7,0-5-1.2-5-4.2
	c0-3.4,2.5-4.1,5.1-4.6c2.7-0.5,5-0.3,5-2.2c0-2.2-1.8-2.5-3.3-2.5c-2.1,0-3.6,0.6-3.7,2.8h-2.5c0.1-3.7,3-5,6.3-5
	c2.7,0,5.6,0.6,5.6,4.1v7.7c0,1.2,0,1.7,0.8,1.7c0.2,0,0.5-0.1,0.8-0.1v1.9H776.4z M772.4,1075.9c-1.9,1.4-7.5,0-7.5,3.7
	c0,1.6,1.4,2.2,2.9,2.2c3.2,0,4.6-2,4.6-3.4V1075.9z"/>
<path class="st7" d="M778,1063h2.5v7.7h0.1c0.8-1.7,2.7-2.4,4.8-2.4c4.6,0,6.9,3.6,6.9,7.9s-2.3,7.8-6.8,7.8c-1.5,0-3.8-0.6-4.8-2.3
	h-0.1v2H778V1063z M784.9,1070.5c-3.3,0-4.6,2.9-4.6,5.6c0,2.9,1.3,5.7,4.7,5.7s4.5-2.9,4.5-5.8
	C789.5,1073.2,788.1,1070.5,784.9,1070.5z"/>
<path class="st8" d="M123.7,101h31.1l-39.1,32.8c-2.1,2-3.2,4.8-3.2,7.7c0,0.1,0,0.3,0,0.4v103.5h22.8v-99.6l34.4-30.4v30.2h22.8
	V78.8h-68.8L123.7,101L123.7,101z"/>
<path class="st3" d="M123.7,101h31.1l-39.1,32.8c-2.1,2-3.2,4.8-3.2,7.7c0,0.1,0,0.3,0,0.4v103.5h22.8v-99.6l34.4-30.4v30.2h22.8
	V78.8h-68.8L123.7,101L123.7,101z"/>
<path class="st8" d="M877.5,9.6v31.1L844.7,1.6c-2-2.1-4.8-3.2-7.7-3.2c-0.1,0-0.3,0-0.4,0H733.1v22.8h99.6l30.4,34.4h-30.2v22.8
	h66.9V9.6H877.5L877.5,9.6z"/>
<path class="st3" d="M877.5,9.6v31.1L844.7,1.6c-2-2.1-4.8-3.2-7.7-3.2c-0.1,0-0.3,0-0.4,0H733.1v22.8h99.6l30.4,34.4h-30.2v22.8
	h66.9V9.6H877.5L877.5,9.6z"/>
<path class="st0" d="M766.6,374.4h-63.7L639.2,470v-31.9l-63.7-63.7h-63.7l-56.7,85c-2.1,3.2-7.1,1.7-7.1-2.1v-19.1l-63.7-63.7
	h-63.7L256.8,470v-31.9l-63.7-63.7h-63.7L1.9,565.5v63.7h63.7l120.2-180.3c2.2-3.2,7.2-1.7,7.2,2.2v50.7h35.1c3.2,0,5,3.5,3.3,6.1
	L193,565.5v63.7h63.7L377,448.9c2.2-3.2,7.2-1.7,7.2,2.2v114.4v63.7H448l120.2-180.3c2.2-3.2,7.2-1.7,7.2,2.2v50.7h35.1
	c3.2,0,5,3.5,3.3,6.1l-38.4,57.6v63.7h63.7l120.2-180.3c2.2-3.2,7.2-1.7,7.2,2.2v178.2h63.7V438.1L766.6,374.4L766.6,374.4z"/>
<path class="st0" d="M1027.2,137.9h-63.7l-63.7,95.6v-31.9L836,137.9h-63.7l-56.7,85c-2.1,3.2-7.1,1.7-7.1-2.1v-19.1L644.8,138
	h-63.7l-63.7,95.6v-31.9L453.7,138H390L262.4,329.1v63.7h63.7l120.2-180.3c2.2-3.2,7.2-1.7,7.2,2.2v50.7h35.1c3.2,0,5,3.5,3.3,6.1
	l-38.4,57.6v63.7h63.7l120.2-180.3c2.2-3.2,7.2-1.7,7.2,2.2v114.4v63.7h63.7l120.2-180.3c2.2-3.2,7.2-1.7,7.2,2.2v50.7h35.1
	c3.2,0,5,3.5,3.3,6.1L836,329.1v63.7h63.7L1020,212.5c2.2-3.2,7.2-1.7,7.2,2.2v178.2h63.7V201.7L1027.2,137.9L1027.2,137.9z"/>
<polygon class="st0" points="1018.5,78.6 1027.6,78.6 1034.5,91.2 1041.4,78.6 1050.4,78.6 1050.4,97.5 1044.8,97.5 1045.1,82.9 
	1036.7,97.5 1032.1,97.5 1023.9,82.9 1024,97.5 1018.5,97.5 "/>
<path class="st0" d="M1073.6,78.7c2.9,0.5,4.3,2,4.7,5.1c0.1,0.8,0.2,2.3,0.2,4.6c0,4.6-0.5,6.4-2.1,7.7c-1.1,1-2.7,1.4-5.5,1.5
	c-1,0.1-3.5,0.1-5.4,0.1c-4.5,0-6.8-0.1-7.9-0.3c-2.1-0.4-3.3-1.2-4-2.6s-0.9-2.8-0.9-6.9c0-3.2,0.1-4,0.4-5.2
	c0.5-2,1.6-3.1,3.8-3.7c1.6-0.5,3.3-0.6,8.3-0.6C1070.6,78.4,1072.2,78.5,1073.6,78.7L1073.6,78.7z M1059.5,83.7
	c-0.8,0.6-1,1.5-1,4.3s0.2,3.8,0.9,4.4c0.8,0.6,1.7,0.7,6,0.7c5,0,6-0.2,6.6-1.1c0.5-0.7,0.7-1.6,0.7-4.2c0-4.8-0.1-4.8-7.2-4.8
	C1061.4,83,1060.2,83.2,1059.5,83.7L1059.5,83.7z"/>
<path class="st0" d="M1080.9,78.6h16.3c4,0,5.9,0.5,7.2,1.8c1,1,1.5,2.2,1.7,4.6c0.1,0.9,0.1,2.2,0.1,3.1c0,1.7-0.1,3.7-0.3,4.7
	c-0.3,2.3-1.9,4-4,4.4c-1.1,0.2-1.9,0.3-3.9,0.3h-17.1L1080.9,78.6L1080.9,78.6z M1096.3,93c1.6,0,1.7,0,2.4-0.2
	c1.4-0.4,1.8-1.4,1.8-4.7c0-4-0.7-4.8-4-4.8h-9.7V93H1096.3L1096.3,93z"/>
<path class="st0" d="M1114.3,78.6v8.2V88c0,2.1,0,2.1,0.1,2.6c0.3,2.1,1.2,2.6,5.5,2.6s5.5-0.1,6.2-0.7c0.6-0.4,0.9-1.2,0.9-2.7
	c0-0.4,0-0.4,0-2.5v-8.7h5.8v9.9c0.1,4.7-0.3,6.1-2,7.6c-1.4,1-3.1,1.5-5.5,1.5c-0.9,0-1.4,0-2.5,0h-2.2c-5.3,0-6.4-0.1-7.8-0.5
	c-3.4-1-4.3-2.8-4.3-8.4V78.6H1114.3L1114.3,78.6z"/>
<polygon class="st0" points="1135.3,78.6 1141,78.6 1141,92.8 1154,92.8 1154,97.5 1135.3,97.5 "/>
<path class="st0" d="M1165.7,78.6h7.7l10.3,18.9h-6.3l-1.9-3.4h-12.2l-1.8,3.4h-6.5L1165.7,78.6L1165.7,78.6z M1173.6,90.2l-4.1-7.5
	l-4,7.5H1173.6L1173.6,90.2z"/>
<path class="st0" d="M1185.4,78.6h16.3c3.3,0,4.8,0.3,5.9,1.2c1.1,0.9,1.6,2.5,1.6,5c0,3.5-0.8,4.9-3.3,5.4c2.4,0.4,3.1,1.4,3,4.3v3
	h-5.8v-2.4c0-2-0.6-2.5-3.2-2.4h-8.8v4.8h-5.7V78.6L1185.4,78.6z M1200.1,88.1c2.8,0,3.3-0.3,3.3-2.2c0-1.2-0.1-1.7-0.5-2.1
	c-0.4-0.5-0.9-0.5-2.6-0.5h-9.2v4.9h9V88.1z"/>
<polygon class="st0" points="1218.1,78.6 1227.3,78.6 1234.2,91.2 1241,78.6 1250.1,78.6 1250.1,97.5 1244.5,97.5 1244.8,82.9 
	1236.4,97.5 1231.8,97.5 1223.5,82.9 1223.7,97.5 1218.1,97.5 "/>
<path class="st0" d="M1261.8,78.6h7.7l10.3,18.9h-6.3l-1.9-3.4h-12.2l-1.8,3.4h-6.5L1261.8,78.6L1261.8,78.6z M1269.7,90.2l-4.1-7.5
	l-4,7.5H1269.7L1269.7,90.2z"/>
<polygon class="st0" points="1281,78.6 1290.1,78.6 1301.6,93 1301.5,78.6 1306.9,78.6 1306.9,97.5 1297.7,97.5 1286.4,83.3 
	1286.5,97.5 1281,97.5 "/>
<polygon class="st0" points="1309.4,78.6 1315.2,78.6 1315.2,97.5 1309.4,97.5 "/>
<polygon class="st0" points="1317.7,78.6 1337.8,78.6 1337.8,82.9 1323.5,82.9 1323.5,86.7 1337.1,86.7 1337.1,90.9 1323.5,90.9 
	1323.5,97.5 1317.7,97.5 "/>
<polygon class="st0" points="1361,78.6 1361,82.9 1345.8,82.9 1345.8,86.2 1360.2,86.2 1360.2,89.9 1345.8,89.9 1345.8,93.2 
	1361.2,93.2 1361.2,97.5 1340.1,97.5 1340.1,78.6 "/>
<path class="st0" d="M1369.2,91.5c0.1,1.3,0.2,1.6,0.9,1.9c0.4,0.2,2,0.3,3.9,0.3c6.7,0,7.5-0.2,7.5-1.8c0-0.8-0.4-1.3-1-1.5
	s-0.6-0.2-3.6-0.2h-5.2c-3.5,0-4.9-0.2-6.1-0.8c-1.4-0.7-2-2.2-2-4.8c0-3.4,1-4.8,3.7-5.5c1.5-0.4,3.7-0.5,7.9-0.5
	c6.6,0,8.2,0.2,9.5,1c1.3,0.9,1.7,2,1.7,4.9h-5.6c0-1.6-0.6-1.9-4.3-1.9c-1.8,0-4.3,0.1-5.2,0.1c-1.5,0.1-2,0.5-2,1.6
	c0,0.8,0.4,1.3,1.2,1.5c0.3,0.1,0.5,0.1,2.3,0.1h5.4c0.5,0,3.1,0.1,4,0.1c3.6,0.2,5,1.8,5,5.6c0,3.5-1,5-3.8,5.6
	c-1.4,0.3-4.2,0.5-8.3,0.5c-6.5,0-8-0.1-9.7-1c-1.2-0.6-1.8-2-1.8-4.3c0-0.2,0-0.5,0-0.9L1369.2,91.5L1369.2,91.5z"/>
<polygon class="st0" points="1396.6,83.3 1388.2,83.3 1388.2,78.6 1410.7,78.6 1410.7,83.3 1402.3,83.3 1402.3,97.5 1396.6,97.5 "/>
<path class="st0" d="M1417.5,78.6h7.7l10.3,18.9h-6.3l-1.9-3.4h-12.2l-1.8,3.4h-6.5L1417.5,78.6L1417.5,78.6z M1425.4,90.2l-4.1-7.5
	l-4,7.5H1425.4L1425.4,90.2z"/>
<polygon class="st0" points="1440.9,83.3 1432.5,83.3 1432.5,78.6 1455.1,78.6 1455.1,83.3 1446.7,83.3 1446.7,97.5 1440.9,97.5 "/>
<polygon class="st0" points="1457.6,78.6 1463.4,78.6 1463.4,97.5 1457.6,97.5 "/>
<path class="st0" d="M1486.6,78.7c2.9,0.5,4.3,2,4.7,5.1c0.1,0.8,0.2,2.3,0.2,4.6c0,4.6-0.5,6.4-2.1,7.7c-1.1,1-2.7,1.4-5.5,1.5
	c-1,0.1-3.5,0.1-5.4,0.1c-4.5,0-6.8-0.1-7.9-0.3c-2.1-0.4-3.3-1.2-4-2.6s-0.9-2.8-0.9-6.9c0-3.2,0.1-4,0.4-5.2
	c0.5-2,1.6-3.1,3.8-3.7c1.6-0.5,3.3-0.6,8.3-0.6C1483.5,78.4,1485.2,78.5,1486.6,78.7L1486.6,78.7z M1472.4,83.7
	c-0.8,0.6-1,1.5-1,4.3s0.2,3.8,0.9,4.4c0.8,0.6,1.7,0.7,6,0.7c5,0,6-0.2,6.6-1.1c0.5-0.7,0.7-1.6,0.7-4.2c0-4.8-0.1-4.8-7.2-4.8
	C1474.3,83,1473.2,83.2,1472.4,83.7L1472.4,83.7z"/>
<polygon class="st0" points="1493.9,78.6 1503,78.6 1514.5,93 1514.4,78.6 1519.8,78.6 1519.8,97.5 1510.6,97.5 1499.3,83.3 
	1499.4,97.5 1493.9,97.5 "/>
<path class="st1" d="M938.1,540.8h39.4 M957.8,579v-76.4 M1372.3-2v39.4 M1334.1,17.7h76.4 M1767.2,540.8h39.4 M1786.9,579v-76.4
	 M1372.3,1044.2v39.4 M1334.1,1064h76.4"/>
<path class="st0" d="M1794.9,980.6h-31.1l39.1-32.8c2.1-2,3.2-4.8,3.2-7.7c0-0.1,0-0.3,0-0.4V836.2h-22.8v99.6l-34.4,30.4V936h-22.8
	v66.9h68.8L1794.9,980.6L1794.9,980.6z"/>
<path class="st2" d="M1794.9,980.6h-31.1l39.1-32.8c2.1-2,3.2-4.8,3.2-7.7c0-0.1,0-0.3,0-0.4V836.2h-22.8v99.6l-34.4,30.4V936h-22.8
	v66.9h68.8L1794.9,980.6L1794.9,980.6z"/>
<path class="st0" d="M1041.1,1072.4v-31.1l32.8,39.1c2,2.1,4.8,3.2,7.7,3.2c0.1,0,0.3,0,0.4,0h103.5v-22.8h-99.6l-30.4-34.4h30.2
	v-22.8h-66.9v68.8L1041.1,1072.4L1041.1,1072.4z"/>
<path class="st2" d="M1041.1,1072.4v-31.1l32.8,39.1c2,2.1,4.8,3.2,7.7,3.2c0.1,0,0.3,0,0.4,0h103.5v-22.8h-99.6l-30.4-34.4h30.2
	v-22.8h-66.9v68.8L1041.1,1072.4L1041.1,1072.4z"/>
<polygon class="st0" points="1019.3,647 1019.3,649.3 1725.4,649.3 1725.4,647 "/>
<path class="st3" d="M1538.7,265c103.3,0,187-28.4,187-63.3c0-35-83.7-63.3-187-63.3s-187,28.4-187,63.3S1435.4,265,1538.7,265
	L1538.7,265z M1538.7,392.4c103.3,0,187-28.4,187-63.3c0-35-83.7-63.3-187-63.3s-187,28.4-187,63.3
	C1351.7,364.1,1435.4,392.4,1538.7,392.4L1538.7,392.4z M1538.7,628.1c103.3,0,187-28.4,187-63.3c0-35-83.7-63.3-187-63.3
	s-187,28.4-187,63.3C1351.7,599.7,1435.4,628.1,1538.7,628.1L1538.7,628.1z M1205.9,500.6c103.3,0,187-28.4,187-63.3
	s-83.7-63.3-187-63.3s-187,28.4-187,63.3S1102.6,500.6,1205.9,500.6L1205.9,500.6z"/>
<path class="st0" d="M1189,659.4v1.5h-14.3v-1.5H1189z"/>
<path class="st0" d="M1689.1,665.5v-1.4l0,0c-0.3,0.6-0.7,1-1.3,1.2c-0.6,0.2-1.2,0.4-1.9,0.4c-0.8,0-1.4-0.1-2-0.4
	c-0.6-0.3-1-0.7-1.4-1.1c-0.4-0.5-0.7-1-0.9-1.7c-0.2-0.6-0.3-1.3-0.3-2s0.1-1.4,0.3-2c0.2-0.6,0.5-1.2,0.8-1.7
	c0.4-0.5,0.9-0.8,1.4-1.1s1.2-0.4,2-0.4c0.3,0,0.5,0,0.8,0.1s0.6,0.1,0.9,0.3c0.3,0.1,0.6,0.3,0.8,0.5c0.3,0.2,0.5,0.4,0.7,0.7l0,0
	v-5.1h1.6v13.8L1689.1,665.5L1689.1,665.5z M1683.2,662c0.1,0.4,0.3,0.8,0.6,1.2c0.3,0.3,0.6,0.6,1,0.8s0.9,0.3,1.4,0.3
	c0.6,0,1-0.1,1.4-0.3s0.7-0.5,0.9-0.9c0.2-0.4,0.4-0.8,0.5-1.2s0.2-0.9,0.2-1.4s-0.1-1-0.2-1.4c-0.1-0.5-0.3-0.9-0.6-1.2
	c-0.3-0.3-0.6-0.6-1-0.8s-0.9-0.3-1.4-0.3c-0.6,0-1,0.1-1.4,0.3s-0.7,0.5-0.9,0.9c-0.2,0.4-0.4,0.8-0.5,1.2
	c-0.1,0.5-0.2,0.9-0.2,1.4S1683.1,661.5,1683.2,662z"/>
<path class="st0" d="M1699.9,664.9c-0.7,0.6-1.7,0.8-2.8,0.8c-0.8,0-1.5-0.1-2.1-0.4c-0.6-0.3-1.1-0.6-1.5-1.1s-0.7-1-0.9-1.7
	c-0.2-0.6-0.3-1.3-0.3-2.1s0.1-1.5,0.3-2.1s0.6-1.2,1-1.6c0.4-0.5,0.9-0.8,1.5-1.1s1.2-0.4,1.9-0.4c0.9,0,1.6,0.2,2.2,0.6
	c0.6,0.4,1.1,0.8,1.4,1.4c0.4,0.6,0.6,1.2,0.7,1.9s0.2,1.3,0.2,1.9h-7.5c0,0.4,0,0.9,0.2,1.2c0.1,0.4,0.3,0.7,0.6,1
	c0.3,0.3,0.6,0.5,1,0.7s0.9,0.3,1.4,0.3c0.7,0,1.3-0.2,1.7-0.5c0.4-0.3,0.7-0.8,0.9-1.5h1.6C1701.1,663.5,1700.6,664.3,1699.9,664.9
	z M1699.5,658.5c-0.1-0.3-0.3-0.6-0.6-0.9c-0.3-0.3-0.5-0.5-0.9-0.6c-0.3-0.1-0.7-0.2-1.1-0.2s-0.8,0.1-1.1,0.2
	c-0.3,0.1-0.6,0.4-0.9,0.6c-0.2,0.3-0.4,0.6-0.6,0.9c-0.1,0.3-0.2,0.7-0.3,1.1h5.7C1699.7,659.2,1699.6,658.8,1699.5,658.5z"/>
<path class="st0" d="M1704.3,655.5v1.6l0,0c0.7-1.2,1.8-1.8,3.2-1.8c0.7,0,1.2,0.1,1.6,0.3s0.8,0.4,1.1,0.8c0.3,0.3,0.5,0.7,0.6,1.1
	c0.1,0.4,0.2,0.9,0.2,1.5v6.6h-1.6v-6.8c0-0.6-0.2-1.1-0.5-1.5s-0.9-0.5-1.5-0.5c-0.5,0-0.9,0.1-1.3,0.2c-0.4,0.2-0.7,0.4-0.9,0.7
	c-0.2,0.3-0.4,0.6-0.6,1c-0.1,0.4-0.2,0.8-0.2,1.2v5.6h-1.6v-10L1704.3,655.5L1704.3,655.5z"/>
<path class="st0" d="M1721.8,665.5c-0.3,0.2-0.7,0.3-1.2,0.3c-0.4,0-0.8-0.1-1-0.4c-0.3-0.2-0.4-0.6-0.4-1.2c-0.5,0.5-1,0.9-1.6,1.2
	c-0.6,0.2-1.2,0.4-1.9,0.4c-0.4,0-0.9-0.1-1.3-0.2c-0.4-0.1-0.8-0.3-1.1-0.5c-0.3-0.2-0.5-0.5-0.7-0.9s-0.3-0.8-0.3-1.3
	c0-0.6,0.1-1,0.3-1.4c0.2-0.4,0.4-0.7,0.8-0.9c0.3-0.2,0.7-0.4,1.1-0.5s0.8-0.2,1.2-0.3c0.5-0.1,0.9-0.2,1.3-0.2s0.8-0.1,1.1-0.2
	c0.3-0.1,0.6-0.2,0.7-0.4c0.2-0.2,0.3-0.4,0.3-0.7c0-0.4-0.1-0.6-0.2-0.9c-0.1-0.2-0.3-0.4-0.5-0.5s-0.5-0.2-0.7-0.2
	c-0.3,0-0.5-0.1-0.8-0.1c-0.7,0-1.3,0.1-1.7,0.4c-0.5,0.3-0.7,0.8-0.8,1.5h-1.6c0-0.6,0.2-1.1,0.4-1.6c0.2-0.4,0.5-0.8,0.9-1
	c0.4-0.3,0.8-0.5,1.3-0.6s1-0.2,1.6-0.2c0.5,0,0.9,0,1.3,0.1s0.8,0.2,1.2,0.4c0.4,0.2,0.7,0.5,0.9,0.8c0.2,0.4,0.3,0.8,0.3,1.4v5.1
	c0,0.4,0,0.7,0.1,0.8c0,0.2,0.2,0.3,0.5,0.3c0.1,0,0.3,0,0.5-0.1L1721.8,665.5L1721.8,665.5z M1719.2,660.4
	c-0.2,0.2-0.5,0.3-0.8,0.3c-0.3,0.1-0.7,0.1-1.1,0.2c-0.4,0-0.7,0.1-1.1,0.2c-0.4,0.1-0.7,0.2-1,0.3s-0.5,0.3-0.7,0.5
	s-0.3,0.6-0.3,1c0,0.3,0.1,0.5,0.2,0.7s0.3,0.3,0.4,0.5c0.2,0.1,0.4,0.2,0.6,0.2c0.2,0.1,0.5,0.1,0.7,0.1c0.5,0,1-0.1,1.4-0.2
	c0.4-0.1,0.7-0.3,0.9-0.6c0.2-0.2,0.4-0.5,0.5-0.7c0.1-0.3,0.2-0.5,0.2-0.7v-1.8H1719.2z"/>
<polyline class="st4" points="1126.9,663.1 1130.6,659.4 1126.9,655.8 "/>
<line class="st5" x1="1130.5" y1="659.4" x2="1115" y2="659.4"/>
<polyline class="st4" points="1243.5,663.1 1247.2,659.4 1243.5,655.8 "/>
<line class="st5" x1="1247.1" y1="659.4" x2="1231.6" y2="659.4"/>
<polyline class="st4" points="1467.9,663.1 1471.6,659.4 1467.9,655.8 "/>
<line class="st5" x1="1471.5" y1="659.4" x2="1456" y2="659.4"/>
<path class="st0" d="M1683.9,695.7c0-0.5,0.1-1.1,0.2-1.6s0.3-1,0.4-1.5c0.2-0.5,0.5-0.9,0.8-1.2s0.8-0.6,1.3-0.8s1.1-0.3,1.8-0.3
	c0.7,0,1.3,0.1,1.8,0.3s0.9,0.5,1.3,0.8c0.3,0.3,0.6,0.8,0.8,1.2c0.2,0.5,0.3,1,0.4,1.5s0.2,1,0.2,1.6c0,0.5,0,1.1,0,1.6s0,1,0,1.6
	c0,0.5-0.1,1.1-0.2,1.6s-0.3,1-0.4,1.5c-0.2,0.5-0.5,0.9-0.8,1.2s-0.8,0.6-1.3,0.8s-1.1,0.3-1.8,0.3c-0.7,0-1.3-0.1-1.8-0.3
	s-0.9-0.5-1.3-0.8c-0.3-0.3-0.6-0.7-0.8-1.2c-0.2-0.5-0.3-0.9-0.4-1.5c-0.1-0.5-0.2-1-0.2-1.6c0-0.5,0-1.1,0-1.6
	S1683.9,696.2,1683.9,695.7z M1685.6,698.9c0,0.6,0.1,1.2,0.3,1.8s0.5,1,0.8,1.4c0.4,0.4,0.9,0.6,1.6,0.6s1.2-0.2,1.6-0.6
	c0.4-0.4,0.7-0.9,0.8-1.4c0.2-0.6,0.3-1.2,0.3-1.8s0-1.2,0-1.7c0-0.3,0-0.7,0-1.1c0-0.4,0-0.8-0.1-1.2s-0.1-0.8-0.3-1.2
	c-0.1-0.4-0.3-0.7-0.5-1s-0.5-0.5-0.8-0.7s-0.7-0.3-1.2-0.3s-0.9,0.1-1.2,0.3c-0.3,0.2-0.6,0.4-0.8,0.7s-0.4,0.6-0.5,1
	s-0.2,0.8-0.3,1.2c-0.1,0.4-0.1,0.8-0.1,1.2s0,0.8,0,1.1C1685.6,697.7,1685.6,698.3,1685.6,698.9z"/>
<path class="st0" d="M1696.7,694v1.4l0,0c0.3-0.6,0.7-1,1.3-1.2c0.6-0.3,1.2-0.4,1.9-0.4c0.8,0,1.4,0.1,2,0.4c0.6,0.3,1,0.7,1.4,1.1
	c0.4,0.5,0.7,1,0.9,1.7c0.2,0.6,0.3,1.3,0.3,2s-0.1,1.4-0.3,2c-0.2,0.6-0.5,1.2-0.8,1.6c-0.4,0.5-0.9,0.8-1.4,1.1
	c-0.6,0.3-1.2,0.4-2,0.4c-0.2,0-0.5,0-0.8-0.1s-0.6-0.1-0.9-0.3c-0.3-0.1-0.6-0.3-0.8-0.5c-0.3-0.2-0.5-0.4-0.7-0.7l0,0v5.1h-1.6
	V694H1696.7z M1702.6,697.5c-0.1-0.4-0.3-0.8-0.6-1.2c-0.3-0.3-0.6-0.6-1-0.8s-0.9-0.3-1.4-0.3c-0.6,0-1,0.1-1.4,0.3
	s-0.7,0.5-0.9,0.9c-0.2,0.4-0.4,0.8-0.5,1.2c-0.1,0.5-0.2,0.9-0.2,1.4s0.1,1,0.2,1.4c0.1,0.5,0.3,0.9,0.5,1.2c0.3,0.3,0.6,0.6,1,0.8
	s0.9,0.3,1.4,0.3c0.6,0,1-0.1,1.4-0.3s0.7-0.5,0.9-0.9c0.2-0.4,0.4-0.8,0.5-1.2c0.1-0.5,0.2-0.9,0.2-1.4S1702.7,698,1702.6,697.5z"
	/>
<path class="st0" d="M1707.9,694v1.5l0,0c0.7-1.1,1.8-1.7,3.2-1.7c0.6,0,1.2,0.1,1.7,0.4c0.5,0.3,0.9,0.7,1.1,1.3
	c0.3-0.5,0.8-1,1.3-1.3s1.1-0.4,1.8-0.4c0.5,0,1,0.1,1.4,0.2c0.4,0.1,0.8,0.3,1,0.5c0.3,0.2,0.5,0.5,0.7,0.9s0.2,0.8,0.2,1.3v7.3
	h-1.6v-6.5c0-0.3,0-0.6-0.1-0.9c-0.1-0.3-0.1-0.5-0.3-0.7c-0.1-0.2-0.3-0.4-0.6-0.5c-0.3-0.1-0.6-0.2-1-0.2c-0.8,0-1.4,0.2-1.9,0.7
	s-0.7,1.1-0.7,1.9v6.2h-1.6v-6.5c0-0.3,0-0.6-0.1-0.9c-0.1-0.3-0.2-0.5-0.3-0.7c-0.1-0.2-0.3-0.4-0.6-0.5c-0.2-0.1-0.5-0.2-0.9-0.2
	c-0.5,0-0.9,0.1-1.2,0.3c-0.3,0.2-0.6,0.4-0.8,0.7c-0.2,0.3-0.4,0.5-0.5,0.8s-0.1,0.5-0.1,0.7v6.2h-1.6v-10h1.5V694z"/>
<path class="st0" d="M1722.9,703.4c0.4-1.4,0.6-3,0.6-4.5c0-1.6-0.2-3.2-0.6-4.6c-0.4-1.5-1-2.9-1.9-4.4h1.2
	c0.5,0.7,0.9,1.4,1.3,2.2c0.4,0.7,0.7,1.4,1,2.2c0.3,0.7,0.5,1.5,0.6,2.3s0.2,1.6,0.2,2.4c0,1.5-0.3,3-0.8,4.6
	c-0.5,1.5-1.3,3-2.3,4.3h-1.2C1721.9,706.3,1722.6,704.9,1722.9,703.4z"/>
<path class="st0" d="M1683.9,735.1c0-0.5,0.1-1.1,0.2-1.6s0.3-1,0.4-1.5c0.2-0.5,0.5-0.9,0.8-1.2s0.8-0.6,1.3-0.8s1.1-0.3,1.8-0.3
	c0.7,0,1.3,0.1,1.8,0.3s0.9,0.5,1.3,0.8c0.3,0.3,0.6,0.8,0.8,1.2c0.2,0.5,0.3,1,0.4,1.5s0.2,1,0.2,1.6c0,0.5,0,1.1,0,1.6s0,1,0,1.6
	c0,0.5-0.1,1.1-0.2,1.6s-0.3,1-0.4,1.5c-0.2,0.5-0.5,0.9-0.8,1.2s-0.8,0.6-1.3,0.8s-1.1,0.3-1.8,0.3c-0.7,0-1.3-0.1-1.8-0.3
	s-0.9-0.5-1.3-0.8c-0.3-0.3-0.6-0.7-0.8-1.2c-0.2-0.5-0.3-0.9-0.4-1.5c-0.1-0.5-0.2-1-0.2-1.6c0-0.5,0-1.1,0-1.6
	S1683.9,735.6,1683.9,735.1z M1685.7,738.4c0,0.6,0.1,1.2,0.3,1.8c0.2,0.6,0.5,1,0.8,1.4c0.4,0.4,0.9,0.6,1.6,0.6s1.2-0.2,1.6-0.6
	c0.4-0.4,0.7-0.9,0.8-1.4c0.2-0.6,0.3-1.2,0.3-1.8s0-1.2,0-1.7c0-0.3,0-0.7,0-1.1c0-0.4,0-0.8-0.1-1.2s-0.1-0.8-0.3-1.2
	c-0.1-0.4-0.3-0.7-0.5-1s-0.5-0.5-0.8-0.7s-0.7-0.3-1.2-0.3s-0.9,0.1-1.2,0.3c-0.3,0.2-0.6,0.4-0.8,0.7c-0.2,0.3-0.4,0.6-0.5,1
	s-0.2,0.8-0.3,1.2c-0.1,0.4-0.1,0.8-0.1,1.2s0,0.8,0,1.1C1685.6,737.1,1685.6,737.7,1685.7,738.4z"/>
<path class="st0" d="M1696.8,733.4v1.4l0,0c0.3-0.6,0.7-1,1.3-1.2c0.6-0.3,1.2-0.4,1.9-0.4c0.8,0,1.4,0.1,2,0.4
	c0.6,0.3,1,0.7,1.4,1.1c0.4,0.5,0.7,1,0.9,1.7c0.2,0.6,0.3,1.3,0.3,2s-0.1,1.4-0.3,2c-0.2,0.6-0.5,1.2-0.8,1.7
	c-0.4,0.5-0.9,0.8-1.4,1.1c-0.6,0.3-1.2,0.4-2,0.4c-0.2,0-0.5,0-0.8-0.1s-0.6-0.1-0.9-0.3c-0.3-0.1-0.6-0.3-0.8-0.5
	c-0.3-0.2-0.5-0.4-0.7-0.7l0,0v5.1h-1.6v-13.8L1696.8,733.4L1696.8,733.4z M1702.7,736.9c-0.1-0.4-0.3-0.8-0.6-1.2
	c-0.3-0.3-0.6-0.6-1-0.8s-0.9-0.3-1.4-0.3c-0.6,0-1,0.1-1.4,0.3s-0.7,0.5-0.9,0.9c-0.2,0.4-0.4,0.8-0.5,1.2
	c-0.1,0.5-0.2,0.9-0.2,1.4s0.1,1,0.2,1.4c0.1,0.5,0.3,0.9,0.5,1.2c0.3,0.3,0.6,0.6,1,0.8s0.9,0.3,1.4,0.3c0.6,0,1-0.1,1.4-0.3
	s0.7-0.5,0.9-0.9c0.2-0.4,0.4-0.8,0.5-1.2c0.1-0.5,0.2-0.9,0.2-1.4C1702.9,737.8,1702.9,737.4,1702.7,736.9z"/>
<path class="st0" d="M1708,733.4v1.5l0,0c0.7-1.1,1.8-1.7,3.2-1.7c0.6,0,1.2,0.1,1.7,0.4c0.5,0.3,0.9,0.7,1.1,1.3
	c0.3-0.5,0.8-1,1.3-1.3s1.1-0.4,1.8-0.4c0.5,0,1,0.1,1.4,0.2c0.4,0.1,0.8,0.3,1,0.5c0.3,0.2,0.5,0.5,0.7,0.9s0.2,0.8,0.2,1.3v7.3
	h-1.6v-6.5c0-0.3,0-0.6-0.1-0.9c-0.1-0.3-0.1-0.5-0.3-0.7c-0.1-0.2-0.3-0.4-0.6-0.5c-0.3-0.1-0.6-0.2-1-0.2c-0.8,0-1.4,0.2-1.9,0.7
	s-0.7,1.1-0.7,1.9v6.2h-1.6v-6.5c0-0.3,0-0.6-0.1-0.9c-0.1-0.3-0.2-0.5-0.3-0.7c-0.1-0.2-0.3-0.4-0.6-0.5c-0.2-0.1-0.5-0.2-0.9-0.2
	c-0.5,0-0.9,0.1-1.2,0.3c-0.3,0.2-0.6,0.4-0.8,0.7s-0.4,0.5-0.5,0.8s-0.1,0.5-0.1,0.7v6.2h-1.6v-10h1.5V733.4z"/>
<path class="st0" d="M1722.9,742.8c0.4-1.4,0.6-3,0.6-4.5c0-1.6-0.2-3.2-0.6-4.6c-0.4-1.5-1-2.9-1.9-4.4h1.2
	c0.5,0.7,0.9,1.4,1.3,2.2s0.7,1.4,1,2.2c0.3,0.7,0.5,1.5,0.6,2.3s0.2,1.6,0.2,2.4c0,1.5-0.3,3-0.8,4.6c-0.5,1.5-1.3,3-2.3,4.3h-1.2
	C1721.9,745.7,1722.6,744.3,1722.9,742.8z"/>
<path class="st0" d="M1683.9,774.5c0-0.5,0.1-1.1,0.2-1.6s0.3-1,0.4-1.5c0.2-0.5,0.5-0.9,0.8-1.2s0.8-0.6,1.3-0.8s1.1-0.3,1.8-0.3
	c0.7,0,1.3,0.1,1.8,0.3s0.9,0.5,1.3,0.8c0.3,0.3,0.6,0.8,0.8,1.2c0.2,0.5,0.3,1,0.4,1.5s0.2,1,0.2,1.6c0,0.5,0,1.1,0,1.6s0,1,0,1.6
	c0,0.5-0.1,1.1-0.2,1.6s-0.3,1-0.4,1.5c-0.2,0.5-0.5,0.9-0.8,1.2s-0.8,0.6-1.3,0.8s-1.1,0.3-1.8,0.3c-0.7,0-1.3-0.1-1.8-0.3
	s-0.9-0.5-1.3-0.8c-0.3-0.3-0.6-0.7-0.8-1.2c-0.2-0.5-0.3-0.9-0.4-1.5c-0.1-0.5-0.2-1-0.2-1.6c0-0.5,0-1.1,0-1.6
	S1683.9,775,1683.9,774.5z M1685.6,777.8c0,0.6,0.1,1.2,0.3,1.8s0.5,1,0.8,1.4c0.4,0.4,0.9,0.6,1.6,0.6s1.2-0.2,1.6-0.6
	c0.4-0.4,0.7-0.9,0.8-1.4c0.2-0.6,0.3-1.2,0.3-1.8s0-1.2,0-1.7c0-0.3,0-0.7,0-1.1c0-0.4,0-0.8-0.1-1.2s-0.1-0.8-0.3-1.2
	c-0.1-0.4-0.3-0.7-0.5-1s-0.5-0.5-0.8-0.7s-0.7-0.3-1.2-0.3s-0.9,0.1-1.2,0.3c-0.3,0.2-0.6,0.4-0.8,0.7s-0.4,0.6-0.5,1
	s-0.2,0.8-0.3,1.2c-0.1,0.4-0.1,0.8-0.1,1.2s0,0.8,0,1.1C1685.6,776.5,1685.6,777.1,1685.6,777.8z"/>
<path class="st0" d="M1696.7,772.8v1.4l0,0c0.3-0.6,0.7-1,1.3-1.2c0.6-0.3,1.2-0.4,1.9-0.4c0.8,0,1.4,0.1,2,0.4
	c0.6,0.3,1,0.7,1.4,1.1c0.4,0.5,0.7,1,0.9,1.7c0.2,0.6,0.3,1.3,0.3,2s-0.1,1.4-0.3,2c-0.2,0.6-0.5,1.2-0.8,1.6
	c-0.4,0.5-0.9,0.8-1.4,1.1c-0.6,0.3-1.2,0.4-2,0.4c-0.2,0-0.5,0-0.8-0.1s-0.6-0.1-0.9-0.3c-0.3-0.1-0.6-0.3-0.8-0.5
	c-0.3-0.2-0.5-0.4-0.7-0.7l0,0v5.1h-1.6v-13.8h1.5V772.8z M1702.6,776.3c-0.1-0.4-0.3-0.8-0.6-1.2c-0.3-0.3-0.6-0.6-1-0.8
	s-0.9-0.3-1.4-0.3c-0.6,0-1,0.1-1.4,0.3s-0.7,0.5-0.9,0.9c-0.2,0.4-0.4,0.8-0.5,1.2c-0.1,0.5-0.2,0.9-0.2,1.4s0.1,1,0.2,1.4
	c0.1,0.5,0.3,0.9,0.5,1.2c0.3,0.3,0.6,0.6,1,0.8s0.9,0.3,1.4,0.3c0.6,0,1-0.1,1.4-0.3s0.7-0.5,0.9-0.9c0.2-0.4,0.4-0.8,0.5-1.2
	c0.1-0.5,0.2-0.9,0.2-1.4S1702.7,776.8,1702.6,776.3z"/>
<path class="st0" d="M1707.9,772.8v1.5l0,0c0.7-1.1,1.8-1.7,3.2-1.7c0.6,0,1.2,0.1,1.7,0.4c0.5,0.3,0.9,0.7,1.1,1.3
	c0.3-0.5,0.8-1,1.3-1.3s1.1-0.4,1.8-0.4c0.5,0,1,0.1,1.4,0.2c0.4,0.1,0.8,0.3,1,0.5c0.3,0.2,0.5,0.5,0.7,0.9s0.2,0.8,0.2,1.3v7.3
	h-1.6v-6.5c0-0.3,0-0.6-0.1-0.9c-0.1-0.3-0.1-0.5-0.3-0.7c-0.1-0.2-0.3-0.4-0.6-0.5c-0.3-0.1-0.6-0.2-1-0.2c-0.8,0-1.4,0.2-1.9,0.7
	s-0.7,1.1-0.7,1.9v6.2h-1.6v-6.5c0-0.3,0-0.6-0.1-0.9c-0.1-0.3-0.2-0.5-0.3-0.7c-0.1-0.2-0.3-0.4-0.6-0.5c-0.2-0.1-0.5-0.2-0.9-0.2
	c-0.5,0-0.9,0.1-1.2,0.3c-0.3,0.2-0.6,0.4-0.8,0.7c-0.2,0.3-0.4,0.5-0.5,0.8s-0.1,0.5-0.1,0.7v6.2h-1.6v-10h1.5V772.8z"/>
<path class="st0" d="M1722.9,782.2c0.4-1.4,0.6-3,0.6-4.5c0-1.6-0.2-3.2-0.6-4.6c-0.4-1.5-1-2.9-1.9-4.4h1.2
	c0.5,0.7,0.9,1.4,1.3,2.2c0.4,0.7,0.7,1.4,1,2.2c0.3,0.7,0.5,1.5,0.6,2.3s0.2,1.6,0.2,2.4c0,1.5-0.3,3-0.8,4.6
	c-0.5,1.5-1.3,3-2.3,4.3h-1.2C1721.9,785.1,1722.6,783.7,1722.9,782.2z"/>
<line class="st6" x1="1733.6" y1="796.5" x2="1733.6" y2="836"/>
<path class="st0" d="M1741.6,797c0.4,0.1,0.7,0.3,1,0.5s0.5,0.5,0.7,0.9c0.2,0.3,0.2,0.7,0.2,1.2s-0.1,0.9-0.2,1.2s-0.4,0.6-0.7,0.9
	c-0.3,0.2-0.6,0.4-1,0.5s-0.7,0.2-1.1,0.2s-0.8-0.1-1.1-0.2c-0.4-0.1-0.7-0.3-1-0.5s-0.5-0.5-0.7-0.9c-0.2-0.3-0.2-0.7-0.2-1.2
	s0.1-0.9,0.2-1.2c0.2-0.3,0.4-0.6,0.7-0.9c0.3-0.2,0.6-0.4,1-0.5s0.7-0.2,1.1-0.2C1740.9,796.9,1741.2,796.9,1741.6,797z
	 M1739.6,797.7c-0.3,0.1-0.5,0.2-0.8,0.4c-0.2,0.2-0.4,0.4-0.5,0.6c-0.1,0.3-0.2,0.6-0.2,0.9s0.1,0.6,0.2,0.9
	c0.1,0.3,0.3,0.5,0.5,0.6c0.2,0.2,0.5,0.3,0.8,0.4c0.3,0.1,0.6,0.1,0.9,0.1s0.6,0,0.9-0.1s0.5-0.2,0.8-0.4c0.2-0.2,0.4-0.4,0.5-0.6
	c0.1-0.3,0.2-0.6,0.2-0.9s-0.1-0.6-0.2-0.9c-0.1-0.3-0.3-0.5-0.5-0.6c-0.2-0.2-0.5-0.3-0.8-0.4c-0.3-0.1-0.6-0.1-0.9-0.1
	C1740.2,797.6,1739.9,797.7,1739.6,797.7z"/>
<path class="st0" d="M1738,808.1c-0.4-0.4-0.6-0.9-0.6-1.7c0-0.7,0.2-1.3,0.5-1.7c0.4-0.4,0.9-0.6,1.7-0.6h3.7v0.8h-3.7
	c-0.5,0-0.9,0.1-1.2,0.4c-0.3,0.3-0.4,0.7-0.4,1.2s0.1,0.9,0.4,1.1c0.3,0.3,0.7,0.4,1.2,0.4h3.7v0.8h-3.7
	C1738.9,808.7,1738.4,808.5,1738,808.1z"/>
<path class="st0" d="M1742.7,810.2h0.6v4.6h-0.6v-1.9h-5.1v-0.8h5.1V810.2z"/>
<path class="st0" d="M1742.5,819.1c0.2-0.3,0.3-0.6,0.3-1c0-0.2,0-0.3,0-0.5s-0.1-0.3-0.2-0.4c-0.1-0.1-0.2-0.2-0.3-0.3
	c-0.1-0.1-0.3-0.1-0.5-0.1s-0.3,0.1-0.4,0.2c-0.1,0.1-0.2,0.2-0.3,0.4c-0.1,0.2-0.1,0.4-0.2,0.6s-0.1,0.4-0.1,0.7
	c-0.1,0.2-0.1,0.5-0.2,0.7s-0.2,0.4-0.3,0.6c-0.1,0.2-0.3,0.3-0.5,0.4c-0.2,0.1-0.4,0.2-0.7,0.2c-0.3,0-0.6-0.1-0.8-0.2
	c-0.2-0.1-0.4-0.3-0.5-0.5s-0.2-0.5-0.3-0.7c-0.1-0.3-0.1-0.5-0.1-0.8s0-0.6,0.1-0.9c0.1-0.3,0.2-0.5,0.4-0.8
	c0.2-0.2,0.4-0.4,0.6-0.5c0.3-0.1,0.6-0.2,0.9-0.2v0.7c-0.2,0-0.4,0-0.6,0.1s-0.3,0.2-0.4,0.4s-0.2,0.3-0.2,0.5
	c-0.1,0.2-0.1,0.4-0.1,0.6c0,0.2,0,0.3,0,0.5s0.1,0.3,0.2,0.5c0.1,0.1,0.2,0.3,0.3,0.3c0.1,0.1,0.3,0.1,0.5,0.1s0.4-0.1,0.5-0.2
	s0.2-0.2,0.3-0.4c0.1-0.2,0.1-0.4,0.2-0.6c0-0.2,0.1-0.4,0.1-0.7c0.1-0.2,0.1-0.5,0.2-0.7s0.2-0.4,0.3-0.6c0.1-0.2,0.3-0.3,0.4-0.4
	c0.2-0.1,0.4-0.2,0.7-0.2c0.3,0,0.5,0.1,0.8,0.2c0.2,0.1,0.4,0.3,0.5,0.5s0.2,0.4,0.3,0.7c0.1,0.2,0.1,0.5,0.1,0.8s0,0.6-0.1,0.8
	c-0.1,0.3-0.2,0.5-0.3,0.7c-0.2,0.2-0.3,0.3-0.6,0.4c-0.2,0.1-0.5,0.2-0.8,0.2v-0.7C1742.1,819.5,1742.4,819.3,1742.5,819.1z"/>
<path class="st0" d="M1743.3,823.1h-5.7v-0.8h5.7V823.1z"/>
<path class="st0" d="M1743.3,827.2c0,0.9-0.2,1.6-0.7,2c-0.4,0.5-1.1,0.7-2.1,0.7c-0.5,0-0.9-0.1-1.3-0.2c-0.4-0.1-0.7-0.3-0.9-0.5
	c-0.3-0.2-0.4-0.5-0.6-0.9c-0.1-0.3-0.2-0.8-0.2-1.2v-2h5.7L1743.3,827.2L1743.3,827.2z M1738.2,827.2c0,0.1,0,0.2,0,0.3
	s0,0.3,0.1,0.4c0.1,0.1,0.1,0.3,0.2,0.4s0.2,0.3,0.4,0.4c0.2,0.1,0.4,0.2,0.6,0.3s0.6,0.1,0.9,0.1s0.6,0,0.9-0.1s0.5-0.2,0.7-0.3
	c0.2-0.2,0.3-0.3,0.4-0.6c0.1-0.2,0.1-0.5,0.1-0.9v-1.3h-4.5v1.3H1738.2z"/>
<path class="st0" d="M1743.3,835.7h-0.6v-3.2h-1.8v3h-0.6v-3h-2v3.2h-0.6v-4h5.7L1743.3,835.7L1743.3,835.7z"/>
<path class="st0" d="M1683.9,813.9c0-0.5,0.1-1.1,0.2-1.6s0.3-1,0.4-1.5c0.2-0.5,0.5-0.9,0.8-1.2s0.8-0.6,1.3-0.8s1.1-0.3,1.8-0.3
	c0.7,0,1.3,0.1,1.8,0.3s0.9,0.5,1.3,0.8c0.3,0.3,0.6,0.8,0.8,1.2c0.2,0.5,0.3,1,0.4,1.5s0.2,1,0.2,1.6c0,0.5,0,1.1,0,1.6s0,1,0,1.6
	c0,0.5-0.1,1.1-0.2,1.6s-0.3,1-0.4,1.5c-0.2,0.5-0.5,0.9-0.8,1.2s-0.8,0.6-1.3,0.8s-1.1,0.3-1.8,0.3c-0.7,0-1.3-0.1-1.8-0.3
	s-0.9-0.5-1.3-0.8c-0.3-0.3-0.6-0.7-0.8-1.2c-0.2-0.5-0.3-0.9-0.4-1.5c-0.1-0.5-0.2-1-0.2-1.6c0-0.5,0-1.1,0-1.6
	S1683.9,814.4,1683.9,813.9z M1685.7,817.2c0,0.6,0.1,1.2,0.3,1.8c0.2,0.6,0.5,1,0.8,1.4c0.4,0.4,0.9,0.6,1.6,0.6s1.2-0.2,1.6-0.6
	c0.4-0.4,0.7-0.9,0.8-1.4c0.2-0.6,0.3-1.2,0.3-1.8s0-1.2,0-1.7c0-0.3,0-0.7,0-1.1c0-0.4,0-0.8-0.1-1.2s-0.1-0.8-0.3-1.2
	c-0.1-0.4-0.3-0.7-0.5-1s-0.5-0.5-0.8-0.7s-0.7-0.3-1.2-0.3s-0.9,0.1-1.2,0.3c-0.3,0.2-0.6,0.4-0.8,0.7c-0.2,0.3-0.4,0.6-0.5,1
	s-0.2,0.8-0.3,1.2c-0.1,0.4-0.1,0.8-0.1,1.2s0,0.8,0,1.1C1685.6,816,1685.6,816.5,1685.7,817.2z"/>
<path class="st0" d="M1696.8,812.2v1.4l0,0c0.3-0.6,0.7-1,1.3-1.2c0.6-0.3,1.2-0.4,1.9-0.4c0.8,0,1.4,0.1,2,0.4
	c0.6,0.3,1,0.7,1.4,1.1c0.4,0.5,0.7,1,0.9,1.7c0.2,0.6,0.3,1.3,0.3,2s-0.1,1.4-0.3,2c-0.2,0.6-0.5,1.2-0.8,1.7
	c-0.4,0.5-0.9,0.8-1.4,1.1c-0.6,0.3-1.2,0.4-2,0.4c-0.2,0-0.5,0-0.8-0.1s-0.6-0.1-0.9-0.3c-0.3-0.1-0.6-0.3-0.8-0.5
	c-0.3-0.2-0.5-0.4-0.7-0.7l0,0v5.1h-1.6v-13.8L1696.8,812.2L1696.8,812.2z M1702.7,815.7c-0.1-0.4-0.3-0.8-0.6-1.2
	c-0.3-0.3-0.6-0.6-1-0.8s-0.9-0.3-1.4-0.3c-0.6,0-1,0.1-1.4,0.3s-0.7,0.5-0.9,0.9c-0.2,0.4-0.4,0.8-0.5,1.2
	c-0.1,0.5-0.2,0.9-0.2,1.4s0.1,1,0.2,1.4c0.1,0.5,0.3,0.9,0.5,1.2c0.3,0.3,0.6,0.6,1,0.8s0.9,0.3,1.4,0.3c0.6,0,1-0.1,1.4-0.3
	s0.7-0.5,0.9-0.9c0.2-0.4,0.4-0.8,0.5-1.2c0.1-0.5,0.2-0.9,0.2-1.4C1702.9,816.6,1702.9,816.2,1702.7,815.7z"/>
<path class="st0" d="M1708,812.2v1.5l0,0c0.7-1.1,1.8-1.7,3.2-1.7c0.6,0,1.2,0.1,1.7,0.4c0.5,0.3,0.9,0.7,1.1,1.3
	c0.3-0.5,0.8-1,1.3-1.3s1.1-0.4,1.8-0.4c0.5,0,1,0.1,1.4,0.2c0.4,0.1,0.8,0.3,1,0.5c0.3,0.2,0.5,0.5,0.7,0.9s0.2,0.8,0.2,1.3v7.3
	h-1.6v-6.5c0-0.3,0-0.6-0.1-0.9c-0.1-0.3-0.1-0.5-0.3-0.7c-0.1-0.2-0.3-0.4-0.6-0.5c-0.3-0.1-0.6-0.2-1-0.2c-0.8,0-1.4,0.2-1.9,0.7
	s-0.7,1.1-0.7,1.9v6.2h-1.6v-6.5c0-0.3,0-0.6-0.1-0.9c-0.1-0.3-0.2-0.5-0.3-0.7c-0.1-0.2-0.3-0.4-0.6-0.5c-0.2-0.1-0.5-0.2-0.9-0.2
	c-0.5,0-0.9,0.1-1.2,0.3c-0.3,0.2-0.6,0.4-0.8,0.7s-0.4,0.5-0.5,0.8s-0.1,0.5-0.1,0.7v6.2h-1.6v-10h1.5V812.2z"/>
<path class="st0" d="M1722.9,821.6c0.4-1.4,0.6-3,0.6-4.5c0-1.6-0.2-3.2-0.6-4.6c-0.4-1.5-1-2.9-1.9-4.4h1.2
	c0.5,0.7,0.9,1.4,1.3,2.2s0.7,1.4,1,2.2c0.3,0.7,0.5,1.5,0.6,2.3s0.2,1.6,0.2,2.4c0,1.5-0.3,3-0.8,4.6c-0.5,1.5-1.3,3-2.3,4.3h-1.2
	C1721.9,824.5,1722.6,823.1,1722.9,821.6z"/>
<path class="st0" d="M1683.9,853.3c0-0.5,0.1-1.1,0.2-1.6s0.3-1,0.4-1.5c0.2-0.5,0.5-0.9,0.8-1.2s0.8-0.6,1.3-0.8s1.1-0.3,1.8-0.3
	c0.7,0,1.3,0.1,1.8,0.3s0.9,0.5,1.3,0.8c0.3,0.3,0.6,0.8,0.8,1.2c0.2,0.5,0.3,1,0.4,1.5s0.2,1,0.2,1.6c0,0.5,0,1.1,0,1.6s0,1,0,1.6
	c0,0.5-0.1,1.1-0.2,1.6s-0.3,1-0.4,1.5c-0.2,0.5-0.5,0.9-0.8,1.2s-0.8,0.6-1.3,0.8s-1.1,0.3-1.8,0.3c-0.7,0-1.3-0.1-1.8-0.3
	s-0.9-0.5-1.3-0.8c-0.3-0.3-0.6-0.7-0.8-1.2c-0.2-0.5-0.3-0.9-0.4-1.5c-0.1-0.5-0.2-1-0.2-1.6c0-0.5,0-1.1,0-1.6
	S1683.9,853.8,1683.9,853.3z M1685.6,856.6c0,0.6,0.1,1.2,0.3,1.8c0.2,0.6,0.5,1,0.8,1.4c0.4,0.4,0.9,0.6,1.6,0.6s1.2-0.2,1.6-0.6
	c0.4-0.4,0.7-0.9,0.8-1.4c0.2-0.6,0.3-1.2,0.3-1.8s0-1.2,0-1.7c0-0.3,0-0.7,0-1.1c0-0.4,0-0.8-0.1-1.2s-0.1-0.8-0.3-1.2
	c-0.1-0.4-0.3-0.7-0.5-1s-0.5-0.5-0.8-0.7s-0.7-0.3-1.2-0.3s-0.9,0.1-1.2,0.3c-0.3,0.2-0.6,0.4-0.8,0.7s-0.4,0.6-0.5,1
	s-0.2,0.8-0.3,1.2c-0.1,0.4-0.1,0.8-0.1,1.2s0,0.8,0,1.1C1685.6,855.4,1685.6,855.9,1685.6,856.6z"/>
<path class="st0" d="M1696.7,851.6v1.4l0,0c0.3-0.6,0.7-1,1.3-1.2c0.6-0.3,1.2-0.4,1.9-0.4c0.8,0,1.4,0.1,2,0.4
	c0.6,0.3,1,0.7,1.4,1.1c0.4,0.5,0.7,1,0.9,1.7c0.2,0.6,0.3,1.3,0.3,2s-0.1,1.4-0.3,2c-0.2,0.6-0.5,1.2-0.8,1.6
	c-0.4,0.5-0.9,0.8-1.4,1.1c-0.6,0.3-1.2,0.4-2,0.4c-0.2,0-0.5,0-0.8-0.1s-0.6-0.1-0.9-0.3c-0.3-0.1-0.6-0.3-0.8-0.5
	c-0.3-0.2-0.5-0.4-0.7-0.7l0,0v5.1h-1.6v-13.8h1.5V851.6z M1702.6,855.1c-0.1-0.4-0.3-0.8-0.6-1.2c-0.3-0.3-0.6-0.6-1-0.8
	s-0.9-0.3-1.4-0.3c-0.6,0-1,0.1-1.4,0.3s-0.7,0.5-0.9,0.9c-0.2,0.4-0.4,0.8-0.5,1.2c-0.1,0.5-0.2,0.9-0.2,1.4s0.1,1,0.2,1.4
	c0.1,0.5,0.3,0.9,0.5,1.2c0.3,0.3,0.6,0.6,1,0.8s0.9,0.3,1.4,0.3c0.6,0,1-0.1,1.4-0.3s0.7-0.5,0.9-0.9c0.2-0.4,0.4-0.8,0.5-1.2
	c0.1-0.5,0.2-0.9,0.2-1.4S1702.7,855.6,1702.6,855.1z"/>
<path class="st0" d="M1707.9,851.6v1.5l0,0c0.7-1.1,1.8-1.7,3.2-1.7c0.6,0,1.2,0.1,1.7,0.4c0.5,0.3,0.9,0.7,1.1,1.3
	c0.3-0.5,0.8-1,1.3-1.3s1.1-0.4,1.8-0.4c0.5,0,1,0.1,1.4,0.2c0.4,0.1,0.8,0.3,1,0.5c0.3,0.2,0.5,0.5,0.7,0.9s0.2,0.8,0.2,1.3v7.3
	h-1.6V855c0-0.3,0-0.6-0.1-0.9c-0.1-0.3-0.1-0.5-0.3-0.7c-0.1-0.2-0.3-0.4-0.6-0.5c-0.3-0.1-0.6-0.2-1-0.2c-0.8,0-1.4,0.2-1.9,0.7
	s-0.7,1.1-0.7,1.9v6.2h-1.6V855c0-0.3,0-0.6-0.1-0.9c-0.1-0.3-0.2-0.5-0.3-0.7c-0.1-0.2-0.3-0.4-0.6-0.5c-0.2-0.1-0.5-0.2-0.9-0.2
	c-0.5,0-0.9,0.1-1.2,0.3c-0.3,0.2-0.6,0.4-0.8,0.7c-0.2,0.3-0.4,0.5-0.5,0.8s-0.1,0.5-0.1,0.7v6.2h-1.6v-10h1.5V851.6z"/>
<path class="st0" d="M1722.9,861c0.4-1.4,0.6-3,0.6-4.5c0-1.6-0.2-3.2-0.6-4.6c-0.4-1.5-1-2.9-1.9-4.4h1.2c0.5,0.7,0.9,1.4,1.3,2.2
	s0.7,1.4,1,2.2c0.3,0.7,0.5,1.5,0.6,2.3s0.2,1.6,0.2,2.4c0,1.5-0.3,3-0.8,4.6c-0.5,1.5-1.3,3-2.3,4.3h-1.2
	C1721.9,863.9,1722.6,862.5,1722.9,861z"/>
<path class="st0" d="M1683.9,892.7c0-0.5,0.1-1.1,0.2-1.6s0.3-1,0.4-1.5c0.2-0.5,0.5-0.9,0.8-1.2s0.8-0.6,1.3-0.8s1.1-0.3,1.8-0.3
	c0.7,0,1.3,0.1,1.8,0.3s0.9,0.5,1.3,0.8c0.3,0.3,0.6,0.8,0.8,1.2c0.2,0.5,0.3,1,0.4,1.5s0.2,1,0.2,1.6c0,0.5,0,1.1,0,1.6s0,1,0,1.6
	c0,0.5-0.1,1.1-0.2,1.6s-0.3,1-0.4,1.5c-0.2,0.5-0.5,0.9-0.8,1.2s-0.8,0.6-1.3,0.8s-1.1,0.3-1.8,0.3c-0.7,0-1.3-0.1-1.8-0.3
	s-0.9-0.5-1.3-0.8c-0.3-0.3-0.6-0.7-0.8-1.2c-0.2-0.5-0.3-0.9-0.4-1.5c-0.1-0.5-0.2-1-0.2-1.6c0-0.5,0-1.1,0-1.6
	S1683.9,893.2,1683.9,892.7z M1685.7,896c0,0.6,0.1,1.2,0.3,1.8c0.2,0.6,0.5,1,0.8,1.4c0.4,0.4,0.9,0.6,1.6,0.6s1.2-0.2,1.6-0.6
	c0.4-0.4,0.7-0.9,0.8-1.4c0.2-0.6,0.3-1.2,0.3-1.8s0-1.2,0-1.7c0-0.3,0-0.7,0-1.1c0-0.4,0-0.8-0.1-1.2s-0.1-0.8-0.3-1.2
	c-0.1-0.4-0.3-0.7-0.5-1s-0.5-0.5-0.8-0.7s-0.7-0.3-1.2-0.3s-0.9,0.1-1.2,0.3c-0.3,0.2-0.6,0.4-0.8,0.7c-0.2,0.3-0.4,0.6-0.5,1
	s-0.2,0.8-0.3,1.2c-0.1,0.4-0.1,0.8-0.1,1.2s0,0.8,0,1.1C1685.6,894.8,1685.6,895.3,1685.7,896z"/>
<path class="st0" d="M1696.8,891v1.4l0,0c0.3-0.6,0.7-1,1.3-1.2c0.6-0.3,1.2-0.4,1.9-0.4c0.8,0,1.4,0.1,2,0.4c0.6,0.3,1,0.7,1.4,1.1
	c0.4,0.5,0.7,1,0.9,1.7c0.2,0.6,0.3,1.3,0.3,2s-0.1,1.4-0.3,2c-0.2,0.6-0.5,1.2-0.8,1.7c-0.4,0.5-0.9,0.8-1.4,1.1
	c-0.6,0.3-1.2,0.4-2,0.4c-0.2,0-0.5,0-0.8-0.1s-0.6-0.1-0.9-0.3c-0.3-0.1-0.6-0.3-0.8-0.5c-0.3-0.2-0.5-0.4-0.7-0.7l0,0v5.1h-1.6
	V891H1696.8z M1702.7,894.5c-0.1-0.4-0.3-0.8-0.6-1.2c-0.3-0.3-0.6-0.6-1-0.8s-0.9-0.3-1.4-0.3c-0.6,0-1,0.1-1.4,0.3
	s-0.7,0.5-0.9,0.9c-0.2,0.4-0.4,0.8-0.5,1.2c-0.1,0.5-0.2,0.9-0.2,1.4s0.1,1,0.2,1.4c0.1,0.5,0.3,0.9,0.5,1.2c0.3,0.3,0.6,0.6,1,0.8
	s0.9,0.3,1.4,0.3c0.6,0,1-0.1,1.4-0.3s0.7-0.5,0.9-0.9c0.2-0.4,0.4-0.8,0.5-1.2c0.1-0.5,0.2-0.9,0.2-1.4
	C1702.9,895.4,1702.9,895,1702.7,894.5z"/>
<path class="st0" d="M1708,891v1.5l0,0c0.7-1.1,1.8-1.7,3.2-1.7c0.6,0,1.2,0.1,1.7,0.4c0.5,0.3,0.9,0.7,1.1,1.3
	c0.3-0.5,0.8-1,1.3-1.3s1.1-0.4,1.8-0.4c0.5,0,1,0.1,1.4,0.2c0.4,0.1,0.8,0.3,1,0.5c0.3,0.2,0.5,0.5,0.7,0.9s0.2,0.8,0.2,1.3v7.3
	h-1.6v-6.5c0-0.3,0-0.6-0.1-0.9c-0.1-0.3-0.1-0.5-0.3-0.7c-0.1-0.2-0.3-0.4-0.6-0.5c-0.3-0.1-0.6-0.2-1-0.2c-0.8,0-1.4,0.2-1.9,0.7
	s-0.7,1.1-0.7,1.9v6.2h-1.6v-6.5c0-0.3,0-0.6-0.1-0.9c-0.1-0.3-0.2-0.5-0.3-0.7c-0.1-0.2-0.3-0.4-0.6-0.5c-0.2-0.1-0.5-0.2-0.9-0.2
	c-0.5,0-0.9,0.1-1.2,0.3c-0.3,0.2-0.6,0.4-0.8,0.7s-0.4,0.5-0.5,0.8s-0.1,0.5-0.1,0.7v6.2h-1.6v-10h1.5V891z"/>
<path class="st0" d="M1722.9,900.4c0.4-1.4,0.6-3,0.6-4.5c0-1.6-0.2-3.2-0.6-4.6c-0.4-1.5-1-2.9-1.9-4.4h1.2
	c0.5,0.7,0.9,1.4,1.3,2.2s0.7,1.4,1,2.2c0.3,0.7,0.5,1.5,0.6,2.3s0.2,1.6,0.2,2.4c0,1.5-0.3,3-0.8,4.6c-0.5,1.5-1.3,3-2.3,4.3h-1.2
	C1721.9,903.3,1722.6,901.9,1722.9,900.4z"/>
<path class="st0" d="M1694.5,940.3c-0.3,0.2-0.7,0.3-1.2,0.3c-0.4,0-0.8-0.1-1-0.4c-0.3-0.2-0.4-0.6-0.4-1.2c-0.5,0.5-1,0.9-1.6,1.2
	c-0.6,0.2-1.2,0.4-1.9,0.4c-0.4,0-0.9-0.1-1.3-0.2c-0.4-0.1-0.8-0.3-1.1-0.5c-0.3-0.2-0.5-0.5-0.7-0.9s-0.3-0.8-0.3-1.3
	c0-0.6,0.1-1,0.3-1.4c0.2-0.4,0.4-0.7,0.8-0.9c0.3-0.2,0.7-0.4,1.1-0.5s0.8-0.2,1.2-0.3c0.4-0.1,0.9-0.2,1.3-0.2s0.8-0.1,1.1-0.2
	c0.3-0.1,0.6-0.2,0.7-0.4c0.2-0.2,0.3-0.4,0.3-0.7c0-0.4-0.1-0.6-0.2-0.9c-0.1-0.2-0.3-0.4-0.5-0.5s-0.5-0.2-0.7-0.2
	c-0.3,0-0.5-0.1-0.8-0.1c-0.7,0-1.3,0.1-1.7,0.4c-0.5,0.3-0.7,0.8-0.8,1.5h-1.6c0-0.6,0.2-1.1,0.4-1.6c0.2-0.4,0.5-0.8,0.9-1
	c0.4-0.3,0.8-0.5,1.3-0.6s1-0.2,1.6-0.2c0.5,0,0.9,0,1.3,0.1s0.8,0.2,1.2,0.4c0.4,0.2,0.7,0.5,0.9,0.8c0.2,0.4,0.3,0.8,0.3,1.4v5.1
	c0,0.4,0,0.7,0.1,0.8c0,0.2,0.2,0.3,0.5,0.3c0.1,0,0.3,0,0.5-0.1L1694.5,940.3L1694.5,940.3z M1691.8,935.2
	c-0.2,0.2-0.5,0.3-0.8,0.3c-0.3,0.1-0.7,0.1-1.1,0.2c-0.4,0-0.7,0.1-1.1,0.2c-0.4,0.1-0.7,0.2-1,0.3s-0.5,0.3-0.7,0.5
	s-0.3,0.6-0.3,1c0,0.3,0.1,0.5,0.2,0.7s0.3,0.3,0.4,0.5c0.2,0.1,0.4,0.2,0.6,0.2c0.2,0.1,0.5,0.1,0.7,0.1c0.5,0,1-0.1,1.4-0.2
	c0.4-0.1,0.7-0.3,0.9-0.6c0.2-0.2,0.4-0.5,0.5-0.7c0.1-0.3,0.2-0.5,0.2-0.7v-1.8H1691.8z"/>
<path class="st0" d="M1697.4,930.4v1.6l0,0c0.7-1.2,1.8-1.8,3.2-1.8c0.7,0,1.2,0.1,1.6,0.3s0.8,0.4,1.1,0.8c0.3,0.3,0.5,0.7,0.6,1.1
	c0.1,0.4,0.2,0.9,0.2,1.5v6.6h-1.6v-6.8c0-0.6-0.2-1.1-0.5-1.5s-0.9-0.5-1.5-0.5c-0.5,0-0.9,0.1-1.3,0.2c-0.4,0.2-0.7,0.4-0.9,0.7
	c-0.2,0.3-0.4,0.6-0.6,1c-0.1,0.4-0.2,0.8-0.2,1.2v5.6h-1.6v-10L1697.4,930.4L1697.4,930.4z"/>
<path class="st0" d="M1712.5,932.1c-0.4-0.3-1-0.5-1.7-0.5c-0.6,0-1.1,0.1-1.5,0.3s-0.7,0.5-1,0.9c-0.2,0.4-0.4,0.8-0.5,1.2
	c-0.1,0.5-0.2,1-0.2,1.5s0.1,0.9,0.2,1.4s0.3,0.8,0.5,1.2c0.2,0.3,0.5,0.6,0.9,0.8s0.8,0.3,1.3,0.3c0.8,0,1.4-0.2,1.9-0.6
	c0.5-0.4,0.7-1,0.8-1.8h1.7c-0.2,1.2-0.6,2.2-1.4,2.9c-0.7,0.7-1.7,1-3,1c-0.8,0-1.4-0.1-2-0.4c-0.6-0.2-1.1-0.6-1.5-1
	c-0.4-0.5-0.7-1-0.9-1.6c-0.2-0.6-0.3-1.3-0.3-2.1c0-0.7,0.1-1.4,0.3-2.1c0.2-0.6,0.5-1.2,0.9-1.7s0.9-0.9,1.5-1.1
	c0.6-0.3,1.3-0.4,2.1-0.4c0.6,0,1.1,0.1,1.6,0.2c0.5,0.1,0.9,0.3,1.3,0.6s0.7,0.6,0.9,1.1c0.2,0.4,0.4,0.9,0.5,1.5h-1.7
	C1713.2,933,1712.9,932.5,1712.5,932.1z"/>
<path class="st0" d="M1724.1,939.8c-0.7,0.6-1.7,0.8-2.8,0.8c-0.8,0-1.5-0.1-2.1-0.4c-0.6-0.3-1.1-0.6-1.5-1.1s-0.7-1-0.9-1.7
	s-0.3-1.3-0.3-2.1s0.1-1.5,0.3-2.1c0.2-0.6,0.6-1.2,1-1.6c0.4-0.5,0.9-0.8,1.5-1.1s1.2-0.4,1.9-0.4c0.9,0,1.6,0.2,2.2,0.6
	c0.6,0.4,1.1,0.8,1.4,1.4c0.4,0.6,0.6,1.2,0.7,1.9s0.2,1.3,0.2,1.9h-7.5c0,0.4,0,0.9,0.2,1.2c0.1,0.4,0.3,0.7,0.6,1
	c0.3,0.3,0.6,0.5,1,0.7s0.9,0.3,1.4,0.3c0.7,0,1.3-0.2,1.7-0.5c0.4-0.3,0.7-0.8,0.9-1.5h1.6C1725.3,938.3,1724.8,939.2,1724.1,939.8
	z M1723.7,933.3c-0.1-0.3-0.3-0.6-0.6-0.9c-0.3-0.3-0.5-0.5-0.9-0.6c-0.3-0.1-0.7-0.2-1.1-0.2s-0.8,0.1-1.1,0.2
	c-0.3,0.1-0.6,0.4-0.9,0.6c-0.2,0.3-0.4,0.6-0.6,0.9s-0.2,0.7-0.3,1.1h5.7C1723.9,934.1,1723.9,933.7,1723.7,933.3z"/>
<path class="st0" d="M1019.9,967.4h8.5c3.4,0,4.5,2.1,4.5,4.3c0,2.1-1.4,4.2-4.4,4.2h-5.6v5.2h-2.9L1019.9,967.4L1019.9,967.4z
	 M1022.8,973.8h4.7c1.6,0,2.5-0.4,2.5-2.1c0-1.7-1.2-2.1-2.3-2.1h-4.9L1022.8,973.8L1022.8,973.8z"/>
<path class="st0" d="M1033.8,974.3c0-3.9,2.3-7.3,8.1-7.3c5.8,0,8.1,3.4,8.1,7.3c0,3.9-2.3,7.3-8.1,7.3
	C1036,981.6,1033.8,978.2,1033.8,974.3z M1047,974.3c0-3-1.9-5.1-5.1-5.1s-5.1,2.1-5.1,5.1s1.9,5.1,5.1,5.1S1047,977.3,1047,974.3z"
	/>
<path class="st0" d="M1049.4,967.4h3.1l3.1,10.7l0,0l3.4-10.7h3l3.5,10.7l0,0l3.2-10.7h3l-4.6,13.8h-3.1l-3.4-10.6l0,0l-3.5,10.6
	h-3.1L1049.4,967.4z"/>
<path class="st0" d="M1072.7,967.4h12v2.2h-9.1v3.5h8.7v2.2h-8.7v3.8h9.2v2.2h-12.1V967.4z"/>
<path class="st0" d="M1086.5,967.4h8.7c3.5,0,4.7,1.6,4.7,3.7c0,1.8-1,2.9-2.3,3.3l0,0c1.6,0.3,2,1.8,2,3.7c0,0.7,0,2.2,0.6,3h-3.1
	c-0.2-0.4-0.3-1.1-0.3-2.1c0-2-0.3-3.4-2.4-3.4h-4.9v5.4h-2.9L1086.5,967.4L1086.5,967.4z M1094.4,973.6c1.6,0,2.5-0.5,2.5-2
	c0-1.4-0.9-2-2.5-2h-5v4H1094.4z"/>
<path class="st0" d="M1101.5,967.4h12v2.2h-9.1v3.5h8.7v2.2h-8.7v3.8h9.2v2.2h-12.1V967.4z"/>
<path class="st0" d="M1115.2,967.4h7.4c5.4,0,6.7,3.1,6.7,7c0,3-1.4,6.8-6,6.8h-8.1V967.4z M1118.1,979.1h4.1c2.1,0,4.3-0.7,4.3-4.7
	c0-4.5-2.8-4.7-4.5-4.7h-3.9V979.1z"/>
<path class="st0" d="M1270.3,967.4h9.1c3.1,0,4,1.7,4,3.4c0,2-1.2,2.5-1.9,2.9c1.1,0.3,2.5,1.1,2.5,3.4c0,1.5-1,4.1-4.7,4.1h-9
	V967.4z M1273.2,973h5.4c0.8,0,1.9-0.2,1.9-1.8c0-1.2-0.7-1.7-2.4-1.7h-4.9V973z M1273.2,979.1h5.2c1.3,0,2.6-0.3,2.6-2
	c0-1.3-0.9-2-2.2-2h-5.6V979.1z"/>
<path class="st0" d="M1289.6,976l-6-8.5h3.5l3.9,6.1l3.9-6.1h3.5l-6,8.5v5.2h-2.9L1289.6,976L1289.6,976z"/>
<path class="st0" d="M1438.3,967.4h4.2l4.8,10.7l4.8-10.7h4.1v13.8h-2.7l0.1-11.4l0,0l-5.1,11.4h-2.5l-5.1-11.4l0,0l0.1,11.4h-2.7
	L1438.3,967.4L1438.3,967.4z"/>
<path class="st0" d="M1457.7,974.3c0-3.9,2.3-7.3,8.1-7.3c5.8,0,8.1,3.4,8.1,7.3c0,3.9-2.3,7.3-8.1,7.3S1457.7,978.2,1457.7,974.3z
	 M1470.9,974.3c0-3-1.9-5.1-5.1-5.1s-5.1,2.1-5.1,5.1s1.9,5.1,5.1,5.1S1470.9,977.3,1470.9,974.3z"/>
<path class="st0" d="M1475.3,967.4h7.4c5.4,0,6.7,3.1,6.7,7c0,3-1.4,6.8-6,6.8h-8.1V967.4z M1478.2,979.1h4.1c2.1,0,4.3-0.7,4.3-4.7
	c0-4.5-2.8-4.7-4.5-4.7h-3.9V979.1z"/>
<path class="st0" d="M1491,967.4h2.9v7.8c0,1.9,0.1,4.2,3.8,4.2c3.8,0,3.9-2.3,3.9-4.2v-7.8h2.9v7.9c0,2.3-0.1,6.3-6.8,6.3
	c-6.7,0-6.7-4-6.7-6.3L1491,967.4L1491,967.4z"/>
<path class="st0" d="M1506.2,967.4h2.9v11.5h8.4v2.3h-11.3V967.4z"/>
<path class="st0" d="M1524.9,967.4h3.4l6.1,13.8h-3.2l-1.4-3.4h-6.5l-1.4,3.4h-3.1L1524.9,967.4z M1528.9,975.6l-2.4-5.8l-2.4,5.8
	H1528.9z"/>
<path class="st0" d="M1535.5,967.4h8.7c3.5,0,4.7,1.6,4.7,3.7c0,1.8-1,2.9-2.3,3.3l0,0c1.6,0.3,2,1.8,2,3.7c0,0.7,0,2.2,0.6,3h-3.1
	c-0.2-0.4-0.3-1.1-0.3-2.1c0-2-0.3-3.4-2.4-3.4h-4.9v5.4h-2.9L1535.5,967.4L1535.5,967.4z M1543.4,973.6c1.6,0,2.5-0.5,2.5-2
	c0-1.4-0.9-2-2.5-2h-5v4H1543.4z"/>
<path class="st0" d="M1563.4,974.3c0-3.9,2.3-7.3,8.1-7.3c5.8,0,8.1,3.4,8.1,7.3c0,3.9-2.3,7.3-8.1,7.3
	C1565.7,981.6,1563.4,978.2,1563.4,974.3z M1576.6,974.3c0-3-1.9-5.1-5.1-5.1s-5.1,2.1-5.1,5.1s1.9,5.1,5.1,5.1
	S1576.6,977.3,1576.6,974.3z"/>
<path class="st0" d="M1581.1,967.4h3.3l8.2,10.3l0,0v-10.3h2.8v13.8h-3.3l-8.3-10.3l0,0v10.3h-2.8v-13.8H1581.1z"/>
<path class="st0" d="M1615.9,969.6h-5.2v-2.2h13.2v2.2h-5.2v11.6h-2.9L1615.9,969.6L1615.9,969.6z"/>
<path class="st0" d="M1625.4,967.4h2.9v5.4h8.6v-5.4h2.9v13.8h-2.9V975h-8.6v6.3h-2.9V967.4z"/>
<path class="st0" d="M1641.5,967.4h12v2.2h-9.1v3.5h8.7v2.2h-8.7v3.8h9.2v2.2h-12.1V967.4z"/>
<path class="st0" d="M1674.3,967c2.1,0,6.4,0.4,6.7,4.4h-3.1c-0.1-1.1-1.1-2.2-3.5-2.2c-1.9,0-3.2,0.6-3.2,1.9
	c0,3.3,10.3,0.1,10.3,6c0,3.6-3.7,4.5-6.6,4.5c-5,0-6.9-2-7-4.8h3.1c0.1,1.8,1.6,2.7,4,2.7c1.8,0,3.4-0.5,3.4-2
	c0-3.4-10.2-0.4-10.2-6.1C1668.2,968.2,1670.9,967,1674.3,967z"/>
<path class="st0" d="M1682.4,967.4h8.5c3.4,0,4.5,2.1,4.5,4.3c0,2.1-1.4,4.2-4.4,4.2h-5.6v5.2h-2.9L1682.4,967.4L1682.4,967.4z
	 M1685.3,973.8h4.7c1.6,0,2.5-0.4,2.5-2.1c0-1.7-1.2-2.1-2.3-2.1h-4.9L1685.3,973.8L1685.3,973.8z"/>
<path class="st0" d="M1696.3,974.3c0-3.9,2.3-7.3,8.1-7.3c5.8,0,8.1,3.4,8.1,7.3c0,3.9-2.3,7.3-8.1,7.3
	C1698.6,981.6,1696.3,978.2,1696.3,974.3z M1709.5,974.3c0-3-1.9-5.1-5.1-5.1s-5.1,2.1-5.1,5.1s1.9,5.1,5.1,5.1
	S1709.5,977.3,1709.5,974.3z"/>
<path class="st0" d="M1718.1,969.6h-5.2v-2.2h13.2v2.2h-5.2v11.6h-2.9L1718.1,969.6L1718.1,969.6z"/>
<path class="st0" d="M1025.2,986.4c2.1,0,6.4,0.4,6.7,4.4h-3.1c-0.1-1.1-1.1-2.2-3.5-2.2c-1.9,0-3.2,0.6-3.2,1.9
	c0,3.3,10.3,0.1,10.3,6c0,3.6-3.7,4.5-6.6,4.5c-5,0-6.9-2-7-4.8h3.1c0.1,1.8,1.6,2.7,4,2.7c1.8,0,3.4-0.5,3.4-2
	c0-3.4-10.2-0.4-10.2-6.1C1019.2,987.6,1021.9,986.4,1025.2,986.4z"/>
<path class="st0" d="M1037.5,995.3l-6-8.5h3.5l3.9,6.1l3.9-6.1h3.5l-6,8.5v5.2h-2.9L1037.5,995.3L1037.5,995.3z"/>
<path class="st0" d="M1047.1,986.8h3.3l8.2,10.3l0,0v-10.3h2.8v13.8h-3.3l-8.3-10.3l0,0v10.3h-2.8v-13.8H1047.1z"/>
<path class="st0" d="M1067.4,989h-5.2v-2.2h13.2v2.2h-5.2v11.6h-2.9L1067.4,989L1067.4,989z"/>
<path class="st0" d="M1076.3,986.8h2.9v5.4h8.6v-5.4h2.9v13.8h-2.9v-6.3h-8.6v6.3h-2.9V986.8z"/>
<path class="st0" d="M1092.8,986.8h12v2.2h-9.1v3.5h8.7v2.2h-8.7v3.8h9.2v2.2h-12.1V986.8z"/>
<path class="st0" d="M1111.9,986.4c2.1,0,6.4,0.4,6.7,4.4h-3.1c-0.1-1.1-1.1-2.2-3.5-2.2c-1.9,0-3.2,0.6-3.2,1.9
	c0,3.3,10.3,0.1,10.3,6c0,3.6-3.7,4.5-6.6,4.5c-5,0-6.9-2-7-4.8h3.1c0.1,1.8,1.6,2.7,4,2.7c1.8,0,3.4-0.5,3.4-2
	c0-3.4-10.2-0.4-10.2-6.1C1105.9,987.6,1108.6,986.4,1111.9,986.4z"/>
<path class="st0" d="M1120.5,986.8h2.9v13.8h-2.9V986.8z"/>
<path class="st0" d="M1124.3,998.5l9.5-9.5h-8.8v-2.2h12.6v2.1l-9.4,9.4h9.5v2.3h-13.4L1124.3,998.5L1124.3,998.5z"/>
<path class="st0" d="M1138.9,986.8h12v2.2h-9.1v3.5h8.7v2.2h-8.7v3.8h9.2v2.2h-12.1V986.8z"/>
<path class="st0" d="M1152.7,986.8h8.7c3.5,0,4.7,1.6,4.7,3.7c0,1.8-1,2.9-2.3,3.3l0,0c1.6,0.3,2,1.8,2,3.7c0,0.7,0,2.2,0.6,3h-3.1
	c-0.2-0.4-0.3-1.1-0.3-2.1c0-2-0.3-3.4-2.4-3.4h-4.9v5.4h-2.9L1152.7,986.8L1152.7,986.8z M1160.6,993c1.6,0,2.5-0.5,2.5-2
	c0-1.4-0.9-2-2.5-2h-5v4H1160.6z"/>
<path class="st0" d="M1211.7,986.8h7.4c5.4,0,6.7,3.1,6.7,7c0,3-1.4,6.8-6,6.8h-8.1V986.8z M1214.6,998.4h4.1c2.1,0,4.3-0.7,4.3-4.7
	c0-4.5-2.8-4.7-4.5-4.7h-3.9V998.4z"/>
<path class="st0" d="M1227.6,986.8h12v2.2h-9.1v3.5h8.7v2.2h-8.7v3.8h9.2v2.2h-12.1V986.8z"/>
<path class="st0" d="M1241.3,986.8h4.2l4.8,10.7l4.8-10.7h4.1v13.8h-2.7l0.1-11.4l0,0l-5.1,11.4h-2.5l-5.1-11.4l0,0l0.1,11.4h-2.7
	L1241.3,986.8L1241.3,986.8z"/>
<path class="st0" d="M1260.7,993.7c0-3.9,2.3-7.3,8.1-7.3c5.8,0,8.1,3.4,8.1,7.3c0,3.9-2.3,7.3-8.1,7.3S1260.7,997.6,1260.7,993.7z
	 M1273.9,993.7c0-3-1.9-5.1-5.1-5.1s-5.1,2.1-5.1,5.1s1.9,5.1,5.1,5.1S1273.9,996.7,1273.9,993.7z"/>
<path class="st0" d="M1322.4,986.8h9.1c3.1,0,4,1.7,4,3.4c0,2-1.2,2.5-1.9,2.9c1.1,0.3,2.5,1.1,2.5,3.4c0,1.5-1,4.1-4.7,4.1h-9
	V986.8z M1325.3,992.4h5.4c0.8,0,1.9-0.2,1.9-1.8c0-1.2-0.7-1.7-2.4-1.7h-4.9V992.4z M1325.3,998.4h5.2c1.3,0,2.6-0.3,2.6-2
	c0-1.3-0.9-2-2.2-2h-5.6V998.4z"/>
<path class="st0" d="M1341.6,995.3l-6-8.5h3.5l3.9,6.1l3.9-6.1h3.5l-6,8.5v5.2h-2.9L1341.6,995.3L1341.6,995.3z"/>
<path class="st0" d="M1395.2,986.8h12v2.2h-9.1v3.5h8.7v2.2h-8.7v3.8h9.2v2.2h-12.1V986.8z"/>
<path class="st0" d="M1409,986.8h2.9v11.5h8.4v2.3H1409V986.8z"/>
<path class="st0" d="M1421.9,986.8h12v2.2h-9.1v3.5h8.7v2.2h-8.7v3.8h9.2v2.2h-12.1V986.8z"/>
<path class="st0" d="M1435.8,986.8h2.9v6.4l7-6.4h4l-6.4,5.6l6.8,8.2h-3.9l-5.2-6.4l-2.3,2.1v4.3h-2.9V986.8z"/>
<path class="st0" d="M1455.6,989h-5.2v-2.2h13.2v2.2h-5.2v11.6h-2.9L1455.6,989L1455.6,989z"/>
<path class="st0" d="M1464.8,986.8h8.7c3.5,0,4.7,1.6,4.7,3.7c0,1.8-1,2.9-2.3,3.3l0,0c1.6,0.3,2,1.8,2,3.7c0,0.7,0,2.2,0.6,3h-3.1
	c-0.2-0.4-0.3-1.1-0.3-2.1c0-2-0.3-3.4-2.4-3.4h-4.9v5.4h-2.9L1464.8,986.8L1464.8,986.8z M1472.7,993c1.6,0,2.5-0.5,2.5-2
	c0-1.4-0.9-2-2.5-2h-5v4H1472.7z"/>
<path class="st0" d="M1479.3,993.7c0-3.9,2.3-7.3,8.1-7.3c5.8,0,8.1,3.4,8.1,7.3c0,3.9-2.3,7.3-8.1,7.3
	C1481.6,1001,1479.3,997.6,1479.3,993.7z M1492.6,993.7c0-3-1.9-5.1-5.1-5.1s-5.1,2.1-5.1,5.1s1.9,5.1,5.1,5.1
	S1492.6,996.7,1492.6,993.7z"/>
<path class="st0" d="M1496.9,986.8h3.3l8.2,10.3l0,0v-10.3h2.8v13.8h-3.3l-8.3-10.3l0,0v10.3h-2.8v-13.8H1496.9z"/>
<path class="st0" d="M1527.3,986.8h4.2l4.8,10.7l4.8-10.7h4.1v13.8h-2.7l0.1-11.4l0,0l-5.1,11.4h-2.5l-5.1-11.4l0,0l0.1,11.4h-2.7
	L1527.3,986.8L1527.3,986.8z"/>
<path class="st0" d="M1547.5,986.8h2.9v7.8c0,1.9,0.1,4.2,3.8,4.2c3.8,0,3.9-2.3,3.9-4.2v-7.8h2.9v7.9c0,2.3-0.1,6.3-6.8,6.3
	c-6.7,0-6.7-4-6.7-6.3L1547.5,986.8L1547.5,986.8z"/>
<path class="st0" d="M1568.5,986.4c2.1,0,6.4,0.4,6.7,4.4h-3.1c-0.1-1.1-1.1-2.2-3.5-2.2c-1.9,0-3.2,0.6-3.2,1.9
	c0,3.3,10.3,0.1,10.3,6c0,3.6-3.7,4.5-6.6,4.5c-5,0-6.9-2-7-4.8h3.1c0.1,1.8,1.6,2.7,4,2.7c1.8,0,3.4-0.5,3.4-2
	c0-3.4-10.2-0.4-10.2-6.1C1562.4,987.6,1565.2,986.4,1568.5,986.4z"/>
<path class="st0" d="M1577,986.8h2.9v13.8h-2.9V986.8z"/>
<path class="st0" d="M1593.3,991.9c-0.3-2.1-2-3.3-4.4-3.3c-2.7,0-4.7,1.8-4.7,5.4c0,2.9,2,4.9,4.8,4.9c3,0,4-2,4.2-3.5h3.1
	c-0.4,2.7-2.2,5.7-7.9,5.7c-5,0-7.4-3.4-7.4-7.3c0-3.9,2.3-7.3,7.7-7.3c4.7,0,7.2,2.5,7.5,5.5h-2.9V991.9z"/>
<path class="st0" d="M1611.2,986.8h4.2l4.8,10.7l4.8-10.7h4.1v13.8h-2.7l0.1-11.4l0,0l-5.1,11.4h-2.5l-5.1-11.4l0,0l0.1,11.4h-2.7
	L1611.2,986.8L1611.2,986.8z"/>
<path class="st0" d="M1636,986.8h3.4l6.1,13.8h-3.2l-1.4-3.4h-6.5l-1.4,3.4h-3.1L1636,986.8z M1640,995l-2.4-5.8l-2.4,5.8H1640z"/>
<path class="st0" d="M1656.9,991.9c-0.3-2.1-2-3.3-4.4-3.3c-2.7,0-4.7,1.8-4.7,5.4c0,2.9,2,4.9,4.8,4.9c3,0,4-2,4.2-3.5h3.1
	c-0.4,2.7-2.2,5.7-7.9,5.7c-5,0-7.4-3.4-7.4-7.3c0-3.9,2.3-7.3,7.7-7.3c4.7,0,7.2,2.5,7.5,5.5h-2.9V991.9z"/>
<path class="st0" d="M1661.6,986.8h2.9v5.4h8.6v-5.4h2.9v13.8h-2.9v-6.3h-8.6v6.3h-2.9V986.8z"/>
<path class="st0" d="M1678.2,986.8h2.9v13.8h-2.9V986.8z"/>
<path class="st0" d="M1682.9,986.8h3.3l8.2,10.3l0,0v-10.3h2.8v13.8h-3.3l-8.3-10.3l0,0v10.3h-2.8v-13.8H1682.9z"/>
<path class="st0" d="M1699.5,986.8h12v2.2h-9.1v3.5h8.7v2.2h-8.7v3.8h9.2v2.2h-12.1V986.8z"/>
<path class="st0" d="M1718.6,986.4c2.1,0,6.4,0.4,6.7,4.4h-3.1c-0.1-1.1-1.1-2.2-3.5-2.2c-1.9,0-3.2,0.6-3.2,1.9
	c0,3.3,10.3,0.1,10.3,6c0,3.6-3.7,4.5-6.6,4.5c-5,0-6.9-2-7-4.8h3.1c0.1,1.8,1.6,2.7,4,2.7c1.8,0,3.4-0.5,3.4-2
	c0-3.4-10.2-0.4-10.2-6.1C1712.5,987.6,1715.3,986.4,1718.6,986.4z"/>
<path class="st0" d="M1115,137.3h-4.8l-4.8,7.2v-2.4l-4.8-4.8h-4.8l-4.3,6.4c-0.2,0.2-0.5,0.1-0.5-0.2v-1.4l-4.8-4.8h-4.8l-4.8,7.2
	v-2.4l-4.8-4.8h-4.8l-9.7,14.5v4.8h4.8l9.1-13.7c0.2-0.2,0.5-0.1,0.5,0.2v3.8h2.7c0.2,0,0.4,0.3,0.2,0.5l-2.9,4.4v4.8h4.8l9.1-13.7
	c0.2-0.2,0.5-0.1,0.5,0.2v8.7v4.8h4.8l9.1-13.7c0.2-0.2,0.5-0.1,0.5,0.2v3.8h2.7c0.2,0,0.4,0.3,0.2,0.5l-2.9,4.4v4.8h4.8l9.1-13.7
	c0.2-0.2,0.5-0.1,0.5,0.2v13.5h4.8v-14.5L1115,137.3L1115,137.3z"/>
<line class="st6" x1="1018.9" y1="149" x2="1031" y2="149"/>
<path class="st0" d="M1021.1,145v-4.1h-1.5v-0.5c0.2,0,0.4,0,0.6,0s0.3-0.1,0.5-0.2c0.1-0.1,0.3-0.2,0.4-0.3
	c0.1-0.1,0.2-0.3,0.2-0.5h0.5v5.7L1021.1,145L1021.1,145z"/>
<path d="M1024.5,144.1v0.9h-0.9v-0.9H1024.5z"/>
<path class="st0" d="M1028.8,139.2l2.2,5.7h-0.8l-0.6-1.7h-2.4l-0.6,1.7h-0.8l2.2-5.7H1028.8z M1029.4,142.6l-1-2.7l0,0l-1,2.7
	H1029.4z"/>
<line class="st6" x1="1172.1" y1="148.8" x2="1184.5" y2="148.8"/>
<path class="st0" d="M1174.3,144.8v-4.1h-1.5v-0.5c0.2,0,0.4,0,0.6,0s0.3-0.1,0.5-0.2c0.1-0.1,0.3-0.2,0.4-0.3s0.2-0.3,0.2-0.5h0.5
	v5.7L1174.3,144.8L1174.3,144.8z"/>
<path d="M1177.6,143.9v0.9h-0.9v-0.9H1177.6z"/>
<path class="st0" d="M1181.7,139c0.1,0,0.3,0,0.4,0s0.3,0,0.4,0s0.3,0,0.4,0.1c0.1,0,0.2,0.1,0.3,0.1c0.2,0.1,0.3,0.3,0.5,0.5
	c0.1,0.2,0.2,0.4,0.2,0.7s-0.1,0.6-0.2,0.8s-0.4,0.4-0.6,0.5l0,0c0.4,0.1,0.6,0.2,0.8,0.5c0.2,0.2,0.3,0.5,0.3,0.9
	c0,0.2,0,0.4-0.1,0.6c-0.1,0.2-0.2,0.4-0.3,0.5c-0.1,0.2-0.3,0.3-0.5,0.4c-0.2,0.1-0.5,0.1-0.8,0.1h-2.8V139H1181.7z M1181.9,141.5
	c0.4,0,0.7-0.1,0.9-0.2c0.2-0.2,0.3-0.4,0.3-0.7c0-0.2,0-0.4-0.1-0.5s-0.2-0.2-0.3-0.3c-0.1-0.1-0.2-0.1-0.4-0.1c-0.1,0-0.3,0-0.5,0
	h-1.5v1.8H1181.9z M1182.3,144.1c0.3,0,0.6-0.1,0.8-0.3c0.2-0.2,0.3-0.4,0.3-0.8c0-0.2,0-0.3-0.1-0.5c-0.1-0.1-0.2-0.2-0.3-0.3
	c-0.1-0.1-0.2-0.1-0.4-0.2c-0.2,0-0.3,0-0.5,0h-1.7v2h1.9V144.1z"/>
<path class="st0" d="M1690.8,85v-2.9h2.9c0,0-0.4-0.9-0.4-1.3h-3.8v3.8C1689.9,84.6,1690.8,85,1690.8,85L1690.8,85z M1723.8,84.6
	c-0.4,0-1.4,0.4-1.4,0.4v-2.9h-2.9c0,0,0.5-0.9,0.5-1.3h2.4h1.4V84.6L1723.8,84.6z M1690.8,110.8v2.9h2.9c0,0-0.4,0.9-0.4,1.3h-3.8
	v-3.8C1689.9,111.2,1690.8,110.8,1690.8,110.8L1690.8,110.8z M1722.5,110.8v2.9h-2.9c0,0,0.4,0.9,0.4,1.3h3.8v-3.8
	C1723.4,111.2,1722.5,110.8,1722.5,110.8L1722.5,110.8z"/>
<path class="st0" d="M1692.3,89.6c-0.2-0.2-0.2-5.8,0-6s5.8-0.2,6,0s0.2,5.8,0,6C1698.1,89.7,1692.5,89.7,1692.3,89.6L1692.3,89.6z
	 M1699.9,89.6c-0.2-0.2-0.2-5.8,0-6s5.8-0.2,6,0s0.2,5.8,0,6C1705.7,89.7,1700.1,89.7,1699.9,89.6L1699.9,89.6z M1707.5,89.6
	c-0.2-0.2-0.2-5.8,0-6s5.8-0.2,6,0s0.2,5.8,0,6C1713.3,89.7,1707.6,89.7,1707.5,89.6L1707.5,89.6z M1715.1,89.6
	c-0.2-0.2-0.2-5.8,0-6s5.8-0.2,6,0s0.2,5.8,0,6C1720.9,89.7,1715.2,89.7,1715.1,89.6L1715.1,89.6z M1692.3,97.1
	c-0.2-0.2-0.2-5.8,0-6s5.8-0.2,6,0s0.2,5.8,0,6C1698.1,97.3,1692.5,97.3,1692.3,97.1L1692.3,97.1z M1699.9,97.1
	c-0.2-0.2-0.2-5.8,0-6s5.8-0.2,6,0s0.2,5.8,0,6C1705.7,97.3,1700.1,97.3,1699.9,97.1L1699.9,97.1z M1707.5,97.1
	c-0.2-0.2-0.2-5.8,0-6s5.8-0.2,6,0s0.2,5.8,0,6C1713.3,97.3,1707.6,97.3,1707.5,97.1L1707.5,97.1z M1715.1,97.1
	c-0.2-0.2-0.2-5.8,0-6s5.8-0.2,6,0s0.2,5.8,0,6C1720.9,97.3,1715.2,97.3,1715.1,97.1L1715.1,97.1z M1692.3,104.7
	c-0.2-0.2-0.2-5.8,0-6s5.8-0.2,6,0s0.2,5.8,0,6C1698.1,104.9,1692.5,104.9,1692.3,104.7L1692.3,104.7z M1699.9,104.7
	c-0.2-0.2-0.2-5.8,0-6s5.8-0.2,6,0s0.2,5.8,0,6C1705.7,104.9,1700.1,104.9,1699.9,104.7L1699.9,104.7z M1707.5,104.7
	c-0.2-0.2-0.2-5.8,0-6s5.8-0.2,6,0s0.2,5.8,0,6C1713.3,104.9,1707.6,104.9,1707.5,104.7L1707.5,104.7z M1715.1,104.7
	c-0.2-0.2-0.2-5.8,0-6s5.8-0.2,6,0s0.2,5.8,0,6C1720.9,104.9,1715.2,104.9,1715.1,104.7L1715.1,104.7z M1692.3,112.3
	c-0.2-0.2-0.2-5.8,0-6s5.8-0.2,6,0s0.2,5.8,0,6C1698.1,112.5,1692.5,112.5,1692.3,112.3L1692.3,112.3z M1699.9,112.3
	c-0.2-0.2-0.2-5.8,0-6s5.8-0.2,6,0s0.2,5.8,0,6C1705.7,112.5,1700.1,112.5,1699.9,112.3L1699.9,112.3z M1707.5,112.3
	c-0.2-0.2-0.2-5.8,0-6s5.8-0.2,6,0s0.2,5.8,0,6S1707.6,112.5,1707.5,112.3L1707.5,112.3z M1715.1,112.3c-0.2-0.2-0.2-5.8,0-6
	s5.8-0.2,6,0s0.2,5.8,0,6S1715.2,112.5,1715.1,112.3L1715.1,112.3z"/>
<path class="st8" d="M1703.5,9.6v31.1l-32.8-39.1c-2-2.1-4.8-3.2-7.7-3.2c-0.1,0-0.3,0-0.4,0h-103.5v22.8h99.6l30.4,34.4h-30.2v22.8
	h66.9V9.6H1703.5L1703.5,9.6z"/>
<path class="st3" d="M1703.5,9.6v31.1l-32.8-39.1c-2-2.1-4.8-3.2-7.7-3.2c-0.1,0-0.3,0-0.4,0h-103.5v22.8h99.6l30.4,34.4h-30.2v22.8
	h66.9V9.6H1703.5L1703.5,9.6z"/>
<path class="st0" d="M1592.6,374.4h-63.7l-63.7,95.6v-31.9l-63.7-63.7h-63.7l-56.7,85c-2.1,3.2-7.1,1.7-7.1-2.1v-19.1l-63.7-63.7
	h-63.7l-63.7,95.6v-31.9l-63.7-63.7h-63.7l-127.6,191v63.7h63.7l120.2-180.3c2.2-3.2,7.2-1.7,7.2,2.2v50.7h35.1c3.2,0,5,3.5,3.3,6.1
	l-38.4,57.6v63.7h63.7L1203,448.9c2.2-3.2,7.2-1.7,7.2,2.2v114.4v63.7h63.7l120.2-180.3c2.2-3.2,7.2-1.7,7.2,2.2v50.7h35.1
	c3.2,0,5,3.5,3.3,6.1l-38.4,57.6v63.7h63.7l120.2-180.3c2.2-3.2,7.2-1.7,7.2,2.2v178.2h63.7V438.1L1592.6,374.4L1592.6,374.4z"/>
<path class="st0" d="M1853.2,137.9h-63.7l-63.7,95.6v-31.9l-63.7-63.7h-63.7l-56.7,85c-2.1,3.2-7.1,1.7-7.1-2.1v-19.1l-63.7-63.7
	h-63.7l-63.7,95.6v-31.9l-63.7-63.7h-63.7l-127.5,191.2v63.7h63.7l120.2-180.3c2.2-3.2,7.2-1.7,7.2,2.2v50.7h35.1
	c3.2,0,5,3.5,3.3,6.1l-38.4,57.6v63.7h63.7l120.2-180.3c2.2-3.2,7.2-1.7,7.2,2.2v114.4v63.7h63.7l120.2-180.3
	c2.2-3.2,7.2-1.7,7.2,2.2v50.7h35.1c3.2,0,5,3.5,3.3,6.1l-38.4,57.6v63.7h63.7L1846,212.5c2.2-3.2,7.2-1.7,7.2,2.2v178.2h63.7V201.7
	L1853.2,137.9L1853.2,137.9z"/>
<path class="st0" d="M1152.2,647.8h63.7l63.7-95.6v31.9l63.7,63.7h63.7l56.7-85c2.1-3.2,7.1-1.7,7.1,2.1V584l63.7,63.7h63.7
	l63.8-95.5v31.9l63.7,63.7h63.7l127.5-191.1V393h-63.7L1733,573.3c-2.2,3.2-7.2,1.7-7.2-2.2v-50.7h-35.1c-3.2,0-5-3.5-3.3-6.1
	l38.4-57.6V393h-63.7l-120.3,180.3c-2.2,3.2-7.2,1.7-7.2-2.2V456.7V393h-63.8l-120.2,180.3c-2.2,3.2-7.2,1.7-7.2-2.2v-50.7h-35.1
	c-3.2,0-5-3.5-3.3-6.1l38.4-57.6V393h-63.7l-120.2,180.3c-2.2,3.2-7.2,1.7-7.2-2.2V392.9h-63.7v191.2L1152.2,647.8L1152.2,647.8z"/>
<path class="st0" d="M891.6,884.3h63.7l63.7-95.6v31.9l63.8,63.7h63.7l56.7-85c2.1-3.2,7.1-1.7,7.1,2.1v19.1l63.7,63.7h63.7
	l63.7-95.6v31.9l63.7,63.7h63.7l127.6-191.1v-63.7h-63.7l-120.2,180.3c-2.2,3.2-7.2,1.7-7.2-2.2v-50.7h-35.1c-3.2,0-5-3.5-3.3-6.1
	l38.4-57.6v-63.7h-63.7l-120.2,180.3c-2.2,3.2-7.2,1.7-7.2-2.2V693.1v-63.7h-63.7l-120.2,180.3c-2.2,3.2-7.2,1.7-7.2-2.2v-50.7H1048
	c-3.2,0-5-3.5-3.3-6.1l38.1-57.6v-63.7h-63.7L898.8,809.7c-2.2,3.2-7.2,1.7-7.2-2.2V629.3h-63.7v191.2L891.6,884.3L891.6,884.3z"/>
<path class="st0" d="M326.2,647.8h63.7l63.7-95.6v31.9l63.7,63.7H581l56.7-85c2.1-3.2,7.1-1.7,7.1,2.1V584l63.7,63.7h63.7l63.7-95.6
	V584l63.7,63.7h63.7l127.6-191V393h-63.7L907,573.3c-2.2,3.2-7.2,1.7-7.2-2.2v-50.7h-35.1c-3.2,0-5-3.5-3.3-6.1l38.4-57.6V393h-63.7
	L715.8,573.3c-2.2,3.2-7.2,1.7-7.2-2.2V456.7V393h-63.7L524.7,573.3c-2.2,3.2-7.2,1.7-7.2-2.2v-50.7h-35.1c-3.2,0-5-3.5-3.3-6.1
	l38.4-57.6V393h-63.7L333.6,573.3c-2.2,3.2-7.2,1.7-7.2-2.2V392.9h-63.7v191.2L326.2,647.8L326.2,647.8z"/>
<path class="st0" d="M65.6,884.3h63.7l63.7-95.6v31.9l63.7,63.7h63.7l56.7-85c2.1-3.2,7.1-1.7,7.1,2.1v19.1l63.7,63.7h63.7
	l63.7-95.6v31.9l63.7,63.7h63.7L830.2,693v-63.7h-63.7L646.3,809.6c-2.2,3.2-7.2,1.7-7.2-2.2v-50.7H604c-3.2,0-5-3.5-3.3-6.1
	l38.4-57.6v-63.7h-63.7L455.2,809.6c-2.2,3.2-7.2,1.7-7.2-2.2V693v-63.7h-63.7L264.1,809.6c-2.2,3.2-7.2,1.7-7.2-2.2v-50.7h-35.1
	c-3.2,0-5-3.5-3.3-6.1l38.4-57.6v-63.7h-63.7L72.8,809.7c-2.2,3.2-7.2,1.7-7.2-2.2V629.3H1.9v191.2L65.6,884.3L65.6,884.3z"/>
</svg>
